<svg width="32" height="32" viewBox="0 0 32 32" fill="none" xmlns="http://www.w3.org/2000/svg">
<path d="M14.2587 7.69553C14.2587 7.69553 17.2587 7.19553 17.2587 8.69553C17.2587 9.69553 16.2587 10.1955 14.7587 10.1955C13.2587 10.1955 11.7587 9.69553 11.7587 7.69553C11.7587 5.69553 13.7587 5.19553 15.2587 5.19553C21.2587 5.19553 20.2587 11.1955 18.2587 12.1955C16.8338 12.9055 14.7587 12.1955 14.7587 12.1955C14.7587 12.1955 13.2587 13.6955 10.7587 12.1955C8.04875 10.5705 9.75875 7.69553 9.75875 7.69553C9.75875 7.69553 8.25875 5.19553 10.2587 3.69553C12.2587 2.19553 13.7587 3.69553 13.7587 3.69553C13.7587 3.69553 16.2587 1.69553 19.2587 3.69553C22.2587 5.69553 19.7587 8.19553 19.7587 8.19553" stroke="#CF84B7" stroke-width="1.3" stroke-linecap="round" stroke-linejoin="round"/>
<path d="M8.11875 11.3509C7.58375 11.3009 6.96375 11.1209 6.25875 10.6959C3.54875 9.07085 5.25875 6.19585 5.25875 6.19585C5.25875 6.19585 3.75875 3.69585 5.75875 2.19585C7.75875 0.695853 9.25875 1.69585 9.25875 1.69585C9.25875 1.69585 11.1087 -0.0441468 13.7587 1.19585" stroke="#CF84B7" stroke-width="1.3" stroke-linecap="round" stroke-linejoin="round"/>
<path d="M7.89781 7.95547C7.50281 7.57047 7.25781 7.00547 7.25781 6.19547C7.25781 4.49047 8.71281 3.87547 10.0678 3.73047" stroke="#CF84B7" stroke-width="1.3" stroke-linecap="round" stroke-linejoin="round"/>
<path d="M21.7581 8.19629C27.7581 8.19629 27.7581 14.1963 24.7581 15.1963C23.6981 15.5513 22.2581 15.1963 22.2581 15.1963C22.2581 15.1963 21.2581 16.6963 18.2581 15.6963C17.2181 15.3513 16.7031 14.7463 16.4531 14.1663" stroke="#CF84B7" stroke-width="1.3" stroke-linecap="round" stroke-linejoin="round"/>
<path d="M23.7597 11.6963C23.7597 12.6963 22.7597 13.1963 21.2597 13.1963C20.1647 13.1963 19.0647 12.9313 18.5547 12.0013" stroke="#CF84B7" stroke-width="1.3" stroke-linecap="round" stroke-linejoin="round"/>
<path d="M20.7578 10.6952C20.7578 10.6952 23.7578 10.1952 23.7578 11.6952" stroke="#CF84B7" stroke-width="1.3" stroke-linecap="round" stroke-linejoin="round"/>
<path d="M26.7567 11.6963C26.7567 11.6963 28.7567 9.69633 26.2567 7.19633C24.4867 5.42633 22.2567 6.19633 22.2567 6.19633C22.2567 6.19633 22.0217 5.52633 20.6367 5.36133" stroke="#CF84B7" stroke-width="1.3" stroke-linecap="round" stroke-linejoin="round"/>
<path d="M19.2578 16.1963L11.2578 22.1963L8.25781 28.6963C6.75781 29.1963 3.75781 27.6963 3.75781 26.1963L7.25781 20.1963V11.1963" stroke="#CF84B7" stroke-width="1.3" stroke-linecap="round" stroke-linejoin="round"/>
<path d="M7.25781 20.1963C7.25781 20.1963 7.75781 21.1963 9.25781 21.6963" stroke="#CF84B7" stroke-width="1.3" stroke-linecap="round" stroke-linejoin="round"/>
<path d="M22.7578 28.1963C22.7578 28.1963 17.9328 29.8063 16.7578 25.6963C15.7578 22.1963 11.2578 22.1963 11.2578 22.1963C11.2578 22.1963 14.2578 24.6963 13.2578 27.6963C12.5528 29.8163 13.7578 31.1963 13.7578 31.1963" stroke="#CF84B7" stroke-width="1.3" stroke-linecap="round" stroke-linejoin="round"/>
</svg>
