<svg width="32" height="32" viewBox="0 0 32 32" fill="none" xmlns="http://www.w3.org/2000/svg">
<path d="M11.3503 24.2582C7.6445 24.2582 4.64062 21.2544 4.64062 17.5485C4.64062 13.8427 7.6445 10.8389 11.3503 10.8389C12.8677 10.8389 14.2664 11.3498 15.3864 12.2014" stroke="#78B991" stroke-width="1.3" stroke-miterlimit="10" stroke-linecap="round"/>
<path d="M17.3915 10.4978C15.7657 9.10426 13.6599 8.25781 11.3528 8.25781C6.2225 8.25781 2.0625 12.4178 2.0625 17.5481C2.0625 22.6785 6.2225 26.8385 11.3528 26.8385C13.6599 26.8385 15.7657 25.992 17.3915 24.5985C16.638 24.1391 15.9619 23.5662 15.389 22.8952" stroke="#78B991" stroke-width="1.3" stroke-miterlimit="10" stroke-linecap="round"/>
<path d="M15.3864 12.2014C14.2613 11.3498 12.8677 10.8389 11.3503 10.8389C7.6445 10.8389 4.64062 13.8427 4.64062 17.5485C4.64062 21.2544 7.6445 24.2582 11.3503 24.2582C12.1503 24.2582 12.9193 24.1137 13.6316 23.8556" stroke="#78B991" stroke-width="1.3" stroke-miterlimit="10" stroke-linecap="round"/>
<path d="M15.3896 22.8959C14.1612 21.4559 13.418 19.5875 13.418 17.5488" stroke="#78B991" stroke-width="1.3" stroke-miterlimit="10" stroke-linecap="round"/>
<path d="M21.6773 11.8711C24.8154 11.8711 27.3547 14.4104 27.3547 17.5485C27.3547 20.6866 24.8154 23.2259 21.6773 23.2259C20.7638 23.2259 19.9018 23.004 19.1328 22.6169" stroke="#78B991" stroke-width="1.3" stroke-miterlimit="10" stroke-linecap="round"/>
<path d="M17.3906 24.5984C18.6397 25.3571 20.1055 25.8062 21.6745 25.8062C26.2371 25.8062 29.9326 22.1107 29.9326 17.5481C29.9326 12.9855 26.2371 9.29004 21.6745 9.29004C20.1055 9.29004 18.6397 9.73391 17.3906 10.4978C18.0616 11.0707 18.6448 11.7365 19.13 12.4797" stroke="#78B991" stroke-width="1.3" stroke-miterlimit="10" stroke-linecap="round"/>
<path d="M19.1302 22.6169C18.3406 22.2195 17.6593 21.6465 17.1328 20.9395" stroke="#78B991" stroke-width="1.3" stroke-miterlimit="10" stroke-linecap="round"/>
<path d="M15.3906 22.8955C15.9584 23.5665 16.6397 24.1394 17.3932 24.5987" stroke="#78B991" stroke-width="1.3" stroke-miterlimit="10" stroke-linecap="round"/>
<path d="M14.2644 13.9043C13.7225 15.0037 13.418 16.2372 13.418 17.5482C13.418 19.592 14.1612 21.4553 15.3896 22.8953" stroke="#78B991" stroke-width="1.3" stroke-miterlimit="10" stroke-linecap="round"/>
<path d="M17.1351 20.9447C16.428 19.995 15.9997 18.8234 15.9997 17.5485C15.9997 16.2737 16.4229 15.1021 17.1351 14.1524C16.6861 13.3937 16.0926 12.7279 15.3906 12.1963" stroke="#78B991" stroke-width="1.3" stroke-miterlimit="10" stroke-linecap="round"/>
<path d="M19.1328 22.6169C19.8967 23.004 20.7586 23.2259 21.6773 23.2259C24.8154 23.2259 27.3547 20.6866 27.3547 17.5485C27.3547 14.4104 24.8154 11.8711 21.6773 11.8711C21.4502 11.8711 21.2231 11.8866 21.0012 11.9124" stroke="#78B991" stroke-width="1.3" stroke-miterlimit="10" stroke-linecap="round"/>
<path d="M19.1328 12.4795C20.0877 13.9401 20.6451 15.6795 20.6451 17.5479" stroke="#78B991" stroke-width="1.3" stroke-miterlimit="10" stroke-linecap="round"/>
<path d="M20.0722 20.753C20.4438 19.7569 20.6451 18.673 20.6451 17.5479C20.6451 15.6743 20.0877 13.935 19.1328 12.4795" stroke="#78B991" stroke-width="1.3" stroke-miterlimit="10" stroke-linecap="round"/>
<path d="M18.0618 17.5488C18.0618 18.7875 17.7212 19.9488 17.1328 20.945C17.6593 21.6469 18.3406 22.225 19.1302 22.6224" stroke="#78B991" stroke-width="1.3" stroke-miterlimit="10" stroke-linecap="round"/>
<path d="M17.1355 14.1523C16.4284 15.102 16 16.2736 16 17.5485C16 18.8233 16.4232 19.9949 17.1355 20.9446C17.7239 19.9485 18.0645 18.7923 18.0645 17.5485C18.0645 17.1872 18.0335 16.8311 17.9768 16.4852" stroke="#78B991" stroke-width="1.3" stroke-miterlimit="10" stroke-linecap="round"/>
<path d="M21.0912 9.29016L19.0938 7.22565L20.126 5.16113H21.6744" stroke="#78B991" stroke-width="1.3" stroke-miterlimit="10" stroke-linecap="round"/>
<path d="M22.259 9.29016L24.2564 7.22565L23.2242 5.16113H21.6758" stroke="#78B991" stroke-width="1.3" stroke-miterlimit="10" stroke-linecap="round"/>
</svg>
