<svg width="32" height="33" viewBox="0 0 32 33" fill="none" xmlns="http://www.w3.org/2000/svg">
<path d="M15.8203 0V6.19355" stroke="#E29482" stroke-width="1.3" stroke-miterlimit="10"/>
<path d="M18.4035 2.58105H13.2422" stroke="#E29482" stroke-width="1.3" stroke-miterlimit="10"/>
<path d="M8.59766 11.8708L15.8235 6.19336" stroke="#E29482" stroke-width="1.3" stroke-miterlimit="10" stroke-linecap="round"/>
<path d="M23.0461 11.8708L15.8203 6.19336" stroke="#E29482" stroke-width="1.3" stroke-miterlimit="10" stroke-linecap="round"/>
<path d="M10.6613 12.9033V17.5485L5.5 22.1936" stroke="#E29482" stroke-width="1.3" stroke-miterlimit="10" stroke-linecap="round"/>
<path d="M20.9844 10.3223V17.5481L26.1457 22.1932" stroke="#E29482" stroke-width="1.3" stroke-miterlimit="10" stroke-linecap="round"/>
<path d="M15.8223 14.9679C16.9625 14.9679 17.8868 14.0436 17.8868 12.9034C17.8868 11.7632 16.9625 10.8389 15.8223 10.8389C14.6821 10.8389 13.7578 11.7632 13.7578 12.9034C13.7578 14.0436 14.6821 14.9679 15.8223 14.9679Z" stroke="#E29482" stroke-width="1.3" stroke-miterlimit="10"/>
<path d="M13.2399 24.774V31.4837H7.5625V23.2256" stroke="#E29482" stroke-width="1.3" stroke-miterlimit="10" stroke-linecap="round"/>
<path d="M24.0798 20.1289V31.4837H18.4023V24.7741" stroke="#E29482" stroke-width="1.3" stroke-miterlimit="10"/>
<path d="M13.2422 24.774C13.2422 23.3495 14.3983 22.1934 15.8228 22.1934C17.2473 22.1934 18.4035 23.3495 18.4035 24.774" stroke="#E29482" stroke-width="1.3" stroke-miterlimit="10"/>
</svg>
