<svg width="32" height="33" viewBox="0 0 32 33" fill="none" xmlns="http://www.w3.org/2000/svg">
<path d="M12 3.43539C12 4.71539 11.165 7.15039 9.5 7.15039C7.835 7.15039 7 4.72039 7 3.43539C7 1.58039 8.35 0.650391 9.5 0.650391C10.65 0.650391 12 1.58039 12 3.43539Z" stroke="#78B991" stroke-width="1.3" stroke-linecap="round" stroke-linejoin="round"/>
<path d="M7 3.65039C7 3.65039 9 3.65039 10 2.65039C11 3.65039 12 3.15039 12 3.15039" stroke="#78B991" stroke-width="1.3" stroke-linecap="round" stroke-linejoin="round"/>
<path d="M20 6.15039C20 6.15039 22 6.15039 23 5.15039C24 6.15039 25 5.65039 25 5.65039" stroke="#78B991" stroke-width="1.3" stroke-linecap="round" stroke-linejoin="round"/>
<path d="M9.5 14.6504L12 8.65039H12.5C13.605 8.65039 14.5 9.54539 14.5 10.6504V17.9854C14.5 18.4204 14.36 18.8404 14.1 19.1854L13 20.6504L12 31.1504H9.5" stroke="#78B991" stroke-width="1.3" stroke-linecap="round" stroke-linejoin="round"/>
<path d="M9.5 31.1504H7L6 20.6504L4.89999 19.1854C4.63999 18.8404 4.5 18.4204 4.5 17.9854V10.6504C4.5 9.54539 5.395 8.65039 6.5 8.65039H7L9.5 14.6504" stroke="#78B991" stroke-width="1.3" stroke-linecap="round" stroke-linejoin="round"/>
<path d="M8 11.6504L9.5 10.1504L11 11.6504" stroke="#78B991" stroke-width="1.3" stroke-linejoin="round"/>
<path d="M12 8.65039L9.5 9.15039L7 8.65039" stroke="#78B991" stroke-width="1.3" stroke-linecap="round" stroke-linejoin="round"/>
<circle cx="9.5" cy="16.1504" r="0.5" fill="#78B991"/>
<circle cx="9.5" cy="18.1504" r="0.5" fill="#78B991"/>
<circle cx="9.5" cy="20.1504" r="0.5" fill="#78B991"/>
<path d="M23.4037 3.34039C23.1037 3.21539 22.7937 3.15039 22.4987 3.15039C22.2037 3.15039 21.8887 3.21539 21.5938 3.34039" stroke="#78B991" stroke-width="1.3" stroke-linecap="round" stroke-linejoin="round"/>
<path d="M21.595 3.34082C20.745 3.69582 20 4.56082 20 5.94082C20 7.22082 20.835 9.65582 22.5 9.65582C24.165 9.65582 25 7.22582 25 5.94082C25 4.56582 24.26 3.70082 23.405 3.34082" stroke="#78B991" stroke-width="1.3" stroke-linecap="round" stroke-linejoin="round"/>
<path d="M23.405 3.34039C23.765 3.06539 24 2.64039 24 2.15039C24 1.32039 23.33 0.650391 22.5 0.650391C21.67 0.650391 21 1.32039 21 2.15039C21 2.63539 21.235 3.06539 21.595 3.34039" stroke="#78B991" stroke-width="1.3" stroke-linecap="round" stroke-linejoin="round"/>
<path d="M17 30.1504C17.5 28.6504 17.5 26.6504 17.5 23.6504C17.5 19.6504 20.5 18.1504 20.5 18.1504C20.5 18.1504 20.01 17.3354 19.59 16.2654C19.275 15.4604 19 14.5104 19 13.6504C19 12.6504 19.5 11.1504 21 11.1504C21.5 11.1504 22.5 12.6504 22.5 12.6504" stroke="#78B991" stroke-width="1.3" stroke-linecap="round" stroke-linejoin="round"/>
<path d="M28 30.1504C27.5 28.6504 27.5 26.6504 27.5 23.6504C27.5 19.6504 24.5 18.1504 24.5 18.1504C24.5 18.1504 24.99 17.3354 25.41 16.2654C25.725 15.4604 26 14.5104 26 13.6504C26 12.6504 25.5 11.1504 24 11.1504C23.5 11.1504 22.5 12.6504 22.5 12.6504" stroke="#78B991" stroke-width="1.3" stroke-linecap="round" stroke-linejoin="round"/>
<path d="M20.8339 25.6504C20.8339 26.2004 20.0889 26.6504 19.1689 26.6504C18.2489 26.6504 17.5039 26.2004 17.5039 25.6504" stroke="#78B991" stroke-width="1.3" stroke-linecap="round" stroke-linejoin="round"/>
<path d="M24.1659 25.6504C24.1659 26.2004 23.4209 26.6504 22.5009 26.6504C21.5809 26.6504 20.8359 26.2004 20.8359 25.6504" stroke="#78B991" stroke-width="1.3" stroke-linecap="round" stroke-linejoin="round"/>
<path d="M27.5019 25.6504C27.5019 26.2004 26.7569 26.6504 25.8369 26.6504C24.9169 26.6504 24.1719 26.2004 24.1719 25.6504" stroke="#78B991" stroke-width="1.3" stroke-linecap="round" stroke-linejoin="round"/>
<path d="M20.6661 30.1504C20.6661 30.7004 19.8461 31.1504 18.8311 31.1504C17.8161 31.1504 16.9961 30.7004 16.9961 30.1504" stroke="#78B991" stroke-width="1.3" stroke-linecap="round" stroke-linejoin="round"/>
<path d="M24.3341 30.1504C24.3341 30.7004 23.5141 31.1504 22.4991 31.1504C21.4841 31.1504 20.6641 30.7004 20.6641 30.1504" stroke="#78B991" stroke-width="1.3" stroke-linecap="round" stroke-linejoin="round"/>
<path d="M27.9981 30.1504C27.9981 30.7004 27.1781 31.1504 26.1631 31.1504C25.1481 31.1504 24.3281 30.7004 24.3281 30.1504" stroke="#78B991" stroke-width="1.3" stroke-linecap="round" stroke-linejoin="round"/>
</svg>
