<svg width="32" height="32" viewBox="0 0 32 32" fill="none" xmlns="http://www.w3.org/2000/svg">
<g clip-path="url(#clip0_2120_12013)">
<path d="M25.6313 27.6764H0.666667C0.489856 27.6764 0.320286 27.6061 0.195262 27.4811C0.0702379 27.3561 0 27.1865 0 27.0097V12.7204C0 12.5436 0.0702379 12.374 0.195262 12.249C0.320286 12.1239 0.489856 12.0537 0.666667 12.0537H25.6313C25.8081 12.0537 25.9777 12.1239 26.1027 12.249C26.2278 12.374 26.298 12.5436 26.298 12.7204V27.0097C26.298 27.1865 26.2278 27.3561 26.1027 27.4811C25.9777 27.6061 25.8081 27.6764 25.6313 27.6764ZM1.33333 26.343H24.9647V13.387H1.33333V26.343Z" fill="#CF84B7"/>
<path d="M21.3335 25.6569H4.96888C4.79206 25.6569 4.62249 25.5866 4.49747 25.4616C4.37245 25.3366 4.30221 25.167 4.30221 24.9902C4.30168 24.6354 4.16045 24.2953 3.9095 24.0445C3.65854 23.7936 3.31835 23.6526 2.96354 23.6522C2.78673 23.6522 2.61716 23.582 2.49214 23.457C2.36711 23.3319 2.29688 23.1624 2.29688 22.9856V16.7462C2.29688 16.5694 2.36711 16.3998 2.49214 16.2748C2.61716 16.1498 2.78673 16.0796 2.96354 16.0796C3.31842 16.079 3.6586 15.9378 3.90954 15.6869C4.16047 15.4359 4.30168 15.0958 4.30221 14.7409C4.30221 14.5641 4.37245 14.3945 4.49747 14.2695C4.62249 14.1445 4.79206 14.0742 4.96888 14.0742H21.3335C21.5104 14.0742 21.6799 14.1445 21.8049 14.2695C21.93 14.3945 22.0002 14.5641 22.0002 14.7409C22.0006 15.0949 22.141 15.4344 22.3908 15.6852C22.6406 15.936 22.9795 16.0778 23.3335 16.0796C23.5104 16.0796 23.6799 16.1498 23.8049 16.2748C23.93 16.3998 24.0002 16.5694 24.0002 16.7462V22.9856C24.0002 23.1624 23.93 23.3319 23.8049 23.457C23.6799 23.582 23.5104 23.6522 23.3335 23.6522C22.9788 23.6526 22.6387 23.7937 22.3878 24.0445C22.137 24.2953 21.9959 24.6355 21.9955 24.9902C21.9955 25.1662 21.926 25.3351 21.8019 25.46C21.6779 25.5849 21.5095 25.6557 21.3335 25.6569ZM5.55421 24.3236H20.7542C20.8734 23.862 21.1135 23.4405 21.4496 23.1024C21.7858 22.7644 22.206 22.522 22.6669 22.4002V17.3282C22.2047 17.208 21.7831 16.9667 21.4454 16.629C21.1078 16.2914 20.8664 15.8697 20.7462 15.4076H5.55088C5.43082 15.8698 5.18949 16.2915 4.85182 16.6292C4.51415 16.9668 4.09241 17.2082 3.63021 17.3282V22.4002C4.09267 22.5206 4.51456 22.7624 4.85224 23.1006C5.18992 23.4387 5.43111 23.8609 5.55088 24.3236H5.55421Z" fill="#CF84B7"/>
<path d="M13.148 23.5398C12.4211 23.5399 11.7105 23.3245 11.1061 22.9207C10.5017 22.5169 10.0306 21.943 9.75244 21.2715C9.47425 20.6 9.40146 19.861 9.54328 19.1481C9.6851 18.4352 10.0352 17.7804 10.5492 17.2665C11.0632 16.7526 11.7181 16.4026 12.431 16.2609C13.1439 16.1192 13.8829 16.1922 14.5543 16.4705C15.2258 16.7488 15.7997 17.22 16.2033 17.8245C16.6069 18.4289 16.8223 19.1396 16.822 19.8664C16.8204 20.8403 16.4328 21.7738 15.7441 22.4624C15.0554 23.1509 14.1218 23.5384 13.148 23.5398ZM13.148 17.5244C12.6849 17.5243 12.2322 17.6615 11.8471 17.9186C11.462 18.1758 11.1618 18.5414 10.9845 18.9692C10.8071 19.3969 10.7606 19.8677 10.8508 20.3219C10.9411 20.7761 11.1639 21.1933 11.4913 21.5209C11.8186 21.8484 12.2358 22.0715 12.6899 22.162C13.144 22.2525 13.6148 22.2062 14.0427 22.0291C14.4706 21.852 14.8363 21.5521 15.0937 21.1671C15.3511 20.7821 15.4885 20.3295 15.4887 19.8664C15.4883 19.2456 15.2416 18.6503 14.8028 18.2112C14.3639 17.7722 13.7688 17.5251 13.148 17.5244Z" fill="#CF84B7"/>
<path d="M27.2126 23.8581C27.0416 23.8582 26.877 23.7924 26.7531 23.6746C26.6291 23.5567 26.5552 23.3957 26.5467 23.2248C26.5381 23.054 26.5955 22.8864 26.7071 22.7567C26.8186 22.6271 26.9757 22.5452 27.1459 22.5281L27.9153 22.4475L26.5619 9.5628L5.09993 11.8161C4.924 11.8346 4.74794 11.7824 4.61048 11.6711C4.47302 11.5598 4.38541 11.3984 4.36693 11.2225C4.34846 11.0465 4.40062 10.8705 4.51196 10.733C4.62329 10.5956 4.78467 10.5079 4.9606 10.4895L27.0833 8.1668C27.1704 8.15756 27.2585 8.16559 27.3425 8.19041C27.4265 8.21523 27.5048 8.25638 27.5729 8.31148C27.641 8.36658 27.6976 8.43457 27.7394 8.51155C27.7812 8.58854 27.8074 8.67301 27.8166 8.76014L29.3093 22.9715C29.3185 23.0586 29.3105 23.1467 29.2857 23.2307C29.2608 23.3147 29.2197 23.393 29.1646 23.4611C29.1095 23.5292 29.0415 23.5858 28.9645 23.6276C28.8875 23.6694 28.8031 23.6957 28.7159 23.7048L27.2833 23.8555C27.2593 23.8568 27.2359 23.8581 27.2126 23.8581Z" fill="#CF84B7"/>
<path d="M30.2457 19.8985C30.0799 19.8984 29.9201 19.8364 29.7975 19.7248C29.6749 19.6132 29.5983 19.4599 29.5826 19.2948C29.567 19.1297 29.6134 18.9648 29.7128 18.8321C29.8122 18.6994 29.9576 18.6085 30.1204 18.5772L30.5544 18.4939L28.1131 5.76985L7.21905 9.77785C7.04516 9.81118 6.86515 9.77407 6.71862 9.67467C6.57209 9.57528 6.47105 9.42175 6.43772 9.24785C6.40439 9.07396 6.4415 8.89395 6.5409 8.74742C6.64029 8.60089 6.79382 8.49985 6.96772 8.46652L28.5171 4.33319C28.6906 4.29996 28.8702 4.33698 29.0165 4.4361C29.1627 4.53523 29.2636 4.68836 29.2971 4.86185L31.9891 18.8959C32.0223 19.0695 31.9852 19.2492 31.8859 19.3955C31.7866 19.5417 31.6333 19.6426 31.4597 19.6759L30.3717 19.8845C30.3302 19.8931 30.2881 19.8978 30.2457 19.8985Z" fill="#CF84B7"/>
</g>
<defs>
<clipPath id="clip0_2120_12013">
<rect width="32" height="32" fill="white"/>
</clipPath>
</defs>
</svg>
