<svg width="179" height="14" viewBox="0 0 179 14" fill="none" xmlns="http://www.w3.org/2000/svg">
<path d="M1.5 1L6.5 13" stroke="#42382B" stroke-linecap="round" stroke-linejoin="round"/>
<path d="M0.5 8L4.5 13" stroke="#42382B" stroke-linecap="round" stroke-linejoin="round"/>
<path d="M15.16 4.344H16.768C17.332 4.344 17.512 4.308 17.668 4.212C17.716 4.176 17.776 4.152 17.836 4.152C17.932 4.152 18.028 4.2 18.1 4.272C18.34 4.452 18.688 4.764 18.904 5.016C18.964 5.076 18.988 5.136 18.988 5.196C18.988 5.292 18.94 5.376 18.868 5.46C18.712 5.616 18.664 5.844 18.604 6.048C18.232 7.284 17.8 8.496 17.092 9.576C16.396 10.656 15.208 11.796 13.996 12.516C13.924 12.564 13.864 12.588 13.804 12.588C13.72 12.588 13.648 12.54 13.552 12.468C13.18 12.216 12.832 12.072 12.352 11.928C14.044 10.992 14.98 10.164 15.784 8.94C16.456 7.92 16.876 6.876 17.176 5.592H11.956V6.6C11.956 7.08 11.98 7.572 11.992 8.052C11.992 8.244 11.956 8.28 11.8 8.28C11.44 8.304 11.056 8.304 10.696 8.28C10.54 8.28 10.504 8.244 10.504 8.1C10.516 7.488 10.528 7.092 10.528 6.612V5.64C10.528 5.256 10.528 4.824 10.504 4.476C10.492 4.368 10.564 4.32 10.672 4.32C11.236 4.344 11.896 4.356 12.496 4.356H13.72V3.888C13.72 3.252 13.72 2.76 13.6 2.292C14.188 2.34 14.752 2.4 15.088 2.472C15.328 2.52 15.4 2.652 15.304 2.844C15.244 3.012 15.16 3.264 15.16 3.768V4.344ZM27.3367 7.5V10.536H28.6087C29.2207 10.536 29.8927 10.524 30.5407 10.488C30.6487 10.488 30.6967 10.56 30.7087 10.716C30.7207 10.968 30.7207 11.232 30.7087 11.484C30.6967 11.64 30.6487 11.712 30.5047 11.7C29.8807 11.7 29.1727 11.676 28.6207 11.676H24.8527C24.1327 11.676 23.5927 11.7 23.0887 11.724C22.9447 11.724 22.8847 11.652 22.8607 11.472C22.8247 11.28 22.8007 10.992 22.8007 10.5C23.4967 10.548 24.0847 10.548 24.8527 10.548H26.0527V7.512H25.3927C24.9007 7.512 24.4687 7.512 23.9167 7.524C23.8087 7.536 23.7487 7.464 23.7247 7.284C23.6887 7.08 23.6767 6.756 23.6527 6.324C24.1687 6.372 24.8047 6.372 25.3207 6.372H27.9847C28.5247 6.372 29.0767 6.348 29.6047 6.348C29.7487 6.336 29.7847 6.408 29.7967 6.552C29.8087 6.792 29.8087 7.056 29.7967 7.296C29.7847 7.488 29.7367 7.536 29.5567 7.524C29.0887 7.524 28.4887 7.5 27.9967 7.5H27.3367ZM42.2407 2.664L42.9247 2.28C42.9847 2.244 43.0327 2.256 43.0927 2.316C43.4407 2.64 43.8247 3.168 44.1127 3.708C44.1487 3.78 44.1487 3.84 44.0527 3.9L43.5127 4.224C43.4287 4.272 43.3687 4.248 43.3207 4.164C43.0087 3.576 42.6727 3.084 42.2407 2.664ZM43.4167 1.98L44.0647 1.608C44.1367 1.56 44.1727 1.584 44.2327 1.644C44.6407 2.028 45.0247 2.544 45.2527 2.988C45.2887 3.06 45.3007 3.132 45.1927 3.204L44.6887 3.528C44.5807 3.588 44.5207 3.54 44.4847 3.468C44.2087 2.928 43.8727 2.436 43.4167 1.98ZM39.9727 4.368H37.7647C37.2127 4.368 36.7327 4.392 36.0607 4.416C35.9047 4.416 35.8687 4.356 35.8567 4.212C35.8207 3.924 35.8087 3.492 35.7727 3.06C36.6127 3.108 37.2247 3.12 37.7647 3.12H39.9727C40.6447 3.12 41.4007 3.108 42.0007 3.072C42.1207 3.072 42.1447 3.144 42.1447 3.3C42.1687 3.588 42.1687 3.888 42.1447 4.176C42.1447 4.344 42.1207 4.404 41.9887 4.404C41.3407 4.38 40.6327 4.368 39.9727 4.368ZM41.7487 7.152H40.1407C40.0687 8.496 39.9007 9.3 39.4327 10.212C38.9527 11.148 38.0887 12.024 37.3207 12.48C37.1887 12.564 37.0687 12.624 36.9607 12.624C36.8767 12.624 36.7927 12.588 36.7087 12.504C36.4687 12.264 36.0607 12.024 35.6407 11.868C36.8167 11.232 37.5247 10.644 38.0287 9.732C38.4727 8.94 38.5927 8.292 38.6407 7.152H36.3607C35.7607 7.152 35.1727 7.188 34.5607 7.224C34.4527 7.236 34.4167 7.152 34.4047 6.996C34.3447 6.66 34.3087 6.204 34.3087 5.844C34.9807 5.904 35.6527 5.904 36.3487 5.904H41.7367C42.6727 5.904 43.3687 5.88 44.0767 5.832C44.1967 5.832 44.2087 5.904 44.2087 6.072C44.2207 6.228 44.2207 6.84 44.2087 6.996C44.2087 7.152 44.1367 7.2 44.0287 7.2C43.4047 7.176 42.5767 7.152 41.7487 7.152ZM52.0438 7.356V10.428C52.0438 11.004 52.0678 11.772 52.0798 12.384C52.0918 12.528 52.0198 12.588 51.8758 12.6C51.5638 12.624 51.2158 12.624 50.9038 12.6C50.7718 12.588 50.6998 12.528 50.7118 12.384C50.7238 11.7 50.7478 11.1 50.7478 10.464V8.412C49.9318 9.096 48.8758 9.828 48.2638 10.14C48.2158 10.176 48.1558 10.188 48.1078 10.188C48.0238 10.188 47.9278 10.14 47.8678 10.068C47.6518 9.816 47.3278 9.576 47.0038 9.468C48.8878 8.484 50.5198 7.224 51.9838 5.568C52.2598 5.244 52.4638 4.944 52.6198 4.536C53.0278 4.776 53.5318 5.088 53.7238 5.256C53.8078 5.328 53.8558 5.412 53.8558 5.472C53.8558 5.556 53.7958 5.64 53.6758 5.7C53.5198 5.784 53.2438 6.072 53.1358 6.192C52.8238 6.552 52.4638 6.948 52.0438 7.356ZM59.1838 4.524C59.4478 4.2 59.7958 3.828 60.0238 3.588C60.0718 3.528 60.1318 3.492 60.1918 3.492C60.2398 3.492 60.2878 3.516 60.3478 3.552C60.9598 3.876 61.9558 4.608 62.6398 5.256C62.7118 5.328 62.7478 5.376 62.7478 5.424C62.7478 5.472 62.7238 5.52 62.6758 5.58C62.4958 5.82 62.0998 6.3 61.9318 6.48C61.8718 6.54 61.8358 6.576 61.7878 6.576C61.7398 6.576 61.6918 6.54 61.6318 6.48C60.9118 5.736 60.0478 5.052 59.1838 4.524ZM59.4478 10.512C60.0598 10.344 60.4318 10.236 61.0678 9.912C62.5318 9.156 63.3118 8.652 64.5238 7.68C65.9878 6.492 66.7918 5.724 67.8118 4.416C67.8838 5.016 67.9918 5.424 68.1478 5.82C68.1838 5.904 68.2078 5.976 68.2078 6.048C68.2078 6.156 68.1478 6.252 68.0158 6.408C67.3798 7.152 66.3478 8.112 65.2558 8.952C64.2598 9.732 63.2518 10.404 61.6318 11.304C61.0918 11.628 60.9358 11.748 60.8278 11.856C60.7558 11.928 60.6838 11.976 60.6118 11.976C60.5518 11.976 60.4798 11.928 60.4078 11.844C60.1078 11.508 59.7358 11.016 59.4478 10.512ZM75.9478 4.44L78.1078 4.392C78.4198 4.38 78.5758 4.332 78.7078 4.248C78.7558 4.212 78.8038 4.2 78.8638 4.2C78.9238 4.2 78.9838 4.224 79.0558 4.272C79.3558 4.464 79.6318 4.692 79.8718 4.92C79.9798 5.016 80.0278 5.112 80.0278 5.196C80.0278 5.292 79.9678 5.376 79.8838 5.448C79.7158 5.58 79.5958 5.748 79.4878 5.964C78.6838 7.596 77.9158 8.76 77.1118 9.672C76.0798 10.836 74.6518 12 73.4638 12.66C73.3918 12.708 73.3318 12.72 73.2718 12.72C73.1758 12.72 73.0918 12.672 72.9958 12.588C72.6958 12.348 72.3238 12.168 71.8558 12.036C73.7278 11.004 74.6758 10.248 75.8518 8.976C76.7998 7.92 77.3518 7.104 78.0718 5.568L75.1678 5.652C74.1838 6.864 73.5838 7.548 72.8998 8.112C72.8158 8.196 72.7318 8.244 72.6478 8.244C72.5878 8.244 72.5278 8.22 72.4678 8.172C72.1678 7.956 71.7238 7.74 71.3158 7.656C72.8758 6.384 73.7998 5.268 74.5438 4.092C74.9398 3.42 75.1198 3.048 75.2518 2.472C75.9358 2.712 76.3918 2.916 76.6558 3.108C76.7398 3.168 76.7758 3.24 76.7758 3.312C76.7758 3.384 76.7398 3.456 76.6438 3.516C76.5238 3.588 76.4398 3.72 76.3438 3.84C76.2118 4.044 76.0918 4.224 75.9478 4.44ZM78.9598 3.216L79.5958 2.772C79.6558 2.724 79.7038 2.736 79.7758 2.796C80.1478 3.084 80.5798 3.564 80.9158 4.08C80.9638 4.152 80.9638 4.212 80.8798 4.272L80.3758 4.644C80.2918 4.704 80.2318 4.692 80.1718 4.608C79.8118 4.056 79.4278 3.6 78.9598 3.216ZM80.0638 2.424L80.6638 1.992C80.7358 1.944 80.7718 1.956 80.8438 2.016C81.2878 2.352 81.7198 2.832 81.9838 3.252C82.0318 3.324 82.0438 3.396 81.9478 3.468L81.4678 3.84C81.3718 3.912 81.3118 3.876 81.2638 3.804C80.9398 3.288 80.5558 2.832 80.0638 2.424ZM89.5918 4.644H89.5438C89.2678 6.684 88.7638 8.556 88.0438 9.816C87.5278 10.716 86.9038 11.196 86.0038 11.196C84.9478 11.196 83.8798 10.068 83.8798 8.112C83.8798 6.96 84.3718 5.856 85.2358 4.992C86.2438 3.984 87.5158 3.456 89.1358 3.456C92.0158 3.456 93.7078 5.232 93.7078 7.62C93.7078 9.852 92.4478 11.256 90.0118 11.988C89.7598 12.06 89.6518 12.012 89.4958 11.772C89.3638 11.568 89.1118 11.292 88.6558 11.016C90.6838 10.536 92.2798 9.696 92.2798 7.428C92.2798 6 91.1998 4.644 89.5918 4.644ZM88.1518 4.716C87.3118 4.884 86.6398 5.22 86.0998 5.808C85.5238 6.456 85.1638 7.26 85.1638 8.028C85.1638 9.132 85.6078 9.744 85.9798 9.744C86.2918 9.744 86.5558 9.588 86.8798 9.012C87.4078 8.04 87.9478 6.312 88.1518 4.716ZM101.772 6.348C102.288 5.556 102.564 5.016 102.924 4.224C103.188 3.6 103.284 3.312 103.38 2.748C103.98 2.964 104.604 3.264 104.892 3.504C104.976 3.564 105.012 3.636 105.012 3.708C105.012 3.804 104.964 3.9 104.88 3.972C104.712 4.116 104.616 4.272 104.34 4.776C103.884 5.652 103.44 6.468 102.972 7.152C103.644 7.68 103.968 7.98 104.736 8.784C104.784 8.844 104.808 8.892 104.808 8.952C104.808 9 104.784 9.048 104.748 9.108C104.508 9.42 104.268 9.684 104.016 9.96C103.968 10.02 103.92 10.044 103.872 10.044C103.812 10.044 103.764 10.008 103.704 9.936C103.14 9.264 102.66 8.796 102.132 8.352C100.764 10.068 99.4198 11.244 98.0278 12.096C97.9318 12.156 97.8358 12.192 97.7518 12.192C97.6678 12.192 97.5958 12.168 97.5238 12.108C97.1758 11.82 96.7918 11.556 96.4438 11.448C98.3158 10.356 99.6238 9.24 100.968 7.512C100.212 6.948 99.6118 6.564 98.6278 6.084C98.9758 5.64 99.2638 5.268 99.4198 5.1C99.4558 5.064 99.4918 5.04 99.5398 5.04C99.5878 5.04 99.6358 5.064 99.6838 5.088C100.308 5.4 101.064 5.856 101.772 6.348ZM115.344 5.784V9.756C115.344 10.584 115.356 11.292 115.38 12.252C115.392 12.408 115.332 12.456 115.2 12.456C114.816 12.48 114.384 12.48 114 12.456C113.868 12.456 113.82 12.408 113.832 12.264C113.844 11.4 113.88 10.62 113.88 9.804V7.008C112.824 7.896 111.54 8.808 110.58 9.312C110.52 9.348 110.46 9.36 110.4 9.36C110.304 9.36 110.232 9.324 110.148 9.24C109.872 8.964 109.476 8.724 109.116 8.532C110.772 7.68 111.792 6.984 112.896 6.072C113.844 5.292 114.708 4.452 115.452 3.564C115.86 3.084 116.016 2.844 116.208 2.328C116.748 2.628 117.276 2.952 117.54 3.168C117.612 3.216 117.636 3.288 117.636 3.348C117.636 3.444 117.564 3.552 117.468 3.612C117.264 3.744 117.072 3.924 116.748 4.272C116.28 4.836 115.836 5.304 115.344 5.784ZM122.184 4.524C122.448 4.2 122.796 3.828 123.024 3.588C123.072 3.528 123.132 3.492 123.192 3.492C123.24 3.492 123.288 3.516 123.348 3.552C123.96 3.876 124.956 4.608 125.64 5.256C125.712 5.328 125.748 5.376 125.748 5.424C125.748 5.472 125.724 5.52 125.676 5.58C125.496 5.82 125.1 6.3 124.932 6.48C124.872 6.54 124.836 6.576 124.788 6.576C124.74 6.576 124.692 6.54 124.632 6.48C123.912 5.736 123.048 5.052 122.184 4.524ZM122.448 10.512C123.06 10.344 123.432 10.236 124.068 9.912C125.532 9.156 126.312 8.652 127.524 7.68C128.988 6.492 129.792 5.724 130.812 4.416C130.884 5.016 130.992 5.424 131.148 5.82C131.184 5.904 131.208 5.976 131.208 6.048C131.208 6.156 131.148 6.252 131.016 6.408C130.38 7.152 129.348 8.112 128.256 8.952C127.26 9.732 126.252 10.404 124.632 11.304C124.092 11.628 123.936 11.748 123.828 11.856C123.756 11.928 123.684 11.976 123.612 11.976C123.552 11.976 123.48 11.928 123.408 11.844C123.108 11.508 122.736 11.016 122.448 10.512ZM139.812 5.484V9.576H141.528C142.332 9.576 143.136 9.552 143.952 9.528C144.084 9.516 144.144 9.576 144.144 9.72C144.156 10.032 144.156 10.368 144.144 10.68C144.144 10.836 144.108 10.896 143.964 10.896C143.388 10.872 142.32 10.848 141.54 10.848H136.716C136.224 10.848 135.444 10.884 134.508 10.896C134.316 10.908 134.292 10.86 134.256 10.656C134.208 10.392 134.172 9.96 134.172 9.528C135.036 9.576 135.948 9.588 136.716 9.588H138.348V5.484H137.412C136.548 5.484 136.044 5.508 135.552 5.532C135.408 5.544 135.384 5.46 135.348 5.28C135.3 5.04 135.252 4.572 135.252 4.164C135.852 4.224 136.332 4.212 137.328 4.212H140.724C141.456 4.212 142.116 4.212 142.824 4.176C142.944 4.164 142.98 4.236 142.98 4.368C142.992 4.668 142.992 5.004 142.98 5.304C142.968 5.46 142.944 5.532 142.812 5.532C142.008 5.496 141.42 5.484 140.748 5.484H139.812ZM148.944 6.84V4.488C148.944 3.66 148.908 3.204 148.812 2.736C149.316 2.796 149.952 2.868 150.3 2.988C150.444 3.024 150.504 3.096 150.504 3.18C150.504 3.24 150.48 3.3 150.456 3.36C150.348 3.588 150.324 3.888 150.324 4.5V6.924C150.324 7.548 150.348 8.016 150.36 8.436C150.36 8.616 150.288 8.676 150.096 8.676H149.136C148.968 8.676 148.896 8.616 148.908 8.472C148.908 8.052 148.944 7.356 148.944 6.84ZM154.596 4.5V6.732C154.596 8.508 154.332 9.696 153.624 10.644C153.036 11.424 151.992 12.156 150.984 12.528C150.888 12.564 150.804 12.588 150.732 12.588C150.636 12.588 150.552 12.552 150.444 12.444C150.156 12.156 149.844 11.928 149.424 11.712C150.708 11.316 151.716 10.752 152.352 9.96C152.904 9.276 153.156 8.28 153.156 6.756V4.488C153.156 3.456 153.132 3.072 153.024 2.532C153.6 2.58 154.176 2.664 154.584 2.796C154.704 2.832 154.752 2.904 154.752 3C154.752 3.06 154.74 3.132 154.704 3.192C154.596 3.444 154.596 3.756 154.596 4.5ZM167.424 4.644H162.24C161.556 4.644 160.824 4.692 160.116 4.74C159.972 4.752 159.924 4.668 159.9 4.56C159.804 4.224 159.732 3.624 159.684 3.264C160.5 3.324 161.16 3.348 162.12 3.348H167.268C167.772 3.348 167.976 3.324 168.096 3.276C168.156 3.252 168.264 3.192 168.324 3.192C168.42 3.192 168.516 3.264 168.6 3.36C168.864 3.588 169.092 3.84 169.32 4.116C169.38 4.188 169.416 4.26 169.416 4.332C169.416 4.428 169.356 4.512 169.248 4.584C169.116 4.68 169.02 4.8 168.924 4.932C168.36 5.784 167.616 6.612 166.812 7.248C166.74 7.32 166.656 7.356 166.56 7.356C166.464 7.356 166.356 7.308 166.272 7.236C165.972 6.996 165.672 6.864 165.276 6.744C166.236 6.024 166.824 5.508 167.424 4.644ZM160.404 11.616C161.712 10.932 162.396 10.284 162.912 9.324C163.368 8.472 163.5 7.656 163.5 6.492C163.5 6.048 163.476 5.772 163.38 5.364C163.968 5.424 164.592 5.508 164.928 5.592C165.084 5.628 165.132 5.712 165.132 5.82C165.132 5.892 165.108 5.964 165.072 6.036C164.988 6.204 164.976 6.324 164.964 6.528C164.928 7.692 164.808 8.76 164.256 9.828C163.788 10.728 163.068 11.58 162.072 12.216C161.964 12.288 161.856 12.336 161.736 12.336C161.652 12.336 161.568 12.3 161.496 12.228C161.208 11.976 160.86 11.784 160.404 11.616Z" fill="#42382B"/>
<path d="M177.5 1L172.5 13" stroke="#42382B" stroke-linecap="round" stroke-linejoin="round"/>
<path d="M178.5 8L174.5 13" stroke="#42382B" stroke-linecap="round" stroke-linejoin="round"/>
</svg>
