<svg width="126" height="40" viewBox="0 0 126 40" fill="none" xmlns="http://www.w3.org/2000/svg">
<g clip-path="url(#clip0_3141_4975)">
<path d="M44.7422 40C41.202 40 38.4324 39.0665 36.4317 37.1994C34.4291 35.3323 33.4297 32.7147 33.4297 29.3466C33.4297 27.247 33.7885 25.3012 34.5097 23.5073C35.2291 21.7134 36.2413 20.1447 37.5483 18.8029C38.8534 17.4612 40.3783 16.4178 42.1245 15.6728C43.869 14.9277 45.7672 14.5562 47.8174 14.5562C50.3288 14.5562 52.6627 15.1419 54.8227 16.3134C54.9032 16.3574 54.9472 16.4471 54.9325 16.5367L54.1051 21.9514C54.0887 22.0557 53.999 22.1344 53.8928 22.1344H53.8617C53.772 22.1344 53.6896 22.0777 53.6585 21.9935L52.3186 18.327C51.9287 17.2049 51.4582 16.4178 50.9091 15.9656C50.3599 15.5153 49.4758 15.2884 48.2549 15.2884C46.375 15.2884 44.7165 15.9052 43.2759 17.1372C41.8353 18.3691 40.7132 20.0531 39.9078 22.1893C39.1024 24.3255 38.6997 26.7601 38.6997 29.493C38.6997 31.5194 38.9743 33.2638 39.5234 34.7282C40.0726 36.1926 40.8102 37.3147 41.7383 38.0963C42.6645 38.878 43.7152 39.2678 44.8868 39.2678C45.5219 39.2678 46.0272 39.1397 46.4061 38.8834C46.7832 38.6272 47.0339 38.1201 47.1566 37.3641L47.3762 36.2292C47.4989 35.4476 47.6453 34.5452 47.8156 33.5201C47.9858 32.495 48.1322 31.5065 48.2549 30.5547C48.4983 29.2605 47.973 28.4075 46.6806 27.992L46.0583 27.7943C45.9539 27.7614 45.8899 27.6552 45.9118 27.5472V27.5435C45.932 27.4428 46.0217 27.3696 46.1242 27.3696H55.6061C55.7416 27.3696 55.8441 27.4941 55.8167 27.6277C55.8038 27.6955 55.7581 27.7522 55.694 27.7815L54.9893 28.1018C54.085 28.4679 53.5359 29.1507 53.3418 30.152L51.7896 38.3489C51.7767 38.4203 51.7273 38.4807 51.6614 38.5082C50.6235 38.9512 49.5783 39.3081 48.5276 39.579C47.4421 39.8591 46.1791 40 44.7385 40H44.7422Z" fill="#3A3A3A"/>
<path d="M60.4839 39.9265C59.6529 39.9265 58.9408 39.6757 58.3423 39.176C57.7437 38.6763 57.4453 37.9258 57.4453 36.9245C57.4453 36.3625 57.5057 35.753 57.6284 35.094C57.751 34.435 57.8846 33.7889 58.0311 33.1537L59.6419 25.9415C59.8616 24.9897 59.5321 24.2941 58.6534 23.8548L58.1501 23.6424C58.0347 23.5948 57.9652 23.4777 57.9762 23.3532C57.9871 23.2361 58.0695 23.1372 58.1812 23.1043L64.7618 21.2243C64.8552 21.1969 64.9577 21.2207 65.0291 21.2847L65.1151 21.3616C65.1938 21.4312 65.2268 21.5374 65.203 21.638L62.6787 32.6759C62.5323 33.2855 62.4096 33.8346 62.3126 34.3234C62.2138 34.8121 62.1662 35.2624 62.1662 35.6779C62.1662 36.2143 62.2888 36.5987 62.5323 36.8312C62.7757 37.0636 63.0942 37.1789 63.4841 37.1789C64.0443 37.1789 64.6666 36.9776 65.3512 36.5749C66.0175 36.1832 66.7882 35.5754 67.6613 34.7535C67.7052 34.7114 67.7345 34.6565 67.7455 34.5979C67.7693 34.4771 67.8004 34.349 67.8389 34.2135L69.0836 28.3193C69.2795 27.3675 69.468 26.4101 69.6511 25.4455C69.8231 24.5394 69.9897 23.626 70.1508 22.7089C70.1691 22.6027 70.2478 22.5148 70.3503 22.4856L74.6483 21.2225C74.738 21.1951 74.8369 21.2152 74.9101 21.2756L75.062 21.4001C75.1444 21.4678 75.1828 21.5776 75.1609 21.682L72.3053 34.8011C72.1094 35.656 72.0124 36.3259 72.0124 36.8147C72.0124 37.3272 72.2321 37.5835 72.6714 37.5835C73.0137 37.5835 73.3798 37.4425 73.7697 37.1625C74.112 36.9154 74.522 36.5602 74.9979 36.0971C75.1096 35.9891 75.289 35.991 75.3988 36.1008L75.4684 36.1703C75.5672 36.2692 75.5819 36.4248 75.5013 36.5364C74.9137 37.362 74.1834 38.1217 73.3139 38.8099C72.3748 39.5549 71.3058 39.9265 70.1105 39.9265C69.3545 39.9265 68.7248 39.6648 68.2251 39.1394C67.7254 38.6141 67.4746 37.8636 67.4746 36.8879C67.4746 36.7854 67.4764 36.6829 67.4801 36.5804C67.4892 36.3223 67.1854 36.1832 66.9987 36.3607C65.9242 37.3803 64.8808 38.2022 63.8685 38.8282C62.6842 39.5604 61.5566 39.9265 60.4821 39.9265H60.4839Z" fill="#3A3A3A"/>
<path d="M81.4241 39.9267C80.7413 39.9267 80.0933 39.7674 79.4838 39.4508C78.8724 39.1341 78.3781 38.6087 78.001 37.8765C77.6221 37.1443 77.4336 36.1797 77.4336 34.9843C77.4336 33.6902 77.6899 32.3905 78.2024 31.0854C78.7149 29.7802 79.3977 28.5355 80.2526 27.3512C81.1074 26.1668 82.0593 25.118 83.1081 24.2027C84.157 23.2875 85.2443 22.5626 86.3664 22.0244C87.4885 21.4881 88.5502 21.219 89.5515 21.219C90.0384 21.219 90.496 21.3105 90.9244 21.4936C91.3124 21.6602 91.6877 21.8835 92.0464 22.1617C92.1105 22.2111 92.1984 22.2258 92.2734 22.1965L95.0064 21.1513C95.0759 21.1257 95.1528 21.133 95.215 21.1714L95.2681 21.2044C95.3523 21.2575 95.3944 21.3581 95.3725 21.4552L92.224 35.3138C92.0519 35.9966 91.9677 36.5586 91.9677 36.9979C91.9677 37.5104 92.2002 37.7667 92.6633 37.7667C93.0056 37.7667 93.401 37.6074 93.8531 37.2908C94.2613 37.0052 94.7245 36.6281 95.2425 36.1614C95.3358 36.0772 95.4786 36.079 95.5665 36.1687C95.6452 36.2474 95.6598 36.37 95.5994 36.4634C95.2516 36.9924 94.8288 37.5068 94.3291 38.0065C93.7799 38.5556 93.1704 39.0133 92.4986 39.3794C91.8268 39.7455 91.1129 39.9285 90.3569 39.9285C89.5277 39.9285 88.8559 39.6777 88.3434 39.178C87.8308 38.6783 87.5745 37.9022 87.5745 36.8533C87.5745 36.738 87.5745 36.6245 87.5782 36.5128C87.5837 36.2968 87.3219 36.1852 87.1737 36.3444C86.328 37.2432 85.442 38.0358 84.5176 38.7222C83.4303 39.5276 82.3997 39.9303 81.4241 39.9303V39.9267ZM81.7536 33.3369C81.7536 34.6311 81.9677 35.5646 82.3942 36.1376C82.8207 36.7105 83.3882 36.9979 84.0966 36.9979C84.6824 36.9979 85.2681 36.8148 85.8539 36.4487C86.425 36.0918 87.04 35.5866 87.7045 34.9276C87.7393 34.8928 87.7631 34.8489 87.7704 34.8013C87.8162 34.5304 87.8747 34.2503 87.9406 33.9593L90.2214 23.5309C90.2379 23.4577 90.2196 23.3808 90.1702 23.3259C89.8682 22.9836 89.5167 22.7456 89.1122 22.6102C88.6728 22.4638 88.2811 22.3905 87.9406 22.3905C86.8918 22.3905 85.7935 23.0129 84.6458 24.2576C83.7433 25.2589 83.0349 26.5769 82.5224 28.2115C82.0098 29.8461 81.7536 31.5558 81.7536 33.3369Z" fill="#3A3A3A"/>
<path d="M101.915 39.7438H97.7136C97.6697 39.7438 97.6257 39.731 97.5891 39.7072L97.4939 39.6468C97.4097 39.5937 97.3677 39.4949 97.3878 39.3979L100.174 25.9035C100.393 24.9278 100.051 24.256 99.1487 23.8899L98.6508 23.641C98.5556 23.5934 98.5044 23.4872 98.5245 23.3829L98.5337 23.3334C98.5502 23.2474 98.6142 23.1778 98.6984 23.1541L105.237 21.221C105.319 21.1973 105.409 21.221 105.471 21.2796L105.612 21.4206C105.667 21.4755 105.693 21.556 105.676 21.6329L105.08 24.7027C105.036 24.9296 105.31 25.0761 105.477 24.915C106.546 23.8753 107.633 23.0259 108.739 22.3688C110.033 21.6 111.241 21.2156 112.363 21.2156C113.145 21.2156 113.791 21.4535 114.303 21.9295C114.816 22.4054 115.072 23.1431 115.072 24.1444C115.072 24.364 115.059 24.5837 115.036 24.8033C115.036 24.8052 115.036 24.807 115.036 24.8107C115.01 25.034 115.281 25.1603 115.438 25.001C116.504 23.9155 117.584 23.0387 118.678 22.3706C119.936 21.6018 121.137 21.2174 122.284 21.2174C123.066 21.2174 123.707 21.4554 124.206 21.9313C124.706 22.4072 124.957 23.1449 124.957 24.1462C124.957 24.6587 124.907 25.1896 124.81 25.7387C124.712 26.2879 124.591 26.8553 124.444 27.4411L122.541 35.2756C122.442 35.6655 122.358 35.995 122.284 36.2641C122.211 36.5331 122.175 36.7638 122.175 36.9597C122.175 37.4722 122.381 37.7285 122.797 37.7285C123.163 37.7285 123.571 37.5765 124.023 37.2708C124.428 36.9981 124.865 36.632 125.339 36.1725C125.433 36.0828 125.581 36.081 125.673 36.1725L125.737 36.2366C125.815 36.3153 125.83 36.4416 125.768 36.535C125.44 37.0201 125.025 37.5088 124.519 38.003C123.957 38.5522 123.306 39.0098 122.561 39.3759C121.816 39.742 120.981 39.9251 120.053 39.9251C119.248 39.9251 118.625 39.7365 118.186 39.3576C117.747 38.9787 117.527 38.4478 117.527 37.7651C117.527 37.2525 117.587 36.7217 117.71 36.1725C117.833 35.6234 117.977 35.0559 118.149 34.4702L119.65 28.2831C119.797 27.6479 119.925 27.0622 120.035 26.5258C120.145 25.9895 120.199 25.5502 120.199 25.2079C120.199 24.353 119.81 23.9265 119.028 23.9265C117.906 23.9265 116.489 24.7685 114.781 26.4526C114.757 26.502 114.739 26.5569 114.726 26.6174C114.715 26.6723 114.71 26.7327 114.708 26.7986C114.708 26.8114 114.708 26.826 114.704 26.8388L113.683 31.578C113.414 32.8722 113.158 34.1645 112.914 35.4586C112.682 36.6924 112.438 38.2666 112.184 39.5535C112.162 39.6633 112.065 39.742 111.951 39.742H107.783C107.739 39.742 107.695 39.7292 107.659 39.7054L107.564 39.645C107.479 39.5919 107.437 39.4931 107.457 39.396L109.877 27.7687C109.974 27.28 110.06 26.8224 110.134 26.3959C110.207 25.9694 110.243 25.5959 110.243 25.2793C110.243 24.4738 109.877 24.0711 109.145 24.0711C107.913 24.0711 106.467 24.8473 104.807 26.3995C104.772 26.4325 104.746 26.4764 104.735 26.5222L103.617 31.5762C103.348 32.8703 103.092 34.1627 102.848 35.4568C102.616 36.6887 102.383 38.263 102.151 39.548C102.131 39.6596 102.032 39.7402 101.918 39.7402L101.915 39.7438Z" fill="#3A3A3A"/>
<path d="M21.4772 38.1697C12.4748 43.6721 1.37287 35.9145 0 26.1872L1.13857 25.7333C8.55391 43.9485 34.4335 34.5196 23.9337 16.1982C23.3882 15.239 22.7824 14.3183 22.2149 13.3683C22.5535 13.2035 22.8885 13.0351 23.2034 12.896C23.52 13.4689 23.8733 14.0346 24.2156 14.5874C29.3904 21.6037 29.8828 33.3976 21.4772 38.1697Z" fill="#3286C0"/>
<path d="M28.6002 8.55961C27.1468 10.4835 24.9502 11.3163 22.8597 12.2462C18.6368 14.2598 14.1338 16.7035 10.837 19.9453C5.27417 25.8981 14.2546 32.0119 19.8998 22.5885C21.0311 20.6519 22.1971 18.7207 23.4711 16.8719C24.3699 18.4242 25.027 20.1192 25.4188 21.8692C24.3424 23.8186 23.4016 25.6528 21.7578 27.3277C18.1444 30.91 11.1501 30.8075 8.2414 26.4179C1.28918 15.5887 17.0497 12.4128 23.7311 8.42782C34.4559 1.08936 23.1746 -3.51251 21.9976 8.58707C21.5052 8.84883 21.0768 9.07215 20.5094 9.34307C16.3688 1.67512 28.0272 -3.87128 29.7955 3.38663C30.2037 5.18052 29.7278 7.11718 28.6002 8.55961Z" fill="#EA966F"/>
<path d="M57.5162 5.00614L57.3039 6.43393C46.039 2.85165 32.5318 7.64023 27.205 18.5628C26.6797 17.34 25.8889 15.9141 25.1055 14.6346C26.7474 12.5258 28.6035 10.5599 30.7489 8.95452C38.1496 3.01823 48.8195 2.01511 57.5162 5.00614Z" fill="#368F8F"/>
<path d="M93.2188 9.00237C93.0669 9.00237 92.9351 8.87972 92.9351 8.72779C92.9351 8.57586 93.0485 8.45322 93.2005 8.45322H93.2188C93.3707 8.45322 93.4934 8.57586 93.4934 8.72779C93.4934 8.87972 93.3707 9.00237 93.2188 9.00237ZM94.6942 8.99322C94.5422 8.99322 94.4104 8.87057 94.4104 8.71864C94.4104 8.56671 94.5239 8.44407 94.6759 8.44407H94.6942C94.8461 8.44407 94.9687 8.56671 94.9687 8.71864C94.9687 8.87057 94.8461 8.99322 94.6942 8.99322ZM96.1769 8.98406C96.0249 8.98406 95.8931 8.86142 95.8931 8.70949C95.8931 8.55756 96.0066 8.43491 96.1586 8.43491H96.1769C96.3288 8.43491 96.4514 8.55756 96.4514 8.70949C96.4514 8.86142 96.3288 8.98406 96.1769 8.98406ZM91.7361 8.99871C91.7361 8.99871 91.7306 8.99871 91.7288 8.99871C91.5787 8.99505 91.4505 8.87057 91.4524 8.72047C91.4542 8.57037 91.5677 8.44956 91.7178 8.44956C91.7196 8.44956 91.7416 8.44956 91.7434 8.44956C91.8953 8.45322 92.0143 8.57952 92.0107 8.73145C92.007 8.87972 91.8844 8.99871 91.7361 8.99871ZM90.2534 8.98406C90.2534 8.98406 90.2479 8.98406 90.2461 8.98406C90.096 8.9804 89.9678 8.85593 89.9697 8.70583C89.9715 8.55573 90.085 8.43491 90.2351 8.43491C90.2369 8.43491 90.2589 8.43491 90.2607 8.43491C90.4126 8.43857 90.5316 8.56488 90.528 8.71681C90.5243 8.86508 90.4017 8.98406 90.2534 8.98406ZM88.7542 8.9566C88.7542 8.9566 88.7487 8.9566 88.7469 8.9566C88.5968 8.95294 88.4686 8.82847 88.4705 8.67837C88.4723 8.52827 88.5858 8.40746 88.7359 8.40746C88.7377 8.40746 88.7597 8.40746 88.7615 8.40746C88.9135 8.41112 89.0324 8.53742 89.0288 8.68935C89.0251 8.83762 88.9025 8.9566 88.7542 8.9566ZM97.6669 8.9566C97.5168 8.9566 97.385 8.83762 97.3832 8.68752C97.3813 8.53742 97.4893 8.41295 97.6394 8.40929C97.6413 8.40929 97.6632 8.40929 97.6651 8.40929C97.817 8.40929 97.9396 8.53193 97.9396 8.68386C97.9396 8.83579 97.817 8.95844 97.6651 8.95844L97.6669 8.9566ZM99.1478 8.92183C98.9995 8.92183 98.8677 8.80467 98.864 8.6564C98.8585 8.50447 98.9684 8.37817 99.1203 8.37451H99.1386C99.2924 8.36719 99.4168 8.488 99.4223 8.63993C99.4278 8.79186 99.3088 8.91816 99.1569 8.92366C99.1551 8.92366 99.1514 8.92366 99.1496 8.92366L99.1478 8.92183ZM87.288 8.92732C87.288 8.92732 87.2825 8.92732 87.2807 8.92732C87.1287 8.92366 87.0006 8.79735 87.0043 8.64542C87.0079 8.49349 87.1306 8.36902 87.277 8.37817H87.2953C87.4472 8.38366 87.5662 8.50996 87.5625 8.66006C87.5589 8.80833 87.4362 8.92732 87.288 8.92732ZM100.63 8.87789C100.482 8.87789 100.35 8.76074 100.347 8.61247C100.341 8.46054 100.451 8.33424 100.603 8.33057H100.621C100.777 8.32508 100.9 8.44407 100.905 8.596C100.911 8.74793 100.792 8.87423 100.64 8.87972C100.638 8.87972 100.634 8.87972 100.632 8.87972L100.63 8.87789ZM102.108 8.82847C101.959 8.82847 101.828 8.71132 101.824 8.56305C101.818 8.41112 101.928 8.28481 102.08 8.28115H102.099C102.254 8.27566 102.377 8.39464 102.382 8.54657C102.388 8.6985 102.269 8.82481 102.117 8.8303C102.115 8.8303 102.111 8.8303 102.11 8.8303L102.108 8.82847ZM85.8071 8.88338C85.8071 8.88338 85.7961 8.88338 85.7906 8.88338C85.6405 8.87423 85.5161 8.74793 85.5234 8.59783C85.5307 8.44773 85.6497 8.32691 85.7961 8.33424C85.798 8.33424 85.8199 8.33424 85.8218 8.33424C85.9737 8.34339 86.089 8.47335 86.0799 8.62345C86.0707 8.76989 85.9499 8.88155 85.8071 8.88155V8.88338ZM84.3244 8.8303C84.3244 8.8303 84.3134 8.8303 84.3079 8.8303C84.1578 8.82115 84.0334 8.69484 84.0407 8.54474C84.0462 8.3983 84.1597 8.28115 84.3061 8.28115C84.3098 8.28115 84.3116 8.28115 84.3134 8.28115C84.3153 8.28115 84.3372 8.28115 84.339 8.28115C84.491 8.2903 84.6063 8.42027 84.5971 8.57037C84.588 8.71681 84.4672 8.82847 84.3244 8.82847V8.8303ZM103.592 8.75708C103.446 8.75708 103.316 8.64176 103.308 8.49532C103.301 8.34522 103.407 8.21891 103.557 8.20976C103.559 8.20976 103.581 8.20976 103.583 8.20976C103.737 8.20061 103.861 8.32508 103.867 8.47518C103.872 8.62712 103.753 8.75342 103.601 8.75891C103.6 8.75891 103.596 8.75891 103.594 8.75891L103.592 8.75708ZM105.073 8.67837C104.928 8.67837 104.798 8.56671 104.789 8.42027C104.78 8.26834 104.886 8.13837 105.038 8.13105H105.057C105.21 8.11824 105.339 8.23539 105.348 8.38732C105.357 8.53925 105.241 8.66922 105.09 8.67837C105.084 8.67837 105.079 8.67837 105.073 8.67837ZM81.3627 8.68752C81.3627 8.68752 81.3517 8.68752 81.3462 8.68752C81.1943 8.67837 81.0698 8.5484 81.0789 8.39647C81.0881 8.24454 81.2126 8.12739 81.359 8.13837H81.3773C81.5292 8.14753 81.6446 8.27749 81.6354 8.42942C81.6263 8.57586 81.5054 8.68752 81.3627 8.68752ZM82.8417 8.75708C82.8417 8.75708 82.8307 8.75708 82.8252 8.75708C82.6733 8.74793 82.5488 8.61796 82.558 8.46603C82.5671 8.3141 82.6916 8.19695 82.838 8.20793H82.8563C83.0083 8.21708 83.1236 8.34705 83.1144 8.49898C83.1053 8.64542 82.9845 8.75708 82.8417 8.75708ZM106.554 8.58867C106.409 8.58867 106.279 8.47701 106.27 8.33057C106.261 8.17864 106.367 8.04868 106.519 8.04136H106.537C106.688 8.03037 106.819 8.1457 106.829 8.29763C106.838 8.44956 106.722 8.57952 106.57 8.58867C106.565 8.58867 106.559 8.58867 106.554 8.58867ZM108.029 8.49898C107.885 8.49898 107.755 8.38732 107.746 8.24088C107.736 8.08895 107.843 7.95898 107.995 7.95166H108.013C108.163 7.94068 108.295 8.056 108.304 8.20793C108.313 8.35986 108.198 8.48983 108.046 8.49898C108.04 8.49898 108.035 8.49898 108.029 8.49898ZM79.8836 8.59783C79.8836 8.59783 79.8671 8.59783 79.8598 8.59783C79.7097 8.58501 79.5889 8.45322 79.5999 8.30495C79.6109 8.15485 79.7317 8.03953 79.88 8.05051C79.8818 8.05051 79.9038 8.05051 79.9056 8.05051C80.0575 8.06332 80.1692 8.19695 80.1564 8.34705C80.1436 8.48983 80.0246 8.59783 79.8836 8.59783ZM109.51 8.37268C109.367 8.37268 109.237 8.26285 109.226 8.12007C109.215 7.96997 109.318 7.84 109.466 7.82719C109.468 7.82719 109.49 7.82719 109.492 7.82536C109.642 7.81254 109.774 7.93153 109.783 8.08346C109.792 8.23539 109.677 8.36535 109.525 8.37451C109.519 8.37451 109.514 8.37451 109.508 8.37451L109.51 8.37268ZM76.9274 8.38183C76.9274 8.38183 76.9109 8.38183 76.9036 8.38183C76.7516 8.36902 76.6308 8.23539 76.6455 8.08346C76.6583 7.93336 76.7791 7.81987 76.9329 7.83268H76.9512C77.1031 7.84732 77.2148 7.98095 77.2019 8.13105C77.1891 8.27383 77.0701 8.38183 76.9292 8.38183H76.9274ZM78.4028 8.50081C78.4028 8.50081 78.3863 8.50081 78.379 8.50081C78.227 8.488 78.1062 8.35437 78.1209 8.20244C78.1337 8.05234 78.2545 7.93885 78.4082 7.95166H78.4265C78.5785 7.96631 78.6901 8.09993 78.6773 8.25003C78.6645 8.39281 78.5455 8.50081 78.4046 8.50081H78.4028ZM110.987 8.24454C110.846 8.24454 110.718 8.13837 110.706 7.99559C110.693 7.84366 110.793 7.71187 110.945 7.69905H110.964C111.116 7.68624 111.247 7.79607 111.262 7.94617C111.275 8.0981 111.165 8.2299 111.013 8.24454C111.006 8.24454 110.997 8.24454 110.989 8.24454H110.987ZM75.4502 8.25552C75.4392 8.25552 75.4282 8.25552 75.4172 8.25369C75.2653 8.24088 75.1481 8.10725 75.1628 7.95532C75.1756 7.80339 75.3037 7.69173 75.4557 7.70455H75.4813C75.6314 7.72468 75.7394 7.86014 75.7229 8.01207C75.7064 8.15119 75.5893 8.25552 75.452 8.25552H75.4502ZM112.444 8.10542C112.304 8.10542 112.185 7.99742 112.172 7.85465C112.159 7.70272 112.269 7.57092 112.421 7.55628H112.432C112.58 7.53614 112.719 7.64414 112.737 7.79607C112.756 7.94617 112.648 8.08346 112.498 8.10176H112.472C112.472 8.10176 112.455 8.10542 112.448 8.10542H112.444ZM73.973 8.11275C73.973 8.11275 73.9565 8.11275 73.9492 8.11275L73.9235 8.10909C73.7734 8.09078 73.6654 7.95532 73.6819 7.80522C73.6984 7.65512 73.8338 7.54529 73.9858 7.5636H73.9967C74.1487 7.57824 74.2603 7.71004 74.2475 7.86197C74.2347 8.00475 74.1157 8.11275 73.9748 8.11275H73.973ZM113.929 7.948C113.792 7.948 113.667 7.84549 113.651 7.70638C113.632 7.55628 113.735 7.41899 113.885 7.40251L113.911 7.39885C114.064 7.38787 114.194 7.49587 114.209 7.6478C114.222 7.79973 114.112 7.93153 113.96 7.94617C113.949 7.94617 113.938 7.948 113.927 7.948H113.929ZM72.4994 7.95532C72.4884 7.95532 72.4774 7.95532 72.4665 7.95349H72.4481C72.298 7.93336 72.19 7.7979 72.2065 7.6478C72.223 7.4977 72.3603 7.38787 72.5104 7.40617H72.5287C72.6788 7.42631 72.7868 7.56177 72.7703 7.71187C72.7538 7.85099 72.6367 7.95532 72.4994 7.95532ZM115.392 7.77593C115.254 7.77593 115.135 7.67343 115.119 7.53431C115.101 7.38421 115.209 7.24692 115.359 7.22862H115.377C115.523 7.20665 115.664 7.31648 115.683 7.46658C115.701 7.61668 115.593 7.75397 115.443 7.77227H115.425C115.414 7.77593 115.403 7.77593 115.392 7.77593ZM71.0277 7.78143C71.0149 7.78143 71.0002 7.78143 70.9874 7.77777C70.8373 7.75946 70.7238 7.624 70.7403 7.47207C70.7568 7.32197 70.8922 7.21214 71.0387 7.23045L71.0643 7.23411C71.2144 7.25607 71.3187 7.39519 71.2968 7.54529C71.2766 7.68258 71.1595 7.7796 71.0259 7.7796L71.0277 7.78143ZM116.872 7.58556C116.737 7.58556 116.616 7.48855 116.596 7.35126C116.574 7.20116 116.673 7.06204 116.823 7.04008L116.849 7.03641C116.997 7.01628 117.136 7.12611 117.154 7.27621C117.173 7.42631 117.065 7.5636 116.915 7.5819C116.902 7.58373 116.887 7.58556 116.874 7.58556H116.872ZM118.337 7.38421C118.201 7.38421 118.081 7.28719 118.06 7.14991C118.038 6.9998 118.137 6.86069 118.287 6.83872L118.313 6.83506C118.461 6.81492 118.6 6.92475 118.619 7.07486C118.637 7.22496 118.529 7.36224 118.379 7.38055C118.366 7.38238 118.351 7.38421 118.339 7.38421H118.337ZM119.801 7.14624C119.666 7.14624 119.545 7.04923 119.525 6.91194C119.503 6.76184 119.602 6.62272 119.752 6.60076L119.777 6.5971C119.926 6.57696 120.065 6.68679 120.083 6.83689C120.101 6.98699 119.993 7.12428 119.843 7.14258C119.831 7.14441 119.816 7.14624 119.803 7.14624H119.801ZM68.0879 7.38238C68.0733 7.38238 68.0604 7.38238 68.0458 7.37872C67.8957 7.35675 67.784 7.2158 67.806 7.0657C67.828 6.9156 67.9561 6.81126 68.108 6.83323C68.108 6.83323 68.1263 6.83689 68.1282 6.83689C68.2783 6.85886 68.3808 6.9998 68.3588 7.14991C68.3387 7.28536 68.2215 7.38421 68.0879 7.38421V7.38238ZM69.5523 7.58556C69.5377 7.58556 69.5248 7.58556 69.5102 7.5819C69.3601 7.55994 69.2484 7.41899 69.2704 7.26889C69.2924 7.11879 69.4205 7.01445 69.5724 7.03641C69.5724 7.03641 69.5907 7.04008 69.5926 7.04008C69.7427 7.06204 69.8452 7.20299 69.8232 7.35309C69.8031 7.48855 69.6859 7.58739 69.5523 7.58739V7.58556ZM66.6235 7.15357C66.6089 7.15357 66.5961 7.15357 66.5814 7.14991L66.5576 7.14624C66.4075 7.12062 66.3087 6.97784 66.3343 6.82774C66.3599 6.67764 66.5027 6.57879 66.6528 6.60442H66.6638C66.8139 6.62821 66.9164 6.76916 66.8944 6.91926C66.8743 7.05472 66.7571 7.15357 66.6235 7.15357ZM121.256 6.90279C121.127 6.90279 121.009 6.80943 120.986 6.67581C120.96 6.52571 121.059 6.38476 121.207 6.3573L121.224 6.35364C121.374 6.32618 121.516 6.42503 121.544 6.5733C121.571 6.72157 121.472 6.86618 121.324 6.89364L121.304 6.8973C121.288 6.90096 121.271 6.90096 121.256 6.90096V6.90279ZM122.721 6.63554C122.591 6.63554 122.474 6.54218 122.45 6.40855C122.424 6.25845 122.523 6.11751 122.671 6.09005L122.688 6.08639C122.838 6.05893 122.981 6.15778 123.008 6.30605C123.036 6.45432 122.937 6.59893 122.789 6.62638L122.768 6.63004C122.752 6.63371 122.736 6.63371 122.721 6.63371V6.63554ZM124.16 6.32435C124.03 6.32435 123.913 6.231 123.889 6.09737C123.863 5.94727 123.962 5.80632 124.11 5.77886L124.127 5.7752C124.277 5.74775 124.42 5.84659 124.447 5.99486C124.475 6.14313 124.376 6.28774 124.227 6.3152L124.207 6.31886C124.191 6.32252 124.174 6.32252 124.16 6.32252V6.32435ZM65.1628 6.90096C65.1463 6.90096 65.1298 6.90096 65.1134 6.8973C64.9633 6.87167 64.8552 6.72706 64.8827 6.57879C64.9083 6.42869 65.042 6.32984 65.1921 6.35364L65.2122 6.3573C65.3605 6.38476 65.4611 6.52754 65.4337 6.67581C65.4099 6.8076 65.2946 6.90096 65.1646 6.90096H65.1628ZM63.6984 6.63554C63.6819 6.63554 63.6654 6.63554 63.649 6.63187C63.4989 6.60625 63.3909 6.46164 63.4183 6.31337C63.4439 6.16327 63.5776 6.06442 63.7277 6.08822L63.7478 6.09188C63.8961 6.11934 63.9967 6.26211 63.9693 6.41038C63.9455 6.54218 63.8302 6.63554 63.7002 6.63554H63.6984ZM62.234 6.30605C62.2175 6.30605 62.201 6.30605 62.1846 6.30239C62.0345 6.27676 61.9265 6.13215 61.9539 5.98388C61.9795 5.83378 62.1132 5.73493 62.2633 5.75873L62.2834 5.76239C62.4317 5.78985 62.5324 5.93263 62.5049 6.0809C62.4811 6.21269 62.3658 6.30605 62.2358 6.30605H62.234ZM60.8117 6.03147C60.7952 6.03147 60.7787 6.03147 60.7623 6.02781C60.6122 6.00218 60.5042 5.85758 60.5316 5.7093C60.5572 5.5592 60.6909 5.46036 60.841 5.48415L60.8611 5.48781C61.0094 5.51527 61.1101 5.65805 61.0826 5.80632C61.0588 5.93812 60.9435 6.03147 60.8135 6.03147H60.8117ZM125.624 5.97656C125.5 5.97656 125.382 5.89602 125.351 5.77337C125.313 5.62876 125.392 5.48232 125.536 5.44205C125.538 5.44205 125.558 5.43656 125.562 5.43473C125.71 5.39995 125.858 5.48965 125.893 5.63609C125.93 5.78436 125.838 5.93263 125.692 5.9674C125.67 5.9729 125.648 5.97473 125.626 5.97473L125.624 5.97656Z" fill="#3A3A3A"/>
<path d="M93.2188 18.1547C93.0669 18.1547 92.9351 18.0321 92.9351 17.8801C92.9351 17.7282 93.0485 17.6056 93.2005 17.6056H93.2188C93.3707 17.6056 93.4934 17.7282 93.4934 17.8801C93.4934 18.0321 93.3707 18.1547 93.2188 18.1547ZM94.6942 18.1456C94.5422 18.1456 94.4104 18.0229 94.4104 17.871C94.4104 17.7191 94.5239 17.5964 94.6759 17.5964H94.6942C94.8461 17.5964 94.9687 17.7191 94.9687 17.871C94.9687 18.0229 94.8461 18.1456 94.6942 18.1456ZM96.1769 18.1364C96.0249 18.1364 95.8931 18.0138 95.8931 17.8618C95.8931 17.7099 96.0066 17.5873 96.1586 17.5873H96.1769C96.3288 17.5873 96.4514 17.7099 96.4514 17.8618C96.4514 18.0138 96.3288 18.1364 96.1769 18.1364ZM91.7361 18.1511C91.7361 18.1511 91.7306 18.1511 91.7288 18.1511C91.5787 18.1474 91.4505 18.0229 91.4524 17.8728C91.4542 17.7227 91.5677 17.6019 91.7178 17.6019C91.7196 17.6019 91.7416 17.6019 91.7434 17.6019C91.8953 17.6056 92.0143 17.7319 92.0107 17.8838C92.007 18.0321 91.8844 18.1511 91.7361 18.1511ZM90.2534 18.1364C90.2534 18.1364 90.2479 18.1364 90.2461 18.1364C90.096 18.1327 89.9678 18.0083 89.9697 17.8582C89.9715 17.7081 90.085 17.5873 90.2351 17.5873C90.2369 17.5873 90.2589 17.5873 90.2607 17.5873C90.4126 17.5909 90.5316 17.7172 90.528 17.8692C90.5243 18.0174 90.4017 18.1364 90.2534 18.1364ZM88.7542 18.1089C88.7542 18.1089 88.7487 18.1089 88.7469 18.1089C88.5968 18.1053 88.4686 17.9808 88.4705 17.8307C88.4723 17.6806 88.5858 17.5598 88.7359 17.5598C88.7377 17.5598 88.7597 17.5598 88.7615 17.5598C88.9135 17.5635 89.0324 17.6898 89.0288 17.8417C89.0251 17.99 88.9025 18.1089 88.7542 18.1089ZM97.6669 18.1089C97.5168 18.1089 97.385 17.99 97.3832 17.8399C97.3813 17.6898 97.4893 17.5653 97.6394 17.5616C97.6413 17.5616 97.6632 17.5616 97.6651 17.5616C97.817 17.5616 97.9396 17.6843 97.9396 17.8362C97.9396 17.9881 97.817 18.1108 97.6651 18.1108L97.6669 18.1089ZM99.1478 18.0742C98.9995 18.0742 98.8677 17.957 98.864 17.8087C98.8585 17.6568 98.9684 17.5305 99.1203 17.5269H99.1386C99.2924 17.5195 99.4168 17.6403 99.4223 17.7923C99.4278 17.9442 99.3088 18.0705 99.1569 18.076C99.1551 18.076 99.1514 18.076 99.1496 18.076L99.1478 18.0742ZM87.288 18.0797C87.288 18.0797 87.2825 18.0797 87.2807 18.0797C87.1287 18.076 87.0006 17.9497 87.0043 17.7978C87.0079 17.6458 87.1306 17.5214 87.277 17.5305H87.2953C87.4472 17.536 87.5662 17.6623 87.5625 17.8124C87.5589 17.9607 87.4362 18.0797 87.288 18.0797ZM100.63 18.0302C100.482 18.0302 100.35 17.9131 100.347 17.7648C100.341 17.6129 100.451 17.4866 100.603 17.4829H100.621C100.777 17.4774 100.9 17.5964 100.905 17.7483C100.911 17.9003 100.792 18.0266 100.64 18.0321C100.638 18.0321 100.634 18.0321 100.632 18.0321L100.63 18.0302ZM102.108 17.9808C101.959 17.9808 101.828 17.8637 101.824 17.7154C101.818 17.5635 101.928 17.4372 102.08 17.4335H102.099C102.254 17.428 102.377 17.547 102.382 17.6989C102.388 17.8508 102.269 17.9772 102.117 17.9826C102.115 17.9826 102.111 17.9826 102.11 17.9826L102.108 17.9808ZM85.8071 18.0357C85.8071 18.0357 85.7961 18.0357 85.7906 18.0357C85.6405 18.0266 85.5161 17.9003 85.5234 17.7502C85.5307 17.6001 85.6497 17.4793 85.7961 17.4866C85.798 17.4866 85.8199 17.4866 85.8218 17.4866C85.9737 17.4957 86.089 17.6257 86.0799 17.7758C86.0707 17.9222 85.9499 18.0339 85.8071 18.0339V18.0357ZM84.3244 17.9826C84.3244 17.9826 84.3134 17.9826 84.3079 17.9826C84.1578 17.9735 84.0334 17.8472 84.0407 17.6971C84.0462 17.5506 84.1597 17.4335 84.3061 17.4335C84.3098 17.4335 84.3116 17.4335 84.3134 17.4335C84.3153 17.4335 84.3372 17.4335 84.339 17.4335C84.491 17.4426 84.6063 17.5726 84.5971 17.7227C84.588 17.8692 84.4672 17.9808 84.3244 17.9808V17.9826ZM103.592 17.9094C103.446 17.9094 103.316 17.7941 103.308 17.6477C103.301 17.4976 103.407 17.3713 103.557 17.3621C103.559 17.3621 103.581 17.3621 103.583 17.3621C103.737 17.353 103.861 17.4774 103.867 17.6275C103.872 17.7795 103.753 17.9058 103.601 17.9113C103.6 17.9113 103.596 17.9113 103.594 17.9113L103.592 17.9094ZM105.073 17.8307C104.928 17.8307 104.798 17.7191 104.789 17.5726C104.78 17.4207 104.886 17.2907 105.038 17.2834H105.057C105.21 17.2706 105.339 17.3877 105.348 17.5397C105.357 17.6916 105.241 17.8216 105.09 17.8307C105.084 17.8307 105.079 17.8307 105.073 17.8307ZM81.3627 17.8399C81.3627 17.8399 81.3517 17.8399 81.3462 17.8399C81.1943 17.8307 81.0698 17.7007 81.0789 17.5488C81.0881 17.3969 81.2126 17.2797 81.359 17.2907H81.3773C81.5292 17.2999 81.6446 17.4298 81.6354 17.5818C81.6263 17.7282 81.5054 17.8399 81.3627 17.8399ZM82.8417 17.9094C82.8417 17.9094 82.8307 17.9094 82.8252 17.9094C82.6733 17.9003 82.5488 17.7703 82.558 17.6184C82.5671 17.4664 82.6916 17.3493 82.838 17.3603H82.8563C83.0083 17.3694 83.1236 17.4994 83.1144 17.6513C83.1053 17.7978 82.9845 17.9094 82.8417 17.9094ZM106.554 17.741C106.409 17.741 106.279 17.6294 106.27 17.4829C106.261 17.331 106.367 17.201 106.519 17.1937H106.537C106.688 17.1827 106.819 17.298 106.829 17.45C106.838 17.6019 106.722 17.7319 106.57 17.741C106.565 17.741 106.559 17.741 106.554 17.741ZM108.029 17.6513C107.885 17.6513 107.755 17.5397 107.746 17.3932C107.736 17.2413 107.843 17.1113 107.995 17.104H108.013C108.163 17.093 108.295 17.2083 108.304 17.3603C108.313 17.5122 108.198 17.6422 108.046 17.6513C108.04 17.6513 108.035 17.6513 108.029 17.6513ZM79.8836 17.7502C79.8836 17.7502 79.8671 17.7502 79.8598 17.7502C79.7097 17.7374 79.5889 17.6056 79.5999 17.4573C79.6109 17.3072 79.7317 17.1919 79.88 17.2029C79.8818 17.2029 79.9038 17.2029 79.9056 17.2029C80.0575 17.2157 80.1692 17.3493 80.1564 17.4994C80.1436 17.6422 80.0246 17.7502 79.8836 17.7502ZM109.51 17.525C109.367 17.525 109.237 17.4152 109.226 17.2724C109.215 17.1223 109.318 16.9923 109.466 16.9795C109.468 16.9795 109.49 16.9795 109.492 16.9777C109.642 16.9649 109.774 17.0839 109.783 17.2358C109.792 17.3877 109.677 17.5177 109.525 17.5269C109.519 17.5269 109.514 17.5269 109.508 17.5269L109.51 17.525ZM76.9274 17.5342C76.9274 17.5342 76.9109 17.5342 76.9036 17.5342C76.7516 17.5214 76.6308 17.3877 76.6455 17.2358C76.6583 17.0857 76.7791 16.9722 76.9329 16.985H76.9512C77.1031 16.9997 77.2148 17.1333 77.2019 17.2834C77.1891 17.4262 77.0701 17.5342 76.9292 17.5342H76.9274ZM78.4028 17.6532C78.4028 17.6532 78.3863 17.6532 78.379 17.6532C78.227 17.6403 78.1062 17.5067 78.1209 17.3548C78.1337 17.2047 78.2545 17.0912 78.4082 17.104H78.4265C78.5785 17.1187 78.6901 17.2523 78.6773 17.4024C78.6645 17.5452 78.5455 17.6532 78.4046 17.6532H78.4028ZM110.987 17.3969C110.846 17.3969 110.718 17.2907 110.706 17.1479C110.693 16.996 110.793 16.8642 110.945 16.8514H110.964C111.116 16.8386 111.247 16.9484 111.262 17.0985C111.275 17.2504 111.165 17.3822 111.013 17.3969C111.006 17.3969 110.997 17.3969 110.989 17.3969H110.987ZM75.4502 17.4079C75.4392 17.4079 75.4282 17.4079 75.4172 17.406C75.2653 17.3932 75.1481 17.2596 75.1628 17.1077C75.1756 16.9557 75.3037 16.8441 75.4557 16.8569H75.4813C75.6314 16.877 75.7394 17.0125 75.7229 17.1644C75.7064 17.3035 75.5893 17.4079 75.452 17.4079H75.4502ZM112.444 17.2578C112.304 17.2578 112.185 17.1498 112.172 17.007C112.159 16.8551 112.269 16.7233 112.421 16.7086H112.432C112.58 16.6885 112.719 16.7965 112.737 16.9484C112.756 17.0985 112.648 17.2358 112.498 17.2541H112.472C112.472 17.2541 112.455 17.2578 112.448 17.2578H112.444ZM73.973 17.2651C73.973 17.2651 73.9565 17.2651 73.9492 17.2651L73.9235 17.2614C73.7734 17.2431 73.6654 17.1077 73.6819 16.9576C73.6984 16.8075 73.8338 16.6976 73.9858 16.7159H73.9967C74.1487 16.7306 74.2603 16.8624 74.2475 17.0143C74.2347 17.1571 74.1157 17.2651 73.9748 17.2651H73.973ZM113.929 17.1003C113.792 17.1003 113.667 16.9978 113.651 16.8587C113.632 16.7086 113.735 16.5713 113.885 16.5549L113.911 16.5512C114.064 16.5402 114.194 16.6482 114.209 16.8001C114.222 16.9521 114.112 17.0839 113.96 17.0985C113.949 17.0985 113.938 17.1003 113.927 17.1003H113.929ZM72.4994 17.1077C72.4884 17.1077 72.4774 17.1077 72.4665 17.1058H72.4481C72.298 17.0857 72.19 16.9502 72.2065 16.8001C72.223 16.65 72.3603 16.5402 72.5104 16.5585H72.5287C72.6788 16.5787 72.7868 16.7141 72.7703 16.8642C72.7538 17.0033 72.6367 17.1077 72.4994 17.1077ZM115.392 16.9283C115.254 16.9283 115.135 16.8258 115.119 16.6867C115.101 16.5366 115.209 16.3993 115.359 16.381H115.377C115.523 16.359 115.664 16.4688 115.683 16.6189C115.701 16.769 115.593 16.9063 115.443 16.9246H115.425C115.414 16.9283 115.403 16.9283 115.392 16.9283ZM71.0277 16.9338C71.0149 16.9338 71.0002 16.9338 70.9874 16.9301C70.8373 16.9118 70.7238 16.7763 70.7403 16.6244C70.7568 16.4743 70.8922 16.3645 71.0387 16.3828L71.0643 16.3865C71.2144 16.4084 71.3187 16.5475 71.2968 16.6976C71.2766 16.8349 71.1595 16.9319 71.0259 16.9319L71.0277 16.9338ZM116.872 16.7379C116.737 16.7379 116.616 16.6409 116.596 16.5036C116.574 16.3535 116.673 16.2144 116.823 16.1924L116.849 16.1888C116.997 16.1686 117.136 16.2785 117.154 16.4286C117.173 16.5787 117.065 16.7159 116.915 16.7342C116.902 16.7361 116.887 16.7379 116.874 16.7379H116.872ZM118.337 16.5366C118.201 16.5366 118.081 16.4395 118.06 16.3022C118.038 16.1521 118.137 16.013 118.287 15.9911L118.313 15.9874C118.461 15.9673 118.6 16.0771 118.619 16.2272C118.637 16.3773 118.529 16.5146 118.379 16.5329C118.366 16.5347 118.351 16.5366 118.339 16.5366H118.337ZM119.801 16.2986C119.666 16.2986 119.545 16.2016 119.525 16.0643C119.503 15.9142 119.602 15.7751 119.752 15.7531L119.777 15.7494C119.926 15.7293 120.065 15.8391 120.083 15.9892C120.101 16.1393 119.993 16.2766 119.843 16.2949C119.831 16.2968 119.816 16.2986 119.803 16.2986H119.801ZM68.0879 16.5347C68.0733 16.5347 68.0604 16.5347 68.0458 16.5311C67.8957 16.5091 67.784 16.3681 67.806 16.218C67.828 16.0679 67.9561 15.9636 68.108 15.9856C68.108 15.9856 68.1263 15.9892 68.1282 15.9892C68.2783 16.0112 68.3808 16.1521 68.3588 16.3022C68.3387 16.4377 68.2215 16.5366 68.0879 16.5366V16.5347ZM69.5523 16.7379C69.5377 16.7379 69.5248 16.7379 69.5102 16.7342C69.3601 16.7123 69.2484 16.5713 69.2704 16.4212C69.2924 16.2711 69.4205 16.1668 69.5724 16.1888C69.5724 16.1888 69.5907 16.1924 69.5926 16.1924C69.7427 16.2144 69.8452 16.3553 69.8232 16.5054C69.8031 16.6409 69.6859 16.7397 69.5523 16.7397V16.7379ZM66.6235 16.3059C66.6089 16.3059 66.5961 16.3059 66.5814 16.3022L66.5576 16.2986C66.4075 16.273 66.3087 16.1302 66.3343 15.9801C66.3599 15.83 66.5027 15.7311 66.6528 15.7568H66.6638C66.8139 15.7806 66.9164 15.9215 66.8944 16.0716C66.8743 16.2071 66.7571 16.3059 66.6235 16.3059ZM121.256 16.0551C121.127 16.0551 121.009 15.9618 120.986 15.8282C120.96 15.678 121.059 15.5371 121.207 15.5096L121.224 15.506C121.374 15.4785 121.516 15.5774 121.544 15.7256C121.571 15.8739 121.472 16.0185 121.324 16.046L121.304 16.0496C121.288 16.0533 121.271 16.0533 121.256 16.0533V16.0551ZM122.721 15.7879C122.591 15.7879 122.474 15.6945 122.45 15.5609C122.424 15.4108 122.523 15.2698 122.671 15.2424L122.688 15.2387C122.838 15.2113 122.981 15.3101 123.008 15.4584C123.036 15.6067 122.937 15.7513 122.789 15.7787L122.768 15.7824C122.752 15.786 122.736 15.786 122.721 15.786V15.7879ZM124.16 15.4767C124.03 15.4767 123.913 15.3833 123.889 15.2497C123.863 15.0996 123.962 14.9587 124.11 14.9312L124.127 14.9275C124.277 14.9001 124.42 14.9989 124.447 15.1472C124.475 15.2973 124.376 15.4401 124.227 15.4675L124.207 15.4712C124.191 15.4749 124.174 15.4749 124.16 15.4749V15.4767ZM65.1628 16.0533C65.1463 16.0533 65.1298 16.0533 65.1134 16.0496C64.9633 16.024 64.8552 15.8794 64.8827 15.7311C64.9083 15.581 65.042 15.4822 65.1921 15.506L65.2122 15.5096C65.3605 15.5371 65.4611 15.6799 65.4337 15.8282C65.4099 15.9599 65.2946 16.0533 65.1646 16.0533H65.1628ZM63.6984 15.7879C63.6819 15.7879 63.6654 15.7879 63.649 15.7842C63.4989 15.7586 63.3909 15.614 63.4183 15.4657C63.4439 15.3156 63.5776 15.2168 63.7277 15.2406L63.7478 15.2442C63.8961 15.2717 63.9967 15.4145 63.9693 15.5627C63.9455 15.6945 63.8302 15.7879 63.7002 15.7879H63.6984ZM62.234 15.4584C62.2175 15.4584 62.201 15.4584 62.1846 15.4547C62.0345 15.4291 61.9265 15.2845 61.9539 15.1362C61.9795 14.9861 62.1132 14.8873 62.2633 14.9111L62.2834 14.9147C62.4317 14.9422 62.5324 15.085 62.5049 15.2332C62.4811 15.365 62.3658 15.4584 62.2358 15.4584H62.234ZM60.8117 15.1838C60.7952 15.1838 60.7787 15.1838 60.7623 15.1802C60.6122 15.1545 60.5042 15.0099 60.5316 14.8616C60.5572 14.7115 60.6909 14.6127 60.841 14.6365L60.8611 14.6402C61.0094 14.6676 61.1101 14.8104 61.0826 14.9587C61.0588 15.0905 60.9435 15.1838 60.8135 15.1838H60.8117ZM125.624 15.1289C125.5 15.1289 125.382 15.0484 125.351 14.9257C125.313 14.7811 125.392 14.6347 125.536 14.5944C125.538 14.5944 125.558 14.5889 125.562 14.5871C125.71 14.5523 125.858 14.642 125.893 14.7884C125.93 14.9367 125.838 15.085 125.692 15.1197C125.67 15.1252 125.648 15.1271 125.626 15.1271L125.624 15.1289Z" fill="#3A3A3A"/>
<path d="M62.0281 13.1376C61.9732 13.1376 61.9201 13.123 61.8707 13.0937C61.7938 13.0479 61.7444 12.982 61.7206 12.8941C61.6949 12.8099 61.7059 12.7276 61.7517 12.6507C61.7974 12.5738 61.8652 12.5207 61.953 12.4969C62.6852 12.3029 63.3515 12.0137 63.9318 11.6348C64.5102 11.2577 64.9953 10.7909 65.3687 10.2472C65.4548 10.1173 65.4822 10.0148 65.4529 9.94338C65.4237 9.87199 65.3083 9.81891 65.1216 9.78962L64.2485 9.65416C64.0142 9.88114 63.7524 10.1045 63.4669 10.3186C63.1758 10.5365 62.8884 10.7159 62.6102 10.8495C62.5626 10.8714 62.5132 10.8843 62.4656 10.8843C62.4308 10.8843 62.396 10.8788 62.3612 10.8678C62.2752 10.8403 62.213 10.7854 62.1727 10.703C62.1379 10.6225 62.1343 10.5383 62.1617 10.4541C62.1892 10.3681 62.2441 10.3058 62.3265 10.2655C62.5901 10.1374 62.8536 9.97816 63.1063 9.79328C63.357 9.61023 63.595 9.40888 63.8092 9.19471C64.0215 8.9842 64.1991 8.77003 64.3345 8.55953C64.3839 8.48631 64.4535 8.44054 64.5395 8.42041C64.5633 8.41492 64.589 8.41309 64.6127 8.41309C64.6732 8.41309 64.7299 8.43139 64.783 8.46617C64.8562 8.5101 64.902 8.57783 64.9221 8.66936C64.9422 8.75905 64.9258 8.84142 64.8763 8.91464C64.8544 8.95308 64.8287 8.99152 64.8013 9.02813L64.75 9.09586L65.2186 9.16908C65.6799 9.24047 65.9801 9.40522 66.1083 9.65965C66.2382 9.91592 66.1687 10.2381 65.9033 10.6207C65.4914 11.2137 64.9532 11.7318 64.3016 12.1638C63.6517 12.5939 62.9177 12.9198 62.1196 13.1321C62.0885 13.1394 62.0592 13.1449 62.0299 13.1449L62.0281 13.1376ZM66.7489 9.94887C66.727 9.94887 66.705 9.94521 66.6812 9.93972C66.6098 9.92141 66.5549 9.88114 66.5201 9.82257C66.4213 9.65965 66.3096 9.49857 66.187 9.34664C66.1467 9.29539 66.1266 9.23681 66.1339 9.17091C66.1394 9.10501 66.1705 9.0501 66.2272 9.008C66.273 8.97322 66.3224 8.95674 66.3737 8.95674C66.3883 8.95674 66.403 8.95674 66.4158 8.9604C66.478 8.97322 66.5329 9.00434 66.5769 9.05376C66.6318 9.10867 66.694 9.18189 66.7672 9.27708C66.8386 9.37044 66.9009 9.45464 66.9521 9.53152C66.9961 9.59193 67.0107 9.65965 66.9942 9.73287C66.9778 9.80426 66.9411 9.86284 66.8807 9.90677C66.8386 9.93423 66.7929 9.94887 66.7471 9.94887H66.7489ZM67.3329 9.52054C67.3164 9.52054 67.2981 9.52054 67.2798 9.51504C67.2066 9.5004 67.1498 9.46379 67.1095 9.40338C67.0601 9.32467 67.0034 9.24596 66.943 9.16542C66.8826 9.08488 66.8222 9.01166 66.7618 8.94393C66.7197 8.89817 66.6977 8.84142 66.6995 8.77552C66.6995 8.7078 66.7288 8.65105 66.7855 8.60346C66.8313 8.56685 66.8807 8.54854 66.9338 8.54854C66.9448 8.54854 66.9576 8.54854 66.9686 8.5522C67.0308 8.56136 67.0876 8.58881 67.137 8.63458C67.1919 8.68583 67.2578 8.75722 67.3365 8.85057C67.4134 8.9421 67.4793 9.0263 67.536 9.10318C67.58 9.1581 67.5965 9.224 67.5836 9.29905C67.569 9.37227 67.5324 9.43084 67.4738 9.47294C67.4317 9.50406 67.3841 9.51871 67.3329 9.51871V9.52054Z" fill="#3A3A3A"/>
<path d="M69.0911 14.3237C69.0618 14.3237 69.0307 14.32 69.0014 14.3109C68.9154 14.2871 68.8495 14.234 68.8074 14.1535C68.7616 14.0784 68.7525 13.996 68.7781 13.91C68.8037 13.824 68.855 13.7599 68.9318 13.7178C69.2558 13.5384 69.5341 13.306 69.7611 13.0222C69.988 12.7385 70.1601 12.4163 70.2736 12.063C70.3871 11.7098 70.4347 11.3327 70.4164 10.9428C70.4091 10.8531 70.4365 10.7744 70.4969 10.7085C70.5573 10.6444 70.6342 10.6096 70.7239 10.6078C70.7312 10.6078 70.7404 10.6078 70.7477 10.6078C70.8264 10.6078 70.8978 10.6353 70.9564 10.6902C71.0204 10.7506 71.0571 10.8275 71.0644 10.9153V11.1478C71.2932 11.1661 71.4927 11.1734 71.6593 11.1734C71.7709 11.1734 71.8716 11.1698 71.9577 11.1606C72.1737 11.1405 72.3274 11.1039 72.4134 11.0526C72.494 11.005 72.5379 10.9501 72.5471 10.8915C72.5599 10.7945 72.5416 10.7213 72.4922 10.6645C72.4574 10.6261 72.364 10.5712 72.1151 10.5382L68.8202 10.0989C68.7323 10.0879 68.6609 10.0458 68.606 9.97445C68.5511 9.90306 68.531 9.82252 68.5419 9.73465C68.5548 9.64313 68.595 9.56991 68.6664 9.51499C68.725 9.47106 68.7891 9.44727 68.8605 9.44727C68.8751 9.44727 68.8897 9.44727 68.9062 9.45093L72.2011 9.88842C72.5745 9.93784 72.8491 10.0513 73.0175 10.2271C73.1878 10.4046 73.2555 10.6462 73.2152 10.9464C73.1823 11.1991 73.0761 11.3931 72.8985 11.5249C72.7246 11.6548 72.4739 11.7354 72.1553 11.7647C72.0181 11.7775 71.8625 11.7848 71.6941 11.7848C71.4872 11.7848 71.2566 11.7757 71.004 11.7555C70.9417 12.1015 70.8319 12.4365 70.6763 12.7495C70.5152 13.0735 70.312 13.3682 70.0704 13.6299C69.8288 13.8899 69.5524 14.1095 69.2485 14.2779C69.1991 14.3054 69.1478 14.3182 69.0948 14.3182L69.0911 14.3237Z" fill="#3A3A3A"/>
<path d="M78.3915 14.975C78.3476 14.975 78.3018 14.964 78.256 14.9439C78.17 14.9054 78.1078 14.8432 78.073 14.7608C78.0382 14.6784 77.9851 14.5741 77.9192 14.4496C77.8533 14.3288 77.7801 14.1988 77.6996 14.0616C77.4488 14.078 77.1614 14.0927 76.8447 14.1037C76.5189 14.1165 76.1821 14.1238 75.838 14.1293C75.5652 14.1329 75.2961 14.1366 75.0344 14.1366H74.8293C74.5017 14.1366 74.207 14.1311 73.9416 14.1256C73.8464 14.1201 73.7677 14.0835 73.7036 14.0158C73.6395 13.9481 73.6084 13.8657 73.6139 13.7723C73.6194 13.6753 73.6578 13.5948 73.7256 13.5325C73.7896 13.4758 73.8647 13.4465 73.9489 13.4465H74.0239C74.0825 13.4465 74.1466 13.4465 74.2125 13.4502C74.2948 13.452 74.3827 13.4557 74.4724 13.4557C74.6335 13.2763 74.8019 13.0731 74.9721 12.8479C75.1479 12.6155 75.3218 12.372 75.4883 12.1231C75.6531 11.8759 75.8105 11.6288 75.9569 11.389C76.0997 11.1529 76.2224 10.9387 76.3212 10.7502C76.3651 10.666 76.431 10.6092 76.5207 10.58C76.5555 10.569 76.5903 10.5635 76.6232 10.5635C76.6782 10.5635 76.7312 10.5781 76.7843 10.6074C76.8667 10.6495 76.9234 10.7172 76.9546 10.8051C76.9857 10.8948 76.9747 10.9845 76.9271 11.0687C76.8026 11.2993 76.6489 11.5611 76.4676 11.8467C76.2828 12.1359 76.0869 12.4269 75.8819 12.7106C75.6897 12.9779 75.4957 13.2323 75.3035 13.4685C75.5103 13.4685 75.719 13.4703 75.9313 13.4703C76.0686 13.4703 76.2077 13.4703 76.3468 13.4703C76.7001 13.4703 77.0259 13.463 77.317 13.452C77.2328 13.3202 77.1486 13.1939 77.0626 13.0767C76.9655 12.9413 76.8777 12.826 76.799 12.729C76.7422 12.6521 76.7203 12.5679 76.7331 12.4727C76.7459 12.3775 76.7898 12.3006 76.8649 12.2457C76.9271 12.1999 76.9948 12.1761 77.068 12.1761C77.0845 12.1761 77.0992 12.1761 77.1156 12.1798C77.2072 12.1926 77.284 12.2366 77.3408 12.3116C77.4305 12.4269 77.5403 12.5807 77.6684 12.7711C77.7966 12.9614 77.9302 13.1664 78.0675 13.3843C78.2048 13.6021 78.3329 13.8126 78.4464 14.0085C78.5599 14.2062 78.6478 14.3727 78.7045 14.5027C78.7448 14.5851 78.7466 14.6729 78.7063 14.7608C78.6679 14.8468 78.6038 14.9109 78.5178 14.9512C78.4775 14.9676 78.4354 14.9768 78.3952 14.9768L78.3915 14.975Z" fill="#3A3A3A"/>
<path d="M85.3768 16.0533C85.3512 16.0533 85.3256 16.0533 85.2981 16.0515C85.0382 16.035 84.846 15.9765 84.727 15.8776C84.6025 15.7751 84.5494 15.5994 84.5641 15.3504L84.6465 14.0325L84.4323 14.0197C84.381 14.5121 84.2547 14.9184 84.057 15.2314C83.8539 15.5518 83.5372 15.7952 83.118 15.9545C83.0686 15.971 83.0192 15.9801 82.9697 15.9801C82.9404 15.9801 82.9112 15.9765 82.88 15.971C82.7958 15.9527 82.7354 15.9051 82.697 15.8264C82.6604 15.755 82.6549 15.6836 82.6805 15.6122L81.5053 15.539C81.1905 15.5188 80.9836 15.4529 80.872 15.3376C80.7622 15.2223 80.7146 15.0338 80.7292 14.7811L80.8262 13.2307C80.7585 13.2838 80.6889 13.3351 80.6212 13.3808C80.5718 13.4138 80.5169 13.4321 80.4583 13.4321C80.4436 13.4321 80.4272 13.4321 80.4107 13.4284C80.3356 13.4174 80.2734 13.3772 80.224 13.3131C80.1837 13.2508 80.1709 13.185 80.1855 13.1172C80.1984 13.0477 80.2368 12.9927 80.2972 12.9543C80.5022 12.8207 80.6926 12.6651 80.8665 12.4894C81.0239 12.3319 81.1667 12.1599 81.2948 11.9787L80.6578 11.9384C80.5809 11.9329 80.5205 11.9036 80.4766 11.8505C80.4345 11.7974 80.4144 11.737 80.4198 11.6693C80.4235 11.6016 80.451 11.5448 80.4986 11.4972C80.5443 11.4533 80.6011 11.4313 80.6688 11.4313H80.6999C80.6889 11.4258 80.6761 11.4185 80.6651 11.4112C80.6084 11.3691 80.5773 11.3069 80.57 11.23C80.5626 11.1513 80.5864 11.0872 80.6395 11.0396C80.7109 10.9719 80.7878 10.8877 80.8665 10.787C80.9452 10.6863 81.0203 10.582 81.0898 10.4795C81.1594 10.377 81.2161 10.28 81.2582 10.1921C81.2912 10.1189 81.3442 10.0694 81.4175 10.042C81.4468 10.031 81.4742 10.0273 81.5035 10.0273C81.5493 10.0273 81.595 10.0402 81.6408 10.0676C81.7085 10.0987 81.7543 10.1518 81.7744 10.2214C81.7946 10.2891 81.7872 10.3568 81.7543 10.4209C81.736 10.4575 81.7158 10.496 81.6939 10.5344C81.6829 10.5545 81.6701 10.5747 81.6591 10.5948L83.1949 10.6918C83.2718 10.6973 83.3322 10.7266 83.3761 10.7797C83.4182 10.8328 83.4383 10.895 83.4328 10.9609C83.4292 11.0286 83.4017 11.0854 83.3523 11.1311C83.3065 11.1732 83.2516 11.1934 83.1839 11.1934H83.1619L82.3144 11.1403C82.2741 11.2739 82.2229 11.402 82.1661 11.5247L83.2553 11.5942C83.3358 11.5997 83.3981 11.629 83.4402 11.6839C83.4804 11.737 83.4987 11.7974 83.4933 11.8633C83.4896 11.9292 83.464 11.9878 83.4164 12.0354C83.3743 12.0793 83.3157 12.1031 83.2461 12.1031L82.6695 12.0665C82.6897 12.0867 82.7061 12.1086 82.7208 12.1361C82.7537 12.202 82.7519 12.2697 82.7135 12.3411C82.6952 12.3777 82.6714 12.418 82.6457 12.4656C82.6293 12.4949 82.6128 12.526 82.5963 12.5571L83.0997 12.5882C83.1711 12.5919 83.2297 12.6193 83.2718 12.6687C83.312 12.7182 83.3303 12.7767 83.3267 12.8445C83.323 12.9067 83.2974 12.9616 83.2516 13.0074C83.2077 13.0495 83.1546 13.0715 83.0905 13.0715L82.481 13.033L82.4572 13.4064L82.9368 13.4376C83.0063 13.4412 83.0594 13.4705 83.0942 13.5199C83.1271 13.5675 83.1418 13.6224 83.1381 13.6792C83.1345 13.7378 83.1125 13.789 83.0741 13.8311C83.0356 13.8732 82.9862 13.8952 82.924 13.8952L82.4279 13.8641L82.4041 14.232L82.8837 14.2631C82.9533 14.2668 83.0063 14.2961 83.0411 14.3455C83.0741 14.3949 83.0887 14.448 83.0851 14.5047C83.0814 14.5633 83.0594 14.6146 83.021 14.6567C82.9844 14.6988 82.9331 14.7207 82.8709 14.7207L82.3748 14.6896L82.3492 15.0832L82.9221 15.1198C82.9935 15.1234 83.0521 15.1509 83.0924 15.2003C83.1198 15.2333 83.1381 15.2717 83.1473 15.3138C83.3743 15.1784 83.5427 15.0008 83.6507 14.7848C83.7642 14.556 83.8429 14.2649 83.8813 13.919C83.7239 13.8513 83.6159 13.7451 83.561 13.606C83.5024 13.4614 83.4823 13.2618 83.4987 12.9964L83.5976 11.4258C83.6141 11.1732 83.6543 10.9865 83.7202 10.8529C83.788 10.7156 83.9014 10.6204 84.0552 10.5728C84.165 10.5381 84.306 10.5216 84.4726 10.5216C84.5311 10.5216 84.5915 10.5234 84.6574 10.5271L84.9302 10.5435C85.181 10.56 85.3787 10.6003 85.5196 10.6644C85.6642 10.7303 85.7631 10.8383 85.8161 10.9829C85.8674 11.1238 85.8857 11.3197 85.8692 11.5686L85.7704 13.1392C85.7521 13.4211 85.7027 13.6261 85.6166 13.7616C85.5343 13.8934 85.397 13.9794 85.2084 14.0178L85.1297 15.2571C85.1242 15.3358 85.137 15.3889 85.1627 15.4145C85.1828 15.4328 85.2304 15.4566 85.3475 15.4639H85.3677C85.4354 15.4639 85.4848 15.442 85.5196 15.3944C85.5617 15.3376 85.6002 15.2296 85.6349 15.0759C85.6496 14.9953 85.6953 14.9367 85.7686 14.9038C85.8088 14.8855 85.8491 14.8782 85.8912 14.8782C85.9241 14.8782 85.9571 14.8837 85.99 14.8928C86.1475 14.9349 86.2115 15.0484 86.1786 15.2205C86.1255 15.5262 86.0267 15.7476 85.8839 15.8776C85.7557 15.9948 85.5837 16.0533 85.3695 16.0533H85.3768ZM81.3003 14.7592C81.2948 14.858 81.3113 14.9276 81.3534 14.9642C81.3845 14.9916 81.4559 15.0264 81.6207 15.0356L81.8019 15.0466L81.8275 14.6548L81.3095 14.6219L81.3003 14.7592ZM81.855 14.1954L81.8788 13.8275L81.3607 13.7945L81.3369 14.1624L81.8531 14.1954H81.855ZM84.0918 13.0202C84.0845 13.1447 84.0882 13.2399 84.1065 13.3021C84.1211 13.3588 84.1595 13.3973 84.22 13.4229C84.2877 13.4504 84.3902 13.4687 84.5256 13.4778L84.6941 13.4888C84.738 13.4906 84.7783 13.4925 84.8167 13.4925C84.8972 13.4925 84.9613 13.4852 85.0071 13.4723C85.0693 13.454 85.1114 13.4193 85.1352 13.3643C85.1627 13.3039 85.1791 13.2106 85.1883 13.0879L85.192 13.0312L84.0973 12.9616L84.0937 13.0184L84.0918 13.0202ZM81.9062 13.3698L81.93 12.9964L81.4138 12.9635L81.39 13.3369L81.9062 13.3698ZM85.2212 12.5424L85.2505 12.0757L84.1559 12.0061L84.1266 12.4729L85.2212 12.5424ZM82.0307 12.5168C82.0636 12.4564 82.0966 12.3923 82.1295 12.3264C82.1643 12.2551 82.1918 12.1965 82.2119 12.1525C82.2339 12.105 82.2613 12.0665 82.2979 12.0391L81.9154 12.0153C81.8147 12.1745 81.7012 12.3338 81.5786 12.4875L82.0325 12.5168H82.0307ZM85.2798 11.5869L85.2835 11.543C85.2908 11.4204 85.2853 11.3252 85.2652 11.2611C85.2487 11.2044 85.2103 11.1641 85.1517 11.1385C85.0876 11.111 84.9833 11.0927 84.8423 11.0835L84.6739 11.0726C84.6318 11.0707 84.5934 11.0689 84.5568 11.0689C84.4762 11.0689 84.4122 11.0762 84.3646 11.089C84.3023 11.1055 84.2602 11.1403 84.2383 11.1952C84.2126 11.2556 84.1962 11.349 84.1888 11.4734V11.5174L85.2798 11.5869ZM81.595 11.4862C81.628 11.4222 81.6591 11.3545 81.6865 11.2867C81.7122 11.2263 81.736 11.1641 81.7561 11.1018L81.3204 11.0744C81.2381 11.1842 81.1539 11.2776 81.0733 11.3526C81.0331 11.3947 80.9855 11.4258 80.9306 11.4441L81.595 11.4862Z" fill="#3A3A3A"/>
<path d="M88.0383 16.2562C87.9944 16.2562 87.9504 16.2489 87.9083 16.2324C87.8205 16.1994 87.7564 16.1372 87.7216 16.0493C87.6887 15.956 87.6923 15.8681 87.7308 15.7894C87.7692 15.7107 87.8388 15.6539 87.9413 15.6228C88.3074 15.4965 88.6131 15.3299 88.8474 15.1304C89.0799 14.9327 89.2592 14.6838 89.3819 14.3891C89.5009 14.1035 89.5741 13.7557 89.6015 13.3548L88.0163 13.3402C87.9266 13.3402 87.8534 13.3091 87.7985 13.2487C87.7436 13.1901 87.7143 13.1169 87.7161 13.0327C87.7161 12.9485 87.7454 12.8771 87.8022 12.8185C87.8589 12.7599 87.9321 12.7306 88.0182 12.7306L90.2074 12.7508L90.2239 10.8269C90.2239 10.7208 90.2587 10.6366 90.3246 10.5761C90.3887 10.5176 90.4692 10.4883 90.5626 10.4883C90.6632 10.4883 90.7456 10.5194 90.8097 10.5816C90.8756 10.6439 90.9067 10.7281 90.9067 10.8342L90.8902 12.7581L93.0813 12.7782C93.1747 12.7782 93.2497 12.8093 93.3065 12.8698C93.3614 12.9283 93.3907 13.0016 93.3888 13.0858C93.3888 13.17 93.3596 13.2413 93.301 13.2999C93.2442 13.3585 93.171 13.3878 93.0795 13.3878L91.4449 13.3731L91.4284 15.1652C91.4284 15.2787 91.443 15.3666 91.476 15.4251C91.5071 15.48 91.5693 15.5203 91.6609 15.5441C91.7597 15.5697 91.9007 15.5826 92.0782 15.5844H92.1075C92.2631 15.5844 92.3857 15.5734 92.4718 15.5496C92.5596 15.5258 92.6237 15.48 92.6695 15.4105C92.7171 15.3373 92.761 15.2274 92.7976 15.0828C92.8214 14.9931 92.8763 14.9291 92.9568 14.8925C92.9953 14.8742 93.0392 14.865 93.0831 14.865C93.1271 14.865 93.1765 14.8742 93.2278 14.8925C93.3211 14.9254 93.3815 14.9821 93.4072 15.059C93.4309 15.1322 93.4328 15.2165 93.409 15.3098C93.3522 15.5496 93.2717 15.7381 93.1728 15.8681C93.0722 16.0017 92.9312 16.0951 92.7537 16.1445C92.5889 16.1903 92.3711 16.2141 92.1075 16.2141H92.0636C91.7469 16.2104 91.4924 16.183 91.3112 16.128C91.1227 16.0713 90.9872 15.9724 90.9067 15.8315C90.828 15.6924 90.7895 15.4983 90.7914 15.2512L90.8078 13.364L90.2386 13.3585C90.2148 13.8472 90.1306 14.2774 89.9896 14.6398C89.8432 15.0114 89.6217 15.3299 89.3306 15.588C89.0396 15.8443 88.6552 16.0585 88.1866 16.2251C88.1353 16.2434 88.0841 16.2525 88.0365 16.2525L88.0383 16.2562ZM91.7048 12.586C91.6499 12.586 91.5913 12.5714 91.5346 12.5421C91.4503 12.5 91.3973 12.4323 91.3716 12.3444C91.346 12.2547 91.3588 12.1723 91.4064 12.0973C91.4613 12.0149 91.5254 11.9161 91.5986 11.8007C91.6718 11.6854 91.7451 11.5664 91.8164 11.4456C91.886 11.3266 91.9464 11.215 91.9922 11.118C92.0434 11.0173 92.113 10.9532 92.199 10.9239C92.2356 10.9111 92.2741 10.9056 92.3125 10.9056C92.3619 10.9056 92.4132 10.9166 92.4644 10.9368C92.5486 10.9752 92.6091 11.0356 92.6475 11.118C92.6878 11.204 92.6804 11.2955 92.6292 11.3925C92.5779 11.4877 92.5175 11.5957 92.4443 11.7184C92.3729 11.841 92.2979 11.9618 92.2192 12.0845L92.0086 12.4158C91.9574 12.4927 91.8878 12.5458 91.8036 12.5732C91.7725 12.5824 91.7396 12.5879 91.7066 12.5879L91.7048 12.586ZM89.3196 12.5769C89.2849 12.5769 89.2501 12.5714 89.2153 12.5604C89.1256 12.5311 89.0561 12.4707 89.0103 12.3774C88.97 12.2858 88.9169 12.1797 88.8529 12.0625C88.787 11.9435 88.7211 11.8245 88.6515 11.7037C88.5801 11.5811 88.5197 11.4822 88.463 11.3999C88.4154 11.323 88.4026 11.2424 88.4227 11.1564C88.4428 11.0704 88.4978 11.0027 88.5856 10.9569C88.6442 10.9258 88.7064 10.9075 88.7668 10.9075C88.7906 10.9075 88.8126 10.9093 88.8364 10.9148C88.9224 10.9313 88.9938 10.9807 89.0469 11.0594C89.1 11.1436 89.1641 11.2479 89.2391 11.3706C89.3123 11.4932 89.3855 11.6195 89.4569 11.7458C89.5283 11.874 89.5869 11.9838 89.6327 12.0753C89.6821 12.1614 89.6931 12.2492 89.6638 12.3334C89.6345 12.4176 89.5741 12.4835 89.4826 12.5329C89.4277 12.5604 89.3727 12.575 89.3196 12.575V12.5769Z" fill="#3A3A3A"/>
<path d="M96.2635 16.2199C96.1811 16.2199 96.1115 16.1942 96.053 16.143C95.9926 16.0881 95.9596 16.013 95.956 15.9215L95.7729 10.7101C95.7692 10.6167 95.7967 10.5398 95.8534 10.4813C95.9102 10.4227 95.9834 10.3916 96.0713 10.3897C96.1665 10.3897 96.236 10.4154 96.2946 10.4666C96.355 10.5215 96.388 10.5966 96.3916 10.6899L96.4172 11.4404C96.43 11.4276 96.4429 11.4148 96.4593 11.4038C96.5124 11.3636 96.5728 11.3434 96.6387 11.3434H96.657C96.7321 11.3489 96.7907 11.3782 96.8328 11.4313C96.8712 11.4752 96.917 11.532 96.9682 11.6015C97.0195 11.6711 97.0671 11.7388 97.1146 11.8047C97.1567 11.8615 97.1879 11.9109 97.2117 11.9493C97.2098 11.9365 97.208 11.9237 97.208 11.9109C97.2062 11.8486 97.2245 11.7901 97.2629 11.737C97.3032 11.6802 97.3563 11.6509 97.4222 11.6491L98.374 11.6162L98.3667 11.3965L97.122 11.4404C97.0469 11.4404 96.9938 11.4148 96.9499 11.3636C96.9078 11.3123 96.8858 11.2556 96.884 11.1933C96.8822 11.1311 96.9005 11.0725 96.9371 11.0176C96.9774 10.959 97.0341 10.9279 97.1037 10.9261L98.3484 10.8821L98.3393 10.6021C98.3356 10.5087 98.3649 10.4318 98.4235 10.3733C98.482 10.3147 98.5571 10.2836 98.645 10.2817C98.7365 10.2817 98.8042 10.3074 98.8646 10.3586C98.9287 10.4135 98.9616 10.4886 98.9653 10.5819L98.9744 10.862L100.27 10.8162C100.344 10.8162 100.399 10.8437 100.442 10.8968C100.485 10.9499 100.507 11.0066 100.508 11.0689C100.51 11.1311 100.492 11.1897 100.453 11.2427C100.413 11.2995 100.356 11.3288 100.287 11.3306L98.9927 11.3764L99.0001 11.596L99.9721 11.5613C100.047 11.5613 100.1 11.5887 100.139 11.64C100.175 11.6894 100.195 11.7461 100.197 11.8084C100.199 11.8651 100.183 11.92 100.15 11.9713C100.113 12.0262 100.06 12.0555 99.9885 12.0573L99.0184 12.0921L99.0257 12.3246L100.556 12.2715C100.631 12.2715 100.686 12.2989 100.728 12.352C100.77 12.4033 100.792 12.4619 100.794 12.5241C100.796 12.5863 100.777 12.6449 100.739 12.698C100.699 12.7547 100.642 12.784 100.572 12.7859L96.9426 12.914C96.873 12.914 96.8163 12.8884 96.7742 12.8371C96.7321 12.7859 96.7101 12.7291 96.7083 12.6669C96.7065 12.6046 96.7248 12.5461 96.7614 12.4911C96.7961 12.4399 96.8456 12.4088 96.9096 12.4015C96.8492 12.385 96.8035 12.3502 96.7687 12.2989C96.7412 12.2532 96.7065 12.1983 96.6625 12.1305C96.6186 12.0628 96.5747 11.9951 96.5271 11.9274C96.4886 11.8706 96.4557 11.823 96.4246 11.7864L96.5692 15.905C96.5728 15.9984 96.5454 16.0753 96.4886 16.1338C96.4319 16.1924 96.3587 16.2235 96.2708 16.2272H96.2561L96.2635 16.2199ZM97.2629 12.0518C97.2721 12.0903 97.2757 12.1287 97.2702 12.1708C97.2611 12.2459 97.2227 12.3063 97.1568 12.352C97.1385 12.3667 97.1183 12.3777 97.0963 12.3868L98.4015 12.341L98.3942 12.1086L97.4405 12.1415C97.3709 12.1415 97.3178 12.1177 97.2757 12.0683C97.2702 12.0628 97.2666 12.0573 97.2611 12.0518H97.2629ZM97.7773 16.2034C97.6949 16.2034 97.6235 16.1759 97.565 16.1229C97.5045 16.0661 97.4716 15.9929 97.4679 15.9032L97.3984 13.9189C97.3911 13.7066 97.413 13.5364 97.4643 13.4101C97.5174 13.2801 97.6144 13.1831 97.7517 13.1227C97.8835 13.0641 98.072 13.0311 98.3136 13.022L99.2399 12.989C99.2765 12.989 99.3112 12.989 99.3442 12.989C99.5346 12.989 99.6902 13.0092 99.8055 13.0513C99.9464 13.1025 100.049 13.1922 100.111 13.3185C100.172 13.4412 100.206 13.6114 100.214 13.8219L100.265 15.3028C100.276 15.5902 100.206 15.8007 100.062 15.9252C99.919 16.0478 99.6902 16.1137 99.3863 16.1247C99.2911 16.1247 99.2216 16.0991 99.1666 16.0515C99.1081 16.0002 99.0733 15.9361 99.0623 15.8611C99.0495 15.7769 99.0678 15.7 99.119 15.6359C99.1685 15.57 99.2417 15.5316 99.3332 15.5188C99.4687 15.4932 99.5584 15.4712 99.6005 15.4529C99.6133 15.4474 99.6444 15.4181 99.6407 15.2827L99.6316 15.0154L98.0628 15.0703L98.0921 15.8867C98.0958 15.9764 98.0665 16.0515 98.0079 16.1119C97.9494 16.1723 97.8761 16.2052 97.7938 16.2071H97.781L97.7773 16.2034ZM98.0427 14.5761L99.6114 14.5212L99.6023 14.2521L98.0336 14.307L98.0427 14.5761ZM99.1648 13.5089L98.418 13.5345C98.202 13.5419 98.1159 13.573 98.083 13.5986C98.0537 13.6206 98.0207 13.6755 98.0171 13.8183L99.5822 13.7633C99.5675 13.6224 99.5309 13.5693 99.5016 13.5492C99.4723 13.529 99.4028 13.5071 99.238 13.5071C99.2142 13.5071 99.1904 13.5071 99.163 13.5071L99.1648 13.5089ZM95.2054 13.5309C95.1835 13.5309 95.1597 13.529 95.1341 13.5254C95.0553 13.5089 94.9968 13.4668 94.9583 13.4009C94.9199 13.3368 94.9089 13.2654 94.9254 13.1886C94.951 13.0751 94.9748 12.9341 94.9968 12.7712C95.0206 12.6046 95.0389 12.4344 95.0535 12.2642C95.0682 12.0921 95.0773 11.9475 95.081 11.8322C95.0865 11.7388 95.1212 11.6656 95.1816 11.618C95.2311 11.5796 95.2878 11.5594 95.3537 11.5594C95.3684 11.5594 95.3848 11.5594 95.4013 11.5631C95.4745 11.5704 95.5404 11.6015 95.5917 11.6546C95.6448 11.7114 95.6667 11.7827 95.6612 11.8669C95.6576 12.0024 95.6484 12.1635 95.632 12.341C95.6155 12.5204 95.5953 12.6962 95.5715 12.8682C95.5496 13.0348 95.5258 13.1812 95.4983 13.3021C95.4819 13.3826 95.4379 13.4448 95.3684 13.4851C95.3189 13.5144 95.264 13.529 95.2036 13.529L95.2054 13.5309Z" fill="#3A3A3A"/>
<path d="M104.095 15.9065C104.023 15.9065 103.959 15.8827 103.902 15.8351C103.84 15.7821 103.805 15.7107 103.8 15.621L103.743 14.7131L102.903 14.7661C102.835 14.7661 102.773 14.7423 102.72 14.6966C102.661 14.6453 102.63 14.5813 102.625 14.5044C102.619 14.4238 102.643 14.3543 102.694 14.2957C102.746 14.2371 102.81 14.206 102.885 14.2005L103.705 14.1493L103.675 13.6825L102.738 13.7411C102.669 13.7411 102.606 13.7154 102.553 13.666C102.497 13.6129 102.464 13.5489 102.46 13.472C102.455 13.3969 102.478 13.3274 102.53 13.2706C102.581 13.212 102.645 13.1809 102.722 13.1754L103.141 13.148C103.108 13.0748 103.075 12.9979 103.038 12.921C102.996 12.8276 102.963 12.7617 102.94 12.7215C102.905 12.6483 102.903 12.5769 102.932 12.5036C102.951 12.4561 102.98 12.4176 103.018 12.3883L102.574 12.4158C102.504 12.4158 102.442 12.392 102.387 12.3426C102.326 12.2895 102.293 12.2236 102.29 12.1485C102.284 12.068 102.31 11.9984 102.363 11.9417C102.416 11.8868 102.482 11.8557 102.557 11.852L103.558 11.7898L103.531 11.3596L102.766 11.4072C102.698 11.4072 102.636 11.3834 102.583 11.3358C102.526 11.2864 102.493 11.2205 102.487 11.1454C102.482 11.0649 102.506 10.9953 102.557 10.9404C102.608 10.8855 102.672 10.8544 102.747 10.8489L103.494 10.8013L103.467 10.3729C103.461 10.2796 103.487 10.2027 103.542 10.1441C103.597 10.0874 103.664 10.0544 103.745 10.0508H103.769C103.842 10.0508 103.908 10.0727 103.965 10.1185C104.027 10.1698 104.062 10.243 104.067 10.3363L104.095 10.7647L104.823 10.7189H104.842C104.909 10.7189 104.97 10.7409 105.023 10.7848C105.081 10.8342 105.112 10.9001 105.118 10.9807C105.123 11.0576 105.1 11.1253 105.048 11.182C104.997 11.2406 104.933 11.2717 104.856 11.2754L104.129 11.3211L104.157 11.7513L105.12 11.6909H105.142C105.213 11.6909 105.275 11.7129 105.327 11.7568C105.385 11.8062 105.416 11.8721 105.422 11.9527C105.427 12.0277 105.403 12.0973 105.352 12.1577C105.301 12.2181 105.233 12.251 105.155 12.2565L104.732 12.284C104.77 12.306 104.801 12.3371 104.825 12.3773C104.865 12.4451 104.874 12.5201 104.851 12.6007C104.836 12.6483 104.812 12.7215 104.776 12.8203C104.746 12.9009 104.719 12.9777 104.69 13.0546L105.136 13.0272H105.158C105.23 13.0272 105.292 13.051 105.343 13.0967C105.398 13.148 105.429 13.212 105.435 13.2871C105.438 13.3621 105.416 13.4317 105.369 13.4903C105.319 13.5507 105.255 13.5836 105.173 13.5891L104.278 13.6459L104.307 14.1127L105.096 14.0632H105.118C105.189 14.0632 105.252 14.0852 105.305 14.1328C105.363 14.184 105.394 14.2499 105.4 14.3305C105.405 14.4074 105.381 14.4751 105.33 14.5318C105.279 14.5904 105.213 14.6215 105.133 14.627L104.344 14.6764L104.4 15.5844C104.406 15.6722 104.382 15.7491 104.325 15.8095C104.27 15.8699 104.199 15.9029 104.117 15.9084H104.096L104.095 15.9065ZM103.373 12.3664C103.414 12.3938 103.447 12.4341 103.47 12.4853C103.494 12.5293 103.524 12.5933 103.562 12.6775C103.599 12.7599 103.635 12.8441 103.672 12.9302C103.703 13.0034 103.729 13.0638 103.747 13.1132L104.098 13.0912C104.117 13.029 104.139 12.9613 104.161 12.8844C104.186 12.7984 104.21 12.716 104.232 12.6373C104.254 12.5586 104.27 12.5018 104.28 12.4634C104.294 12.3993 104.327 12.3462 104.378 12.306L103.373 12.37V12.3664ZM105.951 15.7711C105.879 15.7711 105.813 15.7455 105.753 15.696C105.689 15.6411 105.652 15.5679 105.647 15.48L105.376 11.1765C105.36 10.9203 105.38 10.7134 105.433 10.5597C105.489 10.4022 105.603 10.2833 105.771 10.2064C105.934 10.1332 106.174 10.0856 106.483 10.0654C106.575 10.0599 106.661 10.0563 106.742 10.0563C106.93 10.0563 107.086 10.0727 107.205 10.1057C107.38 10.1533 107.51 10.2485 107.587 10.3876C107.662 10.523 107.708 10.7134 107.723 10.9532C107.739 11.2058 107.717 11.4108 107.66 11.5609C107.602 11.7165 107.496 11.8319 107.344 11.9032C107.197 11.9728 106.996 12.0167 106.743 12.0369H106.718C106.635 12.0369 106.568 12.0112 106.515 11.9618C106.458 11.9087 106.423 11.8373 106.408 11.7513C106.397 11.6653 106.421 11.5902 106.476 11.528C106.531 11.4658 106.602 11.4291 106.69 11.42C106.921 11.3944 107.009 11.3523 107.042 11.3211C107.088 11.279 107.108 11.182 107.098 11.0429C107.091 10.9203 107.071 10.8287 107.042 10.772C107.014 10.7189 106.963 10.686 106.888 10.6713C106.837 10.6603 106.769 10.6548 106.687 10.6548C106.637 10.6548 106.58 10.6567 106.52 10.6603C106.359 10.6713 106.236 10.6915 106.156 10.7189C106.083 10.7445 106.035 10.7885 106.013 10.8489C105.987 10.9148 105.98 11.0118 105.987 11.1381L106.057 12.2382L107.051 12.176C107.091 12.1742 107.13 12.1723 107.168 12.1723C107.424 12.1723 107.611 12.2327 107.726 12.3517C107.858 12.489 107.906 12.7032 107.869 12.9906C107.842 13.2267 107.798 13.4518 107.736 13.6587C107.675 13.8582 107.602 14.0541 107.514 14.2371C107.622 14.3543 107.739 14.4641 107.862 14.563C107.988 14.6673 108.122 14.7625 108.259 14.8503C108.329 14.8943 108.371 14.9602 108.384 15.048C108.396 15.1322 108.378 15.2109 108.33 15.2787C108.277 15.3482 108.206 15.3903 108.116 15.405C108.094 15.4086 108.074 15.4105 108.054 15.4105C107.99 15.4105 107.928 15.3922 107.873 15.3574C107.613 15.1872 107.38 14.9968 107.186 14.7881C107.042 14.9931 106.866 15.1926 106.667 15.3775C106.606 15.4361 106.533 15.4709 106.447 15.48C106.434 15.48 106.419 15.4819 106.407 15.4819C106.353 15.4819 106.304 15.469 106.26 15.4416C106.266 15.5295 106.24 15.6063 106.183 15.6686C106.127 15.7308 106.055 15.7656 105.971 15.7693H105.951V15.7711ZM106.231 14.9547C106.458 14.7405 106.645 14.5227 106.795 14.2957C106.52 13.882 106.306 13.375 106.158 12.791L106.094 12.7947L106.231 14.9547ZM106.723 12.7544C106.815 13.0949 106.941 13.4043 107.102 13.677C107.181 13.4701 107.236 13.2468 107.271 13.0125C107.289 12.8606 107.269 12.8002 107.247 12.7764C107.234 12.7617 107.192 12.7361 107.069 12.7361C107.047 12.7361 107.025 12.7361 107.001 12.7379L106.723 12.7563V12.7544Z" fill="#3A3A3A"/>
<path d="M111.644 15.0116C111.615 15.0116 111.586 15.0079 111.554 15.0006C111.468 14.9786 111.403 14.9292 111.357 14.8542C111.316 14.7773 111.307 14.6949 111.327 14.6071C111.349 14.5174 111.399 14.4515 111.476 14.4112C111.943 14.1385 112.274 13.7888 112.459 13.3751C112.64 12.9688 112.704 12.4526 112.649 11.843L111.626 11.9419C111.646 12.1066 111.662 12.2659 111.677 12.4196C111.694 12.5807 111.703 12.7326 111.708 12.8699C111.712 12.9578 111.683 13.0365 111.62 13.1006C111.558 13.1646 111.483 13.1994 111.395 13.2031C111.298 13.2031 111.227 13.1738 111.166 13.1152C111.102 13.0548 111.068 12.9779 111.064 12.8901C111.058 12.7583 111.051 12.6136 111.038 12.4562C111.025 12.3098 111.011 12.1597 110.992 12.0041L109.653 12.1341C109.642 12.1341 109.629 12.1341 109.618 12.1341C109.545 12.1341 109.477 12.1103 109.42 12.0627C109.354 12.0078 109.316 11.9364 109.307 11.8467C109.297 11.7588 109.321 11.6801 109.376 11.6142C109.431 11.5483 109.504 11.5099 109.592 11.5007L110.905 11.3744C110.886 11.2225 110.863 11.0797 110.837 10.9461C110.808 10.7996 110.78 10.6733 110.755 10.569C110.733 10.4775 110.744 10.3933 110.786 10.3164C110.83 10.2395 110.897 10.1882 110.983 10.1663C111.013 10.159 111.042 10.1553 111.069 10.1553C111.124 10.1553 111.179 10.1699 111.232 10.1992C111.313 10.2432 111.362 10.3109 111.381 10.3987C111.413 10.5159 111.443 10.6605 111.472 10.8253C111.5 10.9808 111.525 11.1438 111.549 11.3122L112.587 11.2133C112.569 11.0321 112.548 10.8545 112.526 10.6825C112.503 10.5031 112.479 10.342 112.453 10.2047C112.44 10.1169 112.459 10.0345 112.506 9.96126C112.556 9.88621 112.625 9.84045 112.713 9.82763C112.735 9.82397 112.759 9.82031 112.781 9.82031C112.845 9.82031 112.905 9.84045 112.96 9.87706C113.033 9.92831 113.079 9.99787 113.096 10.0857C113.118 10.2267 113.141 10.3951 113.167 10.591C113.191 10.7758 113.213 10.9625 113.237 11.1529L114.483 11.0321C114.494 11.0321 114.507 11.0321 114.518 11.0321C114.591 11.0321 114.659 11.0559 114.716 11.1035C114.782 11.1584 114.82 11.2298 114.829 11.3177C114.838 11.4055 114.815 11.4842 114.76 11.5501C114.705 11.616 114.633 11.6545 114.545 11.6636L113.306 11.7826C113.367 12.5057 113.271 13.1463 113.024 13.6827C112.772 14.23 112.364 14.6656 111.809 14.975C111.756 15.0024 111.703 15.0153 111.65 15.0153L111.644 15.0116Z" fill="#3A3A3A"/>
<path d="M118.688 14.1862C118.618 14.1862 118.552 14.1642 118.494 14.1185C118.422 14.0635 118.382 13.9922 118.371 13.9043L118.032 11.3215C117.805 11.5905 117.56 11.856 117.304 12.1122C117.025 12.3886 116.744 12.6431 116.464 12.8682C116.407 12.914 116.343 12.9378 116.273 12.9378C116.258 12.9378 116.244 12.9378 116.227 12.9341C116.14 12.9231 116.066 12.8829 116.006 12.817C115.947 12.7419 115.925 12.6614 115.936 12.5717C115.947 12.4838 115.988 12.4124 116.055 12.3557C116.423 12.0628 116.778 11.7425 117.108 11.4038C117.437 11.0652 117.741 10.7101 118.008 10.3476C118.276 9.9852 118.503 9.62276 118.68 9.27314C118.722 9.1926 118.785 9.13768 118.867 9.11022C118.9 9.09924 118.935 9.09375 118.968 9.09375C119.017 9.09375 119.066 9.10656 119.114 9.13036C119.195 9.17063 119.25 9.2347 119.277 9.32073C119.304 9.40676 119.297 9.49097 119.257 9.57151C119.169 9.73992 119.066 9.91381 118.955 10.0877C118.845 10.2598 118.724 10.4355 118.596 10.6112L119.017 13.8183C119.028 13.9061 119.006 13.9867 118.953 14.0562C118.898 14.1276 118.825 14.1697 118.731 14.1807C118.717 14.1825 118.702 14.1844 118.688 14.1844V14.1862Z" fill="#3A3A3A"/>
<path d="M122.652 13.5693C122.584 13.5693 122.522 13.5473 122.465 13.5052C122.392 13.4503 122.35 13.3789 122.335 13.2929L121.645 9.05347C121.631 8.96561 121.651 8.88507 121.702 8.81368C121.755 8.74046 121.825 8.69836 121.913 8.68371C121.933 8.68005 121.953 8.67822 121.971 8.67822C122.039 8.67822 122.103 8.69836 122.158 8.73863C122.231 8.78988 122.273 8.86127 122.288 8.94914L122.524 10.3971C122.555 10.3238 122.606 10.2689 122.68 10.2341C122.729 10.2103 122.78 10.1975 122.831 10.1975C122.863 10.1975 122.896 10.203 122.927 10.2103C123.102 10.2653 123.293 10.333 123.49 10.4135C123.683 10.4922 123.875 10.5764 124.063 10.6661C124.248 10.754 124.413 10.84 124.552 10.9224C124.631 10.97 124.682 11.0396 124.706 11.1274C124.73 11.2153 124.717 11.3013 124.667 11.38C124.62 11.4587 124.55 11.5082 124.466 11.5301C124.439 11.5375 124.409 11.5411 124.382 11.5411C124.325 11.5411 124.268 11.5265 124.215 11.499C124.087 11.4276 123.933 11.3526 123.76 11.272C123.584 11.1915 123.408 11.111 123.227 11.0341C123.042 10.9535 122.875 10.8876 122.722 10.8291C122.663 10.8071 122.615 10.7741 122.577 10.7265L122.978 13.1904C122.993 13.2783 122.972 13.3588 122.921 13.4339C122.868 13.5089 122.797 13.5547 122.705 13.5693C122.687 13.573 122.669 13.573 122.652 13.573V13.5693Z" fill="#3A3A3A"/>
</g>
<defs>
<clipPath id="clip0_3141_4975">
<rect width="126" height="40" fill="white"/>
</clipPath>
</defs>
</svg>
