<svg width="963" height="300" viewBox="0 0 963 300" fill="none" xmlns="http://www.w3.org/2000/svg">
<path d="M383.121 89.6035V92.6323H376.688C372.786 92.6323 369.506 91.9004 366.933 90.4533C364.326 88.9893 362.097 86.5242 360.306 83.1251C358.59 79.8607 356.942 75.3174 355.412 69.613C353.057 61.2332 349.912 55.2344 346.077 51.8017C342.293 48.411 337.617 46.6947 332.159 46.6947H330.141V41.899H332.159C344.975 41.899 351.207 36.203 351.207 24.483C351.207 12.763 345.387 7.31951 333.421 7.31951H326.357V92.6323H315.256V1.7666H333.421C342.57 1.7666 349.811 3.74377 354.941 7.63922C360.163 11.6188 362.812 17.2474 362.812 24.3568C362.812 29.8677 361.155 34.5288 357.892 38.197C355.277 41.1333 351.695 43.3124 347.221 44.6923C351.56 46.1225 355.252 48.5877 358.22 52.0541C361.853 56.2945 364.612 61.595 366.42 67.7957C367.992 73.2477 369.556 77.5301 371.07 80.5085C372.517 83.3859 374.123 85.4556 375.847 86.684C377.596 87.9292 379.707 88.8379 382.137 89.3847L383.121 89.6035Z" fill="#42382B"/>
<path d="M447.706 83.7477V92.6323H406.331V1.7666H447.327V10.6513L423.831 7.5635C421.022 7.19331 418.878 6.95773 417.432 6.86518V42.7487C418.819 42.6983 420.989 42.5889 423.915 42.4038L445.94 41.066V49.5468L423.915 48.2091C420.989 48.024 418.819 47.9146 417.432 47.8641V87.5422C418.962 87.4496 421.14 87.2141 423.957 86.8354L447.706 83.7477Z" fill="#42382B"/>
<path d="M527.933 69.2851C527.933 74.207 526.772 78.6157 524.468 82.3765C522.172 86.1374 518.876 89.1157 514.688 91.2359C510.534 93.3309 505.656 94.3994 500.181 94.3994C496.767 94.3994 492.697 93.9703 488.097 93.1122C483.522 92.2708 479.099 91.1518 474.944 89.7972L473.977 89.4775L474.944 79.7599H477.316L477.678 80.0712C480.831 82.8224 484.439 85.0015 488.4 86.5328C492.352 88.0725 496.321 88.8465 500.181 88.8465C505.555 88.8465 509.945 87.3657 513.216 84.4378C516.504 81.5015 518.094 77.665 518.094 72.6926C518.094 69.9666 517.488 67.4005 516.277 65.07C515.058 62.6974 512.989 60.2322 510.138 57.7418C507.22 55.2009 503.15 52.3993 498.037 49.4293C494.412 47.3175 490.897 45.0711 487.601 42.7406C484.203 40.3511 481.386 37.5242 479.208 34.3439C476.971 31.0795 475.836 27.1251 475.836 22.5902C475.836 15.8342 478.325 10.3149 483.219 6.16709C488.055 2.07813 494.488 0 502.326 0C505.748 0 509.474 0.370194 513.401 1.09375C517.379 1.82573 520.507 2.78487 522.71 3.9291L523.467 4.31612L522.652 13.3775H520.188L519.818 12.9652C515.293 8.05171 509.407 5.55291 502.326 5.55291C497.272 5.55291 493.176 6.83176 490.14 9.36422C487.138 11.8714 485.675 15.1611 485.675 19.4352C485.675 22.5986 486.508 25.3414 488.147 27.5879C489.863 29.9436 492.117 32.0975 494.841 33.9821C497.659 35.9256 500.72 37.8439 503.957 39.6612C507.75 41.8571 511.492 44.2129 515.083 46.6612C518.775 49.1853 521.861 52.2478 524.249 55.7646C526.697 59.374 527.933 63.9173 527.933 69.2851Z" fill="#42382B"/>
<path d="M639.788 28.6059C637.425 22.8847 634.061 17.8198 629.806 13.5541C625.542 9.29691 620.488 5.93151 614.761 3.56732C609.043 1.20313 602.786 0 596.176 0C589.566 0 583.31 1.20313 577.591 3.56732C571.873 5.93151 566.81 9.29691 562.555 13.5541C558.291 17.8198 554.927 22.8847 552.564 28.6059C550.201 34.3271 548.999 40.5867 548.999 47.1997C548.999 53.8127 550.201 60.0724 552.564 65.7935C554.927 71.5147 558.291 76.5796 562.555 80.8453C566.819 85.1025 571.873 88.4679 577.591 90.8321C583.31 93.1963 589.566 94.3994 596.176 94.3994C602.786 94.3994 609.043 93.1963 614.761 90.8321C620.48 88.4679 625.542 85.1025 629.806 80.8369C634.061 76.5796 637.425 71.5147 639.788 65.7935C642.16 60.0639 643.354 53.8127 643.354 47.1997C643.354 40.5867 642.16 34.3355 639.788 28.6059ZM631.244 47.1997C631.244 55.4702 629.755 62.8488 626.821 69.1253C623.911 75.3597 619.773 80.2563 614.534 83.689C609.303 87.1133 603.131 88.8465 596.176 88.8465C589.222 88.8465 583.049 87.1133 577.818 83.689C572.579 80.2647 568.442 75.3849 565.532 69.1926C562.597 62.9498 561.108 55.5543 561.108 47.1997C561.108 38.8451 562.622 31.4496 565.591 25.2152C568.542 19.0229 572.68 14.1431 577.885 10.7104C583.074 7.28609 589.23 5.55291 596.176 5.55291C603.122 5.55291 609.295 7.31133 614.526 10.7693C619.773 14.244 623.911 19.1407 626.829 25.333C629.755 31.5758 631.244 38.9292 631.244 47.1997Z" fill="#42382B"/>
<path d="M740.231 89.6035V92.6323H733.798C729.896 92.6323 726.608 91.9004 724.035 90.4533C721.436 88.9893 719.208 86.5242 717.416 83.1251C715.701 79.8691 714.052 75.3174 712.522 69.613C710.167 61.2332 707.022 55.2344 703.187 51.8017C699.403 48.411 694.727 46.6947 689.27 46.6947H687.251V41.899H689.27C702.086 41.899 708.317 36.203 708.317 24.483C708.317 12.763 702.498 7.31951 690.531 7.31951H683.467V92.6323H672.366V1.7666H690.531C699.681 1.7666 706.921 3.74377 712.043 7.63922C717.273 11.6188 719.922 17.239 719.922 24.3568C719.922 29.8677 718.266 34.5203 715.003 38.197C712.379 41.1333 708.805 43.3124 704.331 44.6923C708.67 46.1225 712.362 48.5877 715.331 52.0541C718.964 56.2945 721.722 61.595 723.53 67.7957C725.103 73.2561 726.658 77.5301 728.172 80.5169C729.627 83.3859 731.233 85.4641 732.949 86.684C734.698 87.9292 736.817 88.8379 739.247 89.3847L740.231 89.6035Z" fill="#42382B"/>
<path d="M824.747 1.7666V10.8952L798.602 7.5635C795.759 7.20172 793.615 6.96614 792.202 6.86518V92.6323H781.102V6.86518C779.689 6.96614 777.544 7.20172 774.702 7.5635L748.557 10.8952V1.7666H824.747Z" fill="#42382B"/>
<path d="M438.204 131.166L400.857 223.799H396.383L373.644 167.226L350.778 223.799H346.304L308.958 131.166H320.882L351.316 207.224L370.515 159.688L359.036 131.166H370.969L401.193 206.77L426.22 131.166H438.204Z" fill="#42382B"/>
<path d="M502.856 213.147V222.032H461.481V131.166H502.478V140.051L478.973 136.963C476.164 136.593 474.028 136.366 472.582 136.265V172.148C473.961 172.098 476.131 171.988 479.065 171.803L501.09 170.465V178.955L479.065 177.609C476.131 177.423 473.961 177.314 472.582 177.264V216.942C474.104 216.849 476.29 216.613 479.099 216.235L502.856 213.147Z" fill="#42382B"/>
<path d="M604.342 152.78C600.197 146.007 594.343 140.656 586.935 136.854C579.551 133.084 570.788 131.166 560.882 131.166H531.869V222.032H560.882C570.788 222.032 579.56 220.114 586.935 216.344C594.343 212.55 600.197 207.19 604.342 200.418C608.48 193.645 610.582 185.627 610.582 176.599C610.582 167.571 608.48 159.562 604.342 152.78ZM542.97 136.719H560.882C572.655 136.719 581.956 140.236 588.533 147.177C595.126 154.143 598.473 164.038 598.473 176.599C598.473 189.16 595.126 199.063 588.533 206.021C581.965 212.962 572.655 216.479 560.882 216.479H542.97V136.719Z" fill="#42382B"/>
<path d="M707.022 152.78C702.876 146.007 697.023 140.656 689.615 136.854C682.231 133.084 673.468 131.166 663.562 131.166H634.549V222.032H663.562C673.468 222.032 682.24 220.114 689.615 216.344C697.023 212.55 702.876 207.19 707.022 200.418C711.16 193.645 713.262 185.627 713.262 176.599C713.262 167.571 711.16 159.562 707.022 152.78ZM645.65 136.719H663.562C675.335 136.719 684.636 140.236 691.212 147.177C697.806 154.143 701.153 164.038 701.153 176.599C701.153 189.16 697.806 199.063 691.212 206.021C684.645 212.962 675.335 216.479 663.562 216.479H645.65V136.719Z" fill="#42382B"/>
<path d="M748.33 131.166H737.229V222.032H748.33V131.166Z" fill="#42382B"/>
<path d="M853.954 131.166L850.708 223.799H847.386L785.138 148.523L787.855 222.032H776.662L779.908 129.399H783.229L845.477 204.683L842.761 131.166H853.954Z" fill="#42382B"/>
<path d="M960.746 174.58V210.691L960.376 211.061C956.407 215.04 951.487 218.187 945.752 220.433C940.042 222.663 933.583 223.799 926.561 223.799C919.539 223.799 912.644 222.604 906.555 220.24C900.467 217.884 895.068 214.527 890.51 210.27C885.952 206.013 882.344 200.965 879.813 195.285C877.273 189.598 875.978 183.313 875.978 176.599C875.978 169.885 877.273 163.6 879.813 157.913C882.344 152.234 885.952 147.186 890.51 142.928C895.059 138.671 900.458 135.323 906.555 132.958C912.644 130.594 919.38 129.399 926.561 129.399C929.622 129.399 933.003 129.618 936.611 130.039C940.21 130.468 943.708 131.048 947.013 131.764C950.369 132.496 953.245 133.396 955.583 134.431L956.407 134.801L955.599 143.913H953.211L952.858 143.601C949.637 140.783 945.71 138.621 941.186 137.165C936.628 135.701 931.708 134.952 926.561 134.952C918.925 134.952 912.147 136.694 906.395 140.135C900.66 143.576 896.127 148.456 892.932 154.648C889.719 160.874 888.088 168.261 888.088 176.599C888.088 184.937 889.719 192.324 892.932 198.55C896.127 204.742 900.66 209.631 906.395 213.063C912.139 216.504 918.925 218.246 926.561 218.246C931.287 218.246 935.719 217.59 939.739 216.286C943.515 215.066 946.845 213.316 949.645 211.086V180.133H926.309V174.58H960.746Z" fill="#42382B"/>
<path d="M267.095 157.122L157.376 271.268C155.131 273.665 152.759 275.954 150.245 278.099C142.785 284.494 134.292 289.702 125.05 293.437C102.378 302.566 75.1812 302.86 47.7577 289.946C30.7873 281.953 17.1975 268.062 9.45233 250.983C-7.82084 212.928 0.00843191 175.455 21.6125 150.029C25.0604 145.957 28.8615 142.188 32.9822 138.789C36.7917 135.625 40.8619 132.756 45.1676 130.249C58.6396 122.366 74.315 117.856 91.0415 117.856C107.768 117.856 123.427 122.366 136.89 130.257C136.26 131.275 135.604 132.277 134.922 133.253C133.871 134.759 132.761 136.214 131.601 137.602C131.273 137.998 130.936 138.393 130.592 138.789C130.339 139.083 130.095 139.361 129.809 139.647C129.608 139.899 129.381 140.143 129.145 140.379C128.842 140.707 128.54 141.018 128.228 141.338C117.347 134.388 104.623 130.4 91.0415 130.4C77.4602 130.4 64.7365 134.388 53.8378 141.321C49.8769 143.862 46.1599 146.773 42.7372 150.029C39.1632 153.42 35.8835 157.189 32.9822 161.278C23.5719 174.496 17.9964 191.003 17.9964 208.932C17.9964 252.295 50.6926 287.455 91.0415 287.455C109.803 287.455 126.933 279.849 139.867 267.322L190.896 208.966L181.419 198.129L149.135 161.236C149.353 161.068 149.547 160.908 149.748 160.731C149.908 160.597 150.076 160.437 150.228 160.302H150.245C150.917 159.705 151.582 159.141 152.238 158.552C152.347 158.451 152.448 158.35 152.566 158.249C153.104 157.744 153.659 157.231 154.189 156.718C154.777 156.163 155.349 155.599 155.913 155.002C156.173 154.749 156.434 154.497 156.669 154.236C157.241 153.639 157.805 153.024 158.36 152.419C158.469 152.309 158.587 152.191 158.688 152.057L160.395 150.088H160.412L162.085 152.015L162.11 152.057L201.4 196.968L242.606 149.844L267.095 157.122Z" fill="#E5D0C1"/>
<path d="M286.723 283.636L264.917 297.812L212.963 234.03L223.492 223.647C254.052 256.889 286.723 283.636 286.723 283.636Z" fill="#E5D0C1"/>
<path d="M198.263 44.3136L169.603 45.1549C175.725 55.5708 179.829 67.3077 181.368 79.8438C181.427 80.357 181.494 80.8702 181.545 81.3666C181.578 81.6947 181.612 82.0229 181.646 82.3594C181.721 83.1082 181.78 83.8654 181.831 84.6142C181.881 85.2032 181.915 85.7921 181.948 86.3727V86.4736C181.991 87.2476 182.016 88.0133 182.041 88.7789C182.058 89.5698 182.075 90.3438 182.075 91.1347C182.075 92.2873 182.049 93.4231 181.991 94.559C181.991 95.1395 181.957 95.7032 181.915 96.2837C181.915 96.5361 181.89 96.797 181.864 97.0578C181.822 97.8234 181.763 98.5975 181.696 99.3547C181.62 100.272 181.52 101.155 181.419 102.047C179.266 120.136 171.807 136.601 160.63 149.81L160.395 150.088L158.688 152.057C158.587 152.191 158.469 152.309 158.36 152.419C157.805 153.024 157.241 153.639 156.669 154.236C156.434 154.497 156.173 154.749 155.913 155.002C155.349 155.599 154.777 156.163 154.189 156.718C153.659 157.231 153.104 157.744 152.566 158.249C152.448 158.35 152.347 158.451 152.238 158.552C151.582 159.141 150.917 159.705 150.245 160.302H150.228C150.076 160.437 149.908 160.596 149.748 160.731C149.547 160.908 149.353 161.068 149.135 161.236C147.865 162.304 146.561 163.322 145.224 164.307C144.854 164.593 144.476 164.871 144.097 165.14C141.507 166.999 138.824 168.724 136.066 170.306C135.511 170.617 134.973 170.92 134.435 171.214C133.476 171.736 132.517 172.232 131.542 172.704C130.81 173.074 130.095 173.427 129.347 173.772C128.977 173.957 128.607 174.117 128.22 174.294C127.816 174.47 127.413 174.639 126.984 174.824C126.269 175.143 125.563 175.429 124.848 175.716C124.453 175.875 124.074 176.018 123.67 176.178C123.208 176.355 122.745 176.54 122.283 176.692C121.602 176.952 120.921 177.188 120.231 177.415C119.449 177.676 118.675 177.945 117.885 178.181C117.246 178.374 116.598 178.576 115.959 178.744C115.261 178.963 114.563 179.14 113.848 179.308C113.016 179.535 112.175 179.737 111.334 179.931C110.686 180.082 110.039 180.225 109.391 180.351C108.878 180.461 108.374 180.562 107.869 180.646C107.44 180.73 106.986 180.814 106.549 180.89C105.17 181.125 103.79 181.327 102.411 181.496C101.823 181.58 101.251 181.63 100.679 181.698C99.6865 181.807 98.6942 181.891 97.685 181.975C97.0796 182.009 96.4572 182.051 95.8434 182.076C95.7761 182.085 95.692 182.085 95.6247 182.085C94.8931 182.127 94.153 182.152 93.4298 182.177H93.3709C92.5973 182.194 91.8068 182.211 91.0415 182.211C90.2762 182.211 89.4689 182.194 88.7037 182.177H88.6532C87.9216 182.152 87.1731 182.127 86.4499 182.085C86.3742 182.085 86.2985 182.085 86.2144 182.076C85.6174 182.051 85.0203 182.009 84.4232 181.975C84.1121 181.95 83.7925 181.925 83.4729 181.891C82.7918 181.841 82.0938 181.773 81.4042 181.698C80.8155 181.63 80.2437 181.58 79.6634 181.496C77.9899 181.294 76.3333 181.033 74.685 180.747C74.0291 180.629 73.3815 180.494 72.7256 180.36C72.7172 180.36 72.7003 180.36 72.6919 180.351C72.036 180.225 71.38 180.082 70.7409 179.931C69.9 179.737 69.059 179.535 68.2181 179.308C67.5033 179.14 66.8053 178.963 66.1241 178.744C65.4682 178.576 64.8122 178.374 64.1815 178.181C64.0385 178.139 63.8872 178.097 63.7526 178.038C63.1135 177.844 62.4828 177.642 61.8352 177.415C60.4308 176.952 59.0349 176.439 57.6557 175.892C56.9914 175.631 56.327 175.354 55.6711 175.085C54.8974 174.756 54.1405 174.42 53.3753 174.075C52.795 173.806 52.1979 173.536 51.6345 173.267C51.6177 173.259 51.5924 173.242 51.5672 173.234C51.0038 172.964 50.4571 172.678 49.8937 172.401C48.6659 171.77 47.4465 171.113 46.2272 170.423C45.8824 170.238 45.5208 170.02 45.1676 169.818C47.7072 165.746 50.6001 162.027 53.8378 158.729C55.301 159.654 56.7979 160.546 58.3201 161.362C58.8078 161.631 59.2872 161.892 59.7833 162.128C60.0104 162.254 60.2374 162.355 60.4729 162.473C61.0279 162.75 61.5745 163.02 62.1548 163.28C62.2978 163.348 62.4575 163.423 62.6005 163.491C63.248 163.785 63.904 164.063 64.5515 164.34C65.1654 164.61 65.7793 164.845 66.3932 165.072C66.6539 165.182 66.9062 165.283 67.1669 165.375C67.621 165.544 68.0835 165.703 68.5292 165.855C69.387 166.166 70.2364 166.444 71.1109 166.705C71.6071 166.865 72.1033 166.999 72.5994 167.142C73.1208 167.294 73.6254 167.411 74.1468 167.554C74.4159 167.63 74.685 167.689 74.9709 167.756C75.7698 167.958 76.5603 168.127 77.376 168.295C77.7292 168.362 78.0908 168.429 78.4525 168.497C79.0243 168.615 79.613 168.716 80.1932 168.8C80.6389 168.867 81.0678 168.934 81.4967 168.993C83.1029 169.229 84.726 169.389 86.3658 169.498C86.9293 169.548 87.4927 169.582 88.073 169.599C89.0569 169.633 90.0492 169.658 91.0415 169.658C92.0338 169.658 93.0262 169.633 94.0017 169.599C94.5819 169.582 95.1454 169.548 95.7172 169.498C97.3487 169.389 98.9717 169.229 100.578 168.993C101.015 168.934 101.444 168.867 101.873 168.8C102.016 168.783 102.142 168.758 102.277 168.732C103.101 168.615 103.9 168.455 104.699 168.295C105.497 168.127 106.313 167.958 107.112 167.756C107.507 167.655 107.903 167.563 108.298 167.445C109.097 167.26 109.87 167.033 110.653 166.797C111.359 166.595 112.057 166.368 112.755 166.133C112.822 166.107 112.906 166.082 112.974 166.048C113.747 165.804 114.504 165.535 115.261 165.241C116.018 164.955 116.766 164.652 117.515 164.34C118.255 164.029 119.003 163.709 119.735 163.356C120.466 163.028 121.198 162.683 121.921 162.304C122.645 161.959 123.351 161.589 124.066 161.194C124.772 160.807 125.47 160.403 126.168 159.982C126.866 159.587 127.556 159.158 128.228 158.72C128.725 158.417 129.212 158.098 129.7 157.778C129.7 157.778 129.7 157.761 129.717 157.753C130.179 157.433 130.667 157.122 131.121 156.785C131.609 156.44 132.105 156.095 132.585 155.725C133.022 155.405 133.451 155.077 133.88 154.741C134.477 154.278 135.082 153.798 135.679 153.302C136.032 153.008 136.377 152.713 136.722 152.41C137.1 152.082 137.487 151.745 137.866 151.392C138.017 151.266 138.16 151.131 138.311 150.997C138.648 150.694 138.984 150.374 139.312 150.063C139.321 150.054 139.337 150.038 139.346 150.029L139.405 150.088L140.002 149.398C140.002 149.398 140.019 149.381 140.035 149.364C141.213 148.237 142.365 147.026 143.458 145.797C143.483 145.797 143.458 145.789 143.458 145.789C143.887 145.334 144.282 144.889 144.677 144.409C145.073 143.971 145.434 143.534 145.796 143.08C145.838 143.038 145.872 142.995 145.922 142.945C146.292 142.482 146.662 142.02 147.015 141.574C147.402 141.086 147.764 140.598 148.125 140.093C148.125 140.093 148.142 140.093 148.142 140.084C148.453 139.655 148.773 139.235 149.084 138.789C149.378 138.376 149.656 137.973 149.942 137.569C149.95 137.56 149.967 137.535 149.975 137.51C150.261 137.098 150.539 136.677 150.8 136.273C151.371 135.415 151.901 134.557 152.423 133.682C152.692 133.253 152.952 132.807 153.196 132.361C153.482 131.881 153.751 131.393 154.029 130.897C154.256 130.485 154.475 130.072 154.685 129.652C155.879 127.388 156.972 125.041 157.956 122.626C158.15 122.147 158.351 121.659 158.528 121.171C158.721 120.691 158.898 120.195 159.083 119.698C159.646 118.159 160.151 116.611 160.622 115.004C160.765 114.575 160.883 114.137 161.009 113.683C161.143 113.178 161.295 112.656 161.412 112.152C161.9 110.301 162.321 108.433 162.665 106.54C162.758 106.094 162.825 105.656 162.892 105.219C162.968 104.79 163.052 104.352 163.094 103.906C163.162 103.528 163.22 103.132 163.271 102.737C163.431 101.567 163.582 100.356 163.691 99.1612C163.75 98.5133 163.801 97.8402 163.851 97.1756C163.902 96.5109 163.935 95.8378 163.977 95.1732C164.011 94.5422 164.028 93.8943 164.053 93.2633V93.1455C164.053 92.4808 164.078 91.7993 164.078 91.1347C164.078 90.2765 164.061 89.4099 164.028 88.5517C164.028 88.0638 163.994 87.5842 163.977 87.0962C163.918 85.7585 163.818 84.4291 163.691 83.1082C163.633 82.4435 163.557 81.7873 163.481 81.131C163.414 80.601 163.355 80.0625 163.271 79.5409C163.229 79.2296 163.187 78.9099 163.136 78.607C163.086 78.1442 163.002 77.6815 162.926 77.244C162.825 76.6298 162.724 76.024 162.607 75.4267C162.607 75.3678 162.59 75.3173 162.573 75.2584C162.455 74.6358 162.337 74.0048 162.194 73.399C162.102 72.9447 162.001 72.4988 161.892 72.036C161.833 71.7836 161.774 71.5396 161.715 71.3041C161.581 70.7151 161.429 70.1514 161.278 69.5877C160.672 67.2824 159.974 65.0108 159.159 62.798C158.982 62.268 158.78 61.7379 158.578 61.2331C158.385 60.6862 158.166 60.173 157.965 59.6514C157.948 59.6177 157.931 59.5841 157.906 59.5504C157.737 59.1129 157.561 58.6754 157.367 58.2463C157.199 57.8341 157.031 57.4386 156.838 57.0516C156.661 56.6393 156.468 56.2103 156.274 55.798C155.147 53.4086 153.92 51.0864 152.582 48.84C152.372 48.4867 152.162 48.1417 151.952 47.8052C151.271 46.6946 150.564 45.6177 149.833 44.5576C149.58 44.179 149.336 43.8088 149.059 43.447C148.453 42.5888 147.823 41.7475 147.183 40.9229C146.923 40.5864 146.671 40.2583 146.401 39.9301C146.191 39.6609 145.989 39.4169 145.771 39.1561L145.611 38.9626C145.333 38.6008 145.039 38.2643 144.736 37.9109C144.467 37.5996 144.19 37.2799 143.904 36.9686C143.492 36.5059 143.096 36.0515 142.684 35.614C140.17 32.9217 137.479 30.4145 134.636 28.1344C134.166 27.7558 133.703 27.3856 133.215 27.0238C127.043 22.3207 120.138 18.6104 112.746 16.1368C112.318 15.9853 111.906 15.8591 111.477 15.7329C111.224 15.6572 110.98 15.5731 110.72 15.4974C109.694 15.1776 108.643 14.9 107.6 14.6392C106.751 14.4288 105.893 14.2353 105.043 14.0502C104.665 13.9745 104.295 13.8988 103.925 13.8315C103.656 13.7726 103.395 13.7305 103.126 13.68C101.738 13.4192 100.342 13.2341 98.9296 13.0574C96.3395 12.7546 93.6989 12.6115 91.0331 12.6115C50.6842 12.6115 17.988 47.7715 17.988 91.1347C17.988 91.7993 17.988 92.4808 18.0132 93.1455V93.2633C18.03 93.8943 18.0553 94.5422 18.0889 95.1732C18.1225 95.8378 18.1562 96.5109 18.1982 97.1756C18.2487 97.8402 18.2991 98.5133 18.3664 99.1612C18.4841 100.356 18.6187 101.567 18.7869 102.737C18.8289 103.132 18.8878 103.528 18.9551 103.906C19.0139 104.352 19.0896 104.79 19.1737 105.219C19.2242 105.656 19.3083 106.094 19.3924 106.54C19.7456 108.433 20.166 110.301 20.637 112.152C20.7715 112.656 20.9061 113.178 21.049 113.683C21.1668 114.137 21.2929 114.575 21.4359 115.004C21.89 116.611 22.4198 118.159 22.9832 119.698C23.1598 120.195 23.3364 120.691 23.5214 121.171C23.7149 121.659 23.9083 122.147 24.1101 122.626C25.0856 125.041 26.1704 127.388 27.373 129.652C27.5748 130.072 27.8019 130.485 28.0289 130.897C28.298 131.393 28.5672 131.881 28.8531 132.361C29.1138 132.807 29.3745 133.253 29.6268 133.682C30.1566 134.557 30.6864 135.415 31.2498 136.273C31.5105 136.677 31.8048 137.098 32.0823 137.51C32.0992 137.535 32.1076 137.56 32.1244 137.569C32.4019 137.973 32.6878 138.376 32.9737 138.789C28.8531 142.188 25.052 145.957 21.6041 150.029C21.6041 150.029 21.5957 150.021 21.5788 150.004C21.1668 149.524 20.7715 149.028 20.3679 148.532C19.9474 148.018 19.5437 147.514 19.1485 146.992C18.7448 146.487 18.3496 145.965 17.9543 145.435C17.1722 144.401 16.4322 143.332 15.6922 142.255C14.9521 141.178 14.2457 140.084 13.5562 138.974C13.2114 138.41 12.8666 137.846 12.547 137.3C12.2022 136.719 11.8827 136.155 11.5631 135.583C11.1763 134.927 10.8315 134.262 10.4783 133.589C10.2092 133.093 9.96529 132.605 9.713 132.108C9.36821 131.435 9.02342 130.745 8.71227 130.047C8.2077 128.987 7.72835 127.927 7.25742 126.842C6.98832 126.202 6.72762 125.563 6.46692 124.906C6.30714 124.519 6.16418 124.141 6.02122 123.754C5.86144 123.358 5.71007 122.98 5.56711 122.567C5.52506 122.458 5.49142 122.332 5.44096 122.223C5.21391 121.634 5.01208 121.028 4.82707 120.414C4.80184 120.372 4.77661 120.33 4.7682 120.279C4.57478 119.741 4.39818 119.202 4.22999 118.638C4.12067 118.31 4.01134 117.974 3.91043 117.637C3.74224 117.065 3.57405 116.501 3.42268 115.938C3.25449 115.374 3.11152 114.827 2.96015 114.263C2.7415 113.405 2.52286 112.555 2.32944 111.706C2.16125 110.965 1.99306 110.233 1.8501 109.493C1.72395 108.862 1.5894 108.231 1.48849 107.583C1.39598 107.154 1.3287 106.725 1.25302 106.304C1.09324 105.311 0.933457 104.319 0.824133 103.326C0.740038 102.804 0.672762 102.283 0.622305 101.744C0.588667 101.584 0.571848 101.408 0.555029 101.248C0.504571 100.852 0.470933 100.457 0.437295 100.061C0.386838 99.565 0.336381 99.0518 0.294333 98.5554C0.277514 98.3282 0.260695 98.1179 0.243876 97.9075C0.201829 97.3859 0.16819 96.8643 0.159781 96.3342C0.0925048 95.3835 0.0588667 94.4412 0.0336381 93.4905C0.00840952 92.6996 0 91.9256 0 91.1347C0.00840952 40.8472 40.761 0.0585938 91.0415 0.0585938C91.8152 0.0585938 92.6057 0.0754207 93.3962 0.0922477C94.7501 0.125902 96.0956 0.19321 97.4412 0.294172C97.9457 0.319412 98.4587 0.353066 98.9633 0.411961C99.5351 0.454028 100.124 0.512922 100.696 0.58023C101.225 0.639125 101.78 0.681192 102.31 0.756914C102.537 0.782154 102.773 0.815808 103.008 0.849462C103.378 0.89153 103.765 0.950424 104.135 0.992492C104.564 1.05139 104.993 1.11869 105.422 1.20283C105.565 1.21966 105.733 1.2449 105.893 1.27855C106.456 1.35427 107.028 1.45523 107.591 1.57302C109.795 1.97687 111.973 2.44803 114.109 3.01173C114.731 3.17159 115.353 3.33986 115.959 3.52495C116.682 3.72688 117.397 3.93721 118.112 4.16438C118.717 4.34106 119.331 4.5514 119.928 4.75332C120.147 4.82063 120.374 4.89635 120.601 4.9889C121.089 5.14876 121.56 5.31703 122.047 5.4853C122.577 5.67881 123.115 5.88073 123.645 6.08266C124.116 6.25934 124.57 6.44444 125.033 6.63795C126.261 7.11752 127.48 7.64757 128.691 8.20286C129.969 8.77497 131.231 9.38916 132.467 10.0286C133.013 10.3062 133.543 10.5839 134.073 10.8699C134.552 11.1308 135.049 11.4 135.536 11.686C136.192 12.031 136.831 12.4096 137.471 12.805C137.967 13.0827 138.446 13.3772 138.925 13.68C139.573 14.0671 140.204 14.4709 140.817 14.9C141.381 15.2618 141.928 15.6236 142.466 15.9938C143.021 16.3555 143.551 16.7341 144.089 17.1296C146.208 18.6524 148.268 20.2931 150.27 21.9926C150.758 22.4217 151.254 22.8592 151.75 23.2967C151.91 23.4229 152.078 23.5827 152.238 23.7258C153.407 24.7859 154.533 25.8712 155.643 26.9902C155.778 27.1248 155.913 27.2678 156.047 27.4025L163.54 0.0922477L179.703 0.176383L190.863 14.3784L202.022 28.5888L198.263 44.3136Z" fill="#6BC5F7"/>
<path d="M320.992 258.017C321.521 258.017 321.816 258.202 321.824 258.496C321.832 258.791 321.639 258.984 320.916 259.481C320.927 260.417 320.93 262.246 320.924 264.966L321.025 274.238C321.059 277.637 321.134 279.774 321.202 281.322L315.525 281.381C315.601 279.732 315.626 277.494 315.593 274.288L315.492 265.017C315.45 261.18 315.374 259.094 315.265 257.731L320.992 258.008V258.017ZM338.887 272.715C338.996 283.005 337.541 287.489 332.639 291.671C329.897 293.984 327.534 295.322 322.312 297.518C321.412 295.002 320.672 293.892 319.15 292.79C323.313 291.334 326.441 289.702 328.661 287.826C332.269 284.772 333.488 281.019 333.404 273.254L333.303 263.788C333.261 260.095 333.194 257.865 333.076 256.511L338.803 256.788C339.341 256.83 339.627 256.973 339.635 257.31C339.635 257.554 339.442 257.798 338.82 258.244C338.764 259.186 338.752 261.015 338.786 263.73L338.887 272.715Z" fill="#42382B"/>
<path d="M356.077 259.413C360.054 264.318 361.56 266.741 363.839 271.89L358.793 274.465C356.463 268.929 355.589 267.423 351.855 262.08L356.077 259.413ZM384.324 262.719C384.711 262.82 384.955 263.107 384.955 263.401C384.955 263.738 384.618 264.082 383.786 264.369C381.406 271.268 380.918 272.622 380.002 274.566C377.723 279.471 374.224 284.275 369.91 288.305C366.563 291.41 363.939 293.26 357.826 296.66C356.859 294.573 356.127 293.647 354.327 292.091C360.054 289.079 362.577 287.379 366.075 284.224C372.971 277.956 376.899 270.923 378.791 261.256L384.324 262.711V262.719ZM380.927 252.716C382.869 254.516 383.937 255.778 386.073 258.639L383.164 260.826C381.465 258.058 380.397 256.746 378.362 254.76L380.935 252.724L380.927 252.716ZM387.629 251.403C389.521 253.204 391.027 255.046 392.633 257.427L389.673 259.514C388.218 257.04 387.049 255.534 385.014 253.397L387.637 251.403H387.629Z" fill="#42382B"/>
<path d="M426.523 277.872C424.513 277.822 421.132 277.729 418.87 277.729H403.909C401.815 277.729 398.09 277.83 396.248 277.872V272.673C398.006 272.723 401.723 272.816 403.909 272.816H418.87C421.225 272.816 424.605 272.765 426.523 272.673V277.872Z" fill="#42382B"/>
<path d="M448.396 269.518C454.896 271.899 458.782 273.842 463.592 276.947L460.531 281.558C456.797 278.739 453.055 276.652 448.396 274.759V285.1C448.396 289.668 448.446 294.211 448.497 296.685H442.719C443.014 294.304 443.157 289.466 443.157 285.1V265.673C443.157 260.137 443.106 257.074 442.963 255.577L448.64 255.913C449.128 255.913 449.413 256.107 449.413 256.401C449.413 256.696 449.119 256.982 448.488 257.327C448.387 260.532 448.387 261.113 448.387 265.681V269.518H448.396Z" fill="#42382B"/>
<path d="M503.444 263.444L504.126 262.762L508.011 265.724C508.398 266.06 508.549 266.212 508.549 266.498C508.549 266.885 508.356 267.078 507.531 267.322C505.833 276.4 504.084 280.868 500.543 285.68C496.851 290.585 492.487 293.884 485.112 297.283C483.8 294.422 483.556 293.985 482.152 292.428C487.786 289.854 490.309 288.297 493.118 285.68C497.684 281.356 500.594 275.677 501.805 268.391H482.437V274.659C482.437 275.778 482.488 277.427 482.58 278.983H477.097C477.198 277.427 477.24 275.778 477.24 274.659V267.036C477.24 266.069 477.19 265 477.139 263.25C479.763 263.351 483.548 263.444 486.945 263.444H489.325V257.815C489.325 256.41 489.325 255.341 489.274 254.609L494.665 254.946C495.296 254.996 495.632 255.19 495.632 255.484C495.632 255.779 495.388 256.014 494.665 256.452V263.444H503.453H503.444Z" fill="#42382B"/>
<path d="M531.373 274.423H526.663C525.208 274.423 523.459 274.474 521.761 274.524V270.107C523.215 270.157 525.208 270.208 526.663 270.208H540.59C542.583 270.208 543.112 270.208 545.492 270.107V274.524C543.844 274.474 542.095 274.423 540.59 274.423H535.981V285.058H543.987C546.173 285.058 547.628 285.058 550.445 284.957V289.424C548.452 289.374 545.98 289.323 543.987 289.323H523.358C521.172 289.323 519.036 289.323 516.9 289.424V284.957C518.893 285.007 521.172 285.058 523.358 285.058H531.364V274.423H531.373Z" fill="#42382B"/>
<path d="M584.109 273.986C583.377 279.185 582.94 280.834 581.392 283.939C579.5 287.775 576.591 291.124 572.949 293.841C571.688 294.767 570.67 295.398 568.433 296.71C567.609 294.96 566.541 293.555 565.229 292.537C571.494 288.995 574.497 286.177 576.683 281.903C577.844 279.572 578.483 277.242 578.819 273.986H568.24C566.154 273.986 563.438 274.036 561.445 274.086V268.845C563.287 268.895 566.054 268.946 568.24 268.946H593.233C595.176 268.946 598.329 268.895 599.978 268.845V274.086C598.228 274.036 595.075 273.986 593.233 273.986H584.109ZM591.686 262.669C590.281 262.619 588.238 262.568 586.833 262.568H573.538C572.134 262.568 570.09 262.619 568.686 262.669V257.428C570.09 257.478 572.134 257.529 573.538 257.529H586.833C588.238 257.529 590.281 257.478 591.686 257.428V262.669ZM595.083 255.678C597.362 257.083 598.867 258.252 601.247 260.532L598.817 263.199C596.538 260.768 595.47 259.893 592.897 258.151L595.083 255.678ZM598.867 251.303C601.146 252.708 602.652 253.877 604.981 256.157L602.551 258.782C600.314 256.401 599.254 255.484 596.723 253.776L598.859 251.303H598.867Z" fill="#42382B"/>
<path d="M626.484 274.953C626.972 275.054 627.258 275.29 627.258 275.727C627.258 276.022 627.115 276.165 626.484 276.552C626.484 278.352 626.434 280.094 626.434 283.787V288.777C626.434 289.896 626.484 293.278 626.484 294.977H621.388C621.632 293.177 621.725 291.89 621.725 288.777V279.034C617.452 283.013 616.107 283.922 611.011 287.271C610.103 285.784 609.133 284.522 608.101 283.484C615.089 279.067 617.402 277.477 621.388 273.304C624.491 270.048 626.392 267.524 628.62 263.544L632.506 265.294C632.892 265.488 633.136 265.732 633.136 266.026C633.136 266.413 632.892 266.657 632.262 266.851C630.319 269.762 627.897 272.825 626.005 274.861L626.493 274.962L626.484 274.953Z" fill="#42382B"/>
<path d="M649.257 260.726C654.303 263.351 656.153 264.705 659.5 268.399L655.666 272.622C652.167 268.735 649.644 266.699 646.053 264.756L649.257 260.726ZM647.416 288.112C654.741 285.007 658.92 282.626 664.454 278.444C670.912 273.489 674.696 269.652 679.692 262.854C680.659 264.554 681.491 265.622 683.039 267.465C676.631 275.188 673.04 278.73 667.363 283.005C662.603 286.597 659.013 288.785 652.125 292.276C651.932 292.958 651.738 293.294 651.394 293.294C651.15 293.294 650.763 293.05 650.569 292.714L647.416 288.103V288.112Z" fill="#42382B"/>
<path d="M712.194 257.47C712.825 257.764 712.876 257.806 712.876 258.101C712.876 258.437 712.733 258.589 711.808 258.925C711.421 259.7 710.74 260.919 709.773 262.619H719.334L720.108 261.744L723.943 264.95C724.523 265.438 724.573 265.488 724.573 265.774C724.573 266.161 724.38 266.313 723.413 266.742C719.872 276.451 716.374 282.037 710.403 287.43C707.3 290.249 704.626 292.091 698.613 295.634C697.595 293.64 697.209 293.11 695.216 291.41C707.594 284.906 713.658 278.394 717.787 267.23H707.107C704.247 271.453 700.169 275.677 695.846 278.983C694.585 277.09 694.442 276.947 692.306 275.147C696.914 271.891 700.556 268.206 703.423 263.78C705.559 260.482 706.821 257.95 707.645 255.383L712.211 257.47H712.194ZM723.018 255.712C725.296 257.117 726.802 258.286 729.182 260.566L726.751 263.233C724.472 260.802 723.404 259.885 720.882 258.185L723.018 255.712ZM726.802 251.294C729.081 252.699 730.586 253.869 732.916 256.149L730.536 258.816C728.257 256.435 727.189 255.518 724.666 253.818L726.802 251.294Z" fill="#42382B"/>
<path d="M746.043 261.862C746.371 261.912 746.514 262.098 746.514 262.375C746.514 262.56 746.463 262.703 746.278 262.796L745.908 262.981C745.765 267.844 745.21 271.731 744.176 275.382C743.054 274.384 741.899 273.588 740.711 272.993C741.787 269.199 742.115 266.725 742.208 261.197L746.043 261.854V261.862ZM753.763 260.045C755.402 261.635 756.798 263.461 757.875 265.471L754.696 267.718C754.449 267.314 753.92 266.456 753.107 265.143C752.501 264.159 752.081 263.503 751.189 262.333V282.643C751.189 288.777 751.24 293.312 751.425 296.307H746.463C746.606 293.261 746.699 288.676 746.699 282.643V266.969C746.699 259.296 746.606 254.66 746.421 253.213L751.425 253.541C751.795 253.541 752.081 253.777 752.081 254.012C752.081 254.29 751.845 254.525 751.24 254.904C751.147 257.335 751.189 259.817 751.189 262.249L753.763 260.053V260.045ZM780.093 256.721L783.835 256.671V260.692C782.851 260.642 781.354 260.642 780.093 260.642H771.532V262.51H777.334L781.077 262.459V266.481C780.093 266.43 778.596 266.43 777.334 266.43H771.532V268.399H780.555C781.909 268.399 783.877 268.349 785.189 268.307V272.379C783.877 272.328 781.918 272.286 780.555 272.286H758.901C757.547 272.286 755.579 272.337 754.225 272.379V268.307C755.579 268.357 757.547 268.399 758.901 268.399H767.083V266.43H761.752C760.49 266.43 759.035 266.43 758.06 266.481V262.459L761.752 262.51H767.083V260.642H759.506C758.245 260.642 756.748 260.642 755.764 260.692V256.671L759.506 256.721H767.083C767.033 254.946 766.991 253.777 766.898 252.885L771.666 253.162C772.179 253.213 772.457 253.398 772.457 253.634C772.457 253.911 772.221 254.197 771.565 254.567C771.515 255.131 771.515 255.787 771.515 256.721H780.076H780.093ZM762.508 288.684C762.559 294.397 762.559 294.624 762.601 296.315H757.967C758.06 294.489 758.11 290.14 758.11 287.187V283.072C758.077 277.957 758.046 274.914 758.018 273.944C759.843 274.087 762.508 274.129 764.989 274.129H774.021C776.502 274.129 779.168 274.078 780.993 273.944C780.931 274.757 780.883 277.222 780.85 281.339V286.253C780.85 287.094 780.942 289.063 780.993 290.51L781.043 291.208C781.043 293.732 780.345 294.86 778.428 295.516C777.166 295.937 775.711 296.08 772.062 296.08C771.969 294.203 771.826 293.27 771.17 291.259C772.524 291.402 773.273 291.444 774.442 291.444C776.266 291.444 776.502 291.208 776.502 289.475V288.676H762.517L762.508 288.684ZM776.494 277.73H762.458V279.791H776.494V277.73ZM762.458 285.218H776.494V283.249H762.458V285.218Z" fill="#42382B"/>
<path d="M814.513 269.963C814.841 270.056 815.026 270.241 815.026 270.477C815.026 270.754 814.934 270.805 813.95 271.133C812.831 273.43 812.217 274.692 811.561 275.903H814.135C816.035 275.87 817.19 275.839 817.599 275.811V280.026C817.196 279.992 816.041 279.962 814.135 279.933H808.753V283.442H812.915C813.941 283.442 815.632 283.391 816.658 283.349V287.565C815.674 287.514 814.177 287.472 812.915 287.472H808.753V288.078C808.753 291.586 808.803 294.581 808.896 296.264H804.22C804.312 294.438 804.363 291.864 804.363 288.078V287.472H800.57C799.309 287.472 797.812 287.522 796.828 287.565V283.349C797.854 283.4 799.586 283.442 800.57 283.442H804.363V279.933H799.174C797.913 279.933 796.416 279.984 795.432 280.026V275.811C796.458 275.861 798.148 275.903 799.174 275.903H801.092C800.158 273.379 799.41 271.789 798.333 270.098L801.184 268.744H799.174C797.913 268.744 796.416 268.794 795.432 268.836V264.621C796.458 264.671 798.148 264.713 799.174 264.713H804.363V261.205H800.57C799.309 261.205 797.812 261.256 796.828 261.298V257.082C797.854 257.133 799.586 257.175 800.57 257.175H804.363C804.363 255.349 804.312 253.902 804.27 252.825L808.854 253.153C809.366 253.204 809.694 253.338 809.694 253.624C809.694 253.911 809.417 254.188 808.761 254.558V257.175H812.924C813.95 257.175 815.64 257.124 816.666 257.082V261.298C815.682 261.247 814.185 261.205 812.924 261.205H808.761V264.713H814.143C815.219 264.713 816.952 264.663 817.742 264.621V268.836C816.994 268.786 815.447 268.744 814.143 268.744H811.006L814.513 269.963ZM801.832 268.744C803.185 270.519 804.169 272.488 805.01 274.549L802.252 275.903H807.306C808.055 274.406 808.711 272.908 809.274 271.36C809.602 270.519 809.879 269.627 810.115 268.744H801.84H801.832ZM833.317 287.699C834.578 289.146 836.218 290.459 838.976 292.335C837.715 293.412 837.059 294.203 836.168 295.801C834.065 294.253 832.425 292.857 831.071 291.359C829.852 293 828.406 294.539 826.396 296.416C825.504 295.01 824.949 294.22 823.822 292.907C825.925 291.081 827.38 289.542 828.498 287.851C828.221 287.337 827.893 286.774 827.607 286.168C826.11 283.122 825.311 280.363 824.705 275.264H823.301V291.174C823.301 293.328 823.352 295.153 823.394 296.18H818.76C818.81 295.061 818.852 293.513 818.852 291.174V259.354C818.852 257.856 818.802 256.081 818.76 255.24C819.786 255.29 820.728 255.29 822.124 255.29H832.972C834.376 255.29 835.31 255.29 836.336 255.24C836.285 256.039 836.243 257.629 836.243 259.034V261.609C836.294 262.215 836.294 264.882 836.294 265.117C836.294 268.483 834.94 269.332 829.507 269.332H827.918C827.867 267.927 827.682 266.716 827.312 264.89C828.01 264.941 829.793 265.033 830.449 265.033C831.568 265.033 831.803 264.798 831.803 263.771V259.371H823.293V271.209H834.191L834.94 270.317L837.883 273.169C838.211 273.447 838.304 273.59 838.304 273.775C838.304 274.103 838.068 274.246 837.505 274.473L837.227 274.566C836.294 280.506 835.402 283.501 833.577 287.152L833.3 287.716L833.317 287.699ZM828.498 275.247C828.919 278.099 829.482 281.002 830.743 283.669C831.256 282.314 831.727 281.002 832.097 279.647C832.467 278.2 832.753 276.703 832.989 275.247H828.498Z" fill="#42382B"/>
<path d="M875.339 267.036V258.395L875.288 255.291L880.486 255.627C881.116 255.678 881.411 255.821 881.411 256.166C881.411 256.46 881.217 256.654 880.486 257.091V267.044H883.69C886.364 267.044 890.19 266.994 892.377 266.901V272C890.098 271.949 886.263 271.857 883.69 271.857H880.486C880.292 276.568 880.292 276.854 879.956 278.705C878.644 286.471 873.842 291.864 863.65 297.106C862.683 295.213 861.707 293.85 860.303 292.588C865.979 290.114 869.965 287.102 872.337 283.652C874.523 280.497 875.196 277.822 875.347 271.857H865.786V275.55C865.786 278.756 865.836 281.229 865.929 282.643H860.639C860.74 280.994 860.782 278.756 860.782 275.55V271.857H857.435C855.055 271.857 850.834 271.958 848.748 272V266.901C850.741 267.002 854.963 267.044 857.435 267.044H860.782V264.52C860.782 260.684 860.732 258.597 860.639 257.234L865.929 257.571C866.467 257.621 866.753 257.764 866.753 258.109C866.753 258.404 866.61 258.496 865.786 259.035V267.044H875.347L875.339 267.036Z" fill="#42382B"/>
<path d="M921.036 269.518C921.574 269.661 921.768 269.812 921.768 270.149C921.768 270.486 921.574 270.679 920.801 271.075C920.75 273.893 920.75 276.173 920.75 278.016V287.775C920.75 291.612 920.75 294.733 920.801 297.114H915.124C915.368 295.12 915.461 291.612 915.461 287.775V279.471C915.461 278.016 915.461 276.459 915.41 273.599C909.877 278.891 907.11 281.129 900.651 285.352C899.614 283.67 898.529 282.262 897.397 281.129C910.549 272.875 918.311 265.345 923.996 255.198L928.655 257.335C928.992 257.478 929.193 257.722 929.193 257.966C929.193 258.303 928.949 258.505 928.268 258.74C925.645 262.627 922.298 266.901 919.918 269.274L921.036 269.518Z" fill="#42382B"/>
<path d="M947.812 269.4C954.313 271.756 958.198 273.683 963 276.77L959.939 281.347C956.205 278.554 952.463 276.484 947.804 274.608V284.864C947.804 289.39 947.854 294.75 947.905 297.207H942.127C942.422 294.842 942.565 289.205 942.565 284.864V265.597C942.565 260.103 942.514 257.074 942.371 255.577L948.048 255.913C948.535 255.913 948.821 256.107 948.821 256.393C948.821 256.679 948.527 256.973 947.896 257.31C947.795 260.49 947.795 261.062 947.795 265.597V269.4H947.812Z" fill="#42382B"/>
</svg>
