<svg width="222" height="17" viewBox="0 0 222 17" fill="none" xmlns="http://www.w3.org/2000/svg">
<g clip-path="url(#clip0_3965_7817)">
<path d="M231 8C224.841 12 218.681 12 212.522 8C206.362 4 200.203 4 194.043 8C187.884 12 181.725 12 175.565 8C169.406 4 163.246 3.99999 157.087 7.99999C150.928 12 144.768 12 138.609 7.99999C132.449 3.99999 126.29 3.99999 120.13 7.99999C113.971 12 107.812 12 101.652 7.99999C95.4928 3.99999 89.3333 3.99999 83.1739 7.99999C77.0145 12 70.8551 12 64.6956 7.99999C58.5362 3.99999 52.3768 3.99998 46.2174 7.99998C40.058 12 33.8985 12 27.7391 7.99998C21.5797 3.99998 15.4203 3.99998 9.26087 7.99998C3.10144 12 -3.05798 12 -9.2174 7.99998C-15.3768 3.99998 -21.5362 3.99998 -27.6957 7.99998C-33.8551 12 -40.0145 12 -46.1739 7.99998C-52.3333 3.99998 -58.4928 3.99998 -64.6522 7.99997C-70.8116 12 -76.971 12 -83.1304 7.99997C-89.2899 3.99997 -95.4493 3.99997 -101.609 7.99997C-107.768 12 -113.928 12 -120.087 7.99997C-126.246 3.99997 -132.406 3.99997 -138.565 7.99997C-144.725 12 -150.884 12 -157.043 7.99997C-163.203 3.99997 -169.362 3.99997 -175.522 7.99996C-181.681 12 -187.841 12 -194 7.99996" stroke="#F1CAC1" stroke-width="8"/>
</g>
<defs>
<clipPath id="clip0_3965_7817">
<rect width="222" height="17" fill="white" transform="translate(222 17) rotate(-180)"/>
</clipPath>
</defs>
</svg>
