<svg width="32" height="32" viewBox="0 0 32 32" fill="none" xmlns="http://www.w3.org/2000/svg">
<path d="M8.5 3V9.5" stroke="#E29482" stroke-width="1.3" stroke-linejoin="round"/>
<path d="M13.5 3V9.5" stroke="#E29482" stroke-width="1.3" stroke-linejoin="round"/>
<path d="M11 3V9.5" stroke="#E29482" stroke-width="1.3" stroke-linejoin="round"/>
<path d="M13.5 9.5C13.5 10.88 12.38 12 11 12C9.62 12 8.5 10.88 8.5 9.5" stroke="#E29482" stroke-width="1.3" stroke-linejoin="round"/>
<path d="M10 12V16.5H12V12" stroke="#E29482" stroke-width="1.3" stroke-linejoin="round"/>
<path d="M10 16.5H12L12.5 28C12.5 28.83 11.83 29.5 11 29.5C10.17 29.5 9.5 28.83 9.5 28L10 16.5Z" stroke="#E29482" stroke-width="1.3" stroke-linejoin="round"/>
<path d="M21.5 19.5H23.5V28C23.5 28.83 22.83 29.5 22 29.5C21.17 29.5 20.5 28.83 20.5 28L21.5 19.5Z" stroke="#E29482" stroke-width="1.3" stroke-linejoin="round"/>
<path d="M21.5009 17V19.5H23.5009V3C19.0009 3 19.5009 17 19.5009 17H21.5009Z" stroke="#E29482" stroke-width="1.3" stroke-linejoin="round"/>
</svg>
