<svg width="32" height="32" viewBox="0 0 32 32" fill="none" xmlns="http://www.w3.org/2000/svg">
<path d="M23.0078 14.8734C25.8338 14.8734 28.125 17.1646 28.125 19.9906C28.1249 22.8167 25.8337 25.1078 23.0078 25.1078C20.1817 25.1078 17.8907 22.8167 17.8906 19.9906C17.8937 17.1659 20.183 14.8765 23.0078 14.8734ZM22.8086 16.1127C20.7578 16.2185 19.1273 17.9142 19.125 19.9906C19.1251 22.1349 20.8635 23.8734 23.0078 23.8734C25.1521 23.8734 26.8905 22.1349 26.8906 19.9906C26.8906 17.8462 25.1522 16.1078 23.0078 16.1078L22.8086 16.1127Z" fill="#CF84B7" stroke="#CF84B7" stroke-width="0.234531" stroke-linejoin="round"/>
<path d="M25.8672 29.8734C25.9318 29.8736 25.9844 29.926 25.9844 29.9906V30.9906C25.9843 31.0552 25.9317 31.1076 25.8672 31.1078H20.1523C20.0876 31.1078 20.0352 31.0553 20.0352 30.9906V29.9906C20.0352 29.9258 20.0876 29.8734 20.1523 29.8734H25.8672Z" fill="#CF84B7" stroke="#CF84B7" stroke-width="0.234531" stroke-linejoin="round"/>
<path d="M28.0078 27.8734C28.0726 27.8734 28.125 27.9258 28.125 27.9906V28.9906C28.125 29.0554 28.0726 29.1078 28.0078 29.1078H18.0078C17.943 29.1078 17.8906 29.0554 17.8906 28.9906V27.9906C17.8906 27.9258 17.943 27.8734 18.0078 27.8734H28.0078Z" fill="#CF84B7" stroke="#CF84B7" stroke-width="0.234531" stroke-linejoin="round"/>
<path d="M8.00781 27.8734C8.07258 27.8734 8.125 27.9258 8.125 27.9906V28.9906C8.125 29.0554 8.07258 29.1078 8.00781 29.1078H7.00781C6.94305 29.1078 6.89062 29.0554 6.89062 28.9906V27.9906C6.89062 27.9258 6.94305 27.8734 7.00781 27.8734H8.00781Z" fill="#CF84B7" stroke="#CF84B7" stroke-width="0.234531" stroke-linejoin="round"/>
<path d="M5.00781 28.8734C5.07252 28.8735 5.125 28.9259 5.125 28.9906V29.9906C5.125 30.0553 5.07252 30.1077 5.00781 30.1078H4.00781C3.94305 30.1078 3.89062 30.0554 3.89062 29.9906V28.9906C3.89062 28.9258 3.94305 28.8734 4.00781 28.8734H5.00781Z" fill="#CF84B7" stroke="#CF84B7" stroke-width="0.234531" stroke-linejoin="round"/>
<path d="M11.334 2.3396C12.8571 0.813578 15.1869 0.435842 17.1143 1.4021L17.1982 1.45288C17.225 1.47215 17.25 1.49406 17.2734 1.51733C17.5148 1.75782 17.5159 2.14784 17.2754 2.3894L14.9775 4.70093H15.3457C17.5005 4.69902 19.4137 6.07816 20.0938 8.1228C20.1146 8.18546 20.1252 8.25197 20.125 8.31909L20.1133 8.44312C20.0557 8.7245 19.8061 8.93552 19.5078 8.9353H16.2744L16.4834 9.14429C18.0084 10.6664 18.3861 12.9952 17.4209 14.9216C17.3325 15.0987 17.1642 15.2227 16.9688 15.2546C16.9358 15.2601 16.902 15.2627 16.8682 15.2625C16.706 15.2617 16.5504 15.1971 16.4355 15.0828L11.9561 10.6296C11.3736 15.7319 9.76346 20.6631 7.2207 25.1257C7.69161 25.3564 8.15378 25.6035 8.60352 25.8738H31.0078C31.0726 25.8738 31.125 25.9262 31.125 25.991V26.991C31.1248 27.0556 31.0725 27.1082 31.0078 27.1082H10.3994C11.5289 27.9762 12.5575 28.9685 13.4629 30.0691C13.4826 30.093 13.4922 30.1242 13.4893 30.155C13.4862 30.186 13.4713 30.2154 13.4473 30.2351L12.6738 30.8679C12.6239 30.9088 12.5499 30.902 12.5088 30.8523C10.8957 28.8891 8.87674 27.2987 6.5918 26.1892C6.24493 26.7526 5.88829 27.3068 5.51367 27.8416C5.47655 27.8945 5.40362 27.9079 5.35059 27.8708L4.53125 27.2976C4.47878 27.2607 4.46577 27.1884 4.50195 27.1355C8.1087 21.9065 10.2856 15.8252 10.8174 9.49585L10.5078 9.18823L10.0459 9.64722C9.62793 15.6114 7.33033 21.2898 3.48145 25.866C3.43984 25.9154 3.36599 25.9221 3.31641 25.8806L2.5498 25.239C2.52601 25.2191 2.51063 25.1908 2.50781 25.1599C2.50506 25.1289 2.51519 25.0978 2.53516 25.074C2.5974 24.9996 2.65691 24.9228 2.71777 24.8464C2.28815 24.7502 1.85807 24.6634 1.42578 24.6013V24.6023L1.13477 24.574C1.10397 24.571 1.0754 24.5558 1.05566 24.532C1.03591 24.5079 1.02618 24.4761 1.0293 24.4451L1.12891 23.45C1.13202 23.419 1.1478 23.3905 1.17188 23.3708C1.19594 23.3512 1.22692 23.3423 1.25781 23.3455L1.57031 23.3767H1.5752C2.24004 23.4739 2.89913 23.6083 3.5498 23.7761C6.32997 20.0355 8.08996 15.6403 8.66602 11.0183L4.5791 15.0828C4.46356 15.1978 4.30749 15.2614 4.14453 15.2615C4.11054 15.2617 4.0769 15.2601 4.04395 15.2546C3.8486 15.2227 3.68039 15.0986 3.5918 14.9216C2.62677 12.9951 3.00506 10.6664 4.53027 9.14429L4.73828 8.9353H1.50879C1.44231 8.9353 1.37564 8.92523 1.3125 8.90405C0.989101 8.796 0.81475 8.44611 0.922852 8.1228C1.60272 6.0781 3.51606 4.69889 5.6709 4.70093H6.04492L3.74414 2.3894C3.69794 2.34291 3.65933 2.28927 3.62988 2.23022C3.47744 1.92534 3.60126 1.55447 3.90625 1.4021C5.83231 0.437123 8.16081 0.814693 9.68262 2.3396H9.68164L10.1602 2.81812C10.2832 2.94295 10.3978 3.07551 10.5068 3.21265C10.617 3.0754 10.7322 2.94215 10.8564 2.81714L11.334 2.3396ZM8.50781 8.45776C7.58442 8.45486 6.69562 8.79711 6.01367 9.41284L5.87988 9.53979L5.40234 10.0173C4.48041 10.9377 4.10465 12.2649 4.39453 13.5251L9.38574 8.56226C9.09818 8.49452 8.80365 8.45792 8.50781 8.45776ZM15.1367 9.53979C14.2129 8.62519 12.8845 8.25982 11.6299 8.56226L16.6211 13.5251C16.9111 12.2649 16.5362 10.9377 15.6143 10.0173H15.6133L15.1367 9.53979ZM14.6689 5.93628C13.5516 5.9361 12.4983 6.43246 11.7871 7.28101C12.7532 7.13975 13.7412 7.28475 14.6289 7.70093H18.5381C17.8964 6.67749 16.8029 6.02392 15.5996 5.94409L15.3438 5.93628H14.6689ZM5.6709 5.93628C4.3689 5.93498 3.16518 6.60604 2.47852 7.70093H6.38867C7.27566 7.28495 8.26316 7.13958 9.22852 7.28003C8.51657 6.43137 7.46252 5.93528 6.34473 5.93628H5.6709ZM15.7158 2.20386C14.4549 1.91363 13.1273 2.29038 12.2061 3.21265L11.7354 3.6814C11.7334 3.68371 11.7326 3.68702 11.7305 3.68921C10.9492 4.4793 10.573 5.57713 10.6943 6.67163C11.2633 5.92532 12.0318 5.35248 12.9141 5.02222L15.7158 2.20386ZM8.80273 3.20679C7.88221 2.28893 6.55784 1.91419 5.2998 2.20386L8.10156 5.02124C8.59215 5.20469 9.05042 5.46433 9.45996 5.78979C9.50543 5.30386 9.62412 4.82731 9.81152 4.37573C9.66312 4.12763 9.48747 3.89686 9.28516 3.69019L8.80762 3.21265C8.80581 3.21084 8.8044 3.20869 8.80273 3.20679Z" fill="#CF84B7" stroke="#CF84B7" stroke-width="0.234531" stroke-linejoin="round"/>
</svg>
