<svg width="32" height="32" viewBox="0 0 32 32" fill="none" xmlns="http://www.w3.org/2000/svg">
<g clip-path="url(#clip0_3965_7793)">
<mask id="path-1-outside-1_3965_7793" maskUnits="userSpaceOnUse" x="1.76172" y="-1" width="28" height="34" fill="black">
<rect fill="white" x="1.76172" y="-1" width="28" height="34"/>
<path d="M25.8908 4.43881C25.7182 4.24525 25.4214 4.22825 25.2277 4.40094C25.0341 4.57356 25.0171 4.8705 25.1897 5.06406C27.1944 7.31181 28.2985 10.2148 28.2985 13.2381V31.0607H26.8683V13.2381C26.8683 10.3337 25.7328 7.60175 23.6708 5.54544C21.6162 3.49662 18.8933 2.3695 16.0001 2.3695C15.9898 2.3695 15.9793 2.3695 15.969 2.3695C13.4857 2.37644 11.1497 3.20875 9.21341 4.7765C9.01184 4.93975 8.98072 5.2355 9.14397 5.43706C9.30716 5.63862 9.60291 5.66975 9.80453 5.50656C11.5725 4.07506 13.705 3.31513 15.9716 3.30881H16C18.6427 3.30881 21.1305 4.33869 23.0075 6.21056C24.8915 8.08931 25.929 10.585 25.929 13.238V18.7553H23.6369C22.9202 16.8284 22.0673 15.6865 21.5037 15.084C22.4235 14.8925 22.9617 15.4578 23.0329 15.5384C23.2018 15.7346 23.4967 15.7566 23.6926 15.5903C23.8904 15.4226 23.9149 15.1262 23.7472 14.9283C23.393 14.5104 22.5202 13.9425 21.3677 14.1554C21.4757 13.9721 21.6093 13.8287 21.7685 13.7273C22.2803 13.401 22.9318 13.5763 22.9488 13.5811C23.1969 13.6534 23.4567 13.5115 23.5303 13.2637C23.604 13.015 23.4623 12.7536 23.2136 12.6798C23.1707 12.6671 22.1545 12.3749 21.2744 12.9283C21.0037 13.0986 20.7792 13.3259 20.6008 13.6075C20.487 12.796 20.884 12.2383 20.91 12.203C21.0648 11.9968 21.0245 11.7039 20.819 11.5474C20.6127 11.3901 20.3178 11.4301 20.1608 11.6364C20.1238 11.6848 19.479 12.5547 19.6723 13.7847C18.7828 13.5518 17.9387 13.8733 17.5042 14.1768C17.2925 14.3247 17.2412 14.615 17.3878 14.8276C17.5344 15.0402 17.8265 15.0938 18.04 14.9483C18.1373 14.882 18.8438 14.4322 19.625 14.7579C18.7427 15.2559 18.4568 16.1797 18.4405 16.7052C18.4324 16.9645 18.6359 17.183 18.8952 17.1911C18.9002 17.1912 18.9052 17.1912 18.9102 17.1912C19.1628 17.1912 19.3713 16.9923 19.3792 16.738C19.3845 16.6239 19.461 15.6684 20.5001 15.4175C20.7911 15.6754 21.4869 16.3822 22.1775 17.7565C22.3403 18.0806 22.4886 18.4146 22.6249 18.7553H9.37541C9.52516 18.3799 9.67609 18.0472 9.82222 17.7565C10.5128 16.3823 11.2086 15.6754 11.4996 15.4175C12.5368 15.668 12.6148 16.6204 12.6204 16.7374C12.6298 16.9903 12.8378 17.1896 13.0895 17.1896C13.0944 17.1896 13.0994 17.1895 13.1044 17.1894C13.3637 17.1812 13.5673 16.9646 13.5592 16.7052C13.5428 16.1797 13.257 15.2559 12.3747 14.7579C13.1548 14.4327 13.8607 14.881 13.9593 14.9481C14.1718 15.0951 14.4633 15.0427 14.6114 14.8308C14.76 14.6181 14.708 14.3253 14.4954 14.1768C14.061 13.8733 13.2168 13.5517 12.3274 13.7847C12.5207 12.5546 11.8758 11.6848 11.8389 11.6364C11.6817 11.43 11.3858 11.3888 11.1796 11.5459C10.9733 11.7031 10.9323 11.9963 11.0895 12.2026C11.113 12.2346 11.5129 12.7933 11.3988 13.6074C11.2205 13.3259 10.996 13.0985 10.7252 12.9283C9.84509 12.3749 8.82884 12.6671 8.78603 12.6798C8.53847 12.7533 8.39816 13.0124 8.47003 13.2604C8.54191 13.5084 8.80203 13.6514 9.05053 13.5811C9.05722 13.5793 9.71528 13.3984 10.2312 13.7273C10.3903 13.8287 10.5238 13.9721 10.6318 14.1554C9.47928 13.9425 8.60653 14.5105 8.25234 14.9284C8.08466 15.1263 8.10772 15.4243 8.30559 15.592C8.50216 15.7589 8.79772 15.7377 8.96622 15.539C9.03572 15.4601 9.57422 14.8923 10.4958 15.0841C9.93216 15.6866 9.07941 16.8286 8.36266 18.7554H6.07053V13.3387C6.07053 10.9225 6.93891 8.58481 8.51566 6.75637C8.68503 6.55994 8.66316 6.26337 8.46672 6.094C8.27028 5.92462 7.97372 5.9465 7.80428 6.14294C6.08047 8.14188 5.13116 10.6974 5.13116 13.3387V31.0607H3.70103V13.2381C3.70103 9.95294 4.98034 6.8645 7.30328 4.54156C9.62622 2.21863 12.7147 0.939313 15.9998 0.939313C18.9298 0.939313 21.6581 1.92931 23.8899 3.80238C24.0886 3.96913 24.3848 3.94319 24.5516 3.7445C24.7183 3.54581 24.6924 3.24956 24.4937 3.08281C22.1249 1.09488 19.1084 0 15.9998 0C12.4638 0 9.13941 1.377 6.63903 3.87737C4.13872 6.37769 2.76172 9.70206 2.76172 13.2381V31.5304C2.76172 31.7897 2.97197 32.0001 3.23141 32.0001H28.7682C29.0277 32.0001 29.2379 31.7898 29.2379 31.5304V13.2381C29.2378 9.98381 28.0492 6.85888 25.8908 4.43881ZM25.929 19.6947V26.8424H24.9493C24.9107 23.8153 24.5005 21.4781 23.9545 19.6947H25.929ZM8.04509 19.6947C7.49909 21.4781 7.08891 23.8153 7.05028 26.8424H6.07053V19.6947H8.04509ZM6.07053 27.7817H18.636C18.8954 27.7817 19.1057 27.5714 19.1057 27.312C19.1057 27.0526 18.8954 26.8423 18.636 26.8423H7.98978C8.03178 23.7047 8.49153 21.3724 9.03659 19.6946H22.9641C23.7502 22.1134 23.9807 24.761 24.0095 26.8423H20.5146C20.2552 26.8423 20.0449 27.0526 20.0449 27.312C20.0449 27.5714 20.2552 27.7817 20.5146 27.7817H25.929V31.0606H6.07053V27.7817Z"/>
</mask>
<path d="M25.8908 4.43881C25.7182 4.24525 25.4214 4.22825 25.2277 4.40094C25.0341 4.57356 25.0171 4.8705 25.1897 5.06406C27.1944 7.31181 28.2985 10.2148 28.2985 13.2381V31.0607H26.8683V13.2381C26.8683 10.3337 25.7328 7.60175 23.6708 5.54544C21.6162 3.49662 18.8933 2.3695 16.0001 2.3695C15.9898 2.3695 15.9793 2.3695 15.969 2.3695C13.4857 2.37644 11.1497 3.20875 9.21341 4.7765C9.01184 4.93975 8.98072 5.2355 9.14397 5.43706C9.30716 5.63862 9.60291 5.66975 9.80453 5.50656C11.5725 4.07506 13.705 3.31513 15.9716 3.30881H16C18.6427 3.30881 21.1305 4.33869 23.0075 6.21056C24.8915 8.08931 25.929 10.585 25.929 13.238V18.7553H23.6369C22.9202 16.8284 22.0673 15.6865 21.5037 15.084C22.4235 14.8925 22.9617 15.4578 23.0329 15.5384C23.2018 15.7346 23.4967 15.7566 23.6926 15.5903C23.8904 15.4226 23.9149 15.1262 23.7472 14.9283C23.393 14.5104 22.5202 13.9425 21.3677 14.1554C21.4757 13.9721 21.6093 13.8287 21.7685 13.7273C22.2803 13.401 22.9318 13.5763 22.9488 13.5811C23.1969 13.6534 23.4567 13.5115 23.5303 13.2637C23.604 13.015 23.4623 12.7536 23.2136 12.6798C23.1707 12.6671 22.1545 12.3749 21.2744 12.9283C21.0037 13.0986 20.7792 13.3259 20.6008 13.6075C20.487 12.796 20.884 12.2383 20.91 12.203C21.0648 11.9968 21.0245 11.7039 20.819 11.5474C20.6127 11.3901 20.3178 11.4301 20.1608 11.6364C20.1238 11.6848 19.479 12.5547 19.6723 13.7847C18.7828 13.5518 17.9387 13.8733 17.5042 14.1768C17.2925 14.3247 17.2412 14.615 17.3878 14.8276C17.5344 15.0402 17.8265 15.0938 18.04 14.9483C18.1373 14.882 18.8438 14.4322 19.625 14.7579C18.7427 15.2559 18.4568 16.1797 18.4405 16.7052C18.4324 16.9645 18.6359 17.183 18.8952 17.1911C18.9002 17.1912 18.9052 17.1912 18.9102 17.1912C19.1628 17.1912 19.3713 16.9923 19.3792 16.738C19.3845 16.6239 19.461 15.6684 20.5001 15.4175C20.7911 15.6754 21.4869 16.3822 22.1775 17.7565C22.3403 18.0806 22.4886 18.4146 22.6249 18.7553H9.37541C9.52516 18.3799 9.67609 18.0472 9.82222 17.7565C10.5128 16.3823 11.2086 15.6754 11.4996 15.4175C12.5368 15.668 12.6148 16.6204 12.6204 16.7374C12.6298 16.9903 12.8378 17.1896 13.0895 17.1896C13.0944 17.1896 13.0994 17.1895 13.1044 17.1894C13.3637 17.1812 13.5673 16.9646 13.5592 16.7052C13.5428 16.1797 13.257 15.2559 12.3747 14.7579C13.1548 14.4327 13.8607 14.881 13.9593 14.9481C14.1718 15.0951 14.4633 15.0427 14.6114 14.8308C14.76 14.6181 14.708 14.3253 14.4954 14.1768C14.061 13.8733 13.2168 13.5517 12.3274 13.7847C12.5207 12.5546 11.8758 11.6848 11.8389 11.6364C11.6817 11.43 11.3858 11.3888 11.1796 11.5459C10.9733 11.7031 10.9323 11.9963 11.0895 12.2026C11.113 12.2346 11.5129 12.7933 11.3988 13.6074C11.2205 13.3259 10.996 13.0985 10.7252 12.9283C9.84509 12.3749 8.82884 12.6671 8.78603 12.6798C8.53847 12.7533 8.39816 13.0124 8.47003 13.2604C8.54191 13.5084 8.80203 13.6514 9.05053 13.5811C9.05722 13.5793 9.71528 13.3984 10.2312 13.7273C10.3903 13.8287 10.5238 13.9721 10.6318 14.1554C9.47928 13.9425 8.60653 14.5105 8.25234 14.9284C8.08466 15.1263 8.10772 15.4243 8.30559 15.592C8.50216 15.7589 8.79772 15.7377 8.96622 15.539C9.03572 15.4601 9.57422 14.8923 10.4958 15.0841C9.93216 15.6866 9.07941 16.8286 8.36266 18.7554H6.07053V13.3387C6.07053 10.9225 6.93891 8.58481 8.51566 6.75637C8.68503 6.55994 8.66316 6.26337 8.46672 6.094C8.27028 5.92462 7.97372 5.9465 7.80428 6.14294C6.08047 8.14188 5.13116 10.6974 5.13116 13.3387V31.0607H3.70103V13.2381C3.70103 9.95294 4.98034 6.8645 7.30328 4.54156C9.62622 2.21863 12.7147 0.939313 15.9998 0.939313C18.9298 0.939313 21.6581 1.92931 23.8899 3.80238C24.0886 3.96913 24.3848 3.94319 24.5516 3.7445C24.7183 3.54581 24.6924 3.24956 24.4937 3.08281C22.1249 1.09488 19.1084 0 15.9998 0C12.4638 0 9.13941 1.377 6.63903 3.87737C4.13872 6.37769 2.76172 9.70206 2.76172 13.2381V31.5304C2.76172 31.7897 2.97197 32.0001 3.23141 32.0001H28.7682C29.0277 32.0001 29.2379 31.7898 29.2379 31.5304V13.2381C29.2378 9.98381 28.0492 6.85888 25.8908 4.43881ZM25.929 19.6947V26.8424H24.9493C24.9107 23.8153 24.5005 21.4781 23.9545 19.6947H25.929ZM8.04509 19.6947C7.49909 21.4781 7.08891 23.8153 7.05028 26.8424H6.07053V19.6947H8.04509ZM6.07053 27.7817H18.636C18.8954 27.7817 19.1057 27.5714 19.1057 27.312C19.1057 27.0526 18.8954 26.8423 18.636 26.8423H7.98978C8.03178 23.7047 8.49153 21.3724 9.03659 19.6946H22.9641C23.7502 22.1134 23.9807 24.761 24.0095 26.8423H20.5146C20.2552 26.8423 20.0449 27.0526 20.0449 27.312C20.0449 27.5714 20.2552 27.7817 20.5146 27.7817H25.929V31.0606H6.07053V27.7817Z" fill="#CF84B7"/>
<path d="M25.8908 4.43881C25.7182 4.24525 25.4214 4.22825 25.2277 4.40094C25.0341 4.57356 25.0171 4.8705 25.1897 5.06406C27.1944 7.31181 28.2985 10.2148 28.2985 13.2381V31.0607H26.8683V13.2381C26.8683 10.3337 25.7328 7.60175 23.6708 5.54544C21.6162 3.49662 18.8933 2.3695 16.0001 2.3695C15.9898 2.3695 15.9793 2.3695 15.969 2.3695C13.4857 2.37644 11.1497 3.20875 9.21341 4.7765C9.01184 4.93975 8.98072 5.2355 9.14397 5.43706C9.30716 5.63862 9.60291 5.66975 9.80453 5.50656C11.5725 4.07506 13.705 3.31513 15.9716 3.30881H16C18.6427 3.30881 21.1305 4.33869 23.0075 6.21056C24.8915 8.08931 25.929 10.585 25.929 13.238V18.7553H23.6369C22.9202 16.8284 22.0673 15.6865 21.5037 15.084C22.4235 14.8925 22.9617 15.4578 23.0329 15.5384C23.2018 15.7346 23.4967 15.7566 23.6926 15.5903C23.8904 15.4226 23.9149 15.1262 23.7472 14.9283C23.393 14.5104 22.5202 13.9425 21.3677 14.1554C21.4757 13.9721 21.6093 13.8287 21.7685 13.7273C22.2803 13.401 22.9318 13.5763 22.9488 13.5811C23.1969 13.6534 23.4567 13.5115 23.5303 13.2637C23.604 13.015 23.4623 12.7536 23.2136 12.6798C23.1707 12.6671 22.1545 12.3749 21.2744 12.9283C21.0037 13.0986 20.7792 13.3259 20.6008 13.6075C20.487 12.796 20.884 12.2383 20.91 12.203C21.0648 11.9968 21.0245 11.7039 20.819 11.5474C20.6127 11.3901 20.3178 11.4301 20.1608 11.6364C20.1238 11.6848 19.479 12.5547 19.6723 13.7847C18.7828 13.5518 17.9387 13.8733 17.5042 14.1768C17.2925 14.3247 17.2412 14.615 17.3878 14.8276C17.5344 15.0402 17.8265 15.0938 18.04 14.9483C18.1373 14.882 18.8438 14.4322 19.625 14.7579C18.7427 15.2559 18.4568 16.1797 18.4405 16.7052C18.4324 16.9645 18.6359 17.183 18.8952 17.1911C18.9002 17.1912 18.9052 17.1912 18.9102 17.1912C19.1628 17.1912 19.3713 16.9923 19.3792 16.738C19.3845 16.6239 19.461 15.6684 20.5001 15.4175C20.7911 15.6754 21.4869 16.3822 22.1775 17.7565C22.3403 18.0806 22.4886 18.4146 22.6249 18.7553H9.37541C9.52516 18.3799 9.67609 18.0472 9.82222 17.7565C10.5128 16.3823 11.2086 15.6754 11.4996 15.4175C12.5368 15.668 12.6148 16.6204 12.6204 16.7374C12.6298 16.9903 12.8378 17.1896 13.0895 17.1896C13.0944 17.1896 13.0994 17.1895 13.1044 17.1894C13.3637 17.1812 13.5673 16.9646 13.5592 16.7052C13.5428 16.1797 13.257 15.2559 12.3747 14.7579C13.1548 14.4327 13.8607 14.881 13.9593 14.9481C14.1718 15.0951 14.4633 15.0427 14.6114 14.8308C14.76 14.6181 14.708 14.3253 14.4954 14.1768C14.061 13.8733 13.2168 13.5517 12.3274 13.7847C12.5207 12.5546 11.8758 11.6848 11.8389 11.6364C11.6817 11.43 11.3858 11.3888 11.1796 11.5459C10.9733 11.7031 10.9323 11.9963 11.0895 12.2026C11.113 12.2346 11.5129 12.7933 11.3988 13.6074C11.2205 13.3259 10.996 13.0985 10.7252 12.9283C9.84509 12.3749 8.82884 12.6671 8.78603 12.6798C8.53847 12.7533 8.39816 13.0124 8.47003 13.2604C8.54191 13.5084 8.80203 13.6514 9.05053 13.5811C9.05722 13.5793 9.71528 13.3984 10.2312 13.7273C10.3903 13.8287 10.5238 13.9721 10.6318 14.1554C9.47928 13.9425 8.60653 14.5105 8.25234 14.9284C8.08466 15.1263 8.10772 15.4243 8.30559 15.592C8.50216 15.7589 8.79772 15.7377 8.96622 15.539C9.03572 15.4601 9.57422 14.8923 10.4958 15.0841C9.93216 15.6866 9.07941 16.8286 8.36266 18.7554H6.07053V13.3387C6.07053 10.9225 6.93891 8.58481 8.51566 6.75637C8.68503 6.55994 8.66316 6.26337 8.46672 6.094C8.27028 5.92462 7.97372 5.9465 7.80428 6.14294C6.08047 8.14188 5.13116 10.6974 5.13116 13.3387V31.0607H3.70103V13.2381C3.70103 9.95294 4.98034 6.8645 7.30328 4.54156C9.62622 2.21863 12.7147 0.939313 15.9998 0.939313C18.9298 0.939313 21.6581 1.92931 23.8899 3.80238C24.0886 3.96913 24.3848 3.94319 24.5516 3.7445C24.7183 3.54581 24.6924 3.24956 24.4937 3.08281C22.1249 1.09488 19.1084 0 15.9998 0C12.4638 0 9.13941 1.377 6.63903 3.87737C4.13872 6.37769 2.76172 9.70206 2.76172 13.2381V31.5304C2.76172 31.7897 2.97197 32.0001 3.23141 32.0001H28.7682C29.0277 32.0001 29.2379 31.7898 29.2379 31.5304V13.2381C29.2378 9.98381 28.0492 6.85888 25.8908 4.43881ZM25.929 19.6947V26.8424H24.9493C24.9107 23.8153 24.5005 21.4781 23.9545 19.6947H25.929ZM8.04509 19.6947C7.49909 21.4781 7.08891 23.8153 7.05028 26.8424H6.07053V19.6947H8.04509ZM6.07053 27.7817H18.636C18.8954 27.7817 19.1057 27.5714 19.1057 27.312C19.1057 27.0526 18.8954 26.8423 18.636 26.8423H7.98978C8.03178 23.7047 8.49153 21.3724 9.03659 19.6946H22.9641C23.7502 22.1134 23.9807 24.761 24.0095 26.8423H20.5146C20.2552 26.8423 20.0449 27.0526 20.0449 27.312C20.0449 27.5714 20.2552 27.7817 20.5146 27.7817H25.929V31.0606H6.07053V27.7817Z" stroke="#CF84B7" stroke-width="0.4" mask="url(#path-1-outside-1_3965_7793)"/>
<path d="M15.9961 6.24854C17.1477 6.24854 18.0849 7.18487 18.085 8.33643C18.085 9.48803 17.1477 10.4253 15.9961 10.4253C14.8445 10.4252 13.9082 9.488 13.9082 8.33643C13.9083 7.18483 14.8446 6.24859 15.9961 6.24854ZM15.9961 7.38721C15.4729 7.38726 15.0469 7.81327 15.0469 8.33643C15.0469 8.85961 15.4729 9.28559 15.9961 9.28564C16.5194 9.28564 16.9453 8.85964 16.9453 8.33643C16.9453 7.81324 16.5193 7.38721 15.9961 7.38721Z" fill="#CF84B7" stroke="#CF84B7" stroke-width="0.2"/>
<path d="M15.9971 4.25061C16.3117 4.25063 16.5664 4.50536 16.5664 4.81995V5.33557C16.5664 5.65022 16.3117 5.90586 15.9971 5.90588C15.6824 5.90588 15.4277 5.65017 15.4277 5.33557V4.81995C15.4277 4.50535 15.6824 4.25061 15.9971 4.25061Z" fill="#CF84B7" stroke="#CF84B7" stroke-width="0.2"/>
<path d="M15.9971 10.7682C16.3117 10.7682 16.5664 11.0229 16.5664 11.3375V11.8531C16.5664 12.1677 16.3117 12.4234 15.9971 12.4235C15.6824 12.4235 15.4277 12.1677 15.4277 11.8531V11.3375C15.4277 11.0229 15.6824 10.7682 15.9971 10.7682Z" fill="#CF84B7" stroke="#CF84B7" stroke-width="0.2"/>
<path d="M19.5127 7.76758C19.8274 7.76758 20.083 8.02232 20.083 8.33691C20.083 8.65149 19.8274 8.90625 19.5127 8.90625H18.9971C18.6824 8.90625 18.4278 8.65149 18.4277 8.33691C18.4277 8.02225 18.6824 7.76758 18.9971 7.76758H19.5127Z" fill="#CF84B7" stroke="#CF84B7" stroke-width="0.2"/>
<path d="M12.9971 7.76758C13.3117 7.76758 13.5674 8.02232 13.5674 8.33691C13.5674 8.65149 13.3117 8.90625 12.9971 8.90625H12.4814C12.1668 8.90625 11.9121 8.65149 11.9121 8.33691C11.9121 8.02225 12.1668 7.76758 12.4814 7.76758H12.9971Z" fill="#CF84B7" stroke="#CF84B7" stroke-width="0.2"/>
<path d="M17.7148 10.0552C17.9372 9.8329 18.2981 9.83315 18.5205 10.0552L18.8857 10.4204C19.0802 10.615 19.1047 10.9152 18.959 11.1362L18.8857 11.2261C18.6633 11.4485 18.3026 11.4486 18.0801 11.2261L17.7148 10.8608C17.4928 10.6383 17.4926 10.2775 17.7148 10.0552Z" fill="#CF84B7" stroke="#CF84B7" stroke-width="0.2"/>
<path d="M13.1094 5.44678C13.3317 5.22446 13.6926 5.22472 13.915 5.44678L14.2803 5.81201C14.4748 6.00658 14.4992 6.30677 14.3535 6.52783L14.2803 6.61768C14.0578 6.84012 13.6971 6.84017 13.4746 6.61768L13.1094 6.25244C12.8874 6.02992 12.8871 5.66911 13.1094 5.44678Z" fill="#CF84B7" stroke="#CF84B7" stroke-width="0.2"/>
<path d="M13.4746 10.0552C13.697 9.83295 14.0579 9.83306 14.2803 10.0552C14.5027 10.2776 14.5026 10.6383 14.2803 10.8608L13.915 11.2261C13.6926 11.4483 13.3318 11.4484 13.1094 11.2261C12.8872 11.0037 12.8872 10.6429 13.1094 10.4204L13.4746 10.0552Z" fill="#CF84B7" stroke="#CF84B7" stroke-width="0.2"/>
<path d="M18.0801 5.44678C18.3025 5.22456 18.6633 5.22465 18.8857 5.44678L18.959 5.53662C19.1048 5.75764 19.0801 6.05779 18.8857 6.25244L18.5205 6.61768C18.298 6.83994 17.9372 6.84 17.7148 6.61768C17.4927 6.39527 17.4927 6.03447 17.7148 5.81201L18.0801 5.44678Z" fill="#CF84B7" stroke="#CF84B7" stroke-width="0.2"/>
<path d="M12.4238 21.188C12.8745 21.1887 13.313 21.3479 13.6592 21.6362C13.9541 21.882 14.3827 21.8819 14.6777 21.6362C15.0317 21.3414 15.478 21.1846 15.9395 21.189V21.188C16.3992 21.1822 16.8487 21.341 17.2031 21.6362C17.4981 21.882 17.9266 21.8818 18.2217 21.6362C18.5246 21.3839 18.8985 21.2297 19.2891 21.1948L19.458 21.188C19.7722 21.188 20.0278 21.442 20.0283 21.7563C20.0288 22.0709 19.7737 22.3262 19.459 22.3267C19.2738 22.327 19.0934 22.3928 18.9512 22.5112C18.5924 22.8101 18.1525 22.9594 17.7129 22.9595C17.2731 22.9595 16.8334 22.81 16.4746 22.5112C16.3281 22.3892 16.1387 22.3236 15.9502 22.3267C15.9437 22.3268 15.9372 22.3268 15.9307 22.3267C15.7416 22.3237 15.5537 22.3893 15.4072 22.5112C14.6895 23.1091 13.6473 23.109 12.9297 22.5112C12.7875 22.3928 12.6071 22.3269 12.4219 22.3267C12.1072 22.3261 11.8531 22.0709 11.8535 21.7563C11.854 21.4421 12.1087 21.188 12.4229 21.188H12.4238Z" fill="#CF84B7" stroke="#CF84B7" stroke-width="0.2"/>
<path d="M10.5488 23.7129C10.9995 23.7136 11.438 23.8728 11.7842 24.1611C12.0791 24.4069 12.5076 24.4069 12.8027 24.1611C13.1592 23.8642 13.6085 23.7046 14.0752 23.7129C14.3896 23.7185 14.6401 23.9776 14.6348 24.292C14.6291 24.6069 14.3707 24.8546 14.0566 24.8516C14.0512 24.8515 14.0456 24.8516 14.041 24.8516C13.8553 24.8517 13.6751 24.9171 13.5322 25.0361C13.1735 25.3349 12.7335 25.4843 12.2939 25.4844C11.854 25.4844 11.4135 25.3351 11.0547 25.0361C10.9125 24.9178 10.7321 24.8518 10.5469 24.8516C10.2322 24.8511 9.97806 24.5958 9.97852 24.2812C9.97909 23.967 10.2337 23.7129 10.5479 23.7129H10.5488Z" fill="#CF84B7" stroke="#CF84B7" stroke-width="0.2"/>
<path d="M17.8145 23.7129C18.2651 23.7136 18.7037 23.8728 19.0498 24.1611C19.3448 24.4069 19.7733 24.4068 20.0684 24.1611C20.425 23.8641 20.8764 23.7045 21.3418 23.7129C21.656 23.7187 21.9057 23.9778 21.9004 24.292C21.8948 24.6069 21.6363 24.8546 21.3223 24.8516C21.3169 24.8515 21.3113 24.8516 21.3066 24.8516C21.1209 24.8517 20.9409 24.9172 20.7979 25.0361C20.4392 25.3349 19.9991 25.4843 19.5596 25.4844C19.1197 25.4844 18.6791 25.3351 18.3203 25.0361C18.1781 24.9178 17.9977 24.8518 17.8125 24.8516C17.4979 24.8511 17.2437 24.5958 17.2441 24.2812C17.2447 23.967 17.4993 23.7129 17.8135 23.7129H17.8145Z" fill="#CF84B7" stroke="#CF84B7" stroke-width="0.2"/>
</g>
<defs>
<clipPath id="clip0_3965_7793">
<rect width="32" height="32" fill="white"/>
</clipPath>
</defs>
</svg>
