<svg width="402" height="98" viewBox="0 0 402 98" fill="none" xmlns="http://www.w3.org/2000/svg">
<path d="M56.5644 40.0982C56.6636 41.534 54.9927 43.0177 53.3752 43.6992C52.3806 44.0948 51.9153 43.7364 50.942 43.5117C49.9982 43.3699 49.3084 43.5355 48.386 44.2707C47.2364 45.0459 45.6431 46.3398 43.9454 47.4758C41.4724 49.0129 38.9139 50.7852 36.1522 53.2099C33.0992 56.0383 29.7174 59.2329 26.9506 62.9357C25.6701 64.7028 24.5555 66.5288 23.1333 68.1008C21.4571 70.1139 20.527 72.3918 19.5674 74.5868C18.2978 77.5411 17.0684 81.0168 17.2159 83.6772C17.2456 86.0061 18.3581 87.4394 20.0507 88.33C21.4653 89.0494 23.2274 89.7957 25.5455 89.3869C26.0909 89.2907 29.4892 88.9998 32.2538 88.5564C36.0184 87.9366 40.2586 85.8678 43.13 84.5687C48.774 82.0322 54.4099 79.5411 59.8531 75.8949C62.5239 74.2349 64.8418 72.3288 67.3335 70.4362C71.9666 66.8888 76.6076 62.5473 80.3609 58.4944C86.0926 52.4633 90.2146 46.3196 93.0558 39.6972C94.026 37.192 94.8197 34.1895 94.7685 31.7323C94.578 27.3179 92.3343 24.8069 88.754 23.6326C86.2887 22.8782 82.3423 23.53 80.2702 23.5431C78.3718 23.5696 75.1767 23.9568 73.5618 24.3736C68.4979 25.6189 63.4394 27.0833 58.6938 29.0211C55.4507 30.4297 45.8445 34.4576 40.0269 37.7294C36.6502 39.646 31.9982 42.0517 28.9665 44.2598C26.3225 46.2674 22.5584 49.8817 21.0239 51.3414C19.9465 52.4562 15.5381 56.9768 14.9127 58.2762C14.6267 58.8991 14.2979 59.2654 13.9878 60.0247C13.9852 60.2894 13.7072 60.8669 13.7153 61.5701C13.7316 62.9765 12.6169 64.8025 11.7961 65.2115C9.91388 65.8957 9.59823 64.9384 9.84668 63.5294C10.3357 61.5054 12.1909 58.9763 12.7148 58.0031C13.6584 56.6477 18.6015 51.5924 19.8847 50.3091C21.0209 49.3601 24.3466 46.4837 25.4133 45.679C27.5654 43.7141 31.6104 40.7549 38.4733 36.5501C45.1169 32.3399 52.3409 29.0843 57.3192 27.3257C67.8879 23.084 75.1576 21.3178 79.1308 21.0136C81.4623 20.7786 83.5451 20.4554 85.7616 20.3728C87.0477 20.3222 88.2937 20.4989 89.7241 20.3788C94.6411 20.2164 99.8183 25.8214 99.5115 30.0592C99.3568 32.6848 99.3785 35.0591 97.6652 38.5321C94.6981 44.1198 90.7235 52.1752 82.7754 59.0376C78.0541 63.0849 74.4879 66.5763 70.697 69.8431C66.898 73.1553 62.936 76.144 57.6852 79.448C50.6592 83.3292 43.8764 87.0795 36.5641 90.0864C31.8265 91.9787 27.2091 93.1893 23.3429 93.3865C21.0729 93.5226 18.7521 93.4474 17.5033 92.7868C16.6984 92.3562 15.907 92.0994 15.2839 91.6367C13.0778 89.9118 12.2378 86.9331 13.4938 82.3077C13.9401 80.7757 14.8864 79.1556 15.4716 77.3348C16.268 74.8163 18.7301 71.3434 20.7724 68.2528C22.5981 65.6409 24.4828 63.1947 26.4717 60.9062C27.5891 59.5642 28.744 58.2595 30.0272 56.9763C32.5428 54.1987 35.3552 51.2366 37.6516 49.2022C40.9533 46.4621 44.5998 43.2648 48.578 40.9339C50.3131 39.8352 52.2194 39.0146 54.0776 38.4668C55.2728 38.4322 55.5695 38.2478 56.1979 38.9297C56.5884 39.2131 56.5537 39.6597 56.5644 40.0982ZM100.557 36.2606C100.966 36.1885 101.193 36.1484 101.276 36.1778C103.383 35.7183 105.452 35.2213 107.575 34.6708C108.647 33.3367 109.912 31.6605 111.23 29.9307C111.409 29.4147 111.671 28.9281 111.839 28.7223L112.959 27.1155C113.897 24.7922 114.097 22.9072 115.314 22.2523C115.619 22.0224 116.621 21.5814 117.282 21.3328C118.733 20.5924 120.108 21.5391 119.662 23.0711C118.189 25.9292 114.705 30.1986 111.858 33.6072C116.422 32.4502 120.986 31.2931 125.51 30.3633C127.101 30.0828 129.823 29.3827 131.849 29.3777C132.523 29.3029 133.197 29.2281 133.9 29.2363C137.144 29.325 143.507 28.9516 143.021 32.9568C142.853 33.9113 139.815 32.9055 139.756 31.9911C139.775 31.6355 139.852 31.4457 139.906 31.3922C139.815 31.4082 139.687 31.3868 139.438 31.2985C137.839 30.8758 135.917 31.0387 134.275 31.1079C133.828 31.1426 132.679 31.1692 132.534 31.2387C130.213 31.1635 121.144 33.6434 121.008 33.6674C117.08 34.7123 113.214 35.6582 109.332 36.6951C106.4 40.339 102.521 44.8544 99.3609 49.287C98.1954 50.9018 97.1208 52.5005 96.1826 54.0752C95.2978 55.5964 94.3328 57.5722 94.1939 58.6096C93.9509 60.2379 94.7718 60.5776 96.5739 60.3479C97.8759 60.2064 99.4079 59.7601 100.683 59.271C102.049 58.7658 104.381 57.7822 107.161 56.4993C108.651 55.7963 111.982 53.8877 114.773 52.2946C115.703 51.514 116.209 51.6451 115.639 52.6262C113.709 54.3318 111.653 55.7513 109.065 57.4407C106.523 59.1221 103.486 61.1109 100.181 62.6184C98.1224 63.554 96.3391 64.1767 94.9381 64.3797C93.4007 64.6067 92.2537 64.3686 91.6332 63.6412C90.9085 62.7561 90.8334 61.1839 91.7047 58.7402C92.7016 55.834 95.5297 51.2837 98.7215 46.6693C100.847 43.6081 103.162 40.4695 105.223 37.772L105.132 37.788L105.177 37.78C104.212 38.2585 100.739 39.2232 98.389 39.8137C96.0121 40.8053 92.6701 41.5267 91.146 41.1789C90.17 41.2189 89.6379 40.7402 89.6913 39.9381L89.7153 39.8017C90.036 38.7323 91.6694 37.2112 92.9501 36.9413C94.5035 36.6233 99.0115 36.5331 100.557 36.2606ZM135.151 20.7362C135.328 20.4849 135.659 19.8539 136.579 19.3835C137.02 19.1296 137.582 18.9425 138.354 18.8062L138.491 18.7822C139.314 18.8572 139.659 19.1487 139.796 19.8733C139.809 20.7957 138.916 22.3624 137.965 23.7633C137.444 25.2204 136.179 26.8967 135.07 28.1933L134.137 29.2386C130.501 34.3717 126.462 39.7961 122.479 44.9024C121.621 46.0226 120.626 47.1668 119.859 48.2709L118.501 50.2279C117.731 51.5968 116.993 52.7838 117.317 52.947C117.437 53.0138 118.488 52.3001 119.972 51.3779C121.554 50.3942 124.944 47.9027 125.249 47.6728C126.963 46.4458 129.422 44.735 132.414 42.7542C133.86 41.7945 134.879 41.2626 135.82 40.9205C137.74 40.2737 139.061 40.5253 139.024 41.9851C138.984 42.961 138.315 44.0037 137.254 45.7762C136.07 47.7466 134.912 50.0646 134.653 51.7838C134.581 52.1929 134.563 52.5485 134.651 52.7971C134.803 53.4308 136.565 53.4284 137.755 53.1746C139.953 52.699 141.865 52.0977 143.503 51.5445C144.779 51.0553 146.198 50.4967 147.522 49.7349C148.503 49.1656 149.31 48.5828 150.155 48.0375C151.297 47.3077 151.947 47.3693 150.984 48.3317C149.503 49.7379 147.53 51.1868 145.362 52.4939C142.007 54.5388 138.261 56.3003 135.379 57.1608C134.173 57.5056 132.398 57.3342 131.379 56.3688C129.873 54.9167 131.752 50.754 134.011 47.1848C134.81 45.8989 135.476 45.1209 134.939 45.1716C134.356 45.2304 132.564 45.1499 128.69 47.6386C125.517 49.6514 123.632 51.349 122.45 52.306C120.758 53.6614 118.523 55.5968 117.334 56.5993C115.267 58.3289 113.783 59.9998 112.233 60.8017C110.971 61.4646 109.447 61.1168 109.433 60.1944C109.412 59.3174 110.457 57.6357 111.745 55.8231C113.103 53.8661 114.533 52.2487 116.028 50.2677C118.311 47.3108 120.078 45.2817 121.994 42.6537C124.44 39.2718 126.945 35.307 129.653 31.4384C130.696 30.0215 132.16 27.2089 133.12 25.7626C134.08 24.3162 134.283 22.1665 135.151 20.7362ZM160.401 45.7465C159.328 46.3319 157.2 47.4118 156.275 46.9144C155.919 46.933 155.716 46.8367 155.665 46.6255L154.933 47.2831C154.62 47.5585 154 48.3284 153.639 48.8765C153.286 49.3791 153.26 49.7802 153.235 49.9165C153.163 50.3256 153.623 50.4647 154.038 50.6118C154.58 50.7804 155.621 51.1254 159.92 49.971C161.345 49.6316 162.965 49.434 166.7 47.9827C170.382 46.5849 172.435 45.4301 175.36 44.0776C176.705 43.4442 177.897 42.9256 179.341 42.2307C181.445 41.2871 182.603 40.4665 182.808 40.2981C183.327 39.8543 184.471 39.6085 184.001 40.5282C183.678 41.1137 182.279 41.8006 180.956 42.5625C178.841 43.8161 176.446 45.1634 175.534 45.5883C173.064 46.8607 170.762 47.9272 168.027 49.2022C165.278 50.3033 163.385 51.2977 160.995 52.1155C160.198 52.3881 158.688 52.9627 157.717 53.222C154.343 54.1252 152.843 54.3897 151.586 54.5232C150.776 54.622 150.437 54.5497 149.886 54.4267C149.29 54.3116 149.284 54.0923 148.878 53.8998C148.148 53.5441 147.899 52.7071 148.083 51.6617C148.188 51.0708 148.302 50.1698 148.947 49.2635C149.337 48.7983 150.104 47.6942 151.272 46.5633C152.28 45.5929 153.684 44.3766 154.948 43.449C156.868 42.0535 157.477 41.5938 158.475 40.9335C159.373 40.3347 160.573 39.7707 162.939 38.3406C167.177 35.7878 169.075 35.0127 171.42 34.2029L173.257 33.5267C174.326 33.206 178.251 32.4258 178.112 34.2119C178.046 34.8402 177.73 35.3803 176.631 36.3667C175.747 37.1393 175.113 37.7355 173.774 38.5882C171.734 39.9167 167.993 41.8974 164.459 43.7097C163.927 43.9797 163.205 44.3272 162.301 44.7067C161.662 45.0836 160.978 45.4685 160.401 45.7465ZM159.646 43.2812C159.296 43.5191 158.9 43.7651 158.542 44.0484L158.724 44.0164C159.087 43.9522 159.777 43.7866 160.512 43.6129C161.066 43.4713 161.103 43.5087 161.52 43.3911L162.552 43.033L163.654 42.5305C164.322 42.2365 164.9 41.9585 165.341 41.7045C167.493 40.4883 170.939 38.4273 172.129 37.4249C172.8 36.8662 172.348 36.6816 172.311 36.6442C171.76 36.5211 171.351 36.5932 171.305 36.6012C170.471 36.8364 169.653 36.9807 167.501 38.1969C167.105 38.4428 166.306 38.9801 165.811 39.2875L163.94 40.4102C162.411 41.3405 160.911 42.3536 159.646 43.2812ZM187.305 38.6684C186.779 39.1576 186.113 39.9356 185.538 40.6975C185.469 41.5906 185.501 42.9061 184.972 43.66C183.317 45.8014 181.951 47.0552 179.844 49.0121C178.184 50.1856 176.933 49.7897 177.168 48.2069C177.528 46.9102 178.657 45.2579 179.638 43.9399C184.318 37.8739 190.604 33.1984 197.272 29.6005C200.076 28.1812 204.156 26.2727 206.276 26.7356C206.367 26.7196 206.45 26.749 206.541 26.7329C206.972 26.7892 207.589 27.0326 207.857 27.5139C208.156 27.8134 208.279 28.3642 208.231 28.6369C208.039 29.7278 205.828 32.2755 204.606 32.7112C203.863 32.9303 203.251 32.9062 202.997 32.5986C202.772 32.374 203.352 31.0827 202.488 31.235C201.405 31.3818 200.601 30.9513 199.935 30.9806C199.381 31.1222 198.82 31.3093 198.304 31.4883C197.507 31.7609 196.78 31.8892 196.219 32.0763C194.684 32.7872 193.099 34.0357 191.644 35.0408C190.144 36.0539 188.703 37.2328 187.305 38.6684ZM251.274 21.3997C251.48 23.4772 249.082 25.8378 247.598 24.5141C247.234 23.8295 244.921 23.7089 243.94 24.2782C243.491 24.5776 242.012 24.9705 240.512 25.9836C238.213 27.534 234.799 30.1618 233.048 31.3514C229.941 33.4846 227.533 36.1553 227.525 36.9494C227.99 37.3078 229.076 36.8962 229.669 36.5273C232.353 35.0411 235.158 33.6217 237.562 32.229C239.075 31.3897 240.671 30.5798 242.299 29.5881C244.975 28.1473 251.368 24.1136 252.777 23.8651C253.413 23.7529 254.421 24.2798 254.293 25.007C253.823 27.424 249.837 31.2977 249.548 32.934C249.436 33.5704 249.864 33.8913 251.182 33.6588C251.682 33.5707 252.334 33.3676 253.123 33.1404C256.668 31.7666 261.531 29.4118 264.221 27.3962C265.389 27.014 265.381 27.8081 264.36 28.6047C261.312 30.9037 250.864 38.9555 246.923 36.832C246.035 36.3719 245.979 35.1928 246.348 33.8506C246.842 32.0459 248.05 29.9392 248.604 29.0489C249.114 27.9019 247.392 28.4257 246.89 28.7786C246.197 29.209 244.679 29.8291 242.861 30.8983C241.978 31.4062 241.032 32.2777 240.15 32.7856C237.458 34.3172 233.819 36.7204 230.99 38.2761C227.964 39.9548 225.731 40.8769 224.587 41.1227C223.951 41.2349 223.256 41.1813 222.635 41.2026C221.814 40.8629 221.568 40.51 221.568 39.7613C221.595 39.3603 221.913 38.5555 222.244 37.9245C222.814 36.9434 224.116 35.3045 225.773 33.6471C227.476 31.9816 229.564 30.3803 231.858 28.6106C234.074 27.0307 237.392 24.9484 240.06 23.5531C242.584 22.2273 244.009 21.8879 244.945 21.3266C245.865 20.8561 247.819 20.5115 248.509 20.3458C249.57 20.0706 250.129 20.1482 250.683 20.7552L251.274 21.3997ZM270.398 24.0169C269.872 24.5061 269.206 25.284 268.631 26.046C268.562 26.939 268.594 28.2545 268.065 29.0084C266.41 31.1498 265.044 32.4036 262.937 34.3605C261.277 35.534 260.026 35.1381 260.261 33.5553C260.622 32.2586 261.75 30.6064 262.731 29.2884C267.412 23.2223 273.697 18.5468 280.365 14.9489C283.169 13.5296 287.249 11.6211 289.37 12.084C289.46 12.068 289.543 12.0974 289.634 12.0814C290.065 12.1376 290.682 12.381 290.95 12.8623C291.249 13.1618 291.372 13.7126 291.324 13.9853C291.132 15.0762 288.921 17.624 287.699 18.0596C286.956 18.2787 286.344 18.2546 286.09 17.9471C285.865 17.7224 286.445 16.4311 285.582 16.5834C284.499 16.7303 283.694 16.2997 283.028 16.329C282.475 16.4706 281.913 16.6577 281.397 16.8368C280.6 17.1094 279.873 17.2376 279.312 17.4247C277.777 18.1357 276.192 19.3841 274.737 20.3892C273.237 21.4023 271.797 22.5813 270.398 24.0169ZM297.562 21.5613C296.49 22.1467 294.362 23.2265 293.436 22.7291C293.081 22.7478 292.878 22.6515 292.827 22.4402L292.094 23.0979C291.782 23.3732 291.161 24.1432 290.8 24.6912C290.448 25.1939 290.421 25.5949 290.397 25.7313C290.325 26.1403 290.785 26.2794 291.199 26.4266C291.742 26.5951 292.782 26.9402 297.081 25.7857C298.506 25.4464 300.127 25.2488 303.862 23.7975C307.543 22.3996 309.596 21.2449 312.521 19.8924C313.866 19.2589 315.059 18.7404 316.502 18.0454C318.606 17.1019 319.764 16.2812 319.97 16.1128C320.489 15.669 321.633 15.4232 321.162 16.3429C320.839 16.9284 319.441 17.6154 318.117 18.3772C316.003 19.6309 313.607 20.9781 312.695 21.4031C310.225 22.6754 307.923 23.7419 305.188 25.0169C302.44 26.1181 300.547 27.1124 298.156 27.9302C297.36 28.2029 295.849 28.7775 294.879 29.0367C291.504 29.9399 290.004 30.2044 288.748 30.3379C287.938 30.4367 287.598 30.3645 287.047 30.2414C286.451 30.1263 286.446 29.9071 286.039 29.7145C285.309 29.3588 285.06 28.5219 285.245 27.4765C285.349 26.8856 285.464 25.9845 286.108 25.0782C286.498 24.6131 287.266 23.5089 288.434 22.3781C289.442 21.4077 290.845 20.1913 292.11 19.2637C294.029 17.8683 294.639 17.4085 295.636 16.7482C296.534 16.1494 297.735 15.5855 300.101 14.1553C304.338 11.6025 306.237 10.8274 308.581 10.0176L310.418 9.34144C311.488 9.02074 315.413 8.24059 315.274 10.0266C315.207 10.655 314.892 11.195 313.793 12.1815C312.908 12.9541 312.274 13.5502 310.935 14.4029C308.895 15.7315 305.155 17.7122 301.62 19.5245C301.088 19.7944 300.366 20.1419 299.463 20.5215C298.824 20.8984 298.139 21.2833 297.562 21.5613ZM296.808 19.096C296.457 19.3339 296.062 19.5798 295.703 19.8632L295.885 19.8311C296.249 19.767 296.939 19.6013 297.674 19.4276C298.227 19.286 298.265 19.3234 298.682 19.2059L299.714 18.8477L300.815 18.3452C301.484 18.0512 302.061 17.7732 302.502 17.5193C304.655 16.303 308.101 14.2421 309.29 13.2396C309.961 12.6809 309.51 12.4963 309.472 12.4589C308.921 12.3358 308.512 12.408 308.467 12.416C307.633 12.6511 306.814 12.7954 304.662 14.0116C304.267 14.2576 303.467 14.7949 302.973 15.1023L301.101 16.225C299.572 17.1552 298.072 18.1683 296.808 19.096ZM344.465 4.96755C344.671 7.04509 342.273 9.40566 340.789 8.08193C340.425 7.39739 338.112 7.27673 337.131 7.8461C336.682 8.14549 335.204 8.53831 333.704 9.55145C331.404 11.1019 327.991 13.7297 326.239 14.9192C323.133 17.0524 320.724 19.7232 320.716 20.5173C321.182 20.8756 322.267 20.464 322.861 20.0951C325.545 18.6089 328.349 17.1896 330.753 15.7969C332.266 14.9576 333.862 14.1477 335.49 13.1559C338.167 11.7152 344.559 7.68143 345.968 7.43298C346.604 7.32077 347.612 7.84765 347.484 8.57489C347.014 10.9919 343.028 14.8656 342.739 16.5019C342.627 17.1382 343.055 17.4591 344.373 17.2267C344.873 17.1385 345.525 16.9354 346.314 16.7083C349.859 15.3345 354.723 12.9796 357.412 10.964C358.58 10.5819 358.573 11.376 357.551 12.1726C354.504 14.4716 344.056 22.5234 340.114 20.3998C339.227 19.9398 339.17 18.7607 339.539 17.4185C340.033 15.6138 341.242 13.507 341.795 12.6168C342.305 11.4698 340.584 11.9936 340.081 12.3465C339.389 12.7768 337.87 13.3969 336.052 14.4662C335.17 14.974 334.223 15.8455 333.341 16.3534C330.649 17.8851 327.01 20.2883 324.182 21.844C321.155 23.5226 318.923 24.4448 317.778 24.6906C317.142 24.8028 316.447 24.7492 315.827 24.7705C315.006 24.4308 314.76 24.0778 314.76 23.3292C314.786 22.9281 315.104 22.1234 315.436 21.4924C316.005 20.5112 317.307 18.8724 318.964 17.2149C320.667 15.5494 322.755 13.9482 325.049 12.1785C327.265 10.5986 330.583 8.51624 333.251 7.12093C335.775 5.79513 337.2 5.45577 338.136 4.89442C339.056 4.42398 341.01 4.07935 341.7 3.91368C342.762 3.63844 343.32 3.71606 343.874 4.32309L344.465 4.96755ZM362.991 6.9857L364.031 6.58212C365.277 6.01012 366.469 5.49159 367.274 5.17353C370.501 3.85585 372.805 3.27331 375.359 2.77904C375.46 2.45286 375.607 2.11866 375.738 1.87537C376.254 0.947652 376.174 0.653527 376.848 -0.16989C378.944 -2.56526 382.847 -5.71972 385.406 -5.24609C385.874 -5.15243 386.459 -4.72722 386.713 -4.4197C386.737 -3.80741 386.28 -2.71391 385.804 -2.01345C384.976 -0.810387 382.439 0.341626 381.658 -0.225326L381.259 -0.463349C380.936 -0.626496 379.484 -0.634733 379.318 0.0550718C379.153 0.744876 378.941 1.4427 378.904 2.15391C379.177 2.10582 379.458 2.01228 379.73 1.96419C385.337 0.887501 386.056 0.804722 391.225 0.465921C391.944 0.383142 393.032 0.455494 393.877 0.658824C394.428 0.781899 394.805 0.891579 394.765 1.11884C394.957 1.52528 394.249 2.04656 393.837 2.38339C393.228 2.84319 392.522 3.09976 391.957 2.80289C391.302 2.52205 391.276 2.17446 390.246 2.26789C389.733 2.18225 388.487 2.0056 386.92 2.14975C384.634 2.37668 381.861 2.86557 380.907 3.03387L378.862 3.39453C378.934 4.48275 379.151 5.50149 379.391 6.38386C379.728 7.46946 379.686 8.71007 378.582 10.2259C377.954 11.0413 376.999 11.9583 376.093 12.6025C374.294 14.0648 371.481 15.5296 367.872 16.5184C364.853 17.4029 361.877 17.7955 360.335 17.8033C358.974 17.7791 357.797 17.458 356.826 16.9686C355.781 16.4043 355.115 15.6849 355.286 14.4657C355.457 13.2465 356.622 11.6317 358.59 9.96361C359.764 9.05204 360.076 8.77669 361.667 7.74753C362.306 7.37062 362.194 7.25831 362.991 6.9857ZM375.154 8.93667C374.878 7.75216 374.83 5.77892 375.081 4.10518C373.156 4.5327 371.215 5.05112 369.263 5.8797C367.6 6.56928 365.758 7.02622 364.17 7.79068C363.592 8.06866 362.534 8.82785 362.023 9.22617C361.261 9.80091 360.906 10.5682 360.39 11.4959C359.743 12.667 360.28 13.3649 360.585 13.8836C361.061 14.6805 361.743 14.5603 362.294 14.6833C363.781 14.9937 365.492 15.5287 367.486 14.9568C368.981 14.4731 369.43 14.1737 370.598 13.7915C371.47 13.5938 373.165 12.7224 373.847 11.8535C374.406 11.1825 375.502 10.4608 375.154 8.93667Z" fill="#6BC5F7"/>
</svg>
