<svg width="541" height="171" viewBox="0 0 541 171" fill="none" xmlns="http://www.w3.org/2000/svg">
<path d="M95.1698 81.9826C95.4052 82.6458 94.8011 84.0735 93.9777 84.7471C93.4965 85.2283 93.1036 85.9582 92.2828 86.3672C90.9834 86.9926 89.1145 87.102 88.8711 86.4843C88.6223 85.6474 89.0526 84.2063 88.2317 83.8666C87.1327 83.3558 85.7289 83.0748 83.7424 83.6012C80.7934 84.3414 78.2642 85.448 76.2189 86.5573C75.1094 87.1053 72.476 88.8027 71.3932 89.6983C68.7546 91.9251 67.0677 93.4997 66.2898 94.914C65.3275 96.6251 64.6675 99.1196 64.4913 100.868C64.3418 102.964 64.6015 104.988 65.0055 106.943C65.471 108.799 66.0488 110.767 66.7202 112.454C67.3247 114.021 67.9452 115.497 68.4454 116.906C72.6564 115.503 77.9636 114.127 82.3511 113.221C86.367 112.425 85.2387 112.58 88.3936 111.671C91.503 110.77 95.091 109.653 98.1793 110.122C98.5028 110.285 98.5991 110.488 98.3291 111.02C96.5433 112.656 96.3988 111.977 93.6691 113.471C93.2066 113.597 93.0381 113.054 91.7386 112.931C91.1263 112.907 90.3697 112.952 89.7119 112.936C86.3137 113.975 82.7471 115.221 80.5119 115.659C77.0789 116.397 73.0684 117.412 68.9724 118.663C69.7482 121.256 70.096 122.78 70.3342 123.928C71.1851 128.842 67.181 136.815 59.468 142.094C53.6585 146.069 47.2581 149.4 44.4455 150.864C38.9513 153.551 21.316 158.906 15.8509 159.43C13.7467 159.624 8.95816 160.557 7.11315 159.781C4.9446 158.842 2.93645 157.743 2.96027 156.11C3.00539 153.856 4.04783 151.69 6.26403 149.361C8.93739 146.688 14.0249 142.312 18.9709 139.238C24.4035 135.902 28.7881 133.763 32.3145 131.997C39.8111 127.944 46.1156 125.908 54.2406 122.537C56.8982 121.452 61.1037 119.83 64.05 118.606C63.0602 114.729 61.5832 107.37 61.7752 104.034C62.2048 98.1005 65.7145 91.9327 71.2083 87.0004C72.505 85.891 73.9513 84.9313 75.395 84.2364C78.1461 82.8705 82.7019 81.0102 86.5146 80.1178C89.6749 79.4284 92.4368 79.2497 93.6429 80.4022C94.4825 81.135 94.9076 80.9719 95.1698 81.9826ZM65.4818 127.47C65.6498 124.269 65.2913 123.055 64.4513 120.076C60.0131 121.52 55.7246 123.113 52.2837 124.644C45.2335 127.913 39.9853 130.204 33.1276 133.879C27.973 136.638 23.9681 138.621 19.0515 141.778C17.7201 142.585 9.56055 147.899 8.54787 152.394C7.70085 156.199 14.6607 156.689 18.9092 156.072C22.6658 155.498 28.5586 154.547 33.9726 152.315C36.6382 151.184 40.4802 150.375 43.4854 149.316C50.0303 146.665 54.0967 143.834 57.7433 141.385C63.5074 137.418 65.2551 131.253 65.4818 127.47ZM85.6963 127.164L86.9473 125.314C85.581 125.071 85.9311 124.084 86.594 122.822C87.2864 121.643 88.8771 120.614 89.4306 121.221L90.131 119.996C90.155 119.86 90.2245 119.716 90.302 119.526C90.5105 119.093 90.8634 118.59 91.2617 118.079C91.8311 117.098 92.355 116.125 92.8869 115.107C92.828 114.192 92.9615 112.935 93.1646 112.283C94.1429 110.481 94.7392 110.596 96.049 108.912C96.6212 108.415 96.9179 108.23 97.6906 108.094C97.7361 108.086 98.7895 107.856 99.1238 108.458C99.2869 108.781 99.2655 108.653 99.1427 109.6C98.7873 111.115 98.2072 111.658 97.5014 112.663C102.161 109.464 107.324 107.408 112.281 105.521C114.171 104.792 118.294 103.889 120.414 105.1C121.294 105.606 121.853 106.432 121.794 107.763C121.76 108.958 120.383 110.522 119.57 111.635C117.876 114.003 114.392 116.027 112.368 117.264C105.856 121.231 100.102 123.391 93.5675 124.983C92.4232 125.229 91.0302 125.387 89.827 125.467C87.9691 128.261 85.0258 131.466 82.4515 134.827C79.5323 138.644 76.7922 141.946 74.8889 144.748C73.8758 146.248 73.801 146.921 72.6248 148.846C71.732 150.413 71.5479 152.956 70.2166 154.512L69.0431 156.172L68.217 157.11C67.8214 157.356 67.5032 157.412 67.2385 157.415L66.1584 158.046C64.3966 159.545 65.2355 155.038 66.615 153.958C67.7512 153.009 70.7824 147.057 71.6272 146.512C72.1725 145.667 72.7392 144.951 73.1776 144.213C76.6232 138.409 81.3978 133.559 85.6963 127.164ZM109.822 108.729C108.613 109.339 107.252 110.063 105.883 110.833C105.22 111.346 102.881 112.375 101.32 113.487C99.606 114.714 98.5607 115.647 96.8149 117.056C94.711 118.748 93.0937 120.927 92.2997 121.684L90.8722 123.785C91.8641 123.654 92.9256 123.379 94.0939 122.997C97.0831 122.029 100.39 120.257 103.459 118.835C107.448 116.943 111.969 113.283 113.555 112.035C114.782 111.07 115.995 109.931 116.875 108.939C117.754 107.947 117.968 107.733 117.942 107.386C117.54 106.664 117.147 106.645 116.452 106.591C115.455 106.503 114.22 106.765 113.316 107.144C112.367 107.532 111.174 108.051 109.822 108.729ZM131.62 111.58C130.548 112.165 128.42 113.245 127.495 112.748C127.139 112.766 126.936 112.67 126.885 112.459L126.153 113.116C125.84 113.392 125.22 114.162 124.859 114.71C124.506 115.212 124.479 115.613 124.455 115.75C124.383 116.159 124.843 116.298 125.257 116.445C125.8 116.614 126.84 116.959 131.139 115.804C132.565 115.465 134.185 115.267 137.92 113.816C141.601 112.418 143.655 111.263 146.58 109.911C147.924 109.277 149.117 108.759 150.56 108.064C152.665 107.12 153.822 106.3 154.028 106.131C154.547 105.688 155.691 105.442 155.221 106.361C154.897 106.947 153.499 107.634 152.175 108.396C150.061 109.649 147.665 110.997 146.754 111.422C144.283 112.694 141.981 113.76 139.246 115.035C136.498 116.137 134.605 117.131 132.215 117.949C131.418 118.221 129.907 118.796 128.937 119.055C125.563 119.958 124.063 120.223 122.806 120.356C121.996 120.455 121.656 120.383 121.106 120.26C120.509 120.145 120.504 119.926 120.097 119.733C119.367 119.377 119.119 118.54 119.303 117.495C119.407 116.904 119.522 116.003 120.166 115.097C120.557 114.632 121.324 113.527 122.492 112.397C123.5 111.426 124.903 110.21 126.168 109.282C128.088 107.887 128.697 107.427 129.694 106.767C130.593 106.168 131.793 105.604 134.159 104.174C138.397 101.621 140.295 100.846 142.64 100.036L144.476 99.3599C145.546 99.0392 149.471 98.2591 149.332 100.045C149.265 100.673 148.95 101.214 147.851 102.2C146.966 102.973 146.333 103.569 144.993 104.421C142.953 105.75 139.213 107.731 135.679 109.543C135.147 109.813 134.425 110.16 133.521 110.54C132.882 110.917 132.198 111.302 131.62 111.58ZM130.866 109.114C130.516 109.352 130.12 109.598 129.762 109.882L129.943 109.85C130.307 109.785 130.997 109.62 131.732 109.446C132.286 109.305 132.323 109.342 132.74 109.224L133.772 108.866L134.874 108.364C135.542 108.07 136.12 107.792 136.561 107.538C138.713 106.322 142.159 104.261 143.349 103.258C144.02 102.699 143.568 102.515 143.53 102.477C142.98 102.354 142.57 102.426 142.525 102.434C141.691 102.67 140.873 102.814 138.721 104.03C138.325 104.276 137.525 104.813 137.031 105.121L135.159 106.243C133.63 107.174 132.13 108.187 130.866 109.114ZM175.649 98.7957L175.604 98.8037C175.55 98.8572 175.468 98.8278 175.369 98.8893C174.305 99.4292 172.08 99.5572 171.369 98.8459C170.361 99.0677 169.398 99.2814 168.821 99.5594L167.658 100.161C166.685 100.685 164.145 101.353 163.118 101.93C161.848 102.639 160.583 103.566 159.41 104.478C158.282 105.381 157.549 106.039 156.656 106.857C156.389 107.124 155.761 107.94 155.52 108.555C155.288 109.124 155.146 109.678 155.119 110.079C154.932 110.64 156.617 110.827 157.282 110.798C158.387 110.78 161.678 109.847 162.239 109.66C166.782 108.374 173.271 105.293 178.155 103.066C180.853 101.754 181.462 101.294 184.077 99.952C185.385 99.2811 186.272 99.7411 184.901 100.776C183.278 101.987 180.733 103.184 178.559 104.272C175.846 105.675 171.707 108.167 168.306 109.471C165.368 110.65 158.261 113.488 155.32 114.183C154.077 114.49 150.008 115.34 150.136 113.115C150.195 112.532 150.269 111.859 150.529 110.888C150.772 110.008 151.133 109.46 151.646 108.797C152.213 108.081 153.335 106.958 154.145 106.111C156.551 103.705 159.88 101.312 163.12 99.4195C166.703 97.3345 172.991 94.6403 175.975 93.4536C176.878 93.0741 177.686 93.24 178.488 93.1866C179.349 93.299 179.649 93.5985 179.625 94.4835L179.301 95.8177L179.2 96.1439C178.743 96.4887 178.323 96.871 177.828 97.1784C177.179 97.8655 176.334 98.4108 175.649 98.7957ZM180.97 107.106C180.678 105.264 181.841 103.165 183.34 100.654C184.701 98.4328 185.917 96.2806 187.149 94.7862C188.598 92.8132 190.374 92.2359 191.724 91.8217C192.467 91.6025 193.293 92.1615 193.31 92.8192C193.499 93.4903 192.796 94.2309 192.208 94.819C191.238 95.8269 190.401 96.3267 189.837 96.7785C189.294 97.3586 188.693 97.773 188.273 98.1553C187.319 99.0722 186.76 99.7433 186.038 100.839C185.009 102.43 184.728 103.272 184.822 104.489C184.924 106.409 187.426 105.703 188.975 105.166C191.996 104.017 194.977 103.095 197.918 101.651C199.939 100.678 202.008 99.4327 203.858 98.1816C204.799 97.8395 205.66 97.952 204.92 98.6551C199.953 102.349 193.162 106.894 187.299 108.676C184.598 109.505 181.39 109.718 180.97 107.106ZM201.587 74.8448C202.652 74.3048 203.205 74.1632 203.545 74.2354C204.034 74.4574 204.478 74.6874 203.443 76.0589C201.644 78.2699 201.109 78.8045 199.222 80.0181C199.123 80.0796 197.284 81.0205 196.527 80.3172C196.265 80.0551 196.559 79.3867 196.441 79.0552C196.206 77.6434 198.721 76.363 200.622 75.3232C201.36 74.8848 201.146 75.0987 201.587 74.8448ZM229.36 86.0221C229.566 88.0997 227.168 90.4602 225.684 89.1365C225.32 88.452 223.007 88.3313 222.026 88.9007C221.577 89.2001 220.099 89.5929 218.599 90.606C216.3 92.1565 212.886 94.7843 211.134 95.9738C208.028 98.107 205.619 100.778 205.611 101.572C206.077 101.93 207.162 101.519 207.756 101.15C210.44 99.6635 213.244 98.2442 215.648 96.8515C217.161 96.0122 218.757 95.2022 220.385 94.2105C223.062 92.7698 229.454 88.736 230.863 88.4876C231.499 88.3754 232.507 88.9022 232.379 89.6295C231.909 92.0465 227.923 95.9202 227.634 97.5565C227.522 98.1928 227.95 98.5137 229.268 98.2813C229.768 98.1931 230.421 97.99 231.209 97.7629C234.754 96.3891 239.618 94.0342 242.307 92.0186C243.476 91.6364 243.468 92.4306 242.446 93.2272C239.399 95.5262 228.951 103.578 225.009 101.454C224.122 100.994 224.065 99.8153 224.434 98.4731C224.928 96.6684 226.137 94.5616 226.69 93.6714C227.201 92.5244 225.479 93.0482 224.976 93.4011C224.284 93.8314 222.765 94.4515 220.947 95.5207C220.065 96.0286 219.118 96.9001 218.236 97.408C215.544 98.9397 211.905 101.343 209.077 102.899C206.05 104.577 203.818 105.499 202.673 105.745C202.037 105.857 201.342 105.804 200.722 105.825C199.901 105.485 199.655 105.132 199.655 104.384C199.681 103.983 199.999 103.178 200.331 102.547C200.9 101.566 202.202 99.927 203.859 98.2695C205.562 96.604 207.65 95.0027 209.944 93.2331C212.161 91.6532 215.478 89.5708 218.147 88.1755C220.67 86.8497 222.095 86.5104 223.031 85.949C223.951 85.4786 225.905 85.1339 226.595 84.9683C227.657 84.693 228.215 84.7707 228.769 85.3777L229.36 86.0221ZM240.056 96.7315C240.665 94.7744 243.426 90.1038 245.436 87.195C248.452 82.8319 252.63 76.37 257.832 69.5955L259.647 67.2937C260.452 66.227 259.703 66.9755 261.235 65.0319C261.941 64.0267 262.994 62.2996 264.143 60.7757C264.943 59.4898 266.001 57.9819 267.031 57.1399C267.247 56.6613 267.44 56.3191 267.768 55.9528C268.089 55.632 268.629 55.3166 269.199 55.0841C269.624 54.921 270.544 55.1992 270.878 55.8009C270.907 55.8838 270.891 55.9747 270.929 56.0121C271.341 56.4239 271.29 56.9613 270.91 57.865C270.771 58.1538 270.852 58.4479 270.606 58.8436C270.261 59.3007 269.764 59.8728 269.29 60.3086L265.361 64.6128L265.147 64.8266C263.425 66.8477 261.72 68.7779 261.062 69.5104C258.691 72.2186 256.239 75.3813 253.924 78.5199C250.567 83.0755 247.209 87.6311 245.124 91.2136C244.239 92.7349 243.659 94.0262 243.52 95.0636C243.419 96.1384 245.031 95.9863 245.857 95.7966C247.328 95.4492 249.355 94.6955 249.833 94.479C253.352 92.7576 255.089 92.1429 258.118 90.1995C260.348 88.7935 262.621 87.6441 265.003 86.1231C266.136 85.4388 266.722 85.864 265.655 86.6686C263.621 88.2164 259.849 91.1276 255.913 93.7152C251.521 96.6477 246.922 98.9999 244.262 99.6011C241.556 100.21 239.147 99.8864 240.056 96.7315ZM306.059 75.8009L306.014 75.8089C305.961 75.8624 305.878 75.833 305.779 75.8944C304.715 76.4344 302.49 76.5624 301.779 75.8511C300.771 76.0728 299.808 76.2866 299.231 76.5646L298.068 77.166C297.095 77.6899 294.555 78.358 293.528 78.9354C292.258 79.6437 290.994 80.5713 289.82 81.4829C288.692 82.3865 287.959 83.0441 287.066 83.8621C286.799 84.1295 286.171 84.9449 285.93 85.5598C285.698 86.1293 285.556 86.6827 285.529 87.0838C285.342 87.6452 287.027 87.8327 287.693 87.8033C288.797 87.7848 292.088 86.8521 292.65 86.6651C297.192 85.3797 303.681 82.2978 308.565 80.0713C311.263 78.7589 311.873 78.2991 314.487 76.9572C315.795 76.2863 316.682 76.7463 315.311 77.7809C313.688 78.9918 311.143 80.1893 308.969 81.2772C306.256 82.6805 302.117 85.1718 298.716 86.4761C295.778 87.6548 288.672 90.4933 285.731 91.188C284.487 91.4953 280.418 92.345 280.546 90.1204C280.605 89.5376 280.679 88.8638 280.939 87.8933C281.182 87.0136 281.543 86.4656 282.056 85.8025C282.623 85.0861 283.746 83.9633 284.556 83.1158C286.962 80.7098 290.29 78.3172 293.53 76.4247C297.113 74.3397 303.401 71.6455 306.385 70.4588C307.289 70.0793 308.096 70.2451 308.898 70.1918C309.759 70.3042 310.059 70.6037 310.035 71.4887L309.711 72.8229L309.61 73.1491C309.153 73.4939 308.733 73.8762 308.238 74.1836C307.589 74.8707 306.744 75.416 306.059 75.8009ZM311.916 79.9649C313.442 77.8021 315.618 75.7008 318.065 73.8162C319.444 72.7362 320.936 71.7685 322.42 70.8463C322.412 70.1431 324.053 68.5765 325.163 68.0286C325.641 67.8121 327.908 67.1921 328.47 67.005C328.751 66.9115 328.94 66.834 329.122 66.8019C329.737 66.5614 330.2 66.4358 330.48 66.3422C335.862 65.0409 342.477 64.4911 347.646 64.1523C350.362 63.9816 351.049 64.0806 353.183 64.7173C354.322 65.0009 354.913 66.394 353.044 67.252C352.194 67.578 352.068 67.2919 351.478 67.3961C350.494 67.4815 349.876 66.4895 350.05 65.7542C350.012 65.7168 349.967 65.7248 349.921 65.7328C349.098 65.6578 348.344 65.4385 347.504 65.4544C346.354 65.4809 345.149 65.8257 343.876 66.0501C342.095 66.4081 340.264 66.5549 338.4 66.8835C339.25 67.3061 339.652 68.028 339.529 68.9745C339.024 71.8381 335.038 74.9631 332.092 76.9359C331.041 77.6496 329.966 78.4997 328.833 79.184C328.095 79.6224 326.886 80.2318 326.111 80.6328C323.967 81.8036 322.205 82.5546 320.154 83.4447C318.582 84.1183 315.863 85.3023 313.62 85.7859C312.43 86.0398 311.363 86.0958 310.754 85.8069C309.572 85.2666 309.529 84.2613 309.948 83.1304C310.36 82.0449 311.218 80.9247 311.916 79.9649ZM337.553 69.1908C337.93 67.8032 334.772 68.2279 332.446 68.682C330.243 69.6871 327.524 71.6198 326.364 71.9565C326.037 72.058 324.917 72.1675 324.048 72.1005C323.187 72.7368 322.326 73.373 321.396 74.1536C320.565 74.8727 319.811 75.402 319.108 76.1425C318.565 76.7226 317.961 77.4017 317.394 78.1182C316.544 79.1929 315.822 80.289 315.59 80.8585C315.435 81.2382 315.379 81.5563 315.475 81.7595C315.667 82.166 316.948 81.8961 318.488 81.4044C319.657 81.0222 320.854 80.7229 322.047 80.2044C323.14 79.7473 325.49 78.4081 325.977 78.1462C327.953 77.1813 329.009 76.6868 331.123 75.4331C332.158 74.8103 333.591 73.6768 334.46 72.9951C335.992 71.8002 337.184 70.533 337.553 69.1908ZM351.466 65.3724L351.474 65.3269C352.148 64.5035 353.193 63.5705 354.187 63.1749C355.837 62.3115 357.003 62.9427 356.578 64.6031C355.528 66.8141 351.451 70.7038 349.721 72.7704C349.17 73.396 348.908 73.8825 349.082 73.8959C349.219 73.8719 349.406 74.0591 350.243 73.5592C351.079 73.0593 352.274 72.2761 352.625 72.0382C354.231 70.9181 358.466 67.8814 362.578 65.0425C366.513 62.4548 369.663 60.5783 371.441 60.485C374.377 60.3197 373.909 62.472 372.92 65.3328C372.375 66.9262 371.905 68.5946 371.675 69.648C371.258 72.0115 373.218 72.6348 375.309 72.2662C377.945 71.8013 381.405 69.9142 383.626 68.5535L383.634 68.5081C383.733 68.4466 383.87 68.4226 383.961 68.4065C385.249 68.0912 385.15 68.9014 384.001 69.6766C380.028 72.2267 375.261 75.5335 372.082 75.8298C370.197 76.03 368.32 74.6875 368.542 72.1823C368.654 70.7973 368.862 69.6155 369.308 68.0835C369.559 67.1584 369.589 66.4927 369.586 66.0087C369.567 65.6157 369.284 65.2253 369.006 65.0541C368.765 64.9204 368.238 64.6609 367.442 64.9336C365.894 65.4707 363.707 66.3848 361.073 68.0823C358.485 69.7717 355.855 71.9531 353.737 73.4715C351.97 74.752 348.978 77.4814 347.342 78.5186C346.407 79.08 345.727 79.6841 344.741 80.0342C344.308 80.2427 343.966 80.4352 343.618 80.4084C342.415 80.4884 341.995 80.1221 341.733 79.1113C341.85 77.9456 342.877 76.6196 344.117 75.0797C344.737 74.3097 345.489 73.2965 346.047 72.6254C347.135 71.2005 348.253 69.8584 349.132 68.8666C350.795 66.6797 350.493 66.6449 351.289 65.6237C351.396 65.5167 351.412 65.4258 351.466 65.3724ZM392.666 45.5124C393.075 45.4402 393.302 45.4002 393.385 45.4296C395.492 44.97 397.562 44.473 399.684 43.9225C400.756 42.5885 402.021 40.9122 403.339 39.1825C403.518 38.6665 403.78 38.1799 403.948 37.974L405.068 36.3673C406.006 34.0439 406.207 32.1589 407.423 31.5041C407.728 31.2742 408.731 30.8331 409.391 30.5846C410.843 29.8442 412.217 30.7909 411.771 32.3229C410.298 35.1809 406.815 39.4504 403.968 42.859C408.532 41.7019 413.096 40.5449 417.619 39.6151C419.21 39.3346 421.932 38.6344 423.959 38.6294C424.632 38.5546 425.306 38.4799 426.009 38.488C429.253 38.5767 435.616 38.2033 435.13 42.2085C434.962 43.163 431.924 42.1573 431.865 41.2428C431.884 40.8872 431.962 40.6974 432.015 40.6439C431.924 40.66 431.796 40.6386 431.547 40.5503C429.948 40.1276 428.026 40.2904 426.384 40.3597C425.938 40.3944 424.788 40.4209 424.643 40.4904C422.323 40.4152 413.254 42.8951 413.117 42.9192C409.19 43.964 405.324 44.91 401.441 45.9468C398.509 49.5907 394.63 54.1061 391.47 58.5387C390.305 60.1535 389.23 61.7522 388.292 63.3269C387.407 64.8482 386.442 66.8239 386.303 67.8613C386.06 69.4896 386.881 69.8293 388.683 69.5996C389.985 69.4581 391.517 69.0118 392.792 68.5227C394.159 68.0176 396.49 67.034 399.271 65.751C400.76 65.048 404.091 63.1394 406.882 61.5463C407.813 60.7657 408.318 60.8968 407.748 61.878C405.818 63.5835 403.762 65.003 401.174 66.6924C398.632 68.3739 395.595 70.3627 392.29 71.8702C390.232 72.8057 388.448 73.4284 387.047 73.6314C385.51 73.8585 384.363 73.6203 383.742 72.893C383.018 72.0078 382.943 70.4357 383.814 67.992C384.811 65.0858 387.639 60.5354 390.831 55.921C392.956 52.8599 395.271 49.7212 397.332 47.0237L397.241 47.0397L397.287 47.0317C396.321 47.5102 392.848 48.4749 390.498 49.0655C388.121 50.0571 384.779 50.7785 383.255 50.4307C382.279 50.4706 381.747 49.992 381.8 49.1898L381.825 49.0535C382.145 47.984 383.779 46.4629 385.059 46.193C386.613 45.8751 391.121 45.7848 392.666 45.5124ZM414.945 61.622C413.873 62.2074 411.744 63.2873 410.819 62.7898C410.464 62.8085 410.26 62.7122 410.21 62.501L409.477 63.1586C409.164 63.4339 408.544 64.2039 408.183 64.752C407.83 65.2546 407.804 65.6556 407.78 65.792C407.708 66.2011 408.167 66.3402 408.582 66.4873C409.125 66.6558 410.165 67.0009 414.464 65.8465C415.889 65.5071 417.509 65.3095 421.244 63.8582C424.926 62.4604 426.979 61.3056 429.904 59.9531C431.249 59.3196 432.441 58.8011 433.885 58.1061C435.989 57.1626 437.147 56.3419 437.353 56.1735C437.871 55.7298 439.016 55.4839 438.545 56.4037C438.222 56.9892 436.823 57.6761 435.5 58.4379C433.385 59.6916 430.99 61.0388 430.078 61.4638C427.608 62.7362 425.306 63.8026 422.571 65.0776C419.822 66.1788 417.929 67.1732 415.539 67.991C414.742 68.2636 413.232 68.8382 412.261 69.0974C408.887 70.0007 407.387 70.2651 406.131 70.3986C405.321 70.4974 404.981 70.4252 404.43 70.3021C403.834 70.1871 403.828 69.9678 403.422 69.7752C402.692 69.4195 402.443 68.5826 402.628 67.5372C402.732 66.9463 402.847 66.0453 403.491 65.139C403.881 64.6738 404.648 63.5696 405.817 62.4388C406.824 61.4684 408.228 60.252 409.493 59.3244C411.412 57.929 412.022 57.4692 413.019 56.809C413.917 56.2102 415.118 55.6462 417.484 54.2161C421.721 51.6633 423.619 50.8882 425.964 50.0784L427.801 49.4022C428.87 49.0815 432.795 48.3013 432.657 50.0874C432.59 50.7157 432.274 51.2557 431.176 52.2422C430.291 53.0148 429.657 53.6109 428.318 54.4637C426.278 55.7922 422.538 57.7729 419.003 59.5852C418.471 59.8552 417.749 60.2027 416.846 60.5822C416.207 60.9591 415.522 61.344 414.945 61.622ZM414.19 59.1567C413.84 59.3946 413.444 59.6405 413.086 59.9239L413.268 59.8918C413.632 59.8277 414.321 59.662 415.057 59.4884C415.61 59.3467 415.648 59.3842 416.065 59.2666L417.097 58.9085L418.198 58.406C418.867 58.1119 419.444 57.834 419.885 57.58C422.037 56.3638 425.484 54.3028 426.673 53.3003C427.344 52.7416 426.892 52.5571 426.855 52.5196C426.304 52.3966 425.895 52.4687 425.85 52.4767C425.015 52.7119 424.197 52.8561 422.045 54.0724C421.649 54.3183 420.85 54.8556 420.355 55.163L418.484 56.2857C416.955 57.2159 415.455 58.2291 414.19 59.1567ZM442.234 49.3676L442.242 49.3221C442.915 48.4987 443.961 47.5657 444.955 47.1701C446.605 46.3067 447.771 46.9379 447.346 48.5983C446.295 50.8093 442.218 54.699 440.489 56.7656C439.938 57.3912 439.676 57.8777 439.85 57.8911C439.986 57.8671 440.173 58.0543 441.01 57.5544C441.847 57.0545 443.042 56.2713 443.392 56.0334C444.999 54.9133 449.234 51.8766 453.346 49.0377C457.281 46.45 460.431 44.5735 462.209 44.4802C465.144 44.3149 464.677 46.4672 463.688 49.328C463.143 50.9214 462.672 52.5898 462.443 53.6432C462.026 56.0067 463.986 56.63 466.077 56.2614C468.713 55.7965 472.172 53.9094 474.394 52.5487L474.402 52.5033C474.501 52.4418 474.637 52.4178 474.728 52.4017C476.017 52.0864 475.918 52.8966 474.769 53.6718C470.796 56.2219 466.029 59.5287 462.85 59.825C460.965 60.0252 459.088 58.6827 459.309 56.1775C459.421 54.7925 459.63 53.6107 460.076 52.0787C460.327 51.1536 460.357 50.4879 460.354 50.0039C460.335 49.6109 460.052 49.2205 459.773 49.0493C459.533 48.9156 459.006 48.6561 458.209 48.9287C456.661 49.4659 454.474 50.38 451.841 52.0775C449.253 53.7669 446.622 55.9483 444.505 57.4667C442.738 58.7472 439.746 61.4766 438.11 62.5138C437.174 63.0751 436.495 63.6793 435.509 64.0294C435.076 64.2379 434.733 64.4304 434.386 64.4036C433.183 64.4836 432.763 64.1173 432.501 63.1065C432.618 61.9408 433.645 60.6148 434.885 59.0749C435.505 58.3049 436.256 57.2917 436.815 56.6206C437.903 55.1957 439.02 53.8536 439.9 52.8618C441.563 50.6749 441.261 50.6401 442.057 49.6189C442.164 49.5119 442.18 49.421 442.234 49.3676ZM483.434 29.5076C483.843 29.4354 484.07 29.3954 484.153 29.4248C486.26 28.9652 488.329 28.4682 490.452 27.9177C491.524 26.5837 492.789 24.9074 494.107 23.1777C494.286 22.6617 494.548 22.1751 494.716 21.9692L495.836 20.3625C496.774 18.0391 496.974 16.1541 498.191 15.4993C498.496 15.2694 499.498 14.8283 500.159 14.5798C501.61 13.8394 502.985 14.7861 502.539 16.3181C501.066 19.1761 497.582 23.4456 494.735 26.8542C499.299 25.6971 503.863 24.5401 508.387 23.6103C509.978 23.3298 512.7 22.6296 514.726 22.6246C515.4 22.5498 516.074 22.4751 516.777 22.4832C520.02 22.5719 526.384 22.1985 525.898 26.2037C525.73 27.1582 522.692 26.1525 522.633 25.238C522.652 24.8824 522.729 24.6926 522.783 24.6391C522.692 24.6552 522.564 24.6337 522.315 24.5455C520.716 24.1228 518.793 24.2856 517.152 24.3549C516.705 24.3896 515.556 24.4161 515.411 24.4856C513.09 24.4104 504.021 26.8903 503.885 26.9144C499.957 27.9592 496.091 28.9052 492.209 29.942C489.277 33.5859 485.398 38.1013 482.238 42.5339C481.072 44.1487 479.998 45.7474 479.06 47.3221C478.175 48.8434 477.21 50.8191 477.071 51.8565C476.828 53.4848 477.649 53.8245 479.451 53.5948C480.753 53.4533 482.285 53.007 483.56 52.5179C484.926 52.0128 487.258 51.0292 490.038 49.7462C491.528 49.0432 494.859 47.1346 497.65 45.5415C498.58 44.7609 499.086 44.892 498.516 45.8732C496.586 47.5787 494.53 48.9982 491.942 50.6876C489.4 52.3691 486.363 54.3579 483.058 55.8654C480.999 56.8009 479.216 57.4236 477.815 57.6266C476.278 57.8537 475.131 57.6155 474.51 56.8882C473.785 56.003 473.71 54.4309 474.582 51.9872C475.579 49.081 478.407 44.5306 481.598 39.9162C483.724 36.8551 486.039 33.7164 488.1 31.0189L488.009 31.0349L488.054 31.0269C487.089 31.5054 483.616 32.4701 481.266 33.0607C478.889 34.0523 475.547 34.7737 474.023 34.4259C473.047 34.4658 472.515 33.9872 472.568 33.185L472.592 33.0487C472.913 31.9792 474.546 30.4581 475.827 30.1882C477.38 29.8703 481.888 29.78 483.434 29.5076ZM501.493 43.3225L502.533 42.9189C503.779 42.3469 504.971 41.8284 505.776 41.5103C509.003 40.1926 511.308 39.6101 513.861 39.1158C513.963 38.7896 514.11 38.4554 514.241 38.2122C514.757 37.2844 514.676 36.9903 515.35 36.1669C517.446 33.7715 521.349 30.6171 523.908 31.0907C524.376 31.1844 524.961 31.6096 525.215 31.9171C525.24 32.5294 524.783 33.6229 524.307 34.3233C523.478 35.5264 520.941 36.6784 520.16 36.1115L519.762 35.8734C519.438 35.7103 517.986 35.7021 517.821 36.3919C517.655 37.0817 517.444 37.7795 517.406 38.4907C517.679 38.4426 517.96 38.3491 518.233 38.301C523.839 37.2243 524.559 37.1415 529.727 36.8027C530.446 36.7199 531.534 36.7923 532.379 36.9956C532.93 37.1187 533.307 37.2284 533.267 37.4556C533.46 37.8621 532.751 38.3833 532.339 38.7202C531.73 39.18 531.024 39.4366 530.46 39.1397C529.805 38.8588 529.778 38.5112 528.748 38.6047C528.235 38.519 526.989 38.3424 525.422 38.4865C523.136 38.7135 520.364 39.2024 519.409 39.3707L517.364 39.7313C517.436 40.8195 517.653 41.8383 517.894 42.7207C518.231 43.8062 518.188 45.0469 517.084 46.5627C516.456 47.3781 515.501 48.2951 514.595 48.9393C512.796 50.4016 509.983 51.8664 506.374 52.8552C503.355 53.7397 500.38 54.1323 498.837 54.1401C497.476 54.1158 496.299 53.7948 495.329 53.3054C494.283 52.7411 493.617 52.0217 493.788 50.8025C493.959 49.5833 495.125 47.9685 497.092 46.3004C498.266 45.3888 498.579 45.1135 500.17 44.0843C500.808 43.7074 500.696 43.5951 501.493 43.3225ZM513.656 45.2735C513.381 44.0889 513.332 42.1157 513.583 40.442C511.658 40.8695 509.717 41.3879 507.765 42.2165C506.102 42.9061 504.26 43.363 502.672 44.1275C502.095 44.4055 501.036 45.1646 500.525 45.563C499.763 46.1377 499.408 46.905 498.892 47.8327C498.245 49.0037 498.783 49.7017 499.088 50.2204C499.564 51.0173 500.245 50.8971 500.796 51.0201C502.283 51.3305 503.994 51.8655 505.989 51.2936C507.483 50.8099 507.932 50.5105 509.101 50.1283C509.972 49.9306 511.667 49.0592 512.349 48.1903C512.908 47.5193 514.004 46.7976 513.656 45.2735Z" fill="#6BC5F7"/>
</svg>
