<svg width="432" height="160" viewBox="0 0 432 160" fill="none" xmlns="http://www.w3.org/2000/svg">
<path d="M28.3284 105.292C30.9165 104.351 34.7881 104.373 41.6006 102.951C43.154 102.633 44.9507 102.184 46.8009 101.682C50.8698 97.8378 54.9254 94.5684 59.1547 90.5638C65.0629 85.03 71.0219 79.7074 76.9809 74.3848C82.9239 69.1532 87.5784 65.7341 94.2086 61.3501C96.3474 59.9601 98.2884 58.693 100.647 58.8057C101.342 58.8593 101.612 59.0759 101.743 59.5812C101.562 64.1052 100.883 66.2067 98.5442 70.979C95.1095 77.9704 91.2068 84.8681 87.4325 91.7872L94.0767 91.3203C96.7183 91.0747 99.2344 91.2916 101.774 91.3722C103.272 91.3724 101.363 93.955 99.9407 94.0296C98.9728 94.0242 98.3736 92.6765 97.2614 92.7405C95.8015 92.7777 94.7988 92.4701 93.0582 92.6008C90.4246 92.801 88.3578 93.0333 86.5932 93.3004C84.968 96.2734 83.3882 99.2383 81.8994 102.187C79.9401 106.056 77.5292 111.986 76.7652 116.569C76.8161 117.529 78.3724 118.443 78.0732 120.39C77.3675 121.395 76.9452 122.042 76.5201 122.205C75.7608 122.515 75.2742 122.777 74.5816 122.459C74.71 122.48 74.4105 122.181 74.381 122.098C74.2205 121.509 74.2284 120.715 74.2497 120.095C74.1506 118.659 74.3295 117.394 74.7143 115.961C76.0933 111.138 79.1561 102.01 81.5778 97.2675C82.1712 96.15 82.7272 94.995 83.3126 93.9229C80.0614 94.6283 77.0268 95.6038 71.356 97.0441C62.6907 99.2326 59.7256 100.064 51.1085 102.728C50.2663 103.009 49.3866 103.252 48.507 103.495L47.5981 104.404C39.6154 112.462 35.0653 116.787 27.7377 124.377C25.7434 126.446 20.9127 131.614 17.0549 134.76C13.0956 138.233 9.30183 140.267 5.84743 140.876C4.96242 140.9 4.63086 140.782 4.29655 140.181C3.63056 138.713 4.04227 138.376 4.96175 136.408C6.0872 135.02 7.89466 135.01 9.638 135.363C10.7341 134.641 11.5389 134.323 12.5896 133.61C14.3567 132.329 16.0437 131.503 17.6906 130.156C20.0993 128.234 21.8477 126.56 24.1094 124.224C28.1274 120.168 32.0119 116.621 35.3322 113.525C37.6367 111.445 40.4837 108.037 43.502 104.906C41.0449 105.604 38.5423 106.309 36.2136 107.028C34.5667 107.627 32.8368 108.196 31.1444 108.803L28.2356 110.064L27.6607 110.078C27.1821 110.294 26.7036 110.511 26.1876 110.69C23.7439 111.561 26.2438 111.12 23.6958 111.834L23.0701 111.636C22.6396 111.579 22.2786 111.379 22.0166 111.117C20.6635 110.298 21.0671 109.258 22.1579 108.317L22.5027 107.86C24.0586 106.529 25.5158 106.008 26.5826 105.952L28.3284 105.292ZM57.0752 95.1142C55.5406 96.5738 53.6319 98.4077 51.7605 100.279C54.8245 99.3865 57.7976 98.51 60.2012 97.8659C64.495 96.4923 66.8559 96.3402 71.1552 95.1858C77.7885 93.5317 80.9274 92.714 84.1839 92.2279C86.4426 87.9101 88.6853 83.6832 91.0107 78.7371C92.5182 75.4326 93.2585 73.2322 94.7099 70.2458C95.1429 69.2887 96.2548 66.2301 96.4551 65.0937C96.5165 64.2462 96.9121 63.2516 96.4656 63.2863C95.2624 63.3663 92.6744 65.0557 90.5811 66.4378C86.1886 69.3702 82.1596 72.2386 78.9863 75.0001C75.3317 78.2428 71.9872 80.7262 68.453 84.0358C64.4991 87.7277 61.0371 91.3769 57.0752 95.1142ZM74.5442 122.421C74.5896 122.413 74.5816 122.459 74.5816 122.459C74.5896 122.413 74.5442 122.421 74.5442 122.421ZM103.718 94.9931C103.191 95.4823 102.526 96.2602 101.951 97.0222C101.882 97.9152 101.914 99.2307 101.385 99.9846C99.7298 102.126 98.3637 103.38 96.2571 105.337C94.5968 106.51 93.3455 106.114 93.5805 104.532C93.9413 103.235 95.0694 101.583 96.0504 100.265C100.731 94.1985 107.017 89.523 113.684 85.9252C116.489 84.5058 120.569 82.5974 122.689 83.0602C122.78 83.0442 122.863 83.0736 122.954 83.0576C123.384 83.1138 124.002 83.3572 124.27 83.8385C124.569 84.138 124.692 84.6888 124.644 84.9616C124.452 86.0524 122.241 88.6002 121.019 89.0358C120.276 89.255 119.663 89.2308 119.409 88.9233C119.185 88.6987 119.765 87.4073 118.901 87.5596C117.818 87.7065 117.013 87.2759 116.348 87.3052C115.794 87.4468 115.233 87.6339 114.717 87.813C113.92 88.0856 113.193 88.2138 112.631 88.4009C111.097 89.1119 109.511 90.3603 108.057 91.3654C106.557 92.3785 105.116 93.5575 103.718 94.9931ZM130.882 92.5375C129.809 93.1229 127.681 94.2028 126.756 93.7053C126.401 93.724 126.197 93.6277 126.146 93.4164L125.414 94.0741C125.101 94.3494 124.481 95.1194 124.12 95.6675C123.767 96.1701 123.741 96.5711 123.717 96.7075C123.644 97.1166 124.104 97.2557 124.519 97.4028C125.062 97.5713 126.102 97.9164 130.401 96.7619C131.826 96.4226 133.446 96.225 137.181 94.7737C140.863 93.3758 142.916 92.2211 145.841 90.8686C147.186 90.2351 148.378 89.7166 149.822 89.0216C151.926 88.0781 153.084 87.2574 153.29 87.089C153.808 86.6452 154.952 86.3994 154.482 87.3191C154.159 87.9046 152.76 88.5916 151.437 89.3534C149.322 90.6071 146.927 91.9543 146.015 92.3793C143.545 93.6516 141.243 94.7181 138.508 95.9931C135.759 97.0943 133.866 98.0886 131.476 98.9065C130.679 99.1791 129.169 99.7537 128.198 100.013C124.824 100.916 123.324 101.181 122.068 101.314C121.257 101.413 120.918 101.341 120.367 101.218C119.771 101.103 119.765 100.883 119.359 100.691C118.629 100.335 118.38 99.4981 118.564 98.4527C118.669 97.8618 118.783 96.9608 119.428 96.0544C119.818 95.5893 120.585 94.4851 121.753 93.3543C122.761 92.3839 124.165 91.1675 125.429 90.2399C127.349 88.8445 127.959 88.3847 128.956 87.7244C129.854 87.1256 131.054 86.5617 133.421 85.1316C137.658 82.5787 139.556 81.8036 141.901 80.9938L143.738 80.3176C144.807 79.997 148.732 79.2168 148.593 81.0029C148.527 81.6312 148.211 82.1712 147.113 83.1577C146.228 83.9303 145.594 84.5264 144.255 85.3791C142.215 86.7077 138.474 88.6884 134.94 90.5007C134.408 90.7707 133.686 91.1181 132.782 91.4977C132.143 91.8746 131.459 92.2595 130.882 92.5375ZM130.127 90.0722C129.777 90.3101 129.381 90.556 129.023 90.8394L129.205 90.8073C129.568 90.7432 130.258 90.5775 130.994 90.4038C131.547 90.2622 131.584 90.2997 132.002 90.1821L133.034 89.8239L134.135 89.3214C134.803 89.0274 135.381 88.7494 135.822 88.4955C137.974 87.2793 141.42 85.2183 142.61 84.2158C143.281 83.6571 142.829 83.4725 142.792 83.4351C142.241 83.312 141.832 83.3842 141.786 83.3922C140.952 83.6273 140.134 83.7716 137.982 84.9878C137.586 85.2338 136.787 85.7711 136.292 86.0785L134.421 87.2012C132.892 88.1314 131.392 89.1446 130.127 90.0722ZM177.785 75.9438C177.991 78.0213 175.593 80.3819 174.109 79.0581C173.745 78.3736 171.432 78.2529 170.451 78.8223C170.002 79.1217 168.523 79.5145 167.023 80.5277C164.724 82.0781 161.31 84.7059 159.559 85.8955C156.452 88.0287 154.044 90.6994 154.036 91.4935C154.501 91.8518 155.587 91.4402 156.18 91.0713C158.864 89.5851 161.669 88.1658 164.072 86.7731C165.586 85.9338 167.182 85.1239 168.81 84.1321C171.486 82.6914 177.879 78.6576 179.288 78.4092C179.924 78.297 180.932 78.8239 180.804 79.5511C180.334 81.9681 176.348 85.8418 176.059 87.4781C175.947 88.1144 176.375 88.4353 177.693 88.2029C178.193 88.1148 178.845 87.9117 179.634 87.6845C183.179 86.3107 188.042 83.9559 190.732 81.9402C191.9 81.5581 191.892 82.3522 190.871 83.1488C187.823 85.4478 177.375 93.4996 173.434 91.376C172.546 90.916 172.49 89.7369 172.859 88.3947C173.353 86.59 174.561 84.4833 175.115 83.593C175.625 82.446 173.903 82.9698 173.401 83.3227C172.708 83.7531 171.19 84.3731 169.372 85.4424C168.489 85.9503 167.543 86.8218 166.661 87.3296C163.968 88.8613 160.33 91.2645 157.501 92.8202C154.475 94.4988 152.242 95.421 151.098 95.6668C150.462 95.779 149.767 95.7254 149.146 95.7467C148.325 95.407 148.079 95.054 148.079 94.3054C148.106 93.9043 148.424 93.0996 148.755 92.4686C149.325 91.4874 150.627 89.8486 152.284 88.1911C153.987 86.5256 156.075 84.9244 158.369 83.1547C160.585 81.5748 163.903 79.4925 166.571 78.0971C169.095 76.7713 170.52 76.432 171.456 75.8706C172.375 75.4002 174.33 75.0556 175.02 74.8899C176.081 74.6147 176.64 74.6923 177.194 75.2993L177.785 75.9438ZM245.815 75.0462C245.077 75.4846 244.871 75.653 244.079 76.1448C242.398 77.19 241.326 77.7754 240.19 78.7244L235.209 82.9937C228.489 92.6343 222.813 99.0959 213.892 108.728C212.24 110.605 210.452 112.506 208.572 114.422C208.313 114.644 200.052 124.028 197.804 123.544C197.245 123.466 197.213 122.899 197.432 122.156C197.801 120.814 198.252 119.501 198.76 118.619C199.714 116.953 200.201 115.943 206.788 108.307C210.215 104.356 217.096 97.5496 221.149 93.7963C223.729 91.4036 226.33 89.1393 229.121 86.7975L231.776 84.4798C234.07 81.2128 236.016 77.919 237.258 74.6171C237.609 73.6306 235.809 72.8469 235.429 73.0019C234.761 73.2959 234.133 73.3627 233.617 73.5417C232.168 74.0174 231.285 74.5253 229.681 75.3807C227.574 76.5889 223.904 78.4252 220.444 80.3124C217.912 81.6837 216.086 82.7983 213.816 83.683C211.736 84.4902 209.793 85.2733 208.723 84.8454C207.744 84.4014 207.822 83.4629 207.974 82.5993C208.204 81.5459 209.244 80.3936 210.864 78.6987C213.919 75.6056 219.352 71.5209 224.894 68.5619C229.653 66.0493 231.811 65.0523 234.31 63.8628C235.366 63.3683 238.318 63.1121 239.257 63.0347C239.869 63.0589 239.928 63.2246 240.059 63.73L239.918 65.7807C239.733 66.8262 239.38 67.3288 238.536 67.8741C237.554 68.4435 236.378 68.8711 235.763 68.363C235.118 67.772 233.177 66.7931 231.351 67.9078C229.723 68.8995 228.998 68.763 225.795 70.693C222.061 72.893 219.058 75.1839 216.831 77.0739C215.901 77.8545 215.503 78.3652 214.861 79.0068C214.532 79.373 214.241 79.7767 214.048 80.1189C213.917 80.3622 213.786 80.6055 214.506 80.5227C215.452 80.3999 216.249 80.1273 217.099 79.8012C218.275 79.3736 218.572 79.1891 220 78.5851C222.711 77.4465 224.901 76.2677 227.053 75.0514C229.494 73.6962 231.622 72.6163 234.699 71.1489C237.124 69.8846 241.664 68.1152 242.154 70.5831C242.448 72.1607 240.058 75.9731 238.109 78.783L240.013 77.4784C241.17 76.6578 242.785 75.4923 246.17 73.5302C247.221 72.8165 247.937 72.2498 249.244 71.5788C250.704 70.793 251.573 70.1113 252.522 69.7237C252.803 69.6302 252.811 69.5847 253.311 69.4966C253.902 69.3924 254.712 70.0422 254.546 70.732C254.429 71.1491 254.03 71.6598 253.429 72.0741C252.531 72.6729 252.049 72.4054 250.841 73.0149C250.218 73.3009 249.734 73.2981 248.801 73.5948C248.223 73.8728 247.563 74.1213 246.986 74.3993C246.651 74.5463 246.355 74.7308 245.815 75.0462ZM212.023 108.089C218.698 100.702 223.077 96.0986 228.549 88.7921L227.862 89.4417C222.216 94.4889 214.814 102.752 209.836 108.254C206.54 111.962 205.88 113.708 205.746 114.216C210.007 110.03 208.131 112.43 212.023 108.089ZM249.842 74.6002C250.561 72.2715 253.261 69.1971 254.611 67.2855C254.673 67.1866 254.697 67.0503 254.865 66.8444C254.849 66.1867 254.985 65.414 255.215 65.1092C256.341 63.7217 257.028 63.0721 258.581 62.0055C258.581 62.0055 258.626 61.9974 258.68 61.944C258.947 61.6766 259.206 61.4548 259.404 61.3318C260.431 60.7544 261.297 60.3374 262.051 60.5568C262.851 60.7681 263.236 61.581 262.506 62.7226C261.878 63.538 261.873 63.3188 261.108 64.1582C260.726 64.5779 259.98 65.0618 259.507 65.4975C258.568 66.3236 257.483 67.4838 256.817 68.2618C256.082 69.1841 256.165 69.2135 255.55 70.2027C254.967 71.0101 254.842 71.4727 254.716 71.9352C254.46 72.641 254.454 73.1704 255.31 73.0636C255.756 73.0289 256.262 73.16 257.058 72.8874C258.879 72.3021 260.082 71.4734 262.432 70.1342C266.258 67.9183 267.654 66.7474 273.236 62.8124C274.134 62.2136 275.34 61.1203 276.995 59.7275C277.765 59.1073 278.323 58.4362 278.962 58.0593C279.588 57.5086 281.927 57.2282 282.428 57.8887C283.347 58.9156 282.791 60.0706 282.308 60.8165C281.575 61.4741 281.305 62.0061 280.517 62.982C279.046 64.8266 277.346 67.7247 277.164 68.5054C276.935 69.5589 277.461 69.8183 278.293 69.8478C278.641 69.8746 278.905 69.872 279.451 69.7758C280.133 69.6556 280.814 69.5354 281.05 69.4498C282.87 68.8646 283.881 68.3781 285.728 67.3918C287.135 66.6593 291.212 64.2669 292.559 63.3688C293 63.1148 293.658 62.3823 294.038 62.2273L294.519 62.4947C294.84 62.9226 294.677 63.3477 294.097 63.8904C292.466 65.1468 288.129 67.7611 286.197 68.9827C282.772 71.172 279.208 73.65 276.582 73.8047C274.54 73.9007 273.334 71.9995 274.042 69.2322C274.531 67.2083 275.501 65.4518 276.482 63.3851C276.698 62.9065 276.108 63.0107 275.819 63.1497C274.771 63.5987 273.894 64.3259 272.279 65.4914C269.857 67.2397 266.411 70.0493 262.858 72.2172C259.944 74.0081 256.276 76.3284 254.909 76.8336C253.824 77.2452 251.867 77.8545 250.902 77.5843C249.439 77.1376 249.305 76.1483 249.842 74.6002ZM290.906 68.5486C290.615 66.7063 291.778 64.6076 293.277 62.0971C294.638 59.8755 295.854 57.7233 297.086 56.2288C298.535 54.2558 300.311 53.6785 301.661 53.2643C302.404 53.0452 303.23 53.6041 303.246 54.2618C303.436 54.933 302.733 55.6735 302.145 56.2616C301.175 57.2695 300.338 57.7694 299.774 58.2212C299.231 58.8013 298.63 59.2156 298.21 59.5979C297.255 60.5149 296.697 61.1859 295.975 62.282C294.946 63.8728 294.665 64.715 294.759 65.9315C294.861 67.8513 297.363 67.1458 298.911 66.6086C301.933 65.4593 304.914 64.5373 307.855 63.0939C309.876 62.121 311.945 60.8753 313.795 59.6243C314.736 59.2822 315.597 59.3946 314.857 60.0977C309.889 63.7921 303.099 68.3365 297.236 70.119C294.535 70.9475 291.327 71.1609 290.906 68.5486ZM311.524 36.2874C312.588 35.7475 313.142 35.6058 313.481 35.6781C313.971 35.9001 314.415 36.1301 313.38 37.5016C311.581 39.7125 311.046 40.2472 309.159 41.4608C309.06 41.5223 307.221 42.4631 306.464 41.7598C306.202 41.4978 306.496 40.8294 306.378 40.4978C306.143 39.086 308.658 37.8057 310.559 36.7659C311.297 36.3275 311.083 36.5413 311.524 36.2874ZM338.088 45.8283C338.896 45.9942 339.532 46.6306 339.283 47.291C338.762 48.7481 336.527 50.6836 335.108 50.4935C334.88 50.5336 332.875 49.9183 331.212 50.6079C330.672 50.9233 330.172 51.0115 329.495 51.351C328.34 51.9069 326.474 53.2489 325.333 53.9787C322.357 55.8686 319.735 58.0045 318.687 59.2022C317.845 60.2315 316.211 61.7526 315.706 62.3701C314.65 63.6133 315.356 63.3567 315.575 63.3621C316.808 63.3649 318.184 62.5497 320.441 61.4912C323.497 59.8954 326.36 57.8932 327.716 56.9496C331.926 54.0491 332.023 54.2524 337.284 49.8896C339.305 48.168 339.725 47.7857 340.626 46.9222C341.901 45.6844 343.729 43.5564 346.293 40.506C349.129 36.6589 352.177 32.8626 355.088 29.0904C357.203 26.3394 359.919 22.4254 362.664 20.0917C363.728 19.5517 364.589 19.6641 364.985 20.1669C365.98 20.5199 365.314 22.7952 364.074 24.3351C363.988 24.5704 363.4 25.1585 363.301 25.22L362.531 25.8402C360.267 27.6928 359.623 28.5991 357.944 30.1282L357.607 30.5399C352.554 36.7156 347.622 42.2094 343.412 48.8531C341.982 51.2191 337.988 55.8869 339.625 58.593C340.213 59.5022 342.539 59.048 343.716 58.6203C345.809 57.987 350.362 56.3914 353.284 54.555C354.715 53.6862 355.078 53.6221 357.067 52.0823C357.995 51.5664 358.113 51.898 357.501 52.6225C356.482 53.9031 354.755 54.9563 352.416 56.734C348.416 59.6852 341.601 63.6173 339.048 63.3629C336.631 63.0845 335.724 60.7341 336.667 57.1327C337.015 55.6622 337.624 54.4537 338.327 52.9646C338.915 51.6278 339.493 50.6011 340.153 49.6039C339.404 50.3525 338.565 51.117 337.626 51.9431C334.255 54.8276 335.089 53.8437 329.331 58.03C327.443 59.2436 324.69 61.6228 322.583 62.8311C319.808 64.3333 315.372 67.0091 312.602 67.2333C310.279 67.4227 309.214 65.7167 310.682 63.3881C311.711 61.7974 314.564 58.608 316.994 56.8143C319.173 55.197 321.183 53.7855 323.071 52.5719C324.357 51.7727 328.918 49.383 332.276 47.822C334.594 46.6646 336.797 45.6596 338.088 45.8283ZM366.197 51.0451C365.125 51.6305 362.997 52.7103 362.071 52.2129C361.716 52.2315 361.513 52.1353 361.462 51.924L360.729 52.5817C360.416 52.857 359.796 53.627 359.435 54.175C359.082 54.6776 359.056 55.0787 359.032 55.2151C358.96 55.6241 359.42 55.7632 359.834 55.9104C360.377 56.0789 361.417 56.424 365.716 55.2695C367.141 54.9302 368.761 54.7326 372.496 53.2813C376.178 51.8834 378.231 50.7287 381.156 49.3762C382.501 48.7427 383.693 48.2242 385.137 47.5292C387.241 46.5857 388.399 45.765 388.605 45.5966C389.123 45.1528 390.268 44.907 389.797 45.8267C389.474 46.4122 388.076 47.0992 386.752 47.861C384.637 49.1147 382.242 50.4619 381.33 50.8869C378.86 52.1592 376.558 53.2257 373.823 54.5007C371.074 55.6019 369.182 56.5962 366.791 57.414C365.995 57.6866 364.484 58.2613 363.513 58.5205C360.139 59.4237 358.639 59.6882 357.383 59.8217C356.573 59.9205 356.233 59.8483 355.682 59.7252C355.086 59.6101 355.081 59.3909 354.674 59.1983C353.944 58.8426 353.695 58.0057 353.88 56.9603C353.984 56.3694 354.099 55.4683 354.743 54.562C355.133 54.0969 355.9 52.9927 357.069 51.8619C358.077 50.8915 359.48 49.6751 360.745 48.7475C362.664 47.3521 363.274 46.8923 364.271 46.232C365.169 45.6332 366.37 45.0692 368.736 43.6391C372.973 41.0863 374.872 40.3112 377.216 39.5014L379.053 38.8252C380.123 38.5045 384.047 37.7244 383.909 39.5104C383.842 40.1388 383.527 40.6788 382.428 41.6653C381.543 42.4378 380.909 43.034 379.57 43.8867C377.53 45.2153 373.79 47.196 370.255 49.0083C369.723 49.2782 369.001 49.6257 368.098 50.0053C367.459 50.3822 366.774 50.7671 366.197 51.0451ZM365.442 48.5797C365.092 48.8177 364.697 49.0636 364.338 49.347L364.52 49.3149C364.884 49.2508 365.574 49.0851 366.309 48.9114C366.862 48.7698 366.9 48.8072 367.317 48.6896L368.349 48.3315L369.45 47.829C370.119 47.535 370.696 47.257 371.137 47.0031C373.289 45.7868 376.736 43.7259 377.925 42.7234C378.596 42.1647 378.144 41.9801 378.107 41.9427C377.556 41.8196 377.147 41.8917 377.102 41.8998C376.267 42.1349 375.449 42.2792 373.297 43.4954C372.901 43.7414 372.102 44.2787 371.608 44.5861L369.736 45.7088C368.207 46.639 366.707 47.6521 365.442 48.5797ZM392.502 43.3679L393.542 42.9644C394.788 42.3924 395.981 41.8738 396.786 41.5558C400.013 40.2381 402.317 39.6555 404.871 39.1613C404.972 38.8351 405.119 38.5009 405.25 38.2576C405.766 37.3299 405.686 37.0358 406.359 36.2123C408.455 33.817 412.359 30.6625 414.917 31.1362C415.385 31.2298 415.971 31.655 416.225 31.9625C416.249 32.5748 415.792 33.6683 415.316 34.3688C414.488 35.5718 411.95 36.7239 411.17 36.1569L410.771 35.9189C410.448 35.7557 408.996 35.7475 408.83 36.4373C408.664 37.1271 408.453 37.8249 408.416 38.5361C408.689 38.4881 408.969 38.3945 409.242 38.3464C414.849 37.2697 415.568 37.187 420.736 36.8482C421.456 36.7654 422.544 36.8377 423.389 37.0411C423.94 37.1641 424.317 37.2738 424.276 37.5011C424.469 37.9075 423.761 38.4288 423.349 38.7656C422.739 39.2254 422.034 39.482 421.469 39.1851C420.814 38.9043 420.787 38.5567 419.758 38.6501C419.245 38.5645 417.999 38.3878 416.432 38.532C414.146 38.7589 411.373 39.2478 410.419 39.4161L408.373 39.7768C408.446 40.865 408.662 41.8837 408.903 42.7661C409.24 43.8517 409.198 45.0923 408.094 46.6082C407.465 47.4236 406.511 48.3405 405.605 48.9848C403.805 50.447 400.993 51.9118 397.383 52.9006C394.365 53.7852 391.389 54.1778 389.846 54.1856C388.485 54.1613 387.309 53.8403 386.338 53.3508C385.293 52.7865 384.627 52.0672 384.798 50.848C384.969 49.6288 386.134 48.014 388.102 46.3458C389.276 45.4343 389.588 45.1589 391.179 44.1298C391.818 43.7529 391.706 43.6405 392.502 43.3679ZM404.666 45.3189C404.39 44.1344 404.342 42.1612 404.593 40.4874C402.668 40.9149 400.727 41.4334 398.775 42.2619C397.112 42.9515 395.27 43.4085 393.682 44.1729C393.104 44.4509 392.046 45.2101 391.535 45.6084C390.773 46.1831 390.417 46.9505 389.902 47.8782C389.255 49.0492 389.792 49.7471 390.097 50.2659C390.573 51.0627 391.255 50.9425 391.806 51.0656C393.292 51.376 395.004 51.911 396.998 51.3391C398.493 50.8553 398.942 50.5559 400.11 50.1738C400.982 49.976 402.677 49.1047 403.359 48.2358C403.917 47.5648 405.013 46.843 404.666 45.3189Z" fill="#6BC5F7"/>
</svg>
