<svg width="555" height="181" viewBox="0 0 555 181" fill="none" xmlns="http://www.w3.org/2000/svg">
<path d="M96.7531 84.3517C96.9895 85.0178 96.3908 86.4065 95.5555 87.1289C95.0801 87.5667 94.6853 88.2999 93.8608 88.7108C92.5098 89.3472 90.6322 89.457 90.3876 88.8365C90.1297 88.0414 90.5539 86.6393 89.7829 86.2443C88.7245 85.7231 87.3223 85.3952 85.3266 85.924C82.2726 86.6837 79.815 87.825 77.7065 88.9931C76.608 89.4523 73.9168 91.1656 72.829 92.0653C70.2238 94.2944 68.5211 95.9219 67.7396 97.3428C66.8185 99.0537 66.1635 101.514 65.9784 103.316C65.8363 105.377 66.0435 107.464 66.3957 109.481C66.8714 111.3 67.4975 113.269 68.172 114.964C68.9486 117.083 69.795 119.058 70.3244 120.822C70.3379 120.997 70.4051 121.118 70.4266 121.247C73.4295 120.275 76.6742 119.437 80.244 118.764C84.1871 117.98 83.3383 118.528 86.5535 117.607C89.7229 116.694 93.298 115.489 96.3844 116.05C96.7094 116.214 96.8223 116.327 96.5511 116.862C94.8026 118.497 95.8124 117.036 92.9868 118.508C92.5222 118.634 91.8184 118.36 90.5585 118.228L87.44 118.601C83.3573 119.675 80.7438 120.445 78.407 120.902C76.0164 121.412 73.4782 122.257 70.9184 122.974C71.3807 124.618 71.6279 125.725 71.8322 126.574C72.6495 131.473 68.6806 139.429 60.8406 144.749C55.0258 148.871 48.5958 152.217 45.7863 153.597C40.213 156.35 22.4962 161.73 17.1429 162.232C14.9376 162.444 10.0813 163.388 8.31905 162.593C6.04915 161.666 4.08543 160.508 4.10131 158.912C4.13858 156.694 5.21 154.381 7.38272 152.096C10.2135 149.34 14.5296 146.19 19.5361 143.139C24.9561 139.75 28.4237 138.652 31.9208 136.885C39.5353 132.844 46.0032 131.04 54.1739 127.608C57.2251 126.362 62.1216 124.437 65.0358 123.215C65.3179 123.121 65.6536 122.973 65.9437 122.834L65.8711 122.493C64.8768 119.35 63.0301 110.252 63.2578 106.451C63.6196 100.635 67.2154 94.294 72.6809 89.3926C73.9378 88.2861 75.4446 87.2683 76.895 86.5701C79.7044 85.1899 84.19 83.3371 88.1116 82.4244C91.1951 81.748 93.9698 81.5684 95.2271 82.7183C96.0707 83.4544 96.4977 83.2906 96.7531 84.3517ZM66.8742 130.102C67.0054 127.602 66.8441 126.259 66.3844 124.349C61.4154 125.933 56.4813 127.82 52.1999 129.77C45.109 133.1 39.7022 135.159 32.7296 138.822C27.5968 141.585 24.5187 142.482 19.6627 145.683C18.2795 146.502 10.7401 150.619 9.76039 155.172C8.90141 159.039 15.8639 159.449 20.124 158.875C23.8522 158.306 29.7722 157.35 35.3107 155.046C37.9725 154.002 41.7866 153.197 44.8137 152.088C51.3809 149.47 55.4741 146.58 59.1913 144.066C64.8987 140.052 66.6384 133.949 66.8742 130.102ZM116.037 108.736C116.244 110.823 113.835 113.195 112.344 111.865C111.978 111.177 109.655 111.056 108.669 111.628C108.218 111.929 106.733 112.323 105.226 113.341C102.916 114.899 99.4862 117.539 97.727 118.734C94.606 120.877 92.1862 123.56 92.1783 124.358C92.6457 124.718 93.7362 124.304 94.3325 123.934C97.0291 122.44 99.8466 121.015 102.261 119.615C103.781 118.772 105.385 117.959 107.021 116.962C109.709 115.515 116.131 111.462 117.547 111.213C118.186 111.1 119.199 111.629 119.07 112.36C118.597 114.788 114.593 118.68 114.303 120.324C114.19 120.963 114.62 121.285 115.945 121.052C116.447 120.963 117.102 120.759 117.895 120.531C121.456 119.151 126.342 116.785 129.044 114.76C130.218 114.376 130.21 115.174 129.184 115.974C126.122 118.284 115.626 126.373 111.666 124.24C110.774 123.777 110.718 122.593 111.088 121.245C111.585 119.431 112.799 117.315 113.354 116.421C113.867 115.268 112.138 115.795 111.633 116.149C110.937 116.581 109.411 117.204 107.585 118.279C106.699 118.789 105.748 119.664 104.861 120.175C102.157 121.713 98.5014 124.128 95.6597 125.69C92.6192 127.377 90.3765 128.303 89.2269 128.55C88.5876 128.663 87.8892 128.609 87.266 128.63C86.4413 128.289 86.1942 127.935 86.194 127.183C86.2208 126.78 86.5404 125.971 86.8734 125.337C87.4453 124.352 88.7532 122.705 90.4184 121.04C92.1292 119.367 94.2268 117.758 96.5312 115.98C98.7578 114.393 102.091 112.301 104.771 110.899C107.307 109.567 108.739 109.227 109.679 108.663C110.603 108.19 112.566 107.844 113.259 107.677C114.325 107.401 114.887 107.479 115.443 108.089L116.037 108.736ZM126.782 119.495C127.394 117.529 130.168 112.837 132.187 109.914C135.217 105.531 139.414 99.0393 144.64 92.2335L146.464 89.921C147.272 88.8494 146.52 89.6014 148.059 87.6488C148.768 86.639 149.826 84.9039 150.981 83.373C151.784 82.0811 152.847 80.5663 153.881 79.7203C154.099 79.2395 154.292 78.8957 154.623 78.5278C154.945 78.2055 155.487 77.8886 156.06 77.655C156.487 77.4912 157.411 77.7707 157.746 78.3751C157.776 78.4584 157.76 78.5497 157.798 78.5873C158.211 79.001 158.16 79.5409 157.779 80.4488C157.639 80.7389 157.72 81.0344 157.473 81.4319C157.127 81.8911 156.627 82.4659 156.152 82.9037L152.204 87.2277L151.989 87.4426C150.259 89.473 148.546 91.4121 147.885 92.148C145.503 94.8687 143.04 98.046 140.715 101.199C137.341 105.776 133.968 110.352 131.874 113.952C130.985 115.48 130.402 116.777 130.263 117.819C130.161 118.899 131.78 118.746 132.61 118.556C134.088 118.207 136.124 117.449 136.604 117.232C140.139 115.503 141.885 114.885 144.928 112.933C147.168 111.52 149.451 110.365 151.844 108.837C152.983 108.15 153.571 108.577 152.5 109.386C150.456 110.94 146.666 113.865 142.713 116.465C138.3 119.411 133.68 121.774 131.007 122.378C128.289 122.99 125.869 122.664 126.782 119.495ZM159.003 109.522C157.926 110.11 155.788 111.195 154.858 110.695C154.501 110.714 154.297 110.617 154.246 110.405L153.51 111.066C153.196 111.342 152.573 112.116 152.21 112.666C151.856 113.171 151.829 113.574 151.805 113.711C151.732 114.122 152.194 114.262 152.611 114.41C153.156 114.579 154.201 114.926 158.52 113.766C159.952 113.425 161.579 113.226 165.332 111.768C169.03 110.364 171.093 109.204 174.031 107.845C175.382 107.209 176.58 106.688 178.031 105.99C180.144 105.042 181.307 104.217 181.514 104.048C182.035 103.602 183.185 103.355 182.712 104.279C182.387 104.868 180.983 105.558 179.653 106.323C177.529 107.583 175.122 108.936 174.206 109.363C171.724 110.641 169.412 111.713 166.664 112.993C163.903 114.1 162.001 115.099 159.6 115.92C158.8 116.194 157.282 116.771 156.307 117.032C152.917 117.939 151.41 118.205 150.148 118.339C149.334 118.438 148.993 118.366 148.44 118.242C147.841 118.127 147.835 117.906 147.427 117.713C146.693 117.355 146.444 116.515 146.629 115.464C146.733 114.871 146.849 113.966 147.496 113.055C147.888 112.588 148.659 111.479 149.832 110.342C150.845 109.368 152.255 108.146 153.525 107.214C155.454 105.812 156.066 105.35 157.068 104.687C157.97 104.085 159.176 103.518 161.553 102.082C165.811 99.5171 167.718 98.7384 170.073 97.9249L171.918 97.2456C172.993 96.9234 176.936 96.1397 176.797 97.934C176.729 98.5652 176.413 99.1077 175.309 100.099C174.42 100.875 173.783 101.474 172.438 102.33C170.388 103.665 166.631 105.655 163.08 107.476C162.545 107.747 161.82 108.096 160.912 108.477C160.27 108.856 159.583 109.243 159.003 109.522ZM158.245 107.045C157.893 107.284 157.496 107.531 157.136 107.816L157.318 107.784C157.684 107.719 158.377 107.553 159.115 107.378C159.671 107.236 159.709 107.274 160.128 107.156L161.165 106.796L162.271 106.291C162.943 105.996 163.523 105.716 163.966 105.461C166.128 104.239 169.59 102.169 170.785 101.162C171.46 100.6 171.006 100.415 170.968 100.377C170.415 100.254 170.004 100.326 169.958 100.334C169.12 100.571 168.298 100.716 166.136 101.937C165.738 102.184 164.935 102.724 164.438 103.033L162.558 104.161C161.022 105.095 159.515 106.113 158.245 107.045ZM199.189 106.683C198.896 104.833 200.064 102.724 201.571 100.202C202.938 97.9701 204.159 95.808 205.398 94.3066C206.853 92.3245 208.637 91.7445 209.993 91.3284C210.74 91.1082 211.57 91.6698 211.586 92.3305C211.777 93.0048 211.071 93.7487 210.48 94.3396C209.505 95.3521 208.664 95.8543 208.097 96.3082C207.552 96.891 206.948 97.3072 206.526 97.6913C205.567 98.6125 205.006 99.2866 204.281 100.388C203.247 101.986 202.965 102.832 203.059 104.054C203.162 105.983 205.676 105.274 207.231 104.734C210.266 103.58 213.261 102.654 216.216 101.203C218.246 100.226 220.325 98.9746 222.184 97.7178C223.129 97.3741 223.994 97.487 223.25 98.1934C218.26 101.905 211.438 106.47 205.547 108.261C202.834 109.093 199.611 109.308 199.189 106.683ZM219.902 74.273C220.971 73.7306 221.527 73.5883 221.868 73.6609C222.36 73.8839 222.806 74.115 221.767 75.4928C219.959 77.714 219.422 78.2511 217.526 79.4703C217.426 79.5321 215.579 80.4773 214.818 79.7708C214.555 79.5075 214.85 78.836 214.732 78.5029C214.496 77.0846 217.023 75.7983 218.933 74.7537C219.674 74.3133 219.459 74.5282 219.902 74.273ZM228.098 89.8614L228.106 89.8157C228.783 88.9885 229.833 88.0512 230.833 87.6538C232.49 86.7865 233.661 87.4205 233.234 89.0886C232.179 91.3098 228.083 95.2175 226.345 97.2936C225.792 97.9221 225.529 98.4109 225.704 98.4244C225.841 98.4002 226.029 98.5883 226.869 98.0861C227.71 97.5839 228.911 96.7971 229.262 96.5581C230.877 95.4328 235.131 92.382 239.262 89.53C243.215 86.9304 246.379 85.0452 248.166 84.9515C251.115 84.7854 250.645 86.9476 249.652 89.8216C249.104 91.4225 248.632 93.0985 248.401 94.1568C247.982 96.5313 249.951 97.1574 252.051 96.7871C254.7 96.3201 258.175 94.4242 260.407 93.0573L260.415 93.0116C260.515 92.9499 260.652 92.9257 260.743 92.9096C262.038 92.5928 261.939 93.4067 260.784 94.1855C256.792 96.7475 252.004 100.069 248.81 100.367C246.916 100.568 245.03 99.2196 245.253 96.7028C245.366 95.3114 245.575 94.1242 246.023 92.5851C246.276 91.6557 246.305 90.9869 246.302 90.5007C246.283 90.1058 245.999 89.7136 245.719 89.5417C245.477 89.4073 244.948 89.1467 244.148 89.4206C242.593 89.9602 240.396 90.8786 237.75 92.5839C235.15 94.2811 232.507 96.4726 230.38 97.998C228.605 99.2844 225.599 102.026 223.956 103.068C223.016 103.632 222.333 104.239 221.342 104.591C220.907 104.8 220.563 104.994 220.214 104.967C219.005 105.047 218.584 104.679 218.32 103.664C218.438 102.493 219.47 101.161 220.716 99.6136C221.339 98.8401 222.093 97.8221 222.655 97.148C223.748 95.7165 224.87 94.3682 225.754 93.3718C227.424 91.1748 227.121 91.1398 227.921 90.1139C228.029 90.0064 228.045 89.9151 228.098 89.8614ZM290.199 53.8256C290.505 54.3467 290.318 54.9108 289.963 55.4157C289.824 56.4579 289.257 57.6639 288.43 58.3407C287.452 59.6191 286.405 61.0426 285.451 62.184C281.423 68.469 276.645 74.4878 274.873 77.0125C273.393 79.1316 270.796 82.0672 268.57 85.1586L269.196 84.8712C273.012 83.0479 274.449 82.9273 282.051 80.9675C286.408 79.8454 285.067 80.1702 289.365 79.6336C289.98 79.6579 291.124 79.9428 291.181 80.3753L291.261 80.6707C291.305 80.9286 290.246 82.6637 289.873 82.7738C289.873 82.7738 288.799 83.0959 288.2 82.9803C287.826 83.0904 287.241 82.3973 286.542 82.3435C285.54 82.2547 284.224 82.4425 283.512 82.2141C282.964 82.3107 282.196 82.4019 280.292 82.9147C278.105 83.5214 277.555 83.884 275.709 84.5633C273.147 85.546 272.981 85.4869 270.332 87.4581C268.603 88.7365 267.453 89.7355 267.034 90.6058C266.5 91.6291 264.636 96.4262 263.997 98.0432C262.607 101.916 260.858 105.056 259.094 108.287C257.918 110.441 256.47 113.13 254.819 115.722C251.059 121.738 251.585 120.76 249.689 123.484C248.742 124.846 247.538 126.65 245.922 128.794C244.89 130.126 239.487 137.936 236.116 136.982C234.351 136.453 235.629 133.219 236.153 131.755C237.012 129.391 237.815 128.1 238.736 126.389C240.106 123.891 241.706 121.087 243.806 117.708C247.155 112.516 252.778 103.959 259.347 95.0582C260.156 93.9866 260.918 92.923 261.681 91.8594C260.778 91.7088 259.82 91.8779 260.007 91.3139C261.036 88.7434 262.8 87.7686 265.677 86.5092L272.678 76.9128L273.981 75.0461C274.969 73.4561 275.987 71.9494 276.905 70.5044L278.992 66.9509C280.066 65.1245 279.188 66.3412 281.062 63.4888C282.158 61.7914 281.836 62.1137 283.238 59.4331C283.78 58.3641 283.044 59.0248 283.968 57.8001C284 57.6174 284.078 57.4267 285.147 56.1322C285.816 55.3506 286.514 54.6523 287.363 54.1045C288.007 53.4599 288.687 53.1189 289.391 53.393C289.74 53.4199 289.982 53.5542 290.199 53.8256ZM262.48 97.1162C262.853 96.254 264.088 93.5144 263.193 92.5661C260.983 95.5661 258.665 98.6736 256.461 101.894C252.212 108.173 249.513 112.941 247.037 116.696C245.394 119.242 243.264 123.29 242.187 125.382C241.242 127.23 241.258 127.138 240.37 129.419C239.886 130.654 240.41 129.943 240.534 130.496C241.46 129.757 247.696 122.243 249.871 118.939C253.798 112.982 252.775 115.02 256.754 108.257C258.207 105.789 260.731 101.008 262.48 97.1162ZM282.973 87.8396C284.506 85.6667 286.693 83.5558 289.15 81.6624C290.536 80.5774 292.035 79.6053 293.525 78.6788C293.517 77.9724 295.166 76.3985 296.281 75.848C296.762 75.6305 299.039 75.0077 299.603 74.8198C299.886 74.7258 300.076 74.6479 300.259 74.6157C300.877 74.3741 301.341 74.2479 301.623 74.1539C307.03 72.8466 313.676 72.2942 318.868 71.9538C321.597 71.7823 322.287 71.8818 324.431 72.5214C325.575 72.8063 326.169 74.2059 324.292 75.0679C323.437 75.3954 323.311 75.108 322.718 75.2127C321.729 75.2985 321.108 74.3018 321.283 73.5632C321.245 73.5256 321.2 73.5336 321.154 73.5417C320.327 73.4663 319.569 73.246 318.726 73.262C317.571 73.2887 316.359 73.635 315.081 73.8604C313.292 74.2201 311.452 74.3676 309.58 74.6977C310.434 75.1222 310.837 75.8475 310.714 76.7984C310.206 79.6751 306.202 82.8146 303.242 84.7965C302.186 85.5136 301.107 86.3676 299.968 87.0551C299.227 87.4955 298.013 88.1077 297.234 88.5105C295.08 89.6867 293.31 90.4413 291.249 91.3354C289.67 92.0121 286.939 93.2016 284.685 93.6875C283.49 93.9425 282.418 93.9987 281.805 93.7085C280.618 93.1658 280.575 92.1558 280.996 91.0196C281.41 89.9291 282.272 88.8038 282.973 87.8396ZM308.729 77.0157C309.107 75.6216 305.935 76.0482 303.598 76.5045C301.385 77.5142 298.653 79.4558 297.488 79.7941C297.16 79.8961 296.034 80.0061 295.161 79.9388C294.297 80.578 293.432 81.2172 292.497 82.0014C291.662 82.7238 290.904 83.2555 290.198 83.9995C289.653 84.5823 289.046 85.2645 288.477 85.9843C287.623 87.064 286.897 88.1652 286.664 88.7373C286.508 89.1187 286.452 89.4383 286.548 89.6425C286.742 90.0508 288.029 89.7797 289.576 89.2857C290.749 88.9017 291.953 88.6011 293.151 88.0801C294.249 87.621 296.61 86.2756 297.099 86.0124C299.084 85.043 300.145 84.5463 302.269 83.2868C303.309 82.6611 304.748 81.5224 305.621 80.8375C307.16 79.6371 308.358 78.364 308.729 77.0157ZM322.32 78.3798C321.791 78.8713 321.122 79.6529 320.545 80.4183C320.475 81.3155 320.507 82.637 319.976 83.3944C318.313 85.5458 316.941 86.8053 314.824 88.7713C313.156 89.9502 311.899 89.5525 312.135 87.9624C312.498 86.6596 313.631 84.9998 314.617 83.6757C319.319 77.5816 325.634 72.8845 332.332 69.27C335.15 67.8441 339.249 65.9268 341.379 66.3918C341.47 66.3757 341.553 66.4053 341.645 66.3892C342.077 66.4457 342.698 66.6902 342.966 67.1737C343.267 67.4746 343.391 68.028 343.343 68.3019C343.149 69.3979 340.928 71.9574 339.701 72.395C338.954 72.6152 338.339 72.5909 338.084 72.282C337.858 72.0563 338.441 70.759 337.573 70.912C336.485 71.0596 335.677 70.627 335.008 70.6564C334.452 70.7987 333.888 70.9867 333.369 71.1666C332.569 71.4404 331.838 71.5692 331.274 71.7572C329.733 72.4715 328.14 73.7256 326.679 74.7354C325.172 75.7532 323.724 76.9376 322.32 78.3798ZM361.871 76.4938C361.917 76.4858 361.962 76.4777 362.062 76.4159C364.691 74.0499 377.389 62.2543 380.331 62.1339C383.234 61.9759 382.842 63.9474 381.392 66.9019C380.904 67.9172 379.647 71.28 379.51 72.0563C378.973 74.8498 381.466 74.7642 383.483 74.3642C385.858 73.9456 388.823 72.1839 390.719 70.9647L390.727 70.919C390.826 70.8573 390.963 70.8331 391.055 70.817C392.212 70.5244 392.159 71.3302 391.157 71.9935C387.494 74.4535 383.07 77.7111 380.091 77.7939C376.58 77.882 376.405 75.6122 377.283 72.1392C377.552 71.1185 377.689 69.5902 377.841 68.7226C378.083 67.3527 377.895 66.4125 376.743 66.9254C375.354 67.5242 372.751 69.4874 370.729 71.1713C366.316 74.8694 360.349 80.6114 358.869 81.2263C358.31 81.6345 358.409 81.5727 357.708 81.7848C357.214 81.8277 356.287 81.8142 356.07 81.5428C355.922 81.1265 355.712 80.8095 355.648 80.4227C355.747 78.1046 361.9 70.5602 361.73 69.2628C361.73 69.2628 361.757 68.8599 361.392 68.9243C359.931 69.1819 356.286 71.2846 352.585 74.459L346.746 79.4705L343.91 82.0057C342.562 83.1283 338.307 86.9312 336.671 85.6712C336.129 85.236 336.298 84.2771 336.846 83.4283C339.201 79.6063 342.445 75.7603 345.466 72.1748C346.275 71.1032 345.974 70.8023 346.707 69.6554C346.809 69.3277 347.002 68.9839 347.333 68.616L347.762 68.1863C348.635 67.5014 350.091 67.0235 351.015 67.303C351.902 67.5449 352.334 68.3535 352.098 69.1915C350.019 72.6993 347.347 74.0554 344.57 77.5093C344.009 78.1834 343.286 79.0187 342.693 79.8755L343.16 79.4834L343.214 79.4297C344.968 78.0143 346.474 76.9965 348.105 75.78C351.787 72.9628 355.445 70.2826 359.721 67.3607C361.48 66.1657 365.348 63.0503 367.335 63.3192C367.744 63.5127 367.765 63.6416 367.814 64.1198C368.238 64.974 365.488 69.5293 364.043 71.9519C363.24 73.2438 361.277 76.5985 361.871 76.4938ZM418.409 55.4196C418.617 57.5067 416.208 59.8782 414.717 58.5483C414.351 57.8606 412.028 57.7394 411.042 58.3114C410.591 58.6122 409.105 59.0068 407.599 60.0246C405.289 61.5822 401.859 64.2222 400.1 65.4172C396.979 67.5603 394.559 70.2434 394.551 71.0411C395.019 71.4011 396.109 70.9876 396.705 70.6171C399.402 69.124 402.219 67.6981 404.634 66.299C406.154 65.4557 407.758 64.6421 409.393 63.6458C412.082 62.1984 418.504 58.146 419.919 57.8964C420.559 57.7837 421.571 58.313 421.443 59.0436C420.97 61.4717 416.966 65.3633 416.676 67.0072C416.563 67.6465 416.993 67.9689 418.317 67.7354C418.82 67.6468 419.475 67.4428 420.267 67.2146C423.829 65.8344 428.715 63.4687 431.417 61.4437C432.59 61.0598 432.582 61.8576 431.556 62.6579C428.495 64.9675 417.998 73.0565 414.039 70.9232C413.147 70.461 413.09 69.2764 413.461 67.9281C413.957 66.115 415.171 63.9985 415.727 63.1041C416.24 61.9519 414.51 62.4781 414.005 62.8326C413.31 63.2649 411.784 63.8879 409.958 64.9621C409.071 65.4723 408.121 66.3478 407.234 66.8581C404.53 68.3968 400.874 70.8111 398.032 72.374C394.992 74.0604 392.749 74.9868 391.6 75.2337C390.96 75.3464 390.262 75.2926 389.639 75.314C388.814 74.9728 388.567 74.6182 388.567 73.866C388.594 73.4631 388.913 72.6547 389.246 72.0208C389.818 71.0351 391.126 69.3887 392.791 67.7235C394.502 66.0503 396.6 64.4417 398.904 62.6638C401.131 61.0766 404.464 58.9846 407.144 57.5829C409.68 56.251 411.111 55.91 412.051 55.3461C412.975 54.8735 414.939 54.5273 415.632 54.3608C416.698 54.0843 417.26 54.1623 417.816 54.7721L418.409 55.4196ZM440.037 39.8373C440.448 39.7649 440.677 39.7246 440.76 39.7542C442.877 39.2925 444.956 38.7932 447.088 38.2401C448.165 36.8999 449.435 35.2159 450.759 33.4782C450.939 32.9598 451.202 32.471 451.372 32.2642L452.497 30.65C453.439 28.3159 453.641 26.4222 454.863 25.7643C455.169 25.5333 456.176 25.0903 456.84 24.8406C458.298 24.0967 459.679 25.0478 459.23 26.5869C457.751 29.4581 454.251 33.7473 451.391 37.1717C455.976 36.0093 460.561 34.8469 465.106 33.9128C466.704 33.631 469.439 32.9276 471.475 32.9226C472.152 32.8475 472.828 32.7723 473.535 32.7805C476.793 32.8696 483.186 32.4945 482.698 36.5182C482.529 37.4772 479.477 36.4667 479.418 35.5481C479.437 35.1908 479.514 35.0001 479.568 34.9464C479.477 34.9625 479.348 34.941 479.098 34.8523C477.492 34.4277 475.56 34.5912 473.911 34.6608C473.463 34.6957 472.308 34.7224 472.163 34.7922C469.831 34.7166 460.72 37.208 460.583 37.2322C456.637 38.2818 452.753 39.2322 448.853 40.2738C445.907 43.9345 442.01 48.4708 438.836 52.9239C437.665 54.5461 436.585 56.1523 435.643 57.7342C434.754 59.2625 433.785 61.2474 433.645 62.2896C433.401 63.9254 434.226 64.2667 436.036 64.0359C437.344 63.8938 438.883 63.4454 440.164 62.954C441.537 62.4466 443.879 61.4584 446.672 60.1695C448.169 59.4633 451.515 57.5459 454.319 55.9454C455.254 55.1612 455.762 55.2929 455.19 56.2786C453.25 57.992 451.185 59.4181 448.585 61.1153C446.031 62.8045 442.98 64.8025 439.66 66.317C437.592 67.2568 435.8 67.8824 434.393 68.0863C432.848 68.3144 431.696 68.0752 431.073 67.3445C430.344 66.4553 430.269 64.8758 431.144 62.4208C432.146 59.5012 434.987 54.9298 438.194 50.2941C440.329 47.2188 442.654 44.0657 444.725 41.3557L444.634 41.3718L444.679 41.3637C443.71 41.8444 440.221 42.8136 437.86 43.4069C435.472 44.403 432.114 45.1278 430.583 44.7784C429.603 44.8185 429.068 44.3376 429.122 43.5318L429.146 43.3948C429.468 42.3204 431.109 40.7923 432.396 40.5212C433.956 40.2017 438.485 40.1111 440.037 39.8373ZM451.418 62.2086C451.125 60.3578 452.293 58.2494 453.799 55.7274C455.166 53.4954 456.388 51.3333 457.626 49.8319C459.082 47.8498 460.865 47.2698 462.222 46.8537C462.968 46.6335 463.798 47.1951 463.815 47.8558C464.005 48.5301 463.299 49.274 462.708 49.8649C461.733 50.8774 460.893 51.3796 460.326 51.8335C459.781 52.4163 459.176 52.8325 458.755 53.2166C457.796 54.1378 457.235 54.8119 456.51 55.9131C455.476 57.5112 455.194 58.3573 455.288 59.5795C455.39 61.5081 457.904 60.7993 459.46 60.2597C462.495 59.1051 465.49 58.1788 468.444 56.7288C470.475 55.7513 472.553 54.4999 474.412 53.2431C475.358 52.8994 476.222 53.0123 475.479 53.7187C470.488 57.4301 463.666 61.9955 457.776 63.7863C455.063 64.6186 451.84 64.833 451.418 62.2086ZM472.131 29.7983C473.2 29.2559 473.756 29.1136 474.097 29.1862C474.589 29.4092 475.034 29.6403 473.995 31.0181C472.188 33.2393 471.651 33.7764 469.754 34.9956C469.655 35.0574 467.807 36.0026 467.047 35.2961C466.784 35.0328 467.079 34.3613 466.961 34.0282C466.724 32.6099 469.252 31.3236 471.161 30.279C471.902 29.8386 471.688 30.0535 472.131 29.7983ZM473.637 54.2203C475.171 52.0475 477.357 49.9365 479.814 48.0432C481.2 46.9582 482.699 45.9861 484.189 45.0596C484.181 44.3531 485.83 42.7793 486.945 42.2288C487.426 42.0113 489.704 41.3885 490.268 41.2005C490.55 41.1066 490.74 41.0287 490.923 40.9965C491.541 40.7548 492.005 40.6286 492.287 40.5347C497.694 39.2273 504.34 38.675 509.532 38.3346C512.261 38.1631 512.951 38.2626 515.095 38.9022C516.239 39.1871 516.833 40.5867 514.956 41.4486C514.102 41.7762 513.975 41.4888 513.382 41.5934C512.393 41.6792 511.773 40.6826 511.947 39.944C511.909 39.9063 511.864 39.9144 511.818 39.9224C510.991 39.8471 510.233 39.6267 509.39 39.6427C508.235 39.6694 507.023 40.0158 505.745 40.2412C503.956 40.6009 502.116 40.7483 500.244 41.0784C501.098 41.503 501.501 42.2283 501.378 43.1792C500.87 46.0559 496.866 49.1954 493.906 51.1773C492.851 51.8943 491.771 52.7483 490.632 53.4358C489.891 53.8762 488.677 54.4885 487.898 54.8913C485.744 56.0675 483.974 56.822 481.914 57.7162C480.334 58.3929 477.603 59.5824 475.349 60.0683C474.154 60.3233 473.082 60.3795 472.47 60.0893C471.282 59.5465 471.239 58.5366 471.661 57.4004C472.074 56.3099 472.936 55.1845 473.637 54.2203ZM499.393 43.3964C499.771 42.0024 496.599 42.429 494.262 42.8853C492.049 43.895 489.317 45.8366 488.152 46.1749C487.824 46.2769 486.699 46.3869 485.826 46.3196C484.961 46.9588 484.096 47.5979 483.161 48.3821C482.326 49.1046 481.569 49.6363 480.862 50.3803C480.317 50.9631 479.71 51.6453 479.141 52.365C478.287 53.4447 477.562 54.5459 477.328 55.118C477.172 55.4994 477.116 55.8191 477.213 56.0232C477.406 56.4316 478.693 56.1605 480.24 55.6664C481.414 55.2825 482.617 54.9818 483.815 54.4609C484.913 54.0017 487.274 52.6564 487.763 52.3932C489.748 51.4238 490.809 50.927 492.933 49.6675C493.973 49.0418 495.412 47.9031 496.285 47.2183C497.824 46.0178 499.022 44.7448 499.393 43.3964ZM513.37 39.5603L513.378 39.5147C514.055 38.6874 515.105 37.7501 516.104 37.3527C517.761 36.4854 518.933 37.1195 518.506 38.7875C517.45 41.0087 513.355 44.9164 511.617 46.9925C511.064 47.621 510.801 48.1098 510.975 48.1233C511.112 48.0991 511.3 48.2872 512.141 47.785C512.982 47.2828 514.182 46.496 514.534 46.257C516.148 45.1317 520.403 42.0809 524.533 39.2289C528.487 36.6293 531.651 34.7441 533.437 34.6504C536.387 34.4843 535.917 36.6465 534.923 39.5205C534.376 41.1214 533.903 42.7974 533.672 43.8557C533.254 46.2302 535.223 46.8564 537.323 46.486C539.971 46.019 543.447 44.1231 545.679 42.7562L545.687 42.7105C545.786 42.6488 545.923 42.6246 546.015 42.6085C547.309 42.2918 547.21 43.1056 546.055 43.8844C542.064 46.4464 537.275 49.7684 534.081 50.0661C532.188 50.2673 530.302 48.9186 530.524 46.4017C530.637 45.0103 530.846 43.8231 531.295 42.284C531.547 41.3547 531.577 40.6858 531.574 40.1996C531.555 39.8048 531.27 39.4126 530.991 39.2406C530.749 39.1063 530.22 38.8456 529.419 39.1195C527.864 39.6592 525.667 40.5775 523.022 42.2828C520.422 43.98 517.779 46.1715 515.652 47.6969C513.876 48.9833 510.871 51.7254 509.227 52.7673C508.287 53.3313 507.605 53.9382 506.614 54.29C506.179 54.4994 505.835 54.6928 505.486 54.6658C504.277 54.7463 503.855 54.3782 503.592 53.3628C503.71 52.1917 504.741 50.8595 505.987 49.3125C506.61 48.539 507.365 47.5211 507.926 46.8469C509.019 45.4154 510.142 44.0671 511.026 43.0707C512.696 40.8737 512.392 40.8388 513.193 39.8128C513.3 39.7054 513.316 39.614 513.37 39.5603Z" fill="#27A6EC"/>
</svg>
