<svg width="515" height="176" viewBox="0 0 515 176" fill="none" xmlns="http://www.w3.org/2000/svg">
<path d="M37.1994 112.785C37.6299 112.841 38.1299 112.753 38.4989 112.908C39.2956 112.635 40.0683 112.499 40.7715 112.507C42.3864 112.09 43.9853 111.764 45.3729 111.387L47.322 110.823L48.3111 109.46C50.9763 106.083 53.759 101.541 56.0606 98.2287C56.9027 97.1995 58.7578 93.9217 59.4848 92.2962C60.0755 90.6947 60.7653 90.529 61.733 89.0372L62.0564 88.4517C62.9199 87.5508 64.3236 87.0831 65.0588 86.9094C66.1657 86.6261 66.2139 87.1021 66.4092 87.9924C66.4494 88.5138 65.3615 90.6874 65.2332 90.666C64.2282 92.8691 63.8726 92.8877 59.9429 97.9405C58.3871 100.02 54.297 105.234 50.6587 109.883C55.9285 108.469 61.233 107.358 66.2062 106.877C68.166 106.752 70.0215 106.469 71.7969 106.64C73.837 106.809 75.7648 106.865 75.511 108.055C75.3774 108.563 74.8267 109.189 73.7734 110.167C72.3511 110.99 71.867 110.239 71.8855 109.135C71.0326 108.977 70.1769 108.335 68.9202 108.468C63.3723 108.962 66.1957 108.685 60.5195 109.906C55.9957 110.835 52.5334 112.239 47.9053 113.759C47.7609 113.829 47.6246 113.853 47.4882 113.877L43.8526 118.261C39.9335 123.004 33.4591 132.249 29.5348 137.521C27.2572 140.697 27.6344 142.304 25.3275 145.397C24.5522 146.547 24.0982 149.622 23.0823 150.637C22.8444 150.988 21.5772 152.18 20.9703 152.375C20.5077 152.501 20.0987 152.573 19.9249 152.559C18.9757 152.947 18.3955 152.741 18.0906 152.222C18.0558 151.92 18.1065 151.383 18.2027 150.837C18.4192 150.359 19.5819 147.511 20.0711 146.985C22.1586 142.389 25.1422 140.453 27.8874 135.125L31.229 131.409C33.8729 127.904 38.3693 122.135 41.1254 118.742L44.2104 114.983C43.7853 115.146 43.4056 115.301 43.034 115.411C42.2667 115.767 40.5422 116.555 40.224 116.611L36.6922 118.159L35.1068 118.658L34.3956 118.696C32.1069 119.187 32.4862 116.786 33.5234 115.15C34.1622 114.025 35.9268 113.009 37.1994 112.785ZM20.1166 93.0283C20.3358 93.0337 24.2663 93.2214 28.6831 91.6499C29.8086 91.011 30.6641 90.1556 32.0303 89.6504C36.4632 87.988 41.6608 86.9834 46.1899 85.5242C62.4536 80.4545 78.6427 76.8073 94.4256 75.2134C100.035 74.6206 111.904 73.4967 115.848 76.1042C116.292 76.3342 116.319 76.6818 116.041 77.2593L115.06 78.5773C114.188 79.5237 111.381 79.7105 111.701 78.641C111.931 78.3362 109.648 77.5498 109.642 77.3306C109.583 76.4161 107.07 76.6831 106.632 76.6724C100.354 76.8105 95.4579 76.3525 88.8618 77.2954C78.7686 78.5907 68.7451 81.2389 58.6735 84.1598C52.5455 85.945 46.4149 87.9948 40.0544 90.3495L33.6886 93.2335C28.5793 95.2354 26.6384 96.5025 21.4997 98.4215C18.9571 99.3542 18.1522 98.9236 15.7084 99.0463C14.0293 99.0781 13.6975 97.4631 15.3149 96.0329C16.2079 95.2148 19.0738 92.9479 20.1166 93.0283ZM73.5174 123.38C73.2257 121.538 74.3884 119.439 75.888 116.929C77.2487 114.707 78.4649 112.555 79.6973 111.06C81.1462 109.087 82.9215 108.51 84.2716 108.096C85.0149 107.877 85.8412 108.435 85.8573 109.093C86.0473 109.764 85.3442 110.505 84.756 111.093C83.7856 112.101 82.9488 112.601 82.3847 113.053C81.842 113.633 81.2405 114.047 80.8208 114.429C79.8664 115.346 79.3076 116.017 78.5859 117.113C77.5567 118.704 77.2761 119.546 77.3699 120.763C77.4718 122.683 79.9743 121.977 81.5223 121.44C84.5435 120.291 87.5246 119.369 90.4655 117.925C92.4867 116.952 94.556 115.707 96.4061 114.456C97.3472 114.114 98.2082 114.226 97.4676 114.929C92.5003 118.623 85.7097 123.168 79.8464 124.95C77.146 125.779 73.9375 125.992 73.5174 123.38ZM94.1353 91.1188C95.1994 90.5788 95.7528 90.4372 96.0924 90.5095C96.5817 90.7315 97.0256 90.9615 95.991 92.3329C94.1919 94.5439 93.6573 95.0785 91.7698 96.2921C91.6709 96.3536 89.8315 97.2945 89.0747 96.5912C88.8126 96.3291 89.1066 95.6607 88.9889 95.3292C88.7534 93.9174 91.2692 92.637 93.1701 91.5972C93.908 91.1589 93.6942 91.3727 94.1353 91.1188ZM102.294 106.635L102.302 106.59C102.975 105.767 104.021 104.834 105.015 104.438C106.665 103.575 107.831 104.206 107.406 105.866C106.355 108.077 102.278 111.967 100.549 114.033C99.9982 114.659 99.7362 115.146 99.91 115.159C100.046 115.135 100.234 115.322 101.07 114.822C101.907 114.322 103.102 113.539 103.452 113.301C105.059 112.181 109.294 109.144 113.406 106.306C117.341 103.718 120.491 101.841 122.269 101.748C125.204 101.583 124.737 103.735 123.748 106.596C123.203 108.189 122.732 109.858 122.503 110.911C122.086 113.275 124.046 113.898 126.137 113.529C128.773 113.064 132.232 111.177 134.454 109.817L134.462 109.771C134.561 109.71 134.697 109.686 134.788 109.67C136.077 109.354 135.978 110.164 134.829 110.94C130.856 113.49 126.089 116.797 122.91 117.093C121.025 117.293 119.148 115.951 119.369 113.445C119.481 112.06 119.69 110.879 120.136 109.347C120.387 108.422 120.417 107.756 120.414 107.272C120.395 106.879 120.112 106.488 119.834 106.317C119.593 106.183 119.066 105.924 118.269 106.197C116.721 106.734 114.534 107.648 111.901 109.345C109.313 111.035 106.682 113.216 104.565 114.735C102.798 116.015 99.8062 118.745 98.1701 119.782C97.2343 120.343 96.5553 120.947 95.5687 121.297C95.1356 121.506 94.7934 121.698 94.4458 121.671C93.2426 121.752 92.8228 121.385 92.5606 120.374C92.6781 119.209 93.7046 117.883 94.945 116.343C95.5652 115.573 96.3164 114.56 96.8751 113.889C97.9631 112.464 99.0805 111.122 99.96 110.13C101.623 107.943 101.321 107.908 102.117 106.887C102.224 106.78 102.24 106.689 102.294 106.635ZM160.63 93.6187C161.437 93.7846 162.074 94.4211 161.825 95.0815C161.304 96.5386 159.069 98.4741 157.649 98.284C157.422 98.3241 155.417 97.7088 153.754 98.3984C153.214 98.7138 152.714 98.802 152.037 99.1415C150.882 99.6974 149.016 101.039 147.875 101.769C144.899 103.659 142.276 105.795 141.228 106.993C140.386 108.022 138.753 109.543 138.248 110.161C137.192 111.404 137.897 111.147 138.117 111.153C139.349 111.155 140.726 110.34 142.983 109.282C146.039 107.686 148.902 105.684 150.257 104.74C154.468 101.84 154.564 102.043 159.826 97.6801C161.847 95.9585 162.266 95.5762 163.167 94.7127C164.443 93.4749 166.271 91.3469 168.835 88.2965C171.671 84.4494 174.719 80.6531 177.63 76.8809C179.744 74.1299 182.46 70.2159 185.206 67.8821C186.27 67.3422 187.131 67.4546 187.527 67.9573C188.521 68.3104 187.856 70.5857 186.616 72.1256C186.53 72.3609 185.942 72.949 185.843 73.0105L185.073 73.6307C182.809 75.4833 182.164 76.3896 180.486 77.9187L180.149 78.3304C175.096 84.5061 170.164 89.9999 165.954 96.6436C164.524 99.0096 160.53 103.677 162.166 106.383C162.755 107.293 165.081 106.838 166.257 106.411C168.351 105.777 172.904 104.182 175.826 102.345C177.256 101.477 177.62 101.413 179.609 99.8728C180.537 99.3569 180.655 99.6885 180.042 100.413C179.024 101.694 177.297 102.747 174.957 104.524C170.958 107.476 164.143 111.408 161.59 111.153C159.173 110.875 158.266 108.525 159.209 104.923C159.556 103.453 160.166 102.244 160.869 100.755C161.457 99.4182 162.034 98.3916 162.695 97.3944C161.946 98.1429 161.107 98.9075 160.168 99.7336C156.797 102.618 157.631 101.634 151.872 105.82C149.985 107.034 147.231 109.413 145.125 110.622C142.349 112.124 137.914 114.8 135.144 115.024C132.821 115.213 131.756 113.507 133.224 111.179C134.253 109.588 137.105 106.398 139.536 104.605C141.714 102.987 143.725 101.576 145.612 100.362C146.898 99.5631 151.459 97.1735 154.817 95.6125C157.135 94.4551 159.338 93.4501 160.63 93.6187ZM242.164 90.9125L241.036 91.816C240.237 92.3533 239.534 92.3452 238.336 92.6445C236.938 93.3314 237.7 92.7567 236.43 93.465L235.943 93.727C234.056 94.9406 232.077 96.1702 230.083 97.4908C229.564 97.9345 229.412 98.0495 229.275 98.0735C227.92 99.0172 226.548 100.052 225.19 101.26C221.576 107.27 217.914 112.056 213.276 117.63C210.482 120.985 207.587 124.666 199.169 133.946C198.565 134.625 192.336 141.228 190.253 140.802C187.959 140.326 191.567 134.845 192.824 133.215C194.15 131.439 198.705 125.836 200.242 124.112C205.177 118.353 213.708 109.935 221.653 102.588C223.45 99.8935 225.377 96.9553 226.772 94.2871C227.55 92.8728 228.191 90.7339 228.574 89.5655C229.017 88.2983 228.905 88.1859 228.512 87.4185C228.177 86.8169 228.164 86.6431 227.239 86.8943C226.64 87.0439 226.049 87.1481 225.335 87.4501C224.097 87.9767 222.766 88.7839 222.515 88.9604C221.015 89.9735 218.296 91.9062 215.615 93.8764C213.695 95.2718 211.005 97.2874 209.345 98.461C207.281 99.9259 205.402 101.094 204.164 101.621C202.303 102.433 200.001 103.5 198.862 102.467C198.06 101.772 197.974 100.51 198.426 99.1973C198.885 97.8391 199.848 96.128 201.206 94.171C201.858 93.2193 204.103 90.225 204.748 89.3187C205.646 87.9713 206.223 87.6933 207.049 86.7549C208.004 85.838 209.095 85.6456 209.787 85.9639C210.148 86.1645 210.25 86.5869 210.314 86.972C210.333 87.365 209.729 88.7927 209.413 89.3328C209.085 89.699 208.665 90.0813 208.015 90.7684C207.021 91.9126 205.569 92.653 205.117 93.2171C204.353 94.0565 203.195 95.6259 202.669 96.8637C202.313 97.631 202.369 98.0615 202.508 98.5214C202.589 98.8156 203.225 98.7034 203.605 98.5483C204.174 98.3158 204.829 97.848 205.687 97.4765C210.495 95.4398 217.742 89.8019 224.72 85.4447C226.41 84.3541 229.679 82.5444 231.353 82.2933C232.308 82.125 233.629 82.3766 233.746 83.4568C233.915 84.7482 233.26 85.9647 232.44 87.871C231.533 90.0125 229.788 92.9186 228.863 94.6671C228.331 95.6857 227.361 97.4423 226.837 98.4154C227.455 97.9102 228.11 97.4424 228.765 96.9746C229.436 96.4158 230.152 95.8491 230.927 95.4482C231.78 94.8574 232.489 94.3361 233.28 93.8443C234.141 93.208 235.047 92.5638 235.937 92.0104C237.673 90.9118 238.124 90.3477 240.132 89.201C240.354 88.9416 241.303 88.5541 241.629 88.4525C242.191 88.2654 242.645 88.1853 242.774 88.2067C244.081 88.2844 243.212 89.7148 242.164 90.9125ZM207.52 121.551C212.27 116.089 215.115 112.197 218.56 107.141C217.721 107.906 216.919 108.708 216.162 109.502C214.008 111.731 211.885 114.528 209.594 116.782C205.378 120.96 200.994 126.842 197.767 131.903L198.783 130.887C200.19 129.406 202.366 127.304 204.208 125.35C205.729 123.717 206.969 122.177 207.52 121.551ZM240.067 89.9612C241.593 87.7983 243.769 85.6971 246.215 83.8124C247.595 82.7324 249.087 81.7648 250.571 80.8425C250.562 80.1393 252.204 78.5728 253.313 78.0248C253.792 77.8083 256.059 77.1883 256.621 77.0012C256.901 76.9077 257.091 76.8302 257.273 76.7981C257.888 76.5576 258.351 76.432 258.631 76.3384C264.013 75.0371 270.628 74.4873 275.796 74.1485C278.513 73.9778 279.2 74.0768 281.334 74.7135C282.473 74.9971 283.064 76.3902 281.195 77.2482C280.345 77.5743 280.219 77.2882 279.628 77.3923C278.645 77.4778 278.027 76.4857 278.2 75.7504C278.163 75.713 278.118 75.721 278.072 75.729C277.249 75.6541 276.495 75.4347 275.655 75.4506C274.505 75.4772 273.299 75.8219 272.027 76.0463C270.246 76.4043 268.415 76.5511 266.551 76.8797C267.401 77.3023 267.803 78.0243 267.68 78.9708C267.175 81.8343 263.189 84.9593 260.242 86.9321C259.192 87.6458 258.117 88.4959 256.983 89.1803C256.246 89.6186 255.037 90.2281 254.262 90.629C252.118 91.7998 250.356 92.5509 248.305 93.4409C246.733 94.1145 244.014 95.2986 241.771 95.7822C240.581 96.036 239.514 96.092 238.905 95.8031C237.723 95.2629 237.68 94.2575 238.099 93.1266C238.511 92.0411 239.369 90.9209 240.067 89.9612ZM265.704 79.187C266.081 77.7994 262.923 78.2241 260.597 78.6783C258.394 79.6833 255.675 81.616 254.515 81.9527C254.188 82.0543 253.068 82.1637 252.199 82.0968C251.338 82.733 250.477 83.3692 249.547 84.1498C248.716 84.8689 247.962 85.3982 247.259 86.1388C246.716 86.7189 246.112 87.3979 245.545 88.1144C244.695 89.1891 243.973 90.2853 243.741 90.8547C243.586 91.2344 243.53 91.5526 243.626 91.7558C243.818 92.1622 245.099 91.8924 246.639 91.4006C247.807 91.0184 249.005 90.7192 250.198 90.2006C251.291 89.7436 253.641 88.4044 254.128 88.1424C256.104 87.1775 257.16 86.683 259.274 85.4293C260.309 84.8065 261.742 83.673 262.611 82.9913C264.143 81.7964 265.335 80.5292 265.704 79.187ZM271.346 87.3084C272.065 84.9796 274.765 81.9052 276.115 79.9937C276.176 79.8947 276.2 79.7584 276.369 79.5525C276.353 78.8948 276.489 78.1221 276.719 77.8173C277.844 76.4298 278.531 75.7802 280.085 74.7136C280.085 74.7136 280.13 74.7056 280.184 74.6521C280.451 74.3848 280.71 74.1629 280.908 74.0399C281.935 73.4625 282.801 73.0456 283.555 73.2649C284.354 73.4763 284.74 74.2891 284.01 75.4307C283.382 76.2461 283.376 76.0269 282.612 76.8663C282.229 77.2861 281.483 77.7699 281.01 78.2056C280.072 79.0317 278.987 80.1919 278.321 80.9699C277.586 81.8922 277.669 81.9217 277.054 82.9109C276.471 83.7183 276.345 84.1808 276.22 84.6433C275.963 85.3492 275.958 85.8786 276.814 85.7718C277.26 85.7371 277.765 85.8681 278.562 85.5955C280.383 85.0103 281.586 84.1816 283.936 82.8424C287.762 80.6264 289.157 79.4555 294.74 75.5206C295.638 74.9218 296.844 73.8284 298.498 72.4356C299.268 71.8154 299.827 71.1444 300.466 70.7675C301.092 70.2168 303.431 69.9364 303.931 70.5969C304.851 71.6237 304.295 72.7787 303.811 73.5246C303.079 74.1822 302.809 74.7143 302.02 75.6901C300.55 77.5348 298.85 80.4329 298.668 81.2136C298.438 82.267 298.965 82.5264 299.797 82.556C300.144 82.5827 300.409 82.5801 300.954 82.4839C301.636 82.3637 302.318 82.2435 302.553 82.158C304.374 81.5727 305.385 81.0862 307.232 80.0999C308.638 79.3675 312.715 76.9751 314.063 76.0769C314.504 75.8229 315.162 75.0904 315.541 74.9354L316.023 75.2029C316.344 75.6307 316.181 76.0558 315.6 76.5985C313.97 77.8549 309.633 80.4692 307.7 81.6908C304.275 83.8801 300.712 86.3582 298.086 86.5129C296.043 86.6088 294.837 84.7076 295.545 81.9404C296.034 79.9164 297.005 78.1599 297.986 76.0932C298.202 75.6146 297.611 75.7188 297.323 75.8578C296.274 76.3069 295.398 77.034 293.783 78.1995C291.361 79.9478 287.915 82.7574 284.361 84.9253C281.447 86.7163 277.779 89.0366 276.413 89.5417C275.328 89.9533 273.371 90.5626 272.405 90.2924C270.943 89.8457 270.809 88.8564 271.346 87.3084ZM319.74 73.4023C319.214 73.8915 318.548 74.6695 317.973 75.4314C317.904 76.3244 317.936 77.6399 317.407 78.3938C315.752 80.5353 314.386 81.7891 312.28 83.7459C310.619 84.9195 309.368 84.5236 309.603 82.9407C309.964 81.644 311.092 79.9918 312.073 78.6738C316.754 72.6077 323.039 67.9323 329.707 64.3344C332.511 62.915 336.591 61.0066 338.712 61.4694C338.803 61.4534 338.885 61.4828 338.976 61.4668C339.407 61.523 340.025 61.7664 340.292 62.2477C340.592 62.5472 340.715 63.0981 340.666 63.3708C340.474 64.4616 338.263 67.0094 337.041 67.445C336.298 67.6642 335.686 67.64 335.432 67.3325C335.207 67.1079 335.787 65.8165 334.924 65.9688C333.841 66.1157 333.036 65.6851 332.37 65.7144C331.817 65.8561 331.255 66.0431 330.739 66.2222C329.943 66.4948 329.215 66.623 328.654 66.8101C327.119 67.5211 325.534 68.7695 324.079 69.7746C322.58 70.7878 321.139 71.9667 319.74 73.4023ZM363.112 65.0501L364.152 64.6466C365.398 64.0746 366.59 63.556 367.395 63.238C370.622 61.9203 372.926 61.3378 375.48 60.8435C375.581 60.5173 375.728 60.1831 375.859 59.9398C376.375 59.0121 376.295 58.718 376.969 57.8946C379.064 55.4992 382.968 52.3447 385.527 52.8184C385.994 52.912 386.58 53.3372 386.834 53.6447C386.858 54.257 386.401 55.3505 385.925 56.051C385.097 57.2541 382.56 58.4061 381.779 57.8391L381.38 57.6011C381.057 57.438 379.605 57.4297 379.439 58.1195C379.274 58.8093 379.062 59.5071 379.025 60.2184C379.298 60.1703 379.579 60.0767 379.851 60.0286C385.458 58.9519 386.177 58.8692 391.346 58.5304C392.065 58.4476 393.153 58.5199 393.998 58.7233C394.549 58.8463 394.926 58.956 394.886 59.1833C395.078 59.5897 394.37 60.111 393.958 60.4478C393.349 60.9076 392.643 61.1642 392.078 60.8673C391.423 60.5865 391.397 60.2389 390.367 60.3323C389.854 60.2467 388.608 60.07 387.041 60.2142C384.755 60.4411 381.982 60.93 381.028 61.0983L378.982 61.459C379.055 62.5472 379.272 63.5659 379.512 64.4483C379.849 65.5339 379.807 66.7745 378.703 68.2904C378.075 69.1058 377.12 70.0227 376.214 70.667C374.415 72.1293 371.602 73.5941 367.993 74.5828C364.974 75.4674 361.998 75.86 360.455 75.8678C359.095 75.8435 357.918 75.5225 356.947 75.033C355.902 74.4687 355.236 73.7494 355.407 72.5302C355.578 71.311 356.743 69.6962 358.711 68.0281C359.885 67.1165 360.197 66.8411 361.788 65.812C362.427 65.4351 362.315 65.3228 363.112 65.0501ZM375.275 67.0011C374.999 65.8166 374.951 63.8434 375.202 62.1696C373.277 62.5971 371.336 63.1156 369.384 63.9441C367.721 64.6337 365.879 65.0907 364.291 65.8551C363.713 66.1331 362.655 66.8923 362.144 67.2906C361.382 67.8654 361.027 68.6327 360.511 69.5604C359.864 70.7314 360.401 71.4293 360.706 71.9481C361.182 72.7449 361.864 72.6247 362.415 72.7478C363.902 73.0582 365.613 73.5932 367.607 73.0213C369.102 72.5376 369.551 72.2382 370.719 71.856C371.591 71.6583 373.286 70.7869 373.968 69.918C374.526 69.247 375.623 68.5252 375.275 67.0011ZM399.352 41.6608C399.761 41.5887 399.988 41.5486 400.071 41.578C402.178 41.1185 404.247 40.6215 406.37 40.071C407.442 38.7369 408.706 37.0607 410.024 35.3309C410.203 34.8149 410.465 34.3284 410.634 34.1225L411.754 32.5157C412.692 30.1924 412.892 28.3074 414.109 27.6525C414.413 27.4226 415.416 26.9816 416.076 26.733C417.528 25.9926 418.903 26.9393 418.456 28.4713C416.983 31.3294 413.5 35.5988 410.653 39.0075C415.217 37.8504 419.781 36.6933 424.305 35.7635C425.896 35.483 428.617 34.7829 430.644 34.7779C431.318 34.7031 431.992 34.6283 432.695 34.6365C435.938 34.7252 442.302 34.3518 441.816 38.357C441.647 39.3115 438.61 38.3057 438.551 37.3913C438.57 37.0357 438.647 36.8459 438.701 36.7924C438.61 36.8084 438.481 36.787 438.233 36.6987C436.634 36.2761 434.711 36.4389 433.07 36.5081C432.623 36.5428 431.473 36.5694 431.329 36.6389C429.008 36.5637 419.939 39.0436 419.803 39.0676C415.875 40.1125 412.009 41.0584 408.127 42.0953C405.194 45.7392 401.315 50.2546 398.156 54.6872C396.99 56.302 395.916 57.9007 394.977 59.4754C394.092 60.9966 393.128 62.9724 392.989 64.0098C392.746 65.6381 393.566 65.9778 395.369 65.7481C396.671 65.6066 398.203 65.1603 399.478 64.6712C400.844 64.166 403.176 63.1825 405.956 61.8995C407.445 61.1965 410.776 59.2879 413.568 57.6948C414.498 56.9142 415.003 57.0453 414.434 58.0264C412.504 59.732 410.448 61.1515 407.86 62.8409C405.317 64.5223 402.28 66.5111 398.976 68.0187C396.917 68.9542 395.134 69.5769 393.733 69.7799C392.195 70.0069 391.048 69.7688 390.428 69.0414C389.703 68.1563 389.628 66.5841 390.499 64.1405C391.496 61.2342 394.324 56.6839 397.516 52.0695C399.641 49.0083 401.956 45.8697 404.017 43.1722L403.927 43.1882L403.972 43.1802C403.007 43.6587 399.534 44.6234 397.184 45.2139C394.807 46.2055 391.465 46.927 389.941 46.5791C388.965 46.6191 388.433 46.1404 388.486 45.3383L388.51 45.2019C388.831 44.1325 390.464 42.6114 391.745 42.3415C393.298 42.0236 397.806 41.9333 399.352 41.6608ZM454.629 53.4492L453.501 54.3528C452.701 54.8901 451.998 54.882 450.8 55.1812C449.402 55.8682 450.164 55.2934 448.894 56.0018L448.408 56.2638C446.52 57.4774 444.542 58.707 442.547 60.0275C442.029 60.4713 441.876 60.5863 441.74 60.6103C440.384 61.5539 439.013 62.5885 437.655 63.7968C434.041 69.8069 430.379 74.5924 425.74 80.1665C422.947 83.5216 420.052 87.2029 411.633 96.4823C411.029 97.1613 404.8 103.765 402.717 103.339C400.423 102.863 404.032 97.3822 405.288 95.7514C406.614 93.9762 411.17 88.3727 412.707 86.6484C417.642 80.8898 426.172 72.4714 434.118 65.1251C435.914 62.4303 437.841 59.4921 439.237 56.8239C440.015 55.4096 440.656 53.2707 441.038 52.1023C441.482 50.835 441.369 50.7227 440.976 49.9553C440.642 49.3536 440.629 49.1798 439.704 49.431C439.105 49.5807 438.514 49.6849 437.8 49.9869C436.562 50.5134 435.231 51.3207 434.979 51.4971C433.48 52.5103 430.761 54.443 428.079 56.4132C426.16 57.8086 423.47 59.8242 421.81 60.9977C419.746 62.4626 417.866 63.6308 416.629 64.1573C414.768 64.9699 412.466 66.0364 411.327 65.0041C410.524 64.3088 410.439 63.0468 410.89 61.7341C411.35 60.3759 412.312 58.6648 413.67 56.7078C414.323 55.756 416.568 52.7618 417.212 51.8555C418.11 50.508 418.688 50.23 419.514 49.2917C420.468 48.3747 421.559 48.1824 422.252 48.5006C422.613 48.7012 422.714 49.1237 422.779 49.5087C422.797 49.9018 422.193 51.3295 421.878 51.8695C421.549 52.2358 421.129 52.6181 420.48 53.3051C419.485 54.4493 418.034 55.1898 417.582 55.7539C416.817 56.5933 415.66 58.1626 415.133 59.4005C414.778 60.1678 414.834 60.5983 414.973 61.0582C415.053 61.3523 415.69 61.2401 416.069 61.0851C416.639 60.8526 417.294 60.3848 418.152 60.0132C422.959 57.9765 430.207 52.3387 437.185 47.9815C438.874 46.8908 442.144 45.0812 443.818 44.8301C444.772 44.6618 446.093 44.9133 446.211 45.9935C446.38 47.285 445.725 48.5014 444.904 50.4077C443.998 52.5493 442.253 55.4554 441.328 57.2039C440.796 58.2225 439.825 59.979 439.302 60.9522C439.919 60.4469 440.574 59.9791 441.229 59.5113C441.9 58.9526 442.617 58.3859 443.392 57.9849C444.245 57.3941 444.953 56.8729 445.745 56.381C446.605 55.7448 447.512 55.1005 448.402 54.5472C450.137 53.4486 450.589 52.8845 452.597 51.7377C452.819 51.4784 453.768 51.0908 454.094 50.9893C454.655 50.8022 455.11 50.7221 455.238 50.7435C456.546 50.8212 455.677 52.2515 454.629 53.4492ZM419.984 84.088C424.735 78.6262 427.579 74.7337 431.025 69.6781C430.185 70.4427 429.383 71.2447 428.627 72.0387C426.472 74.2683 424.35 77.0647 422.059 79.3183C417.843 83.4968 413.459 89.3784 410.232 94.4393L411.248 93.4235C412.654 91.9424 414.83 89.8412 416.672 87.8869C418.193 86.2535 419.434 84.7136 419.984 84.088ZM450.896 56.8819C451.506 54.9248 454.267 50.2542 456.277 47.3454C459.293 42.9823 463.471 36.5204 468.673 29.7459L470.488 27.4441C471.293 26.3774 470.544 27.1259 472.076 25.1823C472.781 24.1771 473.835 22.45 474.984 20.9261C475.783 19.6402 476.842 18.1323 477.871 17.2902C478.088 16.8117 478.28 16.4695 478.609 16.1032C478.93 15.7824 479.47 15.467 480.039 15.2344C480.465 15.0714 481.384 15.3496 481.719 15.9513C481.748 16.0341 481.732 16.1251 481.769 16.1625C482.181 16.5743 482.131 17.1117 481.751 18.0154C481.612 18.3041 481.692 18.5983 481.446 18.9939C481.102 19.4511 480.604 20.0232 480.131 20.459L476.201 24.7631L475.987 24.977C474.266 26.9981 472.56 28.9283 471.903 29.6608C469.531 32.369 467.08 35.5317 464.765 38.6703C461.407 43.2259 458.05 47.7815 455.965 51.364C455.08 52.8852 454.5 54.1766 454.361 55.214C454.26 56.2888 455.872 56.1367 456.698 55.9469C458.169 55.5996 460.195 54.8459 460.674 54.6294C464.192 52.908 465.93 52.2933 468.959 50.3499C471.189 48.9438 473.461 47.7945 475.844 46.2735C476.977 45.5891 477.563 46.0144 476.496 46.819C474.462 48.3668 470.689 51.278 466.754 53.8656C462.361 56.798 457.763 59.1503 455.103 59.7515C452.397 60.3607 449.988 60.0368 450.896 56.8819ZM482.969 46.9548C481.897 47.5402 479.769 48.62 478.844 48.1226C478.488 48.1412 478.285 48.045 478.234 47.8337L477.502 48.4914C477.189 48.7667 476.569 49.5367 476.208 50.0847C475.855 50.5873 475.828 50.9884 475.804 51.1248C475.732 51.5338 476.192 51.6729 476.606 51.8201C477.149 51.9886 478.189 52.3336 482.488 51.1792C483.914 50.8399 485.534 50.6422 489.269 49.191C492.95 47.7931 495.004 46.6384 497.929 45.2859C499.273 44.6524 500.466 44.1339 501.909 43.4389C504.014 42.4954 505.171 41.6747 505.377 41.5063C505.896 41.0625 507.04 40.8167 506.57 41.7364C506.246 42.3219 504.848 43.0089 503.524 43.7707C501.41 45.0244 499.014 46.3716 498.103 46.7966C495.632 48.0689 493.33 49.1354 490.595 50.4104C487.847 51.5116 485.954 52.5059 483.564 53.3237C482.767 53.5963 481.256 54.171 480.286 54.4302C476.912 55.3334 475.412 55.5979 474.155 55.7314C473.345 55.8302 473.005 55.758 472.455 55.6349C471.858 55.5198 471.853 55.3006 471.446 55.108C470.716 54.7523 470.468 53.9154 470.652 52.87C470.756 52.2791 470.871 51.378 471.515 50.4717C471.906 50.0065 472.673 48.9024 473.841 47.7716C474.849 46.8012 476.252 45.5848 477.517 44.6572C479.437 43.2618 480.046 42.802 481.043 42.1417C481.942 41.5429 483.142 40.9789 485.508 39.5488C489.746 36.996 491.644 36.2209 493.989 35.4111L495.825 34.7349C496.895 34.4142 500.82 33.6341 500.681 35.4201C500.614 36.0484 500.299 36.5885 499.2 37.575C498.315 38.3475 497.682 38.9437 496.342 39.7964C494.302 41.125 490.562 43.1057 487.028 44.918C486.496 45.1879 485.774 45.5354 484.87 45.9149C484.231 46.2919 483.547 46.6768 482.969 46.9548ZM482.215 44.4894C481.865 44.7274 481.469 44.9733 481.111 45.2566L481.292 45.2246C481.656 45.1605 482.346 44.9948 483.081 44.8211C483.635 44.6795 483.672 44.7169 484.089 44.5993L485.121 44.2412L486.223 43.7387C486.891 43.4447 487.468 43.1667 487.91 42.9128C490.062 41.6965 493.508 39.6356 494.698 38.6331C495.369 38.0744 494.917 37.8898 494.879 37.8524C494.329 37.7293 493.919 37.8014 493.874 37.8095C493.04 38.0446 492.222 38.1889 490.069 39.4051C489.674 39.6511 488.874 40.1884 488.38 40.4958L486.508 41.6185C484.979 42.5487 483.479 43.5618 482.215 44.4894Z" fill="#6BC5F7"/>
</svg>
