<svg width="191" height="91" viewBox="0 0 191 91" fill="none" xmlns="http://www.w3.org/2000/svg">
<path d="M8.19627 44.3308C8.23184 43.7961 8.39213 42.887 9.71823 42.3596C10.6344 41.9925 12.3242 41.9001 14.2759 41.3211C15.1155 41.0556 16.6322 40.1129 17.1527 39.9918C17.5074 39.8118 17.8977 39.5962 18.354 39.3395C25.1876 35.551 31.8607 31.6732 38.8477 28.6796C40.2094 28.1166 45.1038 25.6681 45.8011 27.5417C46.4252 29.1638 41.3512 34.9616 40.9734 35.4392C39.8506 36.8116 38.6619 38.2249 37.4179 39.6187C34.0567 43.529 28.2805 49.4799 22.9 55.1849C27.6997 51.109 34.7486 45.4328 36.604 43.9019C41.7387 39.5908 45.4905 36.9621 50.8784 33.0468C52.2294 32.0452 60.6136 26.9556 63.3925 26.8473C64.3657 26.8225 65.3907 27.1702 65.619 28.0401C65.8277 28.8548 65.2896 30.2415 65.2629 30.393C64.2222 32.6316 64.0868 33.0666 62.6789 35.2232C60.4424 38.5829 58.4643 41.8089 56.5717 44.5501C55.0319 46.7887 53.6401 48.8544 52.0381 51.7793C50.354 54.836 49.805 54.786 49.1121 58.0497C48.9269 58.9338 48.8379 60.2707 49.3514 60.8554C50.2392 61.8145 52.3871 61.289 53.6686 60.6814C55.9126 59.6104 58.6878 58.3577 61.0387 56.6807C63.2113 55.182 65.2342 53.5334 67.0735 52.0934C68.298 51.1436 67.8951 51.0972 69.1142 50.1776L70.0463 49.2205L70.123 49.1189C70.1746 48.9924 71.0106 48.5807 71.0961 48.595L71.5293 48.6361C71.7396 48.7751 71.7842 48.8553 71.7308 49.1584C71.476 49.9373 70.4279 50.3863 69.6135 51.1758C68.8809 51.8335 68.1235 52.4661 67.5745 52.9153C63.9208 55.8202 55.3374 63.2056 50.8563 64.1426C49.6995 64.3759 48.7102 63.9925 47.6424 63.8872C47.4214 63.8087 46.7903 63.3915 46.6815 62.6767C46.5976 61.9869 46.4513 60.9851 46.8361 59.8016C47.4437 58.0209 47.9265 56.6146 48.7908 54.8768C51.9841 48.5886 52.7932 47.3303 56.6799 41.2721C59.0198 37.6593 61.2581 34.1232 62.1078 30.3034C62.245 29.692 62.1112 29.4513 61.5979 29.3657C60.8225 29.2676 59.4892 29.5027 58.2772 30.2155C55.6607 31.7338 53.1083 32.8885 50.6042 34.7686C44.8652 39.0101 41.7015 40.8011 36.2156 45.4384C34.2836 47.0708 26.4987 54.2567 21.7115 58.5946C19.056 61.0006 15.1637 65.5918 14.0694 66.6362C13.1176 67.538 12.0199 69.4344 11.1235 70.8549L10.0543 72.9225C9.61772 73.7334 9.20249 74.4232 9.09556 74.5301C8.3274 75.2234 7.61092 75.7902 6.84269 75.9843C6.55036 75.9772 5.99417 75.6348 5.92105 75.3835C5.70169 74.6295 6.28605 72.6474 6.89019 71.7188C7.49966 70.7599 8.40322 69.6317 9.40303 68.4572C10.2906 67.4199 11.1478 66.388 12.0852 65.4006C12.9781 64.333 13.9209 63.3153 14.8441 62.2424C19.4831 56.5801 31.2637 44.5499 36.0578 39.0071C37.0933 37.7969 38.2677 36.298 39.2657 34.8008C40.2227 33.3696 41.0888 31.9544 41.372 30.8475C41.4825 30.3877 41.8246 29.4466 41.37 29.5267C40.764 29.6336 39.814 29.8598 39.5056 29.9435C37.2865 30.5403 36.2491 30.9288 34.2832 31.9213C31.0909 33.5412 28.2945 35.4142 25.473 37.2622C23.6408 38.4954 21.8692 39.718 19.8462 40.8674L15.7646 43.2018C15.1515 43.5155 12.8754 44.7682 11.6349 45.3099C9.87743 46.1189 8.15374 46.0705 8.19627 44.3308ZM76.348 48.3442C75.6333 48.7345 74.2145 49.4544 73.5977 49.1228C73.3607 49.1352 73.2252 49.071 73.1913 48.9302L72.7029 49.3686C72.4944 49.5522 72.081 50.0655 71.8404 50.4309C71.6051 50.7659 71.5873 51.0333 71.5713 51.1242C71.5232 51.3969 71.8298 51.4897 72.1061 51.5877C72.468 51.7001 73.1614 51.9301 76.0276 51.1605C76.9776 50.9343 78.0578 50.8025 80.5478 49.835C83.0022 48.9031 84.371 48.1333 86.321 47.2316C87.2175 46.8093 88.0124 46.4636 88.9749 46.0003C90.3777 45.3713 91.1494 44.8242 91.2866 44.7119C91.6324 44.4161 92.3953 44.2522 92.0817 44.8653C91.866 45.2557 90.9339 45.7136 90.0516 46.2215C88.6418 47.0573 87.0448 47.9554 86.437 48.2388C84.7901 49.087 83.2554 49.798 81.4321 50.648C79.5997 51.3821 78.3378 52.045 76.7444 52.5902C76.2132 52.7719 75.2061 53.155 74.5591 53.3278C72.3097 53.93 71.3097 54.1063 70.472 54.1953C69.9319 54.2612 69.7055 54.213 69.3383 54.131C68.9408 54.0543 68.9372 53.9081 68.6662 53.7797C68.1796 53.5426 68.0137 52.9846 68.1366 52.2877C68.2061 51.8938 68.2826 51.2931 68.7121 50.6889C68.9723 50.3787 69.4838 49.6426 70.2626 48.8888C70.9345 48.2418 71.8702 47.4309 72.7133 46.8125C73.993 45.8822 74.3993 45.5757 75.0641 45.1355C75.663 44.7363 76.4633 44.3603 78.0407 43.4069C80.8657 41.7051 82.1312 41.1883 83.6944 40.6484L84.9189 40.1977C85.6318 39.9839 88.2485 39.4638 88.156 40.6545C88.1115 41.0733 87.9012 41.4334 87.1687 42.091C86.5787 42.6061 86.1563 43.0035 85.2634 43.572C83.9035 44.4577 81.4099 45.7782 79.0537 46.9863C78.699 47.1663 78.2177 47.398 77.6153 47.651C77.1893 47.9023 76.733 48.1589 76.348 48.3442ZM75.8451 46.7007C75.6116 46.8593 75.3478 47.0232 75.109 47.2121L75.2302 47.1908C75.4726 47.148 75.9325 47.0376 76.4227 46.9218C76.7916 46.8274 76.8166 46.8523 77.0946 46.7739L77.7827 46.5352L78.517 46.2002C78.9626 46.0042 79.3476 45.8188 79.6417 45.6496C81.0765 44.8387 83.3739 43.4648 84.167 42.7964C84.6144 42.424 84.3131 42.3009 84.2882 42.276C83.921 42.1939 83.6482 42.242 83.6179 42.2473C83.0618 42.4041 82.5164 42.5003 81.0816 43.3111C80.8178 43.4751 80.2849 43.8333 79.9552 44.0382L78.7075 44.7867C77.688 45.4068 76.6881 46.0823 75.8451 46.7007ZM107.617 37.2817C107.754 38.6668 106.155 40.2405 105.166 39.358C104.924 38.9016 103.382 38.8212 102.728 39.2008C102.428 39.4004 101.442 39.6622 100.443 40.3377C98.9097 41.3713 96.6337 43.1232 95.4663 43.9162C93.3952 45.3383 91.7895 47.1188 91.7842 47.6482C92.0944 47.8871 92.8181 47.6127 93.2137 47.3668C95.0032 46.376 96.8729 45.4297 98.4753 44.5013C99.4841 43.9417 100.548 43.4018 101.634 42.7407C103.418 41.7802 107.679 39.091 108.619 38.9253C109.043 38.8505 109.715 39.2018 109.629 39.6866C109.316 41.298 106.659 43.8804 106.466 44.9713C106.391 45.3955 106.677 45.6095 107.555 45.4545C107.889 45.3957 108.324 45.2603 108.85 45.1089C111.213 44.193 114.455 42.6231 116.248 41.2794C117.027 41.0246 117.022 41.554 116.341 42.0851C114.309 43.6177 107.344 48.9856 104.716 47.5699C104.124 47.2632 104.087 46.4771 104.333 45.5824C104.662 44.3792 105.468 42.9747 105.837 42.3812C106.177 41.6166 105.029 41.9658 104.694 42.201C104.232 42.4879 103.22 42.9013 102.008 43.6141C101.42 43.9527 100.789 44.5337 100.201 44.8723C98.4059 45.8934 95.9802 47.4955 94.0945 48.5327C92.0768 49.6518 90.5885 50.2665 89.8256 50.4304C89.4014 50.5052 88.938 50.4695 88.5244 50.4837C87.9772 50.2572 87.8131 50.0219 87.8131 49.5228C87.8308 49.2554 88.0429 48.7189 88.2639 48.2983C88.6434 47.6442 89.5113 46.5516 90.6163 45.4466C91.7516 44.3363 93.1436 43.2688 94.6728 42.089C96.1504 41.0358 98.3622 39.6475 100.141 38.7173C101.824 37.8334 102.774 37.6072 103.397 37.233C104.011 36.9193 105.314 36.6896 105.773 36.5792C106.481 36.3957 106.854 36.4474 107.223 36.8521L107.617 37.2817ZM120.366 39.0265C120.015 39.3527 119.572 39.8713 119.188 40.3793C119.142 40.9746 119.164 41.8516 118.811 42.3542C117.708 43.7818 116.797 44.6177 115.393 45.9223C114.286 46.7046 113.451 46.4407 113.608 45.3855C113.849 44.521 114.601 43.4195 115.255 42.5408C118.375 38.4968 122.566 35.3798 127.011 32.9812C128.88 32.035 131.6 30.7627 133.014 31.0713C133.075 31.0606 133.13 31.0802 133.19 31.0695C133.477 31.107 133.889 31.2693 134.067 31.5901C134.267 31.7898 134.349 32.157 134.317 32.3388C134.189 33.0661 132.715 34.7646 131.9 35.055C131.405 35.2011 130.997 35.185 130.827 34.98C130.678 34.8302 131.064 33.9693 130.489 34.0709C129.767 34.1688 129.23 33.8817 128.786 33.9013C128.417 33.9957 128.043 34.1204 127.699 34.2398C127.168 34.4215 126.683 34.507 126.309 34.6317C125.286 35.1057 124.229 35.938 123.259 36.6081C122.259 37.2835 121.299 38.0694 120.366 39.0265ZM135.765 34.4323C138.061 30.7392 141.204 26.3975 143.794 22.5352C143.851 22.3784 143.908 22.2215 144.031 22.0237C144.46 21.4195 144.938 20.5426 145.21 19.9954C145.333 19.2984 145.905 18.5516 146.094 17.8137C146.262 17.197 147.087 16.3469 147.49 15.8942C147.928 15.4058 148.643 15.0156 149.067 14.9408C149.309 14.898 149.536 14.9462 149.696 15.0353C149.721 15.0603 149.752 15.0549 149.782 15.0496C150.017 15.2136 150.019 15.5363 149.96 15.8696C149.928 16.0514 149.893 16.087 149.893 16.087C149.855 16.2991 149.757 16.5219 149.72 16.7341C149.451 17.4274 148.953 18.2491 148.34 19.0618C147.309 20.4181 146.802 21.623 145.876 22.5498C143.222 26.2766 139.228 30.9444 137.006 34.3897C136.765 34.755 136.494 35.1258 136.249 35.5214C137.537 34.707 139.211 33.7073 140.084 33.0835C143.364 30.8024 147.632 28.9047 151.238 28.2689C151.36 28.2475 151.45 28.2315 151.531 28.276C152.525 28.6291 153.438 29.1141 153.198 30.4777C153.101 31.0231 152.848 31.6256 152.537 32.0622C152.143 32.6308 151.364 33.3847 150.327 34.2722C152.382 33.4401 153.931 32.8147 155.415 32.5528C156.718 32.3231 156.963 32.1039 157.447 32.0184C157.629 31.9863 158.588 31.876 158.46 32.6032L158.31 32.9526C158.141 33.2466 157.907 33.4052 157.665 33.448C157.362 33.5014 157.207 33.382 157.189 33.1502C156.902 33.1128 156.585 33.0806 156.282 33.1341C156.191 33.1501 156.095 33.1964 156.034 33.2071C154.906 33.6116 155.02 33.797 153.893 34.025C152.979 34.2156 151.443 35.103 150.056 35.6411C148.609 36.1899 146.616 37.334 144.684 38.4674C141.258 40.7449 137.638 42.7925 135.972 43.0863L135.881 43.1024C135.628 43.2057 135.405 43.3037 135.223 43.3358C134.556 43.4533 134.43 43.0059 134.408 42.628C134.595 42.0665 135.084 41.6281 136.875 40.4608C138.235 39.5751 139.903 38.6057 141.546 37.6113C143.19 36.6169 150.982 31.2207 151.174 30.1298C151.239 29.7662 150.574 29.7072 149.453 29.9049C147.574 30.2362 144.091 32.1715 140.32 34.7449C139.65 35.2153 137.972 36.568 136.67 37.796C135.967 38.4483 135.7 38.9652 135.297 39.4178C134.64 40.1504 133.953 40.7117 133.408 40.8079C132.56 40.9575 132.116 40.478 132.233 39.8113C132.506 38.2659 135.028 35.6193 135.765 34.4323ZM184.364 30.2963L183.612 30.8987C183.079 31.2569 182.61 31.2515 181.812 31.451C180.879 31.9089 181.387 31.5258 180.541 31.998L180.216 32.1727C178.958 32.9817 177.639 33.8015 176.31 34.6818C175.964 34.9777 175.862 35.0543 175.771 35.0704C174.868 35.6994 173.953 36.3891 173.048 37.1947C170.639 41.2014 168.197 44.3917 165.105 48.1078C163.243 50.3446 161.312 52.7988 155.7 58.985C155.298 59.4377 151.145 63.8399 149.756 63.5563C148.227 63.2387 150.633 59.585 151.47 58.4978C152.354 57.3143 155.391 53.5786 156.416 52.4291C159.706 48.59 165.393 42.9778 170.69 38.0802C171.887 36.2837 173.172 34.3249 174.103 32.5461C174.621 31.6032 175.049 30.1773 175.303 29.3984C175.599 28.5535 175.524 28.4786 175.262 27.967C175.039 27.5659 175.03 27.45 174.414 27.6175C174.014 27.7173 173.621 27.7867 173.145 27.9881C172.319 28.3391 171.432 28.8773 171.264 28.9949C170.264 29.6703 168.452 30.9588 166.664 32.2723C165.384 33.2025 163.591 34.5463 162.485 35.3286C161.109 36.3052 159.856 37.084 159.03 37.435C157.79 37.9767 156.255 38.6877 155.496 37.9996C154.961 37.536 154.904 36.6947 155.205 35.8195C155.511 34.9141 156.153 33.7733 157.058 32.4687C157.493 31.8342 158.99 29.838 159.42 29.2338C160.018 28.3355 160.403 28.1502 160.954 27.5246C161.59 26.9133 162.318 26.7851 162.779 26.9972C163.02 27.131 163.088 27.4126 163.13 27.6693C163.143 27.9313 162.74 28.8831 162.53 29.2432C162.311 29.4873 162.031 29.7422 161.598 30.2002C160.935 30.963 159.967 31.4567 159.666 31.8327C159.156 32.3924 158.385 33.4386 158.033 34.2638C157.796 34.7754 157.834 35.0623 157.927 35.369C157.98 35.565 158.404 35.4902 158.658 35.3869C159.037 35.2319 159.474 34.92 160.046 34.6723C163.251 33.3145 168.083 29.5559 172.734 26.6511C173.861 25.924 176.041 24.7176 177.157 24.5502C177.793 24.438 178.673 24.6057 178.752 25.3258C178.864 26.1868 178.428 26.9978 177.881 28.2686C177.277 29.6963 176.113 31.6337 175.496 32.7994C175.142 33.4785 174.495 34.6495 174.146 35.2983C174.557 34.9614 174.994 34.6496 175.431 34.3377C175.878 33.9652 176.356 33.5874 176.873 33.3201C177.441 32.9262 177.914 32.5787 178.441 32.2508C179.015 31.8267 179.619 31.3972 180.213 31.0283C181.369 30.2959 181.671 29.9198 183.009 29.1553C183.157 28.9824 183.79 28.724 184.007 28.6563C184.382 28.5316 184.685 28.4782 184.77 28.4925C185.642 28.5443 185.063 29.4978 184.364 30.2963ZM161.268 50.7222C164.435 47.081 166.331 44.4859 168.628 41.1155C168.068 41.6253 167.534 42.1599 167.029 42.6893C165.593 44.1757 164.178 46.0399 162.65 47.5424C159.84 50.328 156.917 54.2491 154.766 57.623L155.443 56.9458C156.381 55.9584 157.832 54.5576 159.059 53.2548C160.074 52.1658 160.9 51.1392 161.268 50.7222Z" fill="#D4C7B9"/>
</svg>
