<svg width="472" height="147" viewBox="0 0 472 147" fill="none" xmlns="http://www.w3.org/2000/svg">
<path d="M46.7613 109.184L45.5129 110.769C40.9015 116.691 34.9749 124.077 32.577 127.186C31.2511 128.962 29.3665 132.157 26.8082 135.426C25.9662 136.455 24.9957 137.463 24.0253 138.471C22.1914 140.38 20.2986 142.123 18.8657 143.256C17.9994 143.673 17.4941 143.542 17.3576 142.818C17.2184 141.609 18.7634 139.091 20.5197 136.623C22.0381 134.506 23.7757 132.394 24.7702 131.249C29.9885 125.133 38.7703 115.041 44.3522 108.86C47.3194 104.769 50.2946 99.8847 53.0799 95.0777C55.6113 90.7118 57.0038 86.811 58.2303 82.1027C58.7754 79.7606 57.6012 76.9289 55.243 76.8163C53.2777 76.7224 50.866 76.6632 48.2619 77.6949C44.0483 79.3627 40.078 80.8995 35.2604 83.995C33.159 85.4225 31.1753 87.1815 29.1943 88.6759C27.1144 90.2317 25.2216 91.9747 23.0507 93.5465C23.0507 93.5465 21.1045 95.343 19.955 96.8669C18.4607 98.8479 17.7551 100.602 17.7551 100.602C16.5976 102.171 15.8891 102.692 10.9027 103.748C7.64604 103.485 11.4395 99.2052 13.4445 97.5745C16.0297 95.4011 19.516 93.1129 22.9032 90.1375C24.7719 88.5308 27.8999 86.526 30.5788 84.8205C34.4981 82.3238 38.5726 80.1961 42.5616 78.3037C44.4839 77.3922 46.3447 76.5797 48.1975 75.8126C50.4674 74.9279 53.7452 73.8214 56.6355 73.6641C59.352 73.4934 62.2077 73.7826 63.0315 76.1035C63.3071 77.2881 63.0399 78.304 62.8128 79.8414C62.4629 82.3253 60.7415 85.8437 59.4265 88.806C58.6781 90.3032 57.6169 92.0758 56.823 93.581C55.5078 95.7946 54.4734 97.9148 53.0219 100.152C56.2379 96.899 59.3336 93.5787 62.916 90.745C63.9908 89.8949 64.9157 88.8951 65.953 88.0075C70.1797 84.2676 74.5026 80.7308 78.8389 77.3679C79.8602 76.5713 84.1591 73.1709 88.1934 70.5218C91.9229 68.1026 95.3959 66.3892 96.8958 66.1248C99.9866 65.5798 99.9842 67.3418 99.9148 68.2348C99.6796 69.069 99.5728 69.9246 99.1024 70.8443C98.6774 71.7559 97.8808 72.7772 97.3354 73.622C94.9991 77.381 94.1196 78.3728 92.8391 80.14L86.533 88.4304L80.8632 96.6085C78.3022 100.143 75.9284 103.116 74.2523 105.877C73.568 107.011 71.0393 111.112 70.1811 112.232C69.9272 112.674 69.0826 114.716 68.7593 116.05C68.5135 117.195 69.0347 116.486 69.4278 116.505C69.901 116.069 79.3513 106.432 82.4043 103.603C89.3043 97.19 90.0795 96.0404 99.1637 87.4804C102.957 83.9489 104.946 82.4091 108.366 79.2519C111.517 76.3621 114.897 73.4321 117.239 72.1384C117.977 71.7 118.952 70.9114 119.864 70.4864C120.974 69.9384 121.974 69.7621 122.329 69.7434C124.236 69.6715 124.77 70.6342 124.332 72.8694C124.038 74.2864 123.571 74.9414 120.991 78.8313C119.339 81.4567 116.917 84.7023 114.792 87.7634C111.477 92.5757 108.403 98.2704 106.537 101.858C104.912 104.831 103.314 109.649 103.135 110.914C103.015 113.093 103.609 113.473 104.333 113.609C104.681 113.636 105.165 113.639 105.603 113.649C108.143 113.73 111.681 112.402 117.653 108.75C120.172 107.205 124.789 103.749 126.422 102.228C127.895 100.867 128.077 100.835 128.89 99.7226C129.333 99.2039 130.486 98.164 131.331 98.3673C132.266 98.5546 131.646 99.3246 131.315 99.9555C129.885 101.573 128.847 102.46 126.243 104.241C122.998 106.663 120.094 108.892 116.327 111.274C110.97 114.685 106.064 117.532 103.96 117.727C100.69 118.039 99.0879 117.132 99.3788 113.734C99.6402 109.504 106.047 97.1444 112.049 88.3352C113.062 86.8354 115.868 81.4081 117.25 78.5661C118.173 77.0823 118.239 75.7053 117.672 75.6731C116.402 75.6328 112.812 78.512 109.868 80.9687C104.348 85.5534 102.615 86.3873 97.7284 91.1245C95.8731 92.9049 93.3467 95.2441 89.0613 99.5669C82.4608 106.28 75.2777 114.549 72.6685 117.607C69.4766 121.473 69.3002 121.724 67.4502 122.975C66.4449 123.681 64.9317 124.52 64.1215 123.87C62.2149 122.445 64.9252 116.814 68.0101 112.307C68.9537 110.951 70.1699 108.799 72.0037 106.142C73.4526 104.169 74.0407 102.832 75.1153 101.233C77.9087 97.1295 81.2743 92.5285 83.6695 88.9353C86.1796 85.1897 87.3852 83.3477 89.2002 80.2972C90.4699 78.0915 91.2424 76.458 91.9053 75.1961C92.2287 74.6106 93.052 73.1882 93.7684 71.8729C94.0089 71.2579 93.6079 71.2846 93.688 70.8301C92.5784 70.6294 90.6587 71.2762 89.4182 72.0674C86.6939 73.7809 83.6461 75.3312 80.8416 77.4992C77.1763 80.3034 74.0698 83.1853 70.851 85.9548C68.4557 88.0507 65.6111 90.446 63.6703 92.4617C62.3176 93.8893 60.7697 95.1751 59.3421 96.5278C55.0513 100.631 50.8648 104.893 46.7613 109.184ZM129.787 98.6396C131.313 96.4767 133.489 94.3755 135.935 92.4909C137.315 91.4109 138.807 90.4432 140.29 89.521C140.282 88.8178 141.924 87.2512 143.033 86.7032C143.512 86.4867 145.779 85.8667 146.341 85.6797C146.621 85.5861 146.811 85.5086 146.993 85.4766C147.608 85.236 148.07 85.1104 148.351 85.0169C153.733 83.7155 160.348 83.1657 165.516 82.8269C168.233 82.6562 168.92 82.7552 171.054 83.3919C172.193 83.6755 172.784 85.0686 170.915 85.9266C170.065 86.2527 169.939 85.9666 169.348 86.0708C168.364 86.1562 167.747 85.1641 167.92 84.4289C167.883 84.3914 167.837 84.3994 167.792 84.4075C166.968 84.3325 166.214 84.1131 165.375 84.129C164.225 84.1556 163.019 84.5003 161.747 84.7247C159.966 85.0828 158.134 85.2295 156.271 85.5581C157.121 85.9807 157.522 86.7027 157.4 87.6492C156.895 90.5127 152.908 93.6377 149.962 95.6105C148.912 96.3243 147.837 97.1744 146.703 97.8587C145.965 98.2971 144.757 98.9065 143.982 99.3074C141.837 100.478 140.076 101.229 138.025 102.119C136.453 102.793 133.734 103.977 131.491 104.461C130.301 104.714 129.234 104.77 128.624 104.482C127.442 103.941 127.4 102.936 127.819 101.805C128.231 100.72 129.089 99.5994 129.787 98.6396ZM155.424 87.8655C155.8 86.4778 152.643 86.9025 150.317 87.3567C148.114 88.3617 145.395 90.2944 144.234 90.6311C143.908 90.7327 142.788 90.8422 141.919 90.7752C141.058 91.4114 140.197 92.0476 139.267 92.8282C138.435 93.5474 137.682 94.0766 136.978 94.8172C136.436 95.3973 135.832 96.0763 135.265 96.7928C134.415 97.8675 133.693 98.9637 133.46 99.5332C133.305 99.9128 133.249 100.231 133.346 100.434C133.538 100.841 134.819 100.571 136.359 100.079C137.527 99.6969 138.725 99.3976 139.917 98.879C141.011 98.422 143.361 97.0828 143.848 96.8208C145.823 95.8559 146.879 95.3614 148.994 94.1077C150.029 93.4849 151.462 92.3514 152.331 91.6698C153.863 90.4748 155.055 89.2076 155.424 87.8655ZM186.415 78.3052C187.222 78.4711 187.859 79.1076 187.61 79.768C187.089 81.2251 184.854 83.1605 183.434 82.9705C183.207 83.0106 181.202 82.3953 179.539 83.0849C178.998 83.4003 178.499 83.4885 177.822 83.8279C176.667 84.3839 174.801 85.7259 173.659 86.4556C170.684 88.3455 168.061 90.4815 167.013 91.6792C166.171 92.7084 164.538 94.2296 164.032 94.8471C162.977 96.0903 163.682 95.8337 163.902 95.8391C165.134 95.8419 166.511 95.0266 168.768 93.9682C171.823 92.3724 174.687 90.3702 176.042 89.4265C180.253 86.5261 180.349 86.7293 185.611 82.3665C187.632 80.6449 188.051 80.2627 188.952 79.3992C190.227 78.1614 192.056 76.0334 194.62 72.983C197.456 69.1359 200.504 65.3396 203.415 61.5674C205.529 58.8164 208.245 54.9024 210.991 52.5686C212.055 52.0287 212.916 52.1411 213.312 52.6438C214.306 52.9969 213.641 55.2722 212.4 56.8121C212.315 57.0474 211.727 57.6355 211.628 57.697L210.858 58.3172C208.594 60.1698 207.949 61.0761 206.27 62.6052L205.934 63.0169C200.881 69.1925 195.949 74.6864 191.739 81.33C190.309 83.6961 186.315 88.3639 187.951 91.07C188.54 91.9791 190.866 91.5249 192.042 91.0973C194.136 90.4639 198.689 88.8684 201.611 87.0319C203.041 86.1632 203.405 86.0991 205.394 84.5593C206.322 84.0434 206.439 84.375 205.827 85.0994C204.809 86.38 203.082 87.4332 200.742 89.2109C196.743 92.1622 189.928 96.0943 187.375 95.8399C184.957 95.5614 184.051 93.2111 184.994 89.6097C185.341 88.1391 185.951 86.9307 186.654 85.4415C187.242 84.1047 187.819 83.0781 188.479 82.0809C187.731 82.8294 186.891 83.594 185.953 84.42C182.582 87.3045 183.416 86.3207 177.657 90.507C175.77 91.7206 173.016 94.0998 170.909 95.308C168.134 96.8103 163.699 99.486 160.929 99.7102C158.606 99.8997 157.541 98.1937 159.009 95.8651C160.038 94.2743 162.89 91.085 165.32 89.2912C167.499 87.6739 169.51 86.2625 171.397 85.0489C172.683 84.2496 177.244 81.86 180.602 80.299C182.92 79.1416 185.123 78.1366 186.415 78.3052ZM214.523 83.522C213.451 84.1074 211.323 85.1873 210.398 84.6899C210.042 84.7085 209.839 84.6122 209.788 84.401L209.056 85.0586C208.743 85.334 208.123 86.1039 207.762 86.652C207.409 87.1546 207.382 87.5557 207.358 87.692C207.286 88.1011 207.746 88.2402 208.161 88.3873C208.703 88.5559 209.744 88.9009 214.043 87.7465C215.468 87.4071 217.088 87.2095 220.823 85.7582C224.505 84.3604 226.558 83.2056 229.483 81.8531C230.828 81.2197 232.02 80.7011 233.464 80.0062C235.568 79.0627 236.726 78.242 236.931 78.0736C237.45 77.6298 238.594 77.384 238.124 78.3037C237.8 78.8892 236.402 79.5761 235.079 80.338C232.964 81.5916 230.569 82.9389 229.657 83.3638C227.187 84.6362 224.885 85.7027 222.149 86.9777C219.401 88.0788 217.508 89.0732 215.118 89.891C214.321 90.1636 212.811 90.7382 211.84 90.9975C208.466 91.9007 206.966 92.1652 205.709 92.2987C204.899 92.3975 204.56 92.3252 204.009 92.2022C203.413 92.0871 203.407 91.8678 203.001 91.6753C202.271 91.3196 202.022 90.4826 202.206 89.4372C202.31 88.8463 202.425 87.9453 203.07 87.039C203.46 86.5738 204.227 85.4697 205.395 84.3388C206.403 83.3684 207.807 82.1521 209.071 81.2245C210.991 79.829 211.6 79.3693 212.598 78.709C213.496 78.1102 214.696 77.5462 217.062 76.1161C221.3 73.5633 223.198 72.7882 225.543 71.9784L227.38 71.3022C228.449 70.9815 232.374 70.2013 232.235 71.9874C232.169 72.6157 231.853 73.1558 230.754 74.1422C229.87 74.9148 229.236 75.511 227.896 76.3637C225.857 77.6922 222.116 79.6729 218.582 81.4852C218.05 81.7552 217.328 82.1027 216.424 82.4822C215.785 82.8591 215.101 83.244 214.523 83.522ZM213.769 81.0567C213.419 81.2946 213.023 81.5406 212.665 81.8239L212.847 81.7919C213.21 81.7277 213.9 81.5621 214.635 81.3884C215.189 81.2468 215.226 81.2842 215.643 81.1666L216.675 80.8085L217.777 80.306C218.445 80.012 219.023 79.734 219.464 79.48C221.616 78.2638 225.062 76.2028 226.252 75.2004C226.923 74.6417 226.471 74.4571 226.434 74.4197C225.883 74.2966 225.474 74.3687 225.428 74.3767C224.594 74.6119 223.776 74.7562 221.624 75.9724C221.228 76.2183 220.429 76.7556 219.934 77.063L218.063 78.1857C216.533 79.116 215.034 80.1291 213.769 81.0567ZM232.999 84.5361C233.608 82.579 236.37 77.9084 238.38 74.9996C241.395 70.6365 245.573 64.1747 250.775 57.4001L252.591 55.0983C253.395 54.0316 252.647 54.7801 254.178 52.8365C254.884 51.8313 255.937 50.1042 257.087 48.5804C257.886 47.2944 258.945 45.7866 259.974 44.9445C260.19 44.4659 260.383 44.1237 260.712 43.7574C261.033 43.4366 261.573 43.1212 262.142 42.8887C262.567 42.7256 263.487 43.0038 263.821 43.6055C263.851 43.6884 263.835 43.7793 263.872 43.8167C264.284 44.2285 264.233 44.766 263.854 45.6696C263.715 45.9584 263.795 46.2525 263.549 46.6482C263.204 47.1053 262.707 47.6775 262.234 48.1132L258.304 52.4174L258.09 52.6312C256.368 54.6523 254.663 56.5825 254.005 57.3151C251.634 60.0232 249.183 63.1859 246.868 66.3246C243.51 70.8801 240.153 75.4357 238.068 79.0182C237.183 80.5395 236.603 81.8308 236.464 82.8682C236.362 83.9431 237.975 83.7909 238.801 83.6012C240.271 83.2538 242.298 82.5001 242.777 82.2836C246.295 80.5622 248.033 79.9475 251.062 78.0041C253.292 76.5981 255.564 75.4487 257.946 73.9277C259.08 73.2434 259.665 73.6686 258.599 74.4732C256.564 76.021 252.792 78.9322 248.857 81.5198C244.464 84.4523 239.865 86.8045 237.205 87.4057C234.499 88.0149 232.09 87.691 232.999 84.5361ZM299.003 63.6055L298.957 63.6135C298.904 63.667 298.821 63.6376 298.722 63.6991C297.658 64.239 295.434 64.367 294.722 63.6557C293.714 63.8775 292.752 64.0912 292.174 64.3692L291.011 64.9706C290.038 65.4945 287.498 66.1626 286.471 66.74C285.202 67.4483 283.937 68.3759 282.763 69.2875C281.635 70.1911 280.903 70.8487 280.01 71.6668C279.742 71.9341 279.114 72.7495 278.874 73.3644C278.641 73.9339 278.499 74.4873 278.473 74.8884C278.286 75.4499 279.97 75.6373 280.636 75.608C281.74 75.5894 285.031 74.6568 285.593 74.4697C290.135 73.1843 296.624 70.1024 301.509 67.8759C304.206 66.5635 304.816 66.1037 307.431 64.7618C308.738 64.0909 309.626 64.5509 308.254 65.5855C306.632 66.7964 304.086 67.9939 301.913 69.0818C299.199 70.4851 295.06 72.9765 291.66 74.2807C288.721 75.4594 281.615 78.2979 278.674 78.9926C277.431 79.2999 273.361 80.1496 273.489 77.9251C273.548 77.3422 273.623 76.6684 273.882 75.6979C274.125 74.8182 274.486 74.2702 274.999 73.6072C275.566 72.8907 276.689 71.7679 277.499 70.9204C279.905 68.5144 283.233 66.1219 286.474 64.2293C290.056 62.1443 296.345 59.4501 299.328 58.2634C300.232 57.8839 301.039 58.0498 301.842 57.9964C302.703 58.1088 303.002 58.4083 302.978 59.2933L302.655 60.6275L302.553 60.9537C302.096 61.2985 301.676 61.6808 301.182 61.9882C300.532 62.6753 299.687 63.2206 299.003 63.6055ZM304.859 67.7695C306.386 65.6067 308.562 63.5055 311.008 61.6208C312.387 60.5408 313.879 59.5731 315.363 58.6509C315.355 57.9477 316.996 56.3811 318.106 55.8332C318.585 55.6167 320.852 54.9967 321.413 54.8096C321.694 54.7161 321.884 54.6386 322.066 54.6065C322.681 54.366 323.143 54.2404 323.424 54.1468C328.806 52.8455 335.421 52.2957 340.589 51.9569C343.306 51.7862 343.993 51.8852 346.126 52.5219C347.265 52.8055 347.857 54.1986 345.988 55.0566C345.138 55.3827 345.012 55.0965 344.421 55.2007C343.437 55.2861 342.819 54.2941 342.993 53.5588C342.956 53.5214 342.91 53.5294 342.865 53.5374C342.041 53.4624 341.287 53.2431 340.447 53.259C339.298 53.2856 338.092 53.6303 336.819 53.8547C335.039 54.2127 333.207 54.3595 331.344 54.6881C332.194 55.1107 332.595 55.8327 332.472 56.7791C331.967 59.6427 327.981 62.7677 325.035 64.7405C323.984 65.4542 322.91 66.3043 321.776 66.9886C321.038 67.427 319.83 68.0365 319.054 68.4374C316.91 69.6082 315.148 70.3593 313.098 71.2493C311.526 71.9229 308.807 73.1069 306.563 73.5906C305.374 73.8444 304.307 73.9004 303.697 73.6115C302.515 73.0713 302.472 72.0659 302.892 70.935C303.303 69.8495 304.162 68.7293 304.859 67.7695ZM330.496 56.9954C330.873 55.6078 327.715 56.0325 325.389 56.4867C323.186 57.4917 320.467 59.4244 319.307 59.7611C318.981 59.8627 317.861 59.9721 316.992 59.9052C316.131 60.5414 315.27 61.1776 314.34 61.9582C313.508 62.6773 312.754 63.2066 312.051 63.9471C311.508 64.5273 310.904 65.2063 310.338 65.9228C309.487 66.9975 308.766 68.0936 308.533 68.6631C308.378 69.0428 308.322 69.3609 308.418 69.5642C308.611 69.9706 309.892 69.7007 311.432 69.209C312.6 68.8268 313.798 68.5275 314.99 68.009C316.084 67.552 318.434 66.2128 318.92 65.9508C320.896 64.9859 321.952 64.4914 324.067 63.2377C325.102 62.6149 326.534 61.4814 327.403 60.7997C328.935 59.6048 330.128 58.3376 330.496 56.9954ZM336.138 65.1167C336.857 62.788 339.557 59.7136 340.907 57.802C340.969 57.7031 340.993 57.5668 341.161 57.3609C341.145 56.7032 341.281 55.9305 341.511 55.6257C342.637 54.2382 343.324 53.5886 344.877 52.522C344.877 52.522 344.923 52.514 344.976 52.4605C345.243 52.1931 345.503 51.9713 345.701 51.8483C346.727 51.2709 347.593 50.8539 348.347 51.0733C349.147 51.2846 349.532 52.0975 348.802 53.2391C348.174 54.0545 348.169 53.8353 347.404 54.6747C347.022 55.0944 346.276 55.5783 345.803 56.014C344.864 56.8401 343.779 58.0003 343.113 58.7783C342.378 59.7006 342.461 59.7301 341.846 60.7193C341.264 61.5266 341.138 61.9892 341.012 62.4517C340.756 63.1576 340.751 63.687 341.606 63.5801C342.053 63.5454 342.558 63.6765 343.355 63.4039C345.175 62.8186 346.379 61.99 348.729 60.6508C352.554 58.4348 353.95 57.2639 359.532 53.3289C360.43 52.7302 361.636 51.6368 363.291 50.244C364.061 49.6238 364.62 48.9528 365.259 48.5758C365.884 48.0251 368.224 47.7447 368.724 48.4052C369.644 49.4321 369.088 50.5871 368.604 51.333C367.871 51.9906 367.601 52.5227 366.813 53.4985C365.342 55.3431 363.642 58.2412 363.461 59.0219C363.231 60.0754 363.758 60.3348 364.589 60.3643C364.937 60.3911 365.202 60.3885 365.747 60.2923C366.429 60.1721 367.111 60.0519 367.346 59.9664C369.167 59.3811 370.177 58.8946 372.025 57.9083C373.431 57.1759 377.508 54.7835 378.855 53.8853C379.297 53.6313 379.954 52.8988 380.334 52.7438L380.815 53.0112C381.136 53.4391 380.973 53.8642 380.393 54.4069C378.762 55.6633 374.426 58.2776 372.493 59.4992C369.068 61.6885 365.504 64.1666 362.879 64.3212C360.836 64.4172 359.63 62.516 360.338 59.7487C360.827 57.7248 361.797 55.9683 362.778 53.9016C362.995 53.423 362.404 53.5272 362.115 53.6662C361.067 54.1153 360.19 54.8424 358.575 56.0079C356.153 57.7562 352.707 60.5658 349.154 62.7337C346.24 64.5247 342.572 66.8449 341.206 67.3501C340.12 67.7617 338.163 68.371 337.198 68.1008C335.735 67.6541 335.601 66.6648 336.138 65.1167ZM384.533 51.2107C384.006 51.6999 383.341 52.4778 382.766 53.2398C382.697 54.1328 382.729 55.4483 382.2 56.2022C380.545 58.3437 379.179 59.5974 377.072 61.5543C375.412 62.7279 374.16 62.332 374.396 60.7491C374.756 59.4524 375.884 57.8002 376.865 56.4822C381.546 50.4161 387.832 45.7406 394.499 42.1428C397.304 40.7234 401.384 38.815 403.504 39.2778C403.595 39.2618 403.678 39.2912 403.769 39.2752C404.199 39.3314 404.817 39.5748 405.084 40.0561C405.384 40.3556 405.507 40.9064 405.459 41.1792C405.267 42.27 403.056 44.8178 401.834 45.2534C401.091 45.4726 400.478 45.4484 400.224 45.1409C400 44.9163 400.58 43.6249 399.716 43.7772C398.633 43.9241 397.828 43.4935 397.163 43.5228C396.609 43.6644 396.048 43.8515 395.532 44.0306C394.735 44.3032 394.008 44.4314 393.446 44.6185C391.912 45.3295 390.326 46.5779 388.872 47.583C387.372 48.5962 385.931 49.7751 384.533 51.2107ZM404.246 47.0302L405.286 46.6266C406.532 46.0546 407.724 45.536 408.529 45.218C411.756 43.9003 414.06 43.3178 416.614 42.8235C416.715 42.4973 416.862 42.1631 416.993 41.9198C417.509 40.9921 417.429 40.698 418.103 39.8746C420.199 37.4792 424.102 34.3247 426.661 34.7984C427.129 34.892 427.714 35.3172 427.968 35.6248C427.992 36.2371 427.535 37.3306 427.059 38.031C426.231 39.2341 423.694 40.3861 422.913 39.8191L422.514 39.5811C422.191 39.418 420.739 39.4097 420.573 40.0995C420.408 40.7893 420.196 41.4872 420.159 42.1984C420.432 42.1503 420.713 42.0567 420.985 42.0087C426.592 40.932 427.311 40.8492 432.48 40.5104C433.199 40.4276 434.287 40.5 435.132 40.7033C435.683 40.8264 436.06 40.936 436.02 41.1633C436.212 41.5697 435.504 42.091 435.092 42.4278C434.483 42.8876 433.777 43.1442 433.212 42.8474C432.557 42.5665 432.531 42.2189 431.501 42.3123C430.988 42.2267 429.742 42.0501 428.175 42.1942C425.889 42.4211 423.116 42.91 422.162 43.0783L420.117 43.439C420.189 44.5272 420.406 45.5459 420.646 46.4283C420.983 47.5139 420.941 48.7545 419.837 50.2704C419.209 51.0858 418.254 52.0027 417.348 52.647C415.549 54.1093 412.736 55.5741 409.127 56.5628C406.108 57.4474 403.132 57.84 401.59 57.8478C400.229 57.8235 399.052 57.5025 398.081 57.0131C397.036 56.4487 396.37 55.7294 396.541 54.5102C396.712 53.291 397.877 51.6762 399.845 50.0081C401.019 49.0965 401.332 48.8211 402.922 47.792C403.561 47.4151 403.449 47.3028 404.246 47.0302ZM416.409 48.9811C416.133 47.7966 416.085 45.8234 416.336 44.1496C414.411 44.5772 412.47 45.0956 410.518 45.9242C408.855 46.6137 407.013 47.0707 405.425 47.8351C404.847 48.1131 403.789 48.8723 403.278 49.2706C402.516 49.8454 402.161 50.6127 401.645 51.5404C400.998 52.7114 401.535 53.4093 401.84 53.9281C402.316 54.7249 402.998 54.6047 403.549 54.7278C405.036 55.0382 406.747 55.5732 408.741 55.0013C410.236 54.5176 410.685 54.2182 411.853 53.836C412.725 53.6383 414.42 52.7669 415.102 51.898C415.661 51.227 416.757 50.5052 416.409 48.9811ZM441.241 43.5456C440.169 44.131 438.041 45.2109 437.115 44.7135C436.76 44.7321 436.557 44.6358 436.506 44.4246L435.773 45.0822C435.46 45.3576 434.84 46.1275 434.479 46.6756C434.126 47.1782 434.1 47.5793 434.076 47.7156C434.004 48.1247 434.464 48.2638 434.878 48.4109C435.421 48.5795 436.461 48.9245 440.76 47.7701C442.185 47.4307 443.805 47.2331 447.541 45.7818C451.222 44.384 453.275 43.2292 456.2 41.8768C457.545 41.2433 458.737 40.7247 460.181 40.0298C462.285 39.0863 463.443 38.2656 463.649 38.0972C464.167 37.6534 465.312 37.4076 464.841 38.3273C464.518 38.9128 463.12 39.5997 461.796 40.3616C459.681 41.6152 457.286 42.9625 456.374 43.3875C453.904 44.6598 451.602 45.7263 448.867 47.0013C446.118 48.1024 444.226 49.0968 441.835 49.9146C441.039 50.1872 439.528 50.7619 438.557 51.0211C435.183 51.9243 433.683 52.1888 432.427 52.3223C431.617 52.4211 431.277 52.3488 430.726 52.2258C430.13 52.1107 430.125 51.8915 429.718 51.6989C428.988 51.3432 428.739 50.5062 428.924 49.4608C429.028 48.87 429.143 47.9689 429.787 47.0626C430.177 46.5974 430.944 45.4933 432.113 44.3625C433.121 43.392 434.524 42.1757 435.789 41.2481C437.708 39.8527 438.318 39.3929 439.315 38.7326C440.213 38.1338 441.414 37.5698 443.78 36.1397C448.017 33.5869 449.916 32.8118 452.26 32.002L454.097 31.3258C455.167 31.0051 459.091 30.225 458.953 32.011C458.886 32.6393 458.571 33.1794 457.472 34.1658C456.587 34.9384 455.953 35.5346 454.614 36.3873C452.574 37.7159 448.834 39.6966 445.299 41.5088C444.767 41.7788 444.045 42.1263 443.142 42.5058C442.503 42.8827 441.818 43.2677 441.241 43.5456ZM440.486 41.0803C440.136 41.3182 439.741 41.5642 439.382 41.8475L439.564 41.8155C439.928 41.7514 440.618 41.5857 441.353 41.412C441.906 41.2704 441.944 41.3078 442.361 41.1902L443.393 40.8321L444.494 40.3296C445.163 40.0356 445.74 39.7576 446.181 39.5037C448.333 38.2874 451.78 36.2265 452.969 35.224C453.64 34.6653 453.188 34.4807 453.151 34.4433C452.6 34.3202 452.191 34.3923 452.146 34.4003C451.312 34.6355 450.493 34.7798 448.341 35.996C447.945 36.2419 447.146 36.7792 446.652 37.0866L444.78 38.2093C443.251 39.1396 441.751 40.1527 440.486 41.0803Z" fill="#6BC5F7"/>
</svg>
