<svg width="595" height="190" viewBox="0 0 595 190" fill="none" xmlns="http://www.w3.org/2000/svg">
<path d="M9.44014 160.618C9.61382 159.883 12.5091 156.95 14.0566 153.418C14.4897 152.461 16.1151 150.985 17.6655 148.686C23.6908 139.741 35.3784 125.657 41.0617 118.401C45.2507 113.127 45.2534 112.862 50.4342 106.708L51.188 105.43C52.1825 104.286 52.0782 104.128 53.134 102.136L54.0669 100.342C53.9626 100.184 54.3983 99.7111 54.8261 99.2834C50.46 100.317 46.1367 101.608 42.3669 102.757C41.0167 103.172 39.196 103.757 37.1774 104.465C35.6294 105.002 33.937 105.609 32.3809 106.192C31.103 106.946 30.0363 107.75 29.1059 108.531C27.0634 110.124 25.6492 111.651 24.6252 111.963C23.1307 112.447 21.2993 113.342 19.818 113.251C15.7592 113.042 21.975 108.511 23.4187 107.816C30.9475 104.331 33.6665 103.146 41.896 100.683C45.9466 99.4398 49.8287 98.403 53.7322 97.4945L56.5289 96.8692C57.7132 95.6475 59.5472 94.4874 60.6541 94.2041C62.4428 93.8006 63.0471 93.8702 62.4083 95.7444C73.9079 93.7168 87.5599 92.7188 91.1116 99.0508C93.6764 103.487 82.5574 111.349 77.7986 114.61C68.8291 120.772 57.4985 126.337 51.4457 130.443C45.3315 134.648 49.334 134.426 50.8929 135.076C56.2568 137.125 64.043 138.923 69.546 141.432C71.014 142.098 80.4985 146.503 81.6565 148.677L82.6541 150.263L82.4698 152.057C82.3497 153.487 79.1118 153.618 78.5555 152.527C78.3468 151.463 78.6008 151.021 77.9135 150.174C77.1968 149.243 77.0496 148.08 76.0281 147.379C73.9717 145.804 71.4502 144.619 69.2763 143.461C66.0942 141.776 61.7734 141.305 58.8348 140.238C54.1448 138.863 49.3961 138.071 44.5806 137.907C42.6983 137.842 39.2383 136.735 42.5533 133.42C44.9058 131.068 50.1059 128.301 55.9154 125.075C59.2601 123.34 64.535 120.648 67.7004 118.681C72.5315 115.759 79.0228 112.412 83.4927 107.793C87.1445 104.066 87.1839 99.347 81.2131 97.4932C76.0338 95.8962 68.7078 96.4833 61.2375 97.8886C60.8927 98.3458 61.013 98.4126 60.064 99.5489C58.567 101.795 56.792 103.869 56.4231 104.463C56.0943 104.829 55.7815 105.104 55.4927 105.243C51.6967 109.788 48.4432 113.004 44.8636 117.07C41.26 121.273 38.5306 124.265 34.6864 129.082C31.5454 133.159 28.6476 137.105 25.6322 141.468C22.7639 145.497 20.2538 149.243 18.2891 152.892C17.7732 153.82 15.0762 158.876 14.6833 160.354C14.3332 161.341 13.9591 162.464 13.4484 162.862C12.8148 163.458 11.7671 166.153 10.2057 166.516C8.10687 166.931 7.78046 165.535 7.77497 164.567C7.48864 162.944 8.9137 162.604 9.44014 160.618ZM93.2941 129.714C92.222 130.299 90.0939 131.379 89.1687 130.882C88.8131 130.9 88.6099 130.804 88.559 130.593L87.8265 131.25C87.5137 131.526 86.8935 132.296 86.5327 132.844C86.1798 133.346 86.1531 133.747 86.1291 133.884C86.0569 134.293 86.5168 134.432 86.9313 134.579C87.4741 134.748 88.5142 135.093 92.8135 133.938C94.2385 133.599 95.8588 133.401 99.5938 131.95C103.275 130.552 105.329 129.397 108.254 128.045C109.598 127.411 110.791 126.893 112.234 126.198C114.339 125.254 115.496 124.434 115.702 124.265C116.221 123.822 117.365 123.576 116.895 124.495C116.571 125.081 115.173 125.768 113.849 126.53C111.735 127.783 109.339 129.131 108.428 129.556C105.957 130.828 103.655 131.894 100.92 133.169C98.1717 134.271 96.2789 135.265 93.8886 136.083C93.0919 136.355 91.5813 136.93 90.6108 137.189C87.2366 138.092 85.7367 138.357 84.48 138.49C83.6699 138.589 83.3303 138.517 82.7795 138.394C82.1833 138.279 82.1779 138.06 81.7714 137.867C81.0414 137.511 80.7927 136.674 80.977 135.629C81.0812 135.038 81.196 134.137 81.8403 133.231C82.2306 132.766 82.9978 131.661 84.166 130.531C85.1739 129.56 86.5774 128.344 87.842 127.416C89.7615 126.021 90.3711 125.561 91.3683 124.901C92.2666 124.302 93.467 123.738 95.8331 122.308C100.071 119.755 101.969 118.98 104.314 118.17L106.15 117.494C107.22 117.173 111.145 116.393 111.006 118.179C110.939 118.807 110.624 119.348 109.525 120.334C108.64 121.107 108.007 121.703 106.667 122.555C104.627 123.884 100.887 125.865 97.3526 127.677C96.8205 127.947 96.0987 128.294 95.195 128.674C94.556 129.051 93.8716 129.436 93.2941 129.714ZM92.5398 127.248C92.1895 127.486 91.7938 127.732 91.4356 128.016L91.6174 127.984C91.981 127.92 92.6708 127.754 93.4061 127.58C93.9595 127.439 93.997 127.476 94.4141 127.358L95.4461 127L96.5476 126.498C97.216 126.204 97.7935 125.926 98.2346 125.672C100.387 124.456 103.833 122.395 105.023 121.392C105.694 120.833 105.242 120.649 105.204 120.611C104.654 120.488 104.244 120.56 104.199 120.568C103.365 120.804 102.547 120.948 100.394 122.164C99.9988 122.41 99.1994 122.947 98.7048 123.255L96.8334 124.377C95.3041 125.308 93.8043 126.321 92.5398 127.248ZM119.6 122.037L120.64 121.633C121.886 121.061 123.078 120.543 123.883 120.224C127.11 118.907 129.415 118.324 131.968 117.83C132.07 117.504 132.217 117.17 132.347 116.926C132.863 115.999 132.783 115.704 133.457 114.881C135.553 112.486 139.456 109.331 142.015 109.805C142.483 109.899 143.068 110.324 143.322 110.631C143.346 111.244 142.889 112.337 142.414 113.038C141.585 114.241 139.048 115.393 138.267 114.826L137.868 114.588C137.545 114.424 136.093 114.416 135.927 115.106C135.762 115.796 135.551 116.494 135.513 117.205C135.786 117.157 136.067 117.063 136.339 117.015C141.946 115.938 142.665 115.856 147.834 115.517C148.553 115.434 149.641 115.506 150.486 115.71C151.037 115.833 151.414 115.943 151.374 116.17C151.566 116.576 150.858 117.098 150.446 117.434C149.837 117.894 149.131 118.151 148.567 117.854C147.912 117.573 147.885 117.225 146.855 117.319C146.342 117.233 145.096 117.057 143.529 117.201C141.243 117.428 138.471 117.917 137.516 118.085L135.471 118.445C135.543 119.534 135.76 120.552 136.001 121.435C136.338 122.52 136.295 123.761 135.191 125.277C134.563 126.092 133.608 127.009 132.702 127.653C130.903 129.116 128.09 130.581 124.481 131.569C121.462 132.454 118.486 132.846 116.944 132.854C115.583 132.83 114.406 132.509 113.436 132.02C112.39 131.455 111.724 130.736 111.895 129.517C112.066 128.297 113.232 126.683 115.199 125.015C116.373 124.103 116.686 123.828 118.276 122.798C118.915 122.422 118.803 122.309 119.6 122.037ZM131.763 123.988C131.487 122.803 131.439 120.83 131.69 119.156C129.765 119.584 127.824 120.102 125.872 120.931C124.209 121.62 122.367 122.077 120.779 122.842C120.202 123.12 119.143 123.879 118.632 124.277C117.87 124.852 117.515 125.619 116.999 126.547C116.352 127.718 116.89 128.416 117.194 128.935C117.67 129.731 118.352 129.611 118.903 129.734C120.39 130.045 122.101 130.58 124.096 130.008C125.59 129.524 126.039 129.225 127.208 128.843C128.079 128.645 129.774 127.773 130.456 126.905C131.015 126.233 132.111 125.512 131.763 123.988ZM146.7 120.473C148.226 118.31 150.402 116.209 152.848 114.324C154.228 113.244 155.72 112.277 157.203 111.354C157.195 110.651 158.837 109.085 159.946 108.537C160.425 108.32 162.692 107.7 163.254 107.513C163.534 107.42 163.724 107.342 163.906 107.31C164.521 107.07 164.983 106.944 165.264 106.85C170.646 105.549 177.261 104.999 182.429 104.66C185.146 104.49 185.833 104.589 187.967 105.225C189.106 105.509 189.697 106.902 187.828 107.76C186.978 108.086 186.852 107.8 186.261 107.904C185.277 107.99 184.66 106.998 184.833 106.262C184.796 106.225 184.75 106.233 184.705 106.241C183.881 106.166 183.127 105.947 182.288 105.963C181.138 105.989 179.932 106.334 178.66 106.558C176.879 106.916 175.048 107.063 173.184 107.392C174.034 107.814 174.435 108.536 174.313 109.483C173.808 112.346 169.822 115.471 166.875 117.444C165.825 118.158 164.75 119.008 163.616 119.692C162.879 120.131 161.67 120.74 160.895 121.141C158.751 122.312 156.989 123.063 154.938 123.953C153.366 124.626 150.647 125.811 148.404 126.294C147.214 126.548 146.147 126.604 145.537 126.315C144.356 125.775 144.313 124.769 144.732 123.639C145.144 122.553 146.002 121.433 146.7 120.473ZM172.337 109.699C172.714 108.311 169.556 108.736 167.23 109.19C165.027 110.195 162.308 112.128 161.147 112.465C160.821 112.566 159.701 112.676 158.832 112.609C157.971 113.245 157.11 113.881 156.18 114.662C155.349 115.381 154.595 115.91 153.891 116.651C153.349 117.231 152.745 117.91 152.178 118.626C151.328 119.701 150.606 120.797 150.374 121.367C150.219 121.746 150.162 122.065 150.259 122.268C150.451 122.674 151.732 122.404 153.272 121.913C154.44 121.53 155.638 121.231 156.831 120.713C157.924 120.256 160.274 118.916 160.761 118.654C162.736 117.689 163.792 117.195 165.907 115.941C166.942 115.318 168.375 114.185 169.244 113.503C170.776 112.308 171.968 111.041 172.337 109.699ZM185.865 111.057C185.339 111.546 184.673 112.324 184.098 113.086C184.029 113.979 184.061 115.295 183.532 116.048C181.877 118.19 180.511 119.444 178.405 121.401C176.744 122.574 175.493 122.178 175.728 120.595C176.089 119.299 177.217 117.646 178.198 116.328C182.879 110.262 189.164 105.587 195.832 101.989C198.636 100.57 202.716 98.6612 204.837 99.124C204.928 99.108 205.01 99.1374 205.101 99.1214C205.532 99.1776 206.15 99.421 206.417 99.9023C206.716 100.202 206.84 100.753 206.791 101.025C206.599 102.116 204.388 104.664 203.166 105.1C202.423 105.319 201.811 105.295 201.557 104.987C201.332 104.762 201.912 103.471 201.049 103.623C199.966 103.77 199.161 103.34 198.495 103.369C197.942 103.511 197.38 103.698 196.864 103.877C196.068 104.149 195.34 104.278 194.779 104.465C193.244 105.176 191.659 106.424 190.204 107.429C188.705 108.442 187.264 109.621 185.865 111.057ZM213.659 88.4523C214.068 88.3802 214.295 88.3401 214.378 88.3695C216.485 87.9099 218.554 87.4129 220.677 86.8624C221.749 85.5284 223.014 83.8521 224.331 82.1224C224.511 81.6064 224.772 81.1198 224.941 80.914L226.061 79.3072C226.999 76.9839 227.199 75.0989 228.416 74.444C228.721 74.2141 229.723 73.7731 230.384 73.5245C231.835 72.7841 233.21 73.7308 232.763 75.2628C231.291 78.1208 227.807 82.3903 224.96 85.7989C229.524 84.6419 234.088 83.4848 238.612 82.555C240.203 82.2745 242.925 81.5744 244.951 81.5693C245.625 81.4946 246.299 81.4198 247.002 81.4279C250.245 81.5166 256.609 81.1433 256.123 85.1485C255.955 86.103 252.917 85.0972 252.858 84.1828C252.877 83.8272 252.954 83.6373 253.008 83.5839C252.917 83.5999 252.788 83.5785 252.54 83.4902C250.941 83.0675 249.018 83.2303 247.377 83.2996C246.93 83.3343 245.78 83.3609 245.636 83.4304C243.315 83.3552 234.246 85.8351 234.11 85.8591C230.182 86.904 226.316 87.8499 222.434 88.8867C219.502 92.5306 215.623 97.046 212.463 101.479C211.297 103.093 210.223 104.692 209.284 106.267C208.4 107.788 207.435 109.764 207.296 110.801C207.053 112.43 207.874 112.769 209.676 112.54C210.978 112.398 212.51 111.952 213.785 111.463C215.151 110.958 217.483 109.974 220.263 108.691C221.752 107.988 225.084 106.079 227.875 104.486C228.805 103.706 229.311 103.837 228.741 104.818C226.811 106.523 224.755 107.943 222.167 109.632C219.625 111.314 216.588 113.303 213.283 114.81C211.224 115.746 209.441 116.368 208.04 116.571C206.503 116.798 205.356 116.56 204.735 115.833C204.01 114.948 203.935 113.376 204.807 110.932C205.803 108.026 208.632 103.475 211.823 98.861C213.949 95.7998 216.264 92.6612 218.325 89.9637L218.234 89.9797L218.279 89.9717C217.314 90.4501 213.841 91.4148 211.491 92.0054C209.114 92.997 205.772 93.7184 204.248 93.3706C203.272 93.4106 202.74 92.9319 202.793 92.1298L202.817 91.9934C203.138 90.924 204.771 89.4028 206.052 89.133C207.605 88.815 212.113 88.7248 213.659 88.4523ZM263.171 78.9733C263.986 78.3451 264.898 77.1715 267.173 76.5061C267.734 76.319 268.48 77.3324 271.194 76.6778C274.894 74.9243 279.859 73.7406 283.731 71.5166C290.826 67.491 295.128 64.5746 302.092 60.0436C309.3 55.3816 312.767 51.9517 315.174 51.7916C315.93 51.7463 316.786 51.6395 317.516 51.9952C318.217 52.268 318.155 53.1156 317.95 54.0326C317.551 55.2919 317.426 56.5031 316.878 57.6126C314.502 62.3475 310.598 66.2506 307.679 70.817C305.362 74.2203 303.587 77.0435 301.748 80.2304C300.756 81.8585 299.877 83.599 298.77 85.3796C298.716 85.4331 288.286 105.372 290.968 104.9C296.347 101.617 301.453 95.3879 305.18 90.9874C310.97 84.3734 316.683 77.2006 322.717 70.4556C323.65 69.4103 324.628 68.3569 325.66 67.2502C327.609 65.189 330.868 62.1922 332.731 61.1149C334.488 60.1446 335.055 60.9254 335.573 61.979C335.841 62.4603 335.552 63.3479 335.4 64.2115C335.103 65.8933 334.155 67.7782 333.334 69.6844C332.711 71.4677 331.717 73.3606 331.003 75.1599C329.723 78.4244 329.023 79.6489 327.772 82.9962C326.623 86.0174 325.484 90.2257 324.586 93.8191C324.25 94.9795 324.164 95.9634 323.86 96.942C323.515 98.1478 323.266 100.305 323.165 102.878C323.024 105.677 323.53 108.803 325.393 108.474C329.348 107.777 335.25 101.275 337.782 98.4066C340.792 95.3215 345.703 89.6993 350.713 84.0157C356.351 77.5166 362.211 70.7582 365.483 67.1865C371.781 60.4389 373.917 57.8163 380.927 51.78C388.776 44.9791 389.923 43.7199 396.345 39.7691C399.601 37.7856 402.082 38.4491 401.684 40.457C401.43 41.6468 399.754 41.4139 398.73 41.7266C397.842 42.0153 397.168 42.09 395.909 42.4882C395.067 42.7688 394.3 43.1243 393.471 43.5788C392.057 44.3566 391.541 44.5357 388.696 46.9309C384.785 50.1308 380.748 53.7933 376.781 58.06C369.354 65.7112 361.92 74.9052 354.988 82.9976C351.836 86.6361 348.861 90.0233 345.95 93.0469C342.373 96.8484 337.919 102.126 333.281 106.203C331.289 108.007 329.308 109.501 327.255 110.656C324.64 111.998 322.33 112.361 320.693 111.901C319.276 111.446 318.327 110.337 318.065 108.577C317.866 107.203 318.064 105.583 318.329 104.083C318.721 101.856 319.347 99.8076 319.662 98.5189C320.848 94.0378 323.43 87.6372 325.713 82.4344C327.098 79.3277 328.292 75.5499 329.562 72.5956C330.513 70.446 330.051 71.3203 330.85 69.2857C331.331 68.0558 331.817 66.2965 330.636 66.5049C330.181 66.5851 329.767 66.4379 328.441 67.4645C327.053 68.5899 325.123 70.2955 324.404 71.1269C320.891 75.3135 318.68 77.8613 315.804 81.187C311.174 86.7156 304.098 96.3749 299.272 101.762C296.933 104.288 294.792 106.692 291.977 109.17C290.597 110.25 289.025 111.672 288.025 111.848C285.828 112.324 283.721 111.286 285.06 107.439C286.04 104.623 289.376 97.6935 291.867 92.8063C295.096 86.732 299.066 80.7032 303.028 74.72C305.201 71.3861 307.382 68.0068 309.518 64.6355C312.68 59.1895 311.635 59.3739 311.929 57.9568C312.22 56.8045 310.509 57.7668 309.391 58.3602C306.135 60.3436 298.034 65.075 295.265 66.7965C288.006 71.2472 280.656 75.714 273.168 79.7208C269.222 81.8699 264.53 84.5029 260.754 83.9355C259.072 83.4834 261.144 80.4757 263.171 78.9733ZM375.176 80.0104C374.104 80.5958 371.976 81.6757 371.051 81.1782C370.695 81.1969 370.492 81.1006 370.441 80.8894L369.709 81.547C369.396 81.8223 368.776 82.5923 368.415 83.1404C368.062 83.643 368.035 84.044 368.011 84.1804C367.939 84.5895 368.399 84.7286 368.813 84.8757C369.356 85.0442 370.396 85.3893 374.695 84.2349C376.121 83.8955 377.741 83.6979 381.476 82.2466C385.157 80.8488 387.211 79.694 390.136 78.3415C391.48 77.708 392.673 77.1895 394.116 76.4945C396.221 75.551 397.378 74.7303 397.584 74.5619C398.103 74.1182 399.247 73.8723 398.777 74.792C398.453 75.3775 397.055 76.0645 395.731 76.8263C393.617 78.08 391.221 79.4272 390.31 79.8522C387.839 81.1245 385.537 82.191 382.802 83.466C380.054 84.5672 378.161 85.5615 375.771 86.3794C374.974 86.652 373.463 87.2266 372.493 87.4858C369.119 88.389 367.619 88.6535 366.362 88.787C365.552 88.8858 365.212 88.8136 364.662 88.6905C364.065 88.5755 364.06 88.3562 363.653 88.1636C362.923 87.8079 362.675 86.971 362.859 85.9256C362.963 85.3347 363.078 84.4337 363.722 83.5274C364.113 83.0622 364.88 81.958 366.048 80.8272C367.056 79.8568 368.459 78.6404 369.724 77.7128C371.644 76.3174 372.253 75.8576 373.25 75.1973C374.149 74.5986 375.349 74.0346 377.715 72.6045C381.953 70.0517 383.851 69.2765 386.196 68.4667L388.032 67.7906C389.102 67.4699 393.027 66.6897 392.888 68.4758C392.821 69.1041 392.506 69.6441 391.407 70.6306C390.522 71.4032 389.889 71.9993 388.549 72.8521C386.509 74.1806 382.769 76.1613 379.235 77.9736C378.703 78.2436 377.981 78.591 377.077 78.9706C376.438 79.3475 375.754 79.7324 375.176 80.0104ZM374.422 77.5451C374.072 77.783 373.676 78.0289 373.318 78.3123L373.499 78.2802C373.863 78.2161 374.553 78.0504 375.288 77.8767C375.842 77.7351 375.879 77.7726 376.296 77.655L377.328 77.2968L378.43 76.7943C379.098 76.5003 379.675 76.2223 380.117 75.9684C382.269 74.7522 385.715 72.6912 386.905 71.6887C387.576 71.13 387.124 70.9455 387.086 70.908C386.536 70.7849 386.126 70.8571 386.081 70.8651C385.247 71.1003 384.429 71.2445 382.276 72.4608C381.881 72.7067 381.081 73.244 380.587 73.5514L378.715 74.6741C377.186 75.6043 375.686 76.6175 374.422 77.5451ZM420.87 61.7801C421.678 61.946 422.314 62.5825 422.066 63.2429C421.545 64.7 419.31 66.6355 417.89 66.4454C417.662 66.4855 415.657 65.8702 413.994 66.5598C413.454 66.8752 412.954 66.9634 412.278 67.3029C411.123 67.8588 409.257 69.2008 408.115 69.9305C405.139 71.8204 402.517 73.9564 401.469 75.1541C400.627 76.1833 398.993 77.7045 398.488 78.322C397.432 79.5652 398.138 79.3086 398.357 79.314C399.59 79.3168 400.967 78.5015 403.223 77.4431C406.279 75.8473 409.142 73.8451 410.498 72.9014C414.709 70.001 414.805 70.2043 420.066 65.8415C422.087 64.1199 422.507 63.7376 423.408 62.8741C424.683 61.6363 426.512 59.5083 429.075 56.4579C431.912 52.6108 434.959 48.8145 437.87 45.0423C439.985 42.2913 442.701 38.3773 445.446 36.0435C446.51 35.5036 447.371 35.616 447.767 36.1187C448.762 36.4718 448.096 38.7471 446.856 40.287C446.77 40.5223 446.182 41.1104 446.083 41.1719L445.313 41.7921C443.049 43.6447 442.405 44.551 440.726 46.0801L440.389 46.4918C435.337 52.6675 430.404 58.1613 426.194 64.805C424.764 67.171 420.77 71.8388 422.407 74.5449C422.995 75.4541 425.321 74.9999 426.498 74.5722C428.591 73.9389 433.144 72.3433 436.067 70.5069C437.497 69.6381 437.86 69.574 439.85 68.0342C440.777 67.5183 440.895 67.8499 440.283 68.5744C439.264 69.8549 437.537 70.9081 435.198 72.6858C431.198 75.6371 424.384 79.5692 421.83 79.3148C419.413 79.0364 418.506 76.686 419.45 73.0846C419.797 71.6141 420.406 70.4056 421.109 68.9164C421.697 67.5796 422.275 66.553 422.935 65.5558C422.186 66.3043 421.347 67.0689 420.409 67.895C417.037 70.7794 417.872 69.7956 412.113 73.9819C410.225 75.1955 407.472 77.5747 405.365 78.7829C402.59 80.2852 398.155 82.961 395.385 83.1851C393.061 83.3746 391.997 81.6686 393.464 79.34C394.493 77.7493 397.346 74.5599 399.776 72.7662C401.955 71.1489 403.965 69.7374 405.853 68.5238C407.139 67.7245 411.7 65.3349 415.058 63.7739C417.376 62.6165 419.579 61.6115 420.87 61.7801ZM464.148 54.1491C464.955 54.315 465.592 54.9515 465.343 55.6118C464.822 57.069 462.587 59.0044 461.167 58.8144C460.94 58.8545 458.935 58.2392 457.272 58.9288C456.732 59.2442 456.232 59.3324 455.555 59.6718C454.4 60.2278 452.534 61.5698 451.393 62.2995C448.417 64.1894 445.794 66.3254 444.747 67.5231C443.904 68.5523 442.271 70.0734 441.766 70.691C440.71 71.9342 441.416 71.6776 441.635 71.683C442.867 71.6858 444.244 70.8705 446.501 69.812C449.557 68.2163 452.42 66.214 453.775 65.2704C457.986 62.37 458.082 62.5732 463.344 58.2104C465.365 56.4888 465.785 56.1066 466.686 55.2431C467.961 54.0053 469.789 51.8773 472.353 48.8269C475.189 44.9798 478.237 41.1835 481.148 37.4113C483.262 34.6603 485.978 30.7463 488.724 28.4125C489.788 27.8726 490.649 27.985 491.045 28.4877C492.04 28.8408 491.374 31.1161 490.134 32.656C490.048 32.8913 489.46 33.4794 489.361 33.5409L488.591 34.1611C486.327 36.0136 485.683 36.92 484.004 38.4491L483.667 38.8608C478.614 45.0364 473.682 50.5303 469.472 57.1739C468.042 59.54 464.048 64.2078 465.685 66.9139C466.273 67.823 468.599 67.3688 469.775 66.9412C471.869 66.3078 476.422 64.7123 479.344 62.8758C480.775 62.0071 481.138 61.943 483.127 60.4032C484.055 59.8873 484.173 60.2188 483.56 60.9433C482.542 62.2239 480.815 63.2771 478.476 65.0548C474.476 68.0061 467.661 71.9381 465.108 71.6838C462.691 71.4053 461.784 69.055 462.727 65.4536C463.075 63.983 463.684 62.7746 464.387 61.2854C464.975 59.9486 465.552 58.922 466.213 57.9248C465.464 58.6733 464.625 59.4379 463.686 60.2639C460.315 63.1484 461.149 62.1646 455.391 66.3508C453.503 67.5645 450.749 69.9437 448.643 71.1519C445.868 72.6542 441.432 75.3299 438.662 75.5541C436.339 75.7436 435.274 74.0376 436.742 71.709C437.771 70.1182 440.623 66.9289 443.054 65.1351C445.233 63.5178 447.243 62.1064 449.13 60.8928C450.416 60.0935 454.978 57.7039 458.336 56.1429C460.654 54.9855 462.857 53.9805 464.148 54.1491ZM481.306 65.5246C481.014 63.6824 482.177 61.5836 483.677 59.0732C485.037 56.8515 486.253 54.6993 487.486 53.2049C488.935 51.2319 490.71 50.6546 492.06 50.2404C492.803 50.0212 493.63 50.5802 493.646 51.2379C493.836 51.9091 493.133 52.6496 492.545 53.2377C491.574 54.2456 490.737 54.7454 490.173 55.1972C489.631 55.7774 489.029 56.1917 488.609 56.574C487.655 57.4909 487.096 58.162 486.374 59.2581C485.345 60.8488 485.065 61.691 485.158 62.9076C485.26 64.8274 487.763 64.1219 489.311 63.5847C492.332 62.4354 495.313 61.5134 498.254 60.07C500.275 59.0971 502.345 57.8514 504.195 56.6004C505.136 56.2583 505.997 56.3707 505.256 57.0738C500.289 60.7682 493.498 65.3125 487.635 67.0951C484.935 67.9235 481.726 68.137 481.306 65.5246ZM501.924 33.2635C502.988 32.7235 503.541 32.5819 503.881 32.6542C504.37 32.8761 504.814 33.1062 503.78 34.4776C501.98 36.6886 501.446 37.2232 499.558 38.4368C499.459 38.4983 497.62 39.4392 496.863 38.7359C496.601 38.4738 496.895 37.8054 496.777 37.4739C496.542 36.0621 499.058 34.7817 500.959 33.7419C501.697 33.3035 501.483 33.5174 501.924 33.2635ZM510.082 48.7801L510.09 48.7347C510.764 47.9113 511.809 46.9783 512.804 46.5827C514.453 45.7193 515.619 46.3505 515.194 48.0108C514.144 50.2219 510.067 54.1116 508.337 56.1782C507.787 56.8037 507.525 57.2903 507.698 57.3037C507.835 57.2797 508.022 57.4669 508.859 56.967C509.696 56.4671 510.891 55.6839 511.241 55.446C512.848 54.3259 517.082 51.2891 521.194 48.4502C525.13 45.8626 528.279 43.9861 530.057 43.8928C532.993 43.7274 532.525 45.8798 531.536 48.7405C530.991 50.334 530.521 52.0024 530.291 53.0558C529.874 55.4193 531.834 56.0426 533.925 55.6739C536.561 55.2091 540.021 53.3219 542.243 51.9613L542.251 51.9159C542.35 51.8544 542.486 51.8303 542.577 51.8143C543.866 51.499 543.767 52.3091 542.617 53.0843C538.644 55.6345 533.877 58.9413 530.698 59.2376C528.813 59.4378 526.936 58.0953 527.158 55.59C527.27 54.2051 527.478 53.0233 527.925 51.4913C528.176 50.5662 528.205 49.9004 528.202 49.4165C528.184 49.0234 527.9 48.633 527.622 48.4619C527.381 48.3282 526.855 48.0687 526.058 48.3413C524.51 48.8785 522.323 49.7926 519.689 51.4901C517.101 53.1795 514.471 55.3609 512.353 56.8793C510.586 58.1597 507.595 60.8892 505.959 61.9264C505.023 62.4877 504.344 63.0919 503.357 63.442C502.924 63.6505 502.582 63.843 502.234 63.8162C501.031 63.8962 500.611 63.5298 500.349 62.5191C500.467 61.3534 501.493 60.0273 502.734 58.4874C503.354 57.7175 504.105 56.7043 504.664 56.0332C505.752 54.6083 506.869 53.2662 507.749 52.2744C509.411 50.0875 509.109 50.0527 509.906 49.0314C510.013 48.9245 510.029 48.8336 510.082 48.7801ZM578.107 47.0027C577.369 47.4411 577.163 47.6095 576.372 48.1013C574.69 49.1465 573.618 49.7319 572.482 50.6809L567.501 54.9502C560.781 64.5908 555.106 71.0524 546.185 80.6846C544.533 82.5613 542.744 84.4621 540.865 86.3789C540.605 86.6008 532.345 95.9845 530.096 95.5002C529.537 95.4225 529.505 94.8557 529.724 94.1124C530.093 92.7703 530.545 91.4575 531.053 90.5753C532.007 88.9096 532.493 87.899 539.08 80.2638C542.508 76.3125 549.389 69.5061 553.442 65.7527C556.022 63.3601 558.623 61.0958 561.414 58.754L564.069 56.4363C566.362 53.1693 568.308 49.8755 569.551 46.5736C569.901 45.587 568.102 44.8034 567.722 44.9584C567.053 45.2524 566.425 45.3192 565.909 45.4982C564.46 45.9739 563.578 46.4818 561.974 47.3372C559.867 48.5454 556.196 50.3817 552.737 52.2689C550.205 53.6402 548.379 54.7548 546.109 55.6395C544.029 56.4467 542.085 57.2298 541.015 56.8018C540.037 56.3579 540.114 55.4194 540.266 54.5558C540.496 53.5024 541.536 52.3501 543.156 50.6552C546.212 47.5621 551.644 43.4774 557.187 40.5184C561.946 38.0058 564.103 37.0088 566.603 35.8193C567.659 35.3248 570.611 35.0686 571.549 34.9912C572.162 35.0153 572.22 35.1811 572.351 35.6865L572.21 37.7372C572.026 38.7826 571.673 39.2853 570.828 39.8306C569.847 40.3999 568.67 40.8276 568.055 40.3195C567.411 39.7285 565.47 38.7496 563.644 39.8643C562.015 40.856 561.291 40.7195 558.088 42.6495C554.353 44.8495 551.351 47.1404 549.124 49.0304C548.193 49.811 547.795 50.3217 547.154 50.9633C546.825 51.3295 546.533 51.7332 546.341 52.0754C546.21 52.3187 546.079 52.562 546.798 52.4792C547.745 52.3564 548.541 52.0838 549.392 51.7577C550.568 51.3301 550.865 51.1456 552.292 50.5416C555.003 49.403 557.193 48.2242 559.345 47.0079C561.786 45.6527 563.914 44.5728 566.992 43.1054C569.417 41.841 573.956 40.0717 574.446 42.5396C574.74 44.1172 572.351 47.9296 570.402 50.7394L572.305 49.4349C573.463 48.6143 575.078 47.4487 578.462 45.4867C579.513 44.773 580.23 44.2062 581.537 43.5353C582.997 42.7495 583.866 42.0678 584.815 41.6802C585.095 41.5867 585.103 41.5412 585.603 41.4531C586.194 41.3489 587.005 41.9987 586.839 42.6885C586.721 43.1056 586.323 43.6162 585.721 44.0306C584.823 44.6294 584.342 44.3619 583.133 44.9714C582.51 45.2574 582.027 45.2546 581.093 45.5513C580.516 45.8293 579.856 46.0778 579.278 46.3558C578.944 46.5028 578.647 46.6873 578.107 47.0027ZM544.316 80.0453C550.991 72.6587 555.37 68.0551 560.842 60.7486L560.155 61.3982C554.509 66.4454 547.106 74.7089 542.129 80.2107C538.832 83.9188 538.172 85.6646 538.039 86.1726C542.3 81.9861 540.423 84.3869 544.316 80.0453Z" fill="#6BC5F7"/>
</svg>
