<svg width="588" height="187" viewBox="0 0 588 187" fill="none" xmlns="http://www.w3.org/2000/svg">
<path d="M15.142 119.21C15.9574 118.582 16.869 117.408 19.1442 116.743C19.7057 116.556 20.4518 117.569 23.1656 116.915C26.8658 115.161 31.8308 113.977 35.7021 111.753C42.7976 107.728 47.0993 104.811 54.0637 100.28C61.2715 95.6184 64.7388 92.1885 67.1452 92.0284C67.9019 91.9831 68.7574 91.8762 69.4874 92.232C70.188 92.5048 70.1266 93.3524 69.9209 94.2694C69.5227 95.5287 69.3972 96.7399 68.8492 97.8494C66.473 102.584 62.5699 106.487 59.6508 111.054C57.3332 114.457 55.5582 117.28 53.7191 120.467C52.7274 122.095 51.848 123.836 50.7413 125.616C50.6879 125.67 40.2578 145.609 42.9395 145.136C48.3186 141.854 53.4246 135.625 57.1512 131.224C62.9415 124.61 68.6543 117.437 74.688 110.692C75.6209 109.647 76.5994 108.594 77.6313 107.487C79.5801 105.426 82.839 102.429 84.7025 101.352C86.459 100.381 87.0259 101.162 87.5448 102.216C87.8122 102.697 87.5236 103.585 87.3713 104.448C87.0748 106.13 86.1259 108.015 85.3053 109.921C84.6826 111.705 83.6882 113.597 82.9746 115.397C81.6944 118.661 80.994 119.886 79.7432 123.233C78.5939 126.254 77.4555 130.463 76.5577 134.056C76.221 135.216 76.1356 136.2 75.8309 137.179C75.4862 138.385 75.2378 140.542 75.1366 143.114C74.9953 145.914 75.5011 149.039 77.3647 148.711C81.3191 148.014 87.2217 141.512 89.7534 138.643C92.7636 135.558 97.6744 129.936 102.684 124.252C108.322 117.753 114.182 110.995 117.454 107.423C123.753 100.676 125.889 98.0531 132.898 92.0168C140.747 85.2159 141.894 83.9567 148.316 80.0059C151.572 78.0224 154.054 78.6859 153.656 80.6938C153.402 81.8836 151.725 81.6507 150.701 81.9634C149.814 82.252 149.14 82.3268 147.881 82.725C147.038 83.0056 146.271 83.3611 145.442 83.8155C144.028 84.5934 143.512 84.7725 140.667 87.1677C136.756 90.3676 132.719 94.0301 128.752 98.2968C121.326 105.948 113.891 115.142 106.959 123.234C103.808 126.873 100.832 130.26 97.9209 133.284C94.344 137.085 89.8903 142.363 85.2519 146.439C83.2602 148.244 81.2792 149.738 79.2259 150.893C76.6112 152.235 74.3011 152.598 72.6647 152.138C71.2476 151.683 70.2982 150.573 70.0359 148.814C69.8379 147.44 70.0355 145.819 70.3 144.32C70.6927 142.092 71.318 140.044 71.6333 138.756C72.8198 134.275 75.4017 127.874 77.6843 122.671C79.0689 119.565 80.2635 115.787 81.5331 112.832C82.4846 110.683 82.0222 111.557 82.8213 109.522C83.3024 108.293 83.7888 106.533 82.607 106.742C82.1525 106.822 81.7381 106.675 80.412 107.701C79.0245 108.827 77.0943 110.532 76.3752 111.364C72.8625 115.55 70.6517 118.098 67.7752 121.424C63.1451 126.952 56.0691 136.612 51.2437 141.999C48.9046 144.525 46.7633 146.928 43.9482 149.406C42.5687 150.486 40.9967 151.909 39.9968 152.085C37.799 152.561 35.6919 151.523 37.0309 147.676C38.0118 144.86 41.3476 137.93 43.8388 133.043C47.0678 126.969 51.0374 120.94 54.999 114.957C57.1723 111.623 59.3536 108.244 61.4894 104.872C64.6517 99.4263 63.6063 99.6107 63.9002 98.1936C64.1914 97.0413 62.4804 98.0036 61.3628 98.597C58.1065 100.58 50.0057 105.312 47.236 107.033C39.9774 111.484 32.6279 115.951 25.1393 119.958C21.1931 122.107 16.5011 124.74 12.7256 124.172C11.0438 123.72 13.1155 120.712 15.142 119.21ZM127.147 120.247C126.075 120.833 123.947 121.912 123.022 121.415C122.666 121.434 122.463 121.337 122.412 121.126L121.68 121.784C121.367 122.059 120.747 122.829 120.386 123.377C120.033 123.88 120.006 124.281 119.982 124.417C119.91 124.826 120.37 124.965 120.785 125.112C121.327 125.281 122.368 125.626 126.667 124.472C128.092 124.132 129.712 123.935 133.447 122.483C137.129 121.086 139.182 119.931 142.107 118.578C143.452 117.945 144.644 117.426 146.088 116.731C148.192 115.788 149.35 114.967 149.555 114.799C150.074 114.355 151.218 114.109 150.748 115.029C150.425 115.614 149.026 116.301 147.703 117.063C145.588 118.317 143.193 119.664 142.281 120.089C139.811 121.361 137.509 122.428 134.774 123.703C132.025 124.804 130.132 125.798 127.742 126.616C126.945 126.889 125.435 127.463 124.464 127.723C121.09 128.626 119.59 128.89 118.333 129.024C117.523 129.123 117.184 129.05 116.633 128.927C116.037 128.812 116.031 128.593 115.625 128.4C114.895 128.045 114.646 127.208 114.83 126.162C114.935 125.571 115.049 124.67 115.694 123.764C116.084 123.299 116.851 122.195 118.019 121.064C119.027 120.094 120.431 118.877 121.695 117.95C123.615 116.554 124.224 116.094 125.222 115.434C126.12 114.835 127.32 114.271 129.686 112.841C133.924 110.288 135.822 109.513 138.167 108.704L140.004 108.027C141.073 107.707 144.998 106.926 144.859 108.713C144.793 109.341 144.477 109.881 143.378 110.867C142.494 111.64 141.86 112.236 140.521 113.089C138.481 114.417 134.74 116.398 131.206 118.21C130.674 118.48 129.952 118.828 129.048 119.207C128.409 119.584 127.725 119.969 127.147 120.247ZM126.393 117.782C126.043 118.02 125.647 118.266 125.289 118.549L125.471 118.517C125.834 118.453 126.524 118.287 127.259 118.114C127.813 117.972 127.85 118.009 128.267 117.892L129.299 117.534L130.401 117.031C131.069 116.737 131.647 116.459 132.088 116.205C134.24 114.989 137.686 112.928 138.876 111.926C139.547 111.367 139.095 111.182 139.058 111.145C138.507 111.022 138.098 111.094 138.052 111.102C137.218 111.337 136.4 111.481 134.248 112.698C133.852 112.943 133.053 113.481 132.558 113.788L130.687 114.911C129.158 115.841 127.658 116.854 126.393 117.782ZM172.842 102.017C173.649 102.183 174.286 102.819 174.037 103.48C173.516 104.937 171.281 106.872 169.861 106.682C169.634 106.722 167.628 106.107 165.965 106.797C165.425 107.112 164.925 107.2 164.249 107.54C163.094 108.096 161.228 109.438 160.086 110.167C157.111 112.057 154.488 114.193 153.44 115.391C152.598 116.42 150.965 117.941 150.459 118.559C149.403 119.802 150.109 119.545 150.329 119.551C151.561 119.554 152.938 118.738 155.195 117.68C158.25 116.084 161.114 114.082 162.469 113.138C166.68 110.238 166.776 110.441 172.037 106.078C174.059 104.357 174.478 103.974 175.379 103.111C176.654 101.873 178.483 99.7451 181.047 96.6947C183.883 92.8476 186.93 89.0513 189.842 85.2791C191.956 82.5281 194.672 78.6141 197.418 76.2803C198.482 75.7404 199.343 75.8528 199.739 76.3555C200.733 76.7086 200.068 78.9839 198.827 80.5238C198.742 80.7591 198.154 81.3472 198.055 81.4087L197.285 82.0289C195.02 83.8815 194.376 84.7878 192.697 86.3169L192.361 86.7286C187.308 92.9042 182.376 98.3981 178.166 105.042C176.735 107.408 172.742 112.076 174.378 114.782C174.967 115.691 177.293 115.237 178.469 114.809C180.563 114.176 185.116 112.58 188.038 110.744C189.468 109.875 189.832 109.811 191.821 108.271C192.749 107.755 192.866 108.087 192.254 108.811C191.236 110.092 189.509 111.145 187.169 112.923C183.17 115.874 176.355 119.806 173.801 119.552C171.384 119.273 170.478 116.923 171.421 113.321C171.768 111.851 172.378 110.642 173.081 109.153C173.669 107.816 174.246 106.79 174.906 105.793C174.158 106.541 173.318 107.306 172.38 108.132C169.009 111.016 169.843 110.032 164.084 114.219C162.197 115.432 159.443 117.811 157.336 119.02C154.561 120.522 150.126 123.198 147.356 123.422C145.032 123.611 143.968 121.905 145.436 119.577C146.465 117.986 149.317 114.797 151.747 113.003C153.926 111.386 155.937 109.974 157.824 108.761C159.11 107.961 163.671 105.572 167.029 104.011C169.347 102.853 171.55 101.848 172.842 102.017ZM216.119 94.3859C216.927 94.5518 217.563 95.1882 217.315 95.8486C216.794 97.3057 214.559 99.2412 213.139 99.0512C212.912 99.0912 210.906 98.476 209.243 99.1656C208.703 99.481 208.203 99.5691 207.527 99.9086C206.372 100.465 204.506 101.807 203.364 102.536C200.388 104.426 197.766 106.562 196.718 107.76C195.876 108.789 194.242 110.31 193.737 110.928C192.681 112.171 193.387 111.914 193.606 111.92C194.839 111.923 196.216 111.107 198.472 110.049C201.528 108.453 204.391 106.451 205.747 105.507C209.958 102.607 210.054 102.81 215.315 98.4472C217.336 96.7256 217.756 96.3433 218.657 95.4798C219.932 94.2421 221.761 92.1141 224.324 89.0637C227.161 85.2166 230.208 81.4203 233.119 77.648C235.234 74.8971 237.95 70.9831 240.695 68.6493C241.759 68.1094 242.62 68.2218 243.016 68.7245C244.011 69.0776 243.345 71.3529 242.105 72.8928C242.02 73.128 241.431 73.7162 241.333 73.7777L240.563 74.3979C238.298 76.2504 237.654 77.1567 235.975 78.6859L235.638 79.0976C230.586 85.2732 225.653 90.7671 221.443 97.4107C220.013 99.7768 216.019 104.445 217.656 107.151C218.244 108.06 220.57 107.606 221.747 107.178C223.84 106.545 228.393 104.949 231.316 103.113C232.746 102.244 233.11 102.18 235.099 100.64C236.026 100.124 236.144 100.456 235.532 101.18C234.513 102.461 232.786 103.514 230.447 105.292C226.447 108.243 219.633 112.175 217.079 111.921C214.662 111.642 213.755 109.292 214.699 105.69C215.046 104.22 215.655 103.011 216.358 101.522C216.946 100.185 217.524 99.1588 218.184 98.1616C217.436 98.9101 216.596 99.6747 215.658 100.501C212.287 103.385 213.121 102.401 207.362 106.588C205.474 107.801 202.721 110.18 200.614 111.389C197.839 112.891 193.404 115.567 190.634 115.791C188.31 115.98 187.246 114.274 188.713 111.946C189.742 110.355 192.595 107.166 195.025 105.372C197.204 103.755 199.214 102.343 201.102 101.13C202.388 100.33 206.949 97.9406 210.307 96.3797C212.625 95.2223 214.828 94.2173 216.119 94.3859ZM233.277 105.761C232.986 103.919 234.148 101.82 235.648 99.31C237.009 97.0883 238.225 94.9361 239.457 93.4417C240.906 91.4686 242.681 90.8914 244.032 90.4771C244.775 90.258 245.601 90.8169 245.617 91.4747C245.807 92.1458 245.104 92.8864 244.516 93.4745C243.545 94.4824 242.709 94.9822 242.145 95.434C241.602 96.0141 241 96.4285 240.581 96.8108C239.626 97.7277 239.068 98.3988 238.346 99.4949C237.317 101.086 237.036 101.928 237.13 103.144C237.232 105.064 239.734 104.359 241.282 103.821C244.303 102.672 247.284 101.75 250.225 100.307C252.247 99.3338 254.316 98.0882 256.166 96.8371C257.107 96.495 257.968 96.6075 257.228 97.3106C252.26 101.005 245.47 105.549 239.606 107.332C236.906 108.16 233.697 108.374 233.277 105.761ZM253.895 73.5003C254.959 72.9603 255.513 72.8187 255.852 72.8909C256.342 73.1129 256.785 73.3429 255.751 74.7144C253.952 76.9253 253.417 77.46 251.53 78.6736C251.431 78.7351 249.591 79.676 248.835 78.9727C248.572 78.7106 248.867 78.0422 248.749 77.7107C248.513 76.2989 251.029 75.0185 252.93 73.9787C253.668 73.5403 253.454 73.7542 253.895 73.5003ZM262.054 89.0169L262.062 88.9715C262.735 88.148 263.781 87.2151 264.775 86.8195C266.425 85.9561 267.591 86.5873 267.166 88.2476C266.115 90.4587 262.038 94.3484 260.309 96.4149C259.758 97.0405 259.496 97.5271 259.67 97.5405C259.806 97.5164 259.993 97.7036 260.83 97.2038C261.667 96.7039 262.862 95.9207 263.212 95.6828C264.819 94.5627 269.054 91.5259 273.166 88.687C277.101 86.0994 280.25 84.2229 282.029 84.1296C284.964 83.9642 284.497 86.1165 283.508 88.9773C282.963 90.5708 282.492 92.2391 282.262 93.2926C281.846 95.6561 283.806 96.2794 285.897 95.9107C288.533 95.4459 291.992 93.5587 294.214 92.1981L294.222 92.1526C294.321 92.0912 294.457 92.0671 294.548 92.0511C295.837 91.7358 295.738 92.5459 294.589 93.3211C290.616 95.8713 285.849 99.178 282.67 99.4744C280.785 99.6746 278.908 98.3321 279.129 95.8268C279.241 94.4418 279.45 93.2601 279.896 91.7281C280.147 90.803 280.176 90.1372 280.174 89.6533C280.155 89.2602 279.871 88.8698 279.593 88.6987C279.353 88.5649 278.826 88.3055 278.029 88.5781C276.481 89.1153 274.294 90.0294 271.661 91.7268C269.073 93.4163 266.442 95.5977 264.325 97.1161C262.558 98.3965 259.566 101.126 257.93 102.163C256.994 102.725 256.315 103.329 255.329 103.679C254.895 103.887 254.553 104.08 254.206 104.053C253.003 104.133 252.583 103.767 252.32 102.756C252.438 101.59 253.464 100.264 254.705 98.7242C255.325 97.9543 256.076 96.941 256.635 96.27C257.723 94.8451 258.84 93.503 259.72 92.5112C261.383 90.3243 261.081 90.2895 261.877 89.2682C261.984 89.1613 262 89.0704 262.054 89.0169ZM330.078 87.2395C329.341 87.6778 329.135 87.8463 328.343 88.3381C326.662 89.3833 325.59 89.9687 324.453 90.9177L319.473 95.187C312.752 104.828 307.077 111.289 298.156 120.921C296.504 122.798 294.716 124.699 292.836 126.616C292.577 126.838 284.316 136.221 282.068 135.737C281.509 135.659 281.477 135.092 281.696 134.349C282.065 133.007 282.516 131.694 283.024 130.812C283.978 129.146 284.465 128.136 291.052 120.501C294.479 116.549 301.36 109.743 305.413 105.99C307.993 103.597 310.594 101.333 313.385 98.9908L316.04 96.6731C318.334 93.4061 320.28 90.1123 321.522 86.8104C321.872 85.8238 320.073 85.0401 319.693 85.1952C319.025 85.4892 318.397 85.5559 317.881 85.735C316.431 86.2107 315.549 86.7186 313.945 87.574C311.838 88.7822 308.167 90.6185 304.708 92.5057C302.176 93.8769 300.35 94.9916 298.08 95.8763C296 96.6835 294.056 97.4666 292.987 97.0386C292.008 96.5946 292.086 95.6562 292.238 94.7926C292.468 93.7391 293.508 92.5869 295.128 90.892C298.183 87.7989 303.616 83.7142 309.158 80.7552C313.917 78.2425 316.074 77.2456 318.574 76.0561C319.63 75.5616 322.582 75.3054 323.521 75.228C324.133 75.2521 324.192 75.4179 324.323 75.9233L324.181 77.974C323.997 79.0194 323.644 79.522 322.799 80.0674C321.818 80.6367 320.642 81.0644 320.027 80.5563C319.382 79.9653 317.441 78.9864 315.615 80.1011C313.987 81.0928 313.262 80.9563 310.059 82.8863C306.324 85.0862 303.322 87.3772 301.095 89.2672C300.165 90.0478 299.767 90.5584 299.125 91.2001C298.796 91.5663 298.505 91.97 298.312 92.3122C298.181 92.5555 298.05 92.7988 298.77 92.716C299.716 92.5932 300.513 92.3206 301.363 91.9945C302.539 91.5669 302.836 91.3824 304.264 90.7784C306.975 89.6397 309.164 88.4609 311.317 87.2447C313.758 85.8895 315.886 84.8096 318.963 83.3421C321.388 82.0778 325.928 80.3085 326.417 82.7764C326.712 84.354 324.322 88.1664 322.373 90.9762L324.277 89.6717C325.434 88.851 327.049 87.6855 330.434 85.7235C331.484 85.0098 332.201 84.443 333.508 83.7721C334.968 82.9862 335.837 82.3046 336.786 81.917C337.067 81.8235 337.075 81.778 337.575 81.6899C338.166 81.5857 338.976 82.2355 338.81 82.9253C338.693 83.3424 338.294 83.853 337.693 84.2674C336.795 84.8662 336.313 84.5987 335.105 85.2081C334.482 85.4941 333.998 85.4914 333.065 85.7881C332.487 86.066 331.827 86.3146 331.249 86.5926C330.915 86.7396 330.618 86.924 330.078 87.2395ZM296.287 120.282C302.962 112.895 307.341 108.292 312.813 100.985L312.126 101.635C306.48 106.682 299.078 114.946 294.1 120.448C290.804 124.156 290.144 125.901 290.01 126.409C294.271 122.223 292.395 124.624 296.287 120.282ZM379.544 70.7223L379.499 70.7303C379.445 70.7838 379.363 70.7543 379.264 70.8158C378.2 71.3558 375.975 71.4838 375.264 70.7725C374.256 70.9942 373.293 71.208 372.716 71.486L371.553 72.0874C370.58 72.6113 368.04 73.2794 367.013 73.8567C365.743 74.5651 364.478 75.4927 363.305 76.4043C362.177 77.3078 361.444 77.9655 360.551 78.7835C360.284 79.0509 359.656 79.8663 359.415 80.4812C359.183 81.0507 359.041 81.6041 359.014 82.0052C358.827 82.5666 360.512 82.754 361.177 82.7247C362.282 82.7062 365.573 81.7735 366.134 81.5864C370.677 80.301 377.166 77.2192 382.05 74.9926C384.748 73.6802 385.357 73.2204 387.972 71.8786C389.28 71.2077 390.167 71.6677 388.796 72.7022C387.173 73.9132 384.628 75.1107 382.454 76.1986C379.741 77.6019 375.602 80.0932 372.201 81.3975C369.263 82.5762 362.156 85.4147 359.215 86.1094C357.972 86.4167 353.903 87.2664 354.031 85.0418C354.09 84.4589 354.164 83.7852 354.424 82.8146C354.667 81.935 355.028 81.3869 355.541 80.7239C356.108 80.0074 357.23 78.8846 358.04 78.0372C360.446 75.6311 363.775 73.2386 367.015 71.3461C370.598 69.2611 376.886 66.5669 379.87 65.3802C380.773 65.0006 381.581 65.1665 382.383 65.1132C383.244 65.2256 383.544 65.5251 383.52 66.4101L383.196 67.7443L383.095 68.0704C382.638 68.4153 382.218 68.7976 381.723 69.105C381.074 69.792 380.229 70.3374 379.544 70.7223ZM407.612 41.3313C407.788 41.08 408.12 40.449 409.04 39.9786C409.481 39.7246 410.042 39.5376 410.815 39.4013L410.951 39.3773C411.775 39.4523 412.12 39.7437 412.256 40.4684C412.27 41.3908 411.377 42.9575 410.425 44.3584C409.904 45.8155 408.64 47.4918 407.53 48.7884L406.597 49.8337C402.962 54.9668 398.922 60.3912 394.939 65.4975C394.081 66.6177 393.087 67.7619 392.32 68.866L390.962 70.823C390.192 72.1919 389.454 73.3789 389.777 73.5421C389.898 73.6089 390.948 72.8952 392.432 71.973C394.015 70.9892 397.405 68.4978 397.71 68.2679C399.423 67.0409 401.883 65.3301 404.875 63.3493C406.321 62.3896 407.34 61.8577 408.281 61.5156C410.2 60.8688 411.521 61.1203 411.484 62.5802C411.444 63.5561 410.776 64.5988 409.715 66.3713C408.53 68.3417 407.373 70.6597 407.114 72.3789C407.042 72.7879 407.023 73.1436 407.111 73.3922C407.264 74.0259 409.026 74.0235 410.216 73.7697C412.413 73.2941 414.325 72.6928 415.964 72.1395C417.239 71.6504 418.659 71.0918 419.982 70.33C420.964 69.7606 421.771 69.1779 422.616 68.6326C423.757 67.9028 424.407 67.9644 423.445 68.9268C421.964 70.333 419.991 71.7819 417.822 73.089C414.467 75.1339 410.722 76.8954 407.839 77.7559C406.634 78.1006 404.858 77.9293 403.839 76.9639C402.334 75.5118 404.213 71.349 406.472 67.7799C407.271 66.494 407.936 65.716 407.399 65.7667C406.816 65.8254 405.025 65.745 401.151 68.2337C397.977 70.2465 396.093 71.9441 394.911 72.9011C393.219 74.2565 390.984 76.1919 389.794 77.1944C387.728 78.924 386.244 80.5949 384.693 81.3968C383.431 82.0597 381.907 81.7119 381.894 80.7894C381.872 79.9124 382.917 78.2308 384.206 76.4182C385.564 74.4612 386.994 72.8438 388.488 70.8628C390.771 67.9059 392.538 65.8768 394.455 63.2488C396.901 59.8669 399.406 55.902 402.114 52.0335C403.156 50.6166 404.621 47.804 405.581 46.3576C406.54 44.9113 406.743 42.7616 407.612 41.3313ZM449.239 55.1303C449.445 57.2078 447.047 59.5684 445.563 58.2447C445.199 57.5602 442.886 57.4395 441.905 58.0089C441.456 58.3083 439.977 58.7011 438.478 59.7142C436.178 61.2646 432.764 63.8924 431.013 65.082C427.907 67.2152 425.498 69.8859 425.49 70.68C425.955 71.0384 427.041 70.6268 427.634 70.2579C430.319 68.7717 433.123 67.3523 435.527 65.9597C437.04 65.1203 438.636 64.3104 440.264 63.3187C442.94 61.8779 449.333 57.8442 450.742 57.5957C451.378 57.4835 452.386 58.0104 452.258 58.7377C451.788 61.1547 447.802 65.0283 447.513 66.6646C447.401 67.301 447.829 67.6219 449.147 67.3895C449.647 67.3013 450.299 67.0982 451.088 66.871C454.633 65.4973 459.497 63.1424 462.186 61.1268C463.354 60.7446 463.347 61.5387 462.325 62.3353C459.278 64.6343 448.83 72.6861 444.888 70.5626C444 70.1026 443.944 68.9234 444.313 67.5813C444.807 65.7766 446.016 63.6698 446.569 62.7795C447.079 61.6326 445.358 62.1564 444.855 62.5092C444.163 62.9396 442.644 63.5597 440.826 64.6289C439.944 65.1368 438.997 66.0083 438.115 66.5162C435.423 68.0479 431.784 70.451 428.956 72.0067C425.929 73.6854 423.697 74.6075 422.552 74.8533C421.916 74.9655 421.221 74.912 420.6 74.9333C419.78 74.5936 419.534 74.2406 419.533 73.4919C419.56 73.0909 419.878 72.2861 420.21 71.6552C420.779 70.674 422.081 69.0352 423.738 67.3777C425.441 65.7122 427.529 64.1109 429.823 62.3412C432.039 60.7614 435.357 58.679 438.025 57.2837C440.549 55.9579 441.974 55.6185 442.91 55.0572C443.83 54.5867 445.784 54.2421 446.474 54.0764C447.535 53.8012 448.094 53.8788 448.648 54.4858L449.239 55.1303ZM456.759 69.6146L458.01 67.7645C456.643 67.521 456.993 66.5344 457.656 65.2725C458.349 64.0935 459.939 63.0643 460.493 63.6713L461.193 62.4469C461.217 62.3105 461.287 62.1661 461.364 61.9763C461.573 61.5432 461.926 61.0406 462.324 60.53C462.893 59.5488 463.417 58.5756 463.949 57.557C463.89 56.6425 464.024 55.3859 464.227 54.7335C465.205 52.9316 465.801 53.0466 467.111 51.3624C467.683 50.8651 467.98 50.6807 468.753 50.5444C468.798 50.5364 469.852 50.3066 470.186 50.9083C470.349 51.2318 470.328 51.1035 470.205 52.05C469.85 53.5659 469.269 54.1086 468.564 55.1139C473.224 51.9141 478.386 49.8587 483.343 47.9718C485.233 47.2421 489.356 46.339 491.477 47.5505C492.356 48.056 492.915 48.8823 492.857 50.2138C492.822 51.4089 491.445 52.9729 490.633 54.0851C488.938 56.4537 485.454 58.4773 483.43 59.7149C476.918 63.6818 471.164 65.8413 464.63 67.4339C463.485 67.6798 462.092 67.8373 460.889 67.9173C459.031 70.7111 456.088 73.9165 453.514 77.2771C450.595 81.0948 447.854 84.3964 445.951 87.1982C444.938 88.6981 444.863 89.3719 443.687 91.2968C442.794 92.8635 442.61 95.4062 441.279 96.9621L440.105 98.6223L439.279 99.5607C438.884 99.8066 438.565 99.8627 438.301 99.8654L437.221 100.496C435.459 101.996 436.298 97.4881 437.677 96.4081C438.813 95.4591 441.845 89.5078 442.689 88.9624C443.235 88.1176 443.801 87.4011 444.24 86.6632C447.685 80.859 452.46 76.0095 456.759 69.6146ZM480.884 51.1799C479.675 51.7893 478.315 52.5137 476.946 53.2836C476.283 53.7968 473.943 54.8259 472.382 55.9379C470.668 57.1649 469.623 58.0979 467.877 59.5067C465.773 61.1989 464.156 63.3778 463.362 64.1343L461.934 66.2357C462.926 66.1048 463.988 65.8296 465.156 65.4474C468.145 64.48 471.453 62.7077 474.522 61.2858C478.511 59.3933 483.032 55.7336 484.617 54.4852C485.844 53.5202 487.058 52.3813 487.937 51.3895C488.817 50.3977 489.031 50.1838 489.004 49.8362C488.603 49.1142 488.21 49.0955 487.514 49.0419C486.517 48.9535 485.282 49.2154 484.378 49.5949C483.429 49.9824 482.237 50.501 480.884 51.1799ZM502.682 54.0302C501.61 54.6156 499.482 55.6955 498.557 55.1981C498.201 55.2167 497.998 55.1204 497.947 54.9092L497.215 55.5668C496.902 55.8422 496.282 56.6121 495.921 57.1602C495.568 57.6628 495.541 58.0639 495.517 58.2002C495.445 58.6093 495.905 58.7484 496.32 58.8955C496.862 59.0641 497.903 59.4091 502.202 58.2547C503.627 57.9153 505.247 57.7177 508.982 56.2664C512.664 54.8686 514.717 53.7138 517.642 52.3614C518.987 51.7279 520.179 51.2093 521.623 50.5144C523.727 49.5709 524.884 48.7502 525.09 48.5818C525.609 48.138 526.753 47.8922 526.283 48.8119C525.959 49.3974 524.561 50.0843 523.238 50.8462C521.123 52.0998 518.728 53.4471 517.816 53.872C515.345 55.1444 513.044 56.2109 510.308 57.4859C507.56 58.587 505.667 59.5814 503.277 60.3992C502.48 60.6718 500.97 61.2464 499.999 61.5057C496.625 62.4089 495.125 62.6734 493.868 62.8069C493.058 62.9057 492.719 62.8334 492.168 62.7104C491.572 62.5953 491.566 62.376 491.16 62.1835C490.43 61.8278 490.181 60.9908 490.365 59.9454C490.469 59.3545 490.584 58.4535 491.229 57.5472C491.619 57.082 492.386 55.9779 493.554 54.847C494.562 53.8766 495.966 52.6603 497.23 51.7327C499.15 50.3373 499.759 49.8775 500.757 49.2172C501.655 48.6184 502.855 48.0544 505.221 46.6243C509.459 44.0715 511.357 43.2964 513.702 42.4866L515.539 41.8104C516.608 41.4897 520.533 40.7095 520.394 42.4956C520.328 43.1239 520.012 43.664 518.913 44.6504C518.028 45.423 517.395 46.0192 516.055 46.8719C514.016 48.2004 510.275 50.1811 506.741 51.9934C506.209 52.2634 505.487 52.6109 504.583 52.9904C503.944 53.3673 503.26 53.7522 502.682 54.0302ZM501.928 51.5649C501.578 51.8028 501.182 52.0488 500.824 52.3321L501.006 52.3001C501.369 52.2359 502.059 52.0703 502.794 51.8966C503.348 51.755 503.385 51.7924 503.802 51.6748L504.834 51.3167L505.936 50.8142C506.604 50.5202 507.182 50.2422 507.623 49.9882C509.775 48.772 513.221 46.711 514.411 45.7086C515.082 45.1499 514.63 44.9653 514.593 44.9279C514.042 44.8048 513.633 44.8769 513.587 44.8849C512.753 45.1201 511.935 45.2644 509.783 46.4806C509.387 46.7265 508.588 47.2638 508.093 47.5712L506.222 48.6939C504.692 49.6242 503.193 50.6373 501.928 51.5649ZM521.158 55.0443C521.767 53.0872 524.529 48.4166 526.539 45.5078C529.554 41.1447 533.732 34.6829 538.934 27.9083L540.75 25.6065C541.554 24.5398 540.806 25.2883 542.337 23.3447C543.043 22.3395 544.096 20.6124 545.246 19.0886C546.045 17.8026 547.104 16.2948 548.133 15.4527C548.349 14.9741 548.542 14.6319 548.871 14.2656C549.192 13.9448 549.732 13.6294 550.301 13.3969C550.726 13.2338 551.646 13.512 551.98 14.1137C552.01 14.1966 551.994 14.2875 552.031 14.3249C552.443 14.7367 552.392 15.2742 552.013 16.1778C551.874 16.4666 551.954 16.7607 551.708 17.1564C551.363 17.6135 550.866 18.1857 550.393 18.6214L546.463 22.9256L546.249 23.1394C544.527 25.1605 542.822 27.0907 542.164 27.8233C539.793 30.5314 537.342 33.6941 535.027 36.8328C531.669 41.3883 528.312 45.9439 526.227 49.5264C525.342 51.0477 524.762 52.339 524.623 53.3764C524.521 54.4513 526.134 54.2991 526.96 54.1094C528.43 53.762 530.457 53.0083 530.936 52.7918C534.454 51.0704 536.192 50.4557 539.221 48.5123C541.451 47.1063 543.723 45.9569 546.105 44.4359C547.239 43.7516 547.824 44.1768 546.758 44.9814C544.723 46.5292 540.951 49.4404 537.016 52.028C532.623 54.9605 528.024 57.3127 525.364 57.9139C522.658 58.5231 520.249 58.1992 521.158 55.0443ZM549.011 42.8225L550.051 42.4189C551.297 41.8469 552.49 41.3284 553.294 41.0103C556.521 39.6926 558.826 39.1101 561.379 38.6158C561.481 38.2896 561.628 37.9554 561.759 37.7122C562.275 36.7844 562.195 36.4903 562.868 35.6669C564.964 33.2715 568.867 30.1171 571.426 30.5907C571.894 30.6844 572.48 31.1096 572.734 31.4171C572.758 32.0294 572.301 33.1229 571.825 33.8233C570.996 35.0264 568.459 36.1784 567.678 35.6115L567.28 35.3734C566.956 35.2103 565.504 35.2021 565.339 35.8919C565.173 36.5817 564.962 37.2795 564.925 37.9907C565.197 37.9426 565.478 37.8491 565.751 37.801C571.358 36.7243 572.077 36.6415 577.245 36.3027C577.964 36.2199 579.053 36.2923 579.898 36.4956C580.448 36.6187 580.825 36.7284 580.785 36.9556C580.978 37.3621 580.269 37.8833 579.858 38.2202C579.248 38.68 578.542 38.9365 577.978 38.6397C577.323 38.3588 577.296 38.0112 576.267 38.1047C575.753 38.019 574.507 37.8424 572.941 37.9865C570.655 38.2135 567.882 38.7024 566.927 38.8707L564.882 39.2313C564.954 40.3195 565.171 41.3383 565.412 42.2206C565.749 43.3062 565.706 44.5469 564.602 46.0627C563.974 46.8781 563.02 47.7951 562.113 48.4393C560.314 49.9016 557.502 51.3664 553.892 52.3552C550.874 53.2397 547.898 53.6323 546.355 53.6401C544.994 53.6158 543.818 53.2948 542.847 52.8054C541.801 52.2411 541.136 51.5217 541.307 50.3025C541.477 49.0833 542.643 47.4685 544.611 45.8004C545.784 44.8888 546.097 44.6135 547.688 43.5843C548.327 43.2074 548.214 43.0951 549.011 42.8225ZM561.174 44.7735C560.899 43.5889 560.85 41.6157 561.102 39.942C559.176 40.3695 557.235 40.8879 555.284 41.7165C553.621 42.4061 551.779 42.863 550.19 43.6275C549.613 43.9054 548.554 44.6646 548.044 45.063C547.282 45.6377 546.926 46.405 546.41 47.3327C545.763 48.5037 546.301 49.2017 546.606 49.7204C547.082 50.5173 547.764 50.3971 548.314 50.5201C549.801 50.8305 551.512 51.3655 553.507 50.7936C555.002 50.3099 555.451 50.0105 556.619 49.6283C557.491 49.4306 559.186 48.5592 559.867 47.6903C560.426 47.0193 561.522 46.2975 561.174 44.7735Z" fill="#6BC5F7"/>
</svg>
