<svg width="247" height="103" viewBox="0 0 247 103" fill="none" xmlns="http://www.w3.org/2000/svg">
<path d="M92.0625 32.489C92.2258 33.5612 91.0682 34.3818 89.9908 35.4966C88.9883 36.6863 87.2209 36.4695 86.7555 35.3625C86.5388 34.3437 86.5413 33.3304 85.7204 32.9907C84.8915 32.6964 82.0386 32.1426 80.0386 32.4952C78.9023 32.6956 75.9587 33.655 74.1673 34.3232C72.2317 35.0608 70.1436 35.9135 68.5234 36.8597C61.9064 40.6688 57.6474 42.3447 52.2042 45.9909C45.368 50.5433 39.4545 55.8578 33.5462 60.643C31.739 62.1507 23.2804 70.16 18.1211 77.1912C16.5278 79.2337 14.1593 82.4258 13.05 84.4711C11.4943 87.2997 10.8664 90.3611 10.8292 91.8209C10.6958 93.8262 12.9554 95.4977 14.6747 95.9872C17.64 96.6534 20.418 96.3838 23.6585 95.9885C25.8617 95.7322 28.3215 95.5187 30.824 94.8132C37.7354 92.5816 41.5319 91.0314 45.5743 89.0855C48.6836 87.4362 52.0282 85.7015 57.4021 82.9483C59.9019 81.7588 62.6235 80.3101 65.2623 78.8319C70.6682 75.8969 76.2291 72.5823 80.8944 69.6017C83.8326 67.6744 83.7336 67.7358 85.7013 66.0677C86.6316 65.2871 87.0728 65.0332 88.3667 64.1885C89.0592 63.7581 89.7945 64.3331 90.0032 64.6486C90.1583 65.0176 90.0541 65.6085 89.474 66.1512C88.5436 66.9318 87.4822 67.207 86.1962 68.0063C83.8221 69.4818 83.6189 69.3855 79.753 71.8288C76.5555 73.978 72.5132 76.6725 67.7731 79.5782C65.1477 81.2302 62.3191 82.7859 59.4531 84.3042C54.0177 87.1563 48.3578 89.7837 42.3422 92.4299C37.5966 94.3676 30.271 97.9494 23.7339 99.058C17.6967 100.079 14.0417 100.327 10.9989 99.8502C2.77687 98.5255 5.02413 89.2773 9.95354 82.5509C13.2148 77.7921 16.952 73.0815 21.3578 68.8255C25.4587 64.7994 30.0276 60.867 33.9789 57.4399C39.9807 52.374 45.5523 48.7492 51.2388 44.972C52.4338 44.1888 53.7679 43.1168 54.7731 42.4111C59.7351 39.2461 64.0797 37.335 67.7397 35.0602C71.5976 32.6624 76.001 30.9171 79.4393 29.6502C80.6611 29.2146 82.8963 28.7764 83.9177 28.7284C86.308 28.6593 87.0834 28.2583 88.7518 28.5366C89.3026 28.6597 90.2064 29.0288 90.9578 29.5129C91.4311 29.8258 91.9124 30.0932 92.1585 30.4462C92.6505 31.1522 92.1827 31.8072 92.0625 32.489ZM108.34 33.0538C108.517 32.8025 108.848 32.1715 109.768 31.7011C110.209 31.4471 110.771 31.2601 111.543 31.1238L111.68 31.0998C112.503 31.1748 112.848 31.4663 112.985 32.1909C112.998 33.1133 112.105 34.68 111.154 36.0809C110.633 37.538 109.368 39.2143 108.259 40.5109L107.326 41.5562C103.69 46.6893 99.6509 52.1137 95.6678 57.22C94.8096 58.3402 93.8152 59.4844 93.048 60.5885L91.69 62.5455C90.9202 63.9144 90.1824 65.1014 90.5059 65.2646C90.6263 65.3314 91.6769 64.6177 93.1607 63.6955C94.7435 62.7118 98.1334 60.2203 98.4382 59.9904C100.152 58.7634 102.611 57.0526 105.603 55.0718C107.049 54.1121 108.068 53.5802 109.009 53.2381C110.929 52.5913 112.25 52.8428 112.213 54.3027C112.173 55.2786 111.504 56.3213 110.443 58.0938C109.259 60.0642 108.101 62.3822 107.842 64.1014C107.77 64.5105 107.752 64.8661 107.84 65.1147C107.992 65.7484 109.754 65.746 110.944 65.4922C113.142 65.0166 115.054 64.4153 116.692 63.8621C117.968 63.3729 119.387 62.8143 120.711 62.0525C121.692 61.4831 122.499 60.9004 123.344 60.3551C124.486 59.6253 125.136 59.6869 124.173 60.6493C122.692 62.0555 120.719 63.5044 118.551 64.8115C115.196 66.8564 111.45 68.6179 108.568 69.4784C107.362 69.8231 105.587 69.6518 104.568 68.6864C103.062 67.2343 104.941 63.0716 107.2 59.5024C107.999 58.2165 108.665 57.4385 108.128 57.4892C107.545 57.548 105.753 57.4675 101.879 59.9562C98.7058 61.969 96.8211 63.6666 95.6394 64.6236C93.9472 65.979 91.7122 67.9144 90.5225 68.9169C88.456 70.6465 86.9723 72.3174 85.4216 73.1193C84.1597 73.7822 82.6356 73.4344 82.6221 72.5119C82.6006 71.635 83.6458 69.9533 84.9342 68.1407C86.2922 66.1837 87.7224 64.5663 89.2168 62.5853C91.4997 59.6284 93.2668 57.5993 95.1835 54.9713C97.6295 51.5894 100.134 47.6245 102.842 43.756C103.885 42.3391 105.349 39.5265 106.309 38.0802C107.269 36.6338 107.472 34.4841 108.34 33.0538ZM149.967 46.8528C150.173 48.9304 147.775 51.2909 146.291 49.9672C145.928 49.2827 143.615 49.162 142.634 49.7314C142.184 50.0308 140.706 50.4236 139.206 51.4367C136.907 52.9872 133.493 55.6149 131.742 56.8045C128.635 58.9377 126.227 61.6084 126.219 62.4025C126.684 62.7609 127.769 62.3493 128.363 61.9804C131.047 60.4942 133.852 59.0748 136.255 57.6822C137.768 56.8428 139.365 56.0329 140.993 55.0412C143.669 53.6004 150.061 49.5667 151.47 49.3182C152.107 49.206 153.115 49.7329 152.986 50.4602C152.516 52.8772 148.53 56.7508 148.242 58.3871C148.13 59.0235 148.557 59.3444 149.876 59.112C150.375 59.0238 151.028 58.8207 151.817 58.5936C155.362 57.2198 160.225 54.8649 162.914 52.8493C164.083 52.4671 164.075 53.2612 163.054 54.0579C160.006 56.3568 149.558 64.4086 145.617 62.2851C144.729 61.8251 144.673 60.6459 145.041 59.3038C145.536 57.4991 146.744 55.3923 147.297 54.502C147.808 53.3551 146.086 53.8789 145.583 54.2317C144.891 54.6621 143.372 55.2822 141.554 56.3514C140.672 56.8593 139.726 57.7308 138.843 58.2387C136.151 59.7704 132.513 62.1735 129.684 63.7292C126.658 65.4079 124.425 66.33 123.281 66.5758C122.644 66.688 121.949 66.6345 121.329 66.6558C120.508 66.3161 120.262 65.9631 120.262 65.2144C120.289 64.8134 120.607 64.0086 120.938 63.3777C121.507 62.3965 122.809 60.7577 124.467 59.1002C126.17 57.4347 128.258 55.8334 130.552 54.0637C132.768 52.4839 136.086 50.4015 138.754 49.0062C141.278 47.6804 142.703 47.341 143.638 46.7797C144.558 46.3092 146.513 45.9646 147.202 45.7989C148.264 45.5237 148.823 45.6013 149.376 46.2084L149.967 46.8528ZM169.092 49.47C168.565 49.9592 167.9 50.7372 167.325 51.4991C167.256 52.3921 167.288 53.7076 166.759 54.4615C165.104 56.603 163.738 57.8568 161.631 59.8136C159.971 60.9872 158.719 60.5913 158.955 59.0084C159.315 57.7117 160.443 56.0595 161.424 54.7415C166.105 48.6754 172.391 44 179.058 40.4021C181.863 38.9827 185.943 37.0743 188.063 37.5371C188.154 37.5211 188.237 37.5505 188.328 37.5345C188.758 37.5907 189.376 37.8341 189.644 38.3154C189.943 38.6149 190.066 39.1658 190.018 39.4385C189.826 40.5293 187.615 43.0771 186.393 43.5127C185.65 43.7319 185.037 43.7077 184.783 43.4002C184.559 43.1756 185.139 41.8842 184.275 42.0365C183.192 42.1834 182.387 41.7528 181.722 41.7821C181.168 41.9238 180.607 42.1108 180.091 42.2899C179.294 42.5625 178.567 42.6907 178.005 42.8778C176.471 43.5888 174.885 44.8372 173.431 45.8423C171.931 46.8555 170.49 48.0344 169.092 49.47ZM208.461 47.5927C208.507 47.5846 208.552 47.5766 208.651 47.5151C211.268 45.16 223.908 33.4187 226.836 33.2988C229.726 33.1415 229.336 35.104 227.893 38.0449C227.406 39.0555 226.155 42.4028 226.019 43.1755C225.485 45.9562 227.966 45.871 229.974 45.4729C232.338 45.0561 235.289 43.3026 237.177 42.089L237.185 42.0435C237.284 41.982 237.42 41.958 237.511 41.942C238.663 41.6507 238.61 42.4528 237.613 43.1131C233.966 45.5617 229.563 48.8043 226.598 48.8868C223.103 48.9745 222.929 46.7151 223.803 43.2581C224.07 42.2421 224.206 40.7208 224.358 39.8572C224.599 38.4936 224.411 37.5577 223.264 38.0683C221.882 38.6643 219.292 40.6184 217.279 42.2946C212.886 45.9757 206.946 51.6913 205.473 52.3034C204.917 52.7097 205.016 52.6482 204.318 52.8593C203.826 52.902 202.903 52.8885 202.687 52.6185C202.54 52.204 202.331 51.8885 202.267 51.5034C202.365 49.196 208.49 41.6863 208.321 40.3949C208.321 40.3949 208.348 39.9938 207.984 40.0579C206.53 40.3144 202.902 42.4074 199.218 45.5672L193.406 50.5556L190.583 53.0792C189.241 54.1967 185.006 57.9821 183.377 56.7278C182.837 56.2946 183.006 55.3401 183.551 54.4953C185.895 50.6909 189.125 46.8625 192.132 43.2935C192.937 42.2268 192.637 41.9273 193.367 40.7857C193.468 40.4595 193.661 40.1173 193.99 39.7511L194.418 39.3233C195.286 38.6416 196.735 38.1659 197.655 38.4441C198.538 38.6849 198.968 39.4898 198.733 40.3239C196.664 43.8156 194.004 45.1654 191.24 48.6035C190.681 49.2745 189.962 50.1059 189.371 50.9588L189.836 50.5685L189.89 50.515C191.636 49.1062 193.135 48.093 194.758 46.8821C198.423 44.0779 202.065 41.41 206.321 38.5016C208.072 37.312 211.922 34.211 213.9 34.4787C214.307 34.6713 214.328 34.7996 214.376 35.2755C214.799 36.1259 212.062 40.6601 210.624 43.0717C209.824 44.3576 207.87 47.6968 208.461 47.5927Z" fill="#6BC5F7"/>
</svg>
