<svg width="200" height="101" viewBox="0 0 200 101" fill="none" xmlns="http://www.w3.org/2000/svg">
<path d="M15.0367 43.5035C15.7185 43.3833 16.7773 43.3728 16.7773 43.3728L21.253 41.967L25.6965 39.9945C34.9257 35.8569 43.3604 29.4812 52.8651 25.7795C53.5014 25.6673 53.9239 25.7689 54.095 26.047C54.6004 26.1781 54.9454 26.4696 55.1593 27.0044C56.2319 29.4136 55.0052 33.3732 53.9763 36.4613C50.8039 45.9607 49.8736 46.7413 45.4954 56.5854C42.6114 62.9512 39.2863 70.3196 36.5306 76.7068C36.0656 77.8457 33.3473 84.2703 33.7915 86.7463C33.8691 87.3051 34.4333 87.602 34.9227 87.824C35.8958 87.3001 35.912 87.9578 39.9781 83.6296C43.8064 79.6516 49.3882 73.4707 52.9518 69.4954C59.1084 62.5526 66.7139 53.6367 73.1701 46.9934C79.1985 40.7778 85.4408 35.097 91.9078 29.6408C96.2468 26.0132 104.796 18.7365 109.986 17.0287C111.002 16.7615 112.109 16.4782 112.903 16.4703C113.395 16.4276 113.595 16.7886 113.767 17.0667C114.071 17.5855 113.633 18.3233 112.32 19.5237C111.016 20.6785 109.735 20.9484 108.013 20.7235C107.628 20.6593 106.23 21.3463 106.08 21.1965C106.035 21.2045 103.923 22.1935 103.877 22.2015C101.936 23.4686 101.281 23.9364 99.3911 25.4147C96.084 27.9356 92.892 31.0527 89.7187 33.8142C85.7433 37.3777 82.0915 41.1044 78.4237 44.922C74.5045 48.916 70.7886 53.0063 67.0727 57.0966C61.4988 63.232 54.4975 71.4689 48.9691 77.5963C47.5094 79.1308 44.4351 82.5795 42.1975 84.7797C41.7163 85.2609 35.0439 93.8801 31.7578 93.5347C31.2819 93.4865 31.2685 93.3127 31.0064 93.0506C28.4446 90.5957 28.1424 90.5609 29.7459 85.2136C30.5049 82.6576 31.6649 80.075 32.6351 77.5698C36.433 67.5197 44.2145 55.3579 47.959 45.3613C49.1082 42.3402 50.1666 39.335 50.8694 36.3485C51.2889 34.4689 50.9999 33.1106 50.8259 31.5999C50.6652 30.263 47.7241 30.2091 47.5343 30.2866C46.7295 30.6047 45.2831 30.8157 43.9971 31.615C37.6528 35.376 31.5734 39.883 25.59 43.096C23.3014 44.3363 20.5317 46.0578 18.1602 47.2686C16.663 48.0171 14.96 48.9339 13.4949 49.5005C12.6901 49.8186 12.2062 49.8159 11.3105 50.1499C10.7036 50.345 9.57254 50.016 9.40401 49.4732C9.09638 48.4705 9.36624 47.1898 10.5237 45.6205C10.9221 45.1099 12.4754 44.0433 13.248 43.907C13.248 43.907 14.6811 43.5222 15.0367 43.5035ZM74.9927 61.8656C76.5191 59.7028 78.6953 57.6015 81.1415 55.7169C82.521 54.6369 84.0128 53.6692 85.4966 52.747C85.4885 52.0438 87.1299 50.4772 88.2394 49.9293C88.718 49.7128 90.9853 49.0928 91.5467 48.9057C91.8275 48.8122 92.0173 48.7346 92.1991 48.7026C92.814 48.462 93.2766 48.3364 93.5573 48.2429C98.9394 46.9416 105.554 46.3918 110.722 46.053C113.439 45.8823 114.126 45.9813 116.26 46.618C117.399 46.9015 117.99 48.2947 116.121 49.1527C115.271 49.4787 115.145 49.1926 114.554 49.2968C113.571 49.3822 112.953 48.3902 113.126 47.6549C113.089 47.6175 113.044 47.6255 112.998 47.6335C112.175 47.5585 111.421 47.3391 110.581 47.3551C109.431 47.3816 108.225 47.7264 106.953 47.9508C105.172 48.3088 103.341 48.4556 101.477 48.7842C102.327 49.2068 102.729 49.9287 102.606 50.8752C102.101 53.7387 98.1146 56.8638 95.1685 58.8366C94.1178 59.5503 93.0431 60.4004 91.9095 61.0847C91.1716 61.5231 89.9631 62.1325 89.1878 62.5335C87.0436 63.7043 85.2817 64.4553 83.2311 65.3454C81.659 66.0189 78.94 67.203 76.6968 67.6866C75.507 67.9405 74.4402 67.9965 73.8305 67.7076C72.6486 67.1673 72.6057 66.162 73.0253 65.0311C73.4369 63.9456 74.295 62.8254 74.9927 61.8656ZM100.63 51.0915C101.007 49.7039 97.8489 50.1285 95.5228 50.5827C93.3198 51.5877 90.6009 53.5205 89.4405 53.8572C89.1144 53.9587 87.9941 54.0682 87.1251 54.0012C86.2642 54.6374 85.4034 55.2737 84.473 56.0543C83.6416 56.7734 82.8877 57.3027 82.1846 58.0432C81.6419 58.6233 81.0377 59.3024 80.471 60.0189C79.6209 61.0936 78.8991 62.1897 78.6666 62.7592C78.5116 63.1388 78.4555 63.457 78.5518 63.6602C78.7443 64.0667 80.025 63.7968 81.565 63.3051C82.7334 62.9229 83.9312 62.6236 85.1236 62.1051C86.2171 61.648 88.5672 60.3088 89.0538 60.0469C91.0295 59.0819 92.0856 58.5874 94.2003 57.3338C95.235 56.7109 96.668 55.5775 97.5368 54.8958C99.0687 53.7009 100.261 52.4337 100.63 51.0915ZM106.828 60.3038C106.537 58.4615 107.699 56.3628 109.199 53.8524C110.56 51.6307 111.776 49.4785 113.008 47.984C114.457 46.011 116.232 45.4337 117.583 45.0195C118.326 44.8004 119.152 45.3593 119.168 46.0171C119.358 46.6882 118.655 47.4287 118.067 48.0169C117.097 49.0247 116.26 49.5246 115.696 49.9764C115.153 50.5565 114.551 50.9708 114.132 51.3531C113.177 52.2701 112.619 52.9411 111.897 54.0373C110.868 55.628 110.587 56.4702 110.681 57.6867C110.783 59.6065 113.285 58.901 114.833 58.3638C117.854 57.2146 120.835 56.2926 123.776 54.8492C125.798 53.8762 127.867 52.6305 129.717 51.3795C130.658 51.0374 131.519 51.1498 130.779 51.8529C125.811 55.5473 119.021 60.0917 113.157 61.8742C110.457 62.7027 107.248 62.9161 106.828 60.3038ZM127.446 28.0426C128.51 27.5027 129.064 27.3611 129.403 27.4333C129.893 27.6553 130.336 27.8853 129.302 29.2568C127.503 31.4677 126.968 32.0024 125.081 33.216C124.982 33.2775 123.142 34.2184 122.386 33.5151C122.124 33.253 122.418 32.5846 122.3 32.253C122.064 30.8412 124.58 29.5609 126.481 28.5211C127.219 28.0827 127.005 28.2966 127.446 28.0426ZM152.345 43.0297L152.299 43.0377C152.246 43.0912 152.163 43.0617 152.064 43.1232C151 43.6632 148.776 43.7912 148.064 43.0798C147.056 43.3016 146.094 43.5154 145.516 43.7934L144.353 44.3948C143.38 44.9187 140.84 45.5868 139.813 46.1641C138.544 46.8725 137.279 47.8001 136.105 48.7117C134.977 49.6152 134.245 50.2729 133.352 51.0909C133.084 51.3582 132.456 52.1737 132.216 52.7886C131.983 53.3581 131.842 53.9115 131.815 54.3126C131.628 54.874 133.312 55.0614 133.978 55.0321C135.082 55.0136 138.374 54.0809 138.935 53.8938C143.477 52.6084 149.966 49.5266 154.851 47.3C157.548 45.9876 158.158 45.5278 160.773 44.186C162.08 43.5151 162.968 43.9751 161.596 45.0096C159.974 46.2206 157.428 47.4181 155.255 48.506C152.541 49.9093 148.403 52.4006 145.002 53.7049C142.063 54.8836 134.957 57.7221 132.016 58.4168C130.773 58.7241 126.703 59.5738 126.831 57.3492C126.89 56.7663 126.965 56.0926 127.224 55.122C127.467 54.2424 127.828 53.6943 128.341 53.0313C128.908 52.3148 130.031 51.192 130.841 50.3446C133.247 47.9385 136.575 45.546 139.816 43.6535C143.398 41.5685 149.687 38.8743 152.67 37.6876C153.574 37.308 154.382 37.4739 155.184 37.4206C156.045 37.533 156.344 37.8325 156.32 38.7175L155.997 40.0517L155.895 40.3778C155.438 40.7227 155.018 41.105 154.524 41.4124C153.874 42.0994 153.029 42.6448 152.345 43.0297ZM168.097 45.2727C167.025 45.8581 164.896 46.938 163.971 46.4406C163.616 46.4592 163.412 46.3629 163.362 46.1517L162.629 46.8093C162.316 47.0847 161.696 47.8546 161.335 48.4027C160.982 48.9053 160.956 49.3064 160.932 49.4427C160.859 49.8518 161.319 49.9909 161.734 50.138C162.277 50.3066 163.317 50.6516 167.616 49.4972C169.041 49.1578 170.661 48.9602 174.396 47.5089C178.078 46.1111 180.131 44.9563 183.056 43.6039C184.401 42.9704 185.593 42.4518 187.037 41.7569C189.141 40.8134 190.299 39.9927 190.505 39.8243C191.023 39.3805 192.168 39.1347 191.697 40.0544C191.374 40.6399 189.975 41.3268 188.652 42.0887C186.537 43.3423 184.142 44.6896 183.23 45.1146C180.76 46.3869 178.458 47.4534 175.723 48.7284C172.974 49.8295 171.081 50.8239 168.691 51.6417C167.894 51.9143 166.384 52.4889 165.413 52.7482C162.039 53.6514 160.539 53.9159 159.283 54.0494C158.472 54.1482 158.133 54.0759 157.582 53.9529C156.986 53.8378 156.98 53.6186 156.574 53.426C155.844 53.0703 155.595 52.2333 155.779 51.1879C155.884 50.597 155.999 49.696 156.643 48.7897C157.033 48.3245 157.8 47.2204 158.969 46.0896C159.976 45.1191 161.38 43.9028 162.644 42.9752C164.564 41.5798 165.174 41.12 166.171 40.4597C167.069 39.8609 168.27 39.2969 170.636 37.8668C174.873 35.314 176.771 34.5389 179.116 33.7291L180.953 33.0529C182.022 32.7322 185.947 31.9521 185.809 33.7381C185.742 34.3664 185.426 34.9065 184.328 35.8929C183.443 36.6655 182.809 37.2617 181.47 38.1144C179.43 39.443 175.689 41.4237 172.155 43.2359C171.623 43.5059 170.901 43.8534 169.997 44.2329C169.359 44.6098 168.674 44.9948 168.097 45.2727ZM167.342 42.8074C166.992 43.0453 166.596 43.2913 166.238 43.5746L166.42 43.5426C166.784 43.4785 167.473 43.3128 168.209 43.1391C168.762 42.9975 168.799 43.0349 169.217 42.9173L170.249 42.5592L171.35 42.0567C172.018 41.7627 172.596 41.4847 173.037 41.2307C175.189 40.0145 178.635 37.9536 179.825 36.9511C180.496 36.3924 180.044 36.2078 180.007 36.1704C179.456 36.0473 179.047 36.1194 179.001 36.1274C178.167 36.3626 177.349 36.5069 175.197 37.7231C174.801 37.969 174.002 38.5063 173.507 38.8137L171.636 39.9364C170.107 40.8667 168.607 41.8798 167.342 42.8074Z" fill="#6BC5F7"/>
</svg>
