<svg width="399" height="153" viewBox="0 0 399 153" fill="none" xmlns="http://www.w3.org/2000/svg">
<path d="M19.1131 86.3302L18.2096 87.4584C17.3809 88.6614 17.2634 89.8272 16.5737 90.7415C15.4857 92.1664 13.2666 92.5137 12.3842 92.2729C11.0285 91.7193 10.7637 90.9733 10.924 90.0642C11.1163 88.9733 12.1803 87.6847 12.8165 86.8239C13.3378 86.1154 15.9711 83.6693 15.9711 83.6693C19.8956 79.8946 33.1323 72.7603 36.9956 70.5817C48.7725 64.2333 59.5685 59.9515 71.0466 57.7955C72.3728 57.5177 74.2177 57.5447 75.4076 58.0395C76.4317 58.4755 76.7794 59.2509 77.5121 60.0906C78.6112 61.3501 77.3472 66.0209 77.3526 66.2402C77.0241 68.8524 75.0379 71.6248 73.4608 74.325C69.7452 80.6613 65.0748 84.9199 60.4849 90.9699C57.8945 94.4214 54.6037 98.3486 51.8315 101.832C49.2652 105.147 44.0576 110.954 41.8362 114.56L40.3393 116.806C39.2647 118.405 35.9768 124.313 35.9475 124.979C35.9422 125.509 35.3784 127.458 34.8517 127.947C33.0606 130.112 30.7857 133.024 30.5745 133.722C30.5745 133.722 29.2861 135.534 28.4357 135.112C28.1951 134.978 28.0079 134.791 27.9357 134.451C27.6361 134.152 27.9408 133.173 28.1733 132.604C28.2589 132.368 28.3364 132.178 28.3364 132.178C28.7585 130.034 31.1536 125.692 32.9473 123.262L33.1077 123.102C37.3099 116.504 48.7834 101.885 53.8065 95.6266C59.8401 88.133 64.8149 81.3985 69.0865 73.9073C71.9173 69.0923 76.8812 60.422 69.2984 60.2177C65.8278 60.169 60.2801 62.1602 55.374 64.2583C53.5212 65.0254 51.7968 65.8139 50.2621 66.5249C46.0834 68.4949 41.9394 70.767 37.7954 73.039C35.2555 74.4557 33.2932 75.5945 31.4217 76.7172C28.7669 78.2863 26.2484 79.8313 22.8933 82.6249C22.1314 83.1997 21.423 84.4696 20.7814 85.1112C20.1478 85.7073 19.6558 85.7501 19.1131 86.3302ZM73.4024 89.2207L73.4104 89.1752C74.084 88.3518 75.1293 87.4188 76.1239 87.0233C77.7735 86.1599 78.9393 86.7911 78.5145 88.4514C77.464 90.6625 73.3871 94.5522 71.6575 96.6187C71.1068 97.2443 70.8448 97.7309 71.0186 97.7443C71.155 97.7202 71.3422 97.9074 72.179 97.4076C73.0158 96.9077 74.2109 96.1245 74.5611 95.8865C76.1678 94.7665 80.4026 91.7297 84.5144 88.8908C88.4498 86.3032 91.5992 84.4267 93.3773 84.3334C96.313 84.168 95.8454 86.3203 94.8566 89.1811C94.3114 90.7746 93.841 92.4429 93.6112 93.4964C93.1945 95.8599 95.1544 96.4832 97.2453 96.1145C99.8815 95.6497 103.341 93.7625 105.563 92.4019L105.571 92.3564C105.67 92.295 105.806 92.2709 105.897 92.2549C107.186 91.9396 107.087 92.7497 105.937 93.5249C101.964 96.0751 97.1976 99.3818 94.0186 99.6781C92.1336 99.8784 90.2564 98.5359 90.478 96.0306C90.5901 94.6456 90.7984 93.4639 91.2447 91.9319C91.4959 91.0068 91.5252 90.341 91.5225 89.8571C91.5037 89.464 91.2202 89.0736 90.9421 88.9024C90.7015 88.7687 90.1747 88.5093 89.378 88.7819C87.83 89.3191 85.643 90.2332 83.0096 91.9306C80.4216 93.6201 77.791 95.8015 75.6736 97.3198C73.9064 98.6003 70.9149 101.33 69.2787 102.367C68.343 102.928 67.6639 103.532 66.6774 103.883C66.2442 104.091 65.902 104.284 65.5544 104.257C64.3513 104.337 63.9314 103.97 63.6692 102.96C63.7867 101.794 64.8132 100.468 66.0536 98.928C66.6738 98.1581 67.425 97.1448 67.9837 96.4738C69.0717 95.0488 70.1892 93.7068 71.0687 92.715C72.7314 90.5281 72.4293 90.4933 73.2259 89.472C73.3329 89.3651 73.3489 89.2742 73.4024 89.2207ZM135.217 53.3506C135.522 53.8694 135.335 54.4308 134.982 54.9335C134.844 55.9709 134.28 57.1713 133.456 57.845C132.483 59.1175 131.441 60.5345 130.492 61.6707C126.482 67.9267 121.726 73.9178 119.962 76.4309C118.489 78.5403 115.904 81.4623 113.688 84.5395L114.311 84.2535C118.11 82.4386 119.54 82.3185 127.107 80.3677C131.443 79.2507 130.109 79.5741 134.387 79.04C134.999 79.0641 136.138 79.3477 136.195 79.7782L136.275 80.0723C136.318 80.329 135.265 82.0561 134.893 82.1657C134.893 82.1657 133.823 82.4863 133.227 82.3713C132.856 82.4809 132.273 81.7909 131.577 81.7374C130.58 81.649 129.27 81.8359 128.561 81.6086C128.016 81.7047 127.251 81.7955 125.356 82.3059C123.179 82.9099 122.631 83.2708 120.794 83.947C118.244 84.9252 118.078 84.8663 115.442 86.8285C113.72 88.1009 112.576 89.0954 112.159 89.9616C111.627 90.9803 109.772 95.7553 109.136 97.3648C107.752 101.22 106.012 104.346 104.255 107.562C103.085 109.706 101.644 112.382 99.9999 114.962C96.2575 120.951 96.7814 119.978 94.8942 122.689C93.9505 124.044 92.7529 125.841 91.1437 127.974C90.1171 129.3 84.7387 137.075 81.383 136.125C79.6262 135.598 80.8985 132.379 81.4196 130.922C82.2749 128.569 83.0742 127.283 83.991 125.58C85.3542 123.094 86.9474 120.302 89.0378 116.939C92.3712 111.771 97.9688 103.253 104.507 94.3936C105.312 93.3269 106.071 92.2682 106.83 91.2095C105.932 91.0596 104.978 91.2279 105.165 90.6665C106.188 88.1078 107.945 87.1375 110.808 85.884L117.777 76.3317L119.074 74.4736C120.058 72.8909 121.071 71.391 121.985 69.9527L124.062 66.4156C125.131 64.5976 124.257 65.8087 126.123 62.9695C127.213 61.2798 126.893 61.6006 128.288 58.9324C128.828 57.8683 128.095 58.526 129.015 57.3069C129.047 57.1251 129.125 56.9352 130.188 55.6466C130.854 54.8687 131.549 54.1736 132.394 53.6283C133.036 52.9867 133.712 52.6472 134.413 52.92C134.76 52.9468 135.001 53.0806 135.217 53.3506ZM107.625 96.4421C107.997 95.5839 109.226 92.8569 108.336 91.9129C106.136 94.8992 103.829 97.9924 101.634 101.198C97.4052 107.448 94.7188 112.194 92.2542 115.932C90.6182 118.466 88.4985 122.495 87.4266 124.578C86.4857 126.417 86.5018 126.326 85.6171 128.596C85.136 129.826 85.6573 129.118 85.7804 129.668C86.7027 128.933 92.91 121.453 95.0753 118.165C98.9834 112.235 97.965 114.264 101.927 107.532C103.373 105.075 105.885 100.316 107.625 96.4421ZM128.025 87.2082C129.551 85.0453 131.727 82.9441 134.173 81.0594C135.553 79.9794 137.045 79.0118 138.528 78.0895C138.52 77.3863 140.162 75.8198 141.271 75.2718C141.75 75.0553 144.017 74.4353 144.579 74.2482C144.859 74.1547 145.049 74.0772 145.231 74.0451C145.846 73.8046 146.308 73.679 146.589 73.5855C151.971 72.2841 158.586 71.7343 163.754 71.3955C166.471 71.2248 167.158 71.3238 169.292 71.9605C170.431 72.2441 171.022 73.6372 169.153 74.4952C168.303 74.8213 168.177 74.5352 167.586 74.6394C166.602 74.7248 165.985 73.7327 166.158 72.9975C166.121 72.96 166.075 72.968 166.03 72.976C165.206 72.9011 164.452 72.6817 163.613 72.6976C162.463 72.7242 161.257 73.0689 159.985 73.2933C158.204 73.6513 156.372 73.7981 154.509 74.1267C155.359 74.5493 155.76 75.2713 155.637 76.2178C155.133 79.0813 151.146 82.2063 148.2 84.1791C147.15 84.8929 146.075 85.7429 144.941 86.4273C144.203 86.8656 142.995 87.4751 142.22 87.876C140.075 89.0468 138.314 89.7979 136.263 90.6879C134.691 91.3615 131.972 92.5456 129.729 93.0292C128.539 93.283 127.472 93.339 126.862 93.0501C125.68 92.5099 125.638 91.5045 126.057 90.3736C126.469 89.2881 127.327 88.1679 128.025 87.2082ZM153.662 76.4341C154.038 75.0464 150.881 75.4711 148.555 75.9253C146.352 76.9303 143.633 78.863 142.472 79.1997C142.146 79.3013 141.026 79.4107 140.157 79.3438C139.296 79.98 138.435 80.6162 137.505 81.3968C136.673 82.1159 135.919 82.6452 135.216 83.3858C134.674 83.9659 134.07 84.6449 133.503 85.3614C132.653 86.4361 131.931 87.5323 131.698 88.1017C131.543 88.4814 131.487 88.7996 131.584 89.0028C131.776 89.4092 133.057 89.1394 134.597 88.6476C135.765 88.2654 136.963 87.9662 138.155 87.4476C139.249 86.9906 141.599 85.6514 142.086 85.3894C144.061 84.4245 145.117 83.93 147.232 82.6763C148.267 82.0535 149.7 80.92 150.569 80.2383C152.1 79.0434 153.293 77.7762 153.662 76.4341ZM167.19 77.7919C166.664 78.2811 165.998 79.0591 165.423 79.821C165.354 80.7141 165.386 82.0296 164.857 82.7835C163.202 84.9249 161.836 86.1787 159.729 88.1356C158.069 89.3091 156.818 88.9132 157.053 87.3304C157.414 86.0337 158.542 84.3815 159.523 83.0634C164.204 76.9974 170.489 72.3219 177.157 68.724C179.961 67.3047 184.041 65.3962 186.162 65.8591C186.252 65.8431 186.335 65.8725 186.426 65.8565C186.857 65.9127 187.474 66.1561 187.742 66.6374C188.041 66.9369 188.164 67.4877 188.116 67.7604C187.924 68.8513 185.713 71.399 184.491 71.8347C183.748 72.0538 183.136 72.0297 182.882 71.7221C182.657 71.4975 183.237 70.2062 182.374 70.3585C181.291 70.5054 180.486 70.0748 179.82 70.1041C179.267 70.2457 178.705 70.4328 178.189 70.6118C177.392 70.8845 176.665 71.0127 176.104 71.1998C174.569 71.9108 172.984 73.1592 171.529 74.1643C170.029 75.1774 168.589 76.3563 167.19 77.7919ZM206.56 75.9146C206.605 75.9066 206.651 75.8986 206.749 75.8371C209.367 73.4819 222.006 61.7406 224.934 61.6207C227.825 61.4634 227.434 63.4259 225.991 66.3668C225.505 67.3774 224.254 70.7248 224.118 71.4975C223.583 74.2781 226.064 74.1929 228.072 73.7948C230.436 73.3781 233.387 71.6245 235.275 70.4109L235.283 70.3655C235.382 70.304 235.518 70.2799 235.609 70.2639C236.761 69.9726 236.708 70.7748 235.711 71.435C232.064 73.8837 227.661 77.1263 224.696 77.2087C221.201 77.2964 221.027 75.0371 221.901 71.58C222.168 70.5641 222.304 69.0427 222.457 68.1791C222.697 66.8155 222.51 65.8797 221.363 66.3902C219.981 66.9862 217.39 68.9404 215.377 70.6165C210.984 74.2976 205.044 80.0132 203.571 80.6253C203.015 81.0316 203.114 80.9702 202.416 81.1813C201.924 81.224 201.002 81.2105 200.785 80.9404C200.638 80.526 200.429 80.2104 200.365 79.8254C200.464 77.5179 206.588 70.0083 206.42 68.7168C206.42 68.7168 206.446 68.3158 206.083 68.3799C204.628 68.6363 201 70.7294 197.316 73.8892L191.504 78.8776L188.681 81.4012C187.339 82.5186 183.104 86.304 181.476 85.0498C180.936 84.6166 181.104 83.662 181.649 82.8172C183.994 79.0128 187.223 75.1845 190.23 71.6155C191.035 70.5487 190.735 70.2492 191.465 69.1077C191.567 68.7815 191.759 68.4393 192.088 68.073L192.516 67.6453C193.385 66.9636 194.834 66.4879 195.754 66.7661C196.636 67.0068 197.067 67.8117 196.831 68.6459C194.762 72.1375 192.102 73.4874 189.338 76.9254C188.779 77.5964 188.06 78.4279 187.47 79.2807L187.935 78.8904L187.988 78.8369C189.734 77.4281 191.234 76.415 192.857 75.204C196.522 72.3998 200.163 69.7319 204.419 66.8235C206.17 65.6339 210.02 62.533 211.999 62.8006C212.405 62.9932 212.427 63.1215 212.475 63.5975C212.897 64.4478 210.16 68.9821 208.722 71.3936C207.923 72.6796 205.969 76.0188 206.56 75.9146ZM262.838 54.9373C263.044 57.0148 260.646 59.3754 259.162 58.0517C258.798 57.3671 256.486 57.2465 255.504 57.8158C255.055 58.1152 253.577 58.5081 252.077 59.5212C249.778 61.0716 246.364 63.6994 244.613 64.889C241.506 67.0222 239.097 69.6929 239.089 70.487C239.555 70.8454 240.64 70.4338 241.234 70.0649C243.918 68.5787 246.722 67.1593 249.126 65.7666C250.639 64.9273 252.235 64.1174 253.863 63.1257C256.54 61.6849 262.932 57.6512 264.341 57.4027C264.977 57.2905 265.985 57.8174 265.857 58.5446C265.387 60.9616 261.401 64.8353 261.112 66.4716C261 67.108 261.428 67.4289 262.746 67.1964C263.246 67.1083 263.899 66.9052 264.687 66.678C268.233 65.3042 273.096 62.9494 275.785 60.9338C276.954 60.5516 276.946 61.3457 275.924 62.1423C272.877 64.4413 262.429 72.4931 258.487 70.3696C257.6 69.9095 257.543 68.7304 257.912 67.3882C258.407 65.5835 259.615 63.4768 260.168 62.5865C260.679 61.4395 258.957 61.9633 258.454 62.3162C257.762 62.7466 256.243 63.3667 254.425 64.4359C253.543 64.9438 252.596 65.8153 251.714 66.3232C249.022 67.8548 245.383 70.258 242.555 71.8137C239.528 73.4924 237.296 74.4145 236.152 74.6603C235.515 74.7725 234.82 74.7189 234.2 74.7402C233.379 74.4005 233.133 74.0476 233.133 73.2989C233.159 72.8979 233.477 72.0931 233.809 71.4621C234.378 70.481 235.68 68.8421 237.338 67.1847C239.04 65.5192 241.128 63.9179 243.422 62.1482C245.639 60.5683 248.956 58.486 251.625 57.0907C254.148 55.7649 255.574 55.4255 256.509 54.8642C257.429 54.3937 259.383 54.0491 260.073 53.8834C261.135 53.6082 261.693 53.6858 262.247 54.2928L262.838 54.9373ZM284.366 39.4267C284.776 39.3546 285.003 39.3145 285.086 39.344C287.193 38.8844 289.262 38.3874 291.385 37.8369C292.457 36.5028 293.721 34.8266 295.039 33.0969C295.218 32.5809 295.48 32.0943 295.649 31.8884L296.769 30.2817C297.707 27.9583 297.907 26.0733 299.124 25.4184C299.428 25.1885 300.431 24.7475 301.091 24.499C302.543 23.7585 303.917 24.7053 303.471 26.2373C301.998 29.0953 298.515 33.3648 295.668 36.7734C300.232 35.6163 304.796 34.4593 309.32 33.5295C310.911 33.2489 313.632 32.5488 315.659 32.5438C316.333 32.469 317.007 32.3942 317.71 32.4024C320.953 32.4911 327.317 32.1177 326.831 36.1229C326.662 37.0774 323.625 36.0716 323.566 35.1572C323.584 34.8016 323.662 34.6118 323.715 34.5583C323.625 34.5743 323.496 34.5529 323.247 34.4647C321.649 34.042 319.726 34.2048 318.084 34.2741C317.638 34.3088 316.488 34.3353 316.344 34.4048C314.023 34.3296 304.954 36.8095 304.818 36.8336C300.89 37.8784 297.024 38.8243 293.142 39.8612C290.209 43.5051 286.33 48.0205 283.171 52.4531C282.005 54.0679 280.93 55.6666 279.992 57.2413C279.107 58.7626 278.142 60.7383 278.004 61.7757C277.76 63.404 278.581 63.7437 280.383 63.514C281.686 63.3725 283.218 62.9262 284.493 62.4371C285.859 61.932 288.19 60.9484 290.971 59.6654C292.46 58.9624 295.791 57.0538 298.583 55.4607C299.513 54.6801 300.018 54.8112 299.449 55.7924C297.519 57.4979 295.463 58.9174 292.875 60.6068C290.332 62.2882 287.295 64.2771 283.991 65.7846C281.932 66.7201 280.149 67.3428 278.748 67.5458C277.21 67.7728 276.063 67.5347 275.443 66.8074C274.718 65.9222 274.643 64.3501 275.514 61.9064C276.511 59.0001 279.339 54.4498 282.531 49.8354C284.656 46.7743 286.971 43.6356 289.032 40.9381L288.941 40.9541L288.987 40.9461C288.022 41.4246 284.549 42.3893 282.199 42.9798C279.822 43.9715 276.48 44.6929 274.956 44.3451C273.98 44.385 273.448 43.9063 273.501 43.1042L273.525 42.9679C273.846 41.8984 275.479 40.3773 276.76 40.1074C278.313 39.7895 282.821 39.6992 284.366 39.4267ZM295.694 61.6951C295.403 59.8528 296.565 57.7541 298.065 55.2437C299.426 53.022 300.642 50.8698 301.874 49.3753C303.323 47.4023 305.098 46.8251 306.449 46.4108C307.192 46.1917 308.018 46.7506 308.034 47.4084C308.224 48.0795 307.521 48.82 306.933 49.4082C305.963 50.416 305.126 50.9159 304.562 51.3677C304.019 51.9478 303.417 52.3622 302.998 52.7444C302.043 53.6614 301.485 54.3324 300.763 55.4286C299.734 57.0193 299.453 57.8615 299.547 59.0781C299.649 60.9978 302.151 60.2923 303.699 59.7551C306.72 58.6059 309.702 57.6839 312.642 56.2405C314.664 55.2675 316.733 54.0219 318.583 52.7708C319.524 52.4287 320.385 52.5411 319.645 53.2442C314.677 56.9386 307.887 61.483 302.023 63.2655C299.323 64.094 296.114 64.3074 295.694 61.6951ZM316.312 29.4339C317.376 28.894 317.93 28.7524 318.269 28.8246C318.759 29.0466 319.203 29.2766 318.168 30.6481C316.369 32.859 315.834 33.3937 313.947 34.6073C313.848 34.6688 312.008 35.6097 311.252 34.9064C310.99 34.6443 311.284 33.9759 311.166 33.6443C310.93 32.2326 313.446 30.9522 315.347 29.9124C316.085 29.474 315.871 29.6879 316.312 29.4339ZM317.812 53.7436C319.338 51.5807 321.514 49.4795 323.96 47.5949C325.34 46.5149 326.832 45.5472 328.315 44.625C328.307 43.9218 329.949 42.3552 331.058 41.8072C331.537 41.5907 333.804 40.9707 334.366 40.7837C334.646 40.6901 334.836 40.6126 335.018 40.5806C335.633 40.34 336.095 40.2144 336.376 40.1209C341.758 38.8195 348.373 38.2697 353.541 37.9309C356.258 37.7602 356.945 37.8592 359.079 38.4959C360.218 38.7795 360.809 40.1726 358.94 41.0306C358.09 41.3567 357.964 41.0706 357.373 41.1748C356.389 41.2602 355.772 40.2681 355.945 39.5329C355.908 39.4954 355.862 39.5034 355.817 39.5115C354.993 39.4365 354.239 39.2171 353.4 39.233C352.25 39.2596 351.044 39.6043 349.772 39.8287C347.991 40.1868 346.159 40.3335 344.296 40.6621C345.146 41.0847 345.547 41.8067 345.425 42.7532C344.92 45.6167 340.934 48.7417 337.987 50.7145C336.937 51.4283 335.862 52.2784 334.728 52.9627C333.99 53.4011 332.782 54.0105 332.007 54.4114C329.863 55.5822 328.101 56.3333 326.05 57.2234C324.478 57.8969 321.759 59.081 319.516 59.5646C318.326 59.8184 317.259 59.8744 316.649 59.5856C315.468 59.0453 315.425 58.04 315.844 56.909C316.256 55.8235 317.114 54.7034 317.812 53.7436ZM343.449 42.9695C343.825 41.5818 340.668 42.0065 338.342 42.4607C336.139 43.4657 333.42 45.3984 332.259 45.7351C331.933 45.8367 330.813 45.9462 329.944 45.8792C329.083 46.5154 328.222 47.1516 327.292 47.9322C326.46 48.6514 325.707 49.1806 325.003 49.9212C324.461 50.5013 323.857 51.1803 323.29 51.8968C322.44 52.9716 321.718 54.0677 321.485 54.6372C321.33 55.0168 321.274 55.335 321.371 55.5382C321.563 55.9446 322.844 55.6748 324.384 55.183C325.552 54.8009 326.75 54.5016 327.943 53.983C329.036 53.526 331.386 52.1868 331.873 51.9248C333.848 50.9599 334.904 50.4654 337.019 49.2117C338.054 48.5889 339.487 47.4554 340.356 46.7738C341.888 45.5788 343.08 44.3116 343.449 42.9695ZM357.362 39.151L357.37 39.1056C358.043 38.2821 359.089 37.3491 360.083 36.9536C361.733 36.0902 362.899 36.7214 362.474 38.3817C361.423 40.5928 357.346 44.4825 355.617 46.549C355.066 47.1746 354.804 47.6612 354.978 47.6746C355.114 47.6505 355.301 47.8377 356.138 47.3379C356.975 46.838 358.17 46.0548 358.52 45.8169C360.127 44.6968 364.362 41.66 368.474 38.8211C372.409 36.2335 375.559 34.357 377.337 34.2637C380.272 34.0983 379.805 36.2506 378.816 39.1114C378.271 40.7049 377.8 42.3732 377.571 43.4267C377.154 45.7902 379.114 46.4135 381.205 46.0448C383.841 45.58 387.3 43.6928 389.522 42.3322L389.53 42.2867C389.629 42.2253 389.765 42.2012 389.856 42.1852C391.145 41.8699 391.046 42.68 389.897 43.4552C385.924 46.0054 381.157 49.3121 377.978 49.6084C376.093 49.8087 374.216 48.4662 374.437 45.9609C374.549 44.5759 374.758 43.3942 375.204 41.8622C375.455 40.9371 375.485 40.2713 375.482 39.7874C375.463 39.3943 375.18 39.0039 374.901 38.8328C374.661 38.699 374.134 38.4396 373.337 38.7122C371.789 39.2494 369.602 40.1635 366.969 41.8609C364.381 43.5504 361.75 45.7318 359.633 47.2501C357.866 48.5306 354.874 51.2601 353.238 52.2973C352.302 52.8586 351.623 53.4628 350.637 53.8129C350.204 54.0214 349.861 54.2138 349.514 54.187C348.311 54.2671 347.891 53.9007 347.629 52.89C347.746 51.7243 348.773 50.3982 350.013 48.8583C350.633 48.0884 351.384 47.0751 351.943 46.4041C353.031 44.9792 354.148 43.6371 355.028 42.6453C356.691 40.4584 356.389 40.4236 357.185 39.4023C357.292 39.2954 357.308 39.2045 357.362 39.151Z" fill="#6BC5F7"/>
</svg>
