<svg width="361" height="114" viewBox="0 0 361 114" fill="none" xmlns="http://www.w3.org/2000/svg">
<path d="M63.4466 54.6552C63.6035 55.0973 63.2008 56.0491 62.6518 56.4982C62.331 56.819 62.0691 57.3056 61.5219 57.5782C60.6557 57.9952 59.4097 58.0681 59.2474 57.6563C59.0816 57.0983 59.3684 56.1376 58.8212 55.9112C58.0885 55.5706 57.1527 55.3833 55.8283 55.7342C53.8623 56.2277 52.1761 56.9654 50.8126 57.705C50.0729 58.0703 48.3174 59.2019 47.5955 59.7989C45.8364 61.2835 44.7118 62.3332 44.1932 63.2761C43.5517 64.4168 43.1117 66.0798 42.9942 67.2455C42.8946 68.643 43.0677 69.9924 43.337 71.2954C43.6474 72.5325 44.0326 73.8445 44.4802 74.9693C44.8832 76.014 45.2969 76.998 45.6303 77.9374C48.4376 77.002 51.9758 76.0845 54.9008 75.4807C57.578 74.9499 56.8258 75.0532 58.9291 74.4474C61.002 73.847 63.394 73.1023 65.4529 73.4145C65.6686 73.5233 65.7328 73.6588 65.5528 74.0135C64.3622 75.1042 64.2659 74.6514 62.4461 75.6476C62.1378 75.7313 62.0254 75.3694 61.1591 75.2873C60.7509 75.2712 60.2465 75.3014 59.808 75.2907C57.5425 75.9837 55.1648 76.814 53.6746 77.1061C51.386 77.5978 48.7123 78.2747 45.9817 79.1085C46.4988 80.8376 46.7307 81.8537 46.8895 82.6184C47.4568 85.8948 44.7874 91.2098 39.6454 94.7295C35.7724 97.3795 31.5054 99.5998 29.6304 100.576C25.9676 102.367 14.2107 105.938 10.5673 106.286C9.16451 106.416 5.97214 107.038 4.74214 106.521C3.29643 105.895 1.95766 105.162 1.97354 104.073C2.00362 102.57 2.69859 101.127 4.17605 99.5744C5.95829 97.7922 9.34997 94.8747 12.6473 92.8253C16.269 90.6013 19.1921 89.1757 21.5431 87.9978C26.5408 85.2963 30.7437 83.9387 36.1604 81.6917C37.9321 80.9683 40.7359 79.8867 42.7001 79.0706C42.0401 76.4859 41.0555 71.5803 41.1835 69.3558C41.4699 65.4004 43.8097 61.2885 47.4723 58.0003C48.3367 57.2607 49.3009 56.621 50.2634 56.1577C52.0975 55.2471 55.1347 54.0069 57.6764 53.4119C59.7833 52.9523 61.6246 52.8332 62.4286 53.6016C62.9884 54.0901 63.2718 53.9814 63.4466 54.6552ZM43.6546 84.9798C43.7666 82.8461 43.5276 82.0368 42.9676 80.051C40.0088 81.0132 37.1498 82.0751 34.8559 83.0961C30.1557 85.2754 26.6569 86.8025 22.0851 89.2528C18.6487 91.0918 15.9787 92.4141 12.701 94.5187C11.8134 95.0569 6.37374 98.5997 5.69861 101.596C5.13393 104.132 9.77384 104.459 12.6062 104.048C15.1105 103.665 19.0391 103.031 22.6484 101.543C24.4255 100.79 26.9869 100.25 28.9903 99.5442C33.3536 97.7766 36.0645 95.8893 38.4956 94.2569C42.3383 91.6123 43.5034 87.502 43.6546 84.9798ZM57.1309 84.7761L57.9649 83.5428C57.054 83.3804 57.2875 82.7227 57.7294 81.8814C58.1909 81.0954 59.2514 80.4093 59.6205 80.814L60.0874 79.9977C60.1034 79.9068 60.1497 79.8105 60.2014 79.684C60.3404 79.3952 60.5756 79.0602 60.8412 78.7197C61.2207 78.0656 61.57 77.4168 61.9246 76.7378C61.8853 76.1281 61.9743 75.2904 62.1097 74.8555C62.762 73.6542 63.1595 73.7309 64.0327 72.608C64.4141 72.2765 64.612 72.1536 65.1271 72.0627C65.1574 72.0574 65.8597 71.9042 66.0826 72.3053C66.1913 72.521 66.1771 72.4354 66.0952 73.0664C65.8582 74.0771 65.4715 74.4389 65.001 75.109C68.1076 72.9758 71.5494 71.6056 74.854 70.3476C76.1141 69.8612 78.8627 69.2591 80.2763 70.0668C80.8628 70.4038 81.2354 70.9546 81.1963 71.8423C81.1733 72.6391 80.2555 73.6817 79.7137 74.4231C78.5838 76.0023 76.2614 77.3513 74.9122 78.1764C70.5704 80.821 66.7347 82.2607 62.3784 83.3224C61.6155 83.4863 60.6868 83.5913 59.8847 83.6447C58.6461 85.5072 56.6839 87.6441 54.9677 89.8845C53.0216 92.4296 51.1948 94.6307 49.926 96.4986C49.2505 97.4985 49.2007 97.9477 48.4166 99.231C47.8214 100.275 47.6986 101.971 46.8111 103.008L46.0288 104.115L45.4781 104.74C45.2143 104.904 45.0022 104.942 44.8257 104.943L44.1056 105.364C42.9311 106.364 43.4904 103.359 44.41 102.639C45.1675 102.006 47.1883 98.0383 47.7515 97.6747C48.115 97.1115 48.4929 96.6339 48.7851 96.1419C51.0822 92.2725 54.2653 89.0395 57.1309 84.7761ZM73.2144 72.4864C72.4088 72.8927 71.5015 73.3756 70.589 73.8888C70.147 74.231 68.5874 74.917 67.5465 75.6584C66.404 76.4764 65.7072 77.0984 64.5433 78.0376C63.1407 79.1657 62.0625 80.6183 61.5331 81.1227L60.5815 82.5236C61.2428 82.4363 61.9504 82.2528 62.7293 81.998C64.7221 81.3531 66.9269 80.1716 68.973 79.2236C71.6323 77.962 74.6462 75.5222 75.7031 74.6899C76.5212 74.0466 77.3303 73.2873 77.9167 72.6261C78.503 71.9649 78.6456 71.8223 78.6277 71.5906C78.3603 71.1093 78.0982 71.0967 77.6348 71.061C76.9699 71.0021 76.1464 71.1767 75.544 71.4297C74.9112 71.6881 74.1163 72.0338 73.2144 72.4864ZM87.7468 74.3866C87.0321 74.7769 85.6133 75.4968 84.9965 75.1651C84.7594 75.1776 84.6239 75.1134 84.5901 74.9726L84.1017 75.411C83.8932 75.5946 83.4797 76.1079 83.2391 76.4732C83.0039 76.8083 82.9861 77.0757 82.9701 77.1666C82.922 77.4393 83.2286 77.532 83.5049 77.6301C83.8668 77.7425 84.5602 77.9725 87.4264 77.2029C88.3764 76.9767 89.4566 76.8449 91.9466 75.8774C94.401 74.9455 95.7698 74.1757 97.7197 73.274C98.6163 72.8517 99.4112 72.506 100.374 72.0427C101.776 71.4137 102.548 70.8666 102.685 70.7543C103.031 70.4584 103.794 70.2946 103.48 70.9077C103.265 71.298 102.333 71.756 101.45 72.2639C100.041 73.0997 98.4435 73.9978 97.8357 74.2811C96.1888 75.1294 94.6542 75.8404 92.8308 76.6903C90.9985 77.4245 89.7366 78.0874 88.1431 78.6326C87.612 78.8143 86.6049 79.1974 85.9579 79.3702C83.7085 79.9724 82.7085 80.1487 81.8707 80.2377C81.3306 80.3036 81.1043 80.2554 80.7371 80.1733C80.3395 80.0966 80.336 79.9505 80.065 79.8221C79.5783 79.5849 79.4125 79.027 79.5354 78.3301C79.6048 77.9361 79.6814 77.3354 80.1109 76.7312C80.3711 76.4211 80.8826 75.685 81.6614 74.9311C82.3333 74.2842 83.269 73.4733 84.112 72.8549C85.3917 71.9246 85.7981 71.6181 86.4629 71.1779C87.0618 70.7787 87.8621 70.4027 89.4394 69.4493C92.2645 67.7474 93.53 67.2307 95.0931 66.6908L96.3176 66.24C97.0306 66.0262 99.6473 65.5061 99.5547 66.6968C99.5102 67.1157 99.3 67.4758 98.5674 68.1334C97.9775 68.6484 97.5551 69.0459 96.6622 69.6144C95.3022 70.5001 92.8087 71.8205 90.4524 73.0287C90.0977 73.2087 89.6165 73.4404 89.014 73.6934C88.5881 73.9447 88.1318 74.2013 87.7468 74.3866ZM87.2439 72.743C87.0104 72.9017 86.7466 73.0656 86.5078 73.2545L86.629 73.2331C86.8714 73.1904 87.3313 73.08 87.8214 72.9642C88.1904 72.8697 88.2154 72.8947 88.4934 72.8163L89.1814 72.5776L89.9158 72.2426C90.3614 72.0466 90.7464 71.8612 91.0405 71.6919C92.4753 70.8811 94.7727 69.5071 95.5658 68.8388C96.0132 68.4663 95.7119 68.3433 95.6869 68.3183C95.3197 68.2363 95.047 68.2844 95.0167 68.2897C94.4606 68.4465 93.9152 68.5427 92.4804 69.3535C92.2166 69.5175 91.6837 69.8757 91.3539 70.0806L90.1063 70.8291C89.0868 71.4492 88.0869 72.1246 87.2439 72.743ZM117.1 65.8639L117.069 65.8692C117.034 65.9049 116.978 65.8853 116.912 65.9263C116.203 66.2862 114.72 66.3716 114.246 65.8973C113.574 66.0452 112.932 66.1877 112.547 66.373L111.772 66.774C111.123 67.1232 109.43 67.5686 108.745 67.9535C107.899 68.4258 107.056 69.0442 106.273 69.6519C105.521 70.2543 105.033 70.6927 104.438 71.2381C104.259 71.4163 103.84 71.9599 103.68 72.3698C103.525 72.7495 103.431 73.1184 103.413 73.3858C103.288 73.7601 104.411 73.8851 104.855 73.8655C105.591 73.8532 107.785 73.2314 108.16 73.1067C111.188 72.2497 115.514 70.1951 118.77 68.7108C120.569 67.8359 120.975 67.5293 122.718 66.6348C123.59 66.1875 124.182 66.4942 123.267 67.1839C122.185 67.9912 120.489 68.7895 119.04 69.5148C117.23 70.4503 114.471 72.1112 112.204 72.9807C110.245 73.7665 105.508 75.6588 103.547 76.122C102.718 76.3268 100.005 76.8933 100.091 75.4102C100.13 75.0217 100.18 74.5725 100.352 73.9255C100.515 73.339 100.755 72.9737 101.097 72.5317C101.475 72.054 102.224 71.3055 102.764 70.7405C104.368 69.1365 106.587 67.5415 108.747 66.2798C111.135 64.8898 115.327 63.0936 117.317 62.3025C117.919 62.0495 118.457 62.1601 118.992 62.1245C119.566 62.1994 119.766 62.3991 119.75 62.9891L119.534 63.8785L119.467 64.096C119.162 64.3259 118.882 64.5808 118.552 64.7857C118.119 65.2437 117.556 65.6073 117.1 65.8639ZM120.646 71.404C120.452 70.1759 121.227 68.7767 122.227 67.1031C123.134 65.622 123.945 64.1872 124.766 63.1909C125.732 61.8755 126.916 61.4907 127.816 61.2145C128.311 61.0684 128.862 61.441 128.873 61.8795C129 62.327 128.531 62.8207 128.139 63.2127C127.492 63.8847 126.934 64.2179 126.558 64.5191C126.196 64.9058 125.795 65.1821 125.515 65.4369C124.879 66.0482 124.507 66.4956 124.025 67.2263C123.339 68.2868 123.152 68.8483 123.215 69.6593C123.283 70.9392 124.951 70.4688 125.983 70.1107C127.997 69.3445 129.985 68.7299 131.945 67.7676C133.293 67.119 134.672 66.2885 135.906 65.4545C136.533 65.2264 137.107 65.3014 136.613 65.7701C133.302 68.233 128.775 71.2626 124.866 72.451C123.066 73.0033 120.927 73.1456 120.646 71.404ZM134.392 49.8966C135.101 49.5366 135.47 49.4422 135.696 49.4904C136.023 49.6384 136.319 49.7917 135.629 50.706C134.429 52.18 134.073 52.5364 132.815 53.3455C132.749 53.3865 131.522 54.0137 131.018 53.5449C130.843 53.3702 131.039 52.9246 130.961 52.7035C130.804 51.7623 132.481 50.9088 133.748 50.2156C134.24 49.9233 134.098 50.0659 134.392 49.8966ZM152.907 57.3482C153.044 58.7332 151.445 60.3069 150.456 59.4244C150.214 58.9681 148.672 58.8876 148.018 59.2672C147.718 59.4668 146.732 59.7287 145.733 60.4041C144.2 61.4377 141.924 63.1896 140.756 63.9826C138.685 65.4048 137.079 67.1852 137.074 67.7147C137.384 67.9536 138.108 67.6792 138.504 67.4332C140.293 66.4424 142.163 65.4962 143.765 64.5677C144.774 64.0082 145.838 63.4682 146.924 62.8071C148.708 61.8466 152.969 59.1574 153.909 58.9918C154.333 58.917 155.005 59.2682 154.919 59.7531C154.606 61.3644 151.949 63.9469 151.756 65.0377C151.682 65.4619 151.967 65.6759 152.845 65.5209C153.179 65.4622 153.614 65.3268 154.14 65.1753C156.503 64.2595 159.745 62.6896 161.538 61.3458C162.317 61.091 162.312 61.6204 161.631 62.1515C159.599 63.6842 152.634 69.0521 150.006 67.6364C149.414 67.3297 149.377 66.5436 149.623 65.6488C149.952 64.4457 150.758 63.0412 151.127 62.4477C151.467 61.683 150.319 62.0322 149.984 62.2674C149.522 62.5544 148.51 62.9678 147.298 63.6806C146.71 64.0192 146.079 64.6002 145.491 64.9388C143.696 65.9599 141.27 67.562 139.384 68.5991C137.367 69.7182 135.879 70.333 135.116 70.4968C134.691 70.5717 134.228 70.5359 133.814 70.5501C133.267 70.3237 133.103 70.0884 133.103 69.5893C133.121 69.3219 133.333 68.7854 133.554 68.3647C133.933 67.7106 134.801 66.6181 135.906 65.5131C137.042 64.4028 138.434 63.3352 139.963 62.1554C141.44 61.1022 143.652 59.714 145.431 58.7838C147.114 57.8999 148.064 57.6737 148.687 57.2994C149.301 56.9858 150.604 56.756 151.063 56.6456C151.771 56.4621 152.144 56.5138 152.513 56.9185L152.907 57.3482ZM160.037 64.4878C160.443 63.183 162.284 60.0693 163.624 58.1301C165.635 55.2213 168.42 50.9134 171.888 46.3971L173.098 44.8625C173.635 44.1514 173.136 44.6504 174.157 43.3547C174.627 42.6845 175.329 41.5331 176.096 40.5172C176.628 39.6599 177.334 38.6547 178.02 38.0933C178.165 37.7743 178.293 37.5461 178.512 37.302C178.726 37.0881 179.086 36.8778 179.466 36.7228C179.749 36.6141 180.362 36.7996 180.585 37.2007C180.605 37.2559 180.594 37.3165 180.619 37.3415C180.894 37.616 180.86 37.9743 180.607 38.5768C180.514 38.7693 180.568 38.9653 180.404 39.2291C180.174 39.5339 179.842 39.9153 179.527 40.2058L176.907 43.0752L176.764 43.2178C175.617 44.5652 174.48 45.852 174.041 46.3404C172.46 48.1458 170.826 50.2543 169.283 52.3467C167.045 55.3838 164.806 58.4208 163.416 60.8092C162.826 61.8233 162.44 62.6842 162.347 63.3758C162.279 64.0924 163.354 63.9909 163.905 63.8645C164.885 63.6329 166.236 63.1304 166.555 62.9861C168.901 61.8385 170.06 61.4287 172.079 60.1331C173.565 59.1957 175.08 58.4295 176.669 57.4155C177.424 56.9593 177.815 57.2427 177.104 57.7792C175.747 58.811 173.232 60.7518 170.609 62.4769C167.68 64.4318 164.615 66 162.841 66.4008C161.037 66.8069 159.431 66.591 160.037 64.4878ZM204.04 50.534L204.009 50.5394C203.974 50.575 203.918 50.5554 203.853 50.5964C203.143 50.9563 201.66 51.0417 201.186 50.5675C200.514 50.7153 199.872 50.8578 199.487 51.0431L198.712 51.4441C198.063 51.7934 196.37 52.2387 195.685 52.6237C194.839 53.0959 193.996 53.7143 193.213 54.322C192.461 54.9244 191.973 55.3628 191.378 55.9082C191.199 56.0864 190.781 56.63 190.62 57.0399C190.465 57.4196 190.371 57.7886 190.353 58.0559C190.228 58.4302 191.351 58.5552 191.795 58.5356C192.531 58.5233 194.725 57.9015 195.1 57.7768C198.128 56.9199 202.454 54.8653 205.71 53.3809C207.509 52.506 207.915 52.1994 209.658 51.3049C210.53 50.8576 211.122 51.1643 210.207 51.854C209.125 52.6613 207.429 53.4596 205.98 54.1849C204.17 55.1204 201.411 56.7813 199.144 57.6508C197.185 58.4366 192.448 60.3289 190.487 60.7921C189.658 60.997 186.945 61.5634 187.031 60.0804C187.07 59.6918 187.12 59.2426 187.292 58.5956C187.455 58.0092 187.695 57.6438 188.037 57.2018C188.415 56.7241 189.164 55.9756 189.704 55.4106C191.308 53.8066 193.527 52.2116 195.687 50.9499C198.075 49.5599 202.267 47.7637 204.257 46.9726C204.859 46.7196 205.397 46.8302 205.932 46.7946C206.506 46.8696 206.706 47.0692 206.69 47.6592L206.474 48.5487L206.407 48.7661C206.102 48.996 205.822 49.2509 205.492 49.4558C205.059 49.9139 204.496 50.2774 204.04 50.534ZM207.944 53.31C208.962 51.8681 210.412 50.4673 212.043 49.2109C212.963 48.4909 213.957 47.8458 214.946 47.2309C214.941 46.7621 216.035 45.7178 216.775 45.3525C217.094 45.2081 218.606 44.7948 218.98 44.6701C219.167 44.6077 219.294 44.5561 219.415 44.5347C219.825 44.3743 220.133 44.2906 220.32 44.2282C223.908 43.3607 228.318 42.9941 231.764 42.7683C233.575 42.6545 234.033 42.7205 235.455 43.1449C236.215 43.334 236.609 44.2627 235.363 44.8347C234.796 45.0521 234.712 44.8614 234.318 44.9308C233.662 44.9878 233.251 44.3264 233.366 43.8362C233.341 43.8113 233.311 43.8166 233.281 43.822C232.732 43.772 232.229 43.6257 231.669 43.6363C230.903 43.654 230.099 43.8839 229.251 44.0335C228.063 44.2722 226.842 44.37 225.6 44.5891C226.167 44.8708 226.434 45.3521 226.353 45.9831C226.016 47.8921 223.359 49.9755 221.394 51.2907C220.694 51.7665 219.977 52.3332 219.222 52.7894C218.73 53.0817 217.924 53.488 217.407 53.7553C215.978 54.5358 214.803 55.0365 213.436 55.6299C212.388 56.0789 210.575 56.8683 209.08 57.1907C208.287 57.3599 207.576 57.3973 207.169 57.2047C206.381 56.8445 206.353 56.1743 206.632 55.4203C206.907 54.6967 207.479 53.9499 207.944 53.31ZM225.035 46.1273C225.286 45.2022 223.181 45.4853 221.631 45.7881C220.162 46.4581 218.349 47.7466 217.576 47.9711C217.358 48.0388 216.611 48.1118 216.032 48.0671C215.458 48.4913 214.884 48.9154 214.264 49.4358C213.71 49.9152 213.207 50.2681 212.738 50.7618C212.377 51.1485 211.974 51.6012 211.596 52.0789C211.029 52.7953 210.548 53.5261 210.393 53.9057C210.29 54.1588 210.252 54.371 210.317 54.5064C210.445 54.7774 211.299 54.5975 212.325 54.2697C213.104 54.0149 213.903 53.8154 214.698 53.4697C215.427 53.165 216.994 52.2722 217.318 52.0975C218.635 51.4542 219.339 51.1246 220.749 50.2888C221.439 49.8736 222.394 49.1179 222.973 48.6635C223.995 47.8669 224.789 47.0221 225.035 46.1273ZM234.311 43.5816L234.316 43.5513C234.765 43.0024 235.462 42.3804 236.125 42.1167C237.225 41.5411 238.002 41.9619 237.719 43.0688C237.018 44.5428 234.3 47.136 233.147 48.5137C232.78 48.9307 232.606 49.2551 232.721 49.264C232.812 49.248 232.937 49.3728 233.495 49.0396C234.053 48.7063 234.85 48.1842 235.083 48.0255C236.154 47.2788 238.977 45.2543 241.719 43.3617C244.342 41.6366 246.442 40.3856 247.627 40.3234C249.584 40.2132 249.273 41.6481 248.613 43.5552C248.25 44.6176 247.936 45.7298 247.783 46.4321C247.505 48.0078 248.812 48.4233 250.206 48.1775C251.963 47.8676 254.27 46.6095 255.751 45.7024L255.756 45.6721C255.822 45.6311 255.913 45.6151 255.974 45.6044C256.833 45.3942 256.767 45.9343 256.001 46.4511C253.352 48.1512 250.174 50.3557 248.055 50.5533C246.798 50.6868 245.547 49.7918 245.694 48.1216C245.769 47.1983 245.908 46.4104 246.206 45.3891C246.373 44.7724 246.393 44.3285 246.391 44.0059C246.378 43.7439 246.189 43.4836 246.004 43.3695C245.843 43.2803 245.492 43.1074 244.961 43.2891C243.929 43.6472 242.471 44.2566 240.715 45.3883C238.99 46.5146 237.236 47.9688 235.825 48.9811C234.647 49.8347 232.652 51.6544 231.562 52.3458C230.938 52.72 230.485 53.1228 229.827 53.3562C229.539 53.4952 229.31 53.6235 229.079 53.6057C228.277 53.659 227.997 53.4148 227.822 52.741C227.9 51.9638 228.585 51.0798 229.411 50.0532C229.825 49.5399 230.326 48.8644 230.698 48.417C231.424 47.4671 232.169 46.5724 232.755 45.9111C233.863 44.4532 233.662 44.43 234.193 43.7492C234.264 43.6779 234.275 43.6173 234.311 43.5816ZM261.777 30.3416C262.05 30.2936 262.202 30.2668 262.257 30.2865C263.661 29.9801 265.041 29.6487 266.456 29.2818C267.171 28.3924 268.014 27.2749 268.893 26.1217C269.012 25.7777 269.187 25.4533 269.299 25.3161L270.046 24.2449C270.671 22.696 270.804 21.4394 271.615 21.0028C271.819 20.8495 272.487 20.5555 272.927 20.3898C273.895 19.8962 274.811 20.5273 274.514 21.5487C273.532 23.454 271.21 26.3003 269.312 28.5727C272.354 27.8014 275.397 27.03 278.413 26.4101C279.474 26.2231 281.288 25.7564 282.639 25.753C283.088 25.7032 283.538 25.6533 284.006 25.6587C286.169 25.7179 290.411 25.469 290.087 28.1391C289.975 28.7754 287.95 28.1049 287.91 27.4953C287.923 27.2582 287.974 27.1317 288.01 27.096C287.949 27.1067 287.864 27.0924 287.698 27.0336C286.632 26.7518 285.351 26.8603 284.256 26.9065C283.958 26.9297 283.192 26.9474 283.096 26.9937C281.548 26.9436 275.502 28.5968 275.412 28.6129C272.793 29.3094 270.216 29.9401 267.628 30.6313C265.673 33.0605 263.087 36.0708 260.98 39.0259C260.203 40.1024 259.487 41.1682 258.861 42.218C258.271 43.2322 257.628 44.5494 257.535 45.241C257.373 46.3265 257.921 46.553 259.122 46.3998C259.99 46.3055 261.011 46.008 261.862 45.6819C262.773 45.3451 264.327 44.6894 266.18 43.8341C267.173 43.3654 269.394 42.093 271.255 41.0309C271.875 40.5105 272.212 40.5979 271.832 41.2521C270.546 42.3891 269.175 43.3354 267.45 44.4617C265.755 45.5826 263.73 46.9085 261.527 47.9135C260.154 48.5372 258.966 48.9524 258.032 49.0877C257.007 49.2391 256.242 49.0803 255.828 48.5954C255.345 48.0053 255.295 46.9572 255.876 45.3281C256.541 43.3906 258.426 40.357 260.554 37.2808C261.971 35.24 263.514 33.1476 264.888 31.3492L264.827 31.3599L264.858 31.3546C264.214 31.6735 261.899 32.3167 260.332 32.7104C258.748 33.3715 256.52 33.8524 255.503 33.6205C254.853 33.6472 254.498 33.328 254.534 32.7933L254.55 32.7024C254.764 31.9894 255.852 30.9753 256.706 30.7954C257.742 30.5835 260.747 30.5233 261.777 30.3416ZM276.63 41.0814C275.915 41.4717 274.496 42.1916 273.88 41.86C273.642 41.8724 273.507 41.8082 273.473 41.6674L272.985 42.1058C272.776 42.2894 272.363 42.8027 272.122 43.1681C271.887 43.5031 271.869 43.7705 271.853 43.8614C271.805 44.1341 272.112 44.2269 272.388 44.3249C272.75 44.4373 273.443 44.6673 276.309 43.8977C277.259 43.6715 278.34 43.5397 280.83 42.5722C283.284 41.6403 284.653 40.8705 286.603 39.9688C287.499 39.5465 288.294 39.2008 289.257 38.7375C290.659 38.1085 291.431 37.5614 291.568 37.4491C291.914 37.1533 292.677 36.9894 292.363 37.6025C292.148 37.9928 291.216 38.4508 290.333 38.9587C288.924 39.7945 287.327 40.6926 286.719 40.976C285.072 41.8242 283.537 42.5352 281.714 43.3852C279.882 44.1193 278.62 44.7822 277.026 45.3274C276.495 45.5091 275.488 45.8922 274.841 46.065C272.592 46.6672 271.592 46.8435 270.754 46.9325C270.214 46.9984 269.987 46.9502 269.62 46.8682C269.223 46.7915 269.219 46.6453 268.948 46.5169C268.461 46.2798 268.296 45.7218 268.418 45.0249C268.488 44.631 268.564 44.0303 268.994 43.4261C269.254 43.1159 269.766 42.3798 270.544 41.626C271.216 40.979 272.152 40.1681 272.995 39.5497C274.275 38.6194 274.681 38.3129 275.346 37.8727C275.945 37.4735 276.745 37.0975 278.322 36.1441C281.148 34.4423 282.413 33.9255 283.976 33.3856L285.201 32.9349C285.914 32.7211 288.53 32.201 288.438 33.3917C288.393 33.8105 288.183 34.1706 287.45 34.8282C286.861 35.3433 286.438 35.7407 285.545 36.3092C284.185 37.1949 281.692 38.5154 279.335 39.7235C278.981 39.9035 278.5 40.1352 277.897 40.3882C277.471 40.6395 277.015 40.8961 276.63 41.0814ZM276.127 39.4379C275.893 39.5965 275.63 39.7604 275.391 39.9493L275.512 39.928C275.754 39.8852 276.214 39.7748 276.704 39.659C277.073 39.5646 277.098 39.5895 277.376 39.5111L278.064 39.2724L278.799 38.9374C279.244 38.7414 279.629 38.556 279.924 38.3868C281.358 37.5759 283.656 36.202 284.449 35.5336C284.896 35.1612 284.595 35.0381 284.57 35.0132C284.203 34.9311 283.93 34.9792 283.9 34.9845C283.344 35.1413 282.798 35.2375 281.363 36.0483C281.1 36.2123 280.567 36.5705 280.237 36.7754L278.989 37.5239C277.97 38.144 276.97 38.8195 276.127 39.4379ZM294.822 32.9118L294.828 32.8815C295.277 32.3325 295.974 31.7105 296.637 31.4468C297.737 30.8712 298.514 31.292 298.231 32.3989C297.53 33.8729 294.812 36.4661 293.659 37.8438C293.292 38.2608 293.117 38.5852 293.233 38.5942C293.324 38.5781 293.449 38.7029 294.007 38.3697C294.565 38.0364 295.361 37.5143 295.595 37.3557C296.666 36.609 299.489 34.5845 302.231 32.6918C304.854 30.9668 306.954 29.7158 308.139 29.6536C310.096 29.5433 309.785 30.9782 309.125 32.8854C308.762 33.9477 308.448 35.0599 308.295 35.7622C308.017 37.3379 309.324 37.7534 310.718 37.5076C312.475 37.1978 314.782 35.9396 316.263 35.0326L316.268 35.0023C316.334 34.9613 316.425 34.9453 316.486 34.9346C317.345 34.7244 317.279 35.2644 316.512 35.7813C313.864 37.4814 310.686 39.6859 308.567 39.8834C307.31 40.0169 306.059 39.1219 306.206 37.4517C306.281 36.5284 306.42 35.7405 306.717 34.7192C306.885 34.1025 306.904 33.6587 306.903 33.336C306.89 33.074 306.701 32.8137 306.516 32.6996C306.355 32.6105 306.004 32.4375 305.473 32.6192C304.441 32.9774 302.983 33.5868 301.227 34.7184C299.502 35.8447 297.748 37.299 296.337 38.3112C295.159 39.1649 293.164 40.9845 292.073 41.6759C291.45 42.0502 290.997 42.453 290.339 42.6864C290.05 42.8254 289.822 42.9537 289.591 42.9358C288.788 42.9892 288.509 42.7449 288.334 42.0711C288.412 41.2939 289.096 40.4099 289.923 39.3833C290.337 38.87 290.838 38.1945 291.21 37.7472C291.935 36.7972 292.68 35.9025 293.267 35.2413C294.375 33.7834 294.174 33.7602 294.705 33.0793C294.776 33.008 294.787 32.9474 294.822 32.9118ZM322.289 19.6718C322.562 19.6237 322.713 19.597 322.769 19.6166C324.173 19.3102 325.553 18.9789 326.968 18.6119C327.683 17.7225 328.526 16.605 329.404 15.4519C329.524 15.1079 329.698 14.7835 329.811 14.6462L330.557 13.5751C331.183 12.0262 331.316 10.7695 332.127 10.3329C332.33 10.1797 332.999 9.88564 333.439 9.71993C334.407 9.22632 335.323 9.85746 335.026 10.8788C334.044 12.7841 331.722 15.6305 329.824 17.9029C332.866 17.1315 335.909 16.3601 338.925 15.7403C339.985 15.5533 341.8 15.0865 343.151 15.0831C343.6 15.0333 344.049 14.9835 344.518 14.9889C346.68 15.048 350.923 14.7991 350.599 17.4692C350.486 18.1056 348.461 17.4351 348.422 16.8254C348.435 16.5884 348.486 16.4618 348.522 16.4262C348.461 16.4369 348.376 16.4226 348.21 16.3637C347.144 16.0819 345.862 16.1905 344.768 16.2367C344.47 16.2598 343.704 16.2775 343.607 16.3238C342.06 16.2737 336.014 17.927 335.923 17.943C333.305 18.6396 330.728 19.2702 328.139 19.9614C326.184 22.3907 323.598 25.4009 321.492 28.356C320.715 29.4325 319.999 30.4984 319.373 31.5482C318.783 32.5623 318.14 33.8795 318.047 34.5711C317.885 35.6566 318.433 35.8831 319.634 35.73C320.502 35.6356 321.523 35.3381 322.374 35.012C323.284 34.6753 324.839 34.0195 326.692 33.1642C327.685 32.6956 329.906 31.4232 331.767 30.3611C332.387 29.8407 332.724 29.9281 332.344 30.5822C331.057 31.7192 329.687 32.6656 327.961 33.7918C326.266 34.9128 324.242 36.2387 322.039 37.2437C320.666 37.8673 319.477 38.2825 318.543 38.4178C317.519 38.5692 316.754 38.4104 316.34 37.9255C315.857 37.3354 315.807 36.2873 316.388 34.6582C317.052 32.7207 318.938 29.6872 321.066 26.6109C322.482 24.5701 324.026 22.4777 325.4 20.6794L325.339 20.69L325.37 20.6847C324.726 21.0037 322.411 21.6468 320.844 22.0405C319.259 22.7016 317.031 23.1825 316.015 22.9507C315.365 22.9773 315.01 22.6582 315.046 22.1234L315.062 22.0325C315.275 21.3196 316.364 20.3055 317.218 20.1256C318.254 19.9136 321.259 19.8534 322.289 19.6718ZM334.329 28.8817L335.022 28.6127C335.853 28.2314 336.648 27.8857 337.184 27.6736C339.335 26.7952 340.872 26.4068 342.574 26.0773C342.642 25.8598 342.74 25.637 342.827 25.4749C343.171 24.8564 343.118 24.6603 343.567 24.1113C344.964 22.5144 347.566 20.4115 349.272 20.7272C349.584 20.7896 349.974 21.0731 350.144 21.2781C350.16 21.6863 349.855 22.4153 349.538 22.8823C348.985 23.6843 347.294 24.4524 346.773 24.0744L346.508 23.9157C346.292 23.8069 345.324 23.8014 345.214 24.2613C345.103 24.7212 344.963 25.1864 344.938 25.6605C345.119 25.6285 345.307 25.5661 345.488 25.5341C349.226 24.8163 349.706 24.7611 353.151 24.5352C353.631 24.48 354.356 24.5283 354.92 24.6638C355.287 24.7459 355.538 24.819 355.511 24.9705C355.64 25.2415 355.167 25.589 354.893 25.8135C354.487 26.1201 354.016 26.2911 353.64 26.0932C353.203 25.906 353.185 25.6742 352.499 25.7365C352.157 25.6794 351.326 25.5617 350.282 25.6578C348.758 25.8091 346.909 26.135 346.273 26.2472L344.909 26.4876C344.957 27.2131 345.102 27.8923 345.262 28.4805C345.487 29.2042 345.459 30.0313 344.723 31.0419C344.304 31.5855 343.668 32.1968 343.063 32.6263C341.864 33.6011 339.989 34.5777 337.583 35.2368C335.57 35.8266 333.586 36.0883 332.558 36.0935C331.651 36.0773 330.866 35.8633 330.219 35.537C329.522 35.1608 329.078 34.6812 329.192 33.8684C329.306 33.0556 330.083 31.9791 331.395 30.867C332.177 30.2593 332.386 30.0757 333.446 29.3896C333.872 29.1384 333.797 29.0635 334.329 28.8817ZM342.437 30.1824C342.254 29.3927 342.221 28.0772 342.389 26.9614C341.105 27.2464 339.811 27.592 338.51 28.1444C337.402 28.6041 336.174 28.9087 335.115 29.4184C334.73 29.6037 334.024 30.1098 333.684 30.3754C333.176 30.7585 332.939 31.2701 332.595 31.8886C332.163 32.6692 332.522 33.1345 332.725 33.4804C333.042 34.0116 333.497 33.9314 333.864 34.0135C334.855 34.2204 335.996 34.5771 337.326 34.1958C338.322 33.8733 338.622 33.6737 339.401 33.419C339.982 33.2871 341.112 32.7062 341.566 32.127C341.939 31.6796 342.669 31.1984 342.437 30.1824Z" fill="#6BC5F7"/>
</svg>
