<svg width="391" height="151" viewBox="0 0 391 151" fill="none" xmlns="http://www.w3.org/2000/svg">
<path d="M50.0709 94.3283L48.8224 95.9137C44.2111 101.835 38.2845 109.222 35.8866 112.331C34.5607 114.106 32.6761 117.301 30.1178 120.571C29.2757 121.6 28.3053 122.608 27.3349 123.616C25.501 125.525 23.6082 127.268 22.1753 128.401C21.309 128.818 20.8037 128.687 20.6672 127.962C20.528 126.754 22.073 124.235 23.8293 121.768C25.3477 119.65 27.0853 117.538 28.0798 116.394C33.2981 110.277 42.0799 100.185 47.6618 94.0044C50.629 89.914 53.6042 85.0295 56.3895 80.2225C58.9209 75.8567 60.3134 71.9559 61.5399 67.2475C62.085 64.9054 60.9108 62.0737 58.5526 61.9611C56.5873 61.8672 54.1756 61.808 51.5715 62.8397C47.3579 64.5075 43.3876 66.0443 38.57 69.1398C36.4686 70.5673 34.4849 72.3264 32.5039 73.8207C30.424 75.3765 28.5312 77.1195 26.3603 78.6914C26.3603 78.6914 24.4141 80.4878 23.2646 82.0117C21.7703 83.9927 21.0647 85.7466 21.0647 85.7466C19.9072 87.3159 19.1987 87.8372 14.2123 88.8926C10.9556 88.6301 14.7491 84.35 16.7541 82.7193C19.3393 80.5459 22.8256 78.2577 26.2128 75.2823C28.0815 73.6756 31.2095 71.6708 33.8883 69.9653C37.8077 67.4686 41.8822 65.3409 45.8712 63.4485C47.7935 62.537 49.6543 61.7245 51.5071 60.9574C53.777 60.0727 57.0548 58.9663 59.9451 58.8089C62.6616 58.6382 65.5172 58.9274 66.3411 61.2483C66.6167 62.4329 66.3495 63.4489 66.1224 64.9862C65.7725 67.4701 64.0511 70.9885 62.7361 73.9508C61.9877 75.448 60.9264 77.2206 60.1326 78.7258C58.8174 80.9395 57.783 83.0596 56.3315 85.2973C59.5475 82.0438 62.6432 78.7235 66.2256 75.8898C67.3004 75.0397 68.2253 74.0399 69.2626 73.1523C73.4893 69.4124 77.8122 65.8756 82.1485 62.5127C83.1698 61.7161 87.4687 58.3157 91.503 55.6666C95.2325 53.2474 98.7055 51.534 100.205 51.2696C103.296 50.7246 103.294 52.4866 103.224 53.3796C102.989 54.2138 102.882 55.0694 102.412 55.9891C101.987 56.9008 101.19 57.922 100.645 58.7668C98.3087 62.5258 97.4292 63.5176 96.1487 65.2848L89.8426 73.5752L84.1728 81.7534C81.6118 85.2877 79.238 88.2605 77.5619 91.0223C76.8776 92.1559 74.3488 96.257 73.4907 97.3772C73.2368 97.8183 72.3922 99.861 72.0689 101.195C71.8231 102.339 72.3443 101.631 72.7374 101.65C73.2106 101.214 82.6609 91.5765 85.7139 88.7481C92.6139 82.3348 93.3891 81.1852 102.473 72.6252C106.267 69.0937 108.256 67.5539 111.675 64.3967C114.827 61.5069 118.206 58.5769 120.548 57.2832C121.286 56.8448 122.262 56.0562 123.174 55.6312C124.283 55.0832 125.283 54.9069 125.639 54.8883C127.545 54.8163 128.08 55.779 127.642 58.0142C127.348 59.4312 126.88 60.0862 124.301 63.9762C122.649 66.6015 120.227 69.8471 118.101 72.9083C114.787 77.7205 111.713 83.4152 109.847 87.0031C108.222 89.976 106.624 94.7939 106.445 96.0586C106.325 98.2377 106.918 98.6174 107.643 98.7539C107.99 98.7807 108.474 98.7834 108.913 98.7942C111.453 98.8748 114.99 97.5465 120.963 93.895C123.481 92.3499 128.098 88.8934 129.732 87.3723C131.205 86.0116 131.387 85.9795 132.199 84.8674C132.643 84.3487 133.795 83.3088 134.64 83.5121C135.576 83.6994 134.956 84.4694 134.624 85.1004C133.194 86.7178 132.157 87.6053 129.553 89.3856C126.307 91.8076 123.404 94.0371 119.637 96.4188C114.279 99.8297 109.373 102.677 107.269 102.871C103.999 103.184 102.397 102.277 102.688 98.8788C102.95 94.649 109.357 82.2892 115.358 73.48C116.371 71.9802 119.178 66.5529 120.56 63.7109C121.482 62.2271 121.549 60.8501 120.982 60.818C119.712 60.7777 116.121 63.6568 113.178 66.1135C107.657 70.6982 105.925 71.5321 101.038 76.2693C99.1827 78.0498 96.6563 80.3889 92.3709 84.7117C85.7704 91.4246 78.5873 99.6934 75.9781 102.752C72.7862 106.618 72.6098 106.869 70.7598 108.12C69.7545 108.826 68.2413 109.665 67.4311 109.015C65.5245 107.59 68.2348 101.959 71.3197 97.4517C72.2633 96.0963 73.4795 93.9441 75.3133 91.2867C76.7622 89.3136 77.3502 87.9768 78.4249 86.3781C81.2183 82.2743 84.5839 77.6733 86.9791 74.0801C89.4892 70.3345 90.6948 68.4925 92.5098 65.442C93.7795 63.2363 94.552 61.6028 95.2149 60.3409C95.5383 59.7554 96.3616 58.3331 97.078 57.0177C97.3185 56.4027 96.9175 56.4294 96.9976 55.9749C95.888 55.7742 93.9683 56.421 92.7278 57.2122C90.0035 58.9257 86.9557 60.476 84.1512 62.644C80.4859 65.4482 77.3794 68.3301 74.1606 71.0996C71.7653 73.1955 68.9207 75.5908 66.9799 77.6065C65.6272 79.0341 64.0793 80.3199 62.6517 81.6726C58.3609 85.7762 54.1744 90.0376 50.0709 94.3283ZM159.369 70.6521C159.575 72.7297 157.177 75.0902 155.693 73.7665C155.33 73.082 153.017 72.9613 152.036 73.5307C151.586 73.8301 150.108 74.2229 148.608 75.236C146.309 76.7865 142.895 79.4143 141.144 80.6038C138.037 82.737 135.628 85.4077 135.621 86.2018C136.086 86.5602 137.171 86.1486 137.765 85.7797C140.449 84.2935 143.254 82.8741 145.657 81.4815C147.17 80.6421 148.766 79.8322 150.395 78.8405C153.071 77.3997 159.463 73.366 160.872 73.1175C161.509 73.0053 162.517 73.5322 162.388 74.2595C161.918 76.6765 157.932 80.5502 157.644 82.1864C157.532 82.8228 157.959 83.1437 159.277 82.9113C159.777 82.8231 160.43 82.62 161.219 82.3929C164.764 81.0191 169.627 78.6642 172.316 76.6486C173.485 76.2664 173.477 77.0605 172.456 77.8572C169.408 80.1561 158.96 88.2079 155.019 86.0844C154.131 85.6244 154.075 84.4452 154.443 83.1031C154.938 81.2984 156.146 79.1916 156.699 78.3013C157.21 77.1544 155.488 77.6782 154.985 78.031C154.293 78.4614 152.774 79.0815 150.956 80.1507C150.074 80.6586 149.128 81.5301 148.245 82.038C145.553 83.5697 141.915 85.9728 139.086 87.5285C136.06 89.2072 133.827 90.1293 132.683 90.3751C132.046 90.4873 131.351 90.4338 130.731 90.4551C129.91 90.1154 129.664 89.7624 129.664 89.0137C129.691 88.6127 130.009 87.8079 130.34 87.177C130.909 86.1958 132.211 84.557 133.869 82.8995C135.572 81.234 137.66 79.6327 139.953 77.863C142.17 76.2832 145.488 74.2008 148.156 72.8055C150.68 71.4797 152.105 71.1403 153.04 70.579C153.96 70.1085 155.915 69.7639 156.604 69.5982C157.666 69.323 158.225 69.4006 158.778 70.0077L159.369 70.6521ZM206.972 73.3564C206.234 73.7948 206.028 73.9632 205.237 74.455C203.555 75.5002 202.483 76.0856 201.347 77.0346L196.367 81.3039C189.646 90.9445 183.971 97.4061 175.05 107.038C173.398 108.915 171.609 110.816 169.73 112.733C169.471 112.955 161.21 122.338 158.961 121.854C158.403 121.776 158.37 121.209 158.59 120.466C158.958 119.124 159.41 117.811 159.918 116.929C160.872 115.263 161.359 114.253 167.946 106.617C171.373 102.666 178.254 95.8598 182.307 92.1065C184.887 89.7138 187.488 87.4495 190.279 85.1077L192.934 82.79C195.227 79.523 197.173 76.2292 198.416 72.9273C198.766 71.9408 196.967 71.1571 196.587 71.3121C195.919 71.6061 195.29 71.6729 194.774 71.8519C193.325 72.3276 192.443 72.8355 190.839 73.6909C188.732 74.8991 185.061 76.7354 181.602 78.6226C179.07 79.9939 177.244 81.1085 174.974 81.9932C172.894 82.8004 170.95 83.5835 169.881 83.1556C168.902 82.7116 168.979 81.7731 169.132 80.9095C169.361 79.8561 170.401 78.7038 172.021 77.0089C175.077 73.9158 180.509 69.8311 186.052 66.8721C190.811 64.3595 192.968 63.3625 195.468 62.173C196.524 61.6785 199.476 61.4223 200.414 61.3449C201.027 61.3691 201.085 61.5348 201.217 62.0402L201.075 64.091C200.891 65.1364 200.538 65.639 199.693 66.1843C198.712 66.7537 197.536 67.1813 196.921 66.6732C196.276 66.0822 194.335 65.1033 192.509 66.218C190.881 67.2097 190.156 67.0732 186.953 69.0032C183.218 71.2032 180.216 73.4941 177.989 75.3841C177.059 76.1647 176.66 76.6754 176.019 77.317C175.69 77.6832 175.398 78.0869 175.206 78.4291C175.075 78.6724 174.944 78.9157 175.663 78.8329C176.61 78.7101 177.407 78.4375 178.257 78.1114C179.433 77.6838 179.73 77.4993 181.158 76.8953C183.869 75.7567 186.058 74.5779 188.21 73.3616C190.651 72.0064 192.78 70.9265 195.857 69.4591C198.282 68.1948 202.821 66.4254 203.311 68.8933C203.605 70.4709 201.216 74.2833 199.267 77.0932L201.17 75.7886C202.328 74.968 203.943 73.8025 207.328 71.8404C208.378 71.1267 209.095 70.56 210.402 69.889C211.862 69.1032 212.731 68.4215 213.68 68.0339C213.961 67.9404 213.969 67.8949 214.469 67.8068C215.059 67.7026 215.87 68.3524 215.704 69.0422C215.586 69.4593 215.188 69.97 214.587 70.3843C213.688 70.9831 213.207 70.7156 211.999 71.3251C211.376 71.6111 210.892 71.6083 209.959 71.905C209.381 72.183 208.721 72.4315 208.143 72.7095C207.809 72.8565 207.512 73.041 206.972 73.3564ZM173.181 106.399C179.856 99.0124 184.235 94.4088 189.707 87.1023L189.02 87.7519C183.374 92.7991 175.971 101.063 170.994 106.564C167.697 110.272 167.037 112.018 166.904 112.526C171.165 108.34 169.288 110.741 173.181 106.399ZM238.885 56.6314C239.091 58.7089 236.693 61.0695 235.209 59.7458C234.845 59.0612 232.532 58.9406 231.551 59.5099C231.102 59.8093 229.623 60.2022 228.124 61.2153C225.824 62.7657 222.41 65.3935 220.659 66.5831C217.553 68.7163 215.144 71.387 215.136 72.1811C215.601 72.5395 216.687 72.1279 217.28 71.759C219.965 70.2728 222.769 68.8534 225.173 67.4607C226.686 66.6214 228.282 65.8115 229.91 64.8198C232.586 63.379 238.979 59.3453 240.388 59.0968C241.024 58.9846 242.032 59.5115 241.904 60.2387C241.434 62.6557 237.448 66.5294 237.159 68.1657C237.047 68.8021 237.475 69.123 238.793 68.8905C239.293 68.8024 239.945 68.5993 240.734 68.3721C244.279 66.9983 249.142 64.6435 251.832 62.6279C253 62.2457 252.992 63.0398 251.971 63.8364C248.923 66.1354 238.476 74.1872 234.534 72.0637C233.646 71.6036 233.59 70.4245 233.959 69.0823C234.453 67.2776 235.661 65.1709 236.215 64.2806C236.725 63.1336 235.004 63.6574 234.501 64.0103C233.808 64.4407 232.29 65.0608 230.472 66.13C229.59 66.6379 228.643 67.5094 227.761 68.0173C225.069 69.5489 221.43 71.9521 218.601 73.5078C215.575 75.1865 213.343 76.1086 212.198 76.3544C211.562 76.4666 210.867 76.413 210.246 76.4343C209.426 76.0946 209.18 75.7417 209.179 74.993C209.206 74.592 209.524 73.7872 209.856 73.1562C210.425 72.1751 211.727 70.5362 213.384 68.8788C215.087 67.2133 217.175 65.612 219.469 63.8423C221.685 62.2624 225.003 60.1801 227.671 58.7848C230.195 57.459 231.62 57.1196 232.556 56.5583C233.476 56.0878 235.43 55.7432 236.12 55.5775C237.181 55.3023 237.74 55.3799 238.294 55.9869L238.885 56.6314ZM268.364 53.7234C266.1 54.8274 263.611 56.4553 261.485 58.0191C260.624 58.6554 259.862 59.2301 259.183 59.8343C258.2 60.6683 257.916 61.0266 257.411 61.6441L257.08 62.2751L256.975 62.866C256.927 63.1387 257.435 63.0051 257.585 63.1548C257.876 63.4998 257.909 64.0666 257.54 64.6602C257.347 65.0024 257.026 65.3232 256.524 65.676C254.676 66.6624 252.449 67.8037 251.299 66.333C251.053 65.98 250.778 65.5442 250.866 65.0442C251.181 63.7555 250.882 64.2046 251.636 62.9267C252.606 61.1702 252.443 61.5953 253.911 60.0153C255.798 58.053 255.314 58.799 257.539 57.1736C261.126 54.5592 262.554 53.9552 265.466 52.4289C268.286 50.9186 271.31 49.5047 275.099 47.9999C277.983 46.8747 282.336 46.4154 283.858 47.7766C284.847 48.6591 285.077 49.8516 283.794 51.8835C283.241 52.7738 281.762 53.9152 280.15 54.8161C278.287 55.8933 275.875 57.3314 273.865 58.7429C272.509 59.6865 271.943 60.403 271.28 60.9163C270.67 61.3761 269.967 62.1166 269.403 62.5684C268.946 62.9132 268.531 63.5147 268.248 63.873C267.497 64.8862 267.457 65.8621 267.358 66.6723C267.339 67.0279 267.425 67.5413 267.476 67.7525C267.73 68.8087 268.286 69.151 268.626 69.9719L268.802 70.4692C269.313 70.0709 269.816 69.7181 270.364 69.3572C272.465 67.9297 274.633 65.8739 277.521 63.7353C281.162 61.0675 283.589 59.5384 286.207 57.9319C287.036 57.4775 289.14 55.7853 291.097 55.9246C291.292 56.0664 291.412 56.1332 291.402 56.4434C291.41 57.1466 290.648 57.7213 289.977 58.28C289.771 58.4485 287.252 59.2449 285.956 59.6056C285.416 59.921 284.632 60.3674 283.239 61.2736C280.149 63.3159 276.756 66.0721 273.257 68.9352C271.923 70.0071 270.573 71.17 269.268 72.3249C269.375 72.9666 269.338 73.6778 269.276 74.5254C269.169 75.381 268.266 77.2578 267.13 78.9555C265.465 81.4071 263.232 83.8265 262.444 84.8023C257.995 90.2989 252.111 95.6963 246.62 100.364C244.949 101.848 243.147 103.575 241.297 104.826L238.145 106.967C235.416 108.461 234.14 107.453 234.883 104.988C235.281 103.728 237.409 101.151 238.398 99.7878C239.831 97.9057 242.141 95.2965 243.387 93.9758C245.212 92.1125 248.696 88.5916 250.597 86.8032C252.81 84.7394 257.133 80.454 259.48 78.6308C262.301 76.3719 263.982 74.5781 266.019 72.7656C265.682 71.68 264.792 71.4847 263.998 70.7439C263.121 69.9737 262.607 69.1395 262.519 68.1421C262.495 67.5298 262.374 67.463 262.906 66.4444C263.623 65.129 264.235 64.4045 265.136 63.541L265.983 62.731C266.136 62.616 266.333 62.493 266.494 62.3326C267.403 61.4237 270.87 58.7424 274.29 56.3339C275.995 55.1523 278.072 53.1126 278.554 52.6314C279.134 52.0887 280.802 50.121 280.104 49.5835C279.609 49.1423 279.107 48.7465 277.278 49.3772C274.281 50.3901 270.332 52.8039 268.364 53.7234ZM245.363 99.0001C251.381 93.8433 263.259 81.9281 266.178 75.1158L264.507 76.5995C259.967 80.6148 258.486 82.021 254.663 85.4696C254.091 85.9668 247.242 93.34 244.534 96.4599C242.155 99.2135 240.353 100.94 240.513 102.277L240.695 102.245C243.027 101.262 243.441 100.66 245.363 99.0001ZM288.36 60.4589C288.068 58.6166 289.231 56.5179 290.73 54.0075C292.091 51.7858 293.307 49.6336 294.54 48.1391C295.988 46.1661 297.764 45.5888 299.114 45.1746C299.857 44.9555 300.683 45.5144 300.7 46.1722C300.89 46.8433 300.186 47.5838 299.598 48.172C298.628 49.1798 297.791 49.6797 297.227 50.1315C296.684 50.7116 296.083 51.1259 295.663 51.5082C294.709 52.4252 294.15 53.0962 293.428 54.1923C292.399 55.7831 292.118 56.6253 292.212 57.8418C292.314 59.7616 294.817 59.0561 296.365 58.5189C299.386 57.3696 302.367 56.4476 305.308 55.0043C307.329 54.0313 309.398 52.7856 311.248 51.5346C312.19 51.1925 313.05 51.3049 312.31 52.008C307.343 55.7024 300.552 60.2468 294.689 62.0293C291.988 62.8578 288.78 63.0712 288.36 60.4589ZM308.978 28.1977C310.042 27.6578 310.595 27.5161 310.935 27.5884C311.424 27.8104 311.868 28.0404 310.833 29.4119C309.034 31.6228 308.5 32.1575 306.612 33.3711C306.513 33.4326 304.674 34.3735 303.917 33.6701C303.655 33.4081 303.949 32.7397 303.831 32.4081C303.596 30.9963 306.112 29.716 308.012 28.6762C308.75 28.2378 308.536 28.4517 308.978 28.1977ZM317.136 43.7144L317.144 43.6689C317.818 42.8455 318.863 41.9125 319.858 41.5169C321.507 40.6536 322.673 41.2847 322.248 42.9451C321.198 45.1561 317.121 49.0458 315.391 51.1124C314.84 51.738 314.579 52.2246 314.752 52.2379C314.889 52.2139 315.076 52.4011 315.913 51.9012C316.749 51.4014 317.945 50.6181 318.295 50.3802C319.902 49.2601 324.136 46.2234 328.248 43.3845C332.183 40.7969 335.333 38.9203 337.111 38.827C340.047 38.6617 339.579 40.814 338.59 43.6748C338.045 45.2682 337.575 46.9366 337.345 47.99C336.928 50.3536 338.888 50.9768 340.979 50.6082C343.615 50.1433 347.075 48.2562 349.296 46.8956L349.304 46.8501C349.403 46.7886 349.54 46.7646 349.631 46.7485C350.919 46.4332 350.821 47.2434 349.671 48.0186C345.698 50.5688 340.931 53.8755 337.752 54.1718C335.867 54.3721 333.99 53.0296 334.212 50.5243C334.324 49.1393 334.532 47.9575 334.978 46.4255C335.23 45.5004 335.259 44.8347 335.256 44.3507C335.237 43.9577 334.954 43.5673 334.676 43.3961C334.435 43.2624 333.908 43.003 333.112 43.2756C331.564 43.8128 329.377 44.7269 326.743 46.4243C324.155 48.1137 321.525 50.2951 319.407 51.8135C317.64 53.094 314.649 55.8234 313.012 56.8606C312.077 57.422 311.398 58.0261 310.411 58.3763C309.978 58.5847 309.636 58.7772 309.288 58.7504C308.085 58.8304 307.665 58.4641 307.403 57.4534C307.52 56.2876 308.547 54.9616 309.787 53.4217C310.408 52.6517 311.159 51.6385 311.717 50.9675C312.805 49.5425 313.923 48.2005 314.802 47.2086C316.465 45.0217 316.163 44.9869 316.96 43.9657C317.067 43.8587 317.083 43.7678 317.136 43.7144ZM360.303 43.5455C359.231 44.1309 357.103 45.2108 356.178 44.7133C355.822 44.732 355.619 44.6357 355.568 44.4245L354.836 45.0821C354.523 45.3575 353.903 46.1274 353.542 46.6755C353.189 47.1781 353.162 47.5791 353.138 47.7155C353.066 48.1246 353.526 48.2637 353.94 48.4108C354.483 48.5793 355.523 48.9244 359.823 47.77C361.248 47.4306 362.868 47.233 366.603 45.7817C370.284 44.3839 372.338 43.2291 375.263 41.8766C376.607 41.2431 377.8 40.7246 379.244 40.0297C381.348 39.0861 382.505 38.2655 382.711 38.097C383.23 37.6533 384.374 37.4075 383.904 38.3272C383.58 38.9127 382.182 39.5996 380.859 40.3614C378.744 41.6151 376.348 42.9623 375.437 43.3873C372.966 44.6597 370.664 45.7262 367.929 47.0011C365.181 48.1023 363.288 49.0967 360.898 49.9145C360.101 50.1871 358.59 50.7617 357.62 51.0209C354.246 51.9242 352.746 52.1886 351.489 52.3221C350.679 52.421 350.339 52.3487 349.789 52.2256C349.192 52.1106 349.187 51.8913 348.78 51.6988C348.05 51.343 347.802 50.5061 347.986 49.4607C348.09 48.8698 348.205 47.9688 348.849 47.0625C349.24 46.5973 350.007 45.4932 351.175 44.3623C352.183 43.3919 353.586 42.1756 354.851 41.2479C356.771 39.8525 357.38 39.3927 358.377 38.7325C359.276 38.1337 360.476 37.5697 362.842 36.1396C367.08 33.5868 368.978 32.8117 371.323 32.0019L373.159 31.3257C374.229 31.005 378.154 30.2248 378.015 32.0109C377.948 32.6392 377.633 33.1793 376.534 34.1657C375.649 34.9383 375.016 35.5344 373.676 36.3872C371.636 37.7157 367.896 39.6964 364.362 41.5087C363.83 41.7787 363.108 42.1262 362.204 42.5057C361.565 42.8826 360.881 43.2675 360.303 43.5455ZM359.549 41.0802C359.199 41.3181 358.803 41.564 358.445 41.8474L358.626 41.8153C358.99 41.7512 359.68 41.5856 360.415 41.4119C360.969 41.2702 361.006 41.3077 361.423 41.1901L362.455 40.832L363.557 40.3295C364.225 40.0354 364.803 39.7575 365.244 39.5035C367.396 38.2873 370.842 36.2263 372.032 35.2238C372.703 34.6651 372.251 34.4806 372.213 34.4431C371.663 34.3201 371.254 34.3922 371.208 34.4002C370.374 34.6354 369.556 34.7796 367.404 35.9959C367.008 36.2418 366.208 36.7791 365.714 37.0865L363.842 38.2092C362.313 39.1395 360.813 40.1526 359.549 41.0802Z" fill="#6BC5F7"/>
</svg>
