<svg width="174" height="111" viewBox="0 0 174 111" fill="none" xmlns="http://www.w3.org/2000/svg">
<path d="M36.2849 52.9294C36.7154 52.9857 37.2154 52.8975 37.5844 53.0526C38.3811 52.78 39.1538 52.6438 39.857 52.6519C41.4719 52.235 43.0708 51.9091 44.4584 51.5323L46.4075 50.9684L47.3966 49.6049C50.0618 46.2284 52.8445 41.6861 55.1461 38.3736C55.9882 37.3444 57.8433 34.0666 58.5703 32.4411C59.161 30.8396 59.8508 30.6739 60.8185 29.1821L61.1419 28.5966C62.0054 27.6957 63.409 27.228 64.1443 27.0543C65.2512 26.771 65.2994 27.247 65.4947 28.1374C65.5349 28.6587 64.447 30.8323 64.3187 30.8109C63.3136 33.014 62.958 33.0326 59.0284 38.0854C57.4725 40.1654 53.3825 45.3786 49.7442 50.0277C55.0139 48.6141 60.3185 47.5026 65.2916 47.0221C67.2515 46.8967 69.107 46.6135 70.8824 46.7849C72.9225 46.9537 74.8503 47.0101 74.5965 48.1999C74.4629 48.7079 73.9122 49.3335 72.8588 50.3119C71.4365 51.1352 70.9525 50.3838 70.971 49.2796C70.1181 49.1217 69.2624 48.4798 68.0057 48.6134C62.4578 49.1072 65.2812 48.8295 59.605 50.0506C55.0811 50.9804 51.6188 52.3836 46.9908 53.9043C46.8464 53.9738 46.7101 53.9978 46.5737 54.0219L42.938 58.4063C39.019 63.1489 32.5445 72.3938 28.6203 77.6659C26.3427 80.842 26.7199 82.449 24.4129 85.5422C23.6377 86.6918 23.1836 89.7665 22.1678 90.7824C21.9298 91.1326 20.6627 92.3249 20.0557 92.52C19.5932 92.6456 19.1841 92.7177 19.0103 92.7043C18.0612 93.0919 17.481 92.8859 17.1761 92.3672C17.1413 92.065 17.192 91.5276 17.2882 90.9822C17.5047 90.5036 18.6673 87.6562 19.1566 87.1296C21.2441 82.5337 24.2277 80.5984 26.9729 75.27L30.3145 71.5539C32.9583 68.049 37.4547 62.2797 40.2109 58.8872L43.2958 55.1283C42.8707 55.2913 42.4911 55.4464 42.1194 55.5559C41.3521 55.9114 39.6277 56.6999 39.3095 56.756L35.7777 58.3036L34.1922 58.8034L33.481 58.8407C31.1924 59.3323 31.5717 56.9314 32.6089 55.2952C33.2477 54.1696 35.0122 53.1538 36.2849 52.9294ZM19.202 33.1732C19.4213 33.1786 23.3517 33.3663 27.7686 31.7948C28.8941 31.1559 29.7496 30.3005 31.1158 29.7953C35.5486 28.1329 40.7463 27.1284 45.2754 25.6692C61.5391 20.5994 77.7282 16.9522 93.5111 15.3583C99.1206 14.7655 110.989 13.6416 114.933 16.2491C115.377 16.4791 115.404 16.8267 115.126 17.4042L114.145 18.7222C113.273 19.6686 110.466 19.8554 110.787 18.7859C111.017 18.4811 108.733 17.6947 108.728 17.4755C108.669 16.561 106.156 16.828 105.717 16.8173C99.4391 16.9554 94.5433 16.4974 87.9473 17.4403C77.8541 18.7356 67.8306 21.3838 57.759 24.3047C51.631 26.0899 45.5004 28.1397 39.1398 30.4944L32.7741 33.3784C27.6648 35.3803 25.7238 36.6474 20.5852 38.5664C18.0426 39.4991 17.2377 39.0685 14.7939 39.1912C13.1148 39.223 12.783 37.608 14.4004 36.1778C15.2933 35.3597 18.1593 33.0928 19.202 33.1732ZM98.0849 46.4804C98.2911 48.558 95.8931 50.9185 94.409 49.5948C94.0452 48.9103 91.7324 48.7896 90.7512 49.359C90.3021 49.6584 88.8235 50.0512 87.3237 51.0643C85.0245 52.6148 81.6105 55.2426 79.8594 56.4321C76.7528 58.5653 74.3441 61.236 74.3362 62.0301C74.8015 62.3885 75.887 61.9769 76.4805 61.608C79.1648 60.1218 81.9693 58.7024 84.3728 57.3098C85.886 56.4704 87.4821 55.6605 89.1103 54.6688C91.7865 53.228 98.1789 49.1943 99.5879 48.9458C100.224 48.8336 101.232 49.3605 101.104 50.0878C100.634 52.5048 96.6479 56.3785 96.3594 58.0148C96.2472 58.6511 96.675 58.972 97.9931 58.7396C98.4931 58.6514 99.1455 58.4483 99.9342 58.2212C103.479 56.8474 108.343 54.4925 111.032 52.4769C112.2 52.0947 112.193 52.8888 111.171 53.6855C108.124 55.9844 97.6757 64.0362 93.7343 61.9127C92.8466 61.4527 92.7902 60.2735 93.159 58.9314C93.6534 57.1267 94.8616 55.0199 95.415 54.1296C95.9255 52.9827 94.2037 53.5065 93.701 53.8593C93.0086 54.2897 91.49 54.9098 89.672 55.979C88.7897 56.4869 87.8434 57.3584 86.9611 57.8663C84.2688 59.398 80.6302 61.8011 77.8016 63.3568C74.7752 65.0355 72.5427 65.9576 71.3984 66.2034C70.7621 66.3156 70.0669 66.2621 69.4466 66.2834C68.6257 65.9437 68.3796 65.5907 68.3795 64.8421C68.4062 64.441 68.7243 63.6362 69.0557 63.0053C69.6251 62.0241 70.927 60.3853 72.5844 58.7278C74.2874 57.0623 76.3753 55.461 78.6692 53.6913C80.8855 52.1115 84.2033 50.0291 86.8715 48.6338C89.3953 47.308 90.8204 46.9686 91.7561 46.4073C92.6758 45.9368 94.6303 45.5922 95.3201 45.4266C96.3815 45.1513 96.9404 45.2289 97.4939 45.836L98.0849 46.4804ZM107.563 70.0878C108.253 69.9221 112.242 69.527 114.183 69.7572C114.988 69.4392 115.64 69.2361 116.148 69.1025C118.956 68.1671 119.926 67.9079 123.081 66.9993L125.175 66.3659C125.592 65.4996 125.926 64.604 129.112 59.7703C130.502 57.6315 131.809 55.4633 132.429 53.9447C133.159 52.0544 136.682 46.8091 134.054 47.2285C132.025 48.2469 129.688 49.7599 127.483 51.0296C124.889 52.4997 122.483 54.1571 120.269 55.4723C119.433 55.9721 118.248 56.4452 117.51 56.8836C116.323 57.6214 115.452 57.8191 114.227 58.5195C111.048 60.3131 106.57 59.7376 108.775 55.4732C109.847 53.3905 112.411 51.0888 115.343 48.9422C117.568 47.3169 120.126 45.5446 122.257 44.2C123.658 43.2484 126.037 41.992 128.24 40.987C129.54 40.3616 130.7 40.0249 131.673 39.5009C133.186 38.6616 133.435 38.7499 135.136 38.0977C136.13 37.7022 137.274 37.4564 138.264 37.5902C141.427 38.1334 139.245 40.0154 137.748 41.5125C136.901 42.3225 135.551 42.7368 134.168 42.5842C133.995 42.5708 134.021 42.1697 133.583 42.1589C132.676 42.0545 131.123 42.3725 130.545 42.6505C129.58 43.1289 129.369 43.0781 127.955 43.8559C125.864 44.9733 123.821 46.5665 122.223 47.6411C120.76 48.6917 117.779 51.111 117.223 51.5173C116.622 51.9317 114.168 53.8618 113.414 55.1397C113.283 55.383 113.048 55.4685 113.098 55.6798C113.251 56.3135 115.256 55.4314 115.978 55.0839C119.146 53.6005 124.039 51.3285 127.576 49.2515C130.177 47.7359 133.065 45.5973 135.358 44.5763C136.217 44.2048 136.976 43.8947 137.842 43.4777C138.618 43.0768 139.757 43.3604 140.217 44.2481C140.505 44.8578 140.375 45.8497 140.065 46.609C138.097 51.2718 136.622 52.1485 133.78 56.5251C133.066 57.5757 132.566 58.4126 132.091 59.113C133.366 57.8752 134.785 56.568 136.403 55.1378C138.86 52.943 141.047 51.2802 143.944 48.8315C144.982 47.944 147.84 45.7225 150.04 44.2335C150.938 43.6348 151.115 43.3834 151.943 42.929C152.363 42.5467 155.032 41.9001 155.171 42.36C155.414 42.9777 153.732 44.0229 153.085 44.4452C152.187 45.044 149.067 46.2548 148.054 47.0059C146.484 48.1634 146.332 48.2784 145.402 49.059C142.977 51.072 140.798 53.4379 138.119 55.892C134.395 59.2791 131.503 61.9471 128.557 65.4172C136.102 63.3381 143.706 61.4249 151.128 60.2923C153.711 59.8809 160.59 58.5798 162.858 59.4571C163.211 59.7032 163.299 59.9518 162.967 60.5828C161.981 61.6816 161.914 61.5612 160.272 62.3792C159.839 62.5877 160.013 61.8524 159.32 61.5341C158.574 61.2693 157.366 61.1301 157.096 60.9135C154.644 61.0816 151.986 61.4181 150.797 61.6719C142.661 63.1065 134.322 65.9421 126.015 68.5959L125.662 69.0985C123.921 71.4752 123.01 72.6489 121.81 74.7102C119.193 79.3113 116.285 85.8135 112.585 89.8129C112.066 90.2566 111.686 90.4116 111.112 90.4249L110.999 90.3126C110.833 90.2538 110.85 90.1629 110.866 90.072C110.823 89.8153 111.309 88.8047 111.077 88.6255C111.002 88.5506 111.272 88.0186 111.665 87.2887C111.71 86.532 111.838 85.8048 112.539 84.5803C114.426 81.1208 118.393 76.1054 120.47 73.317C120.539 73.1726 120.601 73.0737 120.708 72.9667C121.544 71.7182 122.365 70.5606 123.124 69.5019C123.079 69.5099 123.025 69.5634 122.98 69.5714C122.229 69.836 117.563 71.3192 116.015 71.8564C113.208 72.7918 106.767 75.601 104.377 74.1728C103.508 73.3572 104.066 71.9375 105.48 71.1597C105.67 71.0822 107.427 70.1119 107.563 70.0878Z" fill="#6BC5F7"/>
</svg>
