<svg width="274" height="124" viewBox="0 0 274 124" fill="none" xmlns="http://www.w3.org/2000/svg">
<path d="M95.1692 34.9805C95.4046 35.6436 94.8005 37.0713 93.9771 37.745C93.4959 38.2262 93.103 38.9561 92.2822 39.3651C90.9828 39.9905 89.1139 40.0999 88.8705 39.4822C88.6217 38.6453 89.0519 37.2042 88.2311 36.8645C87.1321 36.3536 85.7283 36.0727 83.7418 36.5991C80.7927 37.3393 78.2635 38.4459 76.2183 39.5552C75.1087 40.1031 72.4753 41.8006 71.3926 42.6961C68.7539 44.923 67.067 46.4976 66.2892 47.9119C65.3269 49.6229 64.6668 52.1175 64.4906 53.8661C64.3412 55.9623 64.6009 57.9863 65.0049 59.9409C65.4704 61.7966 66.0482 63.7645 66.7196 65.4518C67.3241 67.0187 67.9446 68.4947 68.4448 69.9038C72.6558 68.5007 77.963 67.1245 82.3505 66.2188C86.3663 65.4226 85.238 65.5775 88.3929 64.6689C91.5024 63.7683 95.0904 62.6512 98.1786 63.1196C98.5022 63.2827 98.5985 63.4859 98.3285 64.018C96.5427 65.6541 96.3982 64.9749 93.6685 66.4691C93.206 66.5947 93.0374 66.0519 91.738 65.9287C91.1257 65.9046 90.369 65.9499 89.7113 65.9338C86.3131 66.9734 82.7465 68.2188 80.5113 68.657C77.0783 69.3944 73.0678 70.4099 68.9718 71.6606C69.7476 74.2542 70.0954 75.7783 70.3335 76.9254C71.1845 81.8399 67.1804 89.8124 59.4674 95.092C53.6579 99.067 47.2574 102.398 44.4449 103.862C38.9507 106.549 21.3154 111.904 15.8503 112.427C13.7461 112.622 8.95753 113.555 7.11252 112.779C4.94397 111.84 2.93581 110.741 2.95964 109.107C3.00476 106.853 4.0472 104.688 6.2634 102.359C8.93676 99.686 14.0243 95.3098 18.9703 92.2357C24.4028 88.8997 28.7875 86.7613 32.3139 84.9945C39.8105 80.9422 46.1149 78.9057 54.24 75.5353C56.8975 74.4502 61.1031 72.8278 64.0494 71.6037C63.0595 67.7266 61.5825 60.3682 61.7746 57.0314C62.2041 51.0984 65.7139 44.9305 71.2077 39.9983C72.5043 38.8889 73.9507 37.9292 75.3944 37.2342C78.1455 35.8684 82.7013 34.0081 86.514 33.1156C89.6742 32.4263 92.4362 32.2475 93.6422 33.4001C94.4819 34.1328 94.907 33.9698 95.1692 34.9805ZM65.4812 80.4674C65.6492 77.2669 65.2907 76.053 64.4507 73.0743C60.0125 74.5175 55.724 76.1104 52.2831 77.642C45.2329 80.9109 39.9846 83.2016 33.127 86.877C27.9724 89.6355 23.9674 91.6188 19.0509 94.7758C17.7194 95.5831 9.55992 100.897 8.54724 105.392C7.70022 109.196 14.6601 109.687 18.9086 109.07C22.6651 108.495 28.5579 107.544 33.972 105.313C36.6375 104.182 40.4796 103.372 43.4848 102.314C50.0297 99.6627 54.0961 96.8318 57.7427 94.3832C63.5068 90.4162 65.2545 84.2507 65.4812 80.4674ZM85.6957 80.162L86.9467 78.3119C85.5804 78.0684 85.9305 77.0818 86.5934 75.8199C87.2857 74.6409 88.8765 73.6117 89.43 74.2188L90.1304 72.9943C90.1544 72.8579 90.2239 72.7136 90.3014 72.5237C90.5099 72.0906 90.8628 71.588 91.2611 71.0774C91.8304 70.0962 92.3544 69.123 92.8863 68.1044C92.8273 67.19 92.9608 65.9333 93.1639 65.281C94.1423 63.479 94.7385 63.594 96.0484 61.9098C96.6205 61.4125 96.9173 61.2281 97.69 61.0918C97.7354 61.0838 98.7889 60.854 99.1232 61.4557C99.2863 61.7792 99.2649 61.6509 99.1421 62.5974C98.7867 64.1134 98.2065 64.656 97.5008 65.6613C102.161 62.4615 107.323 60.4061 112.28 58.5192C114.171 57.7895 118.293 56.8864 120.414 58.0979C121.294 58.6034 121.852 59.4297 121.794 60.7612C121.759 61.9564 120.383 63.5203 119.57 64.6325C117.875 67.0012 114.391 69.0247 112.368 70.2623C105.855 74.2292 100.101 76.3888 93.5669 77.9814C92.4225 78.2272 91.0295 78.3847 89.8264 78.4647C87.9685 81.2585 85.0252 84.4639 82.4509 87.8245C79.5317 91.6422 76.7916 94.9438 74.8883 97.7457C73.8751 99.2455 73.8004 99.9193 72.6242 101.844C71.7314 103.411 71.5473 105.954 70.216 107.51L69.0425 109.17L68.2164 110.108C67.8207 110.354 67.5026 110.41 67.2379 110.413L66.1578 111.044C64.396 112.543 65.2349 108.036 66.6144 106.956C67.7506 106.007 70.7817 100.055 71.6265 99.5099C72.1719 98.665 72.7386 97.9486 73.177 97.2107C76.6226 91.4064 81.3972 86.557 85.6957 80.162ZM109.821 61.7273C108.612 62.3368 107.252 63.0611 105.883 63.831C105.22 64.3443 102.88 65.3733 101.319 66.4854C99.6054 67.7124 98.5601 68.6453 96.8143 70.0541C94.7103 71.7463 93.093 73.9252 92.299 74.6818L90.8716 76.7831C91.8635 76.6522 92.9249 76.377 94.0933 75.9948C97.0824 75.0274 100.39 73.2552 103.459 71.8332C107.448 69.9408 111.969 66.281 113.554 65.0326C114.781 64.0676 115.995 62.9288 116.874 61.9369C117.754 60.9451 117.968 60.7312 117.941 60.3836C117.54 59.6617 117.147 59.6429 116.452 59.5893C115.454 59.5009 114.219 59.7628 113.315 60.1423C112.366 60.5299 111.174 61.0484 109.821 61.7273ZM131.62 64.5776C130.547 65.163 128.419 66.2429 127.494 65.7455C127.138 65.7641 126.935 65.6678 126.884 65.4566L126.152 66.1142C125.839 66.3896 125.219 67.1595 124.858 67.7076C124.505 68.2102 124.478 68.6113 124.454 68.7476C124.382 69.1567 124.842 69.2958 125.257 69.4429C125.799 69.6115 126.84 69.9565 131.139 68.8021C132.564 68.4628 134.184 68.2651 137.919 66.8138C141.601 65.416 143.654 64.2613 146.579 62.9088C147.924 62.2753 149.116 61.7568 150.56 61.0618C152.664 60.1183 153.822 59.2976 154.027 59.1292C154.546 58.6854 155.69 58.4396 155.22 59.3593C154.897 59.9448 153.498 60.6318 152.175 61.3936C150.06 62.6473 147.665 63.9945 146.753 64.4195C144.283 65.6918 141.981 66.7583 139.246 68.0333C136.497 69.1344 134.604 70.1288 132.214 70.9466C131.417 71.2192 129.907 71.7939 128.936 72.0531C125.562 72.9563 124.062 73.2208 122.805 73.3543C121.995 73.4531 121.656 73.3808 121.105 73.2578C120.509 73.1427 120.503 72.9235 120.097 72.7309C119.367 72.3752 119.118 71.5383 119.302 70.4928C119.407 69.902 119.521 69.0009 120.166 68.0946C120.556 67.6294 121.323 66.5253 122.491 65.3945C123.499 64.424 124.903 63.2077 126.167 62.2801C128.087 60.8847 128.696 60.4249 129.694 59.7646C130.592 59.1658 131.792 58.6018 134.158 57.1717C138.396 54.6189 140.294 53.8438 142.639 53.034L144.476 52.3578C145.545 52.0371 149.47 51.257 149.331 53.043C149.265 53.6713 148.949 54.2114 147.85 55.1978C146.966 55.9704 146.332 56.5666 144.993 57.4193C142.953 58.7479 139.212 60.7286 135.678 62.5408C135.146 62.8108 134.424 63.1583 133.52 63.5378C132.881 63.9147 132.197 64.2997 131.62 64.5776ZM130.865 62.1123C130.515 62.3502 130.119 62.5962 129.761 62.8795L129.943 62.8475C130.306 62.7834 130.996 62.6177 131.731 62.444C132.285 62.3024 132.322 62.3398 132.739 62.2222L133.771 61.8641L134.873 61.3616C135.541 61.0676 136.119 60.7896 136.56 60.5357C138.712 59.3194 142.158 57.2585 143.348 56.256C144.019 55.6973 143.567 55.5127 143.53 55.4753C142.979 55.3522 142.57 55.4243 142.524 55.4323C141.69 55.6675 140.872 55.8118 138.72 57.028C138.324 57.2739 137.525 57.8112 137.03 58.1187L135.159 59.2414C133.63 60.1716 132.13 61.1847 130.865 62.1123ZM175.649 51.7936L175.603 51.8016C175.55 51.8551 175.467 51.8257 175.368 51.8871C174.304 52.4271 172.079 52.5551 171.368 51.8438C170.36 52.0655 169.398 52.2793 168.82 52.5573L167.657 53.1587C166.684 53.6826 164.144 54.3507 163.117 54.9281C161.847 55.6364 160.583 56.564 159.409 57.4756C158.281 58.3792 157.548 59.0368 156.656 59.8548C156.388 60.1222 155.76 60.9376 155.519 61.5525C155.287 62.122 155.145 62.6754 155.119 63.0765C154.932 63.6379 156.616 63.8254 157.282 63.796C158.386 63.7775 161.677 62.8448 162.239 62.6578C166.781 61.3724 173.27 58.2905 178.155 56.064C180.852 54.7515 181.462 54.2918 184.077 52.9499C185.384 52.279 186.272 52.739 184.9 53.7736C183.277 54.9845 180.732 56.182 178.559 57.2699C175.845 58.6732 171.706 61.1645 168.306 62.4688C165.367 63.6475 158.261 66.486 155.32 67.1807C154.077 67.488 150.007 68.3377 150.135 66.1131C150.194 65.5303 150.269 64.8565 150.528 63.886C150.771 63.0063 151.132 62.4583 151.645 61.7952C152.212 61.0788 153.335 59.9559 154.145 59.1085C156.551 56.7025 159.879 54.3099 163.12 52.4174C166.702 50.3324 172.99 47.6382 175.974 46.4515C176.878 46.0719 177.685 46.2378 178.487 46.1845C179.348 46.2969 179.648 46.5964 179.624 47.4814L179.301 48.8156L179.199 49.1418C178.742 49.4866 178.322 49.8689 177.828 50.1763C177.178 50.8634 176.333 51.4087 175.649 51.7936ZM180.969 60.1038C180.677 58.2615 181.84 56.1628 183.34 53.6524C184.7 51.4307 185.916 49.2785 187.149 47.784C188.598 45.811 190.373 45.2338 191.723 44.8195C192.466 44.6004 193.293 45.1593 193.309 45.8171C193.499 46.4882 192.796 47.2287 192.208 47.8169C191.237 48.8247 190.4 49.3246 189.836 49.7764C189.294 50.3565 188.692 50.7709 188.272 51.1531C187.318 52.0701 186.759 52.7411 186.037 53.8373C185.008 55.428 184.728 56.2702 184.821 57.4868C184.923 59.4065 187.426 58.701 188.974 58.1638C191.995 57.0146 194.976 56.0926 197.917 54.6492C199.938 53.6762 202.008 52.4306 203.858 51.1795C204.799 50.8374 205.66 50.9498 204.919 51.6529C199.952 55.3473 193.161 59.8917 187.298 61.6742C184.598 62.5027 181.389 62.7161 180.969 60.1038ZM201.587 27.8426C202.651 27.3027 203.204 27.1611 203.544 27.2333C204.033 27.4553 204.477 27.6853 203.443 29.0568C201.644 31.2677 201.109 31.8024 199.221 33.016C199.122 33.0775 197.283 34.0184 196.526 33.3151C196.264 33.053 196.558 32.3846 196.44 32.053C196.205 30.6413 198.721 29.3609 200.622 28.3211C201.36 27.8827 201.146 28.0966 201.587 27.8426ZM229.359 39.02C229.566 41.0976 227.167 43.4581 225.683 42.1344C225.32 41.4499 223.007 41.3292 222.026 41.8986C221.576 42.198 220.098 42.5908 218.598 43.6039C216.299 45.1543 212.885 47.7821 211.134 48.9717C208.027 51.1049 205.619 53.7756 205.611 54.5697C206.076 54.9281 207.161 54.5165 207.755 54.1476C210.439 52.6614 213.244 51.242 215.647 49.8494C217.16 49.01 218.757 48.2001 220.385 47.2084C223.061 45.7676 229.453 41.7339 230.862 41.4854C231.499 41.3732 232.507 41.9001 232.379 42.6274C231.908 45.0444 227.922 48.918 227.634 50.5543C227.522 51.1907 227.949 51.5116 229.268 51.2792C229.768 51.191 230.42 50.9879 231.209 50.7608C234.754 49.387 239.617 47.0321 242.307 45.0165C243.475 44.6343 243.467 45.4284 242.446 46.2251C239.398 48.524 228.95 56.5758 225.009 54.4523C224.121 53.9923 224.065 52.8131 224.433 51.471C224.928 49.6663 226.136 47.5595 226.689 46.6692C227.2 45.5223 225.478 46.0461 224.975 46.3989C224.283 46.8293 222.764 47.4494 220.946 48.5186C220.064 49.0265 219.118 49.898 218.236 50.4059C215.543 51.9376 211.905 54.3407 209.076 55.8964C206.05 57.5751 203.817 58.4972 202.673 58.743C202.036 58.8552 201.341 58.8017 200.721 58.823C199.9 58.4833 199.654 58.1303 199.654 57.3816C199.681 56.9806 199.999 56.1758 200.33 55.5449C200.899 54.5637 202.201 52.9249 203.859 51.2674C205.562 49.6019 207.65 48.0006 209.944 46.2309C212.16 44.6511 215.478 42.5687 218.146 41.1734C220.67 39.8476 222.095 39.5082 223.031 38.9469C223.95 38.4764 225.905 38.1318 226.594 37.9661C227.656 37.6909 228.215 37.7685 228.768 38.3756L229.359 39.02ZM240.055 49.7294C240.664 47.7723 243.426 43.1016 245.436 40.1929C248.451 35.8298 252.629 29.3679 257.831 22.5934L259.647 20.2916C260.451 19.2249 259.703 19.9734 261.234 18.0298C261.94 17.0246 262.993 15.2975 264.143 13.7736C264.942 12.4877 266.001 10.9798 267.03 10.1377C267.246 9.65916 267.439 9.31695 267.768 8.95069C268.088 8.62989 268.629 8.31447 269.198 8.08193C269.623 7.9189 270.543 8.1971 270.877 8.79875C270.907 8.88164 270.891 8.97255 270.928 9.00998C271.34 9.4218 271.289 9.95922 270.91 10.8629C270.771 11.1516 270.851 11.4458 270.605 11.8414C270.26 12.2986 269.763 12.8707 269.29 13.3065L265.36 17.6106L265.146 17.8245C263.424 19.8456 261.719 21.7758 261.061 22.5083C258.69 25.2165 256.239 28.3792 253.924 31.5178C250.566 36.0734 247.209 40.629 245.124 44.2115C244.239 45.7327 243.659 47.0241 243.52 48.0615C243.418 49.1363 245.031 48.9841 245.857 48.7944C247.327 48.4471 249.354 47.6934 249.832 47.4769C253.351 45.7555 255.089 45.1408 258.118 43.1974C260.348 41.7913 262.62 40.642 265.002 39.1209C266.136 38.4366 266.721 38.8618 265.655 39.6665C263.62 41.2143 259.848 44.1255 255.913 46.7131C251.52 49.6455 246.921 51.9978 244.261 52.599C241.555 53.2082 239.146 52.8843 240.055 49.7294Z" fill="#6BC5F7"/>
</svg>
