<svg width="64" height="64" viewBox="0 0 64 64" fill="none" xmlns="http://www.w3.org/2000/svg"><path d="M49.328 41.118a1.25 1.25 0 100-2.5 1.25 1.25 0 000 2.5z" fill="#CF84B7"/><path d="M52.154 18.08c-1.94-3.646-4.639-7.063-8.021-10.157-2.994-2.738-5.985-4.713-7.967-5.888A43.76 43.76 0 0033.27.461c-.565-.28-1.127-.638-1.767-.362-.238.103-5.903 2.581-11.636 7.824-3.383 3.094-6.081 6.511-8.021 10.158a31.008 31.008 0 00-3.674 14.71v29.956c0 .692.56 1.253 1.252 1.253h45.152c.691 0 1.252-.561 1.252-1.253V32.791a31.008 31.008 0 00-3.674-14.71zM32 52.916c-.692 0-1.253.56-1.253 1.252v2.309h-14.07c1.262-2.224 3.087-4.141 5.359-5.61 2.582-1.67 5.571-2.644 8.711-2.849v1.14a1.253 1.253 0 002.505 0v-1.14c3.14.205 6.13 1.178 8.712 2.848 2.272 1.47 4.097 3.387 5.36 5.61H33.252v-2.308c0-.691-.56-1.252-1.252-1.252zM10.677 33.25h2.744v13.235h-2.744V33.25zm38.65 10.98c-.692 0-1.253.56-1.253 1.252v7.613a19.151 19.151 0 00-4.75-4.334c-2.987-1.932-6.447-3.044-10.071-3.253V29.117h5.427a1.253 1.253 0 000-2.505h-5.428v-5.761a1.253 1.253 0 00-2.505 0v5.761H25.32a1.253 1.253 0 000 2.505h5.428V45.51c-3.626.209-7.085 1.32-10.072 3.253a19.15 19.15 0 00-4.75 4.334v-20.49c0-3.6.857-7.106 2.548-10.422.436-.854.927-1.697 1.472-2.525l3.882 3.229a1.25 1.25 0 001.764-.162 1.252 1.252 0 00-.162-1.764l-4.015-3.34a33.412 33.412 0 012.744-3.071 39.349 39.349 0 016.588-5.228v4.387a1.252 1.252 0 102.505 0V9.325a39.346 39.346 0 016.584 5.223 33.42 33.42 0 012.75 3.076l-3.983 3.313a1.252 1.252 0 101.602 1.925l3.85-3.201a26.637 26.637 0 011.469 2.521c1.692 3.317 2.55 6.825 2.55 10.426v1.647a1.252 1.252 0 102.505 0V33.25h2.744v13.235h-2.744v-1.003c0-.692-.56-1.253-1.252-1.253zm3.922-13.485h-2.742c-.25-3.361-1.178-6.632-2.773-9.745a29.325 29.325 0 00-1.744-2.952l2.14-1.78a31.74 31.74 0 011.812 2.988 28.502 28.502 0 013.307 11.489zM42.444 9.772a38.858 38.858 0 014.197 4.478l-2.128 1.77a35.993 35.993 0 00-2.969-3.308 42.062 42.062 0 00-6.142-4.983 53.73 53.73 0 00-2.15-1.329V3.269a46.307 46.307 0 019.19 6.503zm-20.948.057c3.574-3.281 7.185-5.451 9.253-6.558V6.4c-1.427.806-4.845 2.91-8.29 6.311a35.993 35.993 0 00-2.97 3.309l-2.128-1.77a38.77 38.77 0 014.135-4.422zm-7.46 9.471a31.726 31.726 0 011.834-3.031l2.14 1.78A29.325 29.325 0 0016.267 21c-1.595 3.113-2.523 6.384-2.773 9.745H10.75A28.5 28.5 0 0114.035 19.3zm-3.358 29.69h2.744v8.738c0 .688.584 1.264 1.272 1.253h16.054v2.514h-20.07V48.99zm22.575 12.505V58.98H49.32c.683 0 1.259-.565 1.259-1.253V48.99h2.744v12.504h-20.07z" fill="#CF84B7"/></svg>