<svg width="64" height="64" viewBox="0 0 64 64" fill="none" xmlns="http://www.w3.org/2000/svg"><g clip-path="url(#clip0_1658_8808)"><mask id="a" maskUnits="userSpaceOnUse" x="4.527" y="-1" width="55" height="66" fill="#000"><path fill="#fff" d="M4.527-1h55v66h-55z"/><path d="M51.786 8.878a.94.94 0 00-1.403 1.25 24.526 24.526 0 016.218 16.348v35.645h-2.86V26.476c0-5.809-2.272-11.272-6.395-15.385-4.11-4.098-9.555-6.352-15.342-6.352h-.062c-4.967.014-9.639 1.679-13.511 4.814a.94.94 0 001.182 1.46c3.536-2.863 7.8-4.383 12.334-4.395h.057c5.285 0 10.26 2.06 14.015 5.803 3.768 3.758 5.843 8.749 5.843 14.055v11.035h-4.584c-1.434-3.854-3.14-6.138-4.267-7.343 1.84-.383 2.916.748 3.059.909a.94.94 0 001.428-1.22c-.708-.836-2.454-1.972-4.759-1.546.216-.367.484-.654.802-.857 1.024-.652 2.327-.302 2.36-.292a.94.94 0 00.53-1.802c-.086-.026-2.118-.61-3.878.497a4.29 4.29 0 00-1.347 1.358c-.228-1.623.566-2.738.618-2.809a.94.94 0 00-1.498-1.133c-.074.097-1.364 1.836-.977 4.297-1.78-.466-3.468.177-4.337.784a.937.937 0 00-.232 1.301.942.942 0 001.304.242c.194-.133 1.608-1.033 3.17-.381-1.765.996-2.336 2.843-2.37 3.895a.942.942 0 00.91.971h.03a.936.936 0 00.938-.906c.011-.228.164-2.14 2.242-2.641.582.516 1.974 1.93 3.355 4.678.326.648.622 1.316.895 1.998h-26.5c.3-.751.602-1.417.894-1.998 1.381-2.748 2.773-4.162 3.355-4.678 2.075.501 2.23 2.406 2.242 2.64a.94.94 0 001.877-.065c-.032-1.05-.604-2.898-2.369-3.894 1.56-.65 2.972.246 3.17.38a.94.94 0 001.072-1.543c-.87-.607-2.557-1.25-4.336-.784.386-2.46-.903-4.2-.977-4.296a.942.942 0 00-1.319-.181.936.936 0 00-.18 1.313c.047.064.847 1.181.619 2.81a4.291 4.291 0 00-1.348-1.358c-1.76-1.107-3.792-.523-3.878-.497a.937.937 0 00-.632 1.16.942.942 0 001.161.642c.013-.003 1.33-.365 2.361.293.319.203.586.49.802.856-2.306-.426-4.051.71-4.76 1.546a.943.943 0 00.107 1.327.936.936 0 001.321-.106c.14-.158 1.216-1.293 3.06-.91-1.128 1.205-2.833 3.49-4.267 7.343h-4.584V26.677c0-4.832 1.737-9.507 4.89-13.164a.94.94 0 10-1.422-1.227 22.043 22.043 0 00-5.347 14.391v35.444h-2.86V26.476c0-6.57 2.559-12.747 7.205-17.393A24.436 24.436 0 0132.002 1.88c5.86 0 11.317 1.98 15.78 5.726a.94.94 0 001.208-1.44A26.459 26.459 0 0032.004 0c-7.072 0-13.721 2.754-18.722 7.755-5 5-7.755 11.65-7.755 18.721v36.585c0 .519.42.94.94.94H57.54a.94.94 0 00.94-.94V26.476a26.403 26.403 0 00-6.694-17.598zm.076 30.511v14.296h-1.96c-.077-6.055-.897-10.729-1.99-14.296h3.95zm-35.768 0c-1.092 3.567-1.912 8.241-1.99 14.296h-1.959V39.389h3.95zm-3.949 16.174h25.13a.94.94 0 100-1.878h-21.29c.083-6.276 1.003-10.94 2.093-14.296h27.855c1.572 4.838 2.033 10.133 2.091 14.296h-6.99a.94.94 0 000 1.878h10.829v6.558H12.145v-6.558z"/></mask><path d="M51.786 8.878a.94.94 0 00-1.403 1.25 24.526 24.526 0 016.218 16.348v35.645h-2.86V26.476c0-5.809-2.272-11.272-6.395-15.385-4.11-4.098-9.555-6.352-15.342-6.352h-.062c-4.967.014-9.639 1.679-13.511 4.814a.94.94 0 001.182 1.46c3.536-2.863 7.8-4.383 12.334-4.395h.057c5.285 0 10.26 2.06 14.015 5.803 3.768 3.758 5.843 8.749 5.843 14.055v11.035h-4.584c-1.434-3.854-3.14-6.138-4.267-7.343 1.84-.383 2.916.748 3.059.909a.94.94 0 001.428-1.22c-.708-.836-2.454-1.972-4.759-1.546.216-.367.484-.654.802-.857 1.024-.652 2.327-.302 2.36-.292a.94.94 0 00.53-1.802c-.086-.026-2.118-.61-3.878.497a4.29 4.29 0 00-1.347 1.358c-.228-1.623.566-2.738.618-2.809a.94.94 0 00-1.498-1.133c-.074.097-1.364 1.836-.977 4.297-1.78-.466-3.468.177-4.337.784a.937.937 0 00-.232 1.301.942.942 0 001.304.242c.194-.133 1.608-1.033 3.17-.381-1.765.996-2.336 2.843-2.37 3.895a.942.942 0 00.91.971h.03a.936.936 0 00.938-.906c.011-.228.164-2.14 2.242-2.641.582.516 1.974 1.93 3.355 4.678.326.648.622 1.316.895 1.998h-26.5c.3-.751.602-1.417.894-1.998 1.381-2.748 2.773-4.162 3.355-4.678 2.075.501 2.23 2.406 2.242 2.64a.94.94 0 001.877-.065c-.032-1.05-.604-2.898-2.369-3.894 1.56-.65 2.972.246 3.17.38a.94.94 0 001.072-1.543c-.87-.607-2.557-1.25-4.336-.784.386-2.46-.903-4.2-.977-4.296a.942.942 0 00-1.319-.181.936.936 0 00-.18 1.313c.047.064.847 1.181.619 2.81a4.291 4.291 0 00-1.348-1.358c-1.76-1.107-3.792-.523-3.878-.497a.937.937 0 00-.632 1.16.942.942 0 001.161.642c.013-.003 1.33-.365 2.361.293.319.203.586.49.802.856-2.306-.426-4.051.71-4.76 1.546a.943.943 0 00.107 1.327.936.936 0 001.321-.106c.14-.158 1.216-1.293 3.06-.91-1.128 1.205-2.833 3.49-4.267 7.343h-4.584V26.677c0-4.832 1.737-9.507 4.89-13.164a.94.94 0 10-1.422-1.227 22.043 22.043 0 00-5.347 14.391v35.444h-2.86V26.476c0-6.57 2.559-12.747 7.205-17.393A24.436 24.436 0 0132.002 1.88c5.86 0 11.317 1.98 15.78 5.726a.94.94 0 001.208-1.44A26.459 26.459 0 0032.004 0c-7.072 0-13.721 2.754-18.722 7.755-5 5-7.755 11.65-7.755 18.721v36.585c0 .519.42.94.94.94H57.54a.94.94 0 00.94-.94V26.476a26.403 26.403 0 00-6.694-17.598zm.076 30.511v14.296h-1.96c-.077-6.055-.897-10.729-1.99-14.296h3.95zm-35.768 0c-1.092 3.567-1.912 8.241-1.99 14.296h-1.959V39.389h3.95zm-3.949 16.174h25.13a.94.94 0 100-1.878h-21.29c.083-6.276 1.003-10.94 2.093-14.296h27.855c1.572 4.838 2.033 10.133 2.091 14.296h-6.99a.94.94 0 000 1.878h10.829v6.558H12.145v-6.558z" fill="#CF84B7"/><path d="M51.786 8.878a.94.94 0 00-1.403 1.25 24.526 24.526 0 016.218 16.348v35.645h-2.86V26.476c0-5.809-2.272-11.272-6.395-15.385-4.11-4.098-9.555-6.352-15.342-6.352h-.062c-4.967.014-9.639 1.679-13.511 4.814a.94.94 0 001.182 1.46c3.536-2.863 7.8-4.383 12.334-4.395h.057c5.285 0 10.26 2.06 14.015 5.803 3.768 3.758 5.843 8.749 5.843 14.055v11.035h-4.584c-1.434-3.854-3.14-6.138-4.267-7.343 1.84-.383 2.916.748 3.059.909a.94.94 0 001.428-1.22c-.708-.836-2.454-1.972-4.759-1.546.216-.367.484-.654.802-.857 1.024-.652 2.327-.302 2.36-.292a.94.94 0 00.53-1.802c-.086-.026-2.118-.61-3.878.497a4.29 4.29 0 00-1.347 1.358c-.228-1.623.566-2.738.618-2.809a.94.94 0 00-1.498-1.133c-.074.097-1.364 1.836-.977 4.297-1.78-.466-3.468.177-4.337.784a.937.937 0 00-.232 1.301.942.942 0 001.304.242c.194-.133 1.608-1.033 3.17-.381-1.765.996-2.336 2.843-2.37 3.895a.942.942 0 00.91.971h.03a.936.936 0 00.938-.906c.011-.228.164-2.14 2.242-2.641.582.516 1.974 1.93 3.355 4.678.326.648.622 1.316.895 1.998h-26.5c.3-.751.602-1.417.894-1.998 1.381-2.748 2.773-4.162 3.355-4.678 2.075.501 2.23 2.406 2.242 2.64a.94.94 0 001.877-.065c-.032-1.05-.604-2.898-2.369-3.894 1.56-.65 2.972.246 3.17.38a.94.94 0 001.072-1.543c-.87-.607-2.557-1.25-4.336-.784.386-2.46-.903-4.2-.977-4.296a.942.942 0 00-1.319-.181.936.936 0 00-.18 1.313c.047.064.847 1.181.619 2.81a4.291 4.291 0 00-1.348-1.358c-1.76-1.107-3.792-.523-3.878-.497a.937.937 0 00-.632 1.16.942.942 0 001.161.642c.013-.003 1.33-.365 2.361.293.319.203.586.49.802.856-2.306-.426-4.051.71-4.76 1.546a.943.943 0 00.107 1.327.936.936 0 001.321-.106c.14-.158 1.216-1.293 3.06-.91-1.128 1.205-2.833 3.49-4.267 7.343h-4.584V26.677c0-4.832 1.737-9.507 4.89-13.164a.94.94 0 10-1.422-1.227 22.043 22.043 0 00-5.347 14.391v35.444h-2.86V26.476c0-6.57 2.559-12.747 7.205-17.393A24.436 24.436 0 0132.002 1.88c5.86 0 11.317 1.98 15.78 5.726a.94.94 0 001.208-1.44A26.459 26.459 0 0032.004 0c-7.072 0-13.721 2.754-18.722 7.755-5 5-7.755 11.65-7.755 18.721v36.585c0 .519.42.94.94.94H57.54a.94.94 0 00.94-.94V26.476a26.403 26.403 0 00-6.694-17.598zm.076 30.511v14.296h-1.96c-.077-6.055-.897-10.729-1.99-14.296h3.95zm-35.768 0c-1.092 3.567-1.912 8.241-1.99 14.296h-1.959V39.389h3.95zm-3.949 16.174h25.13a.94.94 0 100-1.878h-21.29c.083-6.276 1.003-10.94 2.093-14.296h27.855c1.572 4.838 2.033 10.133 2.091 14.296h-6.99a.94.94 0 000 1.878h10.829v6.558H12.145v-6.558z" stroke="#CF84B7" stroke-width=".4" mask="url(#a)"/><path d="M31.996 12.597a4.081 4.081 0 014.077 4.076 4.082 4.082 0 01-4.077 4.077 4.081 4.081 0 01-4.076-4.077 4.08 4.08 0 014.076-4.076zm0 2.078a2 2 0 00-1.998 1.998 2 2 0 001.998 1.998 2 2 0 001.998-1.998 2 2 0 00-1.998-1.998zm.006-6.075a1.04 1.04 0 011.039 1.04v1.031a1.04 1.04 0 11-2.078 0V9.64c0-.574.465-1.04 1.039-1.04zm0 13.036c.574 0 1.039.465 1.039 1.039v1.031a1.04 1.04 0 11-2.078 0v-1.031c0-.574.465-1.039 1.039-1.039zm7.031-6.001a1.04 1.04 0 110 2.078h-1.031a1.039 1.039 0 110-2.078h1.031zm-13.035 0a1.04 1.04 0 110 2.078h-1.031a1.039 1.039 0 110-2.078h1.031zm9.507 4.547a1.04 1.04 0 011.47 0l.73.73a1.04 1.04 0 01-1.47 1.469l-.73-.73a1.04 1.04 0 010-1.47zm-9.211-9.217a1.04 1.04 0 011.47 0l.73.73a1.04 1.04 0 01-1.47 1.47l-.73-.73a1.04 1.04 0 010-1.47zm.729 9.217a1.04 1.04 0 011.47 1.47l-.73.73a1.04 1.04 0 01-1.47-1.47l.73-.73zm9.212-9.217a1.04 1.04 0 111.47 1.47l-.73.73a1.04 1.04 0 01-1.47-1.47l.73-.73zM24.85 42.476a3.78 3.78 0 012.409.873 1.69 1.69 0 002.165 0 3.779 3.779 0 012.462-.873h-.001a3.779 3.779 0 012.462.873 1.69 1.69 0 002.165 0 3.777 3.777 0 012.407-.873h.002a1.039 1.039 0 010 2.078c-.393 0-.776.14-1.078.391a3.765 3.765 0 01-4.826 0 1.706 1.706 0 00-.963-.386l-.15-.005h-.037l-.15.005c-.3.022-.593.124-.842.296l-.121.09a3.77 3.77 0 01-4.826 0 1.696 1.696 0 00-1.08-.391 1.04 1.04 0 01.002-2.078h0zm-3.75 5.049a3.78 3.78 0 012.409.873 1.69 1.69 0 002.165 0 3.76 3.76 0 012.48-.873 1.04 1.04 0 011.02 1.058 1.041 1.041 0 01-1.057 1.02h-.03c-.395 0-.78.139-1.083.392a3.764 3.764 0 01-4.826 0 1.697 1.697 0 00-1.08-.392 1.039 1.039 0 01.002-2.078h0zm14.532 0a3.78 3.78 0 012.408.873 1.691 1.691 0 002.165 0 3.766 3.766 0 012.48-.873 1.04 1.04 0 011.021 1.058 1.041 1.041 0 01-1.058 1.02h-.03c-.395 0-.779.139-1.083.392a3.765 3.765 0 01-4.826 0 1.697 1.697 0 00-1.08-.392 1.039 1.039 0 01.002-2.078h0z" fill="#CF84B7" stroke="#CF84B7" stroke-width=".2"/></g><defs><clipPath id="clip0_1658_8808"><path fill="#fff" d="M0 0h64v64H0z"/></clipPath></defs></svg>