<svg width="137" height="34" viewBox="0 0 137 34" fill="none" xmlns="http://www.w3.org/2000/svg"><path d="M3 5l10 24M1 19l8 10" stroke="#CF84B7" stroke-width="2" stroke-linecap="round" stroke-linejoin="round"/><path d="M37.74 10.948c-.476-1.008-.868-1.82-1.316-2.884-.392-.812-.672-1.4-1.4-2.268 1.372-.252 2.576-.448 3.332-.448.728 0 .952.196.952.588 0 .252-.028.532.028.784.084.336.196.728.448 1.4.336.84.588 1.512.952 2.268 2.548-.588 4.396-1.176 5.852-1.736.28-.14.364-.112.532.196.28.532.532 1.512.7 2.156.084.28-.028.42-.224.476-1.344.504-2.968 1.008-5.572 1.624 1.148 2.072 2.548 3.976 4.284 5.908.224.224.476.42.728.616.168.14.28.224.28.364 0 .196-.084.336-.168.476-.196.476-.756 1.372-1.092 1.82-.224.308-.364.42-.56.42-.14 0-.224-.056-.448-.224-.364-.252-.616-.448-1.148-.728-1.82-.952-3.864-1.428-5.936-1.428-2.912 0-4.676.868-4.676 2.632 0 2.1 2.548 2.968 6.944 2.968 1.372 0 3.024-.14 4.48-.392-.112 1.12-.392 2.38-.588 2.996-.084.28-.196.336-.532.392-.504.084-1.932.196-3.108.196-6.608 0-10.164-2.1-10.164-5.796 0-3.192 2.744-5.432 7.364-5.432 2.268 0 3.836.336 4.984.756-1.372-1.288-2.492-2.828-3.612-4.956a57.783 57.783 0 01-5.404.7c-.756.056-2.044.14-2.744.14-.252 0-.364-.168-.448-.504-.28-.868-.42-1.456-.644-2.52 1.428.056 2.576.028 3.5-.028 1.176-.056 2.576-.224 4.424-.532zm24.948-3.556c.672-1.008 1.204-1.736 1.652-2.184.14-.14.308-.224.532-.14 2.072.812 3.808 1.876 5.488 3.332.14.112.196.196.196.308 0 .084-.056.196-.14.336-.364.588-.952 1.4-1.428 1.96-.112.14-.224.224-.308.224-.112 0-.196-.056-.336-.196-1.568-1.372-3.444-2.66-5.656-3.64zm-1.96 3.892c1.092.308 2.268.644 2.912 1.008.308.14.448.308.448.532 0 .14-.056.28-.14.42a5.25 5.25 0 00-.56 1.484 46.73 46.73 0 00-.672 5.096c2.576-2.604 5.936-4.424 9.352-4.424 4.088 0 6.524 2.38 6.524 5.992 0 3.052-1.82 5.068-4.228 6.272-1.876.952-4.76 1.624-7.168 1.932-.616.084-.868.056-1.12-.364-.532-.952-1.036-1.708-1.904-2.38 3.136-.196 5.824-.728 7.7-1.568 2.268-.98 3.304-2.436 3.304-4.228 0-1.512-.952-2.884-3.36-2.884-2.464 0-5.432 1.596-8.064 4.256-.504.504-.868.98-1.204 1.54-.168.28-.28.28-.644.196A19.25 19.25 0 0160 23.408c-.28-.112-.392-.168-.392-.56.168-3.248.532-6.552.868-9.044.112-.84.252-1.568.252-2.52zm28.224-4.62c1.26.308 2.156.588 2.996 1.036.476.252.644.42.644.672 0 .196-.056.28-.42.84-.28.504-.42.896-.672 1.988-.784 3.472-1.176 6.916-1.176 9.044 0 1.372.056 2.296.168 3.276.588-1.288 1.092-2.212 1.904-4.172.224.7.588 1.148.98 1.764.084.14.196.308.196.42a.775.775 0 01-.14.448c-.644 1.456-1.176 2.66-1.596 4.228-.056.168-.084.476-.084.868 0 .336.056.56.056.784 0 .196-.112.308-.364.364-.7.196-1.484.364-2.296.448-.196.028-.308-.112-.364-.308-.784-1.96-1.288-5.516-1.288-8.344 0-2.52.308-5.572.952-9.184.364-2.072.504-2.996.504-4.172zm6.44 14.448l2.548-.224c.224-.028.28.112.28.42.168 1.932 1.512 2.632 4.564 2.632 2.1 0 3.472-.14 5.348-.364.28-.028.336 0 .392.364.084.588.168 1.68.168 2.408 0 .336 0 .364-.476.42-1.904.224-3.248.308-4.564.308-4.144 0-6.076-.672-7.28-2.324-.7-.896-.98-2.324-.98-3.64zm.896-7.952c.028-1.568.028-2.268.084-2.744.028-.336.112-.42.392-.476 1.652-.308 4.788-.504 6.076-.504 1.68 0 2.968.056 4.144.168.588.028.644.084.644.364 0 .84 0 1.596-.056 2.38-.028.252-.112.364-.364.336a67.63 67.63 0 00-4.564-.168c-1.876 0-3.696.168-6.356.644z" fill="#CF84B7"/><path d="M134 5l-10 24m12-10l-8 10" stroke="#CF84B7" stroke-width="2" stroke-linecap="round" stroke-linejoin="round"/></svg>