<svg width="64" height="64" viewBox="0 0 64 64" fill="none" xmlns="http://www.w3.org/2000/svg"><path d="M49.775 19.386l-11.681-.087m5.841-3.401l-5.841-.044m15.001.044l-5.841-.044m4.083-7.295a1.757 1.757 0 010 3.513H38.094m2.966 14.079a1.757 1.757 0 100-3.513h-2.966M17.694 4.82H32V32H4.82V8.398A3.578 3.578 0 018.398 4.82h5.015" stroke="#CF84B7" stroke-width="2.4" stroke-miterlimit="10" stroke-linecap="round" stroke-linejoin="round"/><path d="M59.18 32H32V4.82h23.602a3.578 3.578 0 013.578 3.578V32zM32 59.18H8.398a3.578 3.578 0 01-3.578-3.578V32H32v27.18zm13.117 0H32V32h27.18v23.602a3.578 3.578 0 01-3.578 3.578h-6.204" stroke="#CF84B7" stroke-width="2.4" stroke-miterlimit="10" stroke-linecap="round" stroke-linejoin="round"/><path d="M51.616 45.28l-.092.002a2.976 2.976 0 00-2.88-3.71c-.468 0-.91.108-1.305.3a3.917 3.917 0 10-7.535 1.968 3.709 3.709 0 00.498 7.384h11.314a2.972 2.972 0 100-5.944zM20.58 50.99a4.706 4.706 0 11-9.412 0c0-2.374 2.545-5.957 3.892-7.688a1.032 1.032 0 011.629 0c1.347 1.73 3.892 5.314 3.892 7.688zm6.782-8.79a3.39 3.39 0 01-6.78 0c0-1.71 1.833-4.291 2.803-5.538a.744.744 0 011.174 0c.97 1.247 2.803 3.828 2.803 5.538zm-3.807-23.789a4.707 4.707 0 11-9.414 0 4.707 4.707 0 019.414 0zM18.848 8.395v1.747m7.082 1.186l-1.235 1.236m4.169 5.846h-1.747m-1.187 7.082l-1.235-1.235m-5.847 4.169v-1.747m-7.082-1.187L13 24.257M8.836 18.41h1.746m1.184-7.082L13 12.564" stroke="#CF84B7" stroke-width="2.4" stroke-miterlimit="10" stroke-linecap="round" stroke-linejoin="round"/></svg>