<svg width="64" height="64" viewBox="0 0 64 64" fill="none" xmlns="http://www.w3.org/2000/svg"><g clip-path="url(#clip0_1658_8872)" stroke="#CF84B7" stroke-width="2.4" stroke-miterlimit="10"><path d="M25.807 42.324h12.387a4.128 4.128 0 004.13-4.13v-9.29a4.128 4.128 0 00-4.13-4.129h-22.71a4.128 4.128 0 00-4.129 4.13v9.29a4.128 4.128 0 004.13 4.129h6.193"/><path d="M35.094 42.323v3.097a2.07 2.07 0 01-2.064 2.064H20.643a2.07 2.07 0 01-2.065-2.064v-3.097"/><path d="M26.84 47.485V62.97m-2.986-15.485l-6.307 13.42m12.277-13.42l6.307 13.42" stroke-linecap="round"/><path d="M53.68 41.29l-11.356-4.129v-7.225l11.355-4.13v15.485z"/><path d="M23.969 6.411a8.234 8.234 0 013.778 8.413M23.97 6.411a8.256 8.256 0 00-4.357-1.249 8.256 8.256 0 00-8.258 8.258 8.256 8.256 0 008.258 8.258 8.241 8.241 0 006.266-2.89" stroke-linecap="round"/><path d="M23.969 6.411a10.309 10.309 0 019.063-5.378c5.698 0 10.323 4.625 10.323 10.323S38.73 21.678 33.032 21.678a10.294 10.294 0 01-7.154-2.89m-3.14-8.238a10.285 10.285 0 003.138 8.237m-9.36 11.149h2.064" stroke-linecap="round"/></g><defs><clipPath id="clip0_1658_8872"><path fill="#fff" d="M0 0h64v64H0z"/></clipPath></defs></svg>