<svg width="48" height="37" viewBox="0 0 48 37" fill="none" xmlns="http://www.w3.org/2000/svg"><path d="M29.42 6.452s5.507 5.684 13.763 12.062c-8.234 6.364-13.723 12.03-13.723 12.03v6.452s7.392-9.748 18.437-18.457h.063l-.032-.025.072-.057h-.144C36.812 9.747 29.42 0 29.42 0v6.452zM18.58 30.548s-5.507-5.684-13.763-12.062c8.234-6.364 13.723-12.03 13.723-12.03V.004S11.148 9.752.104 18.46H.04l.032.025-.072.057h.144C11.188 27.253 18.58 37 18.58 37v-6.452z" fill="#D4C7B9"/><path d="M38.928 14.8v-4.162s-6.542.601-14.82.601c-8.277 0-14.819-.601-14.819-.601V14.8s6.542-.602 14.82-.602c8.277 0 14.819.602 14.819.602zm0 11.408v-4.162s-6.542.602-14.82.602c-8.277 0-14.819-.602-14.819-.602v4.162s6.542-.601 14.82-.601c8.277 0 14.819.601 14.819.601z" fill="#D4C7B9"/></svg>