<svg width="32" height="32" viewBox="0 0 32 32" fill="none" xmlns="http://www.w3.org/2000/svg"><path d="M7.744 22.452c-1.14 0-2.064.924-2.064 2.065v6.71h20.645v-6.194a2.582 2.582 0 00-2.58-2.58H12.388M9.807 14.71c-1.14 0-2.065.924-2.065 2.064v5.678h2.065m12.388-7.742c1.141 0 2.065.924 2.065 2.064v5.678M13.938 14.71h8.258v-4.646c0-1.14-.924-2.064-2.065-2.064h-8.258c-1.14 0-2.064.924-2.064 2.065v4.645h1.548M17.551.774c-.856 0-1.548.692-1.548 1.549 0-.857-.692-1.549-1.548-1.549-.857 0-1.549.692-1.549 1.549 0 1.29.774 2.193 1.549 2.771a6.077 6.077 0 001.548.842S19.1 4.903 19.1 2.323c0-.857-.692-1.549-1.549-1.549zM16 5.936V8m2.067 2.065a2.064 2.064 0 11-4.13 0m2.067 6.709a2.064 2.064 0 11-4.129 0m8.254 0a2.064 2.064 0 11-4.129 0m8.262 0a2.064 2.064 0 11-4.13 0m-6.194 8.258a2.064 2.064 0 11-4.13 0m8.259 0a2.064 2.064 0 11-4.13 0m8.258 0a2.064 2.064 0 11-4.129 0m8.258 0a2.064 2.064 0 11-4.129 0" stroke="#E29482" stroke-width="1.3" stroke-linecap="round" stroke-linejoin="round"/><path d="M13.936 10.065a2.064 2.064 0 01-2.064 2.065c-.181 0-.351-.031-.517-.072m10.842-1.993c0 .96-.66 1.76-1.549 1.993m-.001 0a2.111 2.111 0 01-.516.072 2.064 2.064 0 01-2.065-2.065m-6.192 6.709a2.064 2.064 0 01-2.065 2.065c-.18 0-.35-.031-.516-.072m.514 6.265c0 1.14-.924 2.065-2.064 2.065-.181 0-.351-.031-.516-.073" stroke="#E29482" stroke-width="1.3" stroke-linecap="round" stroke-linejoin="round"/></svg>