<svg width="32" height="33" viewBox="0 0 32 33" fill="none" xmlns="http://www.w3.org/2000/svg"><path d="M12 3.435c0 1.28-.835 3.715-2.5 3.715S7 4.72 7 3.435C7 1.58 8.35.65 9.5.65s2.5.93 2.5 2.785z" stroke="#CF84B7" stroke-width="1.3" stroke-linecap="round" stroke-linejoin="round"/><path d="M7 3.65s2 0 3-1c1 1 2 .5 2 .5m8 3s2 0 3-1c1 1 2 .5 2 .5m-15.5 9l2.5-6h.5a2 2 0 012 2v7.335c0 .435-.14.855-.4 1.2L13 20.65l-1 10.5H9.5m0 0H7l-1-10.5-1.1-1.465a1.99 1.99 0 01-.4-1.2V10.65a2 2 0 012-2H7l2.5 6" stroke="#CF84B7" stroke-width="1.3" stroke-linecap="round" stroke-linejoin="round"/><path d="M8 11.65l1.5-1.5 1.5 1.5" stroke="#CF84B7" stroke-width="1.3" stroke-linejoin="round"/><path d="M12 8.65l-2.5.5-2.5-.5" stroke="#CF84B7" stroke-width="1.3" stroke-linecap="round" stroke-linejoin="round"/><circle cx="9.5" cy="16.15" r=".5" fill="#CF84B7"/><circle cx="9.5" cy="18.15" r=".5" fill="#CF84B7"/><circle cx="9.5" cy="20.15" r=".5" fill="#CF84B7"/><path d="M23.404 3.34c-.3-.125-.61-.19-.905-.19-.295 0-.61.065-.905.19m.001 0C20.745 3.697 20 4.56 20 5.94c0 1.28.835 3.716 2.5 3.716S25 7.226 25 5.94c0-1.375-.74-2.24-1.595-2.6" stroke="#CF84B7" stroke-width="1.3" stroke-linecap="round" stroke-linejoin="round"/><path d="M23.405 3.34c.36-.275.595-.7.595-1.19 0-.83-.67-1.5-1.5-1.5s-1.5.67-1.5 1.5c0 .485.235.915.595 1.19M17 30.15c.5-1.5.5-3.5.5-6.5 0-4 3-5.5 3-5.5s-.49-.815-.91-1.885c-.315-.805-.59-1.755-.59-2.615 0-1 .5-2.5 2-2.5.5 0 1.5 1.5 1.5 1.5m5.5 17.5c-.5-1.5-.5-3.5-.5-6.5 0-4-3-5.5-3-5.5s.49-.815.91-1.885c.315-.805.59-1.755.59-2.615 0-1-.5-2.5-2-2.5-.5 0-1.5 1.5-1.5 1.5" stroke="#CF84B7" stroke-width="1.3" stroke-linecap="round" stroke-linejoin="round"/><path d="M20.834 25.65c0 .55-.745 1-1.665 1s-1.665-.45-1.665-1m6.662 0c0 .55-.745 1-1.665 1s-1.665-.45-1.665-1m6.666 0c0 .55-.745 1-1.665 1s-1.665-.45-1.665-1m-3.506 4.5c0 .55-.82 1-1.835 1-1.015 0-1.835-.45-1.835-1" stroke="#CF84B7" stroke-width="1.3" stroke-linecap="round" stroke-linejoin="round"/><path d="M24.334 30.15c0 .55-.82 1-1.835 1-1.015 0-1.835-.45-1.835-1" stroke="#CF84B7" stroke-width="1.3" stroke-linecap="round" stroke-linejoin="round"/><path d="M27.998 30.15c0 .55-.82 1-1.835 1-1.015 0-1.835-.45-1.835-1" stroke="#CF84B7" stroke-width="1.3" stroke-linecap="round" stroke-linejoin="round"/></svg>