<svg width="32" height="32" viewBox="0 0 32 32" fill="none" xmlns="http://www.w3.org/2000/svg"><g clip-path="url(#clip0_1634_73558)" fill="#E29482"><path d="M25.631 27.676H.667A.667.667 0 010 27.01V12.72a.667.667 0 01.667-.666H25.63a.666.666 0 01.667.666v14.29a.666.666 0 01-.667.666zM1.333 26.343h23.632V13.387H1.333v12.956z"/><path d="M21.334 25.657H4.969a.667.667 0 01-.667-.667 1.34 1.34 0 00-1.338-1.338.667.667 0 01-.667-.666v-6.24a.667.667 0 01.667-.666 1.341 1.341 0 001.338-1.34.667.667 0 01.667-.666h16.365a.667.667 0 01.666.667 1.34 1.34 0 001.334 1.339.667.667 0 01.666.666v6.24a.667.667 0 01-.666.666 1.34 1.34 0 00-1.338 1.338.666.666 0 01-.662.667zm-15.78-1.333h15.2a2.684 2.684 0 011.913-1.924v-5.072a2.682 2.682 0 01-1.92-1.92H5.55a2.68 2.68 0 01-1.92 1.92V22.4a2.682 2.682 0 011.92 1.924h.003z"/><path d="M13.148 23.54a3.675 3.675 0 11-.001-7.35 3.675 3.675 0 01.001 7.35zm0-6.016a2.342 2.342 0 10-.001 4.684 2.342 2.342 0 00.001-4.684z"/><path d="M27.213 23.858a.667.667 0 01-.067-1.33l.77-.08-1.354-12.885L5.1 11.816a.667.667 0 11-.14-1.327l22.123-2.322a.667.667 0 01.734.593l1.492 14.211a.668.668 0 01-.593.734l-1.433.15-.07.003z"/><path d="M30.246 19.898a.667.667 0 01-.126-1.32l.434-.084-2.44-12.724L7.218 9.778a.668.668 0 11-.251-1.311l21.55-4.134a.667.667 0 01.78.529l2.691 14.034a.667.667 0 01-.53.78l-1.087.209a.675.675 0 01-.126.013z"/></g><defs><clipPath id="clip0_1634_73558"><path fill="#fff" d="M0 0h32v32H0z"/></clipPath></defs></svg>