<svg width="32" height="32" viewBox="0 0 32 32" fill="none" xmlns="http://www.w3.org/2000/svg"><path d="M11.35 24.258a6.71 6.71 0 110-13.42 6.65 6.65 0 014.036 1.363" stroke="#68AFD7" stroke-width="1.3" stroke-miterlimit="10" stroke-linecap="round"/><path d="M17.392 10.498a9.245 9.245 0 00-6.04-2.24 9.291 9.291 0 000 18.58 9.246 9.246 0 006.04-2.24 8.333 8.333 0 01-2.003-1.703" stroke="#68AFD7" stroke-width="1.3" stroke-miterlimit="10" stroke-linecap="round"/><path d="M15.386 12.201a6.66 6.66 0 00-4.036-1.362 6.71 6.71 0 102.282 13.017m1.758-.96a8.215 8.215 0 01-1.972-5.347m8.259-5.678a5.674 5.674 0 015.678 5.678 5.674 5.674 0 01-5.678 5.677 5.64 5.64 0 01-2.544-.61" stroke="#68AFD7" stroke-width="1.3" stroke-miterlimit="10" stroke-linecap="round"/><path d="M17.39 24.598a8.233 8.233 0 004.284 1.208 8.256 8.256 0 008.259-8.258 8.256 8.256 0 00-8.259-8.258 8.185 8.185 0 00-4.283 1.208 9.246 9.246 0 011.739 1.982m0 10.137a5.658 5.658 0 01-1.997-1.678m-1.743 1.956a8.235 8.235 0 002.003 1.704m-3.129-10.695a8.208 8.208 0 00-.846 3.644c0 2.044.743 3.907 1.972 5.347" stroke="#68AFD7" stroke-width="1.3" stroke-miterlimit="10" stroke-linecap="round"/><path d="M17.135 20.945A5.668 5.668 0 0116 17.549c0-1.275.423-2.447 1.135-3.397a6.8 6.8 0 00-1.744-1.956m3.742 10.421a5.607 5.607 0 002.544.609 5.674 5.674 0 005.678-5.677A5.674 5.674 0 0021 11.912m-1.867.568a9.23 9.23 0 011.512 5.068" stroke="#68AFD7" stroke-width="1.3" stroke-miterlimit="10" stroke-linecap="round"/><path d="M20.072 20.753c.372-.996.573-2.08.573-3.205a9.205 9.205 0 00-1.512-5.068m-1.071 5.069c0 1.239-.34 2.4-.93 3.396a5.711 5.711 0 001.998 1.677" stroke="#68AFD7" stroke-width="1.3" stroke-miterlimit="10" stroke-linecap="round"/><path d="M17.136 14.152A5.668 5.668 0 0016 17.55c0 1.274.423 2.446 1.136 3.396a6.646 6.646 0 00.84-4.46m3.115-7.196l-1.997-2.064 1.032-2.065h1.548m.585 4.129l1.997-2.064-1.032-2.065h-1.548" stroke="#68AFD7" stroke-width="1.3" stroke-miterlimit="10" stroke-linecap="round"/></svg>