<svg width="32" height="32" viewBox="0 0 32 32" fill="none" xmlns="http://www.w3.org/2000/svg"><path d="M14.259 7.696s3-.5 3 1c0 1-1 1.5-2.5 1.5s-3-.5-3-2.5 2-2.5 3.5-2.5c6 0 5 6 3 7-1.425.71-3.5 0-3.5 0s-1.5 1.5-4 0c-2.71-1.626-1-4.5-1-4.5s-1.5-2.5.5-4 3.5 0 3.5 0 2.5-2 5.5 0 .5 4.5.5 4.5" stroke="#68AFD7" stroke-width="1.3" stroke-linecap="round" stroke-linejoin="round"/><path d="M8.119 11.35c-.535-.05-1.155-.23-1.86-.654-2.71-1.625-1-4.5-1-4.5s-1.5-2.5.5-4 3.5-.5 3.5-.5 1.85-1.74 4.5-.5" stroke="#68AFD7" stroke-width="1.3" stroke-linecap="round" stroke-linejoin="round"/><path d="M7.898 7.955c-.395-.385-.64-.95-.64-1.76 0-1.705 1.455-2.32 2.81-2.465m11.69 4.466c6 0 6 6 3 7-1.06.355-2.5 0-2.5 0s-1 1.5-4 .5c-1.04-.345-1.555-.95-1.805-1.53" stroke="#68AFD7" stroke-width="1.3" stroke-linecap="round" stroke-linejoin="round"/><path d="M23.76 11.696c0 1-1 1.5-2.5 1.5-1.095 0-2.195-.265-2.705-1.195m2.203-1.306s3-.5 3 1m2.999.001s2-2-.5-4.5c-1.77-1.77-4-1-4-1s-.235-.67-1.62-.835m-1.379 10.835l-8 6-3 6.5c-1.5.5-4.5-1-4.5-2.5l3.5-6v-9m0 9s.5 1 2 1.5" stroke="#68AFD7" stroke-width="1.3" stroke-linecap="round" stroke-linejoin="round"/><path d="M22.758 28.196s-4.825 1.61-6-2.5c-1-3.5-5.5-3.5-5.5-3.5s3 2.5 2 5.5c-.705 2.12.5 3.5.5 3.5" stroke="#68AFD7" stroke-width="1.3" stroke-linecap="round" stroke-linejoin="round"/></svg>