<svg width="32" height="32" viewBox="0 0 32 32" fill="none" xmlns="http://www.w3.org/2000/svg"><g clip-path="url(#clip0_1634_73543)" fill="#78B991" stroke="#78B991" stroke-width=".188" stroke-linejoin="round"><path d="M23.008 14.898a5.094 5.094 0 11-5.094 5.093 5.1 5.1 0 015.094-5.093zm-.201 1.192a3.907 3.907 0 10.201-.005l-.201.005zm3.06 13.808c.052 0 .094.041.094.093v1a.094.094 0 01-.094.094h-5.715a.094.094 0 01-.093-.094v-1c0-.052.041-.093.093-.093h5.715zm2.141-2c.052 0 .094.041.094.093v1a.094.094 0 01-.094.094h-10a.094.094 0 01-.094-.094v-1c0-.052.042-.093.094-.093h10zm-20 0c.052 0 .094.041.094.093v1a.094.094 0 01-.094.094h-1a.094.094 0 01-.094-.094v-1c0-.052.042-.093.094-.093h1zm-3 1c.052 0 .094.041.094.093v1a.094.094 0 01-.094.094h-1a.094.094 0 01-.094-.094v-1c0-.052.042-.093.094-.093h1z"/><path d="M11.35 2.356a4.977 4.977 0 015.752-.933.593.593 0 01.156.95l-2.337 2.352h.425A4.976 4.976 0 0120.07 8.13c.02.06.03.124.03.188l-.011.12a.593.593 0 01-.582.473h-3.29l.249.25a4.975 4.975 0 01.932 5.748.594.594 0 01-.365.306l-.07.015a.594.594 0 01-.513-.165l-4.51-4.485a37.957 37.957 0 01-4.752 14.558c.48.234.953.485 1.41.76h22.41c.053 0 .095.042.095.094v1a.094.094 0 01-.094.094H10.33a18.763 18.763 0 013.115 3 .094.094 0 01-.013.132l-.774.634a.094.094 0 01-.132-.014 17.64 17.64 0 00-5.943-4.678c-.35.57-.71 1.13-1.089 1.67a.093.093 0 01-.13.023l-.82-.574a.094.094 0 01-.023-.13 36.463 36.463 0 006.32-17.66l-.333-.333-.485.483a28.244 28.244 0 01-6.56 16.214.095.095 0 01-.132.011l-.767-.641a.094.094 0 01-.011-.133c.07-.084.138-.17.207-.257-.444-.1-.89-.189-1.336-.253v0l-.287-.028a.095.095 0 01-.084-.103l.1-.996a.094.094 0 01.034-.062.094.094 0 01.068-.022l.312.032h.005c.67.098 1.333.233 1.989.403a27.001 27.001 0 005.137-12.849l-4.136 4.112a.591.591 0 01-.302.161l-.115.012a.593.593 0 01-.496-.267l-.036-.06a4.975 4.975 0 01.934-5.75l.248-.25H1.509a.594.594 0 01-.564-.781A4.976 4.976 0 015.67 4.725h.43L3.76 2.373a.593.593 0 01.155-.95 4.975 4.975 0 015.75.933l.477.478h0c.13.131.25.271.363.416a4.83 4.83 0 01.367-.416l.478-.478zM8.509 8.435a3.728 3.728 0 00-2.51.96l-.135.128-.477.478a3.787 3.787 0 00-1.004 3.57l5.05-5.021a3.863 3.863 0 00-.924-.115zm6.644 1.087a3.762 3.762 0 00-3.567-.971l5.049 5.02A3.786 3.786 0 0015.63 10l-.478-.478v0zm-.483-3.609a3.784 3.784 0 00-2.94 1.4 4.97 4.97 0 012.895.412h3.955a3.787 3.787 0 00-2.978-1.804l-.257-.008h-.675zm-8.998 0a3.787 3.787 0 00-3.234 1.812h3.957a4.97 4.97 0 012.893-.412 3.784 3.784 0 00-2.942-1.4H5.67zm10.09-3.722a3.789 3.789 0 00-3.571 1.005l-.472.47-.004.007c-.8.81-1.18 1.94-1.037 3.06a4.97 4.97 0 012.25-1.69l2.834-2.852zm-6.942.998a3.788 3.788 0 00-3.564-.998L8.09 5.043a4.97 4.97 0 011.39.794 4.85 4.85 0 01.359-1.463c-.15-.254-.33-.49-.536-.7l-.478-.478-.005-.007z"/></g><defs><clipPath id="clip0_1634_73543"><path fill="#fff" d="M0 0h32v32H0z"/></clipPath></defs></svg>