<svg width="74" height="14" viewBox="0 0 74 14" fill="none" xmlns="http://www.w3.org/2000/svg">
<path d="M0.888219 10.2451C0.962885 10.4131 1.06089 10.5858 1.18222 10.7631C1.31289 10.9311 1.46689 11.0851 1.64422 11.2251C1.83089 11.3651 2.04555 11.4818 2.28822 11.5751C2.53089 11.6591 2.80155 11.7011 3.10022 11.7011C3.40822 11.7011 3.68355 11.6498 3.92622 11.5471C4.17822 11.4351 4.38822 11.2904 4.55622 11.1131C4.73355 10.9264 4.86889 10.7118 4.96222 10.4691C5.05555 10.2171 5.10222 9.95111 5.10222 9.67111C5.10222 9.24178 4.99022 8.90111 4.76622 8.64911C4.55155 8.39711 4.28089 8.18711 3.95422 8.01911C3.62755 7.85111 3.27289 7.69711 2.89022 7.55711C2.51689 7.41711 2.16689 7.24444 1.84022 7.03911C1.51355 6.82444 1.23822 6.55378 1.01422 6.22711C0.799552 5.90044 0.692219 5.46178 0.692219 4.91111C0.692219 4.51911 0.762219 4.16444 0.902219 3.84711C1.04222 3.52044 1.24289 3.24044 1.50422 3.00711C1.77489 2.77378 2.09689 2.59178 2.47022 2.46111C2.84355 2.33044 3.26355 2.26511 3.73022 2.26511C4.17822 2.26511 4.56555 2.32111 4.89222 2.43311C5.21889 2.53578 5.52222 2.69911 5.80222 2.92311C5.71822 3.08178 5.64822 3.24978 5.59222 3.42711C5.53622 3.60444 5.48022 3.82844 5.42422 4.09911H5.25622C5.20955 3.96844 5.14422 3.82844 5.06022 3.67911C4.98555 3.52044 4.87822 3.37578 4.73822 3.24511C4.60755 3.11444 4.44889 3.00711 4.26222 2.92311C4.07555 2.82978 3.85155 2.78311 3.59022 2.78311C3.32889 2.78311 3.08622 2.82511 2.86222 2.90911C2.64755 2.99311 2.45622 3.11444 2.28822 3.27311C2.12955 3.42244 2.00355 3.60444 1.91022 3.81911C1.82622 4.03378 1.78422 4.26711 1.78422 4.51911C1.78422 4.95778 1.89155 5.30311 2.10622 5.55511C2.33022 5.80711 2.60555 6.02178 2.93222 6.19911C3.25889 6.36711 3.60889 6.52111 3.98222 6.66111C4.36489 6.79178 4.71955 6.95511 5.04622 7.15111C5.37289 7.34711 5.64355 7.59911 5.85822 7.90711C6.08222 8.21511 6.19422 8.62578 6.19422 9.13911C6.19422 9.56844 6.11489 9.97444 5.95622 10.3571C5.80689 10.7398 5.58289 11.0758 5.28422 11.3651C4.99489 11.6451 4.63555 11.8644 4.20622 12.0231C3.78622 12.1724 3.30555 12.2471 2.76422 12.2471C2.18555 12.2471 1.71422 12.1724 1.35022 12.0231C0.995552 11.8644 0.696885 11.6871 0.454219 11.4911C0.538219 11.2764 0.594219 11.0851 0.622219 10.9171C0.659552 10.7398 0.692219 10.5158 0.720219 10.2451H0.888219ZM16.1342 11.4911C16.0502 11.5658 15.9149 11.6498 15.7282 11.7431C15.5509 11.8271 15.3316 11.9064 15.0702 11.9811C14.8182 12.0464 14.5336 12.1071 14.2162 12.1631C13.8989 12.2191 13.5676 12.2471 13.2222 12.2471C12.4849 12.2471 11.8036 12.1444 11.1782 11.9391C10.5529 11.7244 10.0116 11.4024 9.55422 10.9731C9.10622 10.5438 8.75155 10.0211 8.49022 9.40511C8.23822 8.77978 8.11222 8.07044 8.11222 7.27711C8.11222 6.48378 8.23822 5.77911 8.49022 5.16311C8.75155 4.53778 9.11089 4.01044 9.56822 3.58111C10.0349 3.15178 10.5902 2.82511 11.2342 2.60111C11.8782 2.37711 12.5876 2.26511 13.3622 2.26511C13.9782 2.26511 14.5382 2.33044 15.0422 2.46111C15.5556 2.58244 16.0082 2.73178 16.4002 2.90911C16.3256 3.03978 16.2649 3.21711 16.2182 3.44111C16.1716 3.66511 16.1342 3.85178 16.1062 4.00111L16.0222 4.02911C15.9289 3.91711 15.7982 3.79111 15.6302 3.65111C15.4622 3.51111 15.2662 3.37578 15.0422 3.24511C14.8182 3.11444 14.5662 3.00711 14.2862 2.92311C14.0062 2.82978 13.6982 2.78311 13.3622 2.78311C12.8116 2.78311 12.2982 2.87178 11.8222 3.04911C11.3556 3.22644 10.9449 3.50178 10.5902 3.87511C10.2449 4.23911 9.97422 4.70578 9.77822 5.27511C9.58222 5.83511 9.48422 6.50244 9.48422 7.27711C9.48422 8.05178 9.58222 8.72378 9.77822 9.29311C9.97422 9.85311 10.2449 10.3198 10.5902 10.6931C10.9449 11.0571 11.3556 11.3278 11.8222 11.5051C12.2982 11.6824 12.8116 11.7711 13.3622 11.7711C13.6982 11.7711 14.0062 11.7291 14.2862 11.6451C14.5756 11.5611 14.8369 11.4631 15.0702 11.3511C15.3129 11.2298 15.5276 11.1038 15.7142 10.9731C15.9102 10.8331 16.0736 10.7118 16.2042 10.6091L16.2602 10.6651L16.1342 11.4911ZM18.9341 6.07311C18.9341 5.45711 18.9201 4.85511 18.8921 4.26711C18.8734 3.66978 18.8501 3.06311 18.8221 2.44711C19.0928 2.46578 19.3588 2.48444 19.6201 2.50311C19.8814 2.51244 20.1474 2.51711 20.4181 2.51711C20.6888 2.51711 20.9548 2.50778 21.2161 2.48911C21.4774 2.46111 21.7434 2.44711 22.0141 2.44711C22.4061 2.44711 22.7794 2.48444 23.1341 2.55911C23.4888 2.63378 23.7968 2.75978 24.0581 2.93711C24.3288 3.10511 24.5388 3.32911 24.6881 3.60911C24.8468 3.88911 24.9261 4.23911 24.9261 4.65911C24.9261 5.10711 24.8234 5.49444 24.6181 5.82111C24.4221 6.13844 24.1794 6.40444 23.8901 6.61911C23.6008 6.82444 23.2881 6.98778 22.9521 7.10911C22.6254 7.22111 22.3268 7.29578 22.0561 7.33311C22.1681 7.47311 22.3221 7.66911 22.5181 7.92111C22.7141 8.17311 22.9334 8.45311 23.1761 8.76111C23.4188 9.05978 23.6708 9.37711 23.9321 9.71311C24.1934 10.0398 24.4454 10.3571 24.6881 10.6651C24.9308 10.9638 25.1594 11.2391 25.3741 11.4911C25.5888 11.7431 25.7614 11.9344 25.8921 12.0651C25.7521 12.0464 25.6121 12.0371 25.4721 12.0371C25.3321 12.0371 25.1921 12.0371 25.0521 12.0371C24.9214 12.0371 24.7861 12.0371 24.6461 12.0371C24.5061 12.0371 24.3708 12.0464 24.2401 12.0651C24.1001 11.8691 23.8854 11.5751 23.5961 11.1831C23.3161 10.7911 23.0034 10.3711 22.6581 9.92311C22.3128 9.47511 21.9581 9.03178 21.5941 8.59311C21.2394 8.14511 20.9128 7.76711 20.6141 7.45911H20.0821V8.48111C20.0821 9.09711 20.0914 9.70378 20.1101 10.3011C20.1381 10.8984 20.1661 11.4864 20.1941 12.0651C19.9794 12.0464 19.7508 12.0371 19.5081 12.0371C19.2654 12.0371 19.0368 12.0464 18.8221 12.0651C18.8501 11.4864 18.8734 10.8984 18.8921 10.3011C18.9201 9.70378 18.9341 9.09711 18.9341 8.48111V6.07311ZM20.0821 6.87111C20.2128 6.89911 20.3528 6.91778 20.5021 6.92711C20.6608 6.93644 20.8334 6.94111 21.0201 6.94111C21.3094 6.94111 21.6081 6.90844 21.9161 6.84311C22.2334 6.77778 22.5228 6.66578 22.7841 6.50711C23.0454 6.33911 23.2601 6.11978 23.4281 5.84911C23.6054 5.56911 23.6941 5.21911 23.6941 4.79911C23.6941 4.43511 23.6241 4.13644 23.4841 3.90311C23.3534 3.66044 23.1808 3.46911 22.9661 3.32911C22.7514 3.18911 22.5181 3.09578 22.2661 3.04911C22.0141 2.99311 21.7668 2.96511 21.5241 2.96511C21.1974 2.96511 20.9268 2.97444 20.7121 2.99311C20.4974 3.00244 20.3154 3.01644 20.1661 3.03511C20.1474 3.54844 20.1288 4.05711 20.1101 4.56111C20.0914 5.06511 20.0821 5.56911 20.0821 6.07311V6.87111ZM27.4087 7.27711C27.4087 6.48378 27.5347 5.77911 27.7867 5.16311C28.048 4.53778 28.4074 4.01044 28.8647 3.58111C29.3314 3.15178 29.8867 2.82511 30.5307 2.60111C31.1747 2.37711 31.8794 2.26511 32.6447 2.26511C33.4194 2.26511 34.1287 2.37711 34.7727 2.60111C35.4167 2.82511 35.9674 3.15178 36.4247 3.58111C36.8914 4.01044 37.2507 4.53778 37.5027 5.16311C37.764 5.77911 37.8947 6.48378 37.8947 7.27711C37.8947 8.07044 37.764 8.77978 37.5027 9.40511C37.2507 10.0211 36.8914 10.5438 36.4247 10.9731C35.9674 11.4024 35.4167 11.7244 34.7727 11.9391C34.1287 12.1444 33.4194 12.2471 32.6447 12.2471C31.8794 12.2471 31.1747 12.1444 30.5307 11.9391C29.8867 11.7244 29.3314 11.4024 28.8647 10.9731C28.4074 10.5438 28.048 10.0211 27.7867 9.40511C27.5347 8.77978 27.4087 8.07044 27.4087 7.27711ZM36.5227 7.27711C36.5227 6.50244 36.4247 5.83511 36.2287 5.27511C36.0327 4.70578 35.7574 4.23911 35.4027 3.87511C35.0574 3.50178 34.6467 3.22644 34.1707 3.04911C33.704 2.87178 33.1954 2.78311 32.6447 2.78311C32.1034 2.78311 31.5947 2.87178 31.1187 3.04911C30.652 3.22644 30.2414 3.50178 29.8867 3.87511C29.5414 4.23911 29.2707 4.70578 29.0747 5.27511C28.8787 5.83511 28.7807 6.50244 28.7807 7.27711C28.7807 8.05178 28.8787 8.72378 29.0747 9.29311C29.2707 9.85311 29.5414 10.3198 29.8867 10.6931C30.2414 11.0571 30.652 11.3278 31.1187 11.5051C31.5947 11.6824 32.1034 11.7711 32.6447 11.7711C33.1954 11.7711 33.704 11.6824 34.1707 11.5051C34.6467 11.3278 35.0574 11.0571 35.4027 10.6931C35.7574 10.3198 36.0327 9.85311 36.2287 9.29311C36.4247 8.72378 36.5227 8.05178 36.5227 7.27711ZM40.5548 6.07311C40.5548 5.45711 40.5408 4.85511 40.5128 4.26711C40.4941 3.66978 40.4708 3.06311 40.4428 2.44711C40.5641 2.46578 40.6808 2.48444 40.7928 2.50311C40.9048 2.51244 41.0168 2.51711 41.1288 2.51711C41.2408 2.51711 41.3528 2.51244 41.4648 2.50311C41.5768 2.48444 41.6935 2.46578 41.8148 2.44711C41.7868 3.06311 41.7588 3.66978 41.7308 4.26711C41.7121 4.85511 41.7028 5.45711 41.7028 6.07311C41.7028 7.24911 41.7075 8.27111 41.7168 9.13911C41.7261 9.99778 41.7355 10.7678 41.7448 11.4491C42.4075 11.4491 43.0421 11.4444 43.6488 11.4351C44.2555 11.4164 44.9088 11.3604 45.6088 11.2671C45.5621 11.4351 45.5388 11.5751 45.5388 11.6871C45.5388 11.7898 45.5621 11.9158 45.6088 12.0651C45.1795 12.0464 44.7501 12.0371 44.3208 12.0371C43.8915 12.0371 43.4621 12.0371 43.0328 12.0371C42.5848 12.0371 42.1508 12.0371 41.7308 12.0371C41.3201 12.0371 40.8908 12.0464 40.4428 12.0651C40.4708 11.4864 40.4941 10.8984 40.5128 10.3011C40.5408 9.70378 40.5548 9.09711 40.5548 8.48111V6.07311ZM48.2548 6.07311C48.2548 5.45711 48.2408 4.85511 48.2128 4.26711C48.1941 3.66978 48.1708 3.06311 48.1428 2.44711C48.2641 2.46578 48.3808 2.48444 48.4928 2.50311C48.6048 2.51244 48.7168 2.51711 48.8288 2.51711C48.9408 2.51711 49.0528 2.51244 49.1648 2.50311C49.2768 2.48444 49.3935 2.46578 49.5148 2.44711C49.4868 3.06311 49.4588 3.66978 49.4308 4.26711C49.4121 4.85511 49.4028 5.45711 49.4028 6.07311C49.4028 7.24911 49.4075 8.27111 49.4168 9.13911C49.4261 9.99778 49.4355 10.7678 49.4448 11.4491C50.1075 11.4491 50.7421 11.4444 51.3488 11.4351C51.9555 11.4164 52.6088 11.3604 53.3088 11.2671C53.2621 11.4351 53.2388 11.5751 53.2388 11.6871C53.2388 11.7898 53.2621 11.9158 53.3088 12.0651C52.8795 12.0464 52.4501 12.0371 52.0208 12.0371C51.5915 12.0371 51.1621 12.0371 50.7328 12.0371C50.2848 12.0371 49.8508 12.0371 49.4308 12.0371C49.0201 12.0371 48.5908 12.0464 48.1428 12.0651C48.1708 11.4864 48.1941 10.8984 48.2128 10.3011C48.2408 9.70378 48.2548 9.09711 48.2548 8.48111V6.07311Z" fill="#42382B"/>
<path d="M62.8242 7.88477L62.8242 6.18868C62.8242 6.18868 65.3861 6.5066 71.3625 6.50661L73.0691 6.50581L73.0691 7.56755L71.3625 7.56666C65.3861 7.56664 62.8242 7.88477 62.8242 7.88477Z" fill="#42382B"/>
<path d="M70.2746 8.89887L72.683 7.03616L70.2746 5.17346L70.2746 3.77643L74 7.03616L70.2746 10.2959L70.2746 8.89887Z" fill="#42382B"/>
</svg>
