<svg width="16" height="16" viewBox="0 0 16 16" fill="none" xmlns="http://www.w3.org/2000/svg">
<path d="M7.97363 13.2109C7.98736 13.1968 10.3657 10.7447 13.9258 7.99512C10.3866 5.26012 8.01905 2.82179 7.9873 2.78906L7.9873 -5.99115e-10C8.01477 0.0361745 11.2077 4.2368 15.9678 7.9873L15.9863 7.9873C15.9831 7.98988 15.9798 7.99254 15.9766 7.99512C15.9842 8.00116 15.9923 8.00666 16 8.01269L15.9541 8.01269C11.1736 11.7794 7.97363 16 7.97363 16L7.97363 13.2109Z" fill="#D4C7B9"/>
<path d="M2.95801 13.2109C2.97378 13.1947 5.35161 10.7436 8.91016 7.99512C5.34693 5.24157 2.9707 2.78906 2.9707 2.78906L2.9707 -5.56742e-10C2.9707 -5.56742e-10 6.17143 4.22055 10.9521 7.9873L10.9707 7.9873C10.9674 7.98988 10.9642 7.99254 10.9609 7.99512C10.9686 8.00116 10.9767 8.00666 10.9844 8.01269L10.9385 8.01269C6.15794 11.7794 2.95801 16 2.95801 16L2.95801 13.2109Z" fill="#D4C7B9"/>
<path d="M10.4814 8L5.46505 12L5.46505 4L10.4814 8Z" fill="#D4C7B9"/>
</svg>
