<svg width="48" height="48" viewBox="0 0 48 48" fill="none" xmlns="http://www.w3.org/2000/svg">
<rect width="48" height="48" fill="#42382B"/>
<path d="M27.9121 19C27.9121 19 26.0673 17.2129 24 14.5352C21.9327 17.2129 20.0879 19 20.0879 19L18 19C18 19 21.1747 16.5931 24 13C26.8253 16.5931 30 19 30 19L27.9121 19Z" fill="white"/>
<path d="M14.8006 27.888C14.8006 27.056 14.7886 26.228 14.7646 25.404C14.5566 25.404 14.3366 25.408 14.1046 25.416C13.8806 25.416 13.6526 25.424 13.4206 25.44C13.1966 25.448 12.9766 25.46 12.7606 25.476C12.5526 25.492 12.3646 25.512 12.1966 25.536C12.2366 25.392 12.2566 25.264 12.2566 25.152C12.2566 25.064 12.2366 24.94 12.1966 24.78C12.7246 24.796 13.2406 24.812 13.7446 24.828C14.2486 24.836 14.7646 24.84 15.2926 24.84C15.8206 24.84 16.3366 24.836 16.8406 24.828C17.3446 24.812 17.8606 24.796 18.3886 24.78C18.3486 24.94 18.3286 25.068 18.3286 25.164C18.3286 25.268 18.3486 25.392 18.3886 25.536C18.2206 25.512 18.0286 25.492 17.8126 25.476C17.6046 25.46 17.3846 25.448 17.1526 25.44C16.9286 25.424 16.7006 25.416 16.4686 25.416C16.2446 25.408 16.0286 25.404 15.8206 25.404C15.7966 26.228 15.7846 27.056 15.7846 27.888V29.952C15.7846 30.48 15.7926 31 15.8086 31.512C15.8326 32.024 15.8566 32.528 15.8806 33.024C15.6966 33.008 15.5006 33 15.2926 33C15.0846 33 14.8886 33.008 14.7046 33.024C14.7286 32.528 14.7486 32.024 14.7646 31.512C14.7886 31 14.8006 30.48 14.8006 29.952V27.888ZM19.2833 28.92C19.2833 28.24 19.3913 27.636 19.6073 27.108C19.8313 26.572 20.1393 26.12 20.5313 25.752C20.9313 25.384 21.4073 25.104 21.9593 24.912C22.5113 24.72 23.1153 24.624 23.7713 24.624C24.4353 24.624 25.0433 24.72 25.5953 24.912C26.1473 25.104 26.6193 25.384 27.0113 25.752C27.4113 26.12 27.7193 26.572 27.9353 27.108C28.1593 27.636 28.2713 28.24 28.2713 28.92C28.2713 29.6 28.1593 30.208 27.9353 30.744C27.7193 31.272 27.4113 31.72 27.0113 32.088C26.6193 32.456 26.1473 32.732 25.5953 32.916C25.0433 33.092 24.4353 33.18 23.7713 33.18C23.1153 33.18 22.5113 33.092 21.9593 32.916C21.4073 32.732 20.9313 32.456 20.5313 32.088C20.1393 31.72 19.8313 31.272 19.6073 30.744C19.3913 30.208 19.2833 29.6 19.2833 28.92ZM27.0953 28.92C27.0953 28.256 27.0113 27.684 26.8433 27.204C26.6753 26.716 26.4393 26.316 26.1353 26.004C25.8393 25.684 25.4873 25.448 25.0793 25.296C24.6793 25.144 24.2433 25.068 23.7713 25.068C23.3073 25.068 22.8713 25.144 22.4633 25.296C22.0633 25.448 21.7113 25.684 21.4073 26.004C21.1113 26.316 20.8793 26.716 20.7113 27.204C20.5433 27.684 20.4593 28.256 20.4593 28.92C20.4593 29.584 20.5433 30.16 20.7113 30.648C20.8793 31.128 21.1113 31.528 21.4073 31.848C21.7113 32.16 22.0633 32.392 22.4633 32.544C22.8713 32.696 23.3073 32.772 23.7713 32.772C24.2433 32.772 24.6793 32.696 25.0793 32.544C25.4873 32.392 25.8393 32.16 26.1353 31.848C26.4393 31.528 26.6753 31.128 26.8433 30.648C27.0113 30.16 27.0953 29.584 27.0953 28.92ZM31.5354 28.788C31.8074 28.852 32.0914 28.884 32.3874 28.884C32.6354 28.884 32.8914 28.856 33.1554 28.8C33.4194 28.744 33.6594 28.644 33.8754 28.5C34.0994 28.348 34.2794 28.144 34.4154 27.888C34.5594 27.624 34.6314 27.288 34.6314 26.88C34.6314 26.536 34.5834 26.256 34.4874 26.04C34.3914 25.824 34.2554 25.656 34.0794 25.536C33.9114 25.416 33.7034 25.336 33.4554 25.296C33.2074 25.248 32.9274 25.224 32.6154 25.224H31.5354V28.788ZM30.5514 27.888C30.5514 27.36 30.5394 26.844 30.5154 26.34C30.4994 25.828 30.4794 25.308 30.4554 24.78C30.6474 24.796 30.8394 24.812 31.0314 24.828C31.2314 24.836 31.4274 24.84 31.6194 24.84C31.7154 24.84 31.8314 24.836 31.9674 24.828C32.1034 24.82 32.2394 24.816 32.3754 24.816C32.5194 24.808 32.6554 24.8 32.7834 24.792C32.9114 24.784 33.0194 24.78 33.1074 24.78C33.2274 24.78 33.3754 24.784 33.5514 24.792C33.7274 24.8 33.9114 24.824 34.1034 24.864C34.3034 24.904 34.4994 24.964 34.6914 25.044C34.8834 25.124 35.0554 25.24 35.2074 25.392C35.3674 25.544 35.4954 25.736 35.5914 25.968C35.6874 26.192 35.7354 26.472 35.7354 26.808C35.7354 27.336 35.6194 27.764 35.3874 28.092C35.1634 28.42 34.8834 28.676 34.5474 28.86C34.2194 29.044 33.8674 29.168 33.4914 29.232C33.1234 29.296 32.7954 29.328 32.5074 29.328C32.3234 29.328 32.1554 29.328 32.0034 29.328C31.8514 29.32 31.6954 29.308 31.5354 29.292V29.952C31.5354 30.48 31.5434 31 31.5594 31.512C31.5834 32.024 31.6074 32.528 31.6314 33.024C31.4474 33.008 31.2514 33 31.0434 33C30.8354 33 30.6394 33.008 30.4554 33.024C30.4794 32.528 30.4994 32.024 30.5154 31.512C30.5394 31 30.5514 30.48 30.5514 29.952V27.888Z" fill="white"/>
</svg>
