<svg width="40" height="40" viewBox="0 0 40 40" fill="none" xmlns="http://www.w3.org/2000/svg">
<rect width="40" height="40" fill="#42382B"/>
<path d="M23.2598 15.5C23.2598 15.5 21.7227 14.0108 20 11.7793C18.2773 14.0108 16.7402 15.5 16.7402 15.5L15 15.5C15.0009 15.4993 17.646 13.4938 20 10.5C22.354 13.4938 24.9991 15.4993 25 15.5L23.2598 15.5Z" fill="white"/>
<path d="M12.3339 23.24C12.3339 22.5467 12.3239 21.8567 12.3039 21.17C12.1305 21.17 11.9472 21.1733 11.7539 21.18C11.5672 21.18 11.3772 21.1867 11.1839 21.2C10.9972 21.2067 10.8139 21.2167 10.6339 21.23C10.4605 21.2433 10.3039 21.26 10.1639 21.28C10.1972 21.16 10.2139 21.0533 10.2139 20.96C10.2139 20.8867 10.1972 20.7833 10.1639 20.65C10.6039 20.6633 11.0339 20.6767 11.4539 20.69C11.8739 20.6967 12.3039 20.7 12.7439 20.7C13.1839 20.7 13.6139 20.6967 14.0339 20.69C14.4539 20.6767 14.8839 20.6633 15.3239 20.65C15.2905 20.7833 15.2739 20.89 15.2739 20.97C15.2739 21.0567 15.2905 21.16 15.3239 21.28C15.1839 21.26 15.0239 21.2433 14.8439 21.23C14.6705 21.2167 14.4872 21.2067 14.2939 21.2C14.1072 21.1867 13.9172 21.18 13.7239 21.18C13.5372 21.1733 13.3572 21.17 13.1839 21.17C13.1639 21.8567 13.1539 22.5467 13.1539 23.24V24.96C13.1539 25.4 13.1605 25.8333 13.1739 26.26C13.1939 26.6867 13.2139 27.1067 13.2339 27.52C13.0805 27.5067 12.9172 27.5 12.7439 27.5C12.5705 27.5 12.4072 27.5067 12.2539 27.52C12.2739 27.1067 12.2905 26.6867 12.3039 26.26C12.3239 25.8333 12.3339 25.4 12.3339 24.96V23.24ZM16.0694 24.1C16.0694 23.5333 16.1594 23.03 16.3394 22.59C16.5261 22.1433 16.7827 21.7667 17.1094 21.46C17.4427 21.1533 17.8394 20.92 18.2994 20.76C18.7594 20.6 19.2627 20.52 19.8094 20.52C20.3627 20.52 20.8694 20.6 21.3294 20.76C21.7894 20.92 22.1827 21.1533 22.5094 21.46C22.8427 21.7667 23.0994 22.1433 23.2794 22.59C23.4661 23.03 23.5594 23.5333 23.5594 24.1C23.5594 24.6667 23.4661 25.1733 23.2794 25.62C23.0994 26.06 22.8427 26.4333 22.5094 26.74C22.1827 27.0467 21.7894 27.2767 21.3294 27.43C20.8694 27.5767 20.3627 27.65 19.8094 27.65C19.2627 27.65 18.7594 27.5767 18.2994 27.43C17.8394 27.2767 17.4427 27.0467 17.1094 26.74C16.7827 26.4333 16.5261 26.06 16.3394 25.62C16.1594 25.1733 16.0694 24.6667 16.0694 24.1ZM22.5794 24.1C22.5794 23.5467 22.5094 23.07 22.3694 22.67C22.2294 22.2633 22.0327 21.93 21.7794 21.67C21.5327 21.4033 21.2394 21.2067 20.8994 21.08C20.5661 20.9533 20.2027 20.89 19.8094 20.89C19.4227 20.89 19.0594 20.9533 18.7194 21.08C18.3861 21.2067 18.0927 21.4033 17.8394 21.67C17.5927 21.93 17.3994 22.2633 17.2594 22.67C17.1194 23.07 17.0494 23.5467 17.0494 24.1C17.0494 24.6533 17.1194 25.1333 17.2594 25.54C17.3994 25.94 17.5927 26.2733 17.8394 26.54C18.0927 26.8 18.3861 26.9933 18.7194 27.12C19.0594 27.2467 19.4227 27.31 19.8094 27.31C20.2027 27.31 20.5661 27.2467 20.8994 27.12C21.2394 26.9933 21.5327 26.8 21.7794 26.54C22.0327 26.2733 22.2294 25.94 22.3694 25.54C22.5094 25.1333 22.5794 24.6533 22.5794 24.1ZM26.2795 23.99C26.5062 24.0433 26.7428 24.07 26.9895 24.07C27.1962 24.07 27.4095 24.0467 27.6295 24C27.8495 23.9533 28.0495 23.87 28.2295 23.75C28.4162 23.6233 28.5662 23.4533 28.6795 23.24C28.7995 23.02 28.8595 22.74 28.8595 22.4C28.8595 22.1133 28.8195 21.88 28.7395 21.7C28.6595 21.52 28.5462 21.38 28.3995 21.28C28.2595 21.18 28.0862 21.1133 27.8795 21.08C27.6728 21.04 27.4395 21.02 27.1795 21.02H26.2795V23.99ZM25.4595 23.24C25.4595 22.8 25.4495 22.37 25.4295 21.95C25.4162 21.5233 25.3995 21.09 25.3795 20.65C25.5395 20.6633 25.6995 20.6767 25.8595 20.69C26.0262 20.6967 26.1895 20.7 26.3495 20.7C26.4295 20.7 26.5262 20.6967 26.6395 20.69C26.7528 20.6833 26.8662 20.68 26.9795 20.68C27.0995 20.6733 27.2128 20.6667 27.3195 20.66C27.4262 20.6533 27.5162 20.65 27.5895 20.65C27.6895 20.65 27.8128 20.6533 27.9595 20.66C28.1062 20.6667 28.2595 20.6867 28.4195 20.72C28.5862 20.7533 28.7495 20.8033 28.9095 20.87C29.0695 20.9367 29.2128 21.0333 29.3395 21.16C29.4728 21.2867 29.5795 21.4467 29.6595 21.64C29.7395 21.8267 29.7795 22.06 29.7795 22.34C29.7795 22.78 29.6828 23.1367 29.4895 23.41C29.3028 23.6833 29.0695 23.8967 28.7895 24.05C28.5162 24.2033 28.2228 24.3067 27.9095 24.36C27.6028 24.4133 27.3295 24.44 27.0895 24.44C26.9362 24.44 26.7962 24.44 26.6695 24.44C26.5428 24.4333 26.4128 24.4233 26.2795 24.41V24.96C26.2795 25.4 26.2862 25.8333 26.2995 26.26C26.3195 26.6867 26.3395 27.1067 26.3595 27.52C26.2062 27.5067 26.0428 27.5 25.8695 27.5C25.6962 27.5 25.5328 27.5067 25.3795 27.52C25.3995 27.1067 25.4162 26.6867 25.4295 26.26C25.4495 25.8333 25.4595 25.4 25.4595 24.96V23.24Z" fill="white"/>
</svg>
