<svg width="69" height="27" viewBox="0 0 69 27" fill="none" xmlns="http://www.w3.org/2000/svg">
<path d="M63.9746 10.4291C64.3621 10.3451 64.6658 10.4185 64.8859 10.6491C65.1197 10.8652 65.2023 11.172 65.1335 11.5695C65.0647 11.9671 64.8665 12.3289 64.5388 12.655C64.2229 12.9785 63.8712 13.1823 63.4837 13.2662C63.0962 13.3502 62.7845 13.2901 62.5485 13.0861C62.3243 12.8796 62.2466 12.5775 62.3154 12.18C62.3842 11.7824 62.5776 11.4158 62.8956 11.0802C63.2274 10.73 63.5871 10.513 63.9746 10.4291ZM65.8416 2.28441C65.8541 2.21213 65.8818 2.08436 65.9248 1.9011C65.9817 1.70326 66.0727 1.50381 66.1979 1.30275C66.3369 1.0871 66.5129 0.886642 66.7258 0.701378C66.9504 0.51357 67.2389 0.381515 67.5911 0.305212C68.0256 0.211105 68.3442 0.263844 68.547 0.463427C68.7637 0.648419 68.8397 0.92765 68.7751 1.30112C68.7584 1.3975 68.7358 1.49515 68.7074 1.59407C68.679 1.69299 68.6288 1.81983 68.5568 1.97457C68.4869 2.11726 68.3931 2.29992 68.2755 2.52253C68.1717 2.73055 68.0281 3.00516 67.8448 3.34637L64.8068 9.04862L64.3841 9.14019L65.8416 2.28441Z" fill="#4C99C3"/>
<path d="M59.7409 2.11056C59.013 2.79003 58.2789 3.50565 57.5385 4.25742C56.8099 5.00664 56.0753 5.75713 55.335 6.50889C55.0446 6.8153 54.8037 7.06461 54.6122 7.25684C54.4324 7.44652 54.2734 7.61431 54.1352 7.76022C53.999 7.89408 53.8825 8.01208 53.7857 8.11422C53.6889 8.21635 53.5842 8.33181 53.4715 8.46058C53.5904 9.01463 53.734 9.62128 53.9025 10.2805C54.071 10.9398 54.2378 11.5762 54.4029 12.1898C54.5797 12.8009 54.7386 13.3521 54.8796 13.8433C55.0324 14.3321 55.1546 14.6709 55.2463 14.8597C54.9921 14.8916 54.7417 14.9342 54.4952 14.9876C54.2486 15.0411 53.9961 15.0957 53.7378 15.1517C53.5029 15.2026 53.2681 15.2534 53.0333 15.3043C52.8102 15.3526 52.6026 15.4092 52.4105 15.474C52.2985 15.0112 52.1978 14.5808 52.1084 14.1827C52.0212 13.7726 51.9308 13.3805 51.8373 13.0065C51.7458 12.6204 51.6475 12.2417 51.5422 11.8702C51.4391 11.4867 51.3166 11.0842 51.1748 10.6627C51.1314 10.5213 51.0745 10.4583 51.0041 10.4735C50.9571 10.4837 50.9007 10.5481 50.835 10.6667C50.781 10.7827 50.6782 11.0833 50.5264 11.5684C50.4779 11.7181 50.3941 11.974 50.2749 12.3361C50.1578 12.6861 50.0307 13.0615 49.8936 13.4623C49.7585 13.851 49.6265 14.2217 49.4977 14.5743C49.3806 14.9243 49.2989 15.1681 49.2525 15.3057C49.1818 15.5182 49.1222 15.6992 49.0737 15.8489C49.037 15.996 48.9985 16.1203 48.9584 16.2217C48.6807 16.2587 48.4127 16.3051 48.1544 16.3611C47.9078 16.4145 47.6671 16.4667 47.4323 16.5175C47.1622 16.576 46.9215 16.6282 46.7101 16.6739C46.5105 16.7172 46.3206 16.7699 46.1403 16.8322C46.3168 16.3997 46.5398 15.8296 46.8092 15.1218C47.0924 14.3995 47.3908 13.6217 47.7045 12.7885C48.0203 11.9431 48.3393 11.0797 48.6613 10.1983C48.9972 9.3022 49.3082 8.45212 49.5942 7.64802C49.8941 6.82933 50.157 6.09404 50.3828 5.44214C50.6086 4.79024 50.7752 4.28452 50.8826 3.92497C51.0663 3.90837 51.2559 3.89049 51.4514 3.87135C51.6606 3.83762 51.9062 3.79023 52.188 3.72918C52.4581 3.67069 52.7115 3.60998 52.9485 3.54706C53.1875 3.4721 53.4089 3.40095 53.6127 3.33362C53.38 3.89422 53.1401 4.497 52.8929 5.14194C52.6457 5.78687 52.4175 6.3871 52.2084 6.94262C52.0013 7.4861 51.8323 7.94015 51.7014 8.30478C51.5705 8.66942 51.504 8.85776 51.5019 8.86981C51.4873 8.95414 51.5094 8.98995 51.5681 8.97723C51.6151 8.96706 51.6928 8.90963 51.8014 8.80495C51.9099 8.70027 52.1221 8.48616 52.438 8.16262C53.3464 7.22372 54.2372 6.28863 55.1104 5.35736C55.9974 4.4115 56.872 3.43934 57.7342 2.44087C57.8591 2.43699 58.0076 2.42802 58.1796 2.41396C58.3536 2.38786 58.5111 2.35955 58.652 2.32902C58.8281 2.29087 59.0112 2.24543 59.2011 2.19268C59.4049 2.12535 59.5911 2.06183 59.7597 2.00213L59.7409 2.11056Z" fill="#4C99C3"/>
<path d="M46.9399 7.21368C46.6939 6.67557 46.3404 6.3347 45.8793 6.19107C45.432 6.03285 44.856 6.03004 44.1515 6.18265C43.2709 6.37341 42.4877 6.75177 41.8021 7.31773C41.1164 7.8837 40.5215 8.54598 40.0173 9.30456C39.5269 10.0486 39.1238 10.8432 38.808 11.6885C38.4922 12.5339 38.2686 13.336 38.1373 14.095C37.9351 15.2636 38.0671 16.1337 38.5333 16.7053C38.9995 17.2769 39.8139 17.4367 40.9763 17.1849C41.5399 17.0629 42.1005 16.8603 42.6581 16.5771C43.2157 16.294 43.744 15.9187 44.2431 15.4511L44.3797 15.5433C44.2047 15.8363 44.0446 16.1087 43.8993 16.3605C43.7678 16.5977 43.6253 16.8663 43.4717 17.1663C43.0709 17.3922 42.6646 17.5846 42.2529 17.7433C41.8529 17.8995 41.3476 18.0438 40.737 18.176C39.5393 18.4355 38.5704 18.483 37.8303 18.3186C37.102 18.1517 36.5509 17.842 36.1771 17.3896C35.8033 16.9371 35.5798 16.4 35.5066 15.7781C35.4354 15.1441 35.4551 14.5079 35.5656 13.8694C35.7365 12.8815 36.0721 11.9217 36.5724 10.99C37.0747 10.0463 37.7041 9.18525 38.4604 8.40685C39.2187 7.6164 40.0754 6.94381 41.0303 6.38909C41.9874 5.82232 43.0001 5.42321 44.0687 5.19175C44.644 5.06713 45.1534 4.99738 45.5967 4.98252C46.0422 4.95561 46.4306 4.96424 46.762 5.00841C47.0955 5.04053 47.38 5.09488 47.6154 5.17144C47.8508 5.24801 48.0482 5.31541 48.2076 5.37363C47.9718 5.69142 47.7574 6.01616 47.5644 6.34787C47.3831 6.67703 47.2337 6.95292 47.116 7.17553L46.9399 7.21368Z" fill="#4C99C3"/>
<path d="M29.7546 8.50082C30.2746 8.43455 30.8683 8.33495 31.5355 8.20202C32.2165 8.05451 32.8741 7.91207 33.5081 7.77473C34.1187 7.64247 34.6893 7.51309 35.2197 7.38659C35.7641 7.2455 36.2379 7.11966 36.6413 7.00909C36.4345 7.35539 36.2978 7.62271 36.2313 7.81105C36.1648 7.99939 36.1214 8.21751 36.1011 8.46542C35.8704 8.4922 35.6505 8.52245 35.4412 8.55619C35.234 8.57787 34.9847 8.61448 34.6932 8.66602C34.4038 8.70551 34.0537 8.76977 33.6427 8.85879C33.2455 8.93322 32.7358 9.03784 32.1135 9.17264C31.7888 9.93872 31.4817 10.701 31.1922 11.4594C30.9145 12.2153 30.687 12.8444 30.5097 13.3467L31.9363 13.0376C32.2416 12.9715 32.5117 12.913 32.7465 12.8621C32.9931 12.8087 33.2173 12.7544 33.419 12.6991C33.6207 12.6438 33.8165 12.5898 34.0065 12.5371C34.1964 12.4843 34.3864 12.4316 34.5763 12.3788C34.3494 12.7759 34.2075 13.0733 34.1507 13.2711C34.1056 13.4664 34.0722 13.6592 34.0506 13.8494C33.4525 13.9094 32.7964 14.0109 32.0822 14.154C31.3701 14.2851 30.697 14.4193 30.063 14.5566C29.761 15.3874 29.4639 16.2229 29.1715 17.0631C28.8931 17.8887 28.637 18.7153 28.4034 19.5429L29.8125 19.2376C30.106 19.1741 30.3643 19.1181 30.5874 19.0698C30.8126 19.0094 31.025 18.9576 31.2246 18.9144C31.4264 18.8591 31.6281 18.8038 31.8298 18.7485C32.0335 18.6812 32.2608 18.6087 32.5116 18.5312C32.2964 18.9257 32.1555 19.2171 32.089 19.4055C32.0343 19.5913 32.0062 19.7539 32.0046 19.8934C31.3043 20.0219 30.6488 20.1523 30.0382 20.2846C29.4393 20.4143 28.8757 20.5364 28.3473 20.6508C27.7133 20.7882 27.1262 20.9153 26.586 21.0323C26.0576 21.1468 25.5565 21.2669 25.0826 21.3928C25.2605 21.0179 25.481 20.4948 25.7441 19.8232C26.0211 19.137 26.3154 18.3833 26.627 17.5621C26.9407 16.7288 27.2538 15.8667 27.5662 14.9757C27.8924 14.0701 28.1937 13.2106 28.4701 12.3969C28.7603 11.5688 29.0156 10.8119 29.2359 10.1264C29.468 9.43837 29.6409 8.89651 29.7546 8.50082Z" fill="#4C99C3"/>
<path d="M16.0814 11.4636C16.2886 11.4419 16.5075 11.4176 16.7382 11.3909C16.971 11.352 17.2283 11.3021 17.5101 11.2411C17.8154 11.1749 18.0806 11.1117 18.3058 11.0513C18.5331 10.9789 18.7368 10.9116 18.9171 10.8493C18.6949 11.3497 18.4675 11.8802 18.2349 12.4408C18.0161 12.9868 17.8063 13.5135 17.6055 14.0208C17.4164 14.5256 17.2475 14.9796 17.0986 15.383C16.9517 15.7742 16.8461 16.058 16.7817 16.2343C17.1906 16.1573 17.67 16.0651 18.2197 15.9576C18.7834 15.8355 19.3353 15.716 19.8754 15.599C20.2511 15.5176 20.6269 15.4362 21.0026 15.3548C21.3922 15.2588 21.7759 15.1641 22.1537 15.0707C22.2361 14.8557 22.3549 14.5285 22.5101 14.089C22.677 13.647 22.8501 13.1689 23.0295 12.6546C23.2207 12.1378 23.4001 11.6235 23.5677 11.1117C23.7492 10.5854 23.9016 10.1291 24.025 9.74293C24.2204 9.72378 24.4511 9.69701 24.717 9.6626C24.9967 9.61361 25.2716 9.55986 25.5417 9.50136C25.8118 9.44286 26.0476 9.38597 26.2493 9.33069C26.4649 9.26081 26.6686 9.19348 26.8607 9.12869C26.5568 9.7743 26.2173 10.561 25.842 11.4888C25.4806 12.402 25.0897 13.4201 24.6693 14.5432C24.2628 15.6517 23.8358 16.8458 23.3883 18.1255C22.9526 19.4027 22.5175 20.7087 22.0831 22.0435C21.8524 22.0703 21.6079 22.1117 21.3496 22.1676C21.103 22.221 20.8623 22.2732 20.6275 22.324C20.3691 22.38 20.1225 22.4334 19.8877 22.4843C19.6529 22.5351 19.4277 22.5955 19.2121 22.6654C19.4143 22.2158 19.6057 21.7626 19.7864 21.306C19.9789 20.8469 20.1686 20.371 20.3556 19.8782C20.5543 19.3829 20.7524 18.8588 20.9498 18.3058C21.1589 17.7503 21.3833 17.1393 21.6229 16.4728C21.3549 16.5193 21.0331 16.5832 20.6573 16.6646C20.2837 16.7339 19.7504 16.8436 19.0577 16.9937L18.1418 17.1921C17.7308 17.2811 17.3951 17.3596 17.1347 17.4276C16.8743 17.4956 16.5914 17.5627 16.2861 17.6288C16.0147 18.3486 15.7844 18.9608 15.5953 19.4656C15.4201 19.9558 15.2549 20.4207 15.0998 20.8601C14.9584 21.285 14.814 21.7279 14.6664 22.189C14.5326 22.6354 14.3746 23.1566 14.1924 23.7527C13.9617 23.7795 13.7113 23.8221 13.4413 23.8806C13.1712 23.9391 12.907 23.9963 12.6487 24.0523C12.3669 24.1133 12.1203 24.1668 11.9089 24.2125C11.7093 24.2558 11.5076 24.3111 11.3038 24.3784C11.5759 23.7861 11.8673 23.1141 12.1782 22.3627C12.489 21.6112 12.7992 20.8308 13.1088 20.0216C13.4204 19.2004 13.7213 18.3757 14.0115 17.5475C14.3135 16.7168 14.5916 15.926 14.8459 15.1752C15.1139 14.4098 15.3539 13.7084 15.5659 13.0711C15.7779 12.4338 15.9498 11.8979 16.0814 11.4636Z" fill="#4C99C3"/>
<path d="M12.3501 14.7061C12.1041 14.168 11.7506 13.8272 11.2894 13.6835C10.8421 13.5253 10.2662 13.5225 9.56167 13.6751C8.68101 13.8659 7.89787 14.2442 7.21223 14.8102C6.5266 15.3762 5.93167 16.0384 5.42745 16.797C4.93705 17.541 4.53395 18.3357 4.21815 19.181C3.90236 20.0263 3.6788 20.8285 3.54747 21.5875C3.34527 22.7561 3.47727 23.6262 3.94347 24.1977C4.40967 24.7693 5.22401 24.9292 6.38648 24.6774C6.9501 24.5553 7.5107 24.3527 8.06828 24.0696C8.62586 23.7865 9.15419 23.4111 9.65326 22.9436L9.7899 23.0357C9.61487 23.3288 9.45472 23.6012 9.30943 23.8529C9.17797 24.0901 9.03543 24.3587 8.88181 24.6587C8.48105 24.8847 8.07479 25.077 7.66306 25.2358C7.26306 25.392 6.75777 25.5363 6.14718 25.6685C4.94948 25.9279 3.98058 25.9755 3.24049 25.8111C2.51213 25.6442 1.96106 25.3345 1.58726 24.8821C1.21347 24.4296 0.989959 23.8924 0.916735 23.2705C0.845596 22.6366 0.865267 22.0003 0.975748 21.3618C1.14668 20.3739 1.48228 19.4142 1.98255 18.4825C2.4849 17.5388 3.11422 16.6777 3.87052 15.8993C4.6289 15.1089 5.48556 14.4363 6.4405 13.8816C7.39752 13.3148 8.4103 12.9157 9.47883 12.6842C10.0542 12.5596 10.5636 12.4898 11.0069 12.475C11.4523 12.4481 11.8408 12.4567 12.1722 12.5009C12.5057 12.533 12.7901 12.5873 13.0255 12.6639C13.2609 12.7405 13.4584 12.8079 13.6178 12.8661C13.382 13.1839 13.1676 13.5086 12.9746 13.8403C12.7933 14.1695 12.6438 14.4454 12.5262 14.668L12.3501 14.7061Z" fill="#4C99C3"/>
</svg>
