<svg width="32" height="48" viewBox="0 0 32 48" fill="none" xmlns="http://www.w3.org/2000/svg">
<path d="M26.4307 1.39876e-06C26.3978 0.0318485 21.4942 4.78864 16 11.9053C10.5058 4.78857 5.60209 0.0317544 5.56934 1.39876e-06H2.09815e-06C2.09815e-06 1.39876e-06 8.46603 6.41853 16 16C23.534 6.41853 32 1.39876e-06 32 1.39876e-06H26.4307Z" fill="#D4C7B9"/>
<path d="M26.4307 16C26.3978 16.0318 21.4942 20.7886 16 27.9053C10.5058 20.7886 5.60209 16.0318 5.56934 16H2.09815e-06C2.09815e-06 16 8.46603 22.4185 16 32C23.534 22.4185 32 16 32 16H26.4307Z" fill="#D4C7B9"/>
<path d="M26.4307 32C26.3978 32.0318 21.4942 36.7886 16 43.9053C10.5058 36.7886 5.60209 32.0318 5.56934 32H2.09815e-06C2.09815e-06 32 8.46603 38.4185 16 48C23.534 38.4185 32 32 32 32H26.4307Z" fill="#D4C7B9"/>
</svg>
