<svg width="80" height="80" viewBox="0 0 80 80" fill="none" xmlns="http://www.w3.org/2000/svg">
<path d="M62.8742 67.7316H3.58333C3.1634 67.7316 2.76068 67.5648 2.46375 67.2679C2.16681 66.9709 2 66.5682 2 66.1483V32.2113C2 31.7913 2.16681 31.3886 2.46375 31.0917C2.76068 30.7947 3.1634 30.6279 3.58333 30.6279H62.8742C63.2941 30.6279 63.6968 30.7947 63.9937 31.0917C64.2907 31.3886 64.4575 31.7913 64.4575 32.2113V66.1483C64.4575 66.5682 64.2907 66.9709 63.9937 67.2679C63.6968 67.5648 63.2941 67.7316 62.8742 67.7316ZM5.16665 64.5649H61.2908V33.7946H5.16665V64.5649Z" fill="#CF84B7"/>
<path d="M52.667 62.934H13.8011C13.3811 62.934 12.9784 62.7672 12.6815 62.4703C12.3845 62.1733 12.2177 61.7706 12.2177 61.3507C12.2165 60.508 11.881 59.7002 11.285 59.1045C10.689 58.5088 9.88108 58.1738 9.03841 58.1729C8.61848 58.1729 8.21575 58.0061 7.91882 57.7092C7.62189 57.4123 7.45508 57.0095 7.45508 56.5896V41.7713C7.45508 41.3513 7.62189 40.9486 7.91882 40.6517C8.21575 40.3548 8.61848 40.1879 9.03841 40.1879C9.88123 40.1867 10.6892 39.8513 11.2851 39.2553C11.8811 38.6594 12.2165 37.8514 12.2177 37.0086C12.2177 36.5887 12.3845 36.186 12.6815 35.889C12.9784 35.5921 13.3811 35.4253 13.8011 35.4253H52.667C53.0869 35.4253 53.4896 35.5921 53.7866 35.889C54.0835 36.186 54.2503 36.5887 54.2503 37.0086C54.2511 37.8494 54.5846 38.6557 55.1779 39.2514C55.7713 39.847 56.5762 40.1838 57.4169 40.1879C57.8369 40.1879 58.2396 40.3548 58.5365 40.6517C58.8335 40.9486 59.0003 41.3513 59.0003 41.7713V56.5896C59.0003 57.0095 58.8335 57.4123 58.5365 57.7092C58.2396 58.0061 57.8369 58.1729 57.4169 58.1729C56.5744 58.1738 55.7666 58.5088 55.1709 59.1046C54.5751 59.7004 54.2401 60.5082 54.2392 61.3507C54.2392 61.7687 54.0739 62.1697 53.7794 62.4664C53.4849 62.763 53.085 62.9311 52.667 62.934ZM15.1912 59.7674H51.2911C51.5742 58.6711 52.1443 57.67 52.9427 56.8672C53.7411 56.0643 54.7389 55.4887 55.8336 55.1995V43.1535C54.7361 42.8681 53.7346 42.2948 52.9327 41.4929C52.1308 40.691 51.5575 39.6895 51.2721 38.5919H15.1833C14.8982 39.6897 14.325 40.6913 13.523 41.4933C12.7211 42.2952 11.7195 42.8684 10.6217 43.1535V55.1995C11.7201 55.4854 12.7221 56.0596 13.524 56.8627C14.326 57.6658 14.8989 58.6686 15.1833 59.7674H15.1912Z" fill="#CF84B7"/>
<path d="M33.2289 57.9072C31.5026 57.9075 29.815 57.3959 28.3795 56.437C26.944 55.4781 25.8252 54.115 25.1645 52.5201C24.5038 50.9252 24.3309 49.1703 24.6677 47.4771C25.0046 45.784 25.8359 44.2288 27.0567 43.0082C28.2775 41.7877 29.8329 40.9566 31.526 40.6201C33.2192 40.2835 34.9742 40.4567 36.5689 41.1177C38.1637 41.7787 39.5266 42.8978 40.4852 44.3335C41.4439 45.7691 41.9552 47.4568 41.9546 49.1831C41.9508 51.496 41.0303 53.7131 39.3946 55.3484C37.759 56.9837 35.5418 57.9039 33.2289 57.9072ZM33.2289 43.6209C32.1291 43.6206 31.0539 43.9464 30.1393 44.5571C29.2247 45.1679 28.5117 46.0361 28.0905 47.0521C27.6694 48.068 27.5589 49.1861 27.7732 50.2648C27.9874 51.3435 28.5168 52.3345 29.2942 53.1124C30.0717 53.8903 31.0623 54.4201 32.1409 54.635C33.2195 54.8499 34.3376 54.7401 35.3538 54.3195C36.37 53.8989 37.2387 53.1864 37.8499 52.2722C38.4612 51.3579 38.7876 50.2829 38.7879 49.1831C38.7871 47.7087 38.2012 46.2949 37.159 45.2521C36.1167 44.2092 34.7033 43.6226 33.2289 43.6209Z" fill="#CF84B7"/>
<path d="M66.6282 58.6643C66.222 58.6643 65.8313 58.5082 65.5369 58.2283C65.2425 57.9483 65.067 57.5659 65.0467 57.1602C65.0263 56.7545 65.1627 56.3564 65.4276 56.0485C65.6925 55.7405 66.0657 55.5461 66.4699 55.5055L68.2971 55.3139L65.0829 24.713L14.1109 30.0646C13.693 30.1085 13.2749 29.9846 12.9484 29.7202C12.6219 29.4558 12.4139 29.0725 12.37 28.6547C12.3261 28.2369 12.45 27.8187 12.7144 27.4922C12.9788 27.1658 13.3621 26.9577 13.78 26.9138L66.3211 21.3975C66.528 21.3756 66.7372 21.3946 66.9367 21.4536C67.1362 21.5125 67.3222 21.6102 67.484 21.7411C67.6457 21.872 67.7801 22.0334 67.8794 22.2163C67.9787 22.3991 68.041 22.5997 68.0627 22.8067L71.6078 56.5584C71.6297 56.7653 71.6107 56.9745 71.5517 57.1741C71.4928 57.3736 71.3951 57.5596 71.2642 57.7213C71.1333 57.8831 70.9718 58.0175 70.789 58.1168C70.6062 58.2161 70.4056 58.2784 70.1986 58.3001L66.7961 58.6579C66.7391 58.6611 66.6836 58.6643 66.6282 58.6643Z" fill="#CF84B7"/>
<path d="M73.8319 49.2589C73.4381 49.2586 73.0585 49.1115 72.7673 48.8464C72.4761 48.5813 72.2942 48.2172 72.257 47.8251C72.2198 47.4331 72.3301 47.0413 72.5662 46.7261C72.8024 46.411 73.1475 46.1952 73.5342 46.1208L74.565 45.9229L68.7668 15.7035L19.1438 25.2225C18.7308 25.3016 18.3033 25.2135 17.9553 24.9774C17.6072 24.7414 17.3673 24.3767 17.2881 23.9637C17.209 23.5507 17.2971 23.1232 17.5332 22.7752C17.7692 22.4272 18.1339 22.1872 18.5469 22.1081L69.7263 12.2914C70.1384 12.2125 70.565 12.3004 70.9124 12.5359C71.2597 12.7713 71.4994 13.135 71.5788 13.547L77.9723 46.8776C78.0511 47.29 77.963 47.7168 77.7273 48.0642C77.4915 48.4116 77.1274 48.6511 76.7151 48.7301L74.1311 49.2257C74.0326 49.246 73.9324 49.2572 73.8319 49.2589Z" fill="#CF84B7"/>
</svg>
