<svg width="12" height="12" viewBox="0 0 12 12" fill="none" xmlns="http://www.w3.org/2000/svg">
<path d="M10.7129 0L12.0006 1.28772C12.0006 1.28772 9.39468 3.41079 6.40307 6.40245C3.41146 9.39411 1.28844 12.0001 1.28844 12.0001L0.00074037 10.7123C0.00074037 10.7123 2.60665 8.58928 5.59826 5.59762C8.58987 2.60596 10.7129 0 10.7129 0Z" fill="#42382B"/>
<path d="M0 1.2876L1.2877 -0.00012558C1.2877 -0.00012558 3.41072 2.60583 6.40233 5.59749C9.39394 8.58916 11.9998 10.7122 11.9998 10.7122L10.7121 11.9999C10.7121 11.9999 8.58913 9.39398 5.59752 6.40232C2.60591 3.41066 0 1.2876 0 1.2876Z" fill="#42382B"/>
</svg>
