<svg width="80" height="80" viewBox="0 0 80 80" fill="none" xmlns="http://www.w3.org/2000/svg">
<path d="M74.9798 60.5776H4.01596C2.62644 60.5776 1.5 61.704 1.5 63.0935V64.0415C1.5 65.4311 2.62644 66.5574 4.01596 66.5574H74.9798C76.3693 66.5574 77.4958 65.4311 77.4958 64.0415V63.0935C77.4958 61.704 76.3693 60.5776 74.9798 60.5776Z" stroke="#E29482" stroke-width="3" stroke-linecap="round" stroke-linejoin="round"/>
<path d="M1.87495 23.8018L12.3077 37.0937L7.90605 39.8915C6.65064 40.6857 6.27656 42.346 7.06055 43.6065C7.67032 44.5852 8.83351 45.072 9.96082 44.8158L44.2719 36.9913L40.6235 54.0904C40.4493 54.9052 41.1769 55.6277 41.9865 55.4483L44.7997 54.8334C47.7204 54.198 50.139 52.1689 51.2817 49.407L58.0302 33.0713L62.4369 32.3437C67.6583 31.4828 72.4801 29.0233 76.2463 25.3083L76.272 25.2827C78.0347 23.5456 77.9783 20.7683 75.5956 19.3131C71.8088 16.956 68.5858 16.7869 64.9835 17.7348L52.9521 20.9067L46.5265 16.3206C42.4528 13.4152 37.2365 12.621 32.4813 14.1889C31.5539 14.4964 31.2925 15.6852 32.0099 16.3513L40.9976 24.7087L23.0069 29.8944L15.7972 23.6224C12.2001 20.4916 7.20921 19.5129 2.69999 21.0501C1.55731 21.4396 1.13709 22.8436 1.88521 23.7915L1.87495 23.8018Z" stroke="#E29482" stroke-width="3" stroke-linecap="round" stroke-linejoin="round"/>
<path d="M52.9479 20.9067L40.9883 24.714" stroke="#E29482" stroke-width="3" stroke-linecap="round" stroke-linejoin="round"/>
<path d="M26.9941 33.6248L60.4495 24.4424" stroke="#E29482" stroke-width="3" stroke-linecap="round" stroke-linejoin="round"/>
</svg>
