<svg width="80" height="80" viewBox="0 0 80 80" fill="none" xmlns="http://www.w3.org/2000/svg">
<path d="M47.9501 39.6973H7.15841C5.41407 39.6973 4 41.0762 4 42.7772V72.334C4 74.035 5.41407 75.4139 7.15841 75.4139H47.9501C49.6945 75.4139 51.1085 74.035 51.1085 72.334V42.7772C51.1085 41.0762 49.6945 39.6973 47.9501 39.6973Z" stroke="#78B991" stroke-width="3" stroke-linecap="round" stroke-linejoin="round"/>
<path d="M24.1781 34.9834H30.9338C32.2561 34.9834 33.3267 36.0274 33.3267 37.3168V39.6972H21.7852V37.3168C21.7852 36.0274 22.8558 34.9834 24.1781 34.9834Z" stroke="#78B991" stroke-width="3" stroke-linecap="round" stroke-linejoin="round"/>
<path d="M42.127 39.6973V75.4139" stroke="#78B991" stroke-width="3" stroke-linecap="round" stroke-linejoin="round"/>
<path d="M12.9863 39.6973V75.4139" stroke="#78B991" stroke-width="3" stroke-linecap="round" stroke-linejoin="round"/>
<path d="M54.7342 69.708H72.0626C74.236 69.708 75.9972 67.9905 75.9972 65.8711V23.8119C75.9972 21.6925 74.236 19.9751 72.0626 19.9751H43.669C41.4956 19.9751 39.7344 21.6925 39.7344 23.8119V36.1577" stroke="#78B991" stroke-width="3" stroke-linecap="round" stroke-linejoin="round"/>
<path d="M65.8042 69.708H69.6639V75.1788C69.6639 75.6277 69.2891 75.9984 68.8234 75.9984H66.6393C66.1789 75.9984 65.7988 75.6329 65.7988 75.1788V69.708H65.8042Z" stroke="#78B991" stroke-width="3" stroke-linecap="round" stroke-linejoin="round"/>
<path d="M53.2023 4.00146H62.5276C63.0683 4.00146 63.5019 4.42952 63.5019 4.95154V19.9701H52.2227V4.95154C52.2227 4.4243 52.6616 4.00146 53.1969 4.00146H53.2023Z" stroke="#78B991" stroke-width="3" stroke-linecap="round" stroke-linejoin="round"/>
<path d="M52.2285 7.56689H63.5027" stroke="#78B991" stroke-width="3" stroke-linecap="round" stroke-linejoin="round"/>
<path d="M49.1289 29.7686V36.1633" stroke="#78B991" stroke-width="3" stroke-linecap="round" stroke-linejoin="round"/>
<path d="M57.8652 29.7686V60.4216" stroke="#78B991" stroke-width="3" stroke-linecap="round" stroke-linejoin="round"/>
<path d="M66.6016 29.7686V60.4216" stroke="#78B991" stroke-width="3" stroke-linecap="round" stroke-linejoin="round"/>
</svg>
