<svg width="24" height="24" viewBox="0 0 24 24" fill="none" xmlns="http://www.w3.org/2000/svg">
<g clip-path="url(#clip0_1537_3079)">
<path d="M12 0C18.6169 0 24 4.36871 24 9.73828H24.001C24.0009 11.8876 23.1675 13.822 21.4287 15.7295C18.9115 18.6269 13.2821 22.1564 12.001 22.6963C10.7213 23.236 10.909 22.3536 10.9619 22.0498C10.9923 21.8698 11.1328 21.0225 11.1328 21.0225C11.1722 20.7155 11.2151 20.2411 11.0938 19.9375C10.9588 19.6034 10.4264 19.4301 10.0361 19.3457C4.26961 18.5831 9.57692e-05 14.5521 0 9.73828C0 4.36871 5.38307 4.32952e-07 12 0ZM14.5068 7.14355C14.3799 7.14374 14.2773 7.24606 14.2773 7.37305V10.4834L11.8818 7.24707C11.8763 7.2393 11.8698 7.2314 11.8643 7.22363C11.8643 7.22363 11.864 7.2234 11.8633 7.22266C11.8589 7.21825 11.854 7.21246 11.8496 7.20801C11.8485 7.20688 11.8459 7.20523 11.8447 7.2041C11.8403 7.20078 11.8365 7.19766 11.832 7.19434C11.83 7.19321 11.8282 7.19056 11.8262 7.18945C11.8228 7.18608 11.818 7.18389 11.8135 7.18164C11.8113 7.18055 11.8088 7.17889 11.8066 7.17773C11.8021 7.17548 11.7984 7.17315 11.7939 7.1709C11.7917 7.16979 11.7893 7.1681 11.7871 7.16699C11.7828 7.16485 11.7787 7.16224 11.7744 7.16113C11.7723 7.16113 11.7697 7.15936 11.7666 7.15918C11.7622 7.15809 11.7573 7.15643 11.7529 7.15527C11.7507 7.15527 11.7474 7.15344 11.7451 7.15234C11.7407 7.15234 11.7359 7.15055 11.7314 7.14941C11.7281 7.14941 11.7241 7.14956 11.7207 7.14844C11.7165 7.14837 11.7132 7.14651 11.709 7.14648H10.8428C10.7169 7.14648 10.6135 7.24907 10.6133 7.37598V12.6133C10.6133 12.7392 10.7157 12.8428 10.8428 12.8428H11.6943C11.8213 12.8427 11.9238 12.7403 11.9238 12.6133V9.50293L14.3223 12.7441C14.3391 12.7677 14.3603 12.7862 14.3828 12.8008L14.3848 12.8037C14.3892 12.807 14.3939 12.8092 14.3994 12.8125C14.4016 12.8136 14.4041 12.8143 14.4062 12.8154C14.4096 12.8176 14.4137 12.8191 14.417 12.8213C14.4204 12.8235 14.4253 12.825 14.4287 12.8262C14.4309 12.8264 14.4334 12.8281 14.4355 12.8281C14.441 12.8303 14.4457 12.8319 14.4512 12.833H14.4541C14.4731 12.8375 14.4935 12.8408 14.5137 12.8408H15.3594C15.4852 12.8408 15.5887 12.7383 15.5889 12.6113V7.37402C15.5888 7.2481 15.4864 7.14453 15.3594 7.14453L15.3584 7.14355H14.5068ZM16.6357 7.14355C16.5086 7.14355 16.4062 7.24595 16.4062 7.37305V12.6094C16.4062 12.7365 16.5086 12.8389 16.6357 12.8389H20.0068V12.8428C20.1338 12.8426 20.2363 12.7403 20.2363 12.6133V11.7617C20.2363 11.6359 20.1327 11.5324 20.0068 11.5322H17.7158V10.6484H20.0068C20.1338 10.6483 20.2363 10.5459 20.2363 10.4189V9.56738C20.2363 9.4415 20.1327 9.33803 20.0068 9.33789H17.7158V8.4541H20.0068C20.1338 8.45397 20.2362 8.35155 20.2363 8.22461V7.37305C20.2363 7.24716 20.1327 7.14369 20.0068 7.14355H16.6357ZM4.16309 7.14258C4.03599 7.14258 3.93359 7.24497 3.93359 7.37207V12.6104C3.93378 12.7373 4.0361 12.8398 4.16309 12.8398H7.53516C7.66097 12.8398 7.76446 12.7373 7.76465 12.6104V11.7588C7.76465 11.6329 7.66108 11.5294 7.53516 11.5293H5.24414V7.37207C5.24414 7.24615 5.14055 7.14267 5.01465 7.14258H4.16309ZM8.72168 7.14355C8.59496 7.14355 8.49219 7.24633 8.49219 7.37305V12.6094C8.49219 12.7361 8.59496 12.8389 8.72168 12.8389H9.57227C9.69884 12.8387 9.80176 12.736 9.80176 12.6094V7.37305C9.80176 7.24643 9.69884 7.14372 9.57227 7.14355H8.72168Z" fill="white"/>
</g>
<defs>
<clipPath id="clip0_1537_3079">
<rect width="24" height="22.8674" fill="white"/>
</clipPath>
</defs>
</svg>
