<svg width="200" height="200" viewBox="0 0 200 200" fill="none" xmlns="http://www.w3.org/2000/svg">
<path d="M1.52136e-06 34.8047C1.52136e-06 34.8047 29.7794 65.5451 74.4082 100C29.7794 134.455 7.22092e-06 165.195 7.22092e-06 165.195L8.74228e-06 200C0.0663342 199.913 40.1653 147.049 100 100C40.1675 52.9522 0.0692158 0.0912702 0 0L1.52136e-06 34.8047Z" fill="#68AFD7"/>
<path d="M100 34.8047C100 34.8047 129.779 65.5451 174.408 100C129.779 134.455 100 165.195 100 165.195L100 200C100.066 199.913 140.165 147.049 200 100C140.167 52.9522 100.069 0.0912702 100 0L100 34.8047Z" fill="#68AFD7"/>
</svg>
