<svg width="24" height="24" viewBox="0 0 24 24" fill="none" xmlns="http://www.w3.org/2000/svg">
<g clip-path="url(#clip0_1537_3075)">
<path d="M23.1451 12.0412C23.1451 5.86463 18.1562 0.857422 12.0022 0.857422C5.84825 0.857422 0.859375 5.86463 0.859375 12.0412C0.859375 17.286 4.45718 21.687 9.31056 22.8958V15.459H7.01291V12.0412H9.31056V10.5685C9.31056 6.76202 11.027 4.99766 14.7505 4.99766C15.4565 4.99766 16.6747 5.13679 17.173 5.27547V8.37338C16.91 8.34564 16.4531 8.33177 15.8857 8.33177C14.0588 8.33177 13.3527 9.02651 13.3527 10.8325V12.0412H16.9924L16.3671 15.459H13.3527V23.1431C18.8702 22.4743 23.1455 17.7593 23.1455 12.0412H23.1451Z" fill="white"/>
</g>
<defs>
<clipPath id="clip0_1537_3075">
<rect width="24" height="24" fill="white"/>
</clipPath>
</defs>
</svg>
