<svg width="80" height="80" viewBox="0 0 80 80" fill="none" xmlns="http://www.w3.org/2000/svg">
<path d="M40.001 11.7266C40.917 11.7267 41.666 12.4756 41.666 13.3916V14.1738C41.666 15.0899 40.917 15.8388 40.001 15.8389C39.0849 15.8389 38.3359 15.0899 38.3359 14.1738V13.3916C38.3359 12.4755 39.0849 11.7266 40.001 11.7266Z" fill="#68AFD7" stroke="#68AFD7" stroke-width="0.2"/>
<path d="M40.001 64.1611C40.917 64.1612 41.666 64.9101 41.666 65.8262V66.6084C41.666 67.5244 40.917 68.2733 40.001 68.2734C39.0849 68.2734 38.3359 67.5245 38.3359 66.6084V65.8262C38.3359 64.9101 39.0849 64.1611 40.001 64.1611Z" fill="#68AFD7" stroke="#68AFD7" stroke-width="0.2"/>
<path d="M14.1738 38.335C15.0899 38.335 15.8389 39.0839 15.8389 40C15.8388 40.916 15.0899 41.665 14.1738 41.665H13.3916C12.4756 41.665 11.7267 40.916 11.7266 40C11.7266 39.0839 12.4755 38.335 13.3916 38.335H14.1738Z" fill="#68AFD7" stroke="#68AFD7" stroke-width="0.2"/>
<path d="M66.6094 38.335C67.5255 38.335 68.2744 39.0839 68.2744 40C68.2743 40.916 67.5254 41.665 66.6094 41.665H65.8271C64.9111 41.665 64.1622 40.916 64.1621 40C64.1621 39.0839 64.9111 38.335 65.8271 38.335H66.6094Z" fill="#68AFD7" stroke="#68AFD7" stroke-width="0.2"/>
<path d="M20.0508 20.0508C20.7158 19.3857 21.7186 19.3859 22.3838 20.0508L22.9316 20.5986C23.5968 21.2638 23.5968 22.2665 22.9316 22.9316C22.6005 23.2628 22.1842 23.4306 21.7656 23.4307C21.347 23.4307 20.9298 23.2628 20.5986 22.9316L20.0508 22.3838C19.3859 21.7186 19.3857 20.7158 20.0508 20.0508Z" fill="#68AFD7" stroke="#68AFD7" stroke-width="0.2"/>
<path d="M20.5986 57.0679C21.2637 56.4028 22.2665 56.403 22.9316 57.0679C23.5968 57.733 23.5968 58.7357 22.9316 59.4009L22.3838 59.9487C22.0526 60.2799 21.6364 60.4477 21.2178 60.4478C20.7991 60.4478 20.382 60.2799 20.0508 59.9487C19.3859 59.2836 19.3857 58.2808 20.0508 57.6157L20.5986 57.0679Z" fill="#68AFD7" stroke="#68AFD7" stroke-width="0.2"/>
<path d="M57.6162 20.0508C58.2813 19.3857 59.2841 19.3859 59.9492 20.0508C60.6144 20.7159 60.6143 21.7186 59.9492 22.3838L59.4014 22.9316C59.0702 23.2628 58.6539 23.4306 58.2354 23.4307C57.8167 23.4307 57.3996 23.2628 57.0684 22.9316C56.4035 22.2665 56.4033 21.2637 57.0684 20.5986L57.6162 20.0508Z" fill="#68AFD7" stroke="#68AFD7" stroke-width="0.2"/>
<path d="M40.001 23.4658C40.917 23.4659 41.666 24.2148 41.666 25.1309V39.332L58.3066 55.9727C58.9717 56.6377 58.9716 57.6405 58.3066 58.3057C57.9754 58.6369 57.5583 58.8047 57.1396 58.8047C56.7211 58.8046 56.3048 58.6368 55.9736 58.3057L38.834 41.167C38.5028 40.8358 38.3359 40.4187 38.3359 40V25.1309C38.3359 24.2148 39.0849 23.4658 40.001 23.4658Z" fill="#68AFD7" stroke="#68AFD7" stroke-width="0.2"/>
<path d="M40 3.90039C59.9335 3.90039 76.0996 20.0665 76.0996 40C76.0996 59.9335 59.9335 76.0996 40 76.0996C20.0665 76.0996 3.90039 59.9335 3.90039 40C3.90039 20.0665 20.0665 3.90039 40 3.90039ZM40 7.23047C21.8987 7.23047 7.23047 21.8987 7.23047 40C7.23047 58.1013 21.8987 72.7695 40 72.7695C58.1013 72.7695 72.7695 58.1013 72.7695 40C72.7695 21.8987 58.1013 7.23047 40 7.23047Z" fill="#68AFD7" stroke="#68AFD7" stroke-width="0.2"/>
</svg>
