<svg width="24" height="24" viewBox="0 0 24 24" fill="none" xmlns="http://www.w3.org/2000/svg">
<path d="M9.24182 15.1491L15.0009 9.39002M7.08216 11.5497L4.92251 13.7093C4.15881 14.473 3.72976 15.5088 3.72976 16.5889C3.72976 17.6689 4.15881 18.7047 4.92251 19.4684C5.68621 20.2321 6.72201 20.6612 7.80205 20.6612C8.88209 20.6612 9.91789 20.2321 10.6816 19.4684L12.8412 17.3088M11.4015 7.23036L13.5611 5.07071C14.3248 4.30701 15.3606 3.87797 16.4407 3.87797C17.5207 3.87797 18.5565 4.30701 19.3202 5.07071C20.0839 5.83441 20.5129 6.87021 20.5129 7.95025C20.5129 9.03029 20.0839 10.0661 19.3202 10.8298L17.1606 12.9894" stroke="white" stroke-width="2.4533" stroke-linecap="round" stroke-linejoin="round"/>
</svg>
