<svg width="366" height="55" viewBox="0 0 366 55" fill="none" xmlns="http://www.w3.org/2000/svg">
<mask id="path-1-inside-1_3634_9878" fill="white">
<path d="M366 45.0518C360.494 45.0518 356.029 49.5015 356.002 55.001L9.99902 55.001C9.97168 49.5015 5.50589 45.0517 -1.96927e-06 45.0517L-4.83088e-07 11.0517C5.52286 11.0517 10 6.57459 10 1.05174C10 0.696525 9.98145 0.345637 9.94531 -1.55636e-05L356.002 -4.37029e-07C356.002 0.017245 356 0.0344914 356 0.0517574C356 5.57461 360.477 10.0518 366 10.0518L366 45.0518Z"/>
</mask>
<path d="M366 45.0518L366 46.0518L367 46.0518L367 45.0518L366 45.0518ZM356.002 55.001L356.002 56.001L356.997 56.001L357.002 55.006L356.002 55.001ZM9.99902 55.001L8.99902 55.0059L9.004 56.001L9.99902 56.001L9.99902 55.001ZM-1.96927e-06 45.0517L-1 45.0517L-1 46.0517L-2.01299e-06 46.0517L-1.96927e-06 45.0517ZM-4.83088e-07 11.0517L-4.39376e-07 10.0517L-1 10.0517L-1 11.0517L-4.83088e-07 11.0517ZM10 1.05174L11 1.05174L11 1.05174L10 1.05174ZM9.94531 -1.55636e-05L9.94531 -1.00002L8.83533 -1.00002L8.95074 0.103943L9.94531 -1.55636e-05ZM356.002 -4.37029e-07L357.002 0.00506819L357.007 -1L356.002 -1L356.002 -4.37029e-07ZM366 10.0518L367 10.0518L367 9.05176L366 9.05176L366 10.0518ZM366 45.0518L366 44.0518C359.943 44.0518 355.032 48.9467 355.002 54.996L356.002 55.001L357.002 55.006C357.027 50.0563 361.045 46.0518 366 46.0518L366 45.0518ZM356.002 55.001L356.002 54.001L9.99902 54.001L9.99902 55.001L9.99902 56.001L356.002 56.001L356.002 55.001ZM9.99902 55.001L10.999 54.996C10.9689 48.9466 6.05664 44.0517 -1.92556e-06 44.0517L-1.96927e-06 45.0517L-2.01299e-06 46.0517C4.95517 46.0517 8.97442 50.0564 8.99902 55.0059L9.99902 55.001ZM-1.96927e-06 45.0517L0.999998 45.0517L1 11.0517L-4.83088e-07 11.0517L-1 11.0517L-1 45.0517L-1.96927e-06 45.0517ZM-4.83088e-07 11.0517L-5.26799e-07 12.0517C6.07513 12.0517 11 7.12687 11 1.05174L10 1.05174L9 1.05174C9 6.02231 4.97055 10.0517 -4.39376e-07 10.0517L-4.83088e-07 11.0517ZM10 1.05174L11 1.05174C11 0.66167 10.9796 0.276084 10.9399 -0.103975L9.94531 -1.55636e-05L8.95074 0.103943C8.98328 0.415191 9 0.731379 9 1.05174L10 1.05174ZM9.94531 -1.55636e-05L9.94531 0.999984L356.002 1L356.002 -4.37029e-07L356.002 -1L9.94531 -1.00002L9.94531 -1.55636e-05ZM356.002 -4.37029e-07L355.002 -0.00506907C355.002 -0.0175639 355.002 -0.0267817 355.003 -0.0304418C355.003 -0.0332656 355.003 -0.0353432 355.002 -0.0293868C355.002 -0.0256494 355.002 -0.014528 355.001 -0.00201298C355.001 0.0111487 355 0.0297824 355 0.0517573L356 0.0517574L357 0.0517574C357 0.0650994 357 0.0751026 356.999 0.0796355C356.999 0.0835219 356.999 0.0860164 356.999 0.0811283C357 0.0784592 357 0.0677574 357.001 0.05631C357.001 0.0440264 357.002 0.0261857 357.002 0.00506819L356.002 -4.37029e-07ZM356 0.0517574L355 0.0517573C355 6.12689 359.925 11.0518 366 11.0518L366 10.0518L366 9.05176C361.029 9.05176 357 5.02232 357 0.0517574L356 0.0517574ZM366 10.0518L365 10.0518L365 45.0518L366 45.0518L367 45.0518L367 10.0518L366 10.0518Z" fill="#42382B" mask="url(#path-1-inside-1_3634_9878)"/>
</svg>
