<svg width="608" height="55" viewBox="0 0 608 55" fill="none" xmlns="http://www.w3.org/2000/svg">
<mask id="path-1-inside-1_3622_11955" fill="white">
<path d="M608 45.0176C602.483 45.0176 598.01 49.4852 598.001 55L10 55C9.99048 49.4852 5.51697 45.0176 -1.96778e-06 45.0176L-4.81594e-07 11.0176C5.52283 11.0176 10 6.5404 10 1.01755C10 0.674051 9.98303 0.334559 9.94922 -2.61416e-05L598.001 -4.37071e-07C598.001 0.00585831 598 0.0117166 598 0.0175777C598 5.54043 602.477 10.0176 608 10.0176L608 45.0176Z"/>
</mask>
<path d="M608 45.0176L608 46.0176L609 46.0176L609 45.0176L608 45.0176ZM598.001 55L598.001 56L598.999 56L599.001 55.0017L598.001 55ZM10 55L9 55.0017L9.00171 56L10 56L10 55ZM-1.96778e-06 45.0176L-1 45.0176L-1 46.0176L-2.01149e-06 46.0176L-1.96778e-06 45.0176ZM-4.81594e-07 11.0176L-4.37882e-07 10.0176L-1 10.0176L-1 11.0176L-4.81594e-07 11.0176ZM10 1.01755L11 1.01755L11 1.01755L10 1.01755ZM9.94922 -2.61416e-05L9.94922 -1.00003L8.84308 -1.00003L8.95428 0.100523L9.94922 -2.61416e-05ZM598.001 -4.37071e-07L599.001 0.00172022L599.003 -1L598.001 -1L598.001 -4.37071e-07ZM608 10.0176L609 10.0176L609 9.01758L608 9.01758L608 10.0176ZM608 45.0176L608 44.0176C601.931 44.0176 597.011 48.9321 597.001 54.9983L598.001 55L599.001 55.0017C599.01 50.0383 603.035 46.0176 608 46.0176L608 45.0176ZM598.001 55L598.001 54L10 54L10 55L10 56L598.001 56L598.001 55ZM10 55L11 54.9983C10.9896 48.932 6.06866 44.0176 -1.92407e-06 44.0176L-1.96778e-06 45.0176L-2.01149e-06 46.0176C4.96527 46.0176 8.99145 50.0385 9 55.0017L10 55ZM-1.96778e-06 45.0176L0.999998 45.0176L1 11.0176L-4.81594e-07 11.0176L-1 11.0176L-1 45.0176L-1.96778e-06 45.0176ZM-4.81594e-07 11.0176L-5.25305e-07 12.0176C6.07513 12.0176 11 7.09268 11 1.01755L10 1.01755L9 1.01755C9 5.98811 4.97058 10.0176 -4.37882e-07 10.0176L-4.81594e-07 11.0176ZM10 1.01755L11 1.01755C11 0.641113 10.9814 0.268053 10.9442 -0.100575L9.94922 -2.61416e-05L8.95428 0.100523C8.98468 0.401065 9 0.706989 9 1.01755L10 1.01755ZM9.94922 -2.61416e-05L9.94922 0.999974L598.001 1L598.001 -4.37071e-07L598.001 -1L9.94922 -1.00003L9.94922 -2.61416e-05ZM598.001 -4.37071e-07L597.001 -0.00172109C597.001 -0.026893 597.002 -0.0469118 597.003 -0.0583125C597.003 -0.0641599 597.004 -0.068733 597.004 -0.0711707C597.004 -0.0733109 597.004 -0.0750836 597.004 -0.073836C597.004 -0.0734378 597.004 -0.0701283 597.003 -0.0663424C597.003 -0.0622911 597.003 -0.0561168 597.002 -0.048656C597.001 -0.0340266 597 -0.010811 597 0.0175776L598 0.0175777L599 0.0175777C599 0.0430358 598.999 0.0633212 598.998 0.0750207C598.998 0.0810165 598.998 0.0857259 598.997 0.0883123C598.997 0.0906334 598.997 0.0924781 598.997 0.0914114C598.997 0.0911943 598.997 0.0879569 598.998 0.084352C598.998 0.0804496 598.998 0.0744118 598.999 0.0670996C599 0.0527696 599.001 0.0298215 599.001 0.00172022L598.001 -4.37071e-07ZM598 0.0175777L597 0.0175776C597 6.09271 601.925 11.0176 608 11.0176L608 10.0176L608 9.01758C603.029 9.01758 599 4.98814 599 0.0175777L598 0.0175777ZM608 10.0176L607 10.0176L607 45.0176L608 45.0176L609 45.0176L609 10.0176L608 10.0176Z" fill="#42382B" mask="url(#path-1-inside-1_3622_11955)"/>
</svg>
