<svg width="64" height="64" viewBox="0 0 64 64" fill="none" xmlns="http://www.w3.org/2000/svg">
<g clip-path="url(#clip0_3625_7049)">
<path d="M55.4756 57.9323V60.4741C55.4756 61.3487 54.7666 62.0576 53.892 62.0576C53.0175 62.0576 52.3086 61.3487 52.3086 60.4741V57.9323" stroke="#E29482" stroke-width="2.2" stroke-miterlimit="10" stroke-linecap="round" stroke-linejoin="round"/>
<path d="M40.733 57.932V60.4749C40.733 61.3484 40.0245 62.0581 39.1498 62.0581C38.275 62.0581 37.5664 61.3484 37.5664 60.4749V58.3129" stroke="#E29482" stroke-width="2.2" stroke-miterlimit="10" stroke-linecap="round" stroke-linejoin="round"/>
<path d="M60.999 28.8188V54.9816C60.999 56.6109 59.6766 57.9321 58.0472 57.9321H38.3047" stroke="#E29482" stroke-width="2.2" stroke-miterlimit="10" stroke-linecap="round" stroke-linejoin="round"/>
<path d="M32.0469 27.8193V18.7712C32.0469 17.1419 33.3682 15.8207 34.9986 15.8207H58.0496C59.6789 15.8207 61.0013 17.1419 61.0013 18.7712V24.5206" stroke="#E29482" stroke-width="2.2" stroke-miterlimit="10" stroke-linecap="round" stroke-linejoin="round"/>
<path d="M38.1953 48.3926V20.0144" stroke="#E29482" stroke-width="2.2" stroke-miterlimit="10" stroke-linecap="round" stroke-linejoin="round"/>
<path d="M43.75 20.0151V51.9844" stroke="#E29482" stroke-width="2.2" stroke-miterlimit="10" stroke-linecap="round" stroke-linejoin="round"/>
<path d="M49.3008 20.0151V51.9844" stroke="#E29482" stroke-width="2.2" stroke-miterlimit="10" stroke-linecap="round" stroke-linejoin="round"/>
<path d="M54.8516 20.0151V51.9844" stroke="#E29482" stroke-width="2.2" stroke-miterlimit="10" stroke-linecap="round" stroke-linejoin="round"/>
<path d="M51.7734 15.8203V9.21209" stroke="#E29482" stroke-width="2.2" stroke-miterlimit="10" stroke-linecap="round" stroke-linejoin="round"/>
<path d="M41.2734 15.8203V9.21209" stroke="#E29482" stroke-width="2.2" stroke-miterlimit="10" stroke-linecap="round" stroke-linejoin="round"/>
<path d="M51.7692 9.21191C50.9186 9.21191 50.2292 8.52257 50.2292 7.67211V6.21213C50.2292 5.5058 49.6547 4.93123 48.9483 4.93123H44.095C43.3889 4.93123 42.8143 5.5058 42.8143 6.21213V7.67211C42.8143 8.52257 42.1244 9.21191 41.2738 9.21191C40.4232 9.21191 39.7344 8.52257 39.7344 7.67211V6.21213C39.7344 3.80755 41.6906 1.85125 44.095 1.85125H48.9483C51.3529 1.85125 53.3092 3.80755 53.3092 6.21213V7.67211C53.3092 8.52257 52.6197 9.21191 51.7692 9.21191Z" stroke="#E29482" stroke-width="2.2" stroke-miterlimit="10" stroke-linecap="round" stroke-linejoin="round"/>
<path d="M7.35547 41.8677V30.4011C7.35547 28.9752 8.51141 27.8194 9.9373 27.8194H32.4179C33.8438 27.8194 34.9995 28.9752 34.9995 30.4011V59.5666C34.9995 60.9925 33.8436 62.1484 32.4177 62.1484H9.93718C8.51129 62.1484 7.35547 60.9925 7.35547 59.5666V46.1358" stroke="#E29482" stroke-width="2.2" stroke-miterlimit="10" stroke-linecap="round" stroke-linejoin="round"/>
<path d="M12.0895 38.3779H9.93742C8.5119 38.3779 7.35547 37.2217 7.35547 35.7962V30.4011C7.35547 28.9756 8.51178 27.8193 9.9373 27.8193H32.4179C33.8435 27.8193 34.9995 28.9756 34.9995 30.4011V35.7962C34.9995 37.2217 33.8437 38.3779 32.4182 38.3779H30.2647" stroke="#E29482" stroke-width="2.2" stroke-miterlimit="10" stroke-linecap="round" stroke-linejoin="round"/>
<path d="M27.1472 38.3779H15.2031" stroke="#E29482" stroke-width="2.2" stroke-miterlimit="10" stroke-linecap="round" stroke-linejoin="round"/>
<path d="M12.3555 49.0966V55.7642C12.3555 56.4772 12.9334 57.0552 13.6463 57.0552H28.7145C29.4275 57.0552 30.0054 56.4772 30.0054 55.7642V49.0966C30.0054 48.3838 29.4275 47.8058 28.7145 47.8058H13.6463C12.9334 47.8058 12.3555 48.3838 12.3555 49.0966Z" stroke="#E29482" stroke-width="2.2" stroke-miterlimit="10" stroke-linecap="round" stroke-linejoin="round"/>
<path d="M35 58.4404H36.7692C38.1951 58.4404 39.3509 57.2845 39.3509 55.8587V50.5445C39.3509 49.1186 38.1951 47.9628 36.7692 47.9628H35" stroke="#E29482" stroke-width="2.2" stroke-miterlimit="10" stroke-linecap="round" stroke-linejoin="round"/>
<path d="M7.35484 47.9628H5.58561C4.15973 47.9628 3.00391 49.1186 3.00391 50.5445V55.8587C3.00391 57.2845 4.15973 58.4404 5.58561 58.4404H7.35484" stroke="#E29482" stroke-width="2.2" stroke-miterlimit="10" stroke-linecap="round" stroke-linejoin="round"/>
<path d="M17.9727 27.8188V25.3983C17.9727 23.6279 19.4078 22.1927 21.1782 22.1927C22.9486 22.1927 24.3839 23.6279 24.3839 25.3983V27.8188" stroke="#E29482" stroke-width="2.2" stroke-miterlimit="10" stroke-linecap="round" stroke-linejoin="round"/>
<path d="M30.2656 41.1621V27.819" stroke="#E29482" stroke-width="2.2" stroke-miterlimit="10" stroke-linecap="round" stroke-linejoin="round"/>
<path d="M27.1484 27.819V41.1621" stroke="#E29482" stroke-width="2.2" stroke-miterlimit="10" stroke-linecap="round" stroke-linejoin="round"/>
<path d="M15.2031 41.1621V27.819" stroke="#E29482" stroke-width="2.2" stroke-miterlimit="10" stroke-linecap="round" stroke-linejoin="round"/>
<path d="M12.0898 27.819V41.1621" stroke="#E29482" stroke-width="2.2" stroke-miterlimit="10" stroke-linecap="round" stroke-linejoin="round"/>
<path d="M31.0208 43.6685H26.4019C25.9663 43.6685 25.6133 43.3154 25.6133 42.8799V41.9502C25.6133 41.5146 25.9663 41.1616 26.4019 41.1616H31.0208C31.4563 41.1616 31.8094 41.5146 31.8094 41.9502V42.8799C31.8094 43.3154 31.4563 43.6685 31.0208 43.6685Z" stroke="#E29482" stroke-width="2.2" stroke-miterlimit="10" stroke-linecap="round" stroke-linejoin="round"/>
<path d="M15.9584 43.6685H11.3394C10.9038 43.6685 10.5508 43.3154 10.5508 42.8799V41.9502C10.5508 41.5146 10.9038 41.1616 11.3394 41.1616H15.9584C16.394 41.1616 16.747 41.5146 16.747 41.9502V42.8799C16.747 43.3154 16.394 43.6685 15.9584 43.6685Z" stroke="#E29482" stroke-width="2.2" stroke-miterlimit="10" stroke-linecap="round" stroke-linejoin="round"/>
</g>
<defs>
<clipPath id="clip0_3625_7049">
<rect width="64" height="64" fill="white"/>
</clipPath>
</defs>
</svg>
