<svg width="64" height="64" viewBox="0 0 64 64" fill="none" xmlns="http://www.w3.org/2000/svg">
<g clip-path="url(#clip0_3625_7030)">
<path d="M47.0693 0.811523C47.85 0.896684 48.4885 1.44667 48.6807 2.21973L48.7734 2.5918L48.7744 2.59277C49.0105 3.54106 49.7495 4.27641 50.7051 4.5127L52.7363 5.01367C54.2012 5.37484 55.3377 6.50596 55.7012 7.96484L56.3682 10.6416C56.5042 11.1878 56.93 11.6114 57.4805 11.7471L60.3525 12.4551H60.3535C61.7062 12.7906 62.7544 13.835 63.0889 15.1807C63.5683 17.1053 62.4509 19.0666 60.5469 19.6465L59.9951 19.8145C59.6514 19.9191 59.3405 19.8723 59.0947 19.7217C58.8533 19.5737 58.6886 19.3345 58.6113 19.0762C58.5341 18.8179 58.5409 18.5278 58.6582 18.2715C58.7776 18.0108 59.0057 17.7984 59.3438 17.6953L59.8965 17.5273C60.6711 17.2913 61.1239 16.494 60.9297 15.7139C60.7938 15.1676 60.3676 14.7432 59.8164 14.6064L56.9463 13.8984C55.6784 13.5862 54.6758 12.6495 54.2793 11.4238L54.209 11.1748L53.542 8.49902C53.378 7.84026 52.865 7.32964 52.2021 7.16602L50.1699 6.66406H50.1689C48.6638 6.2918 47.4486 5.24381 46.8574 3.85254L44.6924 10.8945C45.1202 11.3201 47.0689 13.2593 49.0156 15.1963C50.1166 16.2917 51.2175 17.3876 52.043 18.209C52.4556 18.6195 52.7994 18.9617 53.04 19.2012C53.1604 19.3209 53.2549 19.4153 53.3193 19.4795C53.3337 19.4938 53.347 19.5063 53.3584 19.5176L55.1895 18.9609C55.7759 18.7824 56.399 19.1105 56.5791 19.6963C56.7589 20.2822 56.4269 20.9013 55.8398 21.0801L54.4121 21.5146C54.5155 22.145 54.4481 22.7961 54.21 23.3975L55.1182 24.3018L55.3486 24.54C57.5948 26.9605 58.1747 30.4788 56.8232 33.4873L56.6816 33.7861L56.418 34.3125C55.2653 36.6275 55.724 39.4124 57.5615 41.2412C57.9965 41.6741 57.9965 42.3767 57.5615 42.8096C57.127 43.2417 56.4237 43.2418 55.9893 42.8096C53.4754 40.3078 52.8468 36.496 54.4258 33.3252L54.6895 32.7988L54.793 32.5811C55.8125 30.3112 55.3261 27.6419 53.5459 25.8701L52.7793 25.1074C52.3966 25.3445 51.9796 25.5036 51.5498 25.583C52.6644 30.1325 51.3372 35.0021 47.959 38.3643L38.377 47.8994C36.0052 50.2596 34.1536 53.0196 32.873 56.1035L31.1953 60.1445C30.5604 61.674 29.2073 62.781 27.5771 63.1045C27.2528 63.1689 26.9264 63.2002 26.6025 63.2002C25.2998 63.2002 24.0372 62.6897 23.0957 61.7529L2.25488 41.0127C1.0791 39.8417 0.57102 38.173 0.896484 36.5498C1.22194 34.9271 2.33401 33.5806 3.87012 32.9492L7.92969 31.2803C10.8377 30.0836 13.4575 28.3888 15.7266 26.2383L16.1758 25.8018L16.6807 25.2979C17.1143 24.865 17.8186 24.864 18.2539 25.2959C18.6894 25.7283 18.6902 26.4308 18.2559 26.8643L17.75 27.3691H17.749C15.1703 29.9353 12.1526 31.9401 8.7793 33.3281L4.71973 34.998C3.85778 35.3523 3.26139 36.0748 3.0791 36.9834C2.89656 37.8928 3.16875 38.7887 3.82812 39.4453L24.668 60.1846C25.3271 60.8405 26.2279 61.1123 27.1426 60.9307C28.0572 60.7491 28.7829 60.1548 29.1387 59.2979L30.8174 55.2568C32.2104 51.902 34.2249 48.8984 36.8047 46.3311L46.3857 36.7969C49.4452 33.7523 50.4944 29.2285 49.1162 25.1709C48.8496 25.0186 48.5969 24.832 48.3691 24.6055L39.583 15.8613C39.3571 15.6367 39.167 15.3856 39.0117 15.1172C34.935 13.746 30.3888 14.7904 27.3291 17.835L21.2656 23.8691C20.8311 24.3014 20.1268 24.3015 19.6924 23.8691C19.2576 23.4363 19.2576 22.7346 19.6924 22.3018L25.7559 16.2676C29.1352 12.9045 34.0295 11.5837 38.5996 12.6934C38.7298 11.9928 39.0665 11.348 39.583 10.834C40.4277 9.99335 41.5926 9.66408 42.6885 9.84277L45.0635 2.12305C45.3141 1.30944 46.0639 0.775939 46.9111 0.800781L47.0693 0.811523ZM43.0596 12.4014C42.535 11.8793 41.6796 11.8794 41.1553 12.4014C40.6299 12.9244 40.63 13.7698 41.1553 14.293L49.9424 23.0371L50.0439 23.1289C50.572 23.5574 51.3541 23.5266 51.8457 23.0371C52.3697 22.5156 52.3698 21.6671 51.8457 21.1455L43.0596 12.4014Z" fill="#E29482" stroke="#E29482" stroke-width="0.4"/>
<mask id="path-2-outside-1_3625_7030" maskUnits="userSpaceOnUse" x="13" y="23" width="28" height="28" fill="black">
<rect fill="white" x="13" y="23" width="28" height="28"/>
<path d="M19.1277 33.5926C18.0858 33.9159 16.6273 34.6126 14.7664 35.6781C14.2937 35.9489 14 36.4554 14 37C14 37.5446 14.2938 38.0511 14.7664 38.3218C16.6272 39.3874 18.0858 40.0841 19.1277 40.4074L18.9319 42.9271C18.8864 43.5085 19.097 44.0786 19.5094 44.491C19.8848 44.8665 20.3911 45.0747 20.9175 45.0747C20.9692 45.0747 21.0211 45.0727 21.0731 45.0686L23.5928 44.8727C23.9162 45.9145 24.6128 47.3732 25.6784 49.2338C25.949 49.7066 26.4556 50.0001 27.0002 50C27.5449 50 28.0512 49.7063 28.3219 49.2338C29.3873 47.3732 30.0839 45.9148 30.4074 44.8727C30.4074 44.8727 33.0313 45.0746 33.083 45.0746C33.6086 45.0746 34.1141 44.867 34.4893 44.4925C34.9021 44.0806 35.1133 43.5105 35.0689 42.9273L34.8728 40.4072C35.9148 40.0838 37.3732 39.3871 39.2336 38.3216C39.7063 38.051 40 37.5446 40 36.9999C40 36.4551 39.7063 35.9486 39.2336 35.678C37.3731 34.6127 35.9147 33.9161 34.8728 33.5927L35.069 31.0714C35.1133 30.4896 34.9021 29.9195 34.4893 29.5076C34.0774 29.0963 33.509 28.8864 32.9276 28.9315L30.4074 29.1274C30.0841 28.0855 29.3873 26.6269 28.3219 24.7664C28.0514 24.2937 27.5449 24 27.0002 24C26.4556 24 25.949 24.2935 25.6782 24.7663C24.6128 26.6271 23.9162 28.0856 23.5927 29.1275L21.0733 28.9317C20.492 28.8865 19.9218 29.097 19.5095 29.5093C19.0971 29.9217 18.8866 30.4917 18.932 31.0728L19.1277 33.5926ZM20.1424 35.1776C20.1442 35.1775 20.1461 35.1776 20.1479 35.1774C20.151 35.1771 20.1539 35.1764 20.157 35.1762C20.187 35.1731 20.215 35.171 20.2392 35.171C21.2477 35.171 22.0683 35.9916 22.0683 37C22.0683 38.0085 21.2477 38.829 20.2392 38.829C20.2145 38.829 20.186 38.8269 20.1553 38.8237C20.1527 38.8235 20.1504 38.823 20.1479 38.8228C20.1465 38.8226 20.1451 38.8228 20.1438 38.8226C19.6277 38.7734 18.3058 38.2579 16.0613 37C18.3038 35.7432 19.6265 35.2382 20.1424 35.1776ZM24.8097 33.1153C25.4181 33.5798 26.1772 33.8564 27 33.8564C27.8227 33.8564 28.5817 33.5798 29.1901 33.1156C29.896 33.5151 30.4854 34.1042 30.8848 34.8093C30.4202 35.4178 30.1434 36.177 30.1434 37C30.1434 37.8229 30.4202 38.5822 30.8848 39.1907C30.4854 39.8958 29.896 40.4849 29.1901 40.8844C28.5817 40.42 27.8227 40.1434 26.9999 40.1434C26.1771 40.1434 25.418 40.42 24.8094 40.8846C24.1042 40.4853 23.5149 39.8963 23.1146 39.1911C23.5795 38.5825 23.8563 37.823 23.8563 36.9999C23.8563 36.1766 23.5794 35.4171 23.1144 34.8085C23.5143 34.1037 24.1037 33.5149 24.8097 33.1153ZM20.9342 43.2856C20.8545 43.2913 20.8043 43.2567 20.7739 43.2264C20.7436 43.1961 20.7088 43.1437 20.7149 43.066L20.9101 40.5541C21.1857 40.5021 21.4503 40.4189 21.7001 40.3081C22.2045 41.1117 22.8885 41.7953 23.6921 42.2992C23.5811 42.5493 23.4978 42.8143 23.4458 43.0903L20.9342 43.2856ZM27.0001 47.9388C25.7445 45.6983 25.2394 44.3764 25.1778 43.8594C25.1777 43.8571 25.1778 43.8549 25.1777 43.8526C25.1774 43.8481 25.1764 43.8439 25.1761 43.8394C25.1732 43.811 25.171 43.7841 25.171 43.7609C25.171 42.7524 25.9916 41.932 27.0001 41.932C28.0085 41.932 28.8291 42.7525 28.8291 43.7609C28.8291 43.7814 28.8269 43.8059 28.8247 43.8304C28.8239 43.8378 28.8224 43.845 28.8218 43.8525C28.8216 43.8563 28.8218 43.8601 28.8214 43.8639C28.7578 44.384 28.2522 45.7045 27.0001 47.9388ZM33.2258 43.2268C33.1958 43.2568 33.1442 43.2918 33.0662 43.2854L30.5542 43.0903C30.5022 42.8143 30.4189 42.5492 30.3079 42.299C31.1118 41.795 31.7957 41.1113 32.2996 40.3079C32.5497 40.4189 32.8146 40.5021 33.0905 40.5541L33.2857 43.0645C33.2918 43.1432 33.2565 43.1961 33.2258 43.2268ZM33.8562 38.8226L33.8527 38.8228C33.8504 38.8229 33.8482 38.8235 33.8459 38.8236C33.8148 38.8269 33.786 38.829 33.7609 38.829C32.7525 38.829 31.932 38.0084 31.932 37C31.932 35.9915 32.7525 35.171 33.7609 35.171C33.7855 35.171 33.8138 35.1731 33.8442 35.1763C33.847 35.1765 33.8499 35.1771 33.8527 35.1774C33.8543 35.1775 33.8558 35.1774 33.8575 35.1775C34.3745 35.227 35.696 35.7431 37.9388 37C35.6943 38.2579 34.3713 38.7628 33.8562 38.8226ZM33.0664 30.7147C33.1425 30.7085 33.1957 30.7433 33.2258 30.7733C33.2565 30.804 33.2918 30.8569 33.2858 30.9342L33.0905 33.4459C32.8145 33.4979 32.5497 33.5813 32.2994 33.6921C31.7956 32.8887 31.1117 32.2051 30.3077 31.7012C30.4187 31.4509 30.5022 31.186 30.5542 30.91L33.0664 30.7147ZM27.0001 26.0612C28.2522 28.2954 28.7579 29.616 28.8216 30.1359C28.8218 30.1398 28.8216 30.1436 28.8219 30.1475C28.8225 30.155 28.8241 30.1623 28.8248 30.1697C28.827 30.1941 28.8292 30.2186 28.8292 30.239C28.8292 31.2475 28.0087 32.0679 27.0002 32.0679C25.9917 32.0679 25.1712 31.2474 25.1712 30.239C25.1712 30.2159 25.1733 30.189 25.1761 30.1607C25.1764 30.1562 25.1774 30.152 25.1777 30.1475C25.1778 30.1451 25.1777 30.1429 25.1778 30.1406C25.2394 29.6236 25.7445 28.3017 27.0001 26.0612ZM20.774 30.7737C20.8044 30.7434 20.856 30.7086 20.9345 30.7146L23.4461 30.9097C23.498 31.1856 23.5814 31.4504 23.6924 31.7006C22.8882 32.2045 22.2041 32.8882 21.7 33.6915C21.4502 33.5808 21.1857 33.4977 20.9103 33.4458L20.7151 30.9337C20.7089 30.8564 20.7438 30.8041 20.774 30.7737Z"/>
</mask>
<path d="M19.1277 33.5926C18.0858 33.9159 16.6273 34.6126 14.7664 35.6781C14.2937 35.9489 14 36.4554 14 37C14 37.5446 14.2938 38.0511 14.7664 38.3218C16.6272 39.3874 18.0858 40.0841 19.1277 40.4074L18.9319 42.9271C18.8864 43.5085 19.097 44.0786 19.5094 44.491C19.8848 44.8665 20.3911 45.0747 20.9175 45.0747C20.9692 45.0747 21.0211 45.0727 21.0731 45.0686L23.5928 44.8727C23.9162 45.9145 24.6128 47.3732 25.6784 49.2338C25.949 49.7066 26.4556 50.0001 27.0002 50C27.5449 50 28.0512 49.7063 28.3219 49.2338C29.3873 47.3732 30.0839 45.9148 30.4074 44.8727C30.4074 44.8727 33.0313 45.0746 33.083 45.0746C33.6086 45.0746 34.1141 44.867 34.4893 44.4925C34.9021 44.0806 35.1133 43.5105 35.0689 42.9273L34.8728 40.4072C35.9148 40.0838 37.3732 39.3871 39.2336 38.3216C39.7063 38.051 40 37.5446 40 36.9999C40 36.4551 39.7063 35.9486 39.2336 35.678C37.3731 34.6127 35.9147 33.9161 34.8728 33.5927L35.069 31.0714C35.1133 30.4896 34.9021 29.9195 34.4893 29.5076C34.0774 29.0963 33.509 28.8864 32.9276 28.9315L30.4074 29.1274C30.0841 28.0855 29.3873 26.6269 28.3219 24.7664C28.0514 24.2937 27.5449 24 27.0002 24C26.4556 24 25.949 24.2935 25.6782 24.7663C24.6128 26.6271 23.9162 28.0856 23.5927 29.1275L21.0733 28.9317C20.492 28.8865 19.9218 29.097 19.5095 29.5093C19.0971 29.9217 18.8866 30.4917 18.932 31.0728L19.1277 33.5926ZM20.1424 35.1776C20.1442 35.1775 20.1461 35.1776 20.1479 35.1774C20.151 35.1771 20.1539 35.1764 20.157 35.1762C20.187 35.1731 20.215 35.171 20.2392 35.171C21.2477 35.171 22.0683 35.9916 22.0683 37C22.0683 38.0085 21.2477 38.829 20.2392 38.829C20.2145 38.829 20.186 38.8269 20.1553 38.8237C20.1527 38.8235 20.1504 38.823 20.1479 38.8228C20.1465 38.8226 20.1451 38.8228 20.1438 38.8226C19.6277 38.7734 18.3058 38.2579 16.0613 37C18.3038 35.7432 19.6265 35.2382 20.1424 35.1776ZM24.8097 33.1153C25.4181 33.5798 26.1772 33.8564 27 33.8564C27.8227 33.8564 28.5817 33.5798 29.1901 33.1156C29.896 33.5151 30.4854 34.1042 30.8848 34.8093C30.4202 35.4178 30.1434 36.177 30.1434 37C30.1434 37.8229 30.4202 38.5822 30.8848 39.1907C30.4854 39.8958 29.896 40.4849 29.1901 40.8844C28.5817 40.42 27.8227 40.1434 26.9999 40.1434C26.1771 40.1434 25.418 40.42 24.8094 40.8846C24.1042 40.4853 23.5149 39.8963 23.1146 39.1911C23.5795 38.5825 23.8563 37.823 23.8563 36.9999C23.8563 36.1766 23.5794 35.4171 23.1144 34.8085C23.5143 34.1037 24.1037 33.5149 24.8097 33.1153ZM20.9342 43.2856C20.8545 43.2913 20.8043 43.2567 20.7739 43.2264C20.7436 43.1961 20.7088 43.1437 20.7149 43.066L20.9101 40.5541C21.1857 40.5021 21.4503 40.4189 21.7001 40.3081C22.2045 41.1117 22.8885 41.7953 23.6921 42.2992C23.5811 42.5493 23.4978 42.8143 23.4458 43.0903L20.9342 43.2856ZM27.0001 47.9388C25.7445 45.6983 25.2394 44.3764 25.1778 43.8594C25.1777 43.8571 25.1778 43.8549 25.1777 43.8526C25.1774 43.8481 25.1764 43.8439 25.1761 43.8394C25.1732 43.811 25.171 43.7841 25.171 43.7609C25.171 42.7524 25.9916 41.932 27.0001 41.932C28.0085 41.932 28.8291 42.7525 28.8291 43.7609C28.8291 43.7814 28.8269 43.8059 28.8247 43.8304C28.8239 43.8378 28.8224 43.845 28.8218 43.8525C28.8216 43.8563 28.8218 43.8601 28.8214 43.8639C28.7578 44.384 28.2522 45.7045 27.0001 47.9388ZM33.2258 43.2268C33.1958 43.2568 33.1442 43.2918 33.0662 43.2854L30.5542 43.0903C30.5022 42.8143 30.4189 42.5492 30.3079 42.299C31.1118 41.795 31.7957 41.1113 32.2996 40.3079C32.5497 40.4189 32.8146 40.5021 33.0905 40.5541L33.2857 43.0645C33.2918 43.1432 33.2565 43.1961 33.2258 43.2268ZM33.8562 38.8226L33.8527 38.8228C33.8504 38.8229 33.8482 38.8235 33.8459 38.8236C33.8148 38.8269 33.786 38.829 33.7609 38.829C32.7525 38.829 31.932 38.0084 31.932 37C31.932 35.9915 32.7525 35.171 33.7609 35.171C33.7855 35.171 33.8138 35.1731 33.8442 35.1763C33.847 35.1765 33.8499 35.1771 33.8527 35.1774C33.8543 35.1775 33.8558 35.1774 33.8575 35.1775C34.3745 35.227 35.696 35.7431 37.9388 37C35.6943 38.2579 34.3713 38.7628 33.8562 38.8226ZM33.0664 30.7147C33.1425 30.7085 33.1957 30.7433 33.2258 30.7733C33.2565 30.804 33.2918 30.8569 33.2858 30.9342L33.0905 33.4459C32.8145 33.4979 32.5497 33.5813 32.2994 33.6921C31.7956 32.8887 31.1117 32.2051 30.3077 31.7012C30.4187 31.4509 30.5022 31.186 30.5542 30.91L33.0664 30.7147ZM27.0001 26.0612C28.2522 28.2954 28.7579 29.616 28.8216 30.1359C28.8218 30.1398 28.8216 30.1436 28.8219 30.1475C28.8225 30.155 28.8241 30.1623 28.8248 30.1697C28.827 30.1941 28.8292 30.2186 28.8292 30.239C28.8292 31.2475 28.0087 32.0679 27.0002 32.0679C25.9917 32.0679 25.1712 31.2474 25.1712 30.239C25.1712 30.2159 25.1733 30.189 25.1761 30.1607C25.1764 30.1562 25.1774 30.152 25.1777 30.1475C25.1778 30.1451 25.1777 30.1429 25.1778 30.1406C25.2394 29.6236 25.7445 28.3017 27.0001 26.0612ZM20.774 30.7737C20.8044 30.7434 20.856 30.7086 20.9345 30.7146L23.4461 30.9097C23.498 31.1856 23.5814 31.4504 23.6924 31.7006C22.8882 32.2045 22.2041 32.8882 21.7 33.6915C21.4502 33.5808 21.1857 33.4977 20.9103 33.4458L20.7151 30.9337C20.7089 30.8564 20.7438 30.8041 20.774 30.7737Z" fill="#E29482"/>
<path d="M19.1277 33.5926C18.0858 33.9159 16.6273 34.6126 14.7664 35.6781C14.2937 35.9489 14 36.4554 14 37C14 37.5446 14.2938 38.0511 14.7664 38.3218C16.6272 39.3874 18.0858 40.0841 19.1277 40.4074L18.9319 42.9271C18.8864 43.5085 19.097 44.0786 19.5094 44.491C19.8848 44.8665 20.3911 45.0747 20.9175 45.0747C20.9692 45.0747 21.0211 45.0727 21.0731 45.0686L23.5928 44.8727C23.9162 45.9145 24.6128 47.3732 25.6784 49.2338C25.949 49.7066 26.4556 50.0001 27.0002 50C27.5449 50 28.0512 49.7063 28.3219 49.2338C29.3873 47.3732 30.0839 45.9148 30.4074 44.8727C30.4074 44.8727 33.0313 45.0746 33.083 45.0746C33.6086 45.0746 34.1141 44.867 34.4893 44.4925C34.9021 44.0806 35.1133 43.5105 35.0689 42.9273L34.8728 40.4072C35.9148 40.0838 37.3732 39.3871 39.2336 38.3216C39.7063 38.051 40 37.5446 40 36.9999C40 36.4551 39.7063 35.9486 39.2336 35.678C37.3731 34.6127 35.9147 33.9161 34.8728 33.5927L35.069 31.0714C35.1133 30.4896 34.9021 29.9195 34.4893 29.5076C34.0774 29.0963 33.509 28.8864 32.9276 28.9315L30.4074 29.1274C30.0841 28.0855 29.3873 26.6269 28.3219 24.7664C28.0514 24.2937 27.5449 24 27.0002 24C26.4556 24 25.949 24.2935 25.6782 24.7663C24.6128 26.6271 23.9162 28.0856 23.5927 29.1275L21.0733 28.9317C20.492 28.8865 19.9218 29.097 19.5095 29.5093C19.0971 29.9217 18.8866 30.4917 18.932 31.0728L19.1277 33.5926ZM20.1424 35.1776C20.1442 35.1775 20.1461 35.1776 20.1479 35.1774C20.151 35.1771 20.1539 35.1764 20.157 35.1762C20.187 35.1731 20.215 35.171 20.2392 35.171C21.2477 35.171 22.0683 35.9916 22.0683 37C22.0683 38.0085 21.2477 38.829 20.2392 38.829C20.2145 38.829 20.186 38.8269 20.1553 38.8237C20.1527 38.8235 20.1504 38.823 20.1479 38.8228C20.1465 38.8226 20.1451 38.8228 20.1438 38.8226C19.6277 38.7734 18.3058 38.2579 16.0613 37C18.3038 35.7432 19.6265 35.2382 20.1424 35.1776ZM24.8097 33.1153C25.4181 33.5798 26.1772 33.8564 27 33.8564C27.8227 33.8564 28.5817 33.5798 29.1901 33.1156C29.896 33.5151 30.4854 34.1042 30.8848 34.8093C30.4202 35.4178 30.1434 36.177 30.1434 37C30.1434 37.8229 30.4202 38.5822 30.8848 39.1907C30.4854 39.8958 29.896 40.4849 29.1901 40.8844C28.5817 40.42 27.8227 40.1434 26.9999 40.1434C26.1771 40.1434 25.418 40.42 24.8094 40.8846C24.1042 40.4853 23.5149 39.8963 23.1146 39.1911C23.5795 38.5825 23.8563 37.823 23.8563 36.9999C23.8563 36.1766 23.5794 35.4171 23.1144 34.8085C23.5143 34.1037 24.1037 33.5149 24.8097 33.1153ZM20.9342 43.2856C20.8545 43.2913 20.8043 43.2567 20.7739 43.2264C20.7436 43.1961 20.7088 43.1437 20.7149 43.066L20.9101 40.5541C21.1857 40.5021 21.4503 40.4189 21.7001 40.3081C22.2045 41.1117 22.8885 41.7953 23.6921 42.2992C23.5811 42.5493 23.4978 42.8143 23.4458 43.0903L20.9342 43.2856ZM27.0001 47.9388C25.7445 45.6983 25.2394 44.3764 25.1778 43.8594C25.1777 43.8571 25.1778 43.8549 25.1777 43.8526C25.1774 43.8481 25.1764 43.8439 25.1761 43.8394C25.1732 43.811 25.171 43.7841 25.171 43.7609C25.171 42.7524 25.9916 41.932 27.0001 41.932C28.0085 41.932 28.8291 42.7525 28.8291 43.7609C28.8291 43.7814 28.8269 43.8059 28.8247 43.8304C28.8239 43.8378 28.8224 43.845 28.8218 43.8525C28.8216 43.8563 28.8218 43.8601 28.8214 43.8639C28.7578 44.384 28.2522 45.7045 27.0001 47.9388ZM33.2258 43.2268C33.1958 43.2568 33.1442 43.2918 33.0662 43.2854L30.5542 43.0903C30.5022 42.8143 30.4189 42.5492 30.3079 42.299C31.1118 41.795 31.7957 41.1113 32.2996 40.3079C32.5497 40.4189 32.8146 40.5021 33.0905 40.5541L33.2857 43.0645C33.2918 43.1432 33.2565 43.1961 33.2258 43.2268ZM33.8562 38.8226L33.8527 38.8228C33.8504 38.8229 33.8482 38.8235 33.8459 38.8236C33.8148 38.8269 33.786 38.829 33.7609 38.829C32.7525 38.829 31.932 38.0084 31.932 37C31.932 35.9915 32.7525 35.171 33.7609 35.171C33.7855 35.171 33.8138 35.1731 33.8442 35.1763C33.847 35.1765 33.8499 35.1771 33.8527 35.1774C33.8543 35.1775 33.8558 35.1774 33.8575 35.1775C34.3745 35.227 35.696 35.7431 37.9388 37C35.6943 38.2579 34.3713 38.7628 33.8562 38.8226ZM33.0664 30.7147C33.1425 30.7085 33.1957 30.7433 33.2258 30.7733C33.2565 30.804 33.2918 30.8569 33.2858 30.9342L33.0905 33.4459C32.8145 33.4979 32.5497 33.5813 32.2994 33.6921C31.7956 32.8887 31.1117 32.2051 30.3077 31.7012C30.4187 31.4509 30.5022 31.186 30.5542 30.91L33.0664 30.7147ZM27.0001 26.0612C28.2522 28.2954 28.7579 29.616 28.8216 30.1359C28.8218 30.1398 28.8216 30.1436 28.8219 30.1475C28.8225 30.155 28.8241 30.1623 28.8248 30.1697C28.827 30.1941 28.8292 30.2186 28.8292 30.239C28.8292 31.2475 28.0087 32.0679 27.0002 32.0679C25.9917 32.0679 25.1712 31.2474 25.1712 30.239C25.1712 30.2159 25.1733 30.189 25.1761 30.1607C25.1764 30.1562 25.1774 30.152 25.1777 30.1475C25.1778 30.1451 25.1777 30.1429 25.1778 30.1406C25.2394 29.6236 25.7445 28.3017 27.0001 26.0612ZM20.774 30.7737C20.8044 30.7434 20.856 30.7086 20.9345 30.7146L23.4461 30.9097C23.498 31.1856 23.5814 31.4504 23.6924 31.7006C22.8882 32.2045 22.2041 32.8882 21.7 33.6915C21.4502 33.5808 21.1857 33.4977 20.9103 33.4458L20.7151 30.9337C20.7089 30.8564 20.7438 30.8041 20.774 30.7737Z" stroke="#E29482" stroke-width="0.8" mask="url(#path-2-outside-1_3625_7030)"/>
</g>
<defs>
<clipPath id="clip0_3625_7030">
<rect width="64" height="64" fill="white"/>
</clipPath>
</defs>
</svg>
