<svg width="64" height="64" viewBox="0 0 64 64" fill="none" xmlns="http://www.w3.org/2000/svg">
<g clip-path="url(#clip0_3625_7012)">
<path d="M27.9336 2.50293C30.2134 0.299105 33.7865 0.298939 36.0664 2.50293L40.3877 6.67969H49.3506C50.4632 6.67969 51.3662 7.59021 51.3662 8.70801V17.293L55.46 21.25C56.5342 22.2884 57.1503 23.7434 57.1504 25.2422V60.1504C57.1504 61.8033 55.8141 63.1504 54.1699 63.1504H9.83008C8.18604 63.1504 6.84961 61.8034 6.84961 60.1504V25.2422C6.84961 23.7434 7.46585 22.2884 8.54004 21.25L12.6338 17.293V8.70801C12.6338 7.59021 13.5368 6.67969 14.6494 6.67969H23.6123L27.9336 2.50293ZM34.6084 40.8457C33.1452 39.4313 30.8539 39.4312 29.3906 40.8457L9.03711 60.5195C9.17641 60.8228 9.47844 61.034 9.8291 61.0342H54.1699C54.5207 61.0342 54.8225 60.8227 54.9619 60.5195L34.6084 40.8457ZM14.7373 32.29L22.8291 40.1123C23.2476 40.5168 23.2617 41.186 22.8604 41.6074C22.6539 41.8239 22.3771 41.9336 22.1006 41.9336C21.8386 41.9336 21.5758 41.8355 21.3721 41.6387L8.95312 29.6338V57.666L27.9336 39.3193C30.2135 37.1156 33.7864 37.1156 36.0664 39.3193L39.0273 42.1816L54.0029 27.708C54.6658 27.0671 55.0459 26.168 55.0459 25.2422C55.0459 24.3164 54.6657 23.4172 54.0029 22.7764L51.3662 20.2275V27.1494C51.3662 27.7328 50.8963 28.208 50.3145 28.208C49.7326 28.208 49.2627 27.7328 49.2627 27.1494V8.7959H14.7373V32.29ZM40.5459 43.6494L55.0459 57.665V29.6348L40.5459 43.6494ZM9.99707 22.7764C9.33432 23.4173 8.95312 24.3165 8.95312 25.2422C8.95316 26.168 9.33412 27.0671 9.99707 27.708L12.6338 30.2559V20.2275L9.99707 22.7764ZM34.6084 4.0293C33.145 2.61482 30.8537 2.61484 29.3906 4.0293L26.6484 6.67969H37.3506L34.6084 4.0293Z" fill="#E29482" stroke="#E29482" stroke-width="0.3"/>
<path d="M24.501 13.8496C26.0993 13.8496 27.4031 15.1355 27.4033 16.7197V17.5566H36.5967V16.7197C36.5969 15.1356 37.9006 13.8496 39.499 13.8496H45.123C45.501 13.8496 45.8492 14.056 46.0283 14.3867C46.2074 14.7176 46.1879 15.1194 45.9775 15.4316L44.4834 17.6465L45.9775 19.8623C46.1878 20.1745 46.2075 20.5764 46.0283 20.9072C45.8493 21.2382 45.5009 21.4434 45.123 21.4434H40.5254V22.2803C40.5252 23.8644 39.2224 25.1504 37.624 25.1504H26.376C24.7777 25.1504 23.4748 23.8645 23.4746 22.2803V21.4434H18.877C18.4991 21.4434 18.1508 21.2381 17.9717 20.9072C17.7925 20.5764 17.8122 20.1746 18.0225 19.8623L19.5156 17.6465L18.0225 15.4316C17.8121 15.1194 17.7926 14.7176 17.9717 14.3867C18.1507 14.0557 18.4991 13.8496 18.877 13.8496H24.501ZM25.5283 22.2803C25.5285 22.7394 25.9071 23.1162 26.376 23.1162H37.624C38.0928 23.1162 38.4715 22.7394 38.4717 22.2803V19.5908H25.5283V22.2803ZM39.499 15.8838C39.0302 15.8838 38.6514 16.2613 38.6514 16.7207V17.5566H39.499C40.0644 17.5567 40.5252 18.0101 40.5254 18.5732V19.4102H43.2031L42.3945 18.2119C42.1638 17.8701 42.1639 17.424 42.3945 17.082L43.2031 15.8838H39.499ZM21.6055 17.082C21.8361 17.4239 21.8362 17.8702 21.6055 18.2119L20.7969 19.4102H23.4736V18.5732C23.4738 18.01 23.9355 17.5567 24.501 17.5566H25.3486V16.7207C25.3486 16.2613 24.9699 15.8838 24.501 15.8838H20.7969L21.6055 17.082Z" fill="#E29482" stroke="#E29482" stroke-width="0.3"/>
<path d="M41.0586 27.8496C41.6697 27.8498 42.1504 28.3736 42.1504 29C42.1504 29.6264 41.6697 30.1502 41.0586 30.1504H22.9414C22.3303 30.1502 21.8496 29.6264 21.8496 29C21.8496 28.3736 22.3303 27.8498 22.9414 27.8496H41.0586Z" fill="#E29482" stroke="#E29482" stroke-width="0.3"/>
<path d="M39.0566 32.8496C39.6686 32.8496 40.1504 33.3733 40.1504 34C40.1504 34.6267 39.6685 35.1504 39.0566 35.1504H24.9434C24.3315 35.1504 23.8496 34.6267 23.8496 34C23.8496 33.3733 24.3315 32.8496 24.9434 32.8496H39.0566Z" fill="#E29482" stroke="#E29482" stroke-width="0.3"/>
</g>
<defs>
<clipPath id="clip0_3625_7012">
<rect width="64" height="64" fill="white"/>
</clipPath>
</defs>
</svg>
