<svg width="64" height="64" viewBox="0 0 64 64" fill="none" xmlns="http://www.w3.org/2000/svg">
<path d="M28.5175 15.392C28.5175 15.392 34.5175 14.392 34.5175 17.392C34.5175 19.392 32.5175 20.392 29.5175 20.392C26.5175 20.392 23.5175 19.392 23.5175 15.392C23.5175 11.392 27.5175 10.392 30.5175 10.392C42.5175 10.392 40.5175 22.392 36.5175 24.392C33.6675 25.812 29.5175 24.392 29.5175 24.392C29.5175 24.392 26.5175 27.392 21.5175 24.392C16.0975 21.142 19.5175 15.392 19.5175 15.392C19.5175 15.392 16.5175 10.392 20.5175 7.39204C24.5175 4.39204 27.5175 7.39204 27.5175 7.39204C27.5175 7.39204 32.5175 3.39204 38.5175 7.39204C44.5175 11.392 39.5175 16.392 39.5175 16.392" stroke="#E29482" stroke-width="2.6" stroke-linecap="round" stroke-linejoin="round"/>
<path d="M16.2375 22.7017C15.1675 22.6017 13.9275 22.2417 12.5175 21.3917C7.0975 18.1417 10.5175 12.3917 10.5175 12.3917C10.5175 12.3917 7.5175 7.39171 11.5175 4.39171C15.5175 1.39171 18.5175 3.39171 18.5175 3.39171C18.5175 3.39171 22.2175 -0.0882936 27.5175 2.39171" stroke="#E29482" stroke-width="2.6" stroke-linecap="round" stroke-linejoin="round"/>
<path d="M15.7956 15.9119C15.0056 15.1419 14.5156 14.0119 14.5156 12.3919C14.5156 8.98191 17.4256 7.75191 20.1356 7.46191" stroke="#E29482" stroke-width="2.6" stroke-linecap="round" stroke-linejoin="round"/>
<path d="M43.5163 16.3916C55.5163 16.3916 55.5163 28.3916 49.5163 30.3916C47.3963 31.1016 44.5163 30.3916 44.5163 30.3916C44.5163 30.3916 42.5163 33.3916 36.5163 31.3916C34.4363 30.7016 33.4062 29.4916 32.9062 28.3316" stroke="#E29482" stroke-width="2.6" stroke-linecap="round" stroke-linejoin="round"/>
<path d="M47.5194 23.3916C47.5194 25.3916 45.5194 26.3916 42.5194 26.3916C40.3294 26.3916 38.1294 25.8616 37.1094 24.0016" stroke="#E29482" stroke-width="2.6" stroke-linecap="round" stroke-linejoin="round"/>
<path d="M41.5156 21.3914C41.5156 21.3914 47.5156 20.3914 47.5156 23.3914" stroke="#E29482" stroke-width="2.6" stroke-linecap="round" stroke-linejoin="round"/>
<path d="M53.5134 23.3917C53.5134 23.3917 57.5134 19.3917 52.5134 14.3917C48.9734 10.8517 44.5134 12.3917 44.5134 12.3917C44.5134 12.3917 44.0434 11.0517 41.2734 10.7217" stroke="#E29482" stroke-width="2.6" stroke-linecap="round" stroke-linejoin="round"/>
<path d="M38.5156 32.3916L22.5156 44.3916L16.5156 57.3916C13.5156 58.3916 7.51562 55.3916 7.51562 52.3916L14.5156 40.3916V22.3916" stroke="#E29482" stroke-width="2.6" stroke-linecap="round" stroke-linejoin="round"/>
<path d="M14.5156 40.3916C14.5156 40.3916 15.5156 42.3916 18.5156 43.3916" stroke="#E29482" stroke-width="2.6" stroke-linecap="round" stroke-linejoin="round"/>
<path d="M45.5156 56.3916C45.5156 56.3916 35.8656 59.6116 33.5156 51.3916C31.5156 44.3916 22.5156 44.3916 22.5156 44.3916C22.5156 44.3916 28.5156 49.3916 26.5156 55.3916C25.1056 59.6316 27.5156 62.3916 27.5156 62.3916" stroke="#E29482" stroke-width="2.6" stroke-linecap="round" stroke-linejoin="round"/>
</svg>
