<svg width="64" height="64" viewBox="0 0 64 64" fill="none" xmlns="http://www.w3.org/2000/svg">
<g clip-path="url(#clip0_3625_6674)">
<mask id="path-1-outside-1_3625_6674" maskUnits="userSpaceOnUse" x="4.52734" y="-1" width="55" height="66" fill="black">
<rect fill="white" x="4.52734" y="-1" width="55" height="66"/>
<path d="M51.7856 8.87763C51.4402 8.4905 50.8467 8.4565 50.4592 8.80188C50.0721 9.14713 50.0381 9.741 50.3833 10.1281C54.3927 14.6236 56.6008 20.4295 56.6008 26.4761V62.1214H53.7406V26.4761C53.7406 20.6674 51.4695 15.2035 47.3455 11.0909C43.2363 6.99325 37.7906 4.739 32.0041 4.739C31.9835 4.739 31.9625 4.739 31.942 4.739C26.9753 4.75287 22.3032 6.4175 18.4307 9.553C18.0276 9.8795 17.9653 10.471 18.2918 10.8741C18.6182 11.2772 19.2097 11.3395 19.613 11.0131C23.1488 8.15013 27.4138 6.63025 31.9471 6.61763H32.0038C37.2892 6.61763 42.2648 8.67738 46.0188 12.4211C49.7868 16.1786 51.862 21.17 51.862 26.476V37.5106H47.2777C45.8442 33.6569 44.1385 31.373 43.0113 30.168C44.8508 29.785 45.9273 30.9155 46.0697 31.0769C46.4075 31.4691 46.9972 31.5133 47.3891 31.1806C47.7847 30.8451 47.8337 30.2524 47.4983 29.8566C46.7898 29.0209 45.0442 27.885 42.7393 28.3107C42.9553 27.9441 43.2226 27.6574 43.5408 27.4545C44.5645 26.802 45.8675 27.1525 45.9016 27.1621C46.3977 27.3067 46.9173 27.023 47.0645 26.5274C47.212 26.03 46.9285 25.5072 46.4311 25.3596C46.3453 25.3341 44.3128 24.7498 42.5527 25.8566C42.0112 26.1971 41.5622 26.6519 41.2055 27.215C40.9778 25.592 41.772 24.4766 41.8238 24.406C42.1335 23.9936 42.0528 23.4079 41.6418 23.0947C41.2292 22.7802 40.6396 22.8601 40.3255 23.2728C40.2516 23.3696 38.9618 25.1094 39.3485 27.5695C37.5695 27.1035 35.8813 27.7465 35.0123 28.3535C34.589 28.6494 34.4862 29.23 34.7796 29.6553C35.0727 30.0804 35.657 30.1875 36.084 29.8966C36.2785 29.764 37.6916 28.8644 39.254 29.5159C37.4892 30.5119 36.9176 32.3594 36.8848 33.4105C36.8687 33.929 37.2757 34.366 37.7943 34.3821C37.8043 34.3825 37.8143 34.3825 37.8243 34.3825C38.3295 34.3825 38.7466 33.9845 38.7623 33.476C38.773 33.2478 38.926 31.3369 41.0041 30.835C41.5861 31.3507 42.9777 32.7644 44.3588 35.513C44.6846 36.1611 44.9811 36.8293 45.2537 37.5105H18.7547C19.0542 36.7598 19.3561 36.0944 19.6483 35.513C21.0295 32.7646 22.4211 31.3509 23.0031 30.835C25.0775 31.336 25.2336 33.2409 25.2447 33.4748C25.2636 33.9806 25.6796 34.3791 26.183 34.3791C26.1927 34.3791 26.2027 34.379 26.2127 34.3787C26.7313 34.3625 27.1385 33.9291 27.1223 33.4105C27.0896 32.3594 26.518 30.5119 24.7532 29.5159C26.3136 28.8654 27.7252 29.762 27.9225 29.8961C28.3475 30.1901 28.9305 30.0854 29.2267 29.6615C29.5238 29.2363 29.42 28.6506 28.9947 28.3535C28.1258 27.7465 26.4376 27.1034 24.6587 27.5694C25.0452 25.1092 23.7555 23.3696 23.6817 23.2728C23.3673 22.86 22.7756 22.7775 22.3631 23.0917C21.9505 23.4061 21.8685 23.9925 22.1828 24.4053C22.23 24.4692 23.0297 25.5865 22.8016 27.2148C22.4448 26.6518 21.9958 26.197 21.4543 25.8566C19.6941 24.7499 17.6616 25.3342 17.576 25.3596C17.0808 25.5065 16.8002 26.0249 16.944 26.5209C17.0877 27.0169 17.608 27.3027 18.105 27.1623C18.1183 27.1586 19.4345 26.7967 20.4662 27.4546C20.7845 27.6575 21.0516 27.9443 21.2676 28.3109C18.9625 27.885 17.217 29.021 16.5086 29.8569C16.1732 30.2526 16.2193 30.8486 16.6151 31.184C17.0082 31.5179 17.5993 31.4755 17.9363 31.078C18.0753 30.9202 19.1523 29.7846 20.9955 30.1682C19.8682 31.3732 18.1627 33.6571 16.7292 37.5107H12.145V26.6775C12.145 21.845 13.8817 17.1696 17.0352 13.5127C17.374 13.1199 17.3302 12.5267 16.9373 12.188C16.5445 11.8492 15.9513 11.893 15.6125 12.2859C12.1648 16.2838 10.2662 21.3947 10.2662 26.6775V62.1214H7.40597V26.4761C7.40597 19.9059 9.96459 13.729 14.6105 9.08313C19.2563 4.43725 25.4332 1.87863 32.0035 1.87863C37.8635 1.87863 43.3201 3.85863 47.7837 7.60475C48.1811 7.93825 48.7736 7.88637 49.1071 7.489C49.4405 7.09162 49.3887 6.49913 48.9913 6.16563C44.2537 2.18975 38.2207 0 32.0035 0C24.9315 0 18.2827 2.754 13.282 7.75475C8.28134 12.7554 5.52734 19.4041 5.52734 26.4761V63.0607C5.52734 63.5795 5.94784 64.0001 6.46672 64.0001H57.5403C58.0592 64.0001 58.4797 63.5796 58.4797 63.0607V26.4761C58.4796 19.9676 56.1023 13.7178 51.7856 8.87763ZM51.862 39.3894V53.6847H49.9025C49.8252 47.6305 49.0048 42.9561 47.9128 39.3894H51.862ZM16.0941 39.3894C15.0021 42.9561 14.1817 47.6305 14.1045 53.6847H12.145V39.3894H16.0941ZM12.145 55.5634H37.2758C37.7947 55.5634 38.2152 55.1429 38.2152 54.624C38.2152 54.1053 37.7947 53.6846 37.2758 53.6846H15.9835C16.0675 47.4094 16.987 42.7449 18.0771 39.3893H45.9321C47.5043 44.2268 47.9653 49.522 48.023 53.6846H41.0331C40.5142 53.6846 40.0937 54.1053 40.0937 54.624C40.0937 55.1427 40.5142 55.5634 41.0331 55.5634H51.8618V62.1213H12.145V55.5634Z"/>
</mask>
<path d="M51.7856 8.87763C51.4402 8.4905 50.8467 8.4565 50.4592 8.80188C50.0721 9.14713 50.0381 9.741 50.3833 10.1281C54.3927 14.6236 56.6008 20.4295 56.6008 26.4761V62.1214H53.7406V26.4761C53.7406 20.6674 51.4695 15.2035 47.3455 11.0909C43.2363 6.99325 37.7906 4.739 32.0041 4.739C31.9835 4.739 31.9625 4.739 31.942 4.739C26.9753 4.75287 22.3032 6.4175 18.4307 9.553C18.0276 9.8795 17.9653 10.471 18.2918 10.8741C18.6182 11.2772 19.2097 11.3395 19.613 11.0131C23.1488 8.15013 27.4138 6.63025 31.9471 6.61763H32.0038C37.2892 6.61763 42.2648 8.67738 46.0188 12.4211C49.7868 16.1786 51.862 21.17 51.862 26.476V37.5106H47.2777C45.8442 33.6569 44.1385 31.373 43.0113 30.168C44.8508 29.785 45.9273 30.9155 46.0697 31.0769C46.4075 31.4691 46.9972 31.5133 47.3891 31.1806C47.7847 30.8451 47.8337 30.2524 47.4983 29.8566C46.7898 29.0209 45.0442 27.885 42.7393 28.3107C42.9553 27.9441 43.2226 27.6574 43.5408 27.4545C44.5645 26.802 45.8675 27.1525 45.9016 27.1621C46.3977 27.3067 46.9173 27.023 47.0645 26.5274C47.212 26.03 46.9285 25.5072 46.4311 25.3596C46.3453 25.3341 44.3128 24.7498 42.5527 25.8566C42.0112 26.1971 41.5622 26.6519 41.2055 27.215C40.9778 25.592 41.772 24.4766 41.8238 24.406C42.1335 23.9936 42.0528 23.4079 41.6418 23.0947C41.2292 22.7802 40.6396 22.8601 40.3255 23.2728C40.2516 23.3696 38.9618 25.1094 39.3485 27.5695C37.5695 27.1035 35.8813 27.7465 35.0123 28.3535C34.589 28.6494 34.4862 29.23 34.7796 29.6553C35.0727 30.0804 35.657 30.1875 36.084 29.8966C36.2785 29.764 37.6916 28.8644 39.254 29.5159C37.4892 30.5119 36.9176 32.3594 36.8848 33.4105C36.8687 33.929 37.2757 34.366 37.7943 34.3821C37.8043 34.3825 37.8143 34.3825 37.8243 34.3825C38.3295 34.3825 38.7466 33.9845 38.7623 33.476C38.773 33.2478 38.926 31.3369 41.0041 30.835C41.5861 31.3507 42.9777 32.7644 44.3588 35.513C44.6846 36.1611 44.9811 36.8293 45.2537 37.5105H18.7547C19.0542 36.7598 19.3561 36.0944 19.6483 35.513C21.0295 32.7646 22.4211 31.3509 23.0031 30.835C25.0775 31.336 25.2336 33.2409 25.2447 33.4748C25.2636 33.9806 25.6796 34.3791 26.183 34.3791C26.1927 34.3791 26.2027 34.379 26.2127 34.3787C26.7313 34.3625 27.1385 33.9291 27.1223 33.4105C27.0896 32.3594 26.518 30.5119 24.7532 29.5159C26.3136 28.8654 27.7252 29.762 27.9225 29.8961C28.3475 30.1901 28.9305 30.0854 29.2267 29.6615C29.5238 29.2363 29.42 28.6506 28.9947 28.3535C28.1258 27.7465 26.4376 27.1034 24.6587 27.5694C25.0452 25.1092 23.7555 23.3696 23.6817 23.2728C23.3673 22.86 22.7756 22.7775 22.3631 23.0917C21.9505 23.4061 21.8685 23.9925 22.1828 24.4053C22.23 24.4692 23.0297 25.5865 22.8016 27.2148C22.4448 26.6518 21.9958 26.197 21.4543 25.8566C19.6941 24.7499 17.6616 25.3342 17.576 25.3596C17.0808 25.5065 16.8002 26.0249 16.944 26.5209C17.0877 27.0169 17.608 27.3027 18.105 27.1623C18.1183 27.1586 19.4345 26.7967 20.4662 27.4546C20.7845 27.6575 21.0516 27.9443 21.2676 28.3109C18.9625 27.885 17.217 29.021 16.5086 29.8569C16.1732 30.2526 16.2193 30.8486 16.6151 31.184C17.0082 31.5179 17.5993 31.4755 17.9363 31.078C18.0753 30.9202 19.1523 29.7846 20.9955 30.1682C19.8682 31.3732 18.1627 33.6571 16.7292 37.5107H12.145V26.6775C12.145 21.845 13.8817 17.1696 17.0352 13.5127C17.374 13.1199 17.3302 12.5267 16.9373 12.188C16.5445 11.8492 15.9513 11.893 15.6125 12.2859C12.1648 16.2838 10.2662 21.3947 10.2662 26.6775V62.1214H7.40597V26.4761C7.40597 19.9059 9.96459 13.729 14.6105 9.08313C19.2563 4.43725 25.4332 1.87863 32.0035 1.87863C37.8635 1.87863 43.3201 3.85863 47.7837 7.60475C48.1811 7.93825 48.7736 7.88637 49.1071 7.489C49.4405 7.09162 49.3887 6.49913 48.9913 6.16563C44.2537 2.18975 38.2207 0 32.0035 0C24.9315 0 18.2827 2.754 13.282 7.75475C8.28134 12.7554 5.52734 19.4041 5.52734 26.4761V63.0607C5.52734 63.5795 5.94784 64.0001 6.46672 64.0001H57.5403C58.0592 64.0001 58.4797 63.5796 58.4797 63.0607V26.4761C58.4796 19.9676 56.1023 13.7178 51.7856 8.87763ZM51.862 39.3894V53.6847H49.9025C49.8252 47.6305 49.0048 42.9561 47.9128 39.3894H51.862ZM16.0941 39.3894C15.0021 42.9561 14.1817 47.6305 14.1045 53.6847H12.145V39.3894H16.0941ZM12.145 55.5634H37.2758C37.7947 55.5634 38.2152 55.1429 38.2152 54.624C38.2152 54.1053 37.7947 53.6846 37.2758 53.6846H15.9835C16.0675 47.4094 16.987 42.7449 18.0771 39.3893H45.9321C47.5043 44.2268 47.9653 49.522 48.023 53.6846H41.0331C40.5142 53.6846 40.0937 54.1053 40.0937 54.624C40.0937 55.1427 40.5142 55.5634 41.0331 55.5634H51.8618V62.1213H12.145V55.5634Z" fill="#E29482"/>
<path d="M51.7856 8.87763C51.4402 8.4905 50.8467 8.4565 50.4592 8.80188C50.0721 9.14713 50.0381 9.741 50.3833 10.1281C54.3927 14.6236 56.6008 20.4295 56.6008 26.4761V62.1214H53.7406V26.4761C53.7406 20.6674 51.4695 15.2035 47.3455 11.0909C43.2363 6.99325 37.7906 4.739 32.0041 4.739C31.9835 4.739 31.9625 4.739 31.942 4.739C26.9753 4.75287 22.3032 6.4175 18.4307 9.553C18.0276 9.8795 17.9653 10.471 18.2918 10.8741C18.6182 11.2772 19.2097 11.3395 19.613 11.0131C23.1488 8.15013 27.4138 6.63025 31.9471 6.61763H32.0038C37.2892 6.61763 42.2648 8.67738 46.0188 12.4211C49.7868 16.1786 51.862 21.17 51.862 26.476V37.5106H47.2777C45.8442 33.6569 44.1385 31.373 43.0113 30.168C44.8508 29.785 45.9273 30.9155 46.0697 31.0769C46.4075 31.4691 46.9972 31.5133 47.3891 31.1806C47.7847 30.8451 47.8337 30.2524 47.4983 29.8566C46.7898 29.0209 45.0442 27.885 42.7393 28.3107C42.9553 27.9441 43.2226 27.6574 43.5408 27.4545C44.5645 26.802 45.8675 27.1525 45.9016 27.1621C46.3977 27.3067 46.9173 27.023 47.0645 26.5274C47.212 26.03 46.9285 25.5072 46.4311 25.3596C46.3453 25.3341 44.3128 24.7498 42.5527 25.8566C42.0112 26.1971 41.5622 26.6519 41.2055 27.215C40.9778 25.592 41.772 24.4766 41.8238 24.406C42.1335 23.9936 42.0528 23.4079 41.6418 23.0947C41.2292 22.7802 40.6396 22.8601 40.3255 23.2728C40.2516 23.3696 38.9618 25.1094 39.3485 27.5695C37.5695 27.1035 35.8813 27.7465 35.0123 28.3535C34.589 28.6494 34.4862 29.23 34.7796 29.6553C35.0727 30.0804 35.657 30.1875 36.084 29.8966C36.2785 29.764 37.6916 28.8644 39.254 29.5159C37.4892 30.5119 36.9176 32.3594 36.8848 33.4105C36.8687 33.929 37.2757 34.366 37.7943 34.3821C37.8043 34.3825 37.8143 34.3825 37.8243 34.3825C38.3295 34.3825 38.7466 33.9845 38.7623 33.476C38.773 33.2478 38.926 31.3369 41.0041 30.835C41.5861 31.3507 42.9777 32.7644 44.3588 35.513C44.6846 36.1611 44.9811 36.8293 45.2537 37.5105H18.7547C19.0542 36.7598 19.3561 36.0944 19.6483 35.513C21.0295 32.7646 22.4211 31.3509 23.0031 30.835C25.0775 31.336 25.2336 33.2409 25.2447 33.4748C25.2636 33.9806 25.6796 34.3791 26.183 34.3791C26.1927 34.3791 26.2027 34.379 26.2127 34.3787C26.7313 34.3625 27.1385 33.9291 27.1223 33.4105C27.0896 32.3594 26.518 30.5119 24.7532 29.5159C26.3136 28.8654 27.7252 29.762 27.9225 29.8961C28.3475 30.1901 28.9305 30.0854 29.2267 29.6615C29.5238 29.2363 29.42 28.6506 28.9947 28.3535C28.1258 27.7465 26.4376 27.1034 24.6587 27.5694C25.0452 25.1092 23.7555 23.3696 23.6817 23.2728C23.3673 22.86 22.7756 22.7775 22.3631 23.0917C21.9505 23.4061 21.8685 23.9925 22.1828 24.4053C22.23 24.4692 23.0297 25.5865 22.8016 27.2148C22.4448 26.6518 21.9958 26.197 21.4543 25.8566C19.6941 24.7499 17.6616 25.3342 17.576 25.3596C17.0808 25.5065 16.8002 26.0249 16.944 26.5209C17.0877 27.0169 17.608 27.3027 18.105 27.1623C18.1183 27.1586 19.4345 26.7967 20.4662 27.4546C20.7845 27.6575 21.0516 27.9443 21.2676 28.3109C18.9625 27.885 17.217 29.021 16.5086 29.8569C16.1732 30.2526 16.2193 30.8486 16.6151 31.184C17.0082 31.5179 17.5993 31.4755 17.9363 31.078C18.0753 30.9202 19.1523 29.7846 20.9955 30.1682C19.8682 31.3732 18.1627 33.6571 16.7292 37.5107H12.145V26.6775C12.145 21.845 13.8817 17.1696 17.0352 13.5127C17.374 13.1199 17.3302 12.5267 16.9373 12.188C16.5445 11.8492 15.9513 11.893 15.6125 12.2859C12.1648 16.2838 10.2662 21.3947 10.2662 26.6775V62.1214H7.40597V26.4761C7.40597 19.9059 9.96459 13.729 14.6105 9.08313C19.2563 4.43725 25.4332 1.87863 32.0035 1.87863C37.8635 1.87863 43.3201 3.85863 47.7837 7.60475C48.1811 7.93825 48.7736 7.88637 49.1071 7.489C49.4405 7.09162 49.3887 6.49913 48.9913 6.16563C44.2537 2.18975 38.2207 0 32.0035 0C24.9315 0 18.2827 2.754 13.282 7.75475C8.28134 12.7554 5.52734 19.4041 5.52734 26.4761V63.0607C5.52734 63.5795 5.94784 64.0001 6.46672 64.0001H57.5403C58.0592 64.0001 58.4797 63.5796 58.4797 63.0607V26.4761C58.4796 19.9676 56.1023 13.7178 51.7856 8.87763ZM51.862 39.3894V53.6847H49.9025C49.8252 47.6305 49.0048 42.9561 47.9128 39.3894H51.862ZM16.0941 39.3894C15.0021 42.9561 14.1817 47.6305 14.1045 53.6847H12.145V39.3894H16.0941ZM12.145 55.5634H37.2758C37.7947 55.5634 38.2152 55.1429 38.2152 54.624C38.2152 54.1053 37.7947 53.6846 37.2758 53.6846H15.9835C16.0675 47.4094 16.987 42.7449 18.0771 39.3893H45.9321C47.5043 44.2268 47.9653 49.522 48.023 53.6846H41.0331C40.5142 53.6846 40.0937 54.1053 40.0937 54.624C40.0937 55.1427 40.5142 55.5634 41.0331 55.5634H51.8618V62.1213H12.145V55.5634Z" stroke="#E29482" stroke-width="0.4" mask="url(#path-1-outside-1_3625_6674)"/>
<path d="M31.9961 12.5967C34.244 12.5967 36.0731 14.425 36.0732 16.6729C36.0732 18.9208 34.2441 20.75 31.9961 20.75C29.7482 20.7499 27.9199 18.9208 27.9199 16.6729C27.92 14.4249 29.7483 12.5968 31.9961 12.5967ZM31.9961 14.6748C30.8945 14.6749 29.9981 15.5713 29.998 16.6729C29.998 17.7744 30.8944 18.6708 31.9961 18.6709C33.0979 18.6709 33.9941 17.7745 33.9941 16.6729C33.9941 15.5712 33.0977 14.6748 31.9961 14.6748Z" fill="#E29482" stroke="#E29482" stroke-width="0.2"/>
<path d="M32.002 8.60107C32.576 8.60112 33.041 9.06619 33.041 9.64014V10.6714C33.041 11.2455 32.576 11.7114 32.002 11.7114C31.4278 11.7114 30.9629 11.2454 30.9629 10.6714V9.64014C30.9629 9.06617 31.4278 8.60107 32.002 8.60107Z" fill="#E29482" stroke="#E29482" stroke-width="0.2"/>
<path d="M32.002 21.6362C32.576 21.6363 33.041 22.1013 33.041 22.6753V23.7065C33.041 24.2805 32.576 24.7465 32.002 24.7466C31.4278 24.7466 30.9629 24.2805 30.9629 23.7065V22.6753C30.9629 22.1013 31.4278 21.6362 32.002 21.6362Z" fill="#E29482" stroke="#E29482" stroke-width="0.2"/>
<path d="M39.0332 15.6348C39.6073 15.6348 40.0732 16.0999 40.0732 16.6738C40.0732 17.2478 39.6073 17.7129 39.0332 17.7129H38.002C37.4279 17.7129 36.9629 17.2478 36.9629 16.6738C36.9629 16.0997 37.4279 15.6348 38.002 15.6348H39.0332Z" fill="#E29482" stroke="#E29482" stroke-width="0.2"/>
<path d="M25.998 15.6348C26.5722 15.6348 27.0381 16.0999 27.0381 16.6738C27.038 17.2478 26.5721 17.7129 25.998 17.7129H24.9668C24.3927 17.7129 23.9278 17.2478 23.9277 16.6738C23.9277 16.0997 24.3927 15.6348 24.9668 15.6348H25.998Z" fill="#E29482" stroke="#E29482" stroke-width="0.2"/>
<path d="M35.5049 20.1816C35.9107 19.7759 36.5689 19.7762 36.9746 20.1816L37.7041 20.9111C38.1099 21.3169 38.1105 21.9749 37.7051 22.3809C37.2992 22.7868 36.6413 22.7868 36.2354 22.3809L35.5049 21.6514C35.0994 21.2454 35.0992 20.5874 35.5049 20.1816Z" fill="#E29482" stroke="#E29482" stroke-width="0.2"/>
<path d="M26.2939 10.9648C26.6998 10.5591 27.358 10.5593 27.7637 10.9648L28.4932 11.6943C28.899 12.1001 28.8995 12.7581 28.4941 13.1641C28.0884 13.5698 27.4304 13.5705 27.0244 13.165L26.2939 12.4355C25.888 12.0296 25.8882 11.3708 26.2939 10.9648Z" fill="#E29482" stroke="#E29482" stroke-width="0.2"/>
<path d="M27.0234 20.1816C27.4291 19.7758 28.0882 19.7759 28.4941 20.1816C28.9 20.5876 28.8992 21.2464 28.4932 21.6523L27.7637 22.3818C27.3578 22.7873 26.6997 22.7865 26.2939 22.3809C25.8885 21.9749 25.8882 21.317 26.2939 20.9111L27.0234 20.1816Z" fill="#E29482" stroke="#E29482" stroke-width="0.2"/>
<path d="M36.2354 10.9648C36.6412 10.5594 37.2993 10.5592 37.7051 10.9648C38.1108 11.3708 38.11 12.0296 37.7041 12.4355L36.9746 13.165C36.5688 13.5705 35.9107 13.5697 35.5049 13.1641C35.0994 12.7581 35.0991 12.1002 35.5049 11.6943L36.2354 10.9648Z" fill="#E29482" stroke="#E29482" stroke-width="0.2"/>
<path d="M24.8506 42.4756C25.7287 42.4769 26.5842 42.7868 27.2588 43.3486C27.8858 43.8712 28.7966 43.8712 29.4238 43.3486C30.1144 42.7736 30.9851 42.4662 31.8857 42.4756L31.8848 42.4766C32.7804 42.4655 33.6563 42.7737 34.3467 43.3486C34.9738 43.8712 35.8844 43.8712 36.5117 43.3486C37.1862 42.7868 38.041 42.4769 38.9189 42.4756H38.9209C39.4941 42.4756 39.9589 42.9393 39.96 43.5127C39.9608 44.0867 39.496 44.5529 38.9219 44.5537C38.5283 44.5544 38.145 44.6937 37.8428 44.9453C37.1438 45.5276 36.2864 45.8191 35.4297 45.8193C34.5725 45.8193 33.7157 45.5277 33.0166 44.9453C32.744 44.7182 32.403 44.5843 32.0537 44.5586L31.9033 44.5537C31.8912 44.554 31.8793 44.554 31.8672 44.5537L31.7168 44.5586C31.4168 44.5807 31.1243 44.6827 30.875 44.8545L30.7539 44.9453C29.3556 46.1102 27.3259 46.1099 25.9277 44.9453C25.6253 44.6935 25.2414 44.5543 24.8477 44.5537C24.2737 44.5527 23.8097 44.0865 23.8105 43.5127C23.8116 42.9394 24.2765 42.4756 24.8496 42.4756H24.8506Z" fill="#E29482" stroke="#E29482" stroke-width="0.2"/>
<path d="M21.1006 47.5254C21.9787 47.5267 22.8342 47.8366 23.5088 48.3984C24.1358 48.9209 25.0466 48.921 25.6738 48.3984C26.3685 47.8198 27.2438 47.5091 28.1533 47.5254C28.7272 47.5356 29.185 48.0092 29.1748 48.583C29.1646 49.1574 28.6915 49.6094 28.1172 49.6035C28.1066 49.6034 28.0967 49.6035 28.0869 49.6035C27.6917 49.6035 27.3079 49.7419 27.0039 49.9951C26.3048 50.5774 25.4475 50.8691 24.5908 50.8691C23.7337 50.8691 22.8768 50.5775 22.1777 49.9951C21.8753 49.7435 21.4914 49.6041 21.0977 49.6035C20.5238 49.6025 20.0599 49.1371 20.0605 48.5635C20.0614 47.99 20.5263 47.5254 21.0996 47.5254H21.1006Z" fill="#E29482" stroke="#E29482" stroke-width="0.2"/>
<path d="M35.6318 47.5254C36.5099 47.5267 37.3656 47.8366 38.04 48.3984C38.6672 48.921 39.5778 48.921 40.2051 48.3984C40.8999 47.8198 41.7779 47.5091 42.6846 47.5254C43.2585 47.5355 43.7161 48.0092 43.7061 48.583C43.6958 49.1574 43.2228 49.6094 42.6484 49.6035C42.6379 49.6034 42.628 49.6035 42.6182 49.6035C42.223 49.6035 41.8394 49.742 41.5352 49.9951C40.836 50.5774 39.9787 50.8691 39.1221 50.8691C38.2651 50.8691 37.4081 50.5775 36.709 49.9951C36.4066 49.7435 36.0227 49.6041 35.6289 49.6035C35.0551 49.6025 34.5912 49.1371 34.5918 48.5635C34.5926 47.99 35.0576 47.5254 35.6309 47.5254H35.6318Z" fill="#E29482" stroke="#E29482" stroke-width="0.2"/>
</g>
<defs>
<clipPath id="clip0_3625_6674">
<rect width="64" height="64" fill="white"/>
</clipPath>
</defs>
</svg>
