<svg width="32" height="32" viewBox="0 0 32 32" fill="none" xmlns="http://www.w3.org/2000/svg">
<g clip-path="url(#clip0_3615_9593)">
<path d="M25.6313 27.6766H0.666667C0.489856 27.6766 0.320286 27.6064 0.195262 27.4814C0.0702379 27.3563 0 27.1868 0 27.01V12.7206C0 12.5438 0.0702379 12.3742 0.195262 12.2492C0.320286 12.1242 0.489856 12.054 0.666667 12.054H25.6313C25.8081 12.054 25.9777 12.1242 26.1027 12.2492C26.2278 12.3742 26.298 12.5438 26.298 12.7206V27.01C26.298 27.1868 26.2278 27.3563 26.1027 27.4814C25.9777 27.6064 25.8081 27.6766 25.6313 27.6766ZM1.33333 26.3433H24.9647V13.3873H1.33333V26.3433Z" fill="#E29482"/>
<path d="M21.3335 25.6569H4.96888C4.79206 25.6569 4.62249 25.5866 4.49747 25.4616C4.37245 25.3366 4.30221 25.167 4.30221 24.9902C4.30168 24.6354 4.16045 24.2953 3.9095 24.0445C3.65854 23.7936 3.31835 23.6526 2.96354 23.6522C2.78673 23.6522 2.61716 23.582 2.49214 23.457C2.36711 23.3319 2.29688 23.1624 2.29688 22.9856V16.7462C2.29688 16.5694 2.36711 16.3998 2.49214 16.2748C2.61716 16.1498 2.78673 16.0796 2.96354 16.0796C3.31842 16.079 3.6586 15.9378 3.90954 15.6869C4.16047 15.4359 4.30168 15.0958 4.30221 14.7409C4.30221 14.5641 4.37245 14.3945 4.49747 14.2695C4.62249 14.1445 4.79206 14.0742 4.96888 14.0742H21.3335C21.5104 14.0742 21.6799 14.1445 21.8049 14.2695C21.93 14.3945 22.0002 14.5641 22.0002 14.7409C22.0006 15.0949 22.141 15.4344 22.3908 15.6852C22.6406 15.936 22.9795 16.0778 23.3335 16.0796C23.5104 16.0796 23.6799 16.1498 23.8049 16.2748C23.93 16.3998 24.0002 16.5694 24.0002 16.7462V22.9856C24.0002 23.1624 23.93 23.3319 23.8049 23.457C23.6799 23.582 23.5104 23.6522 23.3335 23.6522C22.9788 23.6526 22.6387 23.7937 22.3878 24.0445C22.137 24.2953 21.9959 24.6355 21.9955 24.9902C21.9955 25.1662 21.926 25.3351 21.8019 25.46C21.6779 25.5849 21.5095 25.6557 21.3335 25.6569ZM5.55421 24.3236H20.7542C20.8734 23.862 21.1135 23.4405 21.4496 23.1024C21.7858 22.7644 22.206 22.522 22.6669 22.4002V17.3282C22.2047 17.208 21.7831 16.9667 21.4454 16.629C21.1078 16.2914 20.8664 15.8697 20.7462 15.4076H5.55088C5.43082 15.8698 5.18949 16.2915 4.85182 16.6292C4.51415 16.9668 4.09241 17.2082 3.63021 17.3282V22.4002C4.09267 22.5206 4.51456 22.7624 4.85224 23.1006C5.18992 23.4387 5.43111 23.8609 5.55088 24.3236H5.55421Z" fill="#E29482"/>
<path d="M13.148 23.54C12.4211 23.5401 11.7105 23.3247 11.1061 22.9209C10.5017 22.5172 10.0306 21.9433 9.75244 21.2717C9.47425 20.6002 9.40146 19.8613 9.54328 19.1484C9.6851 18.4355 10.0352 17.7806 10.5492 17.2667C11.0632 16.7528 11.7181 16.4029 12.431 16.2612C13.1439 16.1195 13.8829 16.1924 14.5543 16.4707C15.2258 16.749 15.7997 17.2202 16.2033 17.8247C16.6069 18.4292 16.8223 19.1398 16.822 19.8667C16.8204 20.8405 16.4328 21.774 15.7441 22.4626C15.0554 23.1512 14.1218 23.5386 13.148 23.54ZM13.148 17.5247C12.6849 17.5245 12.2322 17.6617 11.8471 17.9189C11.462 18.1761 11.1618 18.5416 10.9845 18.9694C10.8071 19.3972 10.7606 19.8679 10.8508 20.3221C10.9411 20.7763 11.1639 21.1936 11.4913 21.5211C11.8186 21.8486 12.2358 22.0718 12.6899 22.1622C13.144 22.2527 13.6148 22.2065 14.0427 22.0294C14.4706 21.8523 14.8363 21.5523 15.0937 21.1673C15.3511 20.7824 15.4885 20.3297 15.4887 19.8667C15.4883 19.2459 15.2416 18.6506 14.8028 18.2115C14.3639 17.7724 13.7688 17.5254 13.148 17.5247Z" fill="#E29482"/>
<path d="M27.2126 23.8584C27.0416 23.8584 26.877 23.7927 26.7531 23.6748C26.6291 23.5569 26.5552 23.3959 26.5467 23.2251C26.5381 23.0543 26.5955 22.8867 26.7071 22.757C26.8186 22.6273 26.9757 22.5455 27.1459 22.5284L27.9153 22.4477L26.5619 9.56305L5.09993 11.8164C4.924 11.8349 4.74794 11.7827 4.61048 11.6714C4.47302 11.56 4.38541 11.3986 4.36693 11.2227C4.34846 11.0468 4.40062 10.8707 4.51196 10.7333C4.62329 10.5958 4.78467 10.5082 4.9606 10.4897L27.0833 8.16705C27.1704 8.15781 27.2585 8.16583 27.3425 8.19065C27.4265 8.21548 27.5048 8.25662 27.5729 8.31172C27.641 8.36683 27.6976 8.43482 27.7394 8.5118C27.7812 8.58878 27.8074 8.67325 27.8166 8.76038L29.3093 22.9717C29.3185 23.0588 29.3105 23.1469 29.2857 23.2309C29.2608 23.315 29.2197 23.3933 29.1646 23.4614C29.1095 23.5295 29.0415 23.586 28.9645 23.6279C28.8875 23.6697 28.8031 23.6959 28.7159 23.705L27.2833 23.8557C27.2593 23.857 27.2359 23.8584 27.2126 23.8584Z" fill="#E29482"/>
<path d="M30.2457 19.8983C30.0799 19.8981 29.9201 19.8362 29.7975 19.7246C29.6749 19.6129 29.5983 19.4596 29.5826 19.2946C29.567 19.1295 29.6134 18.9645 29.7128 18.8318C29.8122 18.6991 29.9576 18.6083 30.1204 18.5769L30.5544 18.4936L28.1131 5.76961L7.21905 9.77761C7.04516 9.81094 6.86515 9.77382 6.71862 9.67443C6.57209 9.57503 6.47105 9.4215 6.43772 9.24761C6.40439 9.07371 6.4415 8.8937 6.5409 8.74718C6.64029 8.60065 6.79382 8.4996 6.96772 8.46628L28.5171 4.33294C28.6906 4.29972 28.8702 4.33673 29.0165 4.43586C29.1627 4.53499 29.2636 4.68812 29.2971 4.86161L31.9891 18.8956C32.0223 19.0692 31.9852 19.2489 31.8859 19.3952C31.7866 19.5415 31.6333 19.6423 31.4597 19.6756L30.3717 19.8843C30.3302 19.8928 30.2881 19.8975 30.2457 19.8983Z" fill="#E29482"/>
</g>
<defs>
<clipPath id="clip0_3615_9593">
<rect width="32" height="32" fill="white"/>
</clipPath>
</defs>
</svg>
