<svg width="32" height="32" viewBox="0 0 32 32" fill="none" xmlns="http://www.w3.org/2000/svg">
<path d="M11.3503 24.2577C7.6445 24.2577 4.64062 21.2539 4.64062 17.5481C4.64062 13.8422 7.6445 10.8384 11.3503 10.8384C12.8677 10.8384 14.2664 11.3493 15.3864 12.201" stroke="#CF84B7" stroke-width="1.3" stroke-miterlimit="10" stroke-linecap="round"/>
<path d="M17.3915 10.4977C15.7657 9.10414 13.6599 8.25769 11.3528 8.25769C6.2225 8.25769 2.0625 12.4177 2.0625 17.548C2.0625 22.6783 6.2225 26.8383 11.3528 26.8383C13.6599 26.8383 15.7657 25.9919 17.3915 24.5983C16.638 24.139 15.9619 23.5661 15.389 22.8951" stroke="#CF84B7" stroke-width="1.3" stroke-miterlimit="10" stroke-linecap="round"/>
<path d="M15.3864 12.201C14.2613 11.3493 12.8677 10.8384 11.3503 10.8384C7.6445 10.8384 4.64062 13.8422 4.64062 17.5481C4.64062 21.2539 7.6445 24.2577 11.3503 24.2577C12.1503 24.2577 12.9193 24.1132 13.6316 23.8552" stroke="#CF84B7" stroke-width="1.3" stroke-miterlimit="10" stroke-linecap="round"/>
<path d="M15.3896 22.8954C14.1612 21.4554 13.418 19.587 13.418 17.5483" stroke="#CF84B7" stroke-width="1.3" stroke-miterlimit="10" stroke-linecap="round"/>
<path d="M21.6773 11.871C24.8154 11.871 27.3547 14.4103 27.3547 17.5484C27.3547 20.6865 24.8154 23.2258 21.6773 23.2258C20.7638 23.2258 19.9018 23.0039 19.1328 22.6168" stroke="#CF84B7" stroke-width="1.3" stroke-miterlimit="10" stroke-linecap="round"/>
<path d="M17.3906 24.5982C18.6397 25.3569 20.1055 25.8059 21.6745 25.8059C26.2371 25.8059 29.9326 22.1104 29.9326 17.5479C29.9326 12.9853 26.2371 9.28979 21.6745 9.28979C20.1055 9.28979 18.6397 9.73367 17.3906 10.4975C18.0616 11.0704 18.6448 11.7362 19.13 12.4795" stroke="#CF84B7" stroke-width="1.3" stroke-miterlimit="10" stroke-linecap="round"/>
<path d="M19.1302 22.6164C18.3406 22.219 17.6593 21.6461 17.1328 20.939" stroke="#CF84B7" stroke-width="1.3" stroke-miterlimit="10" stroke-linecap="round"/>
<path d="M15.3906 22.8951C15.9584 23.5661 16.6397 24.139 17.3932 24.5984" stroke="#CF84B7" stroke-width="1.3" stroke-miterlimit="10" stroke-linecap="round"/>
<path d="M14.2644 13.9038C13.7225 15.0032 13.418 16.2367 13.418 17.5477C13.418 19.5916 14.1612 21.4548 15.3896 22.8948" stroke="#CF84B7" stroke-width="1.3" stroke-miterlimit="10" stroke-linecap="round"/>
<path d="M17.1351 20.9444C16.428 19.9948 15.9997 18.8231 15.9997 17.5483C15.9997 16.2735 16.4229 15.1019 17.1351 14.1522C16.6861 13.3935 16.0926 12.7277 15.3906 12.196" stroke="#CF84B7" stroke-width="1.3" stroke-miterlimit="10" stroke-linecap="round"/>
<path d="M19.1328 22.6168C19.8967 23.0039 20.7586 23.2258 21.6773 23.2258C24.8154 23.2258 27.3547 20.6865 27.3547 17.5484C27.3547 14.4103 24.8154 11.871 21.6773 11.871C21.4502 11.871 21.2231 11.8865 21.0012 11.9123" stroke="#CF84B7" stroke-width="1.3" stroke-miterlimit="10" stroke-linecap="round"/>
<path d="M19.1328 12.4797C20.0877 13.9404 20.6451 15.6797 20.6451 17.5481" stroke="#CF84B7" stroke-width="1.3" stroke-miterlimit="10" stroke-linecap="round"/>
<path d="M20.0722 20.7533C20.4438 19.7572 20.6451 18.6733 20.6451 17.5481C20.6451 15.6746 20.0877 13.9352 19.1328 12.4797" stroke="#CF84B7" stroke-width="1.3" stroke-miterlimit="10" stroke-linecap="round"/>
<path d="M18.0618 17.5483C18.0618 18.787 17.7212 19.9483 17.1328 20.9445C17.6593 21.6464 18.3406 22.2245 19.1302 22.6219" stroke="#CF84B7" stroke-width="1.3" stroke-miterlimit="10" stroke-linecap="round"/>
<path d="M17.1355 14.1522C16.4284 15.1019 16 16.2735 16 17.5484C16 18.8232 16.4232 19.9948 17.1355 20.9445C17.7239 19.9484 18.0645 18.7922 18.0645 17.5484C18.0645 17.1871 18.0335 16.8309 17.9768 16.4851" stroke="#CF84B7" stroke-width="1.3" stroke-miterlimit="10" stroke-linecap="round"/>
<path d="M21.0912 9.28992L19.0938 7.2254L20.126 5.16089H21.6744" stroke="#CF84B7" stroke-width="1.3" stroke-miterlimit="10" stroke-linecap="round"/>
<path d="M22.259 9.28992L24.2564 7.2254L23.2242 5.16089H21.6758" stroke="#CF84B7" stroke-width="1.3" stroke-miterlimit="10" stroke-linecap="round"/>
</svg>
