<svg width="32" height="32" viewBox="0 0 32 32" fill="none" xmlns="http://www.w3.org/2000/svg">
<g clip-path="url(#clip0_3625_7295)">
<path d="M30.5 22.2084V4.40625C30.5 3.35512 29.6448 2.5 28.5938 2.5H24.0625V1.875C24.0625 0.841125 23.2214 0 22.1875 0C21.1536 0 20.3125 0.841125 20.3125 1.875V2.5H10.1875V1.875C10.1875 0.841125 9.34637 0 8.3125 0C7.27863 0 6.4375 0.841125 6.4375 1.875V2.5H1.90625C0.855188 2.5 0 3.35512 0 4.40625V27.5938C0 28.6449 0.855188 29.5 1.90625 29.5H10.4251C10.7702 29.5 11.0501 29.2202 11.0501 28.875C11.0501 28.5298 10.7702 28.25 10.4251 28.25H1.90625C1.54437 28.25 1.25 27.9556 1.25 27.5938V4.40625C1.25 4.04437 1.54437 3.75 1.90625 3.75H6.4375V4.375C6.4375 5.40887 7.27863 6.25 8.3125 6.25C9.34637 6.25 10.1875 5.40887 10.1875 4.375V3.75H20.3125V4.375C20.3125 5.40887 21.1536 6.25 22.1875 6.25C23.2214 6.25 24.0625 5.40887 24.0625 4.375V3.75H28.5938C28.9556 3.75 29.25 4.04437 29.25 4.40625V7.5H5.625C5.27987 7.5 5 7.77981 5 8.125C5 8.47019 5.27987 8.75 5.625 8.75H29.25V21.1523C28.7179 20.8167 28.1285 20.5642 27.5 20.4129V11.125C27.5 10.7798 27.2201 10.5 26.875 10.5H3.625C3.27988 10.5 3 10.7798 3 11.125V25.875C3 26.2202 3.27988 26.5 3.625 26.5H20.2623C20.3011 27.1134 20.4343 27.7016 20.6479 28.25H15.425C15.0799 28.25 14.8 28.5298 14.8 28.875C14.8 29.2202 15.0799 29.5 15.425 29.5H21.3189C22.3831 31.0109 24.1406 32 26.125 32C29.3645 32 32 29.3645 32 26.125C32 24.6216 31.4321 23.2486 30.5 22.2084ZM8.9375 4.375C8.9375 4.71962 8.65713 5 8.3125 5C7.96788 5 7.6875 4.71962 7.6875 4.375V1.875C7.6875 1.53038 7.96788 1.25 8.3125 1.25C8.65713 1.25 8.9375 1.53038 8.9375 1.875V4.375ZM22.8125 4.375C22.8125 4.71962 22.5321 5 22.1875 5C21.8429 5 21.5625 4.71962 21.5625 4.375V1.875C21.5625 1.53038 21.8429 1.25 22.1875 1.25C22.5321 1.25 22.8125 1.53038 22.8125 1.875V4.375ZM26.125 20.25C25.8344 20.25 25.5488 20.2716 25.2694 20.3125H22.85V16.6875H26.25V20.2516C26.2084 20.2507 26.1668 20.25 26.125 20.25ZM20.3152 25.25H18.2V21.5625H21.6V22.3821C20.9336 23.1864 20.4771 24.1707 20.3152 25.25ZM4.25 16.6875H7.65V20.3125H4.25V16.6875ZM8.9 16.6875H12.3V20.3125H8.9V16.6875ZM18.2 16.6875H21.6V20.3125H18.2V16.6875ZM16.95 20.3125H13.55V16.6875H16.95V20.3125ZM18.2 15.4375V11.75H21.6V15.4375H18.2ZM16.95 15.4375H13.55V11.75H16.95V15.4375ZM12.3 15.4375H8.9V11.75H12.3V15.4375ZM12.3 21.5625V25.25H8.9V21.5625H12.3ZM13.55 21.5625H16.95V25.25H13.55V21.5625ZM26.25 15.4375H22.85V11.75H26.25V15.4375ZM7.65 11.75V15.4375H4.25V11.75H7.65ZM4.25 21.5625H7.65V25.25H4.25V21.5625ZM26.125 30.75C23.5747 30.75 21.5 28.6753 21.5 26.125C21.5 23.5747 23.5747 21.5 26.125 21.5C28.6753 21.5 30.75 23.5747 30.75 26.125C30.75 28.6753 28.6753 30.75 26.125 30.75Z" fill="#78B991"/>
<path d="M27.9344 24.6102L26.0013 26.5432L25.1412 25.6831C24.8972 25.4391 24.5016 25.4391 24.2573 25.6831C24.0132 25.9272 24.0132 26.3229 24.2573 26.567L25.5593 27.8691C25.6766 27.9862 25.8355 28.0521 26.0013 28.0521C26.167 28.0521 26.326 27.9862 26.4432 27.8691L28.8182 25.4941C29.0623 25.25 29.0623 24.8542 28.8182 24.6101C28.5741 24.3661 28.1785 24.3661 27.9344 24.6102Z" fill="#78B991"/>
<path d="M12.9258 28.25C12.7614 28.25 12.6002 28.3169 12.4839 28.4331C12.3677 28.5494 12.3008 28.7106 12.3008 28.875C12.3008 29.0394 12.3677 29.2006 12.4839 29.3169C12.6002 29.4331 12.7614 29.5 12.9258 29.5C13.0902 29.5 13.2514 29.4331 13.3677 29.3169C13.4838 29.2006 13.5508 29.0394 13.5508 28.875C13.5508 28.7106 13.4839 28.5494 13.3677 28.4331C13.2514 28.3169 13.0902 28.25 12.9258 28.25Z" fill="#78B991"/>
<path d="M3.56681 8.56688C3.68313 8.45063 3.75 8.28938 3.75 8.125C3.75 7.96062 3.68313 7.79938 3.56681 7.68313C3.45063 7.56688 3.28938 7.5 3.125 7.5C2.95994 7.5 2.79938 7.56688 2.68313 7.68313C2.56688 7.79938 2.5 7.96062 2.5 8.125C2.5 8.28938 2.56681 8.45063 2.68313 8.56688C2.79944 8.68313 2.95994 8.75 3.125 8.75C3.28938 8.75 3.45063 8.68313 3.56681 8.56688Z" fill="#78B991"/>
</g>
<defs>
<clipPath id="clip0_3625_7295">
<rect width="32" height="32" fill="white"/>
</clipPath>
</defs>
</svg>
