<svg width="32" height="32" viewBox="0 0 32 32" fill="none" xmlns="http://www.w3.org/2000/svg">
<path d="M23.9677 0.266724C23.9666 0.266724 23.9655 0.266724 23.9645 0.266724H8.03488C6.77515 0.268857 5.55061 0.68059 4.54581 1.44006C4.19275 1.70672 4.12235 2.21019 4.38901 2.56326C4.65568 2.91632 5.15915 2.98672 5.51221 2.72006C6.23861 2.16966 7.12395 1.87099 8.03488 1.86672H10.2215V3.59259C10.2237 4.83846 11.2338 5.84752 12.4797 5.84859H19.5197C20.7655 5.84752 21.7746 4.83846 21.7767 3.59259V1.86672H23.9634C26.2706 1.86672 28.1405 3.73659 28.1405 6.04379V25.9553C28.1415 28.2625 26.2717 30.1323 23.9645 30.1334H8.03488C5.72768 30.1334 3.85781 28.2635 3.85781 25.9563V6.38086C3.85781 5.93926 3.49941 5.58086 3.05781 5.58086C2.61621 5.58086 2.25781 5.93926 2.25781 6.38086V25.9553C2.25781 29.1457 4.84448 31.7323 8.03488 31.7334H23.9645C27.1549 31.7323 29.7415 29.1457 29.7415 25.9553V6.04486C29.7426 2.85446 27.1581 0.26779 23.9677 0.266724ZM20.1778 3.59259C20.1767 3.95526 19.8834 4.24859 19.5207 4.24859H12.4797C12.117 4.24859 11.8237 3.95526 11.8226 3.59259V1.86672H20.1789L20.1778 3.59259Z" fill="#68AFD7"/>
<path d="M9.33917 13.5467L12.6458 10.24C12.9605 9.92856 12.9626 9.42189 12.6512 9.10723C12.3397 8.79256 11.833 8.79043 11.5184 9.10189L8.16904 12.4086L7.12691 11.3664C6.80798 11.0603 6.30131 11.071 5.99624 11.3899C5.69758 11.7014 5.69971 12.1931 5.99944 12.5014L7.03838 13.5467C7.67411 14.1814 8.70344 14.1814 9.33917 13.5467Z" fill="#68AFD7"/>
<path d="M15.6711 12.2443H25.4332C25.8748 12.2443 26.2332 11.8859 26.2332 11.4443C26.2332 11.0027 25.8748 10.6443 25.4332 10.6443H15.6711C15.2295 10.6443 14.8711 11.0027 14.8711 11.4443C14.8711 11.8859 15.2295 12.2443 15.6711 12.2443Z" fill="#68AFD7"/>
<path d="M5.9826 19.0315L6.0018 19.0507V19.0475L7.045 20.0896C7.67754 20.7253 8.7058 20.7275 9.34047 20.0949C9.3426 20.0928 9.34367 20.0917 9.3458 20.0896L12.6525 16.7829C12.9533 16.4597 12.9362 15.9531 12.613 15.6523C12.3058 15.3664 11.8301 15.3664 11.5218 15.6523L8.17247 18.9589L7.13354 17.92C6.82634 17.6021 6.32074 17.5925 6.00287 17.8997C5.68394 18.2069 5.6754 18.7125 5.9826 19.0315Z" fill="#68AFD7"/>
<path d="M15.6711 18.7904H25.4332C25.8748 18.7904 26.2332 18.432 26.2332 17.9904C26.2332 17.5488 25.8748 17.1904 25.4332 17.1904H15.6711C15.2295 17.1904 14.8711 17.5488 14.8711 17.9904C14.8711 18.432 15.2295 18.7904 15.6711 18.7904Z" fill="#68AFD7"/>
<path d="M11.5219 22.2038L8.17257 25.5104L7.13044 24.4683C6.80297 24.1718 6.29737 24.1952 6.00084 24.5227C5.7235 24.8288 5.7235 25.295 6.0019 25.6L7.0451 26.6422C7.68084 27.2758 8.7091 27.2758 9.3459 26.6422L12.6526 23.3355C12.9598 23.0176 12.9512 22.511 12.6334 22.2048C12.324 21.9051 11.8323 21.904 11.5219 22.2038Z" fill="#68AFD7"/>
<path d="M15.6711 25.3377H25.4332C25.8748 25.3377 26.2332 24.9793 26.2332 24.5377C26.2332 24.0961 25.8748 23.7377 25.4332 23.7377H15.6711C15.2295 23.7377 14.8711 24.0961 14.8711 24.5377C14.8711 24.9793 15.2295 25.3377 15.6711 25.3377Z" fill="#68AFD7"/>
</svg>
