<svg width="179" height="14" viewBox="0 0 179 14" fill="none" xmlns="http://www.w3.org/2000/svg"><path d="M1.5 1l5 12m-6-5l4 5" stroke="#42382B" stroke-linecap="round" stroke-linejoin="round"/><path d="M15.16 4.344h1.608c.564 0 .744-.036.9-.132a.287.287 0 01.168-.06c.096 0 .192.048.264.12.24.18.588.492.804.744.06.06.084.12.084.18 0 .096-.048.18-.12.264-.156.156-.204.384-.264.588-.372 1.236-.804 2.448-1.512 3.528-.696 1.08-1.884 2.22-3.096 2.94a.348.348 0 01-.192.072c-.084 0-.156-.048-.252-.12-.372-.252-.72-.396-1.2-.54 1.692-.936 2.628-1.764 3.432-2.988.672-1.02 1.092-2.064 1.392-3.348h-5.22V6.6c0 .48.024.972.036 1.452 0 .192-.036.228-.192.228-.36.024-.744.024-1.104 0-.156 0-.192-.036-.192-.18.012-.612.024-1.008.024-1.488V5.64c0-.384 0-.816-.024-1.164-.012-.108.06-.156.168-.156a44.9 44.9 0 001.824.036h1.224v-.468c0-.636 0-1.128-.12-1.596.588.048 1.152.108 1.488.18.24.048.312.18.216.372-.06.168-.144.42-.144.924v.576zM27.337 7.5v3.036h1.272c.612 0 1.284-.012 1.932-.048.108 0 .156.072.168.228.012.252.012.516 0 .768-.012.156-.06.228-.204.216-.624 0-1.332-.024-1.884-.024h-3.768c-.72 0-1.26.024-1.764.048-.144 0-.204-.072-.228-.252-.036-.192-.06-.48-.06-.972.696.048 1.284.048 2.052.048h1.2V7.512h-.66c-.492 0-.924 0-1.476.012-.108.012-.168-.06-.192-.24-.036-.204-.048-.528-.072-.96.516.048 1.152.048 1.668.048h2.664c.54 0 1.092-.024 1.62-.024.144-.012.18.06.192.204.012.24.012.504 0 .744-.012.192-.06.24-.24.228-.468 0-1.068-.024-1.56-.024h-.66zM42.24 2.664l.684-.384c.06-.036.108-.024.168.036.348.324.732.852 1.02 1.392.036.072.036.132-.06.192l-.54.324c-.084.048-.144.024-.192-.06-.312-.588-.648-1.08-1.08-1.5zm1.176-.684l.648-.372c.072-.048.108-.024.168.036.408.384.792.9 1.02 1.344.036.072.048.144-.06.216l-.504.324c-.108.06-.168.012-.204-.06a5.764 5.764 0 00-1.068-1.488zm-3.444 2.388h-2.208c-.552 0-1.032.024-1.704.048-.156 0-.192-.06-.204-.204-.036-.288-.048-.72-.084-1.152.84.048 1.452.06 1.992.06h2.208c.672 0 1.428-.012 2.028-.048.12 0 .144.072.144.228.024.288.024.588 0 .876 0 .168-.024.228-.156.228a55.979 55.979 0 00-2.016-.036zm1.776 2.784H40.14c-.072 1.344-.24 2.148-.708 3.06-.48.936-1.344 1.812-2.112 2.268-.132.084-.252.144-.36.144-.084 0-.168-.036-.252-.12-.24-.24-.648-.48-1.068-.636 1.176-.636 1.884-1.224 2.388-2.136.444-.792.564-1.44.612-2.58h-2.28c-.6 0-1.188.036-1.8.072-.108.012-.144-.072-.156-.228a7.22 7.22 0 01-.096-1.152c.672.06 1.344.06 2.04.06h5.388c.936 0 1.632-.024 2.34-.072.12 0 .132.072.132.24.012.156.012.768 0 .924 0 .156-.072.204-.18.204a61.013 61.013 0 00-2.28-.048zm10.295.204v3.072c0 .576.024 1.344.036 1.956.012.144-.06.204-.204.216a6.57 6.57 0 01-.972 0c-.132-.012-.204-.072-.192-.216.012-.684.036-1.284.036-1.92V8.412c-.816.684-1.872 1.416-2.484 1.728a.264.264 0 01-.156.048.333.333 0 01-.24-.12 2.084 2.084 0 00-.864-.6 17.07 17.07 0 004.98-3.9c.276-.324.48-.624.636-1.032.408.24.912.552 1.104.72.084.072.132.156.132.216 0 .084-.06.168-.18.228-.156.084-.432.372-.54.492-.312.36-.672.756-1.092 1.164zm7.14-2.832c.264-.324.612-.696.84-.936.048-.06.108-.096.168-.096.048 0 .096.024.156.06.612.324 1.608 1.056 2.292 1.704.072.072.108.12.108.168 0 .048-.024.096-.072.156-.18.24-.576.72-.744.9-.06.06-.096.096-.144.096-.048 0-.096-.036-.156-.096a12.702 12.702 0 00-2.448-1.956zm.264 5.988c.612-.168.984-.276 1.62-.6 1.464-.756 2.244-1.26 3.456-2.232 1.464-1.188 2.268-1.956 3.288-3.264.072.6.18 1.008.336 1.404.036.084.06.156.06.228 0 .108-.06.204-.192.36-.636.744-1.668 1.704-2.76 2.544-.996.78-2.004 1.452-3.624 2.352-.54.324-.696.444-.804.552-.072.072-.144.12-.216.12-.06 0-.132-.048-.204-.132a8.315 8.315 0 01-.96-1.332zm16.5-6.072l2.16-.048c.312-.012.468-.06.6-.144a.241.241 0 01.156-.048c.06 0 .12.024.192.072.3.192.576.42.816.648.108.096.156.192.156.276 0 .096-.06.18-.144.252-.168.132-.288.3-.396.516-.804 1.632-1.572 2.796-2.376 3.708-1.032 1.164-2.46 2.328-3.648 2.988a.324.324 0 01-.192.06c-.096 0-.18-.048-.276-.132-.3-.24-.672-.42-1.14-.552 1.872-1.032 2.82-1.788 3.996-3.06.948-1.056 1.5-1.872 2.22-3.408l-2.904.084c-.984 1.212-1.584 1.896-2.268 2.46-.084.084-.168.132-.252.132a.288.288 0 01-.18-.072 3.255 3.255 0 00-1.152-.516c1.56-1.272 2.484-2.388 3.228-3.564.396-.672.576-1.044.708-1.62.684.24 1.14.444 1.404.636.084.06.12.132.12.204 0 .072-.036.144-.132.204-.12.072-.204.204-.3.324-.132.204-.252.384-.396.6zm3.012-1.224l.636-.444c.06-.048.108-.036.18.024.372.288.804.768 1.14 1.284.048.072.048.132-.036.192l-.504.372c-.084.06-.144.048-.204-.036-.36-.552-.744-1.008-1.212-1.392zm1.104-.792l.6-.432c.072-.048.108-.036.18.024.444.336.876.816 1.14 1.236.048.072.06.144-.036.216l-.48.372c-.096.072-.156.036-.204-.036a5.677 5.677 0 00-1.2-1.38zm9.528 2.22h-.048c-.276 2.04-.78 3.912-1.5 5.172-.516.9-1.14 1.38-2.04 1.38-1.056 0-2.124-1.128-2.124-3.084 0-1.152.492-2.256 1.356-3.12 1.008-1.008 2.28-1.536 3.9-1.536 2.88 0 4.572 1.776 4.572 4.164 0 2.232-1.26 3.636-3.696 4.368-.252.072-.36.024-.516-.216-.132-.204-.384-.48-.84-.756 2.028-.48 3.624-1.32 3.624-3.588 0-1.428-1.08-2.784-2.688-2.784zm-1.44.072c-.84.168-1.512.504-2.052 1.092-.576.648-.936 1.452-.936 2.22 0 1.104.444 1.716.816 1.716.312 0 .576-.156.9-.732.528-.972 1.068-2.7 1.272-4.296zm13.62 1.632a14.21 14.21 0 001.152-2.124c.264-.624.36-.912.456-1.476.6.216 1.224.516 1.512.756.084.06.12.132.12.204a.354.354 0 01-.132.264c-.168.144-.264.3-.54.804-.456.876-.9 1.692-1.368 2.376.672.528.996.828 1.764 1.632.048.06.072.108.072.168 0 .048-.024.096-.06.156-.24.312-.48.576-.732.852-.048.06-.096.084-.144.084-.06 0-.108-.036-.168-.108a12.269 12.269 0 00-1.572-1.584c-1.368 1.716-2.712 2.892-4.104 3.744a.546.546 0 01-.276.096.337.337 0 01-.228-.084c-.348-.288-.732-.552-1.08-.66 1.872-1.092 3.18-2.208 4.524-3.936a13.167 13.167 0 00-2.34-1.428c.348-.444.636-.816.792-.984.036-.036.072-.06.12-.06s.096.024.144.048c.624.312 1.38.768 2.088 1.26zm13.572-.564v3.972c0 .828.012 1.536.036 2.496.012.156-.048.204-.18.204-.384.024-.816.024-1.2 0-.132 0-.18-.048-.168-.192.012-.864.048-1.644.048-2.46V7.008c-1.056.888-2.34 1.8-3.3 2.304a.339.339 0 01-.18.048c-.096 0-.168-.036-.252-.12-.276-.276-.672-.516-1.032-.708 1.656-.852 2.676-1.548 3.78-2.46a19.47 19.47 0 002.556-2.508c.408-.48.564-.72.756-1.236.54.3 1.068.624 1.332.84.072.048.096.12.096.18 0 .096-.072.204-.168.264-.204.132-.396.312-.72.66a18.995 18.995 0 01-1.404 1.512zm6.84-1.26c.264-.324.612-.696.84-.936.048-.06.108-.096.168-.096.048 0 .096.024.156.06.612.324 1.608 1.056 2.292 1.704.072.072.108.12.108.168 0 .048-.024.096-.072.156-.18.24-.576.72-.744.9-.06.06-.096.096-.144.096-.048 0-.096-.036-.156-.096a12.702 12.702 0 00-2.448-1.956zm.264 5.988c.612-.168.984-.276 1.62-.6 1.464-.756 2.244-1.26 3.456-2.232 1.464-1.188 2.268-1.956 3.288-3.264.072.6.18 1.008.336 1.404.036.084.06.156.06.228 0 .108-.06.204-.192.36-.636.744-1.668 1.704-2.76 2.544-.996.78-2.004 1.452-3.624 2.352-.54.324-.696.444-.804.552-.072.072-.144.12-.216.12-.06 0-.132-.048-.204-.132a8.315 8.315 0 01-.96-1.332zm17.364-5.028v4.092h1.716c.804 0 1.608-.024 2.424-.048.132-.012.192.048.192.192.012.312.012.648 0 .96 0 .156-.036.216-.18.216a69.62 69.62 0 00-2.424-.048h-4.824c-.492 0-1.272.036-2.208.048-.192.012-.216-.036-.252-.24a6.996 6.996 0 01-.084-1.128c.864.048 1.776.06 2.544.06h1.632V5.484h-.936c-.864 0-1.368.024-1.86.048-.144.012-.168-.072-.204-.252a6.653 6.653 0 01-.096-1.116c.6.06 1.08.048 2.076.048h3.396c.732 0 1.392 0 2.1-.036.12-.012.156.06.156.192.012.3.012.636 0 .936-.012.156-.036.228-.168.228a43.063 43.063 0 00-2.064-.048h-.936zm9.132 1.356V4.488c0-.828-.036-1.284-.132-1.752.504.06 1.14.132 1.488.252.144.036.204.108.204.192 0 .06-.024.12-.048.18-.108.228-.132.528-.132 1.14v2.424c0 .624.024 1.092.036 1.512 0 .18-.072.24-.264.24h-.96c-.168 0-.24-.06-.228-.204 0-.42.036-1.116.036-1.632zm5.652-2.34v2.232c0 1.776-.264 2.964-.972 3.912-.588.78-1.632 1.512-2.64 1.884a.758.758 0 01-.252.06c-.096 0-.18-.036-.288-.144a3.898 3.898 0 00-1.02-.732c1.284-.396 2.292-.96 2.928-1.752.552-.684.804-1.68.804-3.204V4.488c0-1.032-.024-1.416-.132-1.956.576.048 1.152.132 1.56.264.12.036.168.108.168.204a.38.38 0 01-.048.192c-.108.252-.108.564-.108 1.308zm12.828.144h-5.184c-.684 0-1.416.048-2.124.096-.144.012-.192-.072-.216-.18-.096-.336-.168-.936-.216-1.296.816.06 1.476.084 2.436.084h5.148c.504 0 .708-.024.828-.072.06-.024.168-.084.228-.084.096 0 .192.072.276.168.264.228.492.48.72.756.06.072.096.144.096.216 0 .096-.06.18-.168.252a1.49 1.49 0 00-.324.348 10.203 10.203 0 01-2.112 2.316.345.345 0 01-.252.108.47.47 0 01-.288-.12c-.3-.24-.6-.372-.996-.492.96-.72 1.548-1.236 2.148-2.1zm-7.02 6.972c1.308-.684 1.992-1.332 2.508-2.292.456-.852.588-1.668.588-2.832 0-.444-.024-.72-.12-1.128.588.06 1.212.144 1.548.228.156.036.204.12.204.228a.489.489 0 01-.06.216c-.084.168-.096.288-.108.492-.036 1.164-.156 2.232-.708 3.3a6.246 6.246 0 01-2.184 2.388.604.604 0 01-.336.12.34.34 0 01-.24-.108c-.288-.252-.636-.444-1.092-.612z" fill="#42382B"/><path d="M177.5 1l-5 12m6-5l-4 5" stroke="#42382B" stroke-linecap="round" stroke-linejoin="round"/></svg>